<svg height="768" viewBox="0 0 864 576" width="1152" xmlns="http://www.w3.org/2000/svg" xmlns:xlink="http://www.w3.org/1999/xlink"><defs><style>*{stroke-linecap:butt;stroke-linejoin:round}</style></defs><g id="figure_1"><path d="M 0 576 L 864 576 L 864 0 L 0 0 z" fill="#fff" id="patch_1"/><g id="axes_1"><path d="M 50.87 524.95 L 850.68 524.95 L 850.68 26.88 L 50.87 26.88 z" fill="#fff" id="patch_2"/><g id="matplotlib.axis_1"><g id="xtick_1"><path clip-path="url(#p74d9dedb55)" d="M 50.87 524.95 L 50.87 26.88" fill="none" stroke="#b0b0b0" stroke-linecap="square" stroke-width=".8" id="line2d_1"/><g id="line2d_2"><defs><path d="M 0 0 L 0 3.5" id="mfc518bbc66" stroke="#000" stroke-width=".8"/></defs><use x="50.87" xlink:href="#mfc518bbc66" y="524.95" stroke="#000" stroke-width=".8"/></g><g id="text_1"><defs><path d="M 12.40625 8.296875 L 28.515625 8.296875 L 28.515625 63.921875 L 10.984375 60.40625 L 10.984375 69.390625 L 28.421875 72.90625 L 38.28125 72.90625 L 38.28125 8.296875 L 54.390625 8.296875 L 54.390625 0 L 12.40625 0 z" id="DejaVuSans-49"/><path d="M 33.015625 40.375 Q 26.375 40.375 22.484375 35.828125 Q 18.609375 31.296875 18.609375 23.390625 Q 18.609375 15.53125 22.484375 10.953125 Q 26.375 6.390625 33.015625 6.390625 Q 39.65625 6.390625 43.53125 10.953125 Q 47.40625 15.53125 47.40625 23.390625 Q 47.40625 31.296875 43.53125 35.828125 Q 39.65625 40.375 33.015625 40.375 z M 52.59375 71.296875 L 52.59375 62.3125 Q 48.875 64.0625 45.09375 64.984375 Q 41.3125 65.921875 37.59375 65.921875 Q 27.828125 65.921875 22.671875 59.328125 Q 17.53125 52.734375 16.796875 39.40625 Q 19.671875 43.65625 24.015625 45.921875 Q 28.375 48.1875 33.59375 48.1875 Q 44.578125 48.1875 50.953125 41.515625 Q 57.328125 34.859375 57.328125 23.390625 Q 57.328125 12.15625 50.6875 5.359375 Q 44.046875 -1.421875 33.015625 -1.421875 Q 20.359375 -1.421875 13.671875 8.265625 Q 6.984375 17.96875 6.984375 36.375 Q 6.984375 53.65625 15.1875 63.9375 Q 23.390625 74.21875 37.203125 74.21875 Q 40.921875 74.21875 44.703125 73.484375 Q 48.484375 72.75 52.59375 71.296875 z" id="DejaVuSans-54"/></defs><g transform="matrix(0 -.1 -.1 0 53.63 544.675)"><use xlink:href="#DejaVuSans-49"/><use x="63.623" xlink:href="#DejaVuSans-54"/></g></g></g><g id="xtick_2"><path clip-path="url(#p74d9dedb55)" d="M 64.255941 524.95 L 64.255941 26.88" fill="none" stroke="#b0b0b0" stroke-linecap="square" stroke-width=".8" id="line2d_3"/><use x="64.256" xlink:href="#mfc518bbc66" y="524.95" stroke="#000" stroke-width=".8" id="line2d_4"/><g id="text_2"><defs><path d="M 19.1875 8.296875 L 53.609375 8.296875 L 53.609375 0 L 7.328125 0 L 7.328125 8.296875 Q 12.9375 14.109375 22.625 23.890625 Q 32.328125 33.6875 34.8125 36.53125 Q 39.546875 41.84375 41.421875 45.53125 Q 43.3125 49.21875 43.3125 52.78125 Q 43.3125 58.59375 39.234375 62.25 Q 35.15625 65.921875 28.609375 65.921875 Q 23.96875 65.921875 18.8125 64.3125 Q 13.671875 62.703125 7.8125 59.421875 L 7.8125 69.390625 Q 13.765625 71.78125 18.9375 73 Q 24.125 74.21875 28.421875 74.21875 Q 39.75 74.21875 46.484375 68.546875 Q 53.21875 62.890625 53.21875 53.421875 Q 53.21875 48.921875 51.53125 44.890625 Q 49.859375 40.875 45.40625 35.40625 Q 44.1875 33.984375 37.640625 27.21875 Q 31.109375 20.453125 19.1875 8.296875 z" id="DejaVuSans-50"/><path d="M 31.78125 66.40625 Q 24.171875 66.40625 20.328125 58.90625 Q 16.5 51.421875 16.5 36.375 Q 16.5 21.390625 20.328125 13.890625 Q 24.171875 6.390625 31.78125 6.390625 Q 39.453125 6.390625 43.28125 13.890625 Q 47.125 21.390625 47.125 36.375 Q 47.125 51.421875 43.28125 58.90625 Q 39.453125 66.40625 31.78125 66.40625 z M 31.78125 74.21875 Q 44.046875 74.21875 50.515625 64.515625 Q 56.984375 54.828125 56.984375 36.375 Q 56.984375 17.96875 50.515625 8.265625 Q 44.046875 -1.421875 31.78125 -1.421875 Q 19.53125 -1.421875 13.0625 8.265625 Q 6.59375 17.96875 6.59375 36.375 Q 6.59375 54.828125 13.0625 64.515625 Q 19.53125 74.21875 31.78125 74.21875 z" id="DejaVuSans-48"/></defs><g transform="matrix(0 -.1 -.1 0 67.015 544.675)"><use xlink:href="#DejaVuSans-50"/><use x="63.623" xlink:href="#DejaVuSans-48"/></g></g></g><g id="xtick_3"><path clip-path="url(#p74d9dedb55)" d="M 77.641883 524.95 L 77.641883 26.88" fill="none" stroke="#b0b0b0" stroke-linecap="square" stroke-width=".8" id="line2d_5"/><use x="77.642" xlink:href="#mfc518bbc66" y="524.95" stroke="#000" stroke-width=".8" id="line2d_6"/><g id="text_3"><defs><path d="M 37.796875 64.3125 L 12.890625 25.390625 L 37.796875 25.390625 z M 35.203125 72.90625 L 47.609375 72.90625 L 47.609375 25.390625 L 58.015625 25.390625 L 58.015625 17.1875 L 47.609375 17.1875 L 47.609375 0 L 37.796875 0 L 37.796875 17.1875 L 4.890625 17.1875 L 4.890625 26.703125 z" id="DejaVuSans-52"/></defs><g transform="matrix(0 -.1 -.1 0 80.401 544.675)"><use xlink:href="#DejaVuSans-50"/><use x="63.623" xlink:href="#DejaVuSans-52"/></g></g></g><g id="xtick_4"><path clip-path="url(#p74d9dedb55)" d="M 91.027824 524.95 L 91.027824 26.88" fill="none" stroke="#b0b0b0" stroke-linecap="square" stroke-width=".8" id="line2d_7"/><use x="91.028" xlink:href="#mfc518bbc66" y="524.95" stroke="#000" stroke-width=".8" id="line2d_8"/><g id="text_4"><defs><path d="M 31.78125 34.625 Q 24.75 34.625 20.71875 30.859375 Q 16.703125 27.09375 16.703125 20.515625 Q 16.703125 13.921875 20.71875 10.15625 Q 24.75 6.390625 31.78125 6.390625 Q 38.8125 6.390625 42.859375 10.171875 Q 46.921875 13.96875 46.921875 20.515625 Q 46.921875 27.09375 42.890625 30.859375 Q 38.875 34.625 31.78125 34.625 z M 21.921875 38.8125 Q 15.578125 40.375 12.03125 44.71875 Q 8.5 49.078125 8.5 55.328125 Q 8.5 64.0625 14.71875 69.140625 Q 20.953125 74.21875 31.78125 74.21875 Q 42.671875 74.21875 48.875 69.140625 Q 55.078125 64.0625 55.078125 55.328125 Q 55.078125 49.078125 51.53125 44.71875 Q 48 40.375 41.703125 38.8125 Q 48.828125 37.15625 52.796875 32.3125 Q 56.78125 27.484375 56.78125 20.515625 Q 56.78125 9.90625 50.3125 4.234375 Q 43.84375 -1.421875 31.78125 -1.421875 Q 19.734375 -1.421875 13.25 4.234375 Q 6.78125 9.90625 6.78125 20.515625 Q 6.78125 27.484375 10.78125 32.3125 Q 14.796875 37.15625 21.921875 38.8125 z M 18.3125 54.390625 Q 18.3125 48.734375 21.84375 45.5625 Q 25.390625 42.390625 31.78125 42.390625 Q 38.140625 42.390625 41.71875 45.5625 Q 45.3125 48.734375 45.3125 54.390625 Q 45.3125 60.0625 41.71875 63.234375 Q 38.140625 66.40625 31.78125 66.40625 Q 25.390625 66.40625 21.84375 63.234375 Q 18.3125 60.0625 18.3125 54.390625 z" id="DejaVuSans-56"/></defs><g transform="matrix(0 -.1 -.1 0 93.787 544.675)"><use xlink:href="#DejaVuSans-50"/><use x="63.623" xlink:href="#DejaVuSans-56"/></g></g></g><g id="xtick_5"><path clip-path="url(#p74d9dedb55)" d="M 104.413766 524.95 L 104.413766 26.88" fill="none" stroke="#b0b0b0" stroke-linecap="square" stroke-width=".8" id="line2d_9"/><use x="104.414" xlink:href="#mfc518bbc66" y="524.95" stroke="#000" stroke-width=".8" id="line2d_10"/><g id="text_5"><defs><path d="M 40.578125 39.3125 Q 47.65625 37.796875 51.625 33 Q 55.609375 28.21875 55.609375 21.1875 Q 55.609375 10.40625 48.1875 4.484375 Q 40.765625 -1.421875 27.09375 -1.421875 Q 22.515625 -1.421875 17.65625 -0.515625 Q 12.796875 0.390625 7.625 2.203125 L 7.625 11.71875 Q 11.71875 9.328125 16.59375 8.109375 Q 21.484375 6.890625 26.8125 6.890625 Q 36.078125 6.890625 40.9375 10.546875 Q 45.796875 14.203125 45.796875 21.1875 Q 45.796875 27.640625 41.28125 31.265625 Q 36.765625 34.90625 28.71875 34.90625 L 20.21875 34.90625 L 20.21875 43.015625 L 29.109375 43.015625 Q 36.375 43.015625 40.234375 45.921875 Q 44.09375 48.828125 44.09375 54.296875 Q 44.09375 59.90625 40.109375 62.90625 Q 36.140625 65.921875 28.71875 65.921875 Q 24.65625 65.921875 20.015625 65.03125 Q 15.375 64.15625 9.8125 62.3125 L 9.8125 71.09375 Q 15.4375 72.65625 20.34375 73.4375 Q 25.25 74.21875 29.59375 74.21875 Q 40.828125 74.21875 47.359375 69.109375 Q 53.90625 64.015625 53.90625 55.328125 Q 53.90625 49.265625 50.4375 45.09375 Q 46.96875 40.921875 40.578125 39.3125 z" id="DejaVuSans-51"/></defs><g transform="matrix(0 -.1 -.1 0 107.173 544.675)"><use xlink:href="#DejaVuSans-51"/><use x="63.623" xlink:href="#DejaVuSans-50"/></g></g></g><g id="xtick_6"><path clip-path="url(#p74d9dedb55)" d="M 117.799707 524.95 L 117.799707 26.88" fill="none" stroke="#b0b0b0" stroke-linecap="square" stroke-width=".8" id="line2d_11"/><use x="117.8" xlink:href="#mfc518bbc66" y="524.95" stroke="#000" stroke-width=".8" id="line2d_12"/><g transform="matrix(0 -.1 -.1 0 120.56 544.675)" id="text_6"><use xlink:href="#DejaVuSans-51"/><use x="63.623" xlink:href="#DejaVuSans-54"/></g></g><g id="xtick_7"><path clip-path="url(#p74d9dedb55)" d="M 131.185649 524.95 L 131.185649 26.88" fill="none" stroke="#b0b0b0" stroke-linecap="square" stroke-width=".8" id="line2d_13"/><use x="131.186" xlink:href="#mfc518bbc66" y="524.95" stroke="#000" stroke-width=".8" id="line2d_14"/><g transform="matrix(0 -.1 -.1 0 133.945 544.675)" id="text_7"><use xlink:href="#DejaVuSans-52"/><use x="63.623" xlink:href="#DejaVuSans-48"/></g></g><g id="xtick_8"><path clip-path="url(#p74d9dedb55)" d="M 144.57159 524.95 L 144.57159 26.88" fill="none" stroke="#b0b0b0" stroke-linecap="square" stroke-width=".8" id="line2d_15"/><use x="144.572" xlink:href="#mfc518bbc66" y="524.95" stroke="#000" stroke-width=".8" id="line2d_16"/><g transform="matrix(0 -.1 -.1 0 147.331 544.675)" id="text_8"><use xlink:href="#DejaVuSans-52"/><use x="63.623" xlink:href="#DejaVuSans-52"/></g></g><g id="xtick_9"><path clip-path="url(#p74d9dedb55)" d="M 157.957531 524.95 L 157.957531 26.88" fill="none" stroke="#b0b0b0" stroke-linecap="square" stroke-width=".8" id="line2d_17"/><use x="157.958" xlink:href="#mfc518bbc66" y="524.95" stroke="#000" stroke-width=".8" id="line2d_18"/><g transform="matrix(0 -.1 -.1 0 160.717 544.675)" id="text_9"><use xlink:href="#DejaVuSans-52"/><use x="63.623" xlink:href="#DejaVuSans-56"/></g></g><g id="xtick_10"><path clip-path="url(#p74d9dedb55)" d="M 171.343473 524.95 L 171.343473 26.88" fill="none" stroke="#b0b0b0" stroke-linecap="square" stroke-width=".8" id="line2d_19"/><use x="171.343" xlink:href="#mfc518bbc66" y="524.95" stroke="#000" stroke-width=".8" id="line2d_20"/><g id="text_10"><defs><path d="M 10.796875 72.90625 L 49.515625 72.90625 L 49.515625 64.59375 L 19.828125 64.59375 L 19.828125 46.734375 Q 21.96875 47.46875 24.109375 47.828125 Q 26.265625 48.1875 28.421875 48.1875 Q 40.625 48.1875 47.75 41.5 Q 54.890625 34.8125 54.890625 23.390625 Q 54.890625 11.625 47.5625 5.09375 Q 40.234375 -1.421875 26.90625 -1.421875 Q 22.3125 -1.421875 17.546875 -0.640625 Q 12.796875 0.140625 7.71875 1.703125 L 7.71875 11.625 Q 12.109375 9.234375 16.796875 8.0625 Q 21.484375 6.890625 26.703125 6.890625 Q 35.15625 6.890625 40.078125 11.328125 Q 45.015625 15.765625 45.015625 23.390625 Q 45.015625 31 40.078125 35.4375 Q 35.15625 39.890625 26.703125 39.890625 Q 22.75 39.890625 18.8125 39.015625 Q 14.890625 38.140625 10.796875 36.28125 z" id="DejaVuSans-53"/></defs><g transform="matrix(0 -.1 -.1 0 174.103 544.675)"><use xlink:href="#DejaVuSans-53"/><use x="63.623" xlink:href="#DejaVuSans-50"/></g></g></g><g id="xtick_11"><path clip-path="url(#p74d9dedb55)" d="M 184.729414 524.95 L 184.729414 26.88" fill="none" stroke="#b0b0b0" stroke-linecap="square" stroke-width=".8" id="line2d_21"/><use x="184.729" xlink:href="#mfc518bbc66" y="524.95" stroke="#000" stroke-width=".8" id="line2d_22"/><g transform="matrix(0 -.1 -.1 0 187.489 544.675)" id="text_11"><use xlink:href="#DejaVuSans-53"/><use x="63.623" xlink:href="#DejaVuSans-54"/></g></g><g id="xtick_12"><path clip-path="url(#p74d9dedb55)" d="M 198.115356 524.95 L 198.115356 26.88" fill="none" stroke="#b0b0b0" stroke-linecap="square" stroke-width=".8" id="line2d_23"/><use x="198.115" xlink:href="#mfc518bbc66" y="524.95" stroke="#000" stroke-width=".8" id="line2d_24"/><g transform="matrix(0 -.1 -.1 0 200.875 544.675)" id="text_12"><use xlink:href="#DejaVuSans-54"/><use x="63.623" xlink:href="#DejaVuSans-48"/></g></g><g id="xtick_13"><path clip-path="url(#p74d9dedb55)" d="M 211.501297 524.95 L 211.501297 26.88" fill="none" stroke="#b0b0b0" stroke-linecap="square" stroke-width=".8" id="line2d_25"/><use x="211.501" xlink:href="#mfc518bbc66" y="524.95" stroke="#000" stroke-width=".8" id="line2d_26"/><g transform="matrix(0 -.1 -.1 0 214.26 544.675)" id="text_13"><use xlink:href="#DejaVuSans-54"/><use x="63.623" xlink:href="#DejaVuSans-52"/></g></g><g id="xtick_14"><path clip-path="url(#p74d9dedb55)" d="M 224.887238 524.95 L 224.887238 26.88" fill="none" stroke="#b0b0b0" stroke-linecap="square" stroke-width=".8" id="line2d_27"/><use x="224.887" xlink:href="#mfc518bbc66" y="524.95" stroke="#000" stroke-width=".8" id="line2d_28"/><g transform="matrix(0 -.1 -.1 0 227.647 544.675)" id="text_14"><use xlink:href="#DejaVuSans-54"/><use x="63.623" xlink:href="#DejaVuSans-56"/></g></g><g id="xtick_15"><path clip-path="url(#p74d9dedb55)" d="M 238.27318 524.95 L 238.27318 26.88" fill="none" stroke="#b0b0b0" stroke-linecap="square" stroke-width=".8" id="line2d_29"/><use x="238.273" xlink:href="#mfc518bbc66" y="524.95" stroke="#000" stroke-width=".8" id="line2d_30"/><g id="text_15"><defs><path d="M 8.203125 72.90625 L 55.078125 72.90625 L 55.078125 68.703125 L 28.609375 0 L 18.3125 0 L 43.21875 64.59375 L 8.203125 64.59375 z" id="DejaVuSans-55"/></defs><g transform="matrix(0 -.1 -.1 0 241.033 544.675)"><use xlink:href="#DejaVuSans-55"/><use x="63.623" xlink:href="#DejaVuSans-50"/></g></g></g><g id="xtick_16"><path clip-path="url(#p74d9dedb55)" d="M 251.659121 524.95 L 251.659121 26.88" fill="none" stroke="#b0b0b0" stroke-linecap="square" stroke-width=".8" id="line2d_31"/><use x="251.659" xlink:href="#mfc518bbc66" y="524.95" stroke="#000" stroke-width=".8" id="line2d_32"/><g transform="matrix(0 -.1 -.1 0 254.418 544.675)" id="text_16"><use xlink:href="#DejaVuSans-55"/><use x="63.623" xlink:href="#DejaVuSans-54"/></g></g><g id="xtick_17"><path clip-path="url(#p74d9dedb55)" d="M 265.045063 524.95 L 265.045063 26.88" fill="none" stroke="#b0b0b0" stroke-linecap="square" stroke-width=".8" id="line2d_33"/><use x="265.045" xlink:href="#mfc518bbc66" y="524.95" stroke="#000" stroke-width=".8" id="line2d_34"/><g transform="matrix(0 -.1 -.1 0 267.804 544.675)" id="text_17"><use xlink:href="#DejaVuSans-56"/><use x="63.623" xlink:href="#DejaVuSans-48"/></g></g><g id="xtick_18"><path clip-path="url(#p74d9dedb55)" d="M 278.431004 524.95 L 278.431004 26.88" fill="none" stroke="#b0b0b0" stroke-linecap="square" stroke-width=".8" id="line2d_35"/><use x="278.431" xlink:href="#mfc518bbc66" y="524.95" stroke="#000" stroke-width=".8" id="line2d_36"/><g transform="matrix(0 -.1 -.1 0 281.19 544.675)" id="text_18"><use xlink:href="#DejaVuSans-56"/><use x="63.623" xlink:href="#DejaVuSans-52"/></g></g><g id="xtick_19"><path clip-path="url(#p74d9dedb55)" d="M 291.816946 524.95 L 291.816946 26.88" fill="none" stroke="#b0b0b0" stroke-linecap="square" stroke-width=".8" id="line2d_37"/><use x="291.817" xlink:href="#mfc518bbc66" y="524.95" stroke="#000" stroke-width=".8" id="line2d_38"/><g transform="matrix(0 -.1 -.1 0 294.576 544.675)" id="text_19"><use xlink:href="#DejaVuSans-56"/><use x="63.623" xlink:href="#DejaVuSans-56"/></g></g><g id="xtick_20"><path clip-path="url(#p74d9dedb55)" d="M 305.202887 524.95 L 305.202887 26.88" fill="none" stroke="#b0b0b0" stroke-linecap="square" stroke-width=".8" id="line2d_39"/><use x="305.203" xlink:href="#mfc518bbc66" y="524.95" stroke="#000" stroke-width=".8" id="line2d_40"/><g id="text_20"><defs><path d="M 10.984375 1.515625 L 10.984375 10.5 Q 14.703125 8.734375 18.5 7.8125 Q 22.3125 6.890625 25.984375 6.890625 Q 35.75 6.890625 40.890625 13.453125 Q 46.046875 20.015625 46.78125 33.40625 Q 43.953125 29.203125 39.59375 26.953125 Q 35.25 24.703125 29.984375 24.703125 Q 19.046875 24.703125 12.671875 31.3125 Q 6.296875 37.9375 6.296875 49.421875 Q 6.296875 60.640625 12.9375 67.421875 Q 19.578125 74.21875 30.609375 74.21875 Q 43.265625 74.21875 49.921875 64.515625 Q 56.59375 54.828125 56.59375 36.375 Q 56.59375 19.140625 48.40625 8.859375 Q 40.234375 -1.421875 26.421875 -1.421875 Q 22.703125 -1.421875 18.890625 -0.6875 Q 15.09375 0.046875 10.984375 1.515625 z M 30.609375 32.421875 Q 37.25 32.421875 41.125 36.953125 Q 45.015625 41.5 45.015625 49.421875 Q 45.015625 57.28125 41.125 61.84375 Q 37.25 66.40625 30.609375 66.40625 Q 23.96875 66.40625 20.09375 61.84375 Q 16.21875 57.28125 16.21875 49.421875 Q 16.21875 41.5 20.09375 36.953125 Q 23.96875 32.421875 30.609375 32.421875 z" id="DejaVuSans-57"/></defs><g transform="matrix(0 -.1 -.1 0 307.962 544.675)"><use xlink:href="#DejaVuSans-57"/><use x="63.623" xlink:href="#DejaVuSans-50"/></g></g></g><g id="xtick_21"><path clip-path="url(#p74d9dedb55)" d="M 318.588828 524.95 L 318.588828 26.88" fill="none" stroke="#b0b0b0" stroke-linecap="square" stroke-width=".8" id="line2d_41"/><use x="318.589" xlink:href="#mfc518bbc66" y="524.95" stroke="#000" stroke-width=".8" id="line2d_42"/><g transform="matrix(0 -.1 -.1 0 321.348 544.675)" id="text_21"><use xlink:href="#DejaVuSans-57"/><use x="63.623" xlink:href="#DejaVuSans-54"/></g></g><g id="xtick_22"><path clip-path="url(#p74d9dedb55)" d="M 331.97477 524.95 L 331.97477 26.88" fill="none" stroke="#b0b0b0" stroke-linecap="square" stroke-width=".8" id="line2d_43"/><use x="331.975" xlink:href="#mfc518bbc66" y="524.95" stroke="#000" stroke-width=".8" id="line2d_44"/><g transform="matrix(0 -.1 -.1 0 334.734 551.038)" id="text_22"><use xlink:href="#DejaVuSans-49"/><use x="63.623" xlink:href="#DejaVuSans-48"/><use x="127.246" xlink:href="#DejaVuSans-48"/></g></g><g id="xtick_23"><path clip-path="url(#p74d9dedb55)" d="M 345.360711 524.95 L 345.360711 26.88" fill="none" stroke="#b0b0b0" stroke-linecap="square" stroke-width=".8" id="line2d_45"/><use x="345.361" xlink:href="#mfc518bbc66" y="524.95" stroke="#000" stroke-width=".8" id="line2d_46"/><g transform="matrix(0 -.1 -.1 0 348.12 551.038)" id="text_23"><use xlink:href="#DejaVuSans-49"/><use x="63.623" xlink:href="#DejaVuSans-48"/><use x="127.246" xlink:href="#DejaVuSans-52"/></g></g><g id="xtick_24"><path clip-path="url(#p74d9dedb55)" d="M 358.746653 524.95 L 358.746653 26.88" fill="none" stroke="#b0b0b0" stroke-linecap="square" stroke-width=".8" id="line2d_47"/><use x="358.747" xlink:href="#mfc518bbc66" y="524.95" stroke="#000" stroke-width=".8" id="line2d_48"/><g transform="matrix(0 -.1 -.1 0 361.506 551.038)" id="text_24"><use xlink:href="#DejaVuSans-49"/><use x="63.623" xlink:href="#DejaVuSans-48"/><use x="127.246" xlink:href="#DejaVuSans-56"/></g></g><g id="xtick_25"><path clip-path="url(#p74d9dedb55)" d="M 372.132594 524.95 L 372.132594 26.88" fill="none" stroke="#b0b0b0" stroke-linecap="square" stroke-width=".8" id="line2d_49"/><use x="372.133" xlink:href="#mfc518bbc66" y="524.95" stroke="#000" stroke-width=".8" id="line2d_50"/><g transform="matrix(0 -.1 -.1 0 374.892 551.038)" id="text_25"><use xlink:href="#DejaVuSans-49"/><use x="63.623" xlink:href="#DejaVuSans-49"/><use x="127.246" xlink:href="#DejaVuSans-50"/></g></g><g id="xtick_26"><path clip-path="url(#p74d9dedb55)" d="M 385.518536 524.95 L 385.518536 26.88" fill="none" stroke="#b0b0b0" stroke-linecap="square" stroke-width=".8" id="line2d_51"/><use x="385.519" xlink:href="#mfc518bbc66" y="524.95" stroke="#000" stroke-width=".8" id="line2d_52"/><g transform="matrix(0 -.1 -.1 0 388.278 551.038)" id="text_26"><use xlink:href="#DejaVuSans-49"/><use x="63.623" xlink:href="#DejaVuSans-49"/><use x="127.246" xlink:href="#DejaVuSans-54"/></g></g><g id="xtick_27"><path clip-path="url(#p74d9dedb55)" d="M 398.904477 524.95 L 398.904477 26.88" fill="none" stroke="#b0b0b0" stroke-linecap="square" stroke-width=".8" id="line2d_53"/><use x="398.904" xlink:href="#mfc518bbc66" y="524.95" stroke="#000" stroke-width=".8" id="line2d_54"/><g transform="matrix(0 -.1 -.1 0 401.664 551.038)" id="text_27"><use xlink:href="#DejaVuSans-49"/><use x="63.623" xlink:href="#DejaVuSans-50"/><use x="127.246" xlink:href="#DejaVuSans-48"/></g></g><g id="xtick_28"><path clip-path="url(#p74d9dedb55)" d="M 412.290418 524.95 L 412.290418 26.88" fill="none" stroke="#b0b0b0" stroke-linecap="square" stroke-width=".8" id="line2d_55"/><use x="412.29" xlink:href="#mfc518bbc66" y="524.95" stroke="#000" stroke-width=".8" id="line2d_56"/><g transform="matrix(0 -.1 -.1 0 415.05 551.038)" id="text_28"><use xlink:href="#DejaVuSans-49"/><use x="63.623" xlink:href="#DejaVuSans-50"/><use x="127.246" xlink:href="#DejaVuSans-52"/></g></g><g id="xtick_29"><path clip-path="url(#p74d9dedb55)" d="M 425.67636 524.95 L 425.67636 26.88" fill="none" stroke="#b0b0b0" stroke-linecap="square" stroke-width=".8" id="line2d_57"/><use x="425.676" xlink:href="#mfc518bbc66" y="524.95" stroke="#000" stroke-width=".8" id="line2d_58"/><g transform="matrix(0 -.1 -.1 0 428.436 551.038)" id="text_29"><use xlink:href="#DejaVuSans-49"/><use x="63.623" xlink:href="#DejaVuSans-50"/><use x="127.246" xlink:href="#DejaVuSans-56"/></g></g><g id="xtick_30"><path clip-path="url(#p74d9dedb55)" d="M 439.062301 524.95 L 439.062301 26.88" fill="none" stroke="#b0b0b0" stroke-linecap="square" stroke-width=".8" id="line2d_59"/><use x="439.062" xlink:href="#mfc518bbc66" y="524.95" stroke="#000" stroke-width=".8" id="line2d_60"/><g transform="matrix(0 -.1 -.1 0 441.822 551.038)" id="text_30"><use xlink:href="#DejaVuSans-49"/><use x="63.623" xlink:href="#DejaVuSans-51"/><use x="127.246" xlink:href="#DejaVuSans-50"/></g></g><g id="xtick_31"><path clip-path="url(#p74d9dedb55)" d="M 452.448243 524.95 L 452.448243 26.88" fill="none" stroke="#b0b0b0" stroke-linecap="square" stroke-width=".8" id="line2d_61"/><use x="452.448" xlink:href="#mfc518bbc66" y="524.95" stroke="#000" stroke-width=".8" id="line2d_62"/><g transform="matrix(0 -.1 -.1 0 455.208 551.038)" id="text_31"><use xlink:href="#DejaVuSans-49"/><use x="63.623" xlink:href="#DejaVuSans-51"/><use x="127.246" xlink:href="#DejaVuSans-54"/></g></g><g id="xtick_32"><path clip-path="url(#p74d9dedb55)" d="M 465.834184 524.95 L 465.834184 26.88" fill="none" stroke="#b0b0b0" stroke-linecap="square" stroke-width=".8" id="line2d_63"/><use x="465.834" xlink:href="#mfc518bbc66" y="524.95" stroke="#000" stroke-width=".8" id="line2d_64"/><g transform="matrix(0 -.1 -.1 0 468.594 551.038)" id="text_32"><use xlink:href="#DejaVuSans-49"/><use x="63.623" xlink:href="#DejaVuSans-52"/><use x="127.246" xlink:href="#DejaVuSans-48"/></g></g><g id="xtick_33"><path clip-path="url(#p74d9dedb55)" d="M 479.220126 524.95 L 479.220126 26.88" fill="none" stroke="#b0b0b0" stroke-linecap="square" stroke-width=".8" id="line2d_65"/><use x="479.22" xlink:href="#mfc518bbc66" y="524.95" stroke="#000" stroke-width=".8" id="line2d_66"/><g transform="matrix(0 -.1 -.1 0 481.98 551.038)" id="text_33"><use xlink:href="#DejaVuSans-49"/><use x="63.623" xlink:href="#DejaVuSans-52"/><use x="127.246" xlink:href="#DejaVuSans-52"/></g></g><g id="xtick_34"><path clip-path="url(#p74d9dedb55)" d="M 492.606067 524.95 L 492.606067 26.88" fill="none" stroke="#b0b0b0" stroke-linecap="square" stroke-width=".8" id="line2d_67"/><use x="492.606" xlink:href="#mfc518bbc66" y="524.95" stroke="#000" stroke-width=".8" id="line2d_68"/><g transform="matrix(0 -.1 -.1 0 495.365 551.038)" id="text_34"><use xlink:href="#DejaVuSans-49"/><use x="63.623" xlink:href="#DejaVuSans-52"/><use x="127.246" xlink:href="#DejaVuSans-56"/></g></g><g id="xtick_35"><path clip-path="url(#p74d9dedb55)" d="M 505.992008 524.95 L 505.992008 26.88" fill="none" stroke="#b0b0b0" stroke-linecap="square" stroke-width=".8" id="line2d_69"/><use x="505.992" xlink:href="#mfc518bbc66" y="524.95" stroke="#000" stroke-width=".8" id="line2d_70"/><g transform="matrix(0 -.1 -.1 0 508.751 551.038)" id="text_35"><use xlink:href="#DejaVuSans-49"/><use x="63.623" xlink:href="#DejaVuSans-53"/><use x="127.246" xlink:href="#DejaVuSans-50"/></g></g><g id="xtick_36"><path clip-path="url(#p74d9dedb55)" d="M 519.37795 524.95 L 519.37795 26.88" fill="none" stroke="#b0b0b0" stroke-linecap="square" stroke-width=".8" id="line2d_71"/><use x="519.378" xlink:href="#mfc518bbc66" y="524.95" stroke="#000" stroke-width=".8" id="line2d_72"/><g transform="matrix(0 -.1 -.1 0 522.137 551.038)" id="text_36"><use xlink:href="#DejaVuSans-49"/><use x="63.623" xlink:href="#DejaVuSans-53"/><use x="127.246" xlink:href="#DejaVuSans-54"/></g></g><g id="xtick_37"><path clip-path="url(#p74d9dedb55)" d="M 532.763891 524.95 L 532.763891 26.88" fill="none" stroke="#b0b0b0" stroke-linecap="square" stroke-width=".8" id="line2d_73"/><use x="532.764" xlink:href="#mfc518bbc66" y="524.95" stroke="#000" stroke-width=".8" id="line2d_74"/><g transform="matrix(0 -.1 -.1 0 535.523 551.038)" id="text_37"><use xlink:href="#DejaVuSans-49"/><use x="63.623" xlink:href="#DejaVuSans-54"/><use x="127.246" xlink:href="#DejaVuSans-48"/></g></g><g id="xtick_38"><path clip-path="url(#p74d9dedb55)" d="M 546.149833 524.95 L 546.149833 26.88" fill="none" stroke="#b0b0b0" stroke-linecap="square" stroke-width=".8" id="line2d_75"/><use x="546.15" xlink:href="#mfc518bbc66" y="524.95" stroke="#000" stroke-width=".8" id="line2d_76"/><g transform="matrix(0 -.1 -.1 0 548.91 551.038)" id="text_38"><use xlink:href="#DejaVuSans-49"/><use x="63.623" xlink:href="#DejaVuSans-54"/><use x="127.246" xlink:href="#DejaVuSans-52"/></g></g><g id="xtick_39"><path clip-path="url(#p74d9dedb55)" d="M 559.535774 524.95 L 559.535774 26.88" fill="none" stroke="#b0b0b0" stroke-linecap="square" stroke-width=".8" id="line2d_77"/><use x="559.536" xlink:href="#mfc518bbc66" y="524.95" stroke="#000" stroke-width=".8" id="line2d_78"/><g transform="matrix(0 -.1 -.1 0 562.295 551.038)" id="text_39"><use xlink:href="#DejaVuSans-49"/><use x="63.623" xlink:href="#DejaVuSans-54"/><use x="127.246" xlink:href="#DejaVuSans-56"/></g></g><g id="xtick_40"><path clip-path="url(#p74d9dedb55)" d="M 572.921715 524.95 L 572.921715 26.88" fill="none" stroke="#b0b0b0" stroke-linecap="square" stroke-width=".8" id="line2d_79"/><use x="572.922" xlink:href="#mfc518bbc66" y="524.95" stroke="#000" stroke-width=".8" id="line2d_80"/><g transform="matrix(0 -.1 -.1 0 575.681 551.038)" id="text_40"><use xlink:href="#DejaVuSans-49"/><use x="63.623" xlink:href="#DejaVuSans-55"/><use x="127.246" xlink:href="#DejaVuSans-50"/></g></g><g id="xtick_41"><path clip-path="url(#p74d9dedb55)" d="M 586.307657 524.95 L 586.307657 26.88" fill="none" stroke="#b0b0b0" stroke-linecap="square" stroke-width=".8" id="line2d_81"/><use x="586.308" xlink:href="#mfc518bbc66" y="524.95" stroke="#000" stroke-width=".8" id="line2d_82"/><g transform="matrix(0 -.1 -.1 0 589.067 551.038)" id="text_41"><use xlink:href="#DejaVuSans-49"/><use x="63.623" xlink:href="#DejaVuSans-55"/><use x="127.246" xlink:href="#DejaVuSans-54"/></g></g><g id="xtick_42"><path clip-path="url(#p74d9dedb55)" d="M 599.693598 524.95 L 599.693598 26.88" fill="none" stroke="#b0b0b0" stroke-linecap="square" stroke-width=".8" id="line2d_83"/><use x="599.694" xlink:href="#mfc518bbc66" y="524.95" stroke="#000" stroke-width=".8" id="line2d_84"/><g transform="matrix(0 -.1 -.1 0 602.453 551.038)" id="text_42"><use xlink:href="#DejaVuSans-49"/><use x="63.623" xlink:href="#DejaVuSans-56"/><use x="127.246" xlink:href="#DejaVuSans-48"/></g></g><g id="xtick_43"><path clip-path="url(#p74d9dedb55)" d="M 613.07954 524.95 L 613.07954 26.88" fill="none" stroke="#b0b0b0" stroke-linecap="square" stroke-width=".8" id="line2d_85"/><use x="613.08" xlink:href="#mfc518bbc66" y="524.95" stroke="#000" stroke-width=".8" id="line2d_86"/><g transform="matrix(0 -.1 -.1 0 615.839 551.038)" id="text_43"><use xlink:href="#DejaVuSans-49"/><use x="63.623" xlink:href="#DejaVuSans-56"/><use x="127.246" xlink:href="#DejaVuSans-52"/></g></g><g id="xtick_44"><path clip-path="url(#p74d9dedb55)" d="M 626.465481 524.95 L 626.465481 26.88" fill="none" stroke="#b0b0b0" stroke-linecap="square" stroke-width=".8" id="line2d_87"/><use x="626.465" xlink:href="#mfc518bbc66" y="524.95" stroke="#000" stroke-width=".8" id="line2d_88"/><g transform="matrix(0 -.1 -.1 0 629.225 551.038)" id="text_44"><use xlink:href="#DejaVuSans-49"/><use x="63.623" xlink:href="#DejaVuSans-56"/><use x="127.246" xlink:href="#DejaVuSans-56"/></g></g><g id="xtick_45"><path clip-path="url(#p74d9dedb55)" d="M 639.851423 524.95 L 639.851423 26.88" fill="none" stroke="#b0b0b0" stroke-linecap="square" stroke-width=".8" id="line2d_89"/><use x="639.851" xlink:href="#mfc518bbc66" y="524.95" stroke="#000" stroke-width=".8" id="line2d_90"/><g transform="matrix(0 -.1 -.1 0 642.61 551.038)" id="text_45"><use xlink:href="#DejaVuSans-49"/><use x="63.623" xlink:href="#DejaVuSans-57"/><use x="127.246" xlink:href="#DejaVuSans-50"/></g></g><g id="xtick_46"><path clip-path="url(#p74d9dedb55)" d="M 653.237364 524.95 L 653.237364 26.88" fill="none" stroke="#b0b0b0" stroke-linecap="square" stroke-width=".8" id="line2d_91"/><use x="653.237" xlink:href="#mfc518bbc66" y="524.95" stroke="#000" stroke-width=".8" id="line2d_92"/><g transform="matrix(0 -.1 -.1 0 655.997 551.038)" id="text_46"><use xlink:href="#DejaVuSans-49"/><use x="63.623" xlink:href="#DejaVuSans-57"/><use x="127.246" xlink:href="#DejaVuSans-54"/></g></g><g id="xtick_47"><path clip-path="url(#p74d9dedb55)" d="M 666.623305 524.95 L 666.623305 26.88" fill="none" stroke="#b0b0b0" stroke-linecap="square" stroke-width=".8" id="line2d_93"/><use x="666.623" xlink:href="#mfc518bbc66" y="524.95" stroke="#000" stroke-width=".8" id="line2d_94"/><g transform="matrix(0 -.1 -.1 0 669.383 551.038)" id="text_47"><use xlink:href="#DejaVuSans-50"/><use x="63.623" xlink:href="#DejaVuSans-48"/><use x="127.246" xlink:href="#DejaVuSans-48"/></g></g><g id="xtick_48"><path clip-path="url(#p74d9dedb55)" d="M 680.009247 524.95 L 680.009247 26.88" fill="none" stroke="#b0b0b0" stroke-linecap="square" stroke-width=".8" id="line2d_95"/><use x="680.009" xlink:href="#mfc518bbc66" y="524.95" stroke="#000" stroke-width=".8" id="line2d_96"/><g transform="matrix(0 -.1 -.1 0 682.769 551.038)" id="text_48"><use xlink:href="#DejaVuSans-50"/><use x="63.623" xlink:href="#DejaVuSans-48"/><use x="127.246" xlink:href="#DejaVuSans-52"/></g></g><g id="xtick_49"><path clip-path="url(#p74d9dedb55)" d="M 693.395188 524.95 L 693.395188 26.88" fill="none" stroke="#b0b0b0" stroke-linecap="square" stroke-width=".8" id="line2d_97"/><use x="693.395" xlink:href="#mfc518bbc66" y="524.95" stroke="#000" stroke-width=".8" id="line2d_98"/><g transform="matrix(0 -.1 -.1 0 696.155 551.038)" id="text_49"><use xlink:href="#DejaVuSans-50"/><use x="63.623" xlink:href="#DejaVuSans-48"/><use x="127.246" xlink:href="#DejaVuSans-56"/></g></g><g id="xtick_50"><path clip-path="url(#p74d9dedb55)" d="M 706.78113 524.95 L 706.78113 26.88" fill="none" stroke="#b0b0b0" stroke-linecap="square" stroke-width=".8" id="line2d_99"/><use x="706.781" xlink:href="#mfc518bbc66" y="524.95" stroke="#000" stroke-width=".8" id="line2d_100"/><g transform="matrix(0 -.1 -.1 0 709.54 551.038)" id="text_50"><use xlink:href="#DejaVuSans-50"/><use x="63.623" xlink:href="#DejaVuSans-49"/><use x="127.246" xlink:href="#DejaVuSans-50"/></g></g><g id="xtick_51"><path clip-path="url(#p74d9dedb55)" d="M 720.167071 524.95 L 720.167071 26.88" fill="none" stroke="#b0b0b0" stroke-linecap="square" stroke-width=".8" id="line2d_101"/><use x="720.167" xlink:href="#mfc518bbc66" y="524.95" stroke="#000" stroke-width=".8" id="line2d_102"/><g transform="matrix(0 -.1 -.1 0 722.926 551.038)" id="text_51"><use xlink:href="#DejaVuSans-50"/><use x="63.623" xlink:href="#DejaVuSans-49"/><use x="127.246" xlink:href="#DejaVuSans-54"/></g></g><g id="xtick_52"><path clip-path="url(#p74d9dedb55)" d="M 733.553013 524.95 L 733.553013 26.88" fill="none" stroke="#b0b0b0" stroke-linecap="square" stroke-width=".8" id="line2d_103"/><use x="733.553" xlink:href="#mfc518bbc66" y="524.95" stroke="#000" stroke-width=".8" id="line2d_104"/><g transform="matrix(0 -.1 -.1 0 736.312 551.038)" id="text_52"><use xlink:href="#DejaVuSans-50"/><use x="63.623" xlink:href="#DejaVuSans-50"/><use x="127.246" xlink:href="#DejaVuSans-48"/></g></g><g id="xtick_53"><path clip-path="url(#p74d9dedb55)" d="M 746.938954 524.95 L 746.938954 26.88" fill="none" stroke="#b0b0b0" stroke-linecap="square" stroke-width=".8" id="line2d_105"/><use x="746.939" xlink:href="#mfc518bbc66" y="524.95" stroke="#000" stroke-width=".8" id="line2d_106"/><g transform="matrix(0 -.1 -.1 0 749.698 551.038)" id="text_53"><use xlink:href="#DejaVuSans-50"/><use x="63.623" xlink:href="#DejaVuSans-50"/><use x="127.246" xlink:href="#DejaVuSans-52"/></g></g><g id="xtick_54"><path clip-path="url(#p74d9dedb55)" d="M 760.324895 524.95 L 760.324895 26.88" fill="none" stroke="#b0b0b0" stroke-linecap="square" stroke-width=".8" id="line2d_107"/><use x="760.325" xlink:href="#mfc518bbc66" y="524.95" stroke="#000" stroke-width=".8" id="line2d_108"/><g transform="matrix(0 -.1 -.1 0 763.084 551.038)" id="text_54"><use xlink:href="#DejaVuSans-50"/><use x="63.623" xlink:href="#DejaVuSans-50"/><use x="127.246" xlink:href="#DejaVuSans-56"/></g></g><g id="xtick_55"><path clip-path="url(#p74d9dedb55)" d="M 773.710837 524.95 L 773.710837 26.88" fill="none" stroke="#b0b0b0" stroke-linecap="square" stroke-width=".8" id="line2d_109"/><use x="773.711" xlink:href="#mfc518bbc66" y="524.95" stroke="#000" stroke-width=".8" id="line2d_110"/><g transform="matrix(0 -.1 -.1 0 776.47 551.038)" id="text_55"><use xlink:href="#DejaVuSans-50"/><use x="63.623" xlink:href="#DejaVuSans-51"/><use x="127.246" xlink:href="#DejaVuSans-50"/></g></g><g id="xtick_56"><path clip-path="url(#p74d9dedb55)" d="M 787.096778 524.95 L 787.096778 26.88" fill="none" stroke="#b0b0b0" stroke-linecap="square" stroke-width=".8" id="line2d_111"/><use x="787.097" xlink:href="#mfc518bbc66" y="524.95" stroke="#000" stroke-width=".8" id="line2d_112"/><g transform="matrix(0 -.1 -.1 0 789.856 551.038)" id="text_56"><use xlink:href="#DejaVuSans-50"/><use x="63.623" xlink:href="#DejaVuSans-51"/><use x="127.246" xlink:href="#DejaVuSans-54"/></g></g><g id="xtick_57"><path clip-path="url(#p74d9dedb55)" d="M 800.48272 524.95 L 800.48272 26.88" fill="none" stroke="#b0b0b0" stroke-linecap="square" stroke-width=".8" id="line2d_113"/><use x="800.483" xlink:href="#mfc518bbc66" y="524.95" stroke="#000" stroke-width=".8" id="line2d_114"/><g transform="matrix(0 -.1 -.1 0 803.242 551.038)" id="text_57"><use xlink:href="#DejaVuSans-50"/><use x="63.623" xlink:href="#DejaVuSans-52"/><use x="127.246" xlink:href="#DejaVuSans-48"/></g></g><g id="xtick_58"><path clip-path="url(#p74d9dedb55)" d="M 813.868661 524.95 L 813.868661 26.88" fill="none" stroke="#b0b0b0" stroke-linecap="square" stroke-width=".8" id="line2d_115"/><use x="813.869" xlink:href="#mfc518bbc66" y="524.95" stroke="#000" stroke-width=".8" id="line2d_116"/><g transform="matrix(0 -.1 -.1 0 816.628 551.038)" id="text_58"><use xlink:href="#DejaVuSans-50"/><use x="63.623" xlink:href="#DejaVuSans-52"/><use x="127.246" xlink:href="#DejaVuSans-52"/></g></g><g id="xtick_59"><path clip-path="url(#p74d9dedb55)" d="M 827.254603 524.95 L 827.254603 26.88" fill="none" stroke="#b0b0b0" stroke-linecap="square" stroke-width=".8" id="line2d_117"/><use x="827.255" xlink:href="#mfc518bbc66" y="524.95" stroke="#000" stroke-width=".8" id="line2d_118"/><g transform="matrix(0 -.1 -.1 0 830.014 551.038)" id="text_59"><use xlink:href="#DejaVuSans-50"/><use x="63.623" xlink:href="#DejaVuSans-52"/><use x="127.246" xlink:href="#DejaVuSans-56"/></g></g><g id="xtick_60"><path clip-path="url(#p74d9dedb55)" d="M 840.640544 524.95 L 840.640544 26.88" fill="none" stroke="#b0b0b0" stroke-linecap="square" stroke-width=".8" id="line2d_119"/><use x="840.641" xlink:href="#mfc518bbc66" y="524.95" stroke="#000" stroke-width=".8" id="line2d_120"/><g transform="matrix(0 -.1 -.1 0 843.4 551.038)" id="text_60"><use xlink:href="#DejaVuSans-50"/><use x="63.623" xlink:href="#DejaVuSans-53"/><use x="127.246" xlink:href="#DejaVuSans-50"/></g></g><g id="text_61"><defs><path d="M 54.890625 33.015625 L 54.890625 0 L 45.90625 0 L 45.90625 32.71875 Q 45.90625 40.484375 42.875 44.328125 Q 39.84375 48.1875 33.796875 48.1875 Q 26.515625 48.1875 22.3125 43.546875 Q 18.109375 38.921875 18.109375 30.90625 L 18.109375 0 L 9.078125 0 L 9.078125 54.6875 L 18.109375 54.6875 L 18.109375 46.1875 Q 21.34375 51.125 25.703125 53.5625 Q 30.078125 56 35.796875 56 Q 45.21875 56 50.046875 50.171875 Q 54.890625 44.34375 54.890625 33.015625 z" id="DejaVuSans-110"/><path d="M 9.8125 72.90625 L 51.703125 72.90625 L 51.703125 64.59375 L 19.671875 64.59375 L 19.671875 43.109375 L 48.578125 43.109375 L 48.578125 34.8125 L 19.671875 34.8125 L 19.671875 0 L 9.8125 0 z" id="DejaVuSans-70"/><path d="M 9.421875 75.984375 L 18.40625 75.984375 L 18.40625 0 L 9.421875 0 z" id="DejaVuSans-108"/><path d="M 56.203125 29.59375 L 56.203125 25.203125 L 14.890625 25.203125 Q 15.484375 15.921875 20.484375 11.0625 Q 25.484375 6.203125 34.421875 6.203125 Q 39.59375 6.203125 44.453125 7.46875 Q 49.3125 8.734375 54.109375 11.28125 L 54.109375 2.78125 Q 49.265625 0.734375 44.1875 -0.34375 Q 39.109375 -1.421875 33.890625 -1.421875 Q 20.796875 -1.421875 13.15625 6.1875 Q 5.515625 13.8125 5.515625 26.8125 Q 5.515625 40.234375 12.765625 48.109375 Q 20.015625 56 32.328125 56 Q 43.359375 56 49.78125 48.890625 Q 56.203125 41.796875 56.203125 29.59375 z M 47.21875 32.234375 Q 47.125 39.59375 43.09375 43.984375 Q 39.0625 48.390625 32.421875 48.390625 Q 24.90625 48.390625 20.390625 44.140625 Q 15.875 39.890625 15.1875 32.171875 z" id="DejaVuSans-101"/><path d="M 41.109375 46.296875 Q 39.59375 47.171875 37.8125 47.578125 Q 36.03125 48 33.890625 48 Q 26.265625 48 22.1875 43.046875 Q 18.109375 38.09375 18.109375 28.8125 L 18.109375 0 L 9.078125 0 L 9.078125 54.6875 L 18.109375 54.6875 L 18.109375 46.1875 Q 20.953125 51.171875 25.484375 53.578125 Q 30.03125 56 36.53125 56 Q 37.453125 56 38.578125 55.875 Q 39.703125 55.765625 41.0625 55.515625 z" id="DejaVuSans-114"/><path d="M 9.8125 72.90625 L 19.671875 72.90625 L 19.671875 0 L 9.8125 0 z" id="DejaVuSans-73"/><path d="M 9.421875 54.6875 L 18.40625 54.6875 L 18.40625 0 L 9.421875 0 z M 9.421875 75.984375 L 18.40625 75.984375 L 18.40625 64.59375 L 9.421875 64.59375 z" id="DejaVuSans-105"/><path d="M 44.28125 53.078125 L 44.28125 44.578125 Q 40.484375 46.53125 36.375 47.5 Q 32.28125 48.484375 27.875 48.484375 Q 21.1875 48.484375 17.84375 46.4375 Q 14.5 44.390625 14.5 40.28125 Q 14.5 37.15625 16.890625 35.375 Q 19.28125 33.59375 26.515625 31.984375 L 29.59375 31.296875 Q 39.15625 29.25 43.1875 25.515625 Q 47.21875 21.78125 47.21875 15.09375 Q 47.21875 7.46875 41.1875 3.015625 Q 35.15625 -1.421875 24.609375 -1.421875 Q 20.21875 -1.421875 15.453125 -0.5625 Q 10.6875 0.296875 5.421875 2 L 5.421875 11.28125 Q 10.40625 8.6875 15.234375 7.390625 Q 20.0625 6.109375 24.8125 6.109375 Q 31.15625 6.109375 34.5625 8.28125 Q 37.984375 10.453125 37.984375 14.40625 Q 37.984375 18.0625 35.515625 20.015625 Q 33.0625 21.96875 24.703125 23.78125 L 21.578125 24.515625 Q 13.234375 26.265625 9.515625 29.90625 Q 5.8125 33.546875 5.8125 39.890625 Q 5.8125 47.609375 11.28125 51.796875 Q 16.75 56 26.8125 56 Q 31.78125 56 36.171875 55.265625 Q 40.578125 54.546875 44.28125 53.078125 z" id="DejaVuSans-115"/><path d="M 18.3125 70.21875 L 18.3125 54.6875 L 36.8125 54.6875 L 36.8125 47.703125 L 18.3125 47.703125 L 18.3125 18.015625 Q 18.3125 11.328125 20.140625 9.421875 Q 21.96875 7.515625 27.59375 7.515625 L 36.8125 7.515625 L 36.8125 0 L 27.59375 0 Q 17.1875 0 13.234375 3.875 Q 9.28125 7.765625 9.28125 18.015625 L 9.28125 47.703125 L 2.6875 47.703125 L 2.6875 54.6875 L 9.28125 54.6875 L 9.28125 70.21875 z" id="DejaVuSans-116"/><path d="M 8.5 21.578125 L 8.5 54.6875 L 17.484375 54.6875 L 17.484375 21.921875 Q 17.484375 14.15625 20.5 10.265625 Q 23.53125 6.390625 29.59375 6.390625 Q 36.859375 6.390625 41.078125 11.03125 Q 45.3125 15.671875 45.3125 23.6875 L 45.3125 54.6875 L 54.296875 54.6875 L 54.296875 0 L 45.3125 0 L 45.3125 8.40625 Q 42.046875 3.421875 37.71875 1 Q 33.40625 -1.421875 27.6875 -1.421875 Q 18.265625 -1.421875 13.375 4.4375 Q 8.5 10.296875 8.5 21.578125 z M 31.109375 56 z" id="DejaVuSans-117"/><path d="M 48.78125 52.59375 L 48.78125 44.1875 Q 44.96875 46.296875 41.140625 47.34375 Q 37.3125 48.390625 33.40625 48.390625 Q 24.65625 48.390625 19.8125 42.84375 Q 14.984375 37.3125 14.984375 27.296875 Q 14.984375 17.28125 19.8125 11.734375 Q 24.65625 6.203125 33.40625 6.203125 Q 37.3125 6.203125 41.140625 7.25 Q 44.96875 8.296875 48.78125 10.40625 L 48.78125 2.09375 Q 45.015625 0.34375 40.984375 -0.53125 Q 36.96875 -1.421875 32.421875 -1.421875 Q 20.0625 -1.421875 12.78125 6.34375 Q 5.515625 14.109375 5.515625 27.296875 Q 5.515625 40.671875 12.859375 48.328125 Q 20.21875 56 33.015625 56 Q 37.15625 56 41.109375 55.140625 Q 45.0625 54.296875 48.78125 52.59375 z" id="DejaVuSans-99"/><path d="M 30.609375 48.390625 Q 23.390625 48.390625 19.1875 42.75 Q 14.984375 37.109375 14.984375 27.296875 Q 14.984375 17.484375 19.15625 11.84375 Q 23.34375 6.203125 30.609375 6.203125 Q 37.796875 6.203125 41.984375 11.859375 Q 46.1875 17.53125 46.1875 27.296875 Q 46.1875 37.015625 41.984375 42.703125 Q 37.796875 48.390625 30.609375 48.390625 z M 30.609375 56 Q 42.328125 56 49.015625 48.375 Q 55.71875 40.765625 55.71875 27.296875 Q 55.71875 13.875 49.015625 6.21875 Q 42.328125 -1.421875 30.609375 -1.421875 Q 18.84375 -1.421875 12.171875 6.21875 Q 5.515625 13.875 5.515625 27.296875 Q 5.515625 40.765625 12.171875 48.375 Q 18.84375 56 30.609375 56 z" id="DejaVuSans-111"/></defs><g transform="matrix(.1 0 0 -.1 407.652 562.636)"><use xlink:href="#DejaVuSans-70"/><use x="57.41" xlink:href="#DejaVuSans-105"/><use x="85.193" xlink:href="#DejaVuSans-108"/><use x="112.977" xlink:href="#DejaVuSans-108"/><use x="140.76" xlink:href="#DejaVuSans-101"/><use x="202.283" xlink:href="#DejaVuSans-114"/><use x="243.396" xlink:href="#DejaVuSans-32"/><use x="275.184" xlink:href="#DejaVuSans-73"/><use x="304.676" xlink:href="#DejaVuSans-110"/><use x="368.055" xlink:href="#DejaVuSans-115"/><use x="420.154" xlink:href="#DejaVuSans-116"/><use x="459.363" xlink:href="#DejaVuSans-114"/><use x="500.477" xlink:href="#DejaVuSans-117"/><use x="563.855" xlink:href="#DejaVuSans-99"/><use x="618.836" xlink:href="#DejaVuSans-116"/><use x="658.045" xlink:href="#DejaVuSans-105"/><use x="685.828" xlink:href="#DejaVuSans-111"/><use x="747.01" xlink:href="#DejaVuSans-110"/><use x="810.389" xlink:href="#DejaVuSans-115"/></g></g></g><g id="matplotlib.axis_2"><g id="ytick_1"><path clip-path="url(#p74d9dedb55)" d="M 50.87 518.545041 L 850.68 518.545041" fill="none" stroke="#b0b0b0" stroke-linecap="square" stroke-width=".8" id="line2d_121"/><g id="line2d_122"><defs><path d="M 0 0 L -3.5 0" id="m3a24eacd0e" stroke="#000" stroke-width=".8"/></defs><use x="50.87" xlink:href="#m3a24eacd0e" y="518.545" stroke="#000" stroke-width=".8"/></g><g transform="matrix(.1 0 0 -.1 24.782 522.344)" id="text_62"><use xlink:href="#DejaVuSans-49"/><use x="63.623" xlink:href="#DejaVuSans-53"/><use x="127.246" xlink:href="#DejaVuSans-48"/></g></g><g id="ytick_2"><path clip-path="url(#p74d9dedb55)" d="M 50.87 459.294726 L 850.68 459.294726" fill="none" stroke="#b0b0b0" stroke-linecap="square" stroke-width=".8" id="line2d_123"/><use x="50.87" xlink:href="#m3a24eacd0e" y="459.295" stroke="#000" stroke-width=".8" id="line2d_124"/><g transform="matrix(.1 0 0 -.1 24.782 463.094)" id="text_63"><use xlink:href="#DejaVuSans-49"/><use x="63.623" xlink:href="#DejaVuSans-55"/><use x="127.246" xlink:href="#DejaVuSans-53"/></g></g><g id="ytick_3"><path clip-path="url(#p74d9dedb55)" d="M 50.87 400.04441 L 850.68 400.04441" fill="none" stroke="#b0b0b0" stroke-linecap="square" stroke-width=".8" id="line2d_125"/><use x="50.87" xlink:href="#m3a24eacd0e" y="400.044" stroke="#000" stroke-width=".8" id="line2d_126"/><g transform="matrix(.1 0 0 -.1 24.782 403.844)" id="text_64"><use xlink:href="#DejaVuSans-50"/><use x="63.623" xlink:href="#DejaVuSans-48"/><use x="127.246" xlink:href="#DejaVuSans-48"/></g></g><g id="ytick_4"><path clip-path="url(#p74d9dedb55)" d="M 50.87 340.794095 L 850.68 340.794095" fill="none" stroke="#b0b0b0" stroke-linecap="square" stroke-width=".8" id="line2d_127"/><use x="50.87" xlink:href="#m3a24eacd0e" y="340.794" stroke="#000" stroke-width=".8" id="line2d_128"/><g transform="matrix(.1 0 0 -.1 24.782 344.593)" id="text_65"><use xlink:href="#DejaVuSans-50"/><use x="63.623" xlink:href="#DejaVuSans-50"/><use x="127.246" xlink:href="#DejaVuSans-53"/></g></g><g id="ytick_5"><path clip-path="url(#p74d9dedb55)" d="M 50.87 281.54378 L 850.68 281.54378" fill="none" stroke="#b0b0b0" stroke-linecap="square" stroke-width=".8" id="line2d_129"/><use x="50.87" xlink:href="#m3a24eacd0e" y="281.544" stroke="#000" stroke-width=".8" id="line2d_130"/><g transform="matrix(.1 0 0 -.1 24.782 285.343)" id="text_66"><use xlink:href="#DejaVuSans-50"/><use x="63.623" xlink:href="#DejaVuSans-53"/><use x="127.246" xlink:href="#DejaVuSans-48"/></g></g><g id="ytick_6"><path clip-path="url(#p74d9dedb55)" d="M 50.87 222.293465 L 850.68 222.293465" fill="none" stroke="#b0b0b0" stroke-linecap="square" stroke-width=".8" id="line2d_131"/><use x="50.87" xlink:href="#m3a24eacd0e" y="222.293" stroke="#000" stroke-width=".8" id="line2d_132"/><g transform="matrix(.1 0 0 -.1 24.782 226.093)" id="text_67"><use xlink:href="#DejaVuSans-50"/><use x="63.623" xlink:href="#DejaVuSans-55"/><use x="127.246" xlink:href="#DejaVuSans-53"/></g></g><g id="ytick_7"><path clip-path="url(#p74d9dedb55)" d="M 50.87 163.043149 L 850.68 163.043149" fill="none" stroke="#b0b0b0" stroke-linecap="square" stroke-width=".8" id="line2d_133"/><use x="50.87" xlink:href="#m3a24eacd0e" y="163.043" stroke="#000" stroke-width=".8" id="line2d_134"/><g transform="matrix(.1 0 0 -.1 24.782 166.842)" id="text_68"><use xlink:href="#DejaVuSans-51"/><use x="63.623" xlink:href="#DejaVuSans-48"/><use x="127.246" xlink:href="#DejaVuSans-48"/></g></g><g id="ytick_8"><path clip-path="url(#p74d9dedb55)" d="M 50.87 103.792834 L 850.68 103.792834" fill="none" stroke="#b0b0b0" stroke-linecap="square" stroke-width=".8" id="line2d_135"/><use x="50.87" xlink:href="#m3a24eacd0e" y="103.793" stroke="#000" stroke-width=".8" id="line2d_136"/><g transform="matrix(.1 0 0 -.1 24.782 107.592)" id="text_69"><use xlink:href="#DejaVuSans-51"/><use x="63.623" xlink:href="#DejaVuSans-50"/><use x="127.246" xlink:href="#DejaVuSans-53"/></g></g><g id="ytick_9"><path clip-path="url(#p74d9dedb55)" d="M 50.87 44.542519 L 850.68 44.542519" fill="none" stroke="#b0b0b0" stroke-linecap="square" stroke-width=".8" id="line2d_137"/><use x="50.87" xlink:href="#m3a24eacd0e" y="44.543" stroke="#000" stroke-width=".8" id="line2d_138"/><g transform="matrix(.1 0 0 -.1 24.782 48.342)" id="text_70"><use xlink:href="#DejaVuSans-51"/><use x="63.623" xlink:href="#DejaVuSans-53"/><use x="127.246" xlink:href="#DejaVuSans-48"/></g></g><g id="text_71"><defs><path d="M 64.40625 67.28125 L 64.40625 56.890625 Q 59.421875 61.53125 53.78125 63.8125 Q 48.140625 66.109375 41.796875 66.109375 Q 29.296875 66.109375 22.65625 58.46875 Q 16.015625 50.828125 16.015625 36.375 Q 16.015625 21.96875 22.65625 14.328125 Q 29.296875 6.6875 41.796875 6.6875 Q 48.140625 6.6875 53.78125 8.984375 Q 59.421875 11.28125 64.40625 15.921875 L 64.40625 5.609375 Q 59.234375 2.09375 53.4375 0.328125 Q 47.65625 -1.421875 41.21875 -1.421875 Q 24.65625 -1.421875 15.125 8.703125 Q 5.609375 18.84375 5.609375 36.375 Q 5.609375 53.953125 15.125 64.078125 Q 24.65625 74.21875 41.21875 74.21875 Q 47.75 74.21875 53.53125 72.484375 Q 59.328125 70.75 64.40625 67.28125 z" id="DejaVuSans-67"/><path d="M 32.171875 -5.078125 Q 28.375 -14.84375 24.75 -17.8125 Q 21.140625 -20.796875 15.09375 -20.796875 L 7.90625 -20.796875 L 7.90625 -13.28125 L 13.1875 -13.28125 Q 16.890625 -13.28125 18.9375 -11.515625 Q 21 -9.765625 23.484375 -3.21875 L 25.09375 0.875 L 2.984375 54.6875 L 12.5 54.6875 L 29.59375 11.921875 L 46.6875 54.6875 L 56.203125 54.6875 z" id="DejaVuSans-121"/></defs><g transform="matrix(0 -.1 -.1 0 18.703 292.185)"><use xlink:href="#DejaVuSans-67"/><use x="69.824" xlink:href="#DejaVuSans-121"/><use x="129.004" xlink:href="#DejaVuSans-99"/><use x="183.984" xlink:href="#DejaVuSans-108"/><use x="211.768" xlink:href="#DejaVuSans-101"/><use x="273.291" xlink:href="#DejaVuSans-115"/></g></g></g><g id="line2d_139"><path clip-path="url(#p74d9dedb55)" d="M 50.87 499.774541 L 54.216485 499.869342 L 57.562971 500.746246 L 64.255941 500.580345 L 74.295397 500.627746 L 80.988368 500.485545 L 84.334854 502.097153 L 87.681339 502.026053 L 97.720795 502.168254 L 101.06728 501.883852 L 104.413766 501.931253 L 107.760251 502.215654 L 111.106736 502.310455 L 114.453222 500.035242 L 117.799707 500.058943 L 121.146192 500.272244 L 124.492678 499.987842 L 131.185649 499.987842 L 134.532134 499.987842 L 137.878619 497.380828 L 141.225105 497.191227 L 147.918075 497.214927 L 151.264561 496.527624 L 154.611046 496.503924 L 157.957531 497.973331 L 161.304017 497.854831 L 164.650502 497.973331 L 167.996987 496.669825 L 171.343473 496.598724 L 174.689958 496.693525 L 178.036444 497.854831 L 184.729414 497.973331 L 191.422385 497.878531 L 194.76887 498.779136 L 198.115356 498.660635 L 204.808326 498.755436 L 208.154812 498.613235 L 214.847782 498.565835 L 218.194268 498.447334 L 221.540753 501.030648 L 224.887238 498.234033 L 228.233724 497.73633 L 231.580209 496.243222 L 234.926695 493.541408 L 238.27318 492.901504 L 248.312636 492.759304 L 251.659121 491.716498 L 258.352092 491.716498 L 261.698577 491.929799 L 265.045063 492.0246 L 268.391548 493.138506 L 275.084519 493.233306 L 278.431004 493.257006 L 281.77749 493.091105 L 285.123975 493.162206 L 295.163431 493.020005 L 298.509916 493.138506 L 301.856402 493.114806 L 305.202887 493.99171 L 311.895858 493.87321 L 318.588828 493.87321 L 321.935314 493.92061 L 328.628285 493.802109 L 331.97477 493.84951 L 335.321255 493.731009 L 338.667741 490.768493 L 342.014226 491.005494 L 345.360711 489.393886 L 348.707197 482.876351 L 352.053682 471.689892 L 355.400167 468.988077 L 358.746653 467.850471 L 362.093138 467.020967 L 365.439623 466.594365 L 368.786109 465.76486 L 372.132594 465.69376 L 375.479079 465.219757 L 382.17205 464.698354 L 385.518536 463.608149 L 388.865021 463.252647 L 392.211506 462.06764 L 395.557992 460.17163 L 398.904477 459.721328 L 402.250962 459.839829 L 405.597448 458.27562 L 408.943933 457.635717 L 412.290418 458.441521 L 415.636904 458.109719 L 418.983389 457.280215 L 422.329874 456.877313 L 425.67636 456.664012 L 429.022845 455.953008 L 432.369331 454.625801 L 435.715816 454.128098 L 439.062301 454.033298 L 442.408787 453.582995 L 445.755272 453.725196 L 452.448243 452.279488 L 455.794728 451.947687 L 459.141213 451.141882 L 462.487699 448.724469 L 465.834184 447.420963 L 469.180669 449.032571 L 472.527155 445.785654 L 475.87364 445.382752 L 479.220126 445.287951 L 482.566611 444.458447 L 485.913096 443.13124 L 489.259582 442.989039 L 492.606067 442.704637 L 495.952552 442.562437 L 499.299038 441.495931 L 502.645523 441.211529 L 505.992008 440.737527 L 509.338494 440.524226 L 512.684979 439.48142 L 516.031464 437.395809 L 519.37795 436.755906 L 522.724435 436.779606 L 526.070921 435.6183 L 529.417406 435.120597 L 532.763891 434.504394 L 542.803347 434.054091 L 546.149833 433.224587 L 549.496318 433.271987 L 552.842803 431.352277 L 556.189289 428.460862 L 559.535774 427.275855 L 562.882259 427.489156 L 569.57523 425.735347 L 572.921715 425.853848 L 576.268201 425.711647 L 579.614686 421.327124 L 582.961172 421.113823 L 586.307657 420.450219 L 589.654142 420.213218 L 593.000628 418.957111 L 596.347113 418.69641 L 599.693598 418.175007 L 603.040084 418.198707 L 606.386569 416.563398 L 609.733054 416.421198 L 616.426025 415.567993 L 619.77251 413.885284 L 623.118996 413.553482 L 626.465481 412.463277 L 629.811967 411.989274 L 633.158452 410.567266 L 636.504937 410.425066 L 639.851423 408.979358 L 643.197908 408.931958 L 646.544393 406.941147 L 649.890879 407.059648 L 653.237364 405.59024 L 656.583849 405.400639 L 659.930335 403.267628 L 663.27682 402.864725 L 666.623305 400.636914 L 669.969791 400.399912 L 673.316276 384.710429 L 676.662762 382.767019 L 680.009247 365.560727 L 683.355732 371.177657 L 686.702218 256.563847 L 690.048703 248.932406 L 693.395188 190.227194 L 696.741674 160.767937 L 700.088159 116.259101 L 703.434644 108.461759 L 706.78113 84.098029 L 710.127615 79.760906 L 713.4741 75.826685 L 716.820586 75.186782 L 720.167071 72.082065 L 723.513556 71.892464 L 726.860042 75.471184 L 733.553013 75.139382 L 736.899498 74.85498 L 740.245983 73.717374 L 743.592469 74.167677 L 746.938954 74.499478 L 753.631925 71.608063 L 756.97841 71.13406 L 760.324895 71.892464 L 763.671381 71.157761 L 767.017866 69.640953 L 773.710837 69.688353 L 777.057322 68.740348 L 780.403808 68.076744 L 783.750293 68.384846 L 787.096778 67.768643 L 790.443264 67.507941 L 793.789749 66.157034 L 797.136234 65.848932 L 800.48272 66.251834 L 803.829205 64.972028 L 807.17569 62.199113 L 810.522176 62.009512 L 813.868661 62.246513 L 817.215146 60.919306 L 820.561632 60.397903 L 823.908117 50.728252 L 827.254603 50.846753 L 830.601088 56.487383 L 833.947573 55.776379 L 837.294059 55.681578 L 840.640544 55.397177 L 843.987029 54.875774 L 847.333515 53.430066 L 850.68 53.027164 L 850.68 53.027164" fill="none" stroke="#1f77b4" stroke-linecap="square" stroke-width="1.5"/><defs><path d="M 0 1.5 C 0.397805 1.5 0.77937 1.341951 1.06066 1.06066 C 1.341951 0.77937 1.5 0.397805 1.5 0 C 1.5 -0.397805 1.341951 -0.77937 1.06066 -1.06066 C 0.77937 -1.341951 0.397805 -1.5 0 -1.5 C -0.397805 -1.5 -0.77937 -1.341951 -1.06066 -1.06066 C -1.341951 -0.77937 -1.5 -0.397805 -1.5 0 C -1.5 0.397805 -1.341951 0.77937 -1.06066 1.06066 C -0.77937 1.341951 -0.397805 1.5 0 1.5 z" id="mfd23d3c377" stroke="#1f77b4"/></defs><g clip-path="url(#p74d9dedb55)" fill="#1f77b4" stroke="#1f77b4"><use x="50.87" xlink:href="#mfd23d3c377" y="499.775"/><use x="54.216" xlink:href="#mfd23d3c377" y="499.869"/><use x="57.563" xlink:href="#mfd23d3c377" y="500.746"/><use x="60.909" xlink:href="#mfd23d3c377" y="500.651"/><use x="64.256" xlink:href="#mfd23d3c377" y="500.58"/><use x="67.602" xlink:href="#mfd23d3c377" y="500.604"/><use x="70.949" xlink:href="#mfd23d3c377" y="500.675"/><use x="74.295" xlink:href="#mfd23d3c377" y="500.628"/><use x="77.642" xlink:href="#mfd23d3c377" y="500.533"/><use x="80.988" xlink:href="#mfd23d3c377" y="500.486"/><use x="84.335" xlink:href="#mfd23d3c377" y="502.097"/><use x="87.681" xlink:href="#mfd23d3c377" y="502.026"/><use x="91.028" xlink:href="#mfd23d3c377" y="502.073"/><use x="94.374" xlink:href="#mfd23d3c377" y="502.192"/><use x="97.721" xlink:href="#mfd23d3c377" y="502.168"/><use x="101.067" xlink:href="#mfd23d3c377" y="501.884"/><use x="104.414" xlink:href="#mfd23d3c377" y="501.931"/><use x="107.76" xlink:href="#mfd23d3c377" y="502.216"/><use x="111.107" xlink:href="#mfd23d3c377" y="502.31"/><use x="114.453" xlink:href="#mfd23d3c377" y="500.035"/><use x="117.8" xlink:href="#mfd23d3c377" y="500.059"/><use x="121.146" xlink:href="#mfd23d3c377" y="500.272"/><use x="124.493" xlink:href="#mfd23d3c377" y="499.988"/><use x="127.839" xlink:href="#mfd23d3c377" y="500.035"/><use x="131.186" xlink:href="#mfd23d3c377" y="499.988"/><use x="134.532" xlink:href="#mfd23d3c377" y="499.988"/><use x="137.879" xlink:href="#mfd23d3c377" y="497.381"/><use x="141.225" xlink:href="#mfd23d3c377" y="497.191"/><use x="144.572" xlink:href="#mfd23d3c377" y="497.168"/><use x="147.918" xlink:href="#mfd23d3c377" y="497.215"/><use x="151.265" xlink:href="#mfd23d3c377" y="496.528"/><use x="154.611" xlink:href="#mfd23d3c377" y="496.504"/><use x="157.958" xlink:href="#mfd23d3c377" y="497.973"/><use x="161.304" xlink:href="#mfd23d3c377" y="497.855"/><use x="164.651" xlink:href="#mfd23d3c377" y="497.973"/><use x="167.997" xlink:href="#mfd23d3c377" y="496.67"/><use x="171.343" xlink:href="#mfd23d3c377" y="496.599"/><use x="174.69" xlink:href="#mfd23d3c377" y="496.694"/><use x="178.036" xlink:href="#mfd23d3c377" y="497.855"/><use x="181.383" xlink:href="#mfd23d3c377" y="497.95"/><use x="184.729" xlink:href="#mfd23d3c377" y="497.973"/><use x="188.076" xlink:href="#mfd23d3c377" y="497.95"/><use x="191.422" xlink:href="#mfd23d3c377" y="497.879"/><use x="194.769" xlink:href="#mfd23d3c377" y="498.779"/><use x="198.115" xlink:href="#mfd23d3c377" y="498.661"/><use x="201.462" xlink:href="#mfd23d3c377" y="498.708"/><use x="204.808" xlink:href="#mfd23d3c377" y="498.755"/><use x="208.155" xlink:href="#mfd23d3c377" y="498.613"/><use x="211.501" xlink:href="#mfd23d3c377" y="498.637"/><use x="214.848" xlink:href="#mfd23d3c377" y="498.566"/><use x="218.194" xlink:href="#mfd23d3c377" y="498.447"/><use x="221.541" xlink:href="#mfd23d3c377" y="501.031"/><use x="224.887" xlink:href="#mfd23d3c377" y="498.234"/><use x="228.234" xlink:href="#mfd23d3c377" y="497.736"/><use x="231.58" xlink:href="#mfd23d3c377" y="496.243"/><use x="234.927" xlink:href="#mfd23d3c377" y="493.541"/><use x="238.273" xlink:href="#mfd23d3c377" y="492.902"/><use x="241.62" xlink:href="#mfd23d3c377" y="492.83"/><use x="244.966" xlink:href="#mfd23d3c377" y="492.854"/><use x="248.313" xlink:href="#mfd23d3c377" y="492.759"/><use x="251.659" xlink:href="#mfd23d3c377" y="491.716"/><use x="255.006" xlink:href="#mfd23d3c377" y="491.716"/><use x="258.352" xlink:href="#mfd23d3c377" y="491.716"/><use x="261.699" xlink:href="#mfd23d3c377" y="491.93"/><use x="265.045" xlink:href="#mfd23d3c377" y="492.025"/><use x="268.392" xlink:href="#mfd23d3c377" y="493.139"/><use x="271.738" xlink:href="#mfd23d3c377" y="493.233"/><use x="275.085" xlink:href="#mfd23d3c377" y="493.233"/><use x="278.431" xlink:href="#mfd23d3c377" y="493.257"/><use x="281.777" xlink:href="#mfd23d3c377" y="493.091"/><use x="285.124" xlink:href="#mfd23d3c377" y="493.162"/><use x="288.47" xlink:href="#mfd23d3c377" y="493.115"/><use x="291.817" xlink:href="#mfd23d3c377" y="493.044"/><use x="295.163" xlink:href="#mfd23d3c377" y="493.02"/><use x="298.51" xlink:href="#mfd23d3c377" y="493.139"/><use x="301.856" xlink:href="#mfd23d3c377" y="493.115"/><use x="305.203" xlink:href="#mfd23d3c377" y="493.992"/><use x="308.549" xlink:href="#mfd23d3c377" y="493.897"/><use x="311.896" xlink:href="#mfd23d3c377" y="493.873"/><use x="315.242" xlink:href="#mfd23d3c377" y="493.85"/><use x="318.589" xlink:href="#mfd23d3c377" y="493.873"/><use x="321.935" xlink:href="#mfd23d3c377" y="493.921"/><use x="325.282" xlink:href="#mfd23d3c377" y="493.85"/><use x="328.628" xlink:href="#mfd23d3c377" y="493.802"/><use x="331.975" xlink:href="#mfd23d3c377" y="493.85"/><use x="335.321" xlink:href="#mfd23d3c377" y="493.731"/><use x="338.668" xlink:href="#mfd23d3c377" y="490.768"/><use x="342.014" xlink:href="#mfd23d3c377" y="491.005"/><use x="345.361" xlink:href="#mfd23d3c377" y="489.394"/><use x="348.707" xlink:href="#mfd23d3c377" y="482.876"/><use x="352.054" xlink:href="#mfd23d3c377" y="471.69"/><use x="355.4" xlink:href="#mfd23d3c377" y="468.988"/><use x="358.747" xlink:href="#mfd23d3c377" y="467.85"/><use x="362.093" xlink:href="#mfd23d3c377" y="467.021"/><use x="365.44" xlink:href="#mfd23d3c377" y="466.594"/><use x="368.786" xlink:href="#mfd23d3c377" y="465.765"/><use x="372.133" xlink:href="#mfd23d3c377" y="465.694"/><use x="375.479" xlink:href="#mfd23d3c377" y="465.22"/><use x="378.826" xlink:href="#mfd23d3c377" y="465.006"/><use x="382.172" xlink:href="#mfd23d3c377" y="464.698"/><use x="385.519" xlink:href="#mfd23d3c377" y="463.608"/><use x="388.865" xlink:href="#mfd23d3c377" y="463.253"/><use x="392.212" xlink:href="#mfd23d3c377" y="462.068"/><use x="395.558" xlink:href="#mfd23d3c377" y="460.172"/><use x="398.904" xlink:href="#mfd23d3c377" y="459.721"/><use x="402.251" xlink:href="#mfd23d3c377" y="459.84"/><use x="405.597" xlink:href="#mfd23d3c377" y="458.276"/><use x="408.944" xlink:href="#mfd23d3c377" y="457.636"/><use x="412.29" xlink:href="#mfd23d3c377" y="458.442"/><use x="415.637" xlink:href="#mfd23d3c377" y="458.11"/><use x="418.983" xlink:href="#mfd23d3c377" y="457.28"/><use x="422.33" xlink:href="#mfd23d3c377" y="456.877"/><use x="425.676" xlink:href="#mfd23d3c377" y="456.664"/><use x="429.023" xlink:href="#mfd23d3c377" y="455.953"/><use x="432.369" xlink:href="#mfd23d3c377" y="454.626"/><use x="435.716" xlink:href="#mfd23d3c377" y="454.128"/><use x="439.062" xlink:href="#mfd23d3c377" y="454.033"/><use x="442.409" xlink:href="#mfd23d3c377" y="453.583"/><use x="445.755" xlink:href="#mfd23d3c377" y="453.725"/><use x="449.102" xlink:href="#mfd23d3c377" y="452.967"/><use x="452.448" xlink:href="#mfd23d3c377" y="452.279"/><use x="455.795" xlink:href="#mfd23d3c377" y="451.948"/><use x="459.141" xlink:href="#mfd23d3c377" y="451.142"/><use x="462.488" xlink:href="#mfd23d3c377" y="448.724"/><use x="465.834" xlink:href="#mfd23d3c377" y="447.421"/><use x="469.181" xlink:href="#mfd23d3c377" y="449.033"/><use x="472.527" xlink:href="#mfd23d3c377" y="445.786"/><use x="475.874" xlink:href="#mfd23d3c377" y="445.383"/><use x="479.22" xlink:href="#mfd23d3c377" y="445.288"/><use x="482.567" xlink:href="#mfd23d3c377" y="444.458"/><use x="485.913" xlink:href="#mfd23d3c377" y="443.131"/><use x="489.26" xlink:href="#mfd23d3c377" y="442.989"/><use x="492.606" xlink:href="#mfd23d3c377" y="442.705"/><use x="495.953" xlink:href="#mfd23d3c377" y="442.562"/><use x="499.299" xlink:href="#mfd23d3c377" y="441.496"/><use x="502.646" xlink:href="#mfd23d3c377" y="441.212"/><use x="505.992" xlink:href="#mfd23d3c377" y="440.738"/><use x="509.338" xlink:href="#mfd23d3c377" y="440.524"/><use x="512.685" xlink:href="#mfd23d3c377" y="439.481"/><use x="516.031" xlink:href="#mfd23d3c377" y="437.396"/><use x="519.378" xlink:href="#mfd23d3c377" y="436.756"/><use x="522.724" xlink:href="#mfd23d3c377" y="436.78"/><use x="526.071" xlink:href="#mfd23d3c377" y="435.618"/><use x="529.417" xlink:href="#mfd23d3c377" y="435.121"/><use x="532.764" xlink:href="#mfd23d3c377" y="434.504"/><use x="536.11" xlink:href="#mfd23d3c377" y="434.386"/><use x="539.457" xlink:href="#mfd23d3c377" y="434.362"/><use x="542.803" xlink:href="#mfd23d3c377" y="434.054"/><use x="546.15" xlink:href="#mfd23d3c377" y="433.225"/><use x="549.496" xlink:href="#mfd23d3c377" y="433.272"/><use x="552.843" xlink:href="#mfd23d3c377" y="431.352"/><use x="556.189" xlink:href="#mfd23d3c377" y="428.461"/><use x="559.536" xlink:href="#mfd23d3c377" y="427.276"/><use x="562.882" xlink:href="#mfd23d3c377" y="427.489"/><use x="566.229" xlink:href="#mfd23d3c377" y="426.565"/><use x="569.575" xlink:href="#mfd23d3c377" y="425.735"/><use x="572.922" xlink:href="#mfd23d3c377" y="425.854"/><use x="576.268" xlink:href="#mfd23d3c377" y="425.712"/><use x="579.615" xlink:href="#mfd23d3c377" y="421.327"/><use x="582.961" xlink:href="#mfd23d3c377" y="421.114"/><use x="586.308" xlink:href="#mfd23d3c377" y="420.45"/><use x="589.654" xlink:href="#mfd23d3c377" y="420.213"/><use x="593.001" xlink:href="#mfd23d3c377" y="418.957"/><use x="596.347" xlink:href="#mfd23d3c377" y="418.696"/><use x="599.694" xlink:href="#mfd23d3c377" y="418.175"/><use x="603.04" xlink:href="#mfd23d3c377" y="418.199"/><use x="606.387" xlink:href="#mfd23d3c377" y="416.563"/><use x="609.733" xlink:href="#mfd23d3c377" y="416.421"/><use x="613.08" xlink:href="#mfd23d3c377" y="415.947"/><use x="616.426" xlink:href="#mfd23d3c377" y="415.568"/><use x="619.773" xlink:href="#mfd23d3c377" y="413.885"/><use x="623.119" xlink:href="#mfd23d3c377" y="413.553"/><use x="626.465" xlink:href="#mfd23d3c377" y="412.463"/><use x="629.812" xlink:href="#mfd23d3c377" y="411.989"/><use x="633.158" xlink:href="#mfd23d3c377" y="410.567"/><use x="636.505" xlink:href="#mfd23d3c377" y="410.425"/><use x="639.851" xlink:href="#mfd23d3c377" y="408.979"/><use x="643.198" xlink:href="#mfd23d3c377" y="408.932"/><use x="646.544" xlink:href="#mfd23d3c377" y="406.941"/><use x="649.891" xlink:href="#mfd23d3c377" y="407.06"/><use x="653.237" xlink:href="#mfd23d3c377" y="405.59"/><use x="656.584" xlink:href="#mfd23d3c377" y="405.401"/><use x="659.93" xlink:href="#mfd23d3c377" y="403.268"/><use x="663.277" xlink:href="#mfd23d3c377" y="402.865"/><use x="666.623" xlink:href="#mfd23d3c377" y="400.637"/><use x="669.97" xlink:href="#mfd23d3c377" y="400.4"/><use x="673.316" xlink:href="#mfd23d3c377" y="384.71"/><use x="676.663" xlink:href="#mfd23d3c377" y="382.767"/><use x="680.009" xlink:href="#mfd23d3c377" y="365.561"/><use x="683.356" xlink:href="#mfd23d3c377" y="371.178"/><use x="686.702" xlink:href="#mfd23d3c377" y="256.564"/><use x="690.049" xlink:href="#mfd23d3c377" y="248.932"/><use x="693.395" xlink:href="#mfd23d3c377" y="190.227"/><use x="696.742" xlink:href="#mfd23d3c377" y="160.768"/><use x="700.088" xlink:href="#mfd23d3c377" y="116.259"/><use x="703.435" xlink:href="#mfd23d3c377" y="108.462"/><use x="706.781" xlink:href="#mfd23d3c377" y="84.098"/><use x="710.128" xlink:href="#mfd23d3c377" y="79.761"/><use x="713.474" xlink:href="#mfd23d3c377" y="75.827"/><use x="716.821" xlink:href="#mfd23d3c377" y="75.187"/><use x="720.167" xlink:href="#mfd23d3c377" y="72.082"/><use x="723.514" xlink:href="#mfd23d3c377" y="71.892"/><use x="726.86" xlink:href="#mfd23d3c377" y="75.471"/><use x="730.207" xlink:href="#mfd23d3c377" y="75.353"/><use x="733.553" xlink:href="#mfd23d3c377" y="75.139"/><use x="736.899" xlink:href="#mfd23d3c377" y="74.855"/><use x="740.246" xlink:href="#mfd23d3c377" y="73.717"/><use x="743.592" xlink:href="#mfd23d3c377" y="74.168"/><use x="746.939" xlink:href="#mfd23d3c377" y="74.499"/><use x="750.285" xlink:href="#mfd23d3c377" y="73.054"/><use x="753.632" xlink:href="#mfd23d3c377" y="71.608"/><use x="756.978" xlink:href="#mfd23d3c377" y="71.134"/><use x="760.325" xlink:href="#mfd23d3c377" y="71.892"/><use x="763.671" xlink:href="#mfd23d3c377" y="71.158"/><use x="767.018" xlink:href="#mfd23d3c377" y="69.641"/><use x="770.364" xlink:href="#mfd23d3c377" y="69.617"/><use x="773.711" xlink:href="#mfd23d3c377" y="69.688"/><use x="777.057" xlink:href="#mfd23d3c377" y="68.74"/><use x="780.404" xlink:href="#mfd23d3c377" y="68.077"/><use x="783.75" xlink:href="#mfd23d3c377" y="68.385"/><use x="787.097" xlink:href="#mfd23d3c377" y="67.769"/><use x="790.443" xlink:href="#mfd23d3c377" y="67.508"/><use x="793.79" xlink:href="#mfd23d3c377" y="66.157"/><use x="797.136" xlink:href="#mfd23d3c377" y="65.849"/><use x="800.483" xlink:href="#mfd23d3c377" y="66.252"/><use x="803.829" xlink:href="#mfd23d3c377" y="64.972"/><use x="807.176" xlink:href="#mfd23d3c377" y="62.199"/><use x="810.522" xlink:href="#mfd23d3c377" y="62.01"/><use x="813.869" xlink:href="#mfd23d3c377" y="62.247"/><use x="817.215" xlink:href="#mfd23d3c377" y="60.919"/><use x="820.562" xlink:href="#mfd23d3c377" y="60.398"/><use x="823.908" xlink:href="#mfd23d3c377" y="50.728"/><use x="827.255" xlink:href="#mfd23d3c377" y="50.847"/><use x="830.601" xlink:href="#mfd23d3c377" y="56.487"/><use x="833.948" xlink:href="#mfd23d3c377" y="55.776"/><use x="837.294" xlink:href="#mfd23d3c377" y="55.682"/><use x="840.641" xlink:href="#mfd23d3c377" y="55.397"/><use x="843.987" xlink:href="#mfd23d3c377" y="54.876"/><use x="847.334" xlink:href="#mfd23d3c377" y="53.43"/><use x="850.68" xlink:href="#mfd23d3c377" y="53.027"/></g></g><g id="line2d_140"><path clip-path="url(#p74d9dedb55)" d="M 50.87 498.328833 L 54.216485 499.016137 L 57.562971 499.276838 L 60.909456 499.821941 L 64.255941 499.60864 L 80.988368 499.56124 L 84.334854 500.580345 L 87.681339 501.125448 L 91.027824 501.078048 L 97.720795 501.149148 L 101.06728 500.888447 L 104.413766 500.935847 L 107.760251 501.172848 L 111.106736 501.172848 L 114.453222 498.945037 L 117.799707 499.371639 L 121.146192 498.968737 L 124.492678 498.897636 L 131.185649 498.921337 L 134.532134 497.404528 L 137.878619 496.243222 L 141.225105 496.101022 L 147.918075 496.006221 L 151.264561 495.461118 L 154.611046 495.437418 L 157.957531 496.077321 L 161.304017 496.883126 L 164.650502 496.266922 L 167.996987 495.484818 L 174.689958 495.484818 L 178.036444 495.76922 L 181.382929 496.812025 L 188.0759 496.812025 L 191.422385 496.693525 L 198.115356 497.546729 L 204.808326 497.594129 L 218.194268 497.404528 L 221.540753 499.49014 L 224.887238 497.143827 L 228.233724 496.669825 L 231.580209 495.224117 L 234.926695 492.332701 L 238.27318 491.787599 L 244.966151 491.787599 L 248.312636 490.815893 L 251.659121 491.503197 L 255.005607 490.555192 L 258.352092 490.602592 L 261.698577 490.792193 L 265.045063 490.792193 L 268.391548 491.195095 L 271.738033 492.1431 L 278.431004 492.1194 L 281.77749 492.0009 L 288.47046 492.0246 L 295.163431 491.953499 L 301.856402 492.0009 L 308.549372 492.783004 L 315.242343 492.711903 L 321.935314 492.759304 L 331.97477 492.759304 L 335.321255 491.9772 L 338.667741 489.607187 L 342.014226 489.417586 L 345.360711 488.185179 L 348.707197 481.501744 L 352.053682 470.196784 L 355.400167 467.352769 L 358.746653 466.428464 L 365.439623 464.959056 L 368.786109 464.532454 L 378.825565 463.679249 L 382.17205 463.039346 L 385.518536 462.209841 L 388.865021 461.806939 L 392.211506 459.792428 L 395.557992 458.868123 L 398.904477 458.27562 L 402.250962 458.133419 L 405.597448 456.924713 L 408.943933 456.474411 L 412.290418 457.090614 L 415.636904 456.806212 L 418.983389 456.142609 L 422.329874 455.739707 L 425.67636 455.170904 L 429.022845 454.744301 L 432.369331 453.606695 L 442.408787 452.469089 L 445.755272 452.303188 L 449.101757 451.852886 L 452.448243 451.189283 L 455.794728 450.857481 L 459.141213 449.814675 L 462.487699 446.89956 L 465.834184 446.307057 L 469.180669 447.04176 L 472.527155 443.723743 L 475.87364 444.031844 L 479.220126 443.747443 L 482.566611 443.17864 L 485.913096 442.017334 L 489.259582 441.780332 L 492.606067 441.35373 L 495.952552 441.116729 L 499.299038 440.239824 L 502.645523 439.955423 L 505.992008 439.50512 L 509.338494 439.528821 L 512.684979 437.277309 L 516.031464 436.187103 L 519.37795 435.5946 L 522.724435 435.404999 L 526.070921 434.243692 L 529.417406 433.76969 L 532.763891 433.153487 L 536.110377 432.940185 L 539.456862 433.177187 L 542.803347 432.703184 L 546.149833 431.96848 L 549.496318 431.589278 L 552.842803 428.034259 L 559.535774 426.20935 L 562.882259 426.161949 L 566.228745 424.976943 L 569.57523 423.957838 L 572.921715 423.981538 L 576.268201 424.31334 L 579.614686 420.023617 L 582.961172 419.691815 L 586.307657 419.099312 L 589.654142 418.81491 L 593.000628 417.677304 L 596.347113 417.440303 L 599.693598 416.729299 L 603.040084 416.587098 L 606.386569 415.378392 L 609.733054 415.04659 L 613.07954 414.454087 L 616.426025 414.027485 L 619.77251 412.415876 L 623.118996 412.321076 L 626.465481 411.041269 L 629.811967 410.543566 L 633.158452 409.121559 L 636.504937 408.860857 L 639.851423 407.628451 L 643.197908 407.50995 L 646.544393 405.63764 L 649.890879 405.61394 L 653.237364 404.120832 L 656.583849 404.049732 L 659.930335 401.82192 L 663.27682 401.419018 L 666.623305 399.309707 L 669.969791 399.049005 L 673.316276 383.264721 L 676.662762 381.20281 L 680.009247 363.972819 L 683.355732 369.87415 L 686.702218 255.30774 L 690.048703 247.486699 L 693.395188 188.828887 L 696.741674 158.777127 L 700.088159 115.216295 L 703.434644 107.324153 L 706.78113 82.652322 L 710.127615 76.490289 L 713.4741 74.499478 L 716.820586 70.944459 L 720.167071 68.503346 L 723.513556 70.731158 L 726.860042 72.342767 L 730.206527 74.096576 L 733.553013 73.717374 L 736.899498 73.480373 L 740.245983 72.319067 L 743.592469 72.413867 L 746.938954 72.86417 L 753.631925 70.399357 L 756.97841 70.257156 L 760.324895 70.328256 L 763.671381 69.996454 L 767.017866 68.503346 L 770.364351 68.455946 L 773.710837 68.290045 L 777.057322 67.507941 L 780.403808 66.915438 L 783.750293 67.010239 L 790.443264 66.251834 L 793.789749 64.782427 L 797.136234 64.687626 L 800.48272 64.758727 L 803.829205 63.763321 L 807.17569 60.682305 L 810.522176 60.540104 L 813.868661 60.943006 L 817.215146 59.7343 L 820.561632 51.486656 L 823.908117 49.519545 L 827.254603 50.37275 L 830.601088 52.055459 L 833.947573 54.496572 L 837.294059 54.401771 L 840.640544 54.18847 L 843.987029 53.738168 L 847.333515 52.31616 L 850.68 52.19766 L 850.68 52.19766" fill="none" stroke="#ff7f0e" stroke-linecap="square" stroke-width="1.5"/><defs><path d="M 0 1.5 C 0.397805 1.5 0.77937 1.341951 1.06066 1.06066 C 1.341951 0.77937 1.5 0.397805 1.5 0 C 1.5 -0.397805 1.341951 -0.77937 1.06066 -1.06066 C 0.77937 -1.341951 0.397805 -1.5 0 -1.5 C -0.397805 -1.5 -0.77937 -1.341951 -1.06066 -1.06066 C -1.341951 -0.77937 -1.5 -0.397805 -1.5 0 C -1.5 0.397805 -1.341951 0.77937 -1.06066 1.06066 C -0.77937 1.341951 -0.397805 1.5 0 1.5 z" id="mf7b048cd89" stroke="#ff7f0e"/></defs><g clip-path="url(#p74d9dedb55)" fill="#ff7f0e" stroke="#ff7f0e"><use x="50.87" xlink:href="#mf7b048cd89" y="498.329"/><use x="54.216" xlink:href="#mf7b048cd89" y="499.016"/><use x="57.563" xlink:href="#mf7b048cd89" y="499.277"/><use x="60.909" xlink:href="#mf7b048cd89" y="499.822"/><use x="64.256" xlink:href="#mf7b048cd89" y="499.609"/><use x="67.602" xlink:href="#mf7b048cd89" y="499.609"/><use x="70.949" xlink:href="#mf7b048cd89" y="499.68"/><use x="74.295" xlink:href="#mf7b048cd89" y="499.609"/><use x="77.642" xlink:href="#mf7b048cd89" y="499.609"/><use x="80.988" xlink:href="#mf7b048cd89" y="499.561"/><use x="84.335" xlink:href="#mf7b048cd89" y="500.58"/><use x="87.681" xlink:href="#mf7b048cd89" y="501.125"/><use x="91.028" xlink:href="#mf7b048cd89" y="501.078"/><use x="94.374" xlink:href="#mf7b048cd89" y="501.149"/><use x="97.721" xlink:href="#mf7b048cd89" y="501.149"/><use x="101.067" xlink:href="#mf7b048cd89" y="500.888"/><use x="104.414" xlink:href="#mf7b048cd89" y="500.936"/><use x="107.76" xlink:href="#mf7b048cd89" y="501.173"/><use x="111.107" xlink:href="#mf7b048cd89" y="501.173"/><use x="114.453" xlink:href="#mf7b048cd89" y="498.945"/><use x="117.8" xlink:href="#mf7b048cd89" y="499.372"/><use x="121.146" xlink:href="#mf7b048cd89" y="498.969"/><use x="124.493" xlink:href="#mf7b048cd89" y="498.898"/><use x="127.839" xlink:href="#mf7b048cd89" y="498.945"/><use x="131.186" xlink:href="#mf7b048cd89" y="498.921"/><use x="134.532" xlink:href="#mf7b048cd89" y="497.405"/><use x="137.879" xlink:href="#mf7b048cd89" y="496.243"/><use x="141.225" xlink:href="#mf7b048cd89" y="496.101"/><use x="144.572" xlink:href="#mf7b048cd89" y="496.101"/><use x="147.918" xlink:href="#mf7b048cd89" y="496.006"/><use x="151.265" xlink:href="#mf7b048cd89" y="495.461"/><use x="154.611" xlink:href="#mf7b048cd89" y="495.437"/><use x="157.958" xlink:href="#mf7b048cd89" y="496.077"/><use x="161.304" xlink:href="#mf7b048cd89" y="496.883"/><use x="164.651" xlink:href="#mf7b048cd89" y="496.267"/><use x="167.997" xlink:href="#mf7b048cd89" y="495.485"/><use x="171.343" xlink:href="#mf7b048cd89" y="495.532"/><use x="174.69" xlink:href="#mf7b048cd89" y="495.485"/><use x="178.036" xlink:href="#mf7b048cd89" y="495.769"/><use x="181.383" xlink:href="#mf7b048cd89" y="496.812"/><use x="184.729" xlink:href="#mf7b048cd89" y="496.812"/><use x="188.076" xlink:href="#mf7b048cd89" y="496.812"/><use x="191.422" xlink:href="#mf7b048cd89" y="496.694"/><use x="194.769" xlink:href="#mf7b048cd89" y="497.144"/><use x="198.115" xlink:href="#mf7b048cd89" y="497.547"/><use x="201.462" xlink:href="#mf7b048cd89" y="497.594"/><use x="204.808" xlink:href="#mf7b048cd89" y="497.594"/><use x="208.155" xlink:href="#mf7b048cd89" y="497.57"/><use x="211.501" xlink:href="#mf7b048cd89" y="497.57"/><use x="214.848" xlink:href="#mf7b048cd89" y="497.452"/><use x="218.194" xlink:href="#mf7b048cd89" y="497.405"/><use x="221.541" xlink:href="#mf7b048cd89" y="499.49"/><use x="224.887" xlink:href="#mf7b048cd89" y="497.144"/><use x="228.234" xlink:href="#mf7b048cd89" y="496.67"/><use x="231.58" xlink:href="#mf7b048cd89" y="495.224"/><use x="234.927" xlink:href="#mf7b048cd89" y="492.333"/><use x="238.273" xlink:href="#mf7b048cd89" y="491.788"/><use x="241.62" xlink:href="#mf7b048cd89" y="491.835"/><use x="244.966" xlink:href="#mf7b048cd89" y="491.788"/><use x="248.313" xlink:href="#mf7b048cd89" y="490.816"/><use x="251.659" xlink:href="#mf7b048cd89" y="491.503"/><use x="255.006" xlink:href="#mf7b048cd89" y="490.555"/><use x="258.352" xlink:href="#mf7b048cd89" y="490.603"/><use x="261.699" xlink:href="#mf7b048cd89" y="490.792"/><use x="265.045" xlink:href="#mf7b048cd89" y="490.792"/><use x="268.392" xlink:href="#mf7b048cd89" y="491.195"/><use x="271.738" xlink:href="#mf7b048cd89" y="492.143"/><use x="275.085" xlink:href="#mf7b048cd89" y="492.167"/><use x="278.431" xlink:href="#mf7b048cd89" y="492.119"/><use x="281.777" xlink:href="#mf7b048cd89" y="492.001"/><use x="285.124" xlink:href="#mf7b048cd89" y="492.048"/><use x="288.47" xlink:href="#mf7b048cd89" y="492.025"/><use x="291.817" xlink:href="#mf7b048cd89" y="491.977"/><use x="295.163" xlink:href="#mf7b048cd89" y="491.953"/><use x="298.51" xlink:href="#mf7b048cd89" y="492.001"/><use x="301.856" xlink:href="#mf7b048cd89" y="492.001"/><use x="305.203" xlink:href="#mf7b048cd89" y="492.356"/><use x="308.549" xlink:href="#mf7b048cd89" y="492.783"/><use x="311.896" xlink:href="#mf7b048cd89" y="492.736"/><use x="315.242" xlink:href="#mf7b048cd89" y="492.712"/><use x="318.589" xlink:href="#mf7b048cd89" y="492.783"/><use x="321.935" xlink:href="#mf7b048cd89" y="492.759"/><use x="325.282" xlink:href="#mf7b048cd89" y="492.736"/><use x="328.628" xlink:href="#mf7b048cd89" y="492.783"/><use x="331.975" xlink:href="#mf7b048cd89" y="492.759"/><use x="335.321" xlink:href="#mf7b048cd89" y="491.977"/><use x="338.668" xlink:href="#mf7b048cd89" y="489.607"/><use x="342.014" xlink:href="#mf7b048cd89" y="489.418"/><use x="345.361" xlink:href="#mf7b048cd89" y="488.185"/><use x="348.707" xlink:href="#mf7b048cd89" y="481.502"/><use x="352.054" xlink:href="#mf7b048cd89" y="470.197"/><use x="355.4" xlink:href="#mf7b048cd89" y="467.353"/><use x="358.747" xlink:href="#mf7b048cd89" y="466.428"/><use x="362.093" xlink:href="#mf7b048cd89" y="465.694"/><use x="365.44" xlink:href="#mf7b048cd89" y="464.959"/><use x="368.786" xlink:href="#mf7b048cd89" y="464.532"/><use x="372.133" xlink:href="#mf7b048cd89" y="464.224"/><use x="375.479" xlink:href="#mf7b048cd89" y="463.869"/><use x="378.826" xlink:href="#mf7b048cd89" y="463.679"/><use x="382.172" xlink:href="#mf7b048cd89" y="463.039"/><use x="385.519" xlink:href="#mf7b048cd89" y="462.21"/><use x="388.865" xlink:href="#mf7b048cd89" y="461.807"/><use x="392.212" xlink:href="#mf7b048cd89" y="459.792"/><use x="395.558" xlink:href="#mf7b048cd89" y="458.868"/><use x="398.904" xlink:href="#mf7b048cd89" y="458.276"/><use x="402.251" xlink:href="#mf7b048cd89" y="458.133"/><use x="405.597" xlink:href="#mf7b048cd89" y="456.925"/><use x="408.944" xlink:href="#mf7b048cd89" y="456.474"/><use x="412.29" xlink:href="#mf7b048cd89" y="457.091"/><use x="415.637" xlink:href="#mf7b048cd89" y="456.806"/><use x="418.983" xlink:href="#mf7b048cd89" y="456.143"/><use x="422.33" xlink:href="#mf7b048cd89" y="455.74"/><use x="425.676" xlink:href="#mf7b048cd89" y="455.171"/><use x="429.023" xlink:href="#mf7b048cd89" y="454.744"/><use x="432.369" xlink:href="#mf7b048cd89" y="453.607"/><use x="435.716" xlink:href="#mf7b048cd89" y="453.204"/><use x="439.062" xlink:href="#mf7b048cd89" y="452.753"/><use x="442.409" xlink:href="#mf7b048cd89" y="452.469"/><use x="445.755" xlink:href="#mf7b048cd89" y="452.303"/><use x="449.102" xlink:href="#mf7b048cd89" y="451.853"/><use x="452.448" xlink:href="#mf7b048cd89" y="451.189"/><use x="455.795" xlink:href="#mf7b048cd89" y="450.857"/><use x="459.141" xlink:href="#mf7b048cd89" y="449.815"/><use x="462.488" xlink:href="#mf7b048cd89" y="446.9"/><use x="465.834" xlink:href="#mf7b048cd89" y="446.307"/><use x="469.181" xlink:href="#mf7b048cd89" y="447.042"/><use x="472.527" xlink:href="#mf7b048cd89" y="443.724"/><use x="475.874" xlink:href="#mf7b048cd89" y="444.032"/><use x="479.22" xlink:href="#mf7b048cd89" y="443.747"/><use x="482.567" xlink:href="#mf7b048cd89" y="443.179"/><use x="485.913" xlink:href="#mf7b048cd89" y="442.017"/><use x="489.26" xlink:href="#mf7b048cd89" y="441.78"/><use x="492.606" xlink:href="#mf7b048cd89" y="441.354"/><use x="495.953" xlink:href="#mf7b048cd89" y="441.117"/><use x="499.299" xlink:href="#mf7b048cd89" y="440.24"/><use x="502.646" xlink:href="#mf7b048cd89" y="439.955"/><use x="505.992" xlink:href="#mf7b048cd89" y="439.505"/><use x="509.338" xlink:href="#mf7b048cd89" y="439.529"/><use x="512.685" xlink:href="#mf7b048cd89" y="437.277"/><use x="516.031" xlink:href="#mf7b048cd89" y="436.187"/><use x="519.378" xlink:href="#mf7b048cd89" y="435.595"/><use x="522.724" xlink:href="#mf7b048cd89" y="435.405"/><use x="526.071" xlink:href="#mf7b048cd89" y="434.244"/><use x="529.417" xlink:href="#mf7b048cd89" y="433.77"/><use x="532.764" xlink:href="#mf7b048cd89" y="433.153"/><use x="536.11" xlink:href="#mf7b048cd89" y="432.94"/><use x="539.457" xlink:href="#mf7b048cd89" y="433.177"/><use x="542.803" xlink:href="#mf7b048cd89" y="432.703"/><use x="546.15" xlink:href="#mf7b048cd89" y="431.968"/><use x="549.496" xlink:href="#mf7b048cd89" y="431.589"/><use x="552.843" xlink:href="#mf7b048cd89" y="428.034"/><use x="556.189" xlink:href="#mf7b048cd89" y="427.11"/><use x="559.536" xlink:href="#mf7b048cd89" y="426.209"/><use x="562.882" xlink:href="#mf7b048cd89" y="426.162"/><use x="566.229" xlink:href="#mf7b048cd89" y="424.977"/><use x="569.575" xlink:href="#mf7b048cd89" y="423.958"/><use x="572.922" xlink:href="#mf7b048cd89" y="423.982"/><use x="576.268" xlink:href="#mf7b048cd89" y="424.313"/><use x="579.615" xlink:href="#mf7b048cd89" y="420.024"/><use x="582.961" xlink:href="#mf7b048cd89" y="419.692"/><use x="586.308" xlink:href="#mf7b048cd89" y="419.099"/><use x="589.654" xlink:href="#mf7b048cd89" y="418.815"/><use x="593.001" xlink:href="#mf7b048cd89" y="417.677"/><use x="596.347" xlink:href="#mf7b048cd89" y="417.44"/><use x="599.694" xlink:href="#mf7b048cd89" y="416.729"/><use x="603.04" xlink:href="#mf7b048cd89" y="416.587"/><use x="606.387" xlink:href="#mf7b048cd89" y="415.378"/><use x="609.733" xlink:href="#mf7b048cd89" y="415.047"/><use x="613.08" xlink:href="#mf7b048cd89" y="414.454"/><use x="616.426" xlink:href="#mf7b048cd89" y="414.027"/><use x="619.773" xlink:href="#mf7b048cd89" y="412.416"/><use x="623.119" xlink:href="#mf7b048cd89" y="412.321"/><use x="626.465" xlink:href="#mf7b048cd89" y="411.041"/><use x="629.812" xlink:href="#mf7b048cd89" y="410.544"/><use x="633.158" xlink:href="#mf7b048cd89" y="409.122"/><use x="636.505" xlink:href="#mf7b048cd89" y="408.861"/><use x="639.851" xlink:href="#mf7b048cd89" y="407.628"/><use x="643.198" xlink:href="#mf7b048cd89" y="407.51"/><use x="646.544" xlink:href="#mf7b048cd89" y="405.638"/><use x="649.891" xlink:href="#mf7b048cd89" y="405.614"/><use x="653.237" xlink:href="#mf7b048cd89" y="404.121"/><use x="656.584" xlink:href="#mf7b048cd89" y="404.05"/><use x="659.93" xlink:href="#mf7b048cd89" y="401.822"/><use x="663.277" xlink:href="#mf7b048cd89" y="401.419"/><use x="666.623" xlink:href="#mf7b048cd89" y="399.31"/><use x="669.97" xlink:href="#mf7b048cd89" y="399.049"/><use x="673.316" xlink:href="#mf7b048cd89" y="383.265"/><use x="676.663" xlink:href="#mf7b048cd89" y="381.203"/><use x="680.009" xlink:href="#mf7b048cd89" y="363.973"/><use x="683.356" xlink:href="#mf7b048cd89" y="369.874"/><use x="686.702" xlink:href="#mf7b048cd89" y="255.308"/><use x="690.049" xlink:href="#mf7b048cd89" y="247.487"/><use x="693.395" xlink:href="#mf7b048cd89" y="188.829"/><use x="696.742" xlink:href="#mf7b048cd89" y="158.777"/><use x="700.088" xlink:href="#mf7b048cd89" y="115.216"/><use x="703.435" xlink:href="#mf7b048cd89" y="107.324"/><use x="706.781" xlink:href="#mf7b048cd89" y="82.652"/><use x="710.128" xlink:href="#mf7b048cd89" y="76.49"/><use x="713.474" xlink:href="#mf7b048cd89" y="74.499"/><use x="716.821" xlink:href="#mf7b048cd89" y="70.944"/><use x="720.167" xlink:href="#mf7b048cd89" y="68.503"/><use x="723.514" xlink:href="#mf7b048cd89" y="70.731"/><use x="726.86" xlink:href="#mf7b048cd89" y="72.343"/><use x="730.207" xlink:href="#mf7b048cd89" y="74.097"/><use x="733.553" xlink:href="#mf7b048cd89" y="73.717"/><use x="736.899" xlink:href="#mf7b048cd89" y="73.48"/><use x="740.246" xlink:href="#mf7b048cd89" y="72.319"/><use x="743.592" xlink:href="#mf7b048cd89" y="72.414"/><use x="746.939" xlink:href="#mf7b048cd89" y="72.864"/><use x="750.285" xlink:href="#mf7b048cd89" y="71.679"/><use x="753.632" xlink:href="#mf7b048cd89" y="70.399"/><use x="756.978" xlink:href="#mf7b048cd89" y="70.257"/><use x="760.325" xlink:href="#mf7b048cd89" y="70.328"/><use x="763.671" xlink:href="#mf7b048cd89" y="69.996"/><use x="767.018" xlink:href="#mf7b048cd89" y="68.503"/><use x="770.364" xlink:href="#mf7b048cd89" y="68.456"/><use x="773.711" xlink:href="#mf7b048cd89" y="68.29"/><use x="777.057" xlink:href="#mf7b048cd89" y="67.508"/><use x="780.404" xlink:href="#mf7b048cd89" y="66.915"/><use x="783.75" xlink:href="#mf7b048cd89" y="67.01"/><use x="787.097" xlink:href="#mf7b048cd89" y="66.607"/><use x="790.443" xlink:href="#mf7b048cd89" y="66.252"/><use x="793.79" xlink:href="#mf7b048cd89" y="64.782"/><use x="797.136" xlink:href="#mf7b048cd89" y="64.688"/><use x="800.483" xlink:href="#mf7b048cd89" y="64.759"/><use x="803.829" xlink:href="#mf7b048cd89" y="63.763"/><use x="807.176" xlink:href="#mf7b048cd89" y="60.682"/><use x="810.522" xlink:href="#mf7b048cd89" y="60.54"/><use x="813.869" xlink:href="#mf7b048cd89" y="60.943"/><use x="817.215" xlink:href="#mf7b048cd89" y="59.734"/><use x="820.562" xlink:href="#mf7b048cd89" y="51.487"/><use x="823.908" xlink:href="#mf7b048cd89" y="49.52"/><use x="827.255" xlink:href="#mf7b048cd89" y="50.373"/><use x="830.601" xlink:href="#mf7b048cd89" y="52.055"/><use x="833.948" xlink:href="#mf7b048cd89" y="54.497"/><use x="837.294" xlink:href="#mf7b048cd89" y="54.402"/><use x="840.641" xlink:href="#mf7b048cd89" y="54.188"/><use x="843.987" xlink:href="#mf7b048cd89" y="53.738"/><use x="847.334" xlink:href="#mf7b048cd89" y="52.316"/><use x="850.68" xlink:href="#mf7b048cd89" y="52.198"/></g></g><path d="M 50.87 524.95 L 50.87 26.88" fill="none" stroke="#000" stroke-linecap="square" stroke-width=".8" id="patch_3"/><path d="M 850.68 524.95 L 850.68 26.88" fill="none" stroke="#000" stroke-linecap="square" stroke-width=".8" id="patch_4"/><path d="M 50.87 524.95 L 850.68 524.95" fill="none" stroke="#000" stroke-linecap="square" stroke-width=".8" id="patch_5"/><path d="M 50.87 26.88 L 850.68 26.88" fill="none" stroke="#000" stroke-linecap="square" stroke-width=".8" id="patch_6"/><g id="text_72"><defs><path d="M 9.078125 75.984375 L 18.109375 75.984375 L 18.109375 31.109375 L 44.921875 54.6875 L 56.390625 54.6875 L 27.390625 29.109375 L 57.625 0 L 45.90625 0 L 18.109375 26.703125 L 18.109375 0 L 9.078125 0 z" id="DejaVuSans-107"/><path d="M -0.296875 72.90625 L 61.375 72.90625 L 61.375 64.59375 L 35.5 64.59375 L 35.5 0 L 25.59375 0 L 25.59375 64.59375 L -0.296875 64.59375 z" id="DejaVuSans-84"/><path d="M 34.1875 63.1875 L 20.796875 26.90625 L 47.609375 26.90625 z M 28.609375 72.90625 L 39.796875 72.90625 L 67.578125 0 L 57.328125 0 L 50.6875 18.703125 L 17.828125 18.703125 L 11.1875 0 L 0.78125 0 z" id="DejaVuSans-65"/><path d="M 34.28125 27.484375 Q 23.390625 27.484375 19.1875 25 Q 14.984375 22.515625 14.984375 16.5 Q 14.984375 11.71875 18.140625 8.90625 Q 21.296875 6.109375 26.703125 6.109375 Q 34.1875 6.109375 38.703125 11.40625 Q 43.21875 16.703125 43.21875 25.484375 L 43.21875 27.484375 z M 52.203125 31.203125 L 52.203125 0 L 43.21875 0 L 43.21875 8.296875 Q 40.140625 3.328125 35.546875 0.953125 Q 30.953125 -1.421875 24.3125 -1.421875 Q 15.921875 -1.421875 10.953125 3.296875 Q 6 8.015625 6 15.921875 Q 6 25.140625 12.171875 29.828125 Q 18.359375 34.515625 30.609375 34.515625 L 43.21875 34.515625 L 43.21875 35.40625 Q 43.21875 41.609375 39.140625 45 Q 35.0625 48.390625 27.6875 48.390625 Q 23 48.390625 18.546875 47.265625 Q 14.109375 46.140625 10.015625 43.890625 L 10.015625 52.203125 Q 14.9375 54.109375 19.578125 55.046875 Q 24.21875 56 28.609375 56 Q 40.484375 56 46.34375 49.84375 Q 52.203125 43.703125 52.203125 31.203125 z" id="DejaVuSans-97"/><path d="M 45.40625 27.984375 Q 45.40625 37.75 41.375 43.109375 Q 37.359375 48.484375 30.078125 48.484375 Q 22.859375 48.484375 18.828125 43.109375 Q 14.796875 37.75 14.796875 27.984375 Q 14.796875 18.265625 18.828125 12.890625 Q 22.859375 7.515625 30.078125 7.515625 Q 37.359375 7.515625 41.375 12.890625 Q 45.40625 18.265625 45.40625 27.984375 z M 54.390625 6.78125 Q 54.390625 -7.171875 48.1875 -13.984375 Q 42 -20.796875 29.203125 -20.796875 Q 24.46875 -20.796875 20.265625 -20.09375 Q 16.0625 -19.390625 12.109375 -17.921875 L 12.109375 -9.1875 Q 16.0625 -11.328125 19.921875 -12.34375 Q 23.78125 -13.375 27.78125 -13.375 Q 36.625 -13.375 41.015625 -8.765625 Q 45.40625 -4.15625 45.40625 5.171875 L 45.40625 9.625 Q 42.625 4.78125 38.28125 2.390625 Q 33.9375 0 27.875 0 Q 17.828125 0 11.671875 7.65625 Q 5.515625 15.328125 5.515625 27.984375 Q 5.515625 40.671875 11.671875 48.328125 Q 17.828125 56 27.875 56 Q 33.9375 56 38.28125 53.609375 Q 42.625 51.21875 45.40625 46.390625 L 45.40625 54.6875 L 54.390625 54.6875 z" id="DejaVuSans-103"/><path d="M 9.8125 72.90625 L 24.515625 72.90625 L 43.109375 23.296875 L 61.8125 72.90625 L 76.515625 72.90625 L 76.515625 0 L 66.890625 0 L 66.890625 64.015625 L 48.09375 14.015625 L 38.1875 14.015625 L 19.390625 64.015625 L 19.390625 0 L 9.8125 0 z" id="DejaVuSans-77"/><path d="M 11.71875 12.40625 L 22.015625 12.40625 L 22.015625 0 L 11.71875 0 z M 11.71875 51.703125 L 22.015625 51.703125 L 22.015625 39.3125 L 11.71875 39.3125 z" id="DejaVuSans-58"/><path d="M 45.40625 46.390625 L 45.40625 75.984375 L 54.390625 75.984375 L 54.390625 0 L 45.40625 0 L 45.40625 8.203125 Q 42.578125 3.328125 38.25 0.953125 Q 33.9375 -1.421875 27.875 -1.421875 Q 17.96875 -1.421875 11.734375 6.484375 Q 5.515625 14.40625 5.515625 27.296875 Q 5.515625 40.1875 11.734375 48.09375 Q 17.96875 56 27.875 56 Q 33.9375 56 38.25 53.625 Q 42.578125 51.265625 45.40625 46.390625 z M 14.796875 27.296875 Q 14.796875 17.390625 18.875 11.75 Q 22.953125 6.109375 30.078125 6.109375 Q 37.203125 6.109375 41.296875 11.75 Q 45.40625 17.390625 45.40625 27.296875 Q 45.40625 37.203125 41.296875 42.84375 Q 37.203125 48.484375 30.078125 48.484375 Q 22.953125 48.484375 18.875 42.84375 Q 14.796875 37.203125 14.796875 27.296875 z" id="DejaVuSans-100"/><path d="M 53.515625 70.515625 L 53.515625 60.890625 Q 47.90625 63.578125 42.921875 64.890625 Q 37.9375 66.21875 33.296875 66.21875 Q 25.25 66.21875 20.875 63.09375 Q 16.5 59.96875 16.5 54.203125 Q 16.5 49.359375 19.40625 46.890625 Q 22.3125 44.4375 30.421875 42.921875 L 36.375 41.703125 Q 47.40625 39.59375 52.65625 34.296875 Q 57.90625 29 57.90625 20.125 Q 57.90625 9.515625 50.796875 4.046875 Q 43.703125 -1.421875 29.984375 -1.421875 Q 24.8125 -1.421875 18.96875 -0.25 Q 13.140625 0.921875 6.890625 3.21875 L 6.890625 13.375 Q 12.890625 10.015625 18.65625 8.296875 Q 24.421875 6.59375 29.984375 6.59375 Q 38.421875 6.59375 43.015625 9.90625 Q 47.609375 13.234375 47.609375 19.390625 Q 47.609375 24.75 44.3125 27.78125 Q 41.015625 30.8125 33.5 32.328125 L 27.484375 33.5 Q 16.453125 35.6875 11.515625 40.375 Q 6.59375 45.0625 6.59375 53.421875 Q 6.59375 63.09375 13.40625 68.65625 Q 20.21875 74.21875 32.171875 74.21875 Q 37.3125 74.21875 42.625 73.28125 Q 47.953125 72.359375 53.515625 70.515625 z" id="DejaVuSans-83"/><path d="M 31 75.875 Q 24.46875 64.65625 21.28125 53.65625 Q 18.109375 42.671875 18.109375 31.390625 Q 18.109375 20.125 21.3125 9.0625 Q 24.515625 -2 31 -13.1875 L 23.1875 -13.1875 Q 15.875 -1.703125 12.234375 9.375 Q 8.59375 20.453125 8.59375 31.390625 Q 8.59375 42.28125 12.203125 53.3125 Q 15.828125 64.359375 23.1875 75.875 z" id="DejaVuSans-40"/><path d="M 9.8125 72.90625 L 19.671875 72.90625 L 19.671875 42.09375 L 52.390625 72.90625 L 65.09375 72.90625 L 28.90625 38.921875 L 67.671875 0 L 54.6875 0 L 19.671875 35.109375 L 19.671875 0 L 9.8125 0 z" id="DejaVuSans-75"/><path d="M 6.296875 72.90625 L 16.890625 72.90625 L 35.015625 45.796875 L 53.21875 72.90625 L 63.8125 72.90625 L 40.375 37.890625 L 65.375 0 L 54.78125 0 L 34.28125 31 L 13.625 0 L 2.984375 0 L 29 38.921875 z" id="DejaVuSans-88"/><path d="M 8.015625 75.875 L 15.828125 75.875 Q 23.140625 64.359375 26.78125 53.3125 Q 30.421875 42.28125 30.421875 31.390625 Q 30.421875 20.453125 26.78125 9.375 Q 23.140625 -1.703125 15.828125 -13.1875 L 8.015625 -13.1875 Q 14.5 -2 17.703125 9.0625 Q 20.90625 20.125 20.90625 31.390625 Q 20.90625 42.671875 17.703125 53.65625 Q 14.5 64.65625 8.015625 75.875 z" id="DejaVuSans-41"/></defs><g transform="matrix(.12 0 0 -.12 307.967 20.88)"><use xlink:href="#DejaVuSans-84"/><use x="60.818" xlink:href="#DejaVuSans-101"/><use x="122.342" xlink:href="#DejaVuSans-115"/><use x="174.441" xlink:href="#DejaVuSans-116"/><use x="213.65" xlink:href="#DejaVuSans-32"/><use x="245.438" xlink:href="#DejaVuSans-50"/><use x="309.061" xlink:href="#DejaVuSans-57"/><use x="372.684" xlink:href="#DejaVuSans-58"/><use x="406.375" xlink:href="#DejaVuSans-32"/><use x="438.162" xlink:href="#DejaVuSans-65"/><use x="506.57" xlink:href="#DejaVuSans-108"/><use x="534.354" xlink:href="#DejaVuSans-116"/><use x="573.563" xlink:href="#DejaVuSans-101"/><use x="635.086" xlink:href="#DejaVuSans-114"/><use x="676.184" xlink:href="#DejaVuSans-110"/><use x="739.563" xlink:href="#DejaVuSans-97"/><use x="800.842" xlink:href="#DejaVuSans-116"/><use x="840.051" xlink:href="#DejaVuSans-105"/><use x="867.834" xlink:href="#DejaVuSans-110"/><use x="931.213" xlink:href="#DejaVuSans-103"/><use x="994.689" xlink:href="#DejaVuSans-32"/><use x="1026.477" xlink:href="#DejaVuSans-77"/><use x="1112.756" xlink:href="#DejaVuSans-97"/><use x="1174.035" xlink:href="#DejaVuSans-115"/><use x="1226.135" xlink:href="#DejaVuSans-107"/><use x="1284.045" xlink:href="#DejaVuSans-32"/><use x="1315.832" xlink:href="#DejaVuSans-97"/><use x="1377.111" xlink:href="#DejaVuSans-110"/><use x="1440.49" xlink:href="#DejaVuSans-100"/><use x="1503.967" xlink:href="#DejaVuSans-32"/><use x="1535.754" xlink:href="#DejaVuSans-83"/><use x="1599.23" xlink:href="#DejaVuSans-99"/><use x="1654.211" xlink:href="#DejaVuSans-97"/><use x="1715.49" xlink:href="#DejaVuSans-108"/><use x="1743.273" xlink:href="#DejaVuSans-97"/><use x="1804.553" xlink:href="#DejaVuSans-114"/><use x="1845.666" xlink:href="#DejaVuSans-32"/><use x="1877.453" xlink:href="#DejaVuSans-65"/><use x="1945.846" xlink:href="#DejaVuSans-100"/><use x="2009.322" xlink:href="#DejaVuSans-100"/><use x="2072.799" xlink:href="#DejaVuSans-32"/><use x="2104.586" xlink:href="#DejaVuSans-40"/><use x="2143.6" xlink:href="#DejaVuSans-83"/><use x="2207.076" xlink:href="#DejaVuSans-75"/><use x="2272.652" xlink:href="#DejaVuSans-88"/><use x="2341.158" xlink:href="#DejaVuSans-41"/></g></g><g id="legend_1"><path d="M 57.87 64.23625 L 111.290312 64.23625 Q 113.290312 64.23625 113.290312 62.23625 L 113.290312 33.88 Q 113.290312 31.88 111.290312 31.88 L 57.87 31.88 Q 55.87 31.88 55.87 33.88 L 55.87 62.23625 Q 55.87 64.23625 57.87 64.23625 z" fill="#fff" opacity=".8" stroke="#ccc" id="patch_7"/><path d="M 59.87 39.978437 L 79.87 39.978437" fill="none" stroke="#1f77b4" stroke-linecap="square" stroke-width="1.5" id="line2d_141"/><use x="69.87" xlink:href="#mfd23d3c377" y="39.978" fill="#1f77b4" stroke="#1f77b4" id="line2d_142"/><g id="text_73"><defs><path d="M 9.8125 72.90625 L 23.09375 72.90625 L 55.421875 11.921875 L 55.421875 72.90625 L 64.984375 72.90625 L 64.984375 0 L 51.703125 0 L 19.390625 60.984375 L 19.390625 0 L 9.8125 0 z" id="DejaVuSans-78"/></defs><g transform="matrix(.1 0 0 -.1 87.87 43.478)"><use xlink:href="#DejaVuSans-77"/><use x="86.279" xlink:href="#DejaVuSans-73"/><use x="115.771" xlink:href="#DejaVuSans-78"/></g></g><path d="M 59.87 54.656562 L 79.87 54.656562" fill="none" stroke="#ff7f0e" stroke-linecap="square" stroke-width="1.5" id="line2d_143"/><use x="69.87" xlink:href="#mf7b048cd89" y="54.657" fill="#ff7f0e" stroke="#ff7f0e" id="line2d_144"/><g id="text_74"><defs><path d="M 28.609375 0 L 0.78125 72.90625 L 11.078125 72.90625 L 34.1875 11.53125 L 57.328125 72.90625 L 67.578125 72.90625 L 39.796875 0 z" id="DejaVuSans-86"/><path d="M 59.515625 10.40625 L 59.515625 29.984375 L 43.40625 29.984375 L 43.40625 38.09375 L 69.28125 38.09375 L 69.28125 6.78125 Q 63.578125 2.734375 56.6875 0.65625 Q 49.8125 -1.421875 42 -1.421875 Q 24.90625 -1.421875 15.25 8.5625 Q 5.609375 18.5625 5.609375 36.375 Q 5.609375 54.25 15.25 64.234375 Q 24.90625 74.21875 42 74.21875 Q 49.125 74.21875 55.546875 72.453125 Q 61.96875 70.703125 67.390625 67.28125 L 67.390625 56.78125 Q 61.921875 61.421875 55.765625 63.765625 Q 49.609375 66.109375 42.828125 66.109375 Q 29.4375 66.109375 22.71875 58.640625 Q 16.015625 51.171875 16.015625 36.375 Q 16.015625 21.625 22.71875 14.15625 Q 29.4375 6.6875 42.828125 6.6875 Q 48.046875 6.6875 52.140625 7.59375 Q 56.25 8.5 59.515625 10.40625 z" id="DejaVuSans-71"/></defs><g transform="matrix(.1 0 0 -.1 87.87 58.157)"><use xlink:href="#DejaVuSans-65"/><use x="68.314" xlink:href="#DejaVuSans-86"/><use x="136.723" xlink:href="#DejaVuSans-71"/></g></g></g></g></g><defs><clipPath id="p74d9dedb55"><path d="M50.87 26.88H850.68V524.95H50.87z"/></clipPath></defs></svg>