<svg height="768" viewBox="0 0 864 576" width="1152" xmlns="http://www.w3.org/2000/svg" xmlns:xlink="http://www.w3.org/1999/xlink"><defs><style>*{stroke-linecap:butt;stroke-linejoin:round}</style></defs><g id="figure_1"><path d="M 0 576 L 864 576 L 864 0 L 0 0 z" fill="#fff" id="patch_1"/><g id="axes_1"><path d="M 50.78 524.95 L 850.68 524.95 L 850.68 26.88 L 50.78 26.88 z" fill="#fff" id="patch_2"/><g id="matplotlib.axis_1"><g id="xtick_1"><path clip-path="url(#pc1586b666f)" d="M 50.78 524.95 L 50.78 26.88" fill="none" stroke="#b0b0b0" stroke-linecap="square" stroke-width=".8" id="line2d_1"/><g id="line2d_2"><defs><path d="M 0 0 L 0 3.5" id="mfc518bbc66" stroke="#000" stroke-width=".8"/></defs><use x="50.78" xlink:href="#mfc518bbc66" y="524.95" stroke="#000" stroke-width=".8"/></g><g id="text_1"><defs><path d="M 12.40625 8.296875 L 28.515625 8.296875 L 28.515625 63.921875 L 10.984375 60.40625 L 10.984375 69.390625 L 28.421875 72.90625 L 38.28125 72.90625 L 38.28125 8.296875 L 54.390625 8.296875 L 54.390625 0 L 12.40625 0 z" id="DejaVuSans-49"/><path d="M 33.015625 40.375 Q 26.375 40.375 22.484375 35.828125 Q 18.609375 31.296875 18.609375 23.390625 Q 18.609375 15.53125 22.484375 10.953125 Q 26.375 6.390625 33.015625 6.390625 Q 39.65625 6.390625 43.53125 10.953125 Q 47.40625 15.53125 47.40625 23.390625 Q 47.40625 31.296875 43.53125 35.828125 Q 39.65625 40.375 33.015625 40.375 z M 52.59375 71.296875 L 52.59375 62.3125 Q 48.875 64.0625 45.09375 64.984375 Q 41.3125 65.921875 37.59375 65.921875 Q 27.828125 65.921875 22.671875 59.328125 Q 17.53125 52.734375 16.796875 39.40625 Q 19.671875 43.65625 24.015625 45.921875 Q 28.375 48.1875 33.59375 48.1875 Q 44.578125 48.1875 50.953125 41.515625 Q 57.328125 34.859375 57.328125 23.390625 Q 57.328125 12.15625 50.6875 5.359375 Q 44.046875 -1.421875 33.015625 -1.421875 Q 20.359375 -1.421875 13.671875 8.265625 Q 6.984375 17.96875 6.984375 36.375 Q 6.984375 53.65625 15.1875 63.9375 Q 23.390625 74.21875 37.203125 74.21875 Q 40.921875 74.21875 44.703125 73.484375 Q 48.484375 72.75 52.59375 71.296875 z" id="DejaVuSans-54"/></defs><g transform="matrix(0 -.1 -.1 0 53.54 544.675)"><use xlink:href="#DejaVuSans-49"/><use x="63.623" xlink:href="#DejaVuSans-54"/></g></g></g><g id="xtick_2"><path clip-path="url(#pc1586b666f)" d="M 64.167448 524.95 L 64.167448 26.88" fill="none" stroke="#b0b0b0" stroke-linecap="square" stroke-width=".8" id="line2d_3"/><use x="64.167" xlink:href="#mfc518bbc66" y="524.95" stroke="#000" stroke-width=".8" id="line2d_4"/><g id="text_2"><defs><path d="M 19.1875 8.296875 L 53.609375 8.296875 L 53.609375 0 L 7.328125 0 L 7.328125 8.296875 Q 12.9375 14.109375 22.625 23.890625 Q 32.328125 33.6875 34.8125 36.53125 Q 39.546875 41.84375 41.421875 45.53125 Q 43.3125 49.21875 43.3125 52.78125 Q 43.3125 58.59375 39.234375 62.25 Q 35.15625 65.921875 28.609375 65.921875 Q 23.96875 65.921875 18.8125 64.3125 Q 13.671875 62.703125 7.8125 59.421875 L 7.8125 69.390625 Q 13.765625 71.78125 18.9375 73 Q 24.125 74.21875 28.421875 74.21875 Q 39.75 74.21875 46.484375 68.546875 Q 53.21875 62.890625 53.21875 53.421875 Q 53.21875 48.921875 51.53125 44.890625 Q 49.859375 40.875 45.40625 35.40625 Q 44.1875 33.984375 37.640625 27.21875 Q 31.109375 20.453125 19.1875 8.296875 z" id="DejaVuSans-50"/><path d="M 31.78125 66.40625 Q 24.171875 66.40625 20.328125 58.90625 Q 16.5 51.421875 16.5 36.375 Q 16.5 21.390625 20.328125 13.890625 Q 24.171875 6.390625 31.78125 6.390625 Q 39.453125 6.390625 43.28125 13.890625 Q 47.125 21.390625 47.125 36.375 Q 47.125 51.421875 43.28125 58.90625 Q 39.453125 66.40625 31.78125 66.40625 z M 31.78125 74.21875 Q 44.046875 74.21875 50.515625 64.515625 Q 56.984375 54.828125 56.984375 36.375 Q 56.984375 17.96875 50.515625 8.265625 Q 44.046875 -1.421875 31.78125 -1.421875 Q 19.53125 -1.421875 13.0625 8.265625 Q 6.59375 17.96875 6.59375 36.375 Q 6.59375 54.828125 13.0625 64.515625 Q 19.53125 74.21875 31.78125 74.21875 z" id="DejaVuSans-48"/></defs><g transform="matrix(0 -.1 -.1 0 66.927 544.675)"><use xlink:href="#DejaVuSans-50"/><use x="63.623" xlink:href="#DejaVuSans-48"/></g></g></g><g id="xtick_3"><path clip-path="url(#pc1586b666f)" d="M 77.554895 524.95 L 77.554895 26.88" fill="none" stroke="#b0b0b0" stroke-linecap="square" stroke-width=".8" id="line2d_5"/><use x="77.555" xlink:href="#mfc518bbc66" y="524.95" stroke="#000" stroke-width=".8" id="line2d_6"/><g id="text_3"><defs><path d="M 37.796875 64.3125 L 12.890625 25.390625 L 37.796875 25.390625 z M 35.203125 72.90625 L 47.609375 72.90625 L 47.609375 25.390625 L 58.015625 25.390625 L 58.015625 17.1875 L 47.609375 17.1875 L 47.609375 0 L 37.796875 0 L 37.796875 17.1875 L 4.890625 17.1875 L 4.890625 26.703125 z" id="DejaVuSans-52"/></defs><g transform="matrix(0 -.1 -.1 0 80.314 544.675)"><use xlink:href="#DejaVuSans-50"/><use x="63.623" xlink:href="#DejaVuSans-52"/></g></g></g><g id="xtick_4"><path clip-path="url(#pc1586b666f)" d="M 90.942343 524.95 L 90.942343 26.88" fill="none" stroke="#b0b0b0" stroke-linecap="square" stroke-width=".8" id="line2d_7"/><use x="90.942" xlink:href="#mfc518bbc66" y="524.95" stroke="#000" stroke-width=".8" id="line2d_8"/><g id="text_4"><defs><path d="M 31.78125 34.625 Q 24.75 34.625 20.71875 30.859375 Q 16.703125 27.09375 16.703125 20.515625 Q 16.703125 13.921875 20.71875 10.15625 Q 24.75 6.390625 31.78125 6.390625 Q 38.8125 6.390625 42.859375 10.171875 Q 46.921875 13.96875 46.921875 20.515625 Q 46.921875 27.09375 42.890625 30.859375 Q 38.875 34.625 31.78125 34.625 z M 21.921875 38.8125 Q 15.578125 40.375 12.03125 44.71875 Q 8.5 49.078125 8.5 55.328125 Q 8.5 64.0625 14.71875 69.140625 Q 20.953125 74.21875 31.78125 74.21875 Q 42.671875 74.21875 48.875 69.140625 Q 55.078125 64.0625 55.078125 55.328125 Q 55.078125 49.078125 51.53125 44.71875 Q 48 40.375 41.703125 38.8125 Q 48.828125 37.15625 52.796875 32.3125 Q 56.78125 27.484375 56.78125 20.515625 Q 56.78125 9.90625 50.3125 4.234375 Q 43.84375 -1.421875 31.78125 -1.421875 Q 19.734375 -1.421875 13.25 4.234375 Q 6.78125 9.90625 6.78125 20.515625 Q 6.78125 27.484375 10.78125 32.3125 Q 14.796875 37.15625 21.921875 38.8125 z M 18.3125 54.390625 Q 18.3125 48.734375 21.84375 45.5625 Q 25.390625 42.390625 31.78125 42.390625 Q 38.140625 42.390625 41.71875 45.5625 Q 45.3125 48.734375 45.3125 54.390625 Q 45.3125 60.0625 41.71875 63.234375 Q 38.140625 66.40625 31.78125 66.40625 Q 25.390625 66.40625 21.84375 63.234375 Q 18.3125 60.0625 18.3125 54.390625 z" id="DejaVuSans-56"/></defs><g transform="matrix(0 -.1 -.1 0 93.702 544.675)"><use xlink:href="#DejaVuSans-50"/><use x="63.623" xlink:href="#DejaVuSans-56"/></g></g></g><g id="xtick_5"><path clip-path="url(#pc1586b666f)" d="M 104.329791 524.95 L 104.329791 26.88" fill="none" stroke="#b0b0b0" stroke-linecap="square" stroke-width=".8" id="line2d_9"/><use x="104.33" xlink:href="#mfc518bbc66" y="524.95" stroke="#000" stroke-width=".8" id="line2d_10"/><g id="text_5"><defs><path d="M 40.578125 39.3125 Q 47.65625 37.796875 51.625 33 Q 55.609375 28.21875 55.609375 21.1875 Q 55.609375 10.40625 48.1875 4.484375 Q 40.765625 -1.421875 27.09375 -1.421875 Q 22.515625 -1.421875 17.65625 -0.515625 Q 12.796875 0.390625 7.625 2.203125 L 7.625 11.71875 Q 11.71875 9.328125 16.59375 8.109375 Q 21.484375 6.890625 26.8125 6.890625 Q 36.078125 6.890625 40.9375 10.546875 Q 45.796875 14.203125 45.796875 21.1875 Q 45.796875 27.640625 41.28125 31.265625 Q 36.765625 34.90625 28.71875 34.90625 L 20.21875 34.90625 L 20.21875 43.015625 L 29.109375 43.015625 Q 36.375 43.015625 40.234375 45.921875 Q 44.09375 48.828125 44.09375 54.296875 Q 44.09375 59.90625 40.109375 62.90625 Q 36.140625 65.921875 28.71875 65.921875 Q 24.65625 65.921875 20.015625 65.03125 Q 15.375 64.15625 9.8125 62.3125 L 9.8125 71.09375 Q 15.4375 72.65625 20.34375 73.4375 Q 25.25 74.21875 29.59375 74.21875 Q 40.828125 74.21875 47.359375 69.109375 Q 53.90625 64.015625 53.90625 55.328125 Q 53.90625 49.265625 50.4375 45.09375 Q 46.96875 40.921875 40.578125 39.3125 z" id="DejaVuSans-51"/></defs><g transform="matrix(0 -.1 -.1 0 107.09 544.675)"><use xlink:href="#DejaVuSans-51"/><use x="63.623" xlink:href="#DejaVuSans-50"/></g></g></g><g id="xtick_6"><path clip-path="url(#pc1586b666f)" d="M 117.717238 524.95 L 117.717238 26.88" fill="none" stroke="#b0b0b0" stroke-linecap="square" stroke-width=".8" id="line2d_11"/><use x="117.717" xlink:href="#mfc518bbc66" y="524.95" stroke="#000" stroke-width=".8" id="line2d_12"/><g transform="matrix(0 -.1 -.1 0 120.477 544.675)" id="text_6"><use xlink:href="#DejaVuSans-51"/><use x="63.623" xlink:href="#DejaVuSans-54"/></g></g><g id="xtick_7"><path clip-path="url(#pc1586b666f)" d="M 131.104686 524.95 L 131.104686 26.88" fill="none" stroke="#b0b0b0" stroke-linecap="square" stroke-width=".8" id="line2d_13"/><use x="131.105" xlink:href="#mfc518bbc66" y="524.95" stroke="#000" stroke-width=".8" id="line2d_14"/><g transform="matrix(0 -.1 -.1 0 133.864 544.675)" id="text_7"><use xlink:href="#DejaVuSans-52"/><use x="63.623" xlink:href="#DejaVuSans-48"/></g></g><g id="xtick_8"><path clip-path="url(#pc1586b666f)" d="M 144.492134 524.95 L 144.492134 26.88" fill="none" stroke="#b0b0b0" stroke-linecap="square" stroke-width=".8" id="line2d_15"/><use x="144.492" xlink:href="#mfc518bbc66" y="524.95" stroke="#000" stroke-width=".8" id="line2d_16"/><g transform="matrix(0 -.1 -.1 0 147.252 544.675)" id="text_8"><use xlink:href="#DejaVuSans-52"/><use x="63.623" xlink:href="#DejaVuSans-52"/></g></g><g id="xtick_9"><path clip-path="url(#pc1586b666f)" d="M 157.879582 524.95 L 157.879582 26.88" fill="none" stroke="#b0b0b0" stroke-linecap="square" stroke-width=".8" id="line2d_17"/><use x="157.88" xlink:href="#mfc518bbc66" y="524.95" stroke="#000" stroke-width=".8" id="line2d_18"/><g transform="matrix(0 -.1 -.1 0 160.639 544.675)" id="text_9"><use xlink:href="#DejaVuSans-52"/><use x="63.623" xlink:href="#DejaVuSans-56"/></g></g><g id="xtick_10"><path clip-path="url(#pc1586b666f)" d="M 171.267029 524.95 L 171.267029 26.88" fill="none" stroke="#b0b0b0" stroke-linecap="square" stroke-width=".8" id="line2d_19"/><use x="171.267" xlink:href="#mfc518bbc66" y="524.95" stroke="#000" stroke-width=".8" id="line2d_20"/><g id="text_10"><defs><path d="M 10.796875 72.90625 L 49.515625 72.90625 L 49.515625 64.59375 L 19.828125 64.59375 L 19.828125 46.734375 Q 21.96875 47.46875 24.109375 47.828125 Q 26.265625 48.1875 28.421875 48.1875 Q 40.625 48.1875 47.75 41.5 Q 54.890625 34.8125 54.890625 23.390625 Q 54.890625 11.625 47.5625 5.09375 Q 40.234375 -1.421875 26.90625 -1.421875 Q 22.3125 -1.421875 17.546875 -0.640625 Q 12.796875 0.140625 7.71875 1.703125 L 7.71875 11.625 Q 12.109375 9.234375 16.796875 8.0625 Q 21.484375 6.890625 26.703125 6.890625 Q 35.15625 6.890625 40.078125 11.328125 Q 45.015625 15.765625 45.015625 23.390625 Q 45.015625 31 40.078125 35.4375 Q 35.15625 39.890625 26.703125 39.890625 Q 22.75 39.890625 18.8125 39.015625 Q 14.890625 38.140625 10.796875 36.28125 z" id="DejaVuSans-53"/></defs><g transform="matrix(0 -.1 -.1 0 174.026 544.675)"><use xlink:href="#DejaVuSans-53"/><use x="63.623" xlink:href="#DejaVuSans-50"/></g></g></g><g id="xtick_11"><path clip-path="url(#pc1586b666f)" d="M 184.654477 524.95 L 184.654477 26.88" fill="none" stroke="#b0b0b0" stroke-linecap="square" stroke-width=".8" id="line2d_21"/><use x="184.654" xlink:href="#mfc518bbc66" y="524.95" stroke="#000" stroke-width=".8" id="line2d_22"/><g transform="matrix(0 -.1 -.1 0 187.414 544.675)" id="text_11"><use xlink:href="#DejaVuSans-53"/><use x="63.623" xlink:href="#DejaVuSans-54"/></g></g><g id="xtick_12"><path clip-path="url(#pc1586b666f)" d="M 198.041925 524.95 L 198.041925 26.88" fill="none" stroke="#b0b0b0" stroke-linecap="square" stroke-width=".8" id="line2d_23"/><use x="198.042" xlink:href="#mfc518bbc66" y="524.95" stroke="#000" stroke-width=".8" id="line2d_24"/><g transform="matrix(0 -.1 -.1 0 200.801 544.675)" id="text_12"><use xlink:href="#DejaVuSans-54"/><use x="63.623" xlink:href="#DejaVuSans-48"/></g></g><g id="xtick_13"><path clip-path="url(#pc1586b666f)" d="M 211.429372 524.95 L 211.429372 26.88" fill="none" stroke="#b0b0b0" stroke-linecap="square" stroke-width=".8" id="line2d_25"/><use x="211.429" xlink:href="#mfc518bbc66" y="524.95" stroke="#000" stroke-width=".8" id="line2d_26"/><g transform="matrix(0 -.1 -.1 0 214.189 544.675)" id="text_13"><use xlink:href="#DejaVuSans-54"/><use x="63.623" xlink:href="#DejaVuSans-52"/></g></g><g id="xtick_14"><path clip-path="url(#pc1586b666f)" d="M 224.81682 524.95 L 224.81682 26.88" fill="none" stroke="#b0b0b0" stroke-linecap="square" stroke-width=".8" id="line2d_27"/><use x="224.817" xlink:href="#mfc518bbc66" y="524.95" stroke="#000" stroke-width=".8" id="line2d_28"/><g transform="matrix(0 -.1 -.1 0 227.576 544.675)" id="text_14"><use xlink:href="#DejaVuSans-54"/><use x="63.623" xlink:href="#DejaVuSans-56"/></g></g><g id="xtick_15"><path clip-path="url(#pc1586b666f)" d="M 238.204268 524.95 L 238.204268 26.88" fill="none" stroke="#b0b0b0" stroke-linecap="square" stroke-width=".8" id="line2d_29"/><use x="238.204" xlink:href="#mfc518bbc66" y="524.95" stroke="#000" stroke-width=".8" id="line2d_30"/><g id="text_15"><defs><path d="M 8.203125 72.90625 L 55.078125 72.90625 L 55.078125 68.703125 L 28.609375 0 L 18.3125 0 L 43.21875 64.59375 L 8.203125 64.59375 z" id="DejaVuSans-55"/></defs><g transform="matrix(0 -.1 -.1 0 240.964 544.675)"><use xlink:href="#DejaVuSans-55"/><use x="63.623" xlink:href="#DejaVuSans-50"/></g></g></g><g id="xtick_16"><path clip-path="url(#pc1586b666f)" d="M 251.591715 524.95 L 251.591715 26.88" fill="none" stroke="#b0b0b0" stroke-linecap="square" stroke-width=".8" id="line2d_31"/><use x="251.592" xlink:href="#mfc518bbc66" y="524.95" stroke="#000" stroke-width=".8" id="line2d_32"/><g transform="matrix(0 -.1 -.1 0 254.351 544.675)" id="text_16"><use xlink:href="#DejaVuSans-55"/><use x="63.623" xlink:href="#DejaVuSans-54"/></g></g><g id="xtick_17"><path clip-path="url(#pc1586b666f)" d="M 264.979163 524.95 L 264.979163 26.88" fill="none" stroke="#b0b0b0" stroke-linecap="square" stroke-width=".8" id="line2d_33"/><use x="264.979" xlink:href="#mfc518bbc66" y="524.95" stroke="#000" stroke-width=".8" id="line2d_34"/><g transform="matrix(0 -.1 -.1 0 267.739 544.675)" id="text_17"><use xlink:href="#DejaVuSans-56"/><use x="63.623" xlink:href="#DejaVuSans-48"/></g></g><g id="xtick_18"><path clip-path="url(#pc1586b666f)" d="M 278.366611 524.95 L 278.366611 26.88" fill="none" stroke="#b0b0b0" stroke-linecap="square" stroke-width=".8" id="line2d_35"/><use x="278.367" xlink:href="#mfc518bbc66" y="524.95" stroke="#000" stroke-width=".8" id="line2d_36"/><g transform="matrix(0 -.1 -.1 0 281.126 544.675)" id="text_18"><use xlink:href="#DejaVuSans-56"/><use x="63.623" xlink:href="#DejaVuSans-52"/></g></g><g id="xtick_19"><path clip-path="url(#pc1586b666f)" d="M 291.754059 524.95 L 291.754059 26.88" fill="none" stroke="#b0b0b0" stroke-linecap="square" stroke-width=".8" id="line2d_37"/><use x="291.754" xlink:href="#mfc518bbc66" y="524.95" stroke="#000" stroke-width=".8" id="line2d_38"/><g transform="matrix(0 -.1 -.1 0 294.513 544.675)" id="text_19"><use xlink:href="#DejaVuSans-56"/><use x="63.623" xlink:href="#DejaVuSans-56"/></g></g><g id="xtick_20"><path clip-path="url(#pc1586b666f)" d="M 305.141506 524.95 L 305.141506 26.88" fill="none" stroke="#b0b0b0" stroke-linecap="square" stroke-width=".8" id="line2d_39"/><use x="305.142" xlink:href="#mfc518bbc66" y="524.95" stroke="#000" stroke-width=".8" id="line2d_40"/><g id="text_20"><defs><path d="M 10.984375 1.515625 L 10.984375 10.5 Q 14.703125 8.734375 18.5 7.8125 Q 22.3125 6.890625 25.984375 6.890625 Q 35.75 6.890625 40.890625 13.453125 Q 46.046875 20.015625 46.78125 33.40625 Q 43.953125 29.203125 39.59375 26.953125 Q 35.25 24.703125 29.984375 24.703125 Q 19.046875 24.703125 12.671875 31.3125 Q 6.296875 37.9375 6.296875 49.421875 Q 6.296875 60.640625 12.9375 67.421875 Q 19.578125 74.21875 30.609375 74.21875 Q 43.265625 74.21875 49.921875 64.515625 Q 56.59375 54.828125 56.59375 36.375 Q 56.59375 19.140625 48.40625 8.859375 Q 40.234375 -1.421875 26.421875 -1.421875 Q 22.703125 -1.421875 18.890625 -0.6875 Q 15.09375 0.046875 10.984375 1.515625 z M 30.609375 32.421875 Q 37.25 32.421875 41.125 36.953125 Q 45.015625 41.5 45.015625 49.421875 Q 45.015625 57.28125 41.125 61.84375 Q 37.25 66.40625 30.609375 66.40625 Q 23.96875 66.40625 20.09375 61.84375 Q 16.21875 57.28125 16.21875 49.421875 Q 16.21875 41.5 20.09375 36.953125 Q 23.96875 32.421875 30.609375 32.421875 z" id="DejaVuSans-57"/></defs><g transform="matrix(0 -.1 -.1 0 307.9 544.675)"><use xlink:href="#DejaVuSans-57"/><use x="63.623" xlink:href="#DejaVuSans-50"/></g></g></g><g id="xtick_21"><path clip-path="url(#pc1586b666f)" d="M 318.528954 524.95 L 318.528954 26.88" fill="none" stroke="#b0b0b0" stroke-linecap="square" stroke-width=".8" id="line2d_41"/><use x="318.529" xlink:href="#mfc518bbc66" y="524.95" stroke="#000" stroke-width=".8" id="line2d_42"/><g transform="matrix(0 -.1 -.1 0 321.288 544.675)" id="text_21"><use xlink:href="#DejaVuSans-57"/><use x="63.623" xlink:href="#DejaVuSans-54"/></g></g><g id="xtick_22"><path clip-path="url(#pc1586b666f)" d="M 331.916402 524.95 L 331.916402 26.88" fill="none" stroke="#b0b0b0" stroke-linecap="square" stroke-width=".8" id="line2d_43"/><use x="331.916" xlink:href="#mfc518bbc66" y="524.95" stroke="#000" stroke-width=".8" id="line2d_44"/><g transform="matrix(0 -.1 -.1 0 334.676 551.038)" id="text_22"><use xlink:href="#DejaVuSans-49"/><use x="63.623" xlink:href="#DejaVuSans-48"/><use x="127.246" xlink:href="#DejaVuSans-48"/></g></g><g id="xtick_23"><path clip-path="url(#pc1586b666f)" d="M 345.303849 524.95 L 345.303849 26.88" fill="none" stroke="#b0b0b0" stroke-linecap="square" stroke-width=".8" id="line2d_45"/><use x="345.304" xlink:href="#mfc518bbc66" y="524.95" stroke="#000" stroke-width=".8" id="line2d_46"/><g transform="matrix(0 -.1 -.1 0 348.063 551.038)" id="text_23"><use xlink:href="#DejaVuSans-49"/><use x="63.623" xlink:href="#DejaVuSans-48"/><use x="127.246" xlink:href="#DejaVuSans-52"/></g></g><g id="xtick_24"><path clip-path="url(#pc1586b666f)" d="M 358.691297 524.95 L 358.691297 26.88" fill="none" stroke="#b0b0b0" stroke-linecap="square" stroke-width=".8" id="line2d_47"/><use x="358.691" xlink:href="#mfc518bbc66" y="524.95" stroke="#000" stroke-width=".8" id="line2d_48"/><g transform="matrix(0 -.1 -.1 0 361.45 551.038)" id="text_24"><use xlink:href="#DejaVuSans-49"/><use x="63.623" xlink:href="#DejaVuSans-48"/><use x="127.246" xlink:href="#DejaVuSans-56"/></g></g><g id="xtick_25"><path clip-path="url(#pc1586b666f)" d="M 372.078745 524.95 L 372.078745 26.88" fill="none" stroke="#b0b0b0" stroke-linecap="square" stroke-width=".8" id="line2d_49"/><use x="372.079" xlink:href="#mfc518bbc66" y="524.95" stroke="#000" stroke-width=".8" id="line2d_50"/><g transform="matrix(0 -.1 -.1 0 374.838 551.038)" id="text_25"><use xlink:href="#DejaVuSans-49"/><use x="63.623" xlink:href="#DejaVuSans-49"/><use x="127.246" xlink:href="#DejaVuSans-50"/></g></g><g id="xtick_26"><path clip-path="url(#pc1586b666f)" d="M 385.466192 524.95 L 385.466192 26.88" fill="none" stroke="#b0b0b0" stroke-linecap="square" stroke-width=".8" id="line2d_51"/><use x="385.466" xlink:href="#mfc518bbc66" y="524.95" stroke="#000" stroke-width=".8" id="line2d_52"/><g transform="matrix(0 -.1 -.1 0 388.226 551.038)" id="text_26"><use xlink:href="#DejaVuSans-49"/><use x="63.623" xlink:href="#DejaVuSans-49"/><use x="127.246" xlink:href="#DejaVuSans-54"/></g></g><g id="xtick_27"><path clip-path="url(#pc1586b666f)" d="M 398.85364 524.95 L 398.85364 26.88" fill="none" stroke="#b0b0b0" stroke-linecap="square" stroke-width=".8" id="line2d_53"/><use x="398.854" xlink:href="#mfc518bbc66" y="524.95" stroke="#000" stroke-width=".8" id="line2d_54"/><g transform="matrix(0 -.1 -.1 0 401.613 551.038)" id="text_27"><use xlink:href="#DejaVuSans-49"/><use x="63.623" xlink:href="#DejaVuSans-50"/><use x="127.246" xlink:href="#DejaVuSans-48"/></g></g><g id="xtick_28"><path clip-path="url(#pc1586b666f)" d="M 412.241088 524.95 L 412.241088 26.88" fill="none" stroke="#b0b0b0" stroke-linecap="square" stroke-width=".8" id="line2d_55"/><use x="412.241" xlink:href="#mfc518bbc66" y="524.95" stroke="#000" stroke-width=".8" id="line2d_56"/><g transform="matrix(0 -.1 -.1 0 415 551.038)" id="text_28"><use xlink:href="#DejaVuSans-49"/><use x="63.623" xlink:href="#DejaVuSans-50"/><use x="127.246" xlink:href="#DejaVuSans-52"/></g></g><g id="xtick_29"><path clip-path="url(#pc1586b666f)" d="M 425.628536 524.95 L 425.628536 26.88" fill="none" stroke="#b0b0b0" stroke-linecap="square" stroke-width=".8" id="line2d_57"/><use x="425.629" xlink:href="#mfc518bbc66" y="524.95" stroke="#000" stroke-width=".8" id="line2d_58"/><g transform="matrix(0 -.1 -.1 0 428.388 551.038)" id="text_29"><use xlink:href="#DejaVuSans-49"/><use x="63.623" xlink:href="#DejaVuSans-50"/><use x="127.246" xlink:href="#DejaVuSans-56"/></g></g><g id="xtick_30"><path clip-path="url(#pc1586b666f)" d="M 439.015983 524.95 L 439.015983 26.88" fill="none" stroke="#b0b0b0" stroke-linecap="square" stroke-width=".8" id="line2d_59"/><use x="439.016" xlink:href="#mfc518bbc66" y="524.95" stroke="#000" stroke-width=".8" id="line2d_60"/><g transform="matrix(0 -.1 -.1 0 441.775 551.038)" id="text_30"><use xlink:href="#DejaVuSans-49"/><use x="63.623" xlink:href="#DejaVuSans-51"/><use x="127.246" xlink:href="#DejaVuSans-50"/></g></g><g id="xtick_31"><path clip-path="url(#pc1586b666f)" d="M 452.403431 524.95 L 452.403431 26.88" fill="none" stroke="#b0b0b0" stroke-linecap="square" stroke-width=".8" id="line2d_61"/><use x="452.403" xlink:href="#mfc518bbc66" y="524.95" stroke="#000" stroke-width=".8" id="line2d_62"/><g transform="matrix(0 -.1 -.1 0 455.163 551.038)" id="text_31"><use xlink:href="#DejaVuSans-49"/><use x="63.623" xlink:href="#DejaVuSans-51"/><use x="127.246" xlink:href="#DejaVuSans-54"/></g></g><g id="xtick_32"><path clip-path="url(#pc1586b666f)" d="M 465.790879 524.95 L 465.790879 26.88" fill="none" stroke="#b0b0b0" stroke-linecap="square" stroke-width=".8" id="line2d_63"/><use x="465.791" xlink:href="#mfc518bbc66" y="524.95" stroke="#000" stroke-width=".8" id="line2d_64"/><g transform="matrix(0 -.1 -.1 0 468.55 551.038)" id="text_32"><use xlink:href="#DejaVuSans-49"/><use x="63.623" xlink:href="#DejaVuSans-52"/><use x="127.246" xlink:href="#DejaVuSans-48"/></g></g><g id="xtick_33"><path clip-path="url(#pc1586b666f)" d="M 479.178326 524.95 L 479.178326 26.88" fill="none" stroke="#b0b0b0" stroke-linecap="square" stroke-width=".8" id="line2d_65"/><use x="479.178" xlink:href="#mfc518bbc66" y="524.95" stroke="#000" stroke-width=".8" id="line2d_66"/><g transform="matrix(0 -.1 -.1 0 481.938 551.038)" id="text_33"><use xlink:href="#DejaVuSans-49"/><use x="63.623" xlink:href="#DejaVuSans-52"/><use x="127.246" xlink:href="#DejaVuSans-52"/></g></g><g id="xtick_34"><path clip-path="url(#pc1586b666f)" d="M 492.565774 524.95 L 492.565774 26.88" fill="none" stroke="#b0b0b0" stroke-linecap="square" stroke-width=".8" id="line2d_67"/><use x="492.566" xlink:href="#mfc518bbc66" y="524.95" stroke="#000" stroke-width=".8" id="line2d_68"/><g transform="matrix(0 -.1 -.1 0 495.325 551.038)" id="text_34"><use xlink:href="#DejaVuSans-49"/><use x="63.623" xlink:href="#DejaVuSans-52"/><use x="127.246" xlink:href="#DejaVuSans-56"/></g></g><g id="xtick_35"><path clip-path="url(#pc1586b666f)" d="M 505.953222 524.95 L 505.953222 26.88" fill="none" stroke="#b0b0b0" stroke-linecap="square" stroke-width=".8" id="line2d_69"/><use x="505.953" xlink:href="#mfc518bbc66" y="524.95" stroke="#000" stroke-width=".8" id="line2d_70"/><g transform="matrix(0 -.1 -.1 0 508.713 551.038)" id="text_35"><use xlink:href="#DejaVuSans-49"/><use x="63.623" xlink:href="#DejaVuSans-53"/><use x="127.246" xlink:href="#DejaVuSans-50"/></g></g><g id="xtick_36"><path clip-path="url(#pc1586b666f)" d="M 519.340669 524.95 L 519.340669 26.88" fill="none" stroke="#b0b0b0" stroke-linecap="square" stroke-width=".8" id="line2d_71"/><use x="519.341" xlink:href="#mfc518bbc66" y="524.95" stroke="#000" stroke-width=".8" id="line2d_72"/><g transform="matrix(0 -.1 -.1 0 522.1 551.038)" id="text_36"><use xlink:href="#DejaVuSans-49"/><use x="63.623" xlink:href="#DejaVuSans-53"/><use x="127.246" xlink:href="#DejaVuSans-54"/></g></g><g id="xtick_37"><path clip-path="url(#pc1586b666f)" d="M 532.728117 524.95 L 532.728117 26.88" fill="none" stroke="#b0b0b0" stroke-linecap="square" stroke-width=".8" id="line2d_73"/><use x="532.728" xlink:href="#mfc518bbc66" y="524.95" stroke="#000" stroke-width=".8" id="line2d_74"/><g transform="matrix(0 -.1 -.1 0 535.487 551.038)" id="text_37"><use xlink:href="#DejaVuSans-49"/><use x="63.623" xlink:href="#DejaVuSans-54"/><use x="127.246" xlink:href="#DejaVuSans-48"/></g></g><g id="xtick_38"><path clip-path="url(#pc1586b666f)" d="M 546.115565 524.95 L 546.115565 26.88" fill="none" stroke="#b0b0b0" stroke-linecap="square" stroke-width=".8" id="line2d_75"/><use x="546.116" xlink:href="#mfc518bbc66" y="524.95" stroke="#000" stroke-width=".8" id="line2d_76"/><g transform="matrix(0 -.1 -.1 0 548.875 551.038)" id="text_38"><use xlink:href="#DejaVuSans-49"/><use x="63.623" xlink:href="#DejaVuSans-54"/><use x="127.246" xlink:href="#DejaVuSans-52"/></g></g><g id="xtick_39"><path clip-path="url(#pc1586b666f)" d="M 559.503013 524.95 L 559.503013 26.88" fill="none" stroke="#b0b0b0" stroke-linecap="square" stroke-width=".8" id="line2d_77"/><use x="559.503" xlink:href="#mfc518bbc66" y="524.95" stroke="#000" stroke-width=".8" id="line2d_78"/><g transform="matrix(0 -.1 -.1 0 562.262 551.038)" id="text_39"><use xlink:href="#DejaVuSans-49"/><use x="63.623" xlink:href="#DejaVuSans-54"/><use x="127.246" xlink:href="#DejaVuSans-56"/></g></g><g id="xtick_40"><path clip-path="url(#pc1586b666f)" d="M 572.89046 524.95 L 572.89046 26.88" fill="none" stroke="#b0b0b0" stroke-linecap="square" stroke-width=".8" id="line2d_79"/><use x="572.89" xlink:href="#mfc518bbc66" y="524.95" stroke="#000" stroke-width=".8" id="line2d_80"/><g transform="matrix(0 -.1 -.1 0 575.65 551.038)" id="text_40"><use xlink:href="#DejaVuSans-49"/><use x="63.623" xlink:href="#DejaVuSans-55"/><use x="127.246" xlink:href="#DejaVuSans-50"/></g></g><g id="xtick_41"><path clip-path="url(#pc1586b666f)" d="M 586.277908 524.95 L 586.277908 26.88" fill="none" stroke="#b0b0b0" stroke-linecap="square" stroke-width=".8" id="line2d_81"/><use x="586.278" xlink:href="#mfc518bbc66" y="524.95" stroke="#000" stroke-width=".8" id="line2d_82"/><g transform="matrix(0 -.1 -.1 0 589.037 551.038)" id="text_41"><use xlink:href="#DejaVuSans-49"/><use x="63.623" xlink:href="#DejaVuSans-55"/><use x="127.246" xlink:href="#DejaVuSans-54"/></g></g><g id="xtick_42"><path clip-path="url(#pc1586b666f)" d="M 599.665356 524.95 L 599.665356 26.88" fill="none" stroke="#b0b0b0" stroke-linecap="square" stroke-width=".8" id="line2d_83"/><use x="599.665" xlink:href="#mfc518bbc66" y="524.95" stroke="#000" stroke-width=".8" id="line2d_84"/><g transform="matrix(0 -.1 -.1 0 602.425 551.038)" id="text_42"><use xlink:href="#DejaVuSans-49"/><use x="63.623" xlink:href="#DejaVuSans-56"/><use x="127.246" xlink:href="#DejaVuSans-48"/></g></g><g id="xtick_43"><path clip-path="url(#pc1586b666f)" d="M 613.052803 524.95 L 613.052803 26.88" fill="none" stroke="#b0b0b0" stroke-linecap="square" stroke-width=".8" id="line2d_85"/><use x="613.053" xlink:href="#mfc518bbc66" y="524.95" stroke="#000" stroke-width=".8" id="line2d_86"/><g transform="matrix(0 -.1 -.1 0 615.812 551.038)" id="text_43"><use xlink:href="#DejaVuSans-49"/><use x="63.623" xlink:href="#DejaVuSans-56"/><use x="127.246" xlink:href="#DejaVuSans-52"/></g></g><g id="xtick_44"><path clip-path="url(#pc1586b666f)" d="M 626.440251 524.95 L 626.440251 26.88" fill="none" stroke="#b0b0b0" stroke-linecap="square" stroke-width=".8" id="line2d_87"/><use x="626.44" xlink:href="#mfc518bbc66" y="524.95" stroke="#000" stroke-width=".8" id="line2d_88"/><g transform="matrix(0 -.1 -.1 0 629.2 551.038)" id="text_44"><use xlink:href="#DejaVuSans-49"/><use x="63.623" xlink:href="#DejaVuSans-56"/><use x="127.246" xlink:href="#DejaVuSans-56"/></g></g><g id="xtick_45"><path clip-path="url(#pc1586b666f)" d="M 639.827699 524.95 L 639.827699 26.88" fill="none" stroke="#b0b0b0" stroke-linecap="square" stroke-width=".8" id="line2d_89"/><use x="639.828" xlink:href="#mfc518bbc66" y="524.95" stroke="#000" stroke-width=".8" id="line2d_90"/><g transform="matrix(0 -.1 -.1 0 642.587 551.038)" id="text_45"><use xlink:href="#DejaVuSans-49"/><use x="63.623" xlink:href="#DejaVuSans-57"/><use x="127.246" xlink:href="#DejaVuSans-50"/></g></g><g id="xtick_46"><path clip-path="url(#pc1586b666f)" d="M 653.215146 524.95 L 653.215146 26.88" fill="none" stroke="#b0b0b0" stroke-linecap="square" stroke-width=".8" id="line2d_91"/><use x="653.215" xlink:href="#mfc518bbc66" y="524.95" stroke="#000" stroke-width=".8" id="line2d_92"/><g transform="matrix(0 -.1 -.1 0 655.975 551.038)" id="text_46"><use xlink:href="#DejaVuSans-49"/><use x="63.623" xlink:href="#DejaVuSans-57"/><use x="127.246" xlink:href="#DejaVuSans-54"/></g></g><g id="xtick_47"><path clip-path="url(#pc1586b666f)" d="M 666.602594 524.95 L 666.602594 26.88" fill="none" stroke="#b0b0b0" stroke-linecap="square" stroke-width=".8" id="line2d_93"/><use x="666.603" xlink:href="#mfc518bbc66" y="524.95" stroke="#000" stroke-width=".8" id="line2d_94"/><g transform="matrix(0 -.1 -.1 0 669.362 551.038)" id="text_47"><use xlink:href="#DejaVuSans-50"/><use x="63.623" xlink:href="#DejaVuSans-48"/><use x="127.246" xlink:href="#DejaVuSans-48"/></g></g><g id="xtick_48"><path clip-path="url(#pc1586b666f)" d="M 679.990042 524.95 L 679.990042 26.88" fill="none" stroke="#b0b0b0" stroke-linecap="square" stroke-width=".8" id="line2d_95"/><use x="679.99" xlink:href="#mfc518bbc66" y="524.95" stroke="#000" stroke-width=".8" id="line2d_96"/><g transform="matrix(0 -.1 -.1 0 682.75 551.038)" id="text_48"><use xlink:href="#DejaVuSans-50"/><use x="63.623" xlink:href="#DejaVuSans-48"/><use x="127.246" xlink:href="#DejaVuSans-52"/></g></g><g id="xtick_49"><path clip-path="url(#pc1586b666f)" d="M 693.37749 524.95 L 693.37749 26.88" fill="none" stroke="#b0b0b0" stroke-linecap="square" stroke-width=".8" id="line2d_97"/><use x="693.377" xlink:href="#mfc518bbc66" y="524.95" stroke="#000" stroke-width=".8" id="line2d_98"/><g transform="matrix(0 -.1 -.1 0 696.137 551.038)" id="text_49"><use xlink:href="#DejaVuSans-50"/><use x="63.623" xlink:href="#DejaVuSans-48"/><use x="127.246" xlink:href="#DejaVuSans-56"/></g></g><g id="xtick_50"><path clip-path="url(#pc1586b666f)" d="M 706.764937 524.95 L 706.764937 26.88" fill="none" stroke="#b0b0b0" stroke-linecap="square" stroke-width=".8" id="line2d_99"/><use x="706.765" xlink:href="#mfc518bbc66" y="524.95" stroke="#000" stroke-width=".8" id="line2d_100"/><g transform="matrix(0 -.1 -.1 0 709.524 551.038)" id="text_50"><use xlink:href="#DejaVuSans-50"/><use x="63.623" xlink:href="#DejaVuSans-49"/><use x="127.246" xlink:href="#DejaVuSans-50"/></g></g><g id="xtick_51"><path clip-path="url(#pc1586b666f)" d="M 720.152385 524.95 L 720.152385 26.88" fill="none" stroke="#b0b0b0" stroke-linecap="square" stroke-width=".8" id="line2d_101"/><use x="720.152" xlink:href="#mfc518bbc66" y="524.95" stroke="#000" stroke-width=".8" id="line2d_102"/><g transform="matrix(0 -.1 -.1 0 722.912 551.038)" id="text_51"><use xlink:href="#DejaVuSans-50"/><use x="63.623" xlink:href="#DejaVuSans-49"/><use x="127.246" xlink:href="#DejaVuSans-54"/></g></g><g id="xtick_52"><path clip-path="url(#pc1586b666f)" d="M 733.539833 524.95 L 733.539833 26.88" fill="none" stroke="#b0b0b0" stroke-linecap="square" stroke-width=".8" id="line2d_103"/><use x="733.54" xlink:href="#mfc518bbc66" y="524.95" stroke="#000" stroke-width=".8" id="line2d_104"/><g transform="matrix(0 -.1 -.1 0 736.3 551.038)" id="text_52"><use xlink:href="#DejaVuSans-50"/><use x="63.623" xlink:href="#DejaVuSans-50"/><use x="127.246" xlink:href="#DejaVuSans-48"/></g></g><g id="xtick_53"><path clip-path="url(#pc1586b666f)" d="M 746.92728 524.95 L 746.92728 26.88" fill="none" stroke="#b0b0b0" stroke-linecap="square" stroke-width=".8" id="line2d_105"/><use x="746.927" xlink:href="#mfc518bbc66" y="524.95" stroke="#000" stroke-width=".8" id="line2d_106"/><g transform="matrix(0 -.1 -.1 0 749.687 551.038)" id="text_53"><use xlink:href="#DejaVuSans-50"/><use x="63.623" xlink:href="#DejaVuSans-50"/><use x="127.246" xlink:href="#DejaVuSans-52"/></g></g><g id="xtick_54"><path clip-path="url(#pc1586b666f)" d="M 760.314728 524.95 L 760.314728 26.88" fill="none" stroke="#b0b0b0" stroke-linecap="square" stroke-width=".8" id="line2d_107"/><use x="760.315" xlink:href="#mfc518bbc66" y="524.95" stroke="#000" stroke-width=".8" id="line2d_108"/><g transform="matrix(0 -.1 -.1 0 763.074 551.038)" id="text_54"><use xlink:href="#DejaVuSans-50"/><use x="63.623" xlink:href="#DejaVuSans-50"/><use x="127.246" xlink:href="#DejaVuSans-56"/></g></g><g id="xtick_55"><path clip-path="url(#pc1586b666f)" d="M 773.702176 524.95 L 773.702176 26.88" fill="none" stroke="#b0b0b0" stroke-linecap="square" stroke-width=".8" id="line2d_109"/><use x="773.702" xlink:href="#mfc518bbc66" y="524.95" stroke="#000" stroke-width=".8" id="line2d_110"/><g transform="matrix(0 -.1 -.1 0 776.462 551.038)" id="text_55"><use xlink:href="#DejaVuSans-50"/><use x="63.623" xlink:href="#DejaVuSans-51"/><use x="127.246" xlink:href="#DejaVuSans-50"/></g></g><g id="xtick_56"><path clip-path="url(#pc1586b666f)" d="M 787.089623 524.95 L 787.089623 26.88" fill="none" stroke="#b0b0b0" stroke-linecap="square" stroke-width=".8" id="line2d_111"/><use x="787.09" xlink:href="#mfc518bbc66" y="524.95" stroke="#000" stroke-width=".8" id="line2d_112"/><g transform="matrix(0 -.1 -.1 0 789.849 551.038)" id="text_56"><use xlink:href="#DejaVuSans-50"/><use x="63.623" xlink:href="#DejaVuSans-51"/><use x="127.246" xlink:href="#DejaVuSans-54"/></g></g><g id="xtick_57"><path clip-path="url(#pc1586b666f)" d="M 800.477071 524.95 L 800.477071 26.88" fill="none" stroke="#b0b0b0" stroke-linecap="square" stroke-width=".8" id="line2d_113"/><use x="800.477" xlink:href="#mfc518bbc66" y="524.95" stroke="#000" stroke-width=".8" id="line2d_114"/><g transform="matrix(0 -.1 -.1 0 803.236 551.038)" id="text_57"><use xlink:href="#DejaVuSans-50"/><use x="63.623" xlink:href="#DejaVuSans-52"/><use x="127.246" xlink:href="#DejaVuSans-48"/></g></g><g id="xtick_58"><path clip-path="url(#pc1586b666f)" d="M 813.864519 524.95 L 813.864519 26.88" fill="none" stroke="#b0b0b0" stroke-linecap="square" stroke-width=".8" id="line2d_115"/><use x="813.865" xlink:href="#mfc518bbc66" y="524.95" stroke="#000" stroke-width=".8" id="line2d_116"/><g transform="matrix(0 -.1 -.1 0 816.624 551.038)" id="text_58"><use xlink:href="#DejaVuSans-50"/><use x="63.623" xlink:href="#DejaVuSans-52"/><use x="127.246" xlink:href="#DejaVuSans-52"/></g></g><g id="xtick_59"><path clip-path="url(#pc1586b666f)" d="M 827.251967 524.95 L 827.251967 26.88" fill="none" stroke="#b0b0b0" stroke-linecap="square" stroke-width=".8" id="line2d_117"/><use x="827.252" xlink:href="#mfc518bbc66" y="524.95" stroke="#000" stroke-width=".8" id="line2d_118"/><g transform="matrix(0 -.1 -.1 0 830.011 551.038)" id="text_59"><use xlink:href="#DejaVuSans-50"/><use x="63.623" xlink:href="#DejaVuSans-52"/><use x="127.246" xlink:href="#DejaVuSans-56"/></g></g><g id="xtick_60"><path clip-path="url(#pc1586b666f)" d="M 840.639414 524.95 L 840.639414 26.88" fill="none" stroke="#b0b0b0" stroke-linecap="square" stroke-width=".8" id="line2d_119"/><use x="840.639" xlink:href="#mfc518bbc66" y="524.95" stroke="#000" stroke-width=".8" id="line2d_120"/><g transform="matrix(0 -.1 -.1 0 843.399 551.038)" id="text_60"><use xlink:href="#DejaVuSans-50"/><use x="63.623" xlink:href="#DejaVuSans-53"/><use x="127.246" xlink:href="#DejaVuSans-50"/></g></g><g id="text_61"><defs><path d="M 54.890625 33.015625 L 54.890625 0 L 45.90625 0 L 45.90625 32.71875 Q 45.90625 40.484375 42.875 44.328125 Q 39.84375 48.1875 33.796875 48.1875 Q 26.515625 48.1875 22.3125 43.546875 Q 18.109375 38.921875 18.109375 30.90625 L 18.109375 0 L 9.078125 0 L 9.078125 54.6875 L 18.109375 54.6875 L 18.109375 46.1875 Q 21.34375 51.125 25.703125 53.5625 Q 30.078125 56 35.796875 56 Q 45.21875 56 50.046875 50.171875 Q 54.890625 44.34375 54.890625 33.015625 z" id="DejaVuSans-110"/><path d="M 9.8125 72.90625 L 51.703125 72.90625 L 51.703125 64.59375 L 19.671875 64.59375 L 19.671875 43.109375 L 48.578125 43.109375 L 48.578125 34.8125 L 19.671875 34.8125 L 19.671875 0 L 9.8125 0 z" id="DejaVuSans-70"/><path d="M 9.421875 75.984375 L 18.40625 75.984375 L 18.40625 0 L 9.421875 0 z" id="DejaVuSans-108"/><path d="M 56.203125 29.59375 L 56.203125 25.203125 L 14.890625 25.203125 Q 15.484375 15.921875 20.484375 11.0625 Q 25.484375 6.203125 34.421875 6.203125 Q 39.59375 6.203125 44.453125 7.46875 Q 49.3125 8.734375 54.109375 11.28125 L 54.109375 2.78125 Q 49.265625 0.734375 44.1875 -0.34375 Q 39.109375 -1.421875 33.890625 -1.421875 Q 20.796875 -1.421875 13.15625 6.1875 Q 5.515625 13.8125 5.515625 26.8125 Q 5.515625 40.234375 12.765625 48.109375 Q 20.015625 56 32.328125 56 Q 43.359375 56 49.78125 48.890625 Q 56.203125 41.796875 56.203125 29.59375 z M 47.21875 32.234375 Q 47.125 39.59375 43.09375 43.984375 Q 39.0625 48.390625 32.421875 48.390625 Q 24.90625 48.390625 20.390625 44.140625 Q 15.875 39.890625 15.1875 32.171875 z" id="DejaVuSans-101"/><path d="M 41.109375 46.296875 Q 39.59375 47.171875 37.8125 47.578125 Q 36.03125 48 33.890625 48 Q 26.265625 48 22.1875 43.046875 Q 18.109375 38.09375 18.109375 28.8125 L 18.109375 0 L 9.078125 0 L 9.078125 54.6875 L 18.109375 54.6875 L 18.109375 46.1875 Q 20.953125 51.171875 25.484375 53.578125 Q 30.03125 56 36.53125 56 Q 37.453125 56 38.578125 55.875 Q 39.703125 55.765625 41.0625 55.515625 z" id="DejaVuSans-114"/><path d="M 9.8125 72.90625 L 19.671875 72.90625 L 19.671875 0 L 9.8125 0 z" id="DejaVuSans-73"/><path d="M 9.421875 54.6875 L 18.40625 54.6875 L 18.40625 0 L 9.421875 0 z M 9.421875 75.984375 L 18.40625 75.984375 L 18.40625 64.59375 L 9.421875 64.59375 z" id="DejaVuSans-105"/><path d="M 44.28125 53.078125 L 44.28125 44.578125 Q 40.484375 46.53125 36.375 47.5 Q 32.28125 48.484375 27.875 48.484375 Q 21.1875 48.484375 17.84375 46.4375 Q 14.5 44.390625 14.5 40.28125 Q 14.5 37.15625 16.890625 35.375 Q 19.28125 33.59375 26.515625 31.984375 L 29.59375 31.296875 Q 39.15625 29.25 43.1875 25.515625 Q 47.21875 21.78125 47.21875 15.09375 Q 47.21875 7.46875 41.1875 3.015625 Q 35.15625 -1.421875 24.609375 -1.421875 Q 20.21875 -1.421875 15.453125 -0.5625 Q 10.6875 0.296875 5.421875 2 L 5.421875 11.28125 Q 10.40625 8.6875 15.234375 7.390625 Q 20.0625 6.109375 24.8125 6.109375 Q 31.15625 6.109375 34.5625 8.28125 Q 37.984375 10.453125 37.984375 14.40625 Q 37.984375 18.0625 35.515625 20.015625 Q 33.0625 21.96875 24.703125 23.78125 L 21.578125 24.515625 Q 13.234375 26.265625 9.515625 29.90625 Q 5.8125 33.546875 5.8125 39.890625 Q 5.8125 47.609375 11.28125 51.796875 Q 16.75 56 26.8125 56 Q 31.78125 56 36.171875 55.265625 Q 40.578125 54.546875 44.28125 53.078125 z" id="DejaVuSans-115"/><path d="M 18.3125 70.21875 L 18.3125 54.6875 L 36.8125 54.6875 L 36.8125 47.703125 L 18.3125 47.703125 L 18.3125 18.015625 Q 18.3125 11.328125 20.140625 9.421875 Q 21.96875 7.515625 27.59375 7.515625 L 36.8125 7.515625 L 36.8125 0 L 27.59375 0 Q 17.1875 0 13.234375 3.875 Q 9.28125 7.765625 9.28125 18.015625 L 9.28125 47.703125 L 2.6875 47.703125 L 2.6875 54.6875 L 9.28125 54.6875 L 9.28125 70.21875 z" id="DejaVuSans-116"/><path d="M 8.5 21.578125 L 8.5 54.6875 L 17.484375 54.6875 L 17.484375 21.921875 Q 17.484375 14.15625 20.5 10.265625 Q 23.53125 6.390625 29.59375 6.390625 Q 36.859375 6.390625 41.078125 11.03125 Q 45.3125 15.671875 45.3125 23.6875 L 45.3125 54.6875 L 54.296875 54.6875 L 54.296875 0 L 45.3125 0 L 45.3125 8.40625 Q 42.046875 3.421875 37.71875 1 Q 33.40625 -1.421875 27.6875 -1.421875 Q 18.265625 -1.421875 13.375 4.4375 Q 8.5 10.296875 8.5 21.578125 z M 31.109375 56 z" id="DejaVuSans-117"/><path d="M 48.78125 52.59375 L 48.78125 44.1875 Q 44.96875 46.296875 41.140625 47.34375 Q 37.3125 48.390625 33.40625 48.390625 Q 24.65625 48.390625 19.8125 42.84375 Q 14.984375 37.3125 14.984375 27.296875 Q 14.984375 17.28125 19.8125 11.734375 Q 24.65625 6.203125 33.40625 6.203125 Q 37.3125 6.203125 41.140625 7.25 Q 44.96875 8.296875 48.78125 10.40625 L 48.78125 2.09375 Q 45.015625 0.34375 40.984375 -0.53125 Q 36.96875 -1.421875 32.421875 -1.421875 Q 20.0625 -1.421875 12.78125 6.34375 Q 5.515625 14.109375 5.515625 27.296875 Q 5.515625 40.671875 12.859375 48.328125 Q 20.21875 56 33.015625 56 Q 37.15625 56 41.109375 55.140625 Q 45.0625 54.296875 48.78125 52.59375 z" id="DejaVuSans-99"/><path d="M 30.609375 48.390625 Q 23.390625 48.390625 19.1875 42.75 Q 14.984375 37.109375 14.984375 27.296875 Q 14.984375 17.484375 19.15625 11.84375 Q 23.34375 6.203125 30.609375 6.203125 Q 37.796875 6.203125 41.984375 11.859375 Q 46.1875 17.53125 46.1875 27.296875 Q 46.1875 37.015625 41.984375 42.703125 Q 37.796875 48.390625 30.609375 48.390625 z M 30.609375 56 Q 42.328125 56 49.015625 48.375 Q 55.71875 40.765625 55.71875 27.296875 Q 55.71875 13.875 49.015625 6.21875 Q 42.328125 -1.421875 30.609375 -1.421875 Q 18.84375 -1.421875 12.171875 6.21875 Q 5.515625 13.875 5.515625 27.296875 Q 5.515625 40.765625 12.171875 48.375 Q 18.84375 56 30.609375 56 z" id="DejaVuSans-111"/></defs><g transform="matrix(.1 0 0 -.1 407.607 562.636)"><use xlink:href="#DejaVuSans-70"/><use x="57.41" xlink:href="#DejaVuSans-105"/><use x="85.193" xlink:href="#DejaVuSans-108"/><use x="112.977" xlink:href="#DejaVuSans-108"/><use x="140.76" xlink:href="#DejaVuSans-101"/><use x="202.283" xlink:href="#DejaVuSans-114"/><use x="243.396" xlink:href="#DejaVuSans-32"/><use x="275.184" xlink:href="#DejaVuSans-73"/><use x="304.676" xlink:href="#DejaVuSans-110"/><use x="368.055" xlink:href="#DejaVuSans-115"/><use x="420.154" xlink:href="#DejaVuSans-116"/><use x="459.363" xlink:href="#DejaVuSans-114"/><use x="500.477" xlink:href="#DejaVuSans-117"/><use x="563.855" xlink:href="#DejaVuSans-99"/><use x="618.836" xlink:href="#DejaVuSans-116"/><use x="658.045" xlink:href="#DejaVuSans-105"/><use x="685.828" xlink:href="#DejaVuSans-111"/><use x="747.01" xlink:href="#DejaVuSans-110"/><use x="810.389" xlink:href="#DejaVuSans-115"/></g></g></g><g id="matplotlib.axis_2"><g id="ytick_1"><path clip-path="url(#pc1586b666f)" d="M 50.78 474.558828 L 850.68 474.558828" fill="none" stroke="#b0b0b0" stroke-linecap="square" stroke-width=".8" id="line2d_121"/><g id="line2d_122"><defs><path d="M 0 0 L -3.5 0" id="m3a24eacd0e" stroke="#000" stroke-width=".8"/></defs><use x="50.78" xlink:href="#m3a24eacd0e" y="474.559" stroke="#000" stroke-width=".8"/></g><g transform="matrix(.1 0 0 -.1 24.692 478.358)" id="text_62"><use xlink:href="#DejaVuSans-50"/><use x="63.623" xlink:href="#DejaVuSans-48"/><use x="127.246" xlink:href="#DejaVuSans-48"/></g></g><g id="ytick_2"><path clip-path="url(#pc1586b666f)" d="M 50.78 416.74294 L 850.68 416.74294" fill="none" stroke="#b0b0b0" stroke-linecap="square" stroke-width=".8" id="line2d_123"/><use x="50.78" xlink:href="#m3a24eacd0e" y="416.743" stroke="#000" stroke-width=".8" id="line2d_124"/><g transform="matrix(.1 0 0 -.1 24.692 420.542)" id="text_63"><use xlink:href="#DejaVuSans-50"/><use x="63.623" xlink:href="#DejaVuSans-50"/><use x="127.246" xlink:href="#DejaVuSans-53"/></g></g><g id="ytick_3"><path clip-path="url(#pc1586b666f)" d="M 50.78 358.927052 L 850.68 358.927052" fill="none" stroke="#b0b0b0" stroke-linecap="square" stroke-width=".8" id="line2d_125"/><use x="50.78" xlink:href="#m3a24eacd0e" y="358.927" stroke="#000" stroke-width=".8" id="line2d_126"/><g transform="matrix(.1 0 0 -.1 24.692 362.726)" id="text_64"><use xlink:href="#DejaVuSans-50"/><use x="63.623" xlink:href="#DejaVuSans-53"/><use x="127.246" xlink:href="#DejaVuSans-48"/></g></g><g id="ytick_4"><path clip-path="url(#pc1586b666f)" d="M 50.78 301.111164 L 850.68 301.111164" fill="none" stroke="#b0b0b0" stroke-linecap="square" stroke-width=".8" id="line2d_127"/><use x="50.78" xlink:href="#m3a24eacd0e" y="301.111" stroke="#000" stroke-width=".8" id="line2d_128"/><g transform="matrix(.1 0 0 -.1 24.692 304.91)" id="text_65"><use xlink:href="#DejaVuSans-50"/><use x="63.623" xlink:href="#DejaVuSans-55"/><use x="127.246" xlink:href="#DejaVuSans-53"/></g></g><g id="ytick_5"><path clip-path="url(#pc1586b666f)" d="M 50.78 243.295276 L 850.68 243.295276" fill="none" stroke="#b0b0b0" stroke-linecap="square" stroke-width=".8" id="line2d_129"/><use x="50.78" xlink:href="#m3a24eacd0e" y="243.295" stroke="#000" stroke-width=".8" id="line2d_130"/><g transform="matrix(.1 0 0 -.1 24.692 247.094)" id="text_66"><use xlink:href="#DejaVuSans-51"/><use x="63.623" xlink:href="#DejaVuSans-48"/><use x="127.246" xlink:href="#DejaVuSans-48"/></g></g><g id="ytick_6"><path clip-path="url(#pc1586b666f)" d="M 50.78 185.479388 L 850.68 185.479388" fill="none" stroke="#b0b0b0" stroke-linecap="square" stroke-width=".8" id="line2d_131"/><use x="50.78" xlink:href="#m3a24eacd0e" y="185.479" stroke="#000" stroke-width=".8" id="line2d_132"/><g transform="matrix(.1 0 0 -.1 24.692 189.279)" id="text_67"><use xlink:href="#DejaVuSans-51"/><use x="63.623" xlink:href="#DejaVuSans-50"/><use x="127.246" xlink:href="#DejaVuSans-53"/></g></g><g id="ytick_7"><path clip-path="url(#pc1586b666f)" d="M 50.78 127.6635 L 850.68 127.6635" fill="none" stroke="#b0b0b0" stroke-linecap="square" stroke-width=".8" id="line2d_133"/><use x="50.78" xlink:href="#m3a24eacd0e" y="127.663" stroke="#000" stroke-width=".8" id="line2d_134"/><g transform="matrix(.1 0 0 -.1 24.692 131.463)" id="text_68"><use xlink:href="#DejaVuSans-51"/><use x="63.623" xlink:href="#DejaVuSans-53"/><use x="127.246" xlink:href="#DejaVuSans-48"/></g></g><g id="ytick_8"><path clip-path="url(#pc1586b666f)" d="M 50.78 69.847612 L 850.68 69.847612" fill="none" stroke="#b0b0b0" stroke-linecap="square" stroke-width=".8" id="line2d_135"/><use x="50.78" xlink:href="#m3a24eacd0e" y="69.848" stroke="#000" stroke-width=".8" id="line2d_136"/><g transform="matrix(.1 0 0 -.1 24.692 73.647)" id="text_69"><use xlink:href="#DejaVuSans-51"/><use x="63.623" xlink:href="#DejaVuSans-55"/><use x="127.246" xlink:href="#DejaVuSans-53"/></g></g><g id="text_70"><defs><path d="M 64.40625 67.28125 L 64.40625 56.890625 Q 59.421875 61.53125 53.78125 63.8125 Q 48.140625 66.109375 41.796875 66.109375 Q 29.296875 66.109375 22.65625 58.46875 Q 16.015625 50.828125 16.015625 36.375 Q 16.015625 21.96875 22.65625 14.328125 Q 29.296875 6.6875 41.796875 6.6875 Q 48.140625 6.6875 53.78125 8.984375 Q 59.421875 11.28125 64.40625 15.921875 L 64.40625 5.609375 Q 59.234375 2.09375 53.4375 0.328125 Q 47.65625 -1.421875 41.21875 -1.421875 Q 24.65625 -1.421875 15.125 8.703125 Q 5.609375 18.84375 5.609375 36.375 Q 5.609375 53.953125 15.125 64.078125 Q 24.65625 74.21875 41.21875 74.21875 Q 47.75 74.21875 53.53125 72.484375 Q 59.328125 70.75 64.40625 67.28125 z" id="DejaVuSans-67"/><path d="M 32.171875 -5.078125 Q 28.375 -14.84375 24.75 -17.8125 Q 21.140625 -20.796875 15.09375 -20.796875 L 7.90625 -20.796875 L 7.90625 -13.28125 L 13.1875 -13.28125 Q 16.890625 -13.28125 18.9375 -11.515625 Q 21 -9.765625 23.484375 -3.21875 L 25.09375 0.875 L 2.984375 54.6875 L 12.5 54.6875 L 29.59375 11.921875 L 46.6875 54.6875 L 56.203125 54.6875 z" id="DejaVuSans-121"/></defs><g transform="matrix(0 -.1 -.1 0 18.613 292.185)"><use xlink:href="#DejaVuSans-67"/><use x="69.824" xlink:href="#DejaVuSans-121"/><use x="129.004" xlink:href="#DejaVuSans-99"/><use x="183.984" xlink:href="#DejaVuSans-108"/><use x="211.768" xlink:href="#DejaVuSans-101"/><use x="273.291" xlink:href="#DejaVuSans-115"/></g></g></g><g id="line2d_137"><path clip-path="url(#pc1586b666f)" d="M 50.78 501.154137 L 54.126862 501.316021 L 60.820586 501.015379 L 64.167448 502.171696 L 67.51431 502.310455 L 70.861172 502.14857 L 74.208033 502.194823 L 77.554895 502.009812 L 80.901757 501.686043 L 84.248619 501.107884 L 90.942343 501.246642 L 94.289205 500.43722 L 100.982929 500.43722 L 104.329791 500.622231 L 107.676653 499.67405 L 111.023515 499.234649 L 114.370377 498.934007 L 117.717238 499.465913 L 121.0641 499.350281 L 124.410962 499.558418 L 131.104686 501.547285 L 134.451548 500.784115 L 137.79841 500.599104 L 141.145272 500.714736 L 144.492134 500.69161 L 147.838996 499.766555 L 151.185858 496.366981 L 154.53272 496.18197 L 161.226444 497.731436 L 164.573305 497.939573 L 167.920167 497.777689 L 171.267029 497.870194 L 174.613891 497.477046 L 177.960753 497.292035 L 181.307615 496.112591 L 188.001339 496.112591 L 191.348201 495.511306 L 194.695063 495.303169 L 198.041925 495.511306 L 201.388787 495.395674 L 204.735649 495.025653 L 208.08251 493.684324 L 211.429372 493.429934 L 214.776234 493.429934 L 221.469958 494.100598 L 224.81682 493.846209 L 228.163682 493.869335 L 231.510544 493.499313 L 234.857406 493.337429 L 241.55113 493.383681 L 248.244854 492.342995 L 251.591715 492.366122 L 254.938577 492.065479 L 258.285439 490.631645 L 261.632301 489.937854 L 264.979163 490.145992 L 268.326025 488.827789 L 275.019749 486.399522 L 278.366611 486.353269 L 281.713473 485.636352 L 285.060335 486.515154 L 288.407197 486.445775 L 291.754059 483.693739 L 295.100921 484.803804 L 298.447782 484.341277 L 301.794644 483.184959 L 305.141506 481.751125 L 308.488368 482.051767 L 311.83523 478.16654 L 315.182092 477.426496 L 318.528954 477.565254 L 325.222678 474.67446 L 328.56954 474.16568 L 331.916402 474.350691 L 335.263264 472.338698 L 338.610126 471.043622 L 341.956987 469.124135 L 345.303849 469.447904 L 348.650711 468.430344 L 351.997573 467.551543 L 355.344435 465.724561 L 358.691297 466.279593 L 362.038159 465.423918 L 365.385021 464.198221 L 368.731883 462.440618 L 372.078745 462.648755 L 375.425607 461.561817 L 378.772469 460.197362 L 382.119331 458.55539 L 385.466192 458.647896 L 392.159916 456.497145 L 395.506778 454.808921 L 398.85364 454.554531 L 402.200502 454.577657 L 405.547364 453.444466 L 408.894226 451.524978 L 412.241088 451.756242 L 418.934812 449.767375 L 422.281674 447.339108 L 425.628536 447.940393 L 428.975397 446.922834 L 432.322259 423.750226 L 435.669121 412.04829 L 439.015983 362.835406 L 442.362845 316.374558 L 445.709707 221.325238 L 449.056569 140.197984 L 452.403431 146.650237 L 455.750293 140.637385 L 459.097155 139.249804 L 462.444017 138.602266 L 465.790879 139.111046 L 469.137741 142.094345 L 472.484603 141.099912 L 475.831464 138.139739 L 482.525188 138.301623 L 485.87205 140.614259 L 489.218912 140.660511 L 492.565774 140.267363 L 495.912636 141.169291 L 499.259498 139.989847 L 502.60636 141.562439 L 505.953222 141.007407 L 509.300084 141.400555 L 512.646946 140.221111 L 515.993808 140.012973 L 519.340669 139.920468 L 522.687531 140.521753 L 526.034393 139.52732 L 529.381255 139.411688 L 532.728117 138.902908 L 536.074979 139.342309 L 539.421841 134.000121 L 542.768703 134.0695 L 546.115565 136.012114 L 549.462427 136.567147 L 552.809289 136.220251 L 556.156151 136.127746 L 559.503013 135.040807 L 562.849874 135.78085 L 566.196736 134.601406 L 569.543598 135.873356 L 572.89046 135.040807 L 576.237322 135.688345 L 579.584184 134.740164 L 582.931046 134.624533 L 586.277908 133.884489 L 589.62477 134.624533 L 592.971632 134.254511 L 596.318494 135.156439 L 599.665356 131.248085 L 603.012218 132.496908 L 606.359079 133.329457 L 609.705941 132.196265 L 613.052803 131.409969 L 616.399665 131.84937 L 619.746527 130.091767 L 623.093389 129.351724 L 626.440251 130.230525 L 629.787113 128.704186 L 633.133975 127.802258 L 636.480837 123.454503 L 639.827699 127.478489 L 643.174561 125.258359 L 646.521423 122.575702 L 649.868285 122.020669 L 653.215146 121.997543 L 656.562008 122.922597 L 659.90887 117.857925 L 663.255732 119.083622 L 666.602594 119.338012 L 669.949456 121.234373 L 673.296318 119.47677 L 676.64318 118.343579 L 679.990042 118.759853 L 683.336904 117.141008 L 686.683766 115.845932 L 690.030628 113.047643 L 693.37749 114.412098 L 696.724351 111.613809 L 700.071213 110.08747 L 703.418075 109.116163 L 706.764937 113.25578 L 710.111799 112.05321 L 713.458661 108.607383 L 716.805523 109.139289 L 720.152385 108.052351 L 723.499247 107.821087 L 726.846109 110.411239 L 730.192971 110.226228 L 733.539833 107.150423 L 736.886695 103.750848 L 740.233556 97.576112 L 743.580418 99.264336 L 746.92728 95.448487 L 750.274142 97.321722 L 753.621004 94.500306 L 756.967866 97.113585 L 760.314728 93.066472 L 763.66159 94.592812 L 767.008452 89.78253 L 770.355314 91.979534 L 773.702176 89.736277 L 777.049038 90.915721 L 780.3959 89.296876 L 783.742762 88.76497 L 787.089623 87.724284 L 790.436485 84.902869 L 793.783347 82.821497 L 797.130209 80.231345 L 800.477071 81.179526 L 803.823933 77.988089 L 807.170795 75.814211 L 810.517657 77.248045 L 813.864519 78.034341 L 817.211381 73.732839 L 823.905105 70.194507 L 827.251967 73.131554 L 830.598828 68.668168 L 833.94569 66.633048 L 837.292552 65.014203 L 840.639414 65.684868 L 843.986276 62.030904 L 847.333138 56.295568 L 850.68 52.572224 L 850.68 52.572224" fill="none" stroke="#1f77b4" stroke-linecap="square" stroke-width="1.5"/><defs><path d="M 0 1.5 C 0.397805 1.5 0.77937 1.341951 1.06066 1.06066 C 1.341951 0.77937 1.5 0.397805 1.5 0 C 1.5 -0.397805 1.341951 -0.77937 1.06066 -1.06066 C 0.77937 -1.341951 0.397805 -1.5 0 -1.5 C -0.397805 -1.5 -0.77937 -1.341951 -1.06066 -1.06066 C -1.341951 -0.77937 -1.5 -0.397805 -1.5 0 C -1.5 0.397805 -1.341951 0.77937 -1.06066 1.06066 C -0.77937 1.341951 -0.397805 1.5 0 1.5 z" id="mfd23d3c377" stroke="#1f77b4"/></defs><g clip-path="url(#pc1586b666f)" fill="#1f77b4" stroke="#1f77b4"><use x="50.78" xlink:href="#mfd23d3c377" y="501.154"/><use x="54.127" xlink:href="#mfd23d3c377" y="501.316"/><use x="57.474" xlink:href="#mfd23d3c377" y="501.177"/><use x="60.821" xlink:href="#mfd23d3c377" y="501.015"/><use x="64.167" xlink:href="#mfd23d3c377" y="502.172"/><use x="67.514" xlink:href="#mfd23d3c377" y="502.31"/><use x="70.861" xlink:href="#mfd23d3c377" y="502.149"/><use x="74.208" xlink:href="#mfd23d3c377" y="502.195"/><use x="77.555" xlink:href="#mfd23d3c377" y="502.01"/><use x="80.902" xlink:href="#mfd23d3c377" y="501.686"/><use x="84.249" xlink:href="#mfd23d3c377" y="501.108"/><use x="87.595" xlink:href="#mfd23d3c377" y="501.2"/><use x="90.942" xlink:href="#mfd23d3c377" y="501.247"/><use x="94.289" xlink:href="#mfd23d3c377" y="500.437"/><use x="97.636" xlink:href="#mfd23d3c377" y="500.414"/><use x="100.983" xlink:href="#mfd23d3c377" y="500.437"/><use x="104.33" xlink:href="#mfd23d3c377" y="500.622"/><use x="107.677" xlink:href="#mfd23d3c377" y="499.674"/><use x="111.024" xlink:href="#mfd23d3c377" y="499.235"/><use x="114.37" xlink:href="#mfd23d3c377" y="498.934"/><use x="117.717" xlink:href="#mfd23d3c377" y="499.466"/><use x="121.064" xlink:href="#mfd23d3c377" y="499.35"/><use x="124.411" xlink:href="#mfd23d3c377" y="499.558"/><use x="127.758" xlink:href="#mfd23d3c377" y="500.599"/><use x="131.105" xlink:href="#mfd23d3c377" y="501.547"/><use x="134.452" xlink:href="#mfd23d3c377" y="500.784"/><use x="137.798" xlink:href="#mfd23d3c377" y="500.599"/><use x="141.145" xlink:href="#mfd23d3c377" y="500.715"/><use x="144.492" xlink:href="#mfd23d3c377" y="500.692"/><use x="147.839" xlink:href="#mfd23d3c377" y="499.767"/><use x="151.186" xlink:href="#mfd23d3c377" y="496.367"/><use x="154.533" xlink:href="#mfd23d3c377" y="496.182"/><use x="157.88" xlink:href="#mfd23d3c377" y="496.968"/><use x="161.226" xlink:href="#mfd23d3c377" y="497.731"/><use x="164.573" xlink:href="#mfd23d3c377" y="497.94"/><use x="167.92" xlink:href="#mfd23d3c377" y="497.778"/><use x="171.267" xlink:href="#mfd23d3c377" y="497.87"/><use x="174.614" xlink:href="#mfd23d3c377" y="497.477"/><use x="177.961" xlink:href="#mfd23d3c377" y="497.292"/><use x="181.308" xlink:href="#mfd23d3c377" y="496.113"/><use x="184.654" xlink:href="#mfd23d3c377" y="496.136"/><use x="188.001" xlink:href="#mfd23d3c377" y="496.113"/><use x="191.348" xlink:href="#mfd23d3c377" y="495.511"/><use x="194.695" xlink:href="#mfd23d3c377" y="495.303"/><use x="198.042" xlink:href="#mfd23d3c377" y="495.511"/><use x="201.389" xlink:href="#mfd23d3c377" y="495.396"/><use x="204.736" xlink:href="#mfd23d3c377" y="495.026"/><use x="208.083" xlink:href="#mfd23d3c377" y="493.684"/><use x="211.429" xlink:href="#mfd23d3c377" y="493.43"/><use x="214.776" xlink:href="#mfd23d3c377" y="493.43"/><use x="218.123" xlink:href="#mfd23d3c377" y="493.731"/><use x="221.47" xlink:href="#mfd23d3c377" y="494.101"/><use x="224.817" xlink:href="#mfd23d3c377" y="493.846"/><use x="228.164" xlink:href="#mfd23d3c377" y="493.869"/><use x="231.511" xlink:href="#mfd23d3c377" y="493.499"/><use x="234.857" xlink:href="#mfd23d3c377" y="493.337"/><use x="238.204" xlink:href="#mfd23d3c377" y="493.384"/><use x="241.551" xlink:href="#mfd23d3c377" y="493.384"/><use x="244.898" xlink:href="#mfd23d3c377" y="492.898"/><use x="248.245" xlink:href="#mfd23d3c377" y="492.343"/><use x="251.592" xlink:href="#mfd23d3c377" y="492.366"/><use x="254.939" xlink:href="#mfd23d3c377" y="492.065"/><use x="258.285" xlink:href="#mfd23d3c377" y="490.632"/><use x="261.632" xlink:href="#mfd23d3c377" y="489.938"/><use x="264.979" xlink:href="#mfd23d3c377" y="490.146"/><use x="268.326" xlink:href="#mfd23d3c377" y="488.828"/><use x="271.673" xlink:href="#mfd23d3c377" y="487.671"/><use x="275.02" xlink:href="#mfd23d3c377" y="486.4"/><use x="278.367" xlink:href="#mfd23d3c377" y="486.353"/><use x="281.713" xlink:href="#mfd23d3c377" y="485.636"/><use x="285.06" xlink:href="#mfd23d3c377" y="486.515"/><use x="288.407" xlink:href="#mfd23d3c377" y="486.446"/><use x="291.754" xlink:href="#mfd23d3c377" y="483.694"/><use x="295.101" xlink:href="#mfd23d3c377" y="484.804"/><use x="298.448" xlink:href="#mfd23d3c377" y="484.341"/><use x="301.795" xlink:href="#mfd23d3c377" y="483.185"/><use x="305.142" xlink:href="#mfd23d3c377" y="481.751"/><use x="308.488" xlink:href="#mfd23d3c377" y="482.052"/><use x="311.835" xlink:href="#mfd23d3c377" y="478.167"/><use x="315.182" xlink:href="#mfd23d3c377" y="477.426"/><use x="318.529" xlink:href="#mfd23d3c377" y="477.565"/><use x="321.876" xlink:href="#mfd23d3c377" y="476.131"/><use x="325.223" xlink:href="#mfd23d3c377" y="474.674"/><use x="328.57" xlink:href="#mfd23d3c377" y="474.166"/><use x="331.916" xlink:href="#mfd23d3c377" y="474.351"/><use x="335.263" xlink:href="#mfd23d3c377" y="472.339"/><use x="338.61" xlink:href="#mfd23d3c377" y="471.044"/><use x="341.957" xlink:href="#mfd23d3c377" y="469.124"/><use x="345.304" xlink:href="#mfd23d3c377" y="469.448"/><use x="348.651" xlink:href="#mfd23d3c377" y="468.43"/><use x="351.998" xlink:href="#mfd23d3c377" y="467.552"/><use x="355.344" xlink:href="#mfd23d3c377" y="465.725"/><use x="358.691" xlink:href="#mfd23d3c377" y="466.28"/><use x="362.038" xlink:href="#mfd23d3c377" y="465.424"/><use x="365.385" xlink:href="#mfd23d3c377" y="464.198"/><use x="368.732" xlink:href="#mfd23d3c377" y="462.441"/><use x="372.079" xlink:href="#mfd23d3c377" y="462.649"/><use x="375.426" xlink:href="#mfd23d3c377" y="461.562"/><use x="378.772" xlink:href="#mfd23d3c377" y="460.197"/><use x="382.119" xlink:href="#mfd23d3c377" y="458.555"/><use x="385.466" xlink:href="#mfd23d3c377" y="458.648"/><use x="388.813" xlink:href="#mfd23d3c377" y="457.607"/><use x="392.16" xlink:href="#mfd23d3c377" y="456.497"/><use x="395.507" xlink:href="#mfd23d3c377" y="454.809"/><use x="398.854" xlink:href="#mfd23d3c377" y="454.555"/><use x="402.201" xlink:href="#mfd23d3c377" y="454.578"/><use x="405.547" xlink:href="#mfd23d3c377" y="453.444"/><use x="408.894" xlink:href="#mfd23d3c377" y="451.525"/><use x="412.241" xlink:href="#mfd23d3c377" y="451.756"/><use x="415.588" xlink:href="#mfd23d3c377" y="450.808"/><use x="418.935" xlink:href="#mfd23d3c377" y="449.767"/><use x="422.282" xlink:href="#mfd23d3c377" y="447.339"/><use x="425.629" xlink:href="#mfd23d3c377" y="447.94"/><use x="428.975" xlink:href="#mfd23d3c377" y="446.923"/><use x="432.322" xlink:href="#mfd23d3c377" y="423.75"/><use x="435.669" xlink:href="#mfd23d3c377" y="412.048"/><use x="439.016" xlink:href="#mfd23d3c377" y="362.835"/><use x="442.363" xlink:href="#mfd23d3c377" y="316.375"/><use x="445.71" xlink:href="#mfd23d3c377" y="221.325"/><use x="449.057" xlink:href="#mfd23d3c377" y="140.198"/><use x="452.403" xlink:href="#mfd23d3c377" y="146.65"/><use x="455.75" xlink:href="#mfd23d3c377" y="140.637"/><use x="459.097" xlink:href="#mfd23d3c377" y="139.25"/><use x="462.444" xlink:href="#mfd23d3c377" y="138.602"/><use x="465.791" xlink:href="#mfd23d3c377" y="139.111"/><use x="469.138" xlink:href="#mfd23d3c377" y="142.094"/><use x="472.485" xlink:href="#mfd23d3c377" y="141.1"/><use x="475.831" xlink:href="#mfd23d3c377" y="138.14"/><use x="479.178" xlink:href="#mfd23d3c377" y="138.232"/><use x="482.525" xlink:href="#mfd23d3c377" y="138.302"/><use x="485.872" xlink:href="#mfd23d3c377" y="140.614"/><use x="489.219" xlink:href="#mfd23d3c377" y="140.661"/><use x="492.566" xlink:href="#mfd23d3c377" y="140.267"/><use x="495.913" xlink:href="#mfd23d3c377" y="141.169"/><use x="499.259" xlink:href="#mfd23d3c377" y="139.99"/><use x="502.606" xlink:href="#mfd23d3c377" y="141.562"/><use x="505.953" xlink:href="#mfd23d3c377" y="141.007"/><use x="509.3" xlink:href="#mfd23d3c377" y="141.401"/><use x="512.647" xlink:href="#mfd23d3c377" y="140.221"/><use x="515.994" xlink:href="#mfd23d3c377" y="140.013"/><use x="519.341" xlink:href="#mfd23d3c377" y="139.92"/><use x="522.688" xlink:href="#mfd23d3c377" y="140.522"/><use x="526.034" xlink:href="#mfd23d3c377" y="139.527"/><use x="529.381" xlink:href="#mfd23d3c377" y="139.412"/><use x="532.728" xlink:href="#mfd23d3c377" y="138.903"/><use x="536.075" xlink:href="#mfd23d3c377" y="139.342"/><use x="539.422" xlink:href="#mfd23d3c377" y="134"/><use x="542.769" xlink:href="#mfd23d3c377" y="134.07"/><use x="546.116" xlink:href="#mfd23d3c377" y="136.012"/><use x="549.462" xlink:href="#mfd23d3c377" y="136.567"/><use x="552.809" xlink:href="#mfd23d3c377" y="136.22"/><use x="556.156" xlink:href="#mfd23d3c377" y="136.128"/><use x="559.503" xlink:href="#mfd23d3c377" y="135.041"/><use x="562.85" xlink:href="#mfd23d3c377" y="135.781"/><use x="566.197" xlink:href="#mfd23d3c377" y="134.601"/><use x="569.544" xlink:href="#mfd23d3c377" y="135.873"/><use x="572.89" xlink:href="#mfd23d3c377" y="135.041"/><use x="576.237" xlink:href="#mfd23d3c377" y="135.688"/><use x="579.584" xlink:href="#mfd23d3c377" y="134.74"/><use x="582.931" xlink:href="#mfd23d3c377" y="134.625"/><use x="586.278" xlink:href="#mfd23d3c377" y="133.884"/><use x="589.625" xlink:href="#mfd23d3c377" y="134.625"/><use x="592.972" xlink:href="#mfd23d3c377" y="134.255"/><use x="596.318" xlink:href="#mfd23d3c377" y="135.156"/><use x="599.665" xlink:href="#mfd23d3c377" y="131.248"/><use x="603.012" xlink:href="#mfd23d3c377" y="132.497"/><use x="606.359" xlink:href="#mfd23d3c377" y="133.329"/><use x="609.706" xlink:href="#mfd23d3c377" y="132.196"/><use x="613.053" xlink:href="#mfd23d3c377" y="131.41"/><use x="616.4" xlink:href="#mfd23d3c377" y="131.849"/><use x="619.747" xlink:href="#mfd23d3c377" y="130.092"/><use x="623.093" xlink:href="#mfd23d3c377" y="129.352"/><use x="626.44" xlink:href="#mfd23d3c377" y="130.231"/><use x="629.787" xlink:href="#mfd23d3c377" y="128.704"/><use x="633.134" xlink:href="#mfd23d3c377" y="127.802"/><use x="636.481" xlink:href="#mfd23d3c377" y="123.455"/><use x="639.828" xlink:href="#mfd23d3c377" y="127.478"/><use x="643.175" xlink:href="#mfd23d3c377" y="125.258"/><use x="646.521" xlink:href="#mfd23d3c377" y="122.576"/><use x="649.868" xlink:href="#mfd23d3c377" y="122.021"/><use x="653.215" xlink:href="#mfd23d3c377" y="121.998"/><use x="656.562" xlink:href="#mfd23d3c377" y="122.923"/><use x="659.909" xlink:href="#mfd23d3c377" y="117.858"/><use x="663.256" xlink:href="#mfd23d3c377" y="119.084"/><use x="666.603" xlink:href="#mfd23d3c377" y="119.338"/><use x="669.949" xlink:href="#mfd23d3c377" y="121.234"/><use x="673.296" xlink:href="#mfd23d3c377" y="119.477"/><use x="676.643" xlink:href="#mfd23d3c377" y="118.344"/><use x="679.99" xlink:href="#mfd23d3c377" y="118.76"/><use x="683.337" xlink:href="#mfd23d3c377" y="117.141"/><use x="686.684" xlink:href="#mfd23d3c377" y="115.846"/><use x="690.031" xlink:href="#mfd23d3c377" y="113.048"/><use x="693.377" xlink:href="#mfd23d3c377" y="114.412"/><use x="696.724" xlink:href="#mfd23d3c377" y="111.614"/><use x="700.071" xlink:href="#mfd23d3c377" y="110.087"/><use x="703.418" xlink:href="#mfd23d3c377" y="109.116"/><use x="706.765" xlink:href="#mfd23d3c377" y="113.256"/><use x="710.112" xlink:href="#mfd23d3c377" y="112.053"/><use x="713.459" xlink:href="#mfd23d3c377" y="108.607"/><use x="716.806" xlink:href="#mfd23d3c377" y="109.139"/><use x="720.152" xlink:href="#mfd23d3c377" y="108.052"/><use x="723.499" xlink:href="#mfd23d3c377" y="107.821"/><use x="726.846" xlink:href="#mfd23d3c377" y="110.411"/><use x="730.193" xlink:href="#mfd23d3c377" y="110.226"/><use x="733.54" xlink:href="#mfd23d3c377" y="107.15"/><use x="736.887" xlink:href="#mfd23d3c377" y="103.751"/><use x="740.234" xlink:href="#mfd23d3c377" y="97.576"/><use x="743.58" xlink:href="#mfd23d3c377" y="99.264"/><use x="746.927" xlink:href="#mfd23d3c377" y="95.448"/><use x="750.274" xlink:href="#mfd23d3c377" y="97.322"/><use x="753.621" xlink:href="#mfd23d3c377" y="94.5"/><use x="756.968" xlink:href="#mfd23d3c377" y="97.114"/><use x="760.315" xlink:href="#mfd23d3c377" y="93.066"/><use x="763.662" xlink:href="#mfd23d3c377" y="94.593"/><use x="767.008" xlink:href="#mfd23d3c377" y="89.783"/><use x="770.355" xlink:href="#mfd23d3c377" y="91.98"/><use x="773.702" xlink:href="#mfd23d3c377" y="89.736"/><use x="777.049" xlink:href="#mfd23d3c377" y="90.916"/><use x="780.396" xlink:href="#mfd23d3c377" y="89.297"/><use x="783.743" xlink:href="#mfd23d3c377" y="88.765"/><use x="787.09" xlink:href="#mfd23d3c377" y="87.724"/><use x="790.436" xlink:href="#mfd23d3c377" y="84.903"/><use x="793.783" xlink:href="#mfd23d3c377" y="82.821"/><use x="797.13" xlink:href="#mfd23d3c377" y="80.231"/><use x="800.477" xlink:href="#mfd23d3c377" y="81.18"/><use x="803.824" xlink:href="#mfd23d3c377" y="77.988"/><use x="807.171" xlink:href="#mfd23d3c377" y="75.814"/><use x="810.518" xlink:href="#mfd23d3c377" y="77.248"/><use x="813.865" xlink:href="#mfd23d3c377" y="78.034"/><use x="817.211" xlink:href="#mfd23d3c377" y="73.733"/><use x="820.558" xlink:href="#mfd23d3c377" y="72.021"/><use x="823.905" xlink:href="#mfd23d3c377" y="70.195"/><use x="827.252" xlink:href="#mfd23d3c377" y="73.132"/><use x="830.599" xlink:href="#mfd23d3c377" y="68.668"/><use x="833.946" xlink:href="#mfd23d3c377" y="66.633"/><use x="837.293" xlink:href="#mfd23d3c377" y="65.014"/><use x="840.639" xlink:href="#mfd23d3c377" y="65.685"/><use x="843.986" xlink:href="#mfd23d3c377" y="62.031"/><use x="847.333" xlink:href="#mfd23d3c377" y="56.296"/><use x="850.68" xlink:href="#mfd23d3c377" y="52.572"/></g></g><g id="line2d_138"><path clip-path="url(#pc1586b666f)" d="M 50.78 499.997819 L 54.126862 500.460346 L 57.473724 500.18283 L 60.820586 500.18283 L 64.167448 500.992252 L 67.51431 501.246642 L 80.901757 500.714736 L 84.248619 500.18283 L 90.942343 500.252209 L 94.289205 499.535292 L 100.982929 499.465913 L 104.329791 499.812808 L 107.676653 498.841501 L 114.370377 497.847068 L 117.717238 498.448353 L 124.410962 498.378974 L 127.757824 499.720303 L 131.104686 500.136577 L 137.79841 499.650924 L 141.145272 499.697176 L 144.492134 499.604671 L 147.838996 498.65649 L 151.185858 495.48818 L 154.53272 495.048779 L 161.226444 496.575118 L 164.573305 496.737003 L 167.920167 496.575118 L 171.267029 496.806382 L 177.960753 496.274476 L 181.307615 494.956274 L 184.654477 495.095032 L 188.001339 495.118158 L 191.348201 494.493746 L 194.695063 494.146851 L 198.041925 494.378115 L 201.388787 494.239357 L 204.735649 493.892461 L 208.08251 492.551133 L 211.429372 492.296743 L 214.776234 491.834216 L 218.123096 492.551133 L 221.469958 492.874902 L 228.163682 492.736143 L 234.857406 492.181111 L 238.204268 492.088606 L 241.55113 492.204237 L 244.897992 491.417941 L 248.244854 491.117299 L 251.591715 491.094172 L 254.938577 490.492887 L 258.285439 489.52158 L 261.632301 489.567833 L 264.979163 488.989674 L 268.326025 487.602093 L 271.672887 486.677038 L 275.019749 485.312583 L 278.366611 485.33571 L 281.713473 484.549414 L 285.060335 485.196952 L 288.407197 485.266331 L 291.754059 482.537421 L 295.100921 483.670612 L 298.447782 483.138706 L 301.794644 482.028641 L 305.141506 480.594807 L 308.488368 480.918576 L 311.83523 477.102727 L 315.182092 476.293305 L 318.528954 476.339558 L 325.222678 473.448763 L 328.56954 473.078742 L 331.916402 473.171247 L 335.263264 471.205507 L 338.610126 469.841052 L 341.956987 468.892871 L 345.303849 468.245333 L 351.997573 466.279593 L 355.344435 464.545116 L 358.691297 465.077023 L 362.038159 464.128842 L 365.385021 462.995651 L 368.731883 461.191795 L 372.078745 461.330553 L 375.425607 460.359246 L 378.772469 459.087297 L 382.119331 457.283441 L 385.466192 457.491578 L 388.813054 456.427766 L 392.159916 455.178943 L 395.506778 453.536971 L 398.85364 453.305708 L 402.200502 453.213202 L 405.547364 452.056885 L 408.894226 450.18365 L 412.241088 450.530545 L 422.281674 447.154097 L 425.628536 446.483433 L 428.975397 445.419621 L 432.322259 421.992623 L 435.669121 409.365633 L 442.362845 308.488471 L 445.709707 218.203181 L 449.056569 139.064793 L 452.403431 143.528179 L 455.750293 138.926035 L 459.097155 137.954728 L 462.444017 137.538453 L 465.790879 137.954728 L 469.137741 140.197984 L 472.484603 139.874215 L 475.831464 137.006547 L 479.178326 136.890916 L 482.525188 137.075926 L 485.87205 138.50976 L 489.218912 139.52732 L 492.565774 139.157298 L 495.912636 139.573573 L 499.259498 138.717898 L 502.60636 140.29049 L 505.953222 139.78171 L 509.300084 140.059226 L 512.646946 139.111046 L 515.993808 138.926035 L 519.340669 138.463508 L 522.687531 139.111046 L 526.034393 138.093486 L 529.381255 138.139739 L 536.074979 137.029674 L 539.421841 132.797551 L 542.768703 132.774424 L 546.115565 131.386843 L 549.462427 135.08706 L 552.809289 134.57828 L 556.156151 134.855796 L 559.503013 134.000121 L 562.849874 134.508901 L 566.196736 130.508041 L 569.543598 132.35815 L 572.89046 133.791984 L 576.237322 134.508901 L 579.584184 133.630099 L 582.931046 133.583847 L 586.277908 132.681919 L 589.62477 133.30633 L 592.971632 132.774424 L 596.318494 133.236951 L 599.665356 129.837377 L 606.359079 131.872496 L 609.705941 131.201832 L 613.052803 130.184273 L 616.399665 129.791124 L 619.746527 128.380417 L 623.093389 127.871637 L 626.440251 127.871637 L 629.787113 127.15472 L 633.133975 122.552575 L 636.480837 118.2742 L 639.827699 125.790265 L 643.174561 123.315745 L 646.521423 121.326878 L 649.868285 120.424951 L 653.215146 119.846792 L 656.562008 119.615528 L 659.90887 116.585976 L 663.255732 117.141008 L 666.602594 117.048503 L 669.949456 116.585976 L 673.296318 118.066062 L 676.64318 117.071629 L 679.990042 117.279766 L 683.336904 115.175268 L 686.683766 112.81638 L 690.030628 111.79882 L 693.37749 111.891326 L 696.724351 110.549997 L 700.071213 108.630509 L 703.418075 106.526011 L 706.764937 110.179975 L 710.111799 109.809954 L 713.458661 105.809094 L 716.805523 105.693462 L 720.152385 106.526011 L 723.499247 106.456632 L 726.846109 107.890466 L 730.192971 107.266054 L 733.539833 103.450206 L 736.886695 100.88318 L 740.233556 96.211657 L 743.580418 95.540992 L 746.92728 94.084032 L 750.274142 95.263476 L 753.621004 92.395808 L 756.967866 94.315296 L 760.314728 91.771396 L 763.66159 91.262617 L 767.008452 88.626212 L 770.355314 89.458761 L 773.702176 88.579959 L 777.049038 88.348696 L 780.3959 86.54484 L 783.742762 87.978674 L 787.089623 85.08788 L 790.436485 83.654046 L 793.783347 81.503295 L 797.130209 78.011215 L 800.477071 77.964962 L 803.823933 76.369244 L 807.170795 74.380377 L 810.517657 73.964103 L 813.864519 73.732839 L 817.211381 72.414637 L 823.905105 68.737547 L 827.251967 70.425771 L 833.94569 63.996644 L 837.292552 63.487864 L 840.639414 63.927265 L 843.986276 60.504564 L 847.333138 49.519545 L 850.68 51.300275 L 850.68 51.300275" fill="none" stroke="#ff7f0e" stroke-linecap="square" stroke-width="1.5"/><defs><path d="M 0 1.5 C 0.397805 1.5 0.77937 1.341951 1.06066 1.06066 C 1.341951 0.77937 1.5 0.397805 1.5 0 C 1.5 -0.397805 1.341951 -0.77937 1.06066 -1.06066 C 0.77937 -1.341951 0.397805 -1.5 0 -1.5 C -0.397805 -1.5 -0.77937 -1.341951 -1.06066 -1.06066 C -1.341951 -0.77937 -1.5 -0.397805 -1.5 0 C -1.5 0.397805 -1.341951 0.77937 -1.06066 1.06066 C -0.77937 1.341951 -0.397805 1.5 0 1.5 z" id="mf7b048cd89" stroke="#ff7f0e"/></defs><g clip-path="url(#pc1586b666f)" fill="#ff7f0e" stroke="#ff7f0e"><use x="50.78" xlink:href="#mf7b048cd89" y="499.998"/><use x="54.127" xlink:href="#mf7b048cd89" y="500.46"/><use x="57.474" xlink:href="#mf7b048cd89" y="500.183"/><use x="60.821" xlink:href="#mf7b048cd89" y="500.183"/><use x="64.167" xlink:href="#mf7b048cd89" y="500.992"/><use x="67.514" xlink:href="#mf7b048cd89" y="501.247"/><use x="70.861" xlink:href="#mf7b048cd89" y="501.131"/><use x="74.208" xlink:href="#mf7b048cd89" y="501.062"/><use x="77.555" xlink:href="#mf7b048cd89" y="500.853"/><use x="80.902" xlink:href="#mf7b048cd89" y="500.715"/><use x="84.249" xlink:href="#mf7b048cd89" y="500.183"/><use x="87.595" xlink:href="#mf7b048cd89" y="500.183"/><use x="90.942" xlink:href="#mf7b048cd89" y="500.252"/><use x="94.289" xlink:href="#mf7b048cd89" y="499.535"/><use x="97.636" xlink:href="#mf7b048cd89" y="499.512"/><use x="100.983" xlink:href="#mf7b048cd89" y="499.466"/><use x="104.33" xlink:href="#mf7b048cd89" y="499.813"/><use x="107.677" xlink:href="#mf7b048cd89" y="498.842"/><use x="111.024" xlink:href="#mf7b048cd89" y="498.356"/><use x="114.37" xlink:href="#mf7b048cd89" y="497.847"/><use x="117.717" xlink:href="#mf7b048cd89" y="498.448"/><use x="121.064" xlink:href="#mf7b048cd89" y="498.379"/><use x="124.411" xlink:href="#mf7b048cd89" y="498.379"/><use x="127.758" xlink:href="#mf7b048cd89" y="499.72"/><use x="131.105" xlink:href="#mf7b048cd89" y="500.137"/><use x="134.452" xlink:href="#mf7b048cd89" y="499.859"/><use x="137.798" xlink:href="#mf7b048cd89" y="499.651"/><use x="141.145" xlink:href="#mf7b048cd89" y="499.697"/><use x="144.492" xlink:href="#mf7b048cd89" y="499.605"/><use x="147.839" xlink:href="#mf7b048cd89" y="498.656"/><use x="151.186" xlink:href="#mf7b048cd89" y="495.488"/><use x="154.533" xlink:href="#mf7b048cd89" y="495.049"/><use x="157.88" xlink:href="#mf7b048cd89" y="495.789"/><use x="161.226" xlink:href="#mf7b048cd89" y="496.575"/><use x="164.573" xlink:href="#mf7b048cd89" y="496.737"/><use x="167.92" xlink:href="#mf7b048cd89" y="496.575"/><use x="171.267" xlink:href="#mf7b048cd89" y="496.806"/><use x="174.614" xlink:href="#mf7b048cd89" y="496.506"/><use x="177.961" xlink:href="#mf7b048cd89" y="496.274"/><use x="181.308" xlink:href="#mf7b048cd89" y="494.956"/><use x="184.654" xlink:href="#mf7b048cd89" y="495.095"/><use x="188.001" xlink:href="#mf7b048cd89" y="495.118"/><use x="191.348" xlink:href="#mf7b048cd89" y="494.494"/><use x="194.695" xlink:href="#mf7b048cd89" y="494.147"/><use x="198.042" xlink:href="#mf7b048cd89" y="494.378"/><use x="201.389" xlink:href="#mf7b048cd89" y="494.239"/><use x="204.736" xlink:href="#mf7b048cd89" y="493.892"/><use x="208.083" xlink:href="#mf7b048cd89" y="492.551"/><use x="211.429" xlink:href="#mf7b048cd89" y="492.297"/><use x="214.776" xlink:href="#mf7b048cd89" y="491.834"/><use x="218.123" xlink:href="#mf7b048cd89" y="492.551"/><use x="221.47" xlink:href="#mf7b048cd89" y="492.875"/><use x="224.817" xlink:href="#mf7b048cd89" y="492.806"/><use x="228.164" xlink:href="#mf7b048cd89" y="492.736"/><use x="231.511" xlink:href="#mf7b048cd89" y="492.412"/><use x="234.857" xlink:href="#mf7b048cd89" y="492.181"/><use x="238.204" xlink:href="#mf7b048cd89" y="492.089"/><use x="241.551" xlink:href="#mf7b048cd89" y="492.204"/><use x="244.898" xlink:href="#mf7b048cd89" y="491.418"/><use x="248.245" xlink:href="#mf7b048cd89" y="491.117"/><use x="251.592" xlink:href="#mf7b048cd89" y="491.094"/><use x="254.939" xlink:href="#mf7b048cd89" y="490.493"/><use x="258.285" xlink:href="#mf7b048cd89" y="489.522"/><use x="261.632" xlink:href="#mf7b048cd89" y="489.568"/><use x="264.979" xlink:href="#mf7b048cd89" y="488.99"/><use x="268.326" xlink:href="#mf7b048cd89" y="487.602"/><use x="271.673" xlink:href="#mf7b048cd89" y="486.677"/><use x="275.02" xlink:href="#mf7b048cd89" y="485.313"/><use x="278.367" xlink:href="#mf7b048cd89" y="485.336"/><use x="281.713" xlink:href="#mf7b048cd89" y="484.549"/><use x="285.06" xlink:href="#mf7b048cd89" y="485.197"/><use x="288.407" xlink:href="#mf7b048cd89" y="485.266"/><use x="291.754" xlink:href="#mf7b048cd89" y="482.537"/><use x="295.101" xlink:href="#mf7b048cd89" y="483.671"/><use x="298.448" xlink:href="#mf7b048cd89" y="483.139"/><use x="301.795" xlink:href="#mf7b048cd89" y="482.029"/><use x="305.142" xlink:href="#mf7b048cd89" y="480.595"/><use x="308.488" xlink:href="#mf7b048cd89" y="480.919"/><use x="311.835" xlink:href="#mf7b048cd89" y="477.103"/><use x="315.182" xlink:href="#mf7b048cd89" y="476.293"/><use x="318.529" xlink:href="#mf7b048cd89" y="476.34"/><use x="321.876" xlink:href="#mf7b048cd89" y="474.929"/><use x="325.223" xlink:href="#mf7b048cd89" y="473.449"/><use x="328.57" xlink:href="#mf7b048cd89" y="473.079"/><use x="331.916" xlink:href="#mf7b048cd89" y="473.171"/><use x="335.263" xlink:href="#mf7b048cd89" y="471.206"/><use x="338.61" xlink:href="#mf7b048cd89" y="469.841"/><use x="341.957" xlink:href="#mf7b048cd89" y="468.893"/><use x="345.304" xlink:href="#mf7b048cd89" y="468.245"/><use x="348.651" xlink:href="#mf7b048cd89" y="467.228"/><use x="351.998" xlink:href="#mf7b048cd89" y="466.28"/><use x="355.344" xlink:href="#mf7b048cd89" y="464.545"/><use x="358.691" xlink:href="#mf7b048cd89" y="465.077"/><use x="362.038" xlink:href="#mf7b048cd89" y="464.129"/><use x="365.385" xlink:href="#mf7b048cd89" y="462.996"/><use x="368.732" xlink:href="#mf7b048cd89" y="461.192"/><use x="372.079" xlink:href="#mf7b048cd89" y="461.331"/><use x="375.426" xlink:href="#mf7b048cd89" y="460.359"/><use x="378.772" xlink:href="#mf7b048cd89" y="459.087"/><use x="382.119" xlink:href="#mf7b048cd89" y="457.283"/><use x="385.466" xlink:href="#mf7b048cd89" y="457.492"/><use x="388.813" xlink:href="#mf7b048cd89" y="456.428"/><use x="392.16" xlink:href="#mf7b048cd89" y="455.179"/><use x="395.507" xlink:href="#mf7b048cd89" y="453.537"/><use x="398.854" xlink:href="#mf7b048cd89" y="453.306"/><use x="402.201" xlink:href="#mf7b048cd89" y="453.213"/><use x="405.547" xlink:href="#mf7b048cd89" y="452.057"/><use x="408.894" xlink:href="#mf7b048cd89" y="450.184"/><use x="412.241" xlink:href="#mf7b048cd89" y="450.531"/><use x="415.588" xlink:href="#mf7b048cd89" y="449.42"/><use x="418.935" xlink:href="#mf7b048cd89" y="448.287"/><use x="422.282" xlink:href="#mf7b048cd89" y="447.154"/><use x="425.629" xlink:href="#mf7b048cd89" y="446.483"/><use x="428.975" xlink:href="#mf7b048cd89" y="445.42"/><use x="432.322" xlink:href="#mf7b048cd89" y="421.993"/><use x="435.669" xlink:href="#mf7b048cd89" y="409.366"/><use x="439.016" xlink:href="#mf7b048cd89" y="359.343"/><use x="442.363" xlink:href="#mf7b048cd89" y="308.488"/><use x="445.71" xlink:href="#mf7b048cd89" y="218.203"/><use x="449.057" xlink:href="#mf7b048cd89" y="139.065"/><use x="452.403" xlink:href="#mf7b048cd89" y="143.528"/><use x="455.75" xlink:href="#mf7b048cd89" y="138.926"/><use x="459.097" xlink:href="#mf7b048cd89" y="137.955"/><use x="462.444" xlink:href="#mf7b048cd89" y="137.538"/><use x="465.791" xlink:href="#mf7b048cd89" y="137.955"/><use x="469.138" xlink:href="#mf7b048cd89" y="140.198"/><use x="472.485" xlink:href="#mf7b048cd89" y="139.874"/><use x="475.831" xlink:href="#mf7b048cd89" y="137.007"/><use x="479.178" xlink:href="#mf7b048cd89" y="136.891"/><use x="482.525" xlink:href="#mf7b048cd89" y="137.076"/><use x="485.872" xlink:href="#mf7b048cd89" y="138.51"/><use x="489.219" xlink:href="#mf7b048cd89" y="139.527"/><use x="492.566" xlink:href="#mf7b048cd89" y="139.157"/><use x="495.913" xlink:href="#mf7b048cd89" y="139.574"/><use x="499.259" xlink:href="#mf7b048cd89" y="138.718"/><use x="502.606" xlink:href="#mf7b048cd89" y="140.29"/><use x="505.953" xlink:href="#mf7b048cd89" y="139.782"/><use x="509.3" xlink:href="#mf7b048cd89" y="140.059"/><use x="512.647" xlink:href="#mf7b048cd89" y="139.111"/><use x="515.994" xlink:href="#mf7b048cd89" y="138.926"/><use x="519.341" xlink:href="#mf7b048cd89" y="138.464"/><use x="522.688" xlink:href="#mf7b048cd89" y="139.111"/><use x="526.034" xlink:href="#mf7b048cd89" y="138.093"/><use x="529.381" xlink:href="#mf7b048cd89" y="138.14"/><use x="532.728" xlink:href="#mf7b048cd89" y="137.608"/><use x="536.075" xlink:href="#mf7b048cd89" y="137.03"/><use x="539.422" xlink:href="#mf7b048cd89" y="132.798"/><use x="542.769" xlink:href="#mf7b048cd89" y="132.774"/><use x="546.116" xlink:href="#mf7b048cd89" y="131.387"/><use x="549.462" xlink:href="#mf7b048cd89" y="135.087"/><use x="552.809" xlink:href="#mf7b048cd89" y="134.578"/><use x="556.156" xlink:href="#mf7b048cd89" y="134.856"/><use x="559.503" xlink:href="#mf7b048cd89" y="134"/><use x="562.85" xlink:href="#mf7b048cd89" y="134.509"/><use x="566.197" xlink:href="#mf7b048cd89" y="130.508"/><use x="569.544" xlink:href="#mf7b048cd89" y="132.358"/><use x="572.89" xlink:href="#mf7b048cd89" y="133.792"/><use x="576.237" xlink:href="#mf7b048cd89" y="134.509"/><use x="579.584" xlink:href="#mf7b048cd89" y="133.63"/><use x="582.931" xlink:href="#mf7b048cd89" y="133.584"/><use x="586.278" xlink:href="#mf7b048cd89" y="132.682"/><use x="589.625" xlink:href="#mf7b048cd89" y="133.306"/><use x="592.972" xlink:href="#mf7b048cd89" y="132.774"/><use x="596.318" xlink:href="#mf7b048cd89" y="133.237"/><use x="599.665" xlink:href="#mf7b048cd89" y="129.837"/><use x="603.012" xlink:href="#mf7b048cd89" y="130.832"/><use x="606.359" xlink:href="#mf7b048cd89" y="131.872"/><use x="609.706" xlink:href="#mf7b048cd89" y="131.202"/><use x="613.053" xlink:href="#mf7b048cd89" y="130.184"/><use x="616.4" xlink:href="#mf7b048cd89" y="129.791"/><use x="619.747" xlink:href="#mf7b048cd89" y="128.38"/><use x="623.093" xlink:href="#mf7b048cd89" y="127.872"/><use x="626.44" xlink:href="#mf7b048cd89" y="127.872"/><use x="629.787" xlink:href="#mf7b048cd89" y="127.155"/><use x="633.134" xlink:href="#mf7b048cd89" y="122.553"/><use x="636.481" xlink:href="#mf7b048cd89" y="118.274"/><use x="639.828" xlink:href="#mf7b048cd89" y="125.79"/><use x="643.175" xlink:href="#mf7b048cd89" y="123.316"/><use x="646.521" xlink:href="#mf7b048cd89" y="121.327"/><use x="649.868" xlink:href="#mf7b048cd89" y="120.425"/><use x="653.215" xlink:href="#mf7b048cd89" y="119.847"/><use x="656.562" xlink:href="#mf7b048cd89" y="119.616"/><use x="659.909" xlink:href="#mf7b048cd89" y="116.586"/><use x="663.256" xlink:href="#mf7b048cd89" y="117.141"/><use x="666.603" xlink:href="#mf7b048cd89" y="117.049"/><use x="669.949" xlink:href="#mf7b048cd89" y="116.586"/><use x="673.296" xlink:href="#mf7b048cd89" y="118.066"/><use x="676.643" xlink:href="#mf7b048cd89" y="117.072"/><use x="679.99" xlink:href="#mf7b048cd89" y="117.28"/><use x="683.337" xlink:href="#mf7b048cd89" y="115.175"/><use x="686.684" xlink:href="#mf7b048cd89" y="112.816"/><use x="690.031" xlink:href="#mf7b048cd89" y="111.799"/><use x="693.377" xlink:href="#mf7b048cd89" y="111.891"/><use x="696.724" xlink:href="#mf7b048cd89" y="110.55"/><use x="700.071" xlink:href="#mf7b048cd89" y="108.631"/><use x="703.418" xlink:href="#mf7b048cd89" y="106.526"/><use x="706.765" xlink:href="#mf7b048cd89" y="110.18"/><use x="710.112" xlink:href="#mf7b048cd89" y="109.81"/><use x="713.459" xlink:href="#mf7b048cd89" y="105.809"/><use x="716.806" xlink:href="#mf7b048cd89" y="105.693"/><use x="720.152" xlink:href="#mf7b048cd89" y="106.526"/><use x="723.499" xlink:href="#mf7b048cd89" y="106.457"/><use x="726.846" xlink:href="#mf7b048cd89" y="107.89"/><use x="730.193" xlink:href="#mf7b048cd89" y="107.266"/><use x="733.54" xlink:href="#mf7b048cd89" y="103.45"/><use x="736.887" xlink:href="#mf7b048cd89" y="100.883"/><use x="740.234" xlink:href="#mf7b048cd89" y="96.212"/><use x="743.58" xlink:href="#mf7b048cd89" y="95.541"/><use x="746.927" xlink:href="#mf7b048cd89" y="94.084"/><use x="750.274" xlink:href="#mf7b048cd89" y="95.263"/><use x="753.621" xlink:href="#mf7b048cd89" y="92.396"/><use x="756.968" xlink:href="#mf7b048cd89" y="94.315"/><use x="760.315" xlink:href="#mf7b048cd89" y="91.771"/><use x="763.662" xlink:href="#mf7b048cd89" y="91.263"/><use x="767.008" xlink:href="#mf7b048cd89" y="88.626"/><use x="770.355" xlink:href="#mf7b048cd89" y="89.459"/><use x="773.702" xlink:href="#mf7b048cd89" y="88.58"/><use x="777.049" xlink:href="#mf7b048cd89" y="88.349"/><use x="780.396" xlink:href="#mf7b048cd89" y="86.545"/><use x="783.743" xlink:href="#mf7b048cd89" y="87.979"/><use x="787.09" xlink:href="#mf7b048cd89" y="85.088"/><use x="790.436" xlink:href="#mf7b048cd89" y="83.654"/><use x="793.783" xlink:href="#mf7b048cd89" y="81.503"/><use x="797.13" xlink:href="#mf7b048cd89" y="78.011"/><use x="800.477" xlink:href="#mf7b048cd89" y="77.965"/><use x="803.824" xlink:href="#mf7b048cd89" y="76.369"/><use x="807.171" xlink:href="#mf7b048cd89" y="74.38"/><use x="810.518" xlink:href="#mf7b048cd89" y="73.964"/><use x="813.865" xlink:href="#mf7b048cd89" y="73.733"/><use x="817.211" xlink:href="#mf7b048cd89" y="72.415"/><use x="820.558" xlink:href="#mf7b048cd89" y="70.565"/><use x="823.905" xlink:href="#mf7b048cd89" y="68.738"/><use x="827.252" xlink:href="#mf7b048cd89" y="70.426"/><use x="830.599" xlink:href="#mf7b048cd89" y="67.165"/><use x="833.946" xlink:href="#mf7b048cd89" y="63.997"/><use x="837.293" xlink:href="#mf7b048cd89" y="63.488"/><use x="840.639" xlink:href="#mf7b048cd89" y="63.927"/><use x="843.986" xlink:href="#mf7b048cd89" y="60.505"/><use x="847.333" xlink:href="#mf7b048cd89" y="49.52"/><use x="850.68" xlink:href="#mf7b048cd89" y="51.3"/></g></g><path d="M 50.78 524.95 L 50.78 26.88" fill="none" stroke="#000" stroke-linecap="square" stroke-width=".8" id="patch_3"/><path d="M 850.68 524.95 L 850.68 26.88" fill="none" stroke="#000" stroke-linecap="square" stroke-width=".8" id="patch_4"/><path d="M 50.78 524.95 L 850.68 524.95" fill="none" stroke="#000" stroke-linecap="square" stroke-width=".8" id="patch_5"/><path d="M 50.78 26.88 L 850.68 26.88" fill="none" stroke="#000" stroke-linecap="square" stroke-width=".8" id="patch_6"/><g id="text_71"><defs><path d="M 9.078125 75.984375 L 18.109375 75.984375 L 18.109375 31.109375 L 44.921875 54.6875 L 56.390625 54.6875 L 27.390625 29.109375 L 57.625 0 L 45.90625 0 L 18.109375 26.703125 L 18.109375 0 L 9.078125 0 z" id="DejaVuSans-107"/><path d="M -0.296875 72.90625 L 61.375 72.90625 L 61.375 64.59375 L 35.5 64.59375 L 35.5 0 L 25.59375 0 L 25.59375 64.59375 L -0.296875 64.59375 z" id="DejaVuSans-84"/><path d="M 9.8125 72.90625 L 24.515625 72.90625 L 43.109375 23.296875 L 61.8125 72.90625 L 76.515625 72.90625 L 76.515625 0 L 66.890625 0 L 66.890625 64.015625 L 48.09375 14.015625 L 38.1875 14.015625 L 19.390625 64.015625 L 19.390625 0 L 9.8125 0 z" id="DejaVuSans-77"/><path d="M 2.984375 54.6875 L 12.5 54.6875 L 29.59375 8.796875 L 46.6875 54.6875 L 56.203125 54.6875 L 35.6875 0 L 23.484375 0 z" id="DejaVuSans-118"/><path d="M 9.8125 72.90625 L 55.90625 72.90625 L 55.90625 64.59375 L 19.671875 64.59375 L 19.671875 43.015625 L 54.390625 43.015625 L 54.390625 34.71875 L 19.671875 34.71875 L 19.671875 8.296875 L 56.78125 8.296875 L 56.78125 0 L 9.8125 0 z" id="DejaVuSans-69"/><path d="M 52 44.1875 Q 55.375 50.25 60.0625 53.125 Q 64.75 56 71.09375 56 Q 79.640625 56 84.28125 50.015625 Q 88.921875 44.046875 88.921875 33.015625 L 88.921875 0 L 79.890625 0 L 79.890625 32.71875 Q 79.890625 40.578125 77.09375 44.375 Q 74.3125 48.1875 68.609375 48.1875 Q 61.625 48.1875 57.5625 43.546875 Q 53.515625 38.921875 53.515625 30.90625 L 53.515625 0 L 44.484375 0 L 44.484375 32.71875 Q 44.484375 40.625 41.703125 44.40625 Q 38.921875 48.1875 33.109375 48.1875 Q 26.21875 48.1875 22.15625 43.53125 Q 18.109375 38.875 18.109375 30.90625 L 18.109375 0 L 9.078125 0 L 9.078125 54.6875 L 18.109375 54.6875 L 18.109375 46.1875 Q 21.1875 51.21875 25.484375 53.609375 Q 29.78125 56 35.6875 56 Q 41.65625 56 45.828125 52.96875 Q 50 49.953125 52 44.1875 z" id="DejaVuSans-109"/><path d="M 34.28125 27.484375 Q 23.390625 27.484375 19.1875 25 Q 14.984375 22.515625 14.984375 16.5 Q 14.984375 11.71875 18.140625 8.90625 Q 21.296875 6.109375 26.703125 6.109375 Q 34.1875 6.109375 38.703125 11.40625 Q 43.21875 16.703125 43.21875 25.484375 L 43.21875 27.484375 z M 52.203125 31.203125 L 52.203125 0 L 43.21875 0 L 43.21875 8.296875 Q 40.140625 3.328125 35.546875 0.953125 Q 30.953125 -1.421875 24.3125 -1.421875 Q 15.921875 -1.421875 10.953125 3.296875 Q 6 8.015625 6 15.921875 Q 6 25.140625 12.171875 29.828125 Q 18.359375 34.515625 30.609375 34.515625 L 43.21875 34.515625 L 43.21875 35.40625 Q 43.21875 41.609375 39.140625 45 Q 35.0625 48.390625 27.6875 48.390625 Q 23 48.390625 18.546875 47.265625 Q 14.109375 46.140625 10.015625 43.890625 L 10.015625 52.203125 Q 14.9375 54.109375 19.578125 55.046875 Q 24.21875 56 28.609375 56 Q 40.484375 56 46.34375 49.84375 Q 52.203125 43.703125 52.203125 31.203125 z" id="DejaVuSans-97"/><path d="M 54.890625 33.015625 L 54.890625 0 L 45.90625 0 L 45.90625 32.71875 Q 45.90625 40.484375 42.875 44.328125 Q 39.84375 48.1875 33.796875 48.1875 Q 26.515625 48.1875 22.3125 43.546875 Q 18.109375 38.921875 18.109375 30.90625 L 18.109375 0 L 9.078125 0 L 9.078125 75.984375 L 18.109375 75.984375 L 18.109375 46.1875 Q 21.34375 51.125 25.703125 53.5625 Q 30.078125 56 35.796875 56 Q 45.21875 56 50.046875 50.171875 Q 54.890625 44.34375 54.890625 33.015625 z" id="DejaVuSans-104"/><path d="M 11.71875 12.40625 L 22.015625 12.40625 L 22.015625 0 L 11.71875 0 z M 11.71875 51.703125 L 22.015625 51.703125 L 22.015625 39.3125 L 11.71875 39.3125 z" id="DejaVuSans-58"/><path d="M 45.40625 46.390625 L 45.40625 75.984375 L 54.390625 75.984375 L 54.390625 0 L 45.40625 0 L 45.40625 8.203125 Q 42.578125 3.328125 38.25 0.953125 Q 33.9375 -1.421875 27.875 -1.421875 Q 17.96875 -1.421875 11.734375 6.484375 Q 5.515625 14.40625 5.515625 27.296875 Q 5.515625 40.1875 11.734375 48.09375 Q 17.96875 56 27.875 56 Q 33.9375 56 38.25 53.625 Q 42.578125 51.265625 45.40625 46.390625 z M 14.796875 27.296875 Q 14.796875 17.390625 18.875 11.75 Q 22.953125 6.109375 30.078125 6.109375 Q 37.203125 6.109375 41.296875 11.75 Q 45.40625 17.390625 45.40625 27.296875 Q 45.40625 37.203125 41.296875 42.84375 Q 37.203125 48.484375 30.078125 48.484375 Q 22.953125 48.484375 18.875 42.84375 Q 14.796875 37.203125 14.796875 27.296875 z" id="DejaVuSans-100"/><path d="M 11.71875 12.40625 L 22.015625 12.40625 L 22.015625 4 L 14.015625 -11.625 L 7.71875 -11.625 L 11.71875 4 z" id="DejaVuSans-44"/><path d="M 31 75.875 Q 24.46875 64.65625 21.28125 53.65625 Q 18.109375 42.671875 18.109375 31.390625 Q 18.109375 20.125 21.3125 9.0625 Q 24.515625 -2 31 -13.1875 L 23.1875 -13.1875 Q 15.875 -1.703125 12.234375 9.375 Q 8.59375 20.453125 8.59375 31.390625 Q 8.59375 42.28125 12.203125 53.3125 Q 15.828125 64.359375 23.1875 75.875 z" id="DejaVuSans-40"/><path d="M 53.515625 70.515625 L 53.515625 60.890625 Q 47.90625 63.578125 42.921875 64.890625 Q 37.9375 66.21875 33.296875 66.21875 Q 25.25 66.21875 20.875 63.09375 Q 16.5 59.96875 16.5 54.203125 Q 16.5 49.359375 19.40625 46.890625 Q 22.3125 44.4375 30.421875 42.921875 L 36.375 41.703125 Q 47.40625 39.59375 52.65625 34.296875 Q 57.90625 29 57.90625 20.125 Q 57.90625 9.515625 50.796875 4.046875 Q 43.703125 -1.421875 29.984375 -1.421875 Q 24.8125 -1.421875 18.96875 -0.25 Q 13.140625 0.921875 6.890625 3.21875 L 6.890625 13.375 Q 12.890625 10.015625 18.65625 8.296875 Q 24.421875 6.59375 29.984375 6.59375 Q 38.421875 6.59375 43.015625 9.90625 Q 47.609375 13.234375 47.609375 19.390625 Q 47.609375 24.75 44.3125 27.78125 Q 41.015625 30.8125 33.5 32.328125 L 27.484375 33.5 Q 16.453125 35.6875 11.515625 40.375 Q 6.59375 45.0625 6.59375 53.421875 Q 6.59375 63.09375 13.40625 68.65625 Q 20.21875 74.21875 32.171875 74.21875 Q 37.3125 74.21875 42.625 73.28125 Q 47.953125 72.359375 53.515625 70.515625 z" id="DejaVuSans-83"/><path d="M 9.8125 72.90625 L 19.671875 72.90625 L 19.671875 42.09375 L 52.390625 72.90625 L 65.09375 72.90625 L 28.90625 38.921875 L 67.671875 0 L 54.6875 0 L 19.671875 35.109375 L 19.671875 0 L 9.8125 0 z" id="DejaVuSans-75"/><path d="M 6.296875 72.90625 L 16.890625 72.90625 L 35.015625 45.796875 L 53.21875 72.90625 L 63.8125 72.90625 L 40.375 37.890625 L 65.375 0 L 54.78125 0 L 34.28125 31 L 13.625 0 L 2.984375 0 L 29 38.921875 z" id="DejaVuSans-88"/><path d="M 8.015625 75.875 L 15.828125 75.875 Q 23.140625 64.359375 26.78125 53.3125 Q 30.421875 42.28125 30.421875 31.390625 Q 30.421875 20.453125 26.78125 9.375 Q 23.140625 -1.703125 15.828125 -13.1875 L 8.015625 -13.1875 Q 14.5 -2 17.703125 9.0625 Q 20.90625 20.125 20.90625 31.390625 Q 20.90625 42.671875 17.703125 53.65625 Q 14.5 64.65625 8.015625 75.875 z" id="DejaVuSans-41"/></defs><g transform="matrix(.12 0 0 -.12 289.445 20.88)"><use xlink:href="#DejaVuSans-84"/><use x="60.818" xlink:href="#DejaVuSans-101"/><use x="122.342" xlink:href="#DejaVuSans-115"/><use x="174.441" xlink:href="#DejaVuSans-116"/><use x="213.65" xlink:href="#DejaVuSans-32"/><use x="245.438" xlink:href="#DejaVuSans-50"/><use x="309.061" xlink:href="#DejaVuSans-56"/><use x="372.684" xlink:href="#DejaVuSans-58"/><use x="406.375" xlink:href="#DejaVuSans-32"/><use x="438.162" xlink:href="#DejaVuSans-77"/><use x="524.441" xlink:href="#DejaVuSans-111"/><use x="585.623" xlink:href="#DejaVuSans-118"/><use x="644.803" xlink:href="#DejaVuSans-101"/><use x="706.326" xlink:href="#DejaVuSans-32"/><use x="738.113" xlink:href="#DejaVuSans-69"/><use x="801.297" xlink:href="#DejaVuSans-108"/><use x="829.08" xlink:href="#DejaVuSans-105"/><use x="856.863" xlink:href="#DejaVuSans-109"/><use x="954.275" xlink:href="#DejaVuSans-105"/><use x="982.059" xlink:href="#DejaVuSans-110"/><use x="1045.438" xlink:href="#DejaVuSans-97"/><use x="1106.717" xlink:href="#DejaVuSans-116"/><use x="1145.926" xlink:href="#DejaVuSans-105"/><use x="1173.709" xlink:href="#DejaVuSans-111"/><use x="1234.891" xlink:href="#DejaVuSans-110"/><use x="1298.27" xlink:href="#DejaVuSans-32"/><use x="1330.057" xlink:href="#DejaVuSans-67"/><use x="1399.881" xlink:href="#DejaVuSans-104"/><use x="1463.26" xlink:href="#DejaVuSans-101"/><use x="1524.783" xlink:href="#DejaVuSans-99"/><use x="1579.764" xlink:href="#DejaVuSans-107"/><use x="1637.674" xlink:href="#DejaVuSans-58"/><use x="1671.365" xlink:href="#DejaVuSans-32"/><use x="1703.152" xlink:href="#DejaVuSans-107"/><use x="1761.063" xlink:href="#DejaVuSans-109"/><use x="1858.475" xlink:href="#DejaVuSans-111"/><use x="1919.656" xlink:href="#DejaVuSans-118"/><use x="1978.836" xlink:href="#DejaVuSans-100"/><use x="2042.313" xlink:href="#DejaVuSans-32"/><use x="2074.1" xlink:href="#DejaVuSans-107"/><use x="2132.01" xlink:href="#DejaVuSans-49"/><use x="2195.633" xlink:href="#DejaVuSans-44"/><use x="2227.42" xlink:href="#DejaVuSans-32"/><use x="2259.207" xlink:href="#DejaVuSans-107"/><use x="2317.117" xlink:href="#DejaVuSans-50"/><use x="2380.74" xlink:href="#DejaVuSans-32"/><use x="2412.527" xlink:href="#DejaVuSans-40"/><use x="2451.541" xlink:href="#DejaVuSans-83"/><use x="2515.018" xlink:href="#DejaVuSans-75"/><use x="2580.594" xlink:href="#DejaVuSans-88"/><use x="2649.1" xlink:href="#DejaVuSans-41"/></g></g><g id="legend_1"><path d="M 57.78 64.23625 L 111.200312 64.23625 Q 113.200312 64.23625 113.200312 62.23625 L 113.200312 33.88 Q 113.200312 31.88 111.200312 31.88 L 57.78 31.88 Q 55.78 31.88 55.78 33.88 L 55.78 62.23625 Q 55.78 64.23625 57.78 64.23625 z" fill="#fff" opacity=".8" stroke="#ccc" id="patch_7"/><path d="M 59.78 39.978437 L 79.78 39.978437" fill="none" stroke="#1f77b4" stroke-linecap="square" stroke-width="1.5" id="line2d_139"/><use x="69.78" xlink:href="#mfd23d3c377" y="39.978" fill="#1f77b4" stroke="#1f77b4" id="line2d_140"/><g id="text_72"><defs><path d="M 9.8125 72.90625 L 23.09375 72.90625 L 55.421875 11.921875 L 55.421875 72.90625 L 64.984375 72.90625 L 64.984375 0 L 51.703125 0 L 19.390625 60.984375 L 19.390625 0 L 9.8125 0 z" id="DejaVuSans-78"/></defs><g transform="matrix(.1 0 0 -.1 87.78 43.478)"><use xlink:href="#DejaVuSans-77"/><use x="86.279" xlink:href="#DejaVuSans-73"/><use x="115.771" xlink:href="#DejaVuSans-78"/></g></g><path d="M 59.78 54.656562 L 79.78 54.656562" fill="none" stroke="#ff7f0e" stroke-linecap="square" stroke-width="1.5" id="line2d_141"/><use x="69.78" xlink:href="#mf7b048cd89" y="54.657" fill="#ff7f0e" stroke="#ff7f0e" id="line2d_142"/><g id="text_73"><defs><path d="M 34.1875 63.1875 L 20.796875 26.90625 L 47.609375 26.90625 z M 28.609375 72.90625 L 39.796875 72.90625 L 67.578125 0 L 57.328125 0 L 50.6875 18.703125 L 17.828125 18.703125 L 11.1875 0 L 0.78125 0 z" id="DejaVuSans-65"/><path d="M 28.609375 0 L 0.78125 72.90625 L 11.078125 72.90625 L 34.1875 11.53125 L 57.328125 72.90625 L 67.578125 72.90625 L 39.796875 0 z" id="DejaVuSans-86"/><path d="M 59.515625 10.40625 L 59.515625 29.984375 L 43.40625 29.984375 L 43.40625 38.09375 L 69.28125 38.09375 L 69.28125 6.78125 Q 63.578125 2.734375 56.6875 0.65625 Q 49.8125 -1.421875 42 -1.421875 Q 24.90625 -1.421875 15.25 8.5625 Q 5.609375 18.5625 5.609375 36.375 Q 5.609375 54.25 15.25 64.234375 Q 24.90625 74.21875 42 74.21875 Q 49.125 74.21875 55.546875 72.453125 Q 61.96875 70.703125 67.390625 67.28125 L 67.390625 56.78125 Q 61.921875 61.421875 55.765625 63.765625 Q 49.609375 66.109375 42.828125 66.109375 Q 29.4375 66.109375 22.71875 58.640625 Q 16.015625 51.171875 16.015625 36.375 Q 16.015625 21.625 22.71875 14.15625 Q 29.4375 6.6875 42.828125 6.6875 Q 48.046875 6.6875 52.140625 7.59375 Q 56.25 8.5 59.515625 10.40625 z" id="DejaVuSans-71"/></defs><g transform="matrix(.1 0 0 -.1 87.78 58.157)"><use xlink:href="#DejaVuSans-65"/><use x="68.314" xlink:href="#DejaVuSans-86"/><use x="136.723" xlink:href="#DejaVuSans-71"/></g></g></g></g></g><defs><clipPath id="pc1586b666f"><path d="M50.78 26.88H850.68V524.95H50.78z"/></clipPath></defs></svg>