<svg height="768" viewBox="0 0 864 576" width="1152" xmlns="http://www.w3.org/2000/svg" xmlns:xlink="http://www.w3.org/1999/xlink"><defs><style>*{stroke-linecap:butt;stroke-linejoin:round}</style></defs><g id="figure_1"><path d="M 0 576 L 864 576 L 864 0 L 0 0 z" fill="#fff" id="patch_1"/><g id="axes_1"><path d="M 50.87 524.95 L 850.68 524.95 L 850.68 26.88 L 50.87 26.88 z" fill="#fff" id="patch_2"/><g id="matplotlib.axis_1"><g id="xtick_1"><path clip-path="url(#p74d9dedb55)" d="M 50.87 524.95 L 50.87 26.88" fill="none" stroke="#b0b0b0" stroke-linecap="square" stroke-width=".8" id="line2d_1"/><g id="line2d_2"><defs><path d="M 0 0 L 0 3.5" id="mfc518bbc66" stroke="#000" stroke-width=".8"/></defs><use x="50.87" xlink:href="#mfc518bbc66" y="524.95" stroke="#000" stroke-width=".8"/></g><g id="text_1"><defs><path d="M 12.40625 8.296875 L 28.515625 8.296875 L 28.515625 63.921875 L 10.984375 60.40625 L 10.984375 69.390625 L 28.421875 72.90625 L 38.28125 72.90625 L 38.28125 8.296875 L 54.390625 8.296875 L 54.390625 0 L 12.40625 0 z" id="DejaVuSans-49"/><path d="M 33.015625 40.375 Q 26.375 40.375 22.484375 35.828125 Q 18.609375 31.296875 18.609375 23.390625 Q 18.609375 15.53125 22.484375 10.953125 Q 26.375 6.390625 33.015625 6.390625 Q 39.65625 6.390625 43.53125 10.953125 Q 47.40625 15.53125 47.40625 23.390625 Q 47.40625 31.296875 43.53125 35.828125 Q 39.65625 40.375 33.015625 40.375 z M 52.59375 71.296875 L 52.59375 62.3125 Q 48.875 64.0625 45.09375 64.984375 Q 41.3125 65.921875 37.59375 65.921875 Q 27.828125 65.921875 22.671875 59.328125 Q 17.53125 52.734375 16.796875 39.40625 Q 19.671875 43.65625 24.015625 45.921875 Q 28.375 48.1875 33.59375 48.1875 Q 44.578125 48.1875 50.953125 41.515625 Q 57.328125 34.859375 57.328125 23.390625 Q 57.328125 12.15625 50.6875 5.359375 Q 44.046875 -1.421875 33.015625 -1.421875 Q 20.359375 -1.421875 13.671875 8.265625 Q 6.984375 17.96875 6.984375 36.375 Q 6.984375 53.65625 15.1875 63.9375 Q 23.390625 74.21875 37.203125 74.21875 Q 40.921875 74.21875 44.703125 73.484375 Q 48.484375 72.75 52.59375 71.296875 z" id="DejaVuSans-54"/></defs><g transform="matrix(0 -.1 -.1 0 53.63 544.675)"><use xlink:href="#DejaVuSans-49"/><use x="63.623" xlink:href="#DejaVuSans-54"/></g></g></g><g id="xtick_2"><path clip-path="url(#p74d9dedb55)" d="M 64.255941 524.95 L 64.255941 26.88" fill="none" stroke="#b0b0b0" stroke-linecap="square" stroke-width=".8" id="line2d_3"/><use x="64.256" xlink:href="#mfc518bbc66" y="524.95" stroke="#000" stroke-width=".8" id="line2d_4"/><g id="text_2"><defs><path d="M 19.1875 8.296875 L 53.609375 8.296875 L 53.609375 0 L 7.328125 0 L 7.328125 8.296875 Q 12.9375 14.109375 22.625 23.890625 Q 32.328125 33.6875 34.8125 36.53125 Q 39.546875 41.84375 41.421875 45.53125 Q 43.3125 49.21875 43.3125 52.78125 Q 43.3125 58.59375 39.234375 62.25 Q 35.15625 65.921875 28.609375 65.921875 Q 23.96875 65.921875 18.8125 64.3125 Q 13.671875 62.703125 7.8125 59.421875 L 7.8125 69.390625 Q 13.765625 71.78125 18.9375 73 Q 24.125 74.21875 28.421875 74.21875 Q 39.75 74.21875 46.484375 68.546875 Q 53.21875 62.890625 53.21875 53.421875 Q 53.21875 48.921875 51.53125 44.890625 Q 49.859375 40.875 45.40625 35.40625 Q 44.1875 33.984375 37.640625 27.21875 Q 31.109375 20.453125 19.1875 8.296875 z" id="DejaVuSans-50"/><path d="M 31.78125 66.40625 Q 24.171875 66.40625 20.328125 58.90625 Q 16.5 51.421875 16.5 36.375 Q 16.5 21.390625 20.328125 13.890625 Q 24.171875 6.390625 31.78125 6.390625 Q 39.453125 6.390625 43.28125 13.890625 Q 47.125 21.390625 47.125 36.375 Q 47.125 51.421875 43.28125 58.90625 Q 39.453125 66.40625 31.78125 66.40625 z M 31.78125 74.21875 Q 44.046875 74.21875 50.515625 64.515625 Q 56.984375 54.828125 56.984375 36.375 Q 56.984375 17.96875 50.515625 8.265625 Q 44.046875 -1.421875 31.78125 -1.421875 Q 19.53125 -1.421875 13.0625 8.265625 Q 6.59375 17.96875 6.59375 36.375 Q 6.59375 54.828125 13.0625 64.515625 Q 19.53125 74.21875 31.78125 74.21875 z" id="DejaVuSans-48"/></defs><g transform="matrix(0 -.1 -.1 0 67.015 544.675)"><use xlink:href="#DejaVuSans-50"/><use x="63.623" xlink:href="#DejaVuSans-48"/></g></g></g><g id="xtick_3"><path clip-path="url(#p74d9dedb55)" d="M 77.641883 524.95 L 77.641883 26.88" fill="none" stroke="#b0b0b0" stroke-linecap="square" stroke-width=".8" id="line2d_5"/><use x="77.642" xlink:href="#mfc518bbc66" y="524.95" stroke="#000" stroke-width=".8" id="line2d_6"/><g id="text_3"><defs><path d="M 37.796875 64.3125 L 12.890625 25.390625 L 37.796875 25.390625 z M 35.203125 72.90625 L 47.609375 72.90625 L 47.609375 25.390625 L 58.015625 25.390625 L 58.015625 17.1875 L 47.609375 17.1875 L 47.609375 0 L 37.796875 0 L 37.796875 17.1875 L 4.890625 17.1875 L 4.890625 26.703125 z" id="DejaVuSans-52"/></defs><g transform="matrix(0 -.1 -.1 0 80.401 544.675)"><use xlink:href="#DejaVuSans-50"/><use x="63.623" xlink:href="#DejaVuSans-52"/></g></g></g><g id="xtick_4"><path clip-path="url(#p74d9dedb55)" d="M 91.027824 524.95 L 91.027824 26.88" fill="none" stroke="#b0b0b0" stroke-linecap="square" stroke-width=".8" id="line2d_7"/><use x="91.028" xlink:href="#mfc518bbc66" y="524.95" stroke="#000" stroke-width=".8" id="line2d_8"/><g id="text_4"><defs><path d="M 31.78125 34.625 Q 24.75 34.625 20.71875 30.859375 Q 16.703125 27.09375 16.703125 20.515625 Q 16.703125 13.921875 20.71875 10.15625 Q 24.75 6.390625 31.78125 6.390625 Q 38.8125 6.390625 42.859375 10.171875 Q 46.921875 13.96875 46.921875 20.515625 Q 46.921875 27.09375 42.890625 30.859375 Q 38.875 34.625 31.78125 34.625 z M 21.921875 38.8125 Q 15.578125 40.375 12.03125 44.71875 Q 8.5 49.078125 8.5 55.328125 Q 8.5 64.0625 14.71875 69.140625 Q 20.953125 74.21875 31.78125 74.21875 Q 42.671875 74.21875 48.875 69.140625 Q 55.078125 64.0625 55.078125 55.328125 Q 55.078125 49.078125 51.53125 44.71875 Q 48 40.375 41.703125 38.8125 Q 48.828125 37.15625 52.796875 32.3125 Q 56.78125 27.484375 56.78125 20.515625 Q 56.78125 9.90625 50.3125 4.234375 Q 43.84375 -1.421875 31.78125 -1.421875 Q 19.734375 -1.421875 13.25 4.234375 Q 6.78125 9.90625 6.78125 20.515625 Q 6.78125 27.484375 10.78125 32.3125 Q 14.796875 37.15625 21.921875 38.8125 z M 18.3125 54.390625 Q 18.3125 48.734375 21.84375 45.5625 Q 25.390625 42.390625 31.78125 42.390625 Q 38.140625 42.390625 41.71875 45.5625 Q 45.3125 48.734375 45.3125 54.390625 Q 45.3125 60.0625 41.71875 63.234375 Q 38.140625 66.40625 31.78125 66.40625 Q 25.390625 66.40625 21.84375 63.234375 Q 18.3125 60.0625 18.3125 54.390625 z" id="DejaVuSans-56"/></defs><g transform="matrix(0 -.1 -.1 0 93.787 544.675)"><use xlink:href="#DejaVuSans-50"/><use x="63.623" xlink:href="#DejaVuSans-56"/></g></g></g><g id="xtick_5"><path clip-path="url(#p74d9dedb55)" d="M 104.413766 524.95 L 104.413766 26.88" fill="none" stroke="#b0b0b0" stroke-linecap="square" stroke-width=".8" id="line2d_9"/><use x="104.414" xlink:href="#mfc518bbc66" y="524.95" stroke="#000" stroke-width=".8" id="line2d_10"/><g id="text_5"><defs><path d="M 40.578125 39.3125 Q 47.65625 37.796875 51.625 33 Q 55.609375 28.21875 55.609375 21.1875 Q 55.609375 10.40625 48.1875 4.484375 Q 40.765625 -1.421875 27.09375 -1.421875 Q 22.515625 -1.421875 17.65625 -0.515625 Q 12.796875 0.390625 7.625 2.203125 L 7.625 11.71875 Q 11.71875 9.328125 16.59375 8.109375 Q 21.484375 6.890625 26.8125 6.890625 Q 36.078125 6.890625 40.9375 10.546875 Q 45.796875 14.203125 45.796875 21.1875 Q 45.796875 27.640625 41.28125 31.265625 Q 36.765625 34.90625 28.71875 34.90625 L 20.21875 34.90625 L 20.21875 43.015625 L 29.109375 43.015625 Q 36.375 43.015625 40.234375 45.921875 Q 44.09375 48.828125 44.09375 54.296875 Q 44.09375 59.90625 40.109375 62.90625 Q 36.140625 65.921875 28.71875 65.921875 Q 24.65625 65.921875 20.015625 65.03125 Q 15.375 64.15625 9.8125 62.3125 L 9.8125 71.09375 Q 15.4375 72.65625 20.34375 73.4375 Q 25.25 74.21875 29.59375 74.21875 Q 40.828125 74.21875 47.359375 69.109375 Q 53.90625 64.015625 53.90625 55.328125 Q 53.90625 49.265625 50.4375 45.09375 Q 46.96875 40.921875 40.578125 39.3125 z" id="DejaVuSans-51"/></defs><g transform="matrix(0 -.1 -.1 0 107.173 544.675)"><use xlink:href="#DejaVuSans-51"/><use x="63.623" xlink:href="#DejaVuSans-50"/></g></g></g><g id="xtick_6"><path clip-path="url(#p74d9dedb55)" d="M 117.799707 524.95 L 117.799707 26.88" fill="none" stroke="#b0b0b0" stroke-linecap="square" stroke-width=".8" id="line2d_11"/><use x="117.8" xlink:href="#mfc518bbc66" y="524.95" stroke="#000" stroke-width=".8" id="line2d_12"/><g transform="matrix(0 -.1 -.1 0 120.56 544.675)" id="text_6"><use xlink:href="#DejaVuSans-51"/><use x="63.623" xlink:href="#DejaVuSans-54"/></g></g><g id="xtick_7"><path clip-path="url(#p74d9dedb55)" d="M 131.185649 524.95 L 131.185649 26.88" fill="none" stroke="#b0b0b0" stroke-linecap="square" stroke-width=".8" id="line2d_13"/><use x="131.186" xlink:href="#mfc518bbc66" y="524.95" stroke="#000" stroke-width=".8" id="line2d_14"/><g transform="matrix(0 -.1 -.1 0 133.945 544.675)" id="text_7"><use xlink:href="#DejaVuSans-52"/><use x="63.623" xlink:href="#DejaVuSans-48"/></g></g><g id="xtick_8"><path clip-path="url(#p74d9dedb55)" d="M 144.57159 524.95 L 144.57159 26.88" fill="none" stroke="#b0b0b0" stroke-linecap="square" stroke-width=".8" id="line2d_15"/><use x="144.572" xlink:href="#mfc518bbc66" y="524.95" stroke="#000" stroke-width=".8" id="line2d_16"/><g transform="matrix(0 -.1 -.1 0 147.331 544.675)" id="text_8"><use xlink:href="#DejaVuSans-52"/><use x="63.623" xlink:href="#DejaVuSans-52"/></g></g><g id="xtick_9"><path clip-path="url(#p74d9dedb55)" d="M 157.957531 524.95 L 157.957531 26.88" fill="none" stroke="#b0b0b0" stroke-linecap="square" stroke-width=".8" id="line2d_17"/><use x="157.958" xlink:href="#mfc518bbc66" y="524.95" stroke="#000" stroke-width=".8" id="line2d_18"/><g transform="matrix(0 -.1 -.1 0 160.717 544.675)" id="text_9"><use xlink:href="#DejaVuSans-52"/><use x="63.623" xlink:href="#DejaVuSans-56"/></g></g><g id="xtick_10"><path clip-path="url(#p74d9dedb55)" d="M 171.343473 524.95 L 171.343473 26.88" fill="none" stroke="#b0b0b0" stroke-linecap="square" stroke-width=".8" id="line2d_19"/><use x="171.343" xlink:href="#mfc518bbc66" y="524.95" stroke="#000" stroke-width=".8" id="line2d_20"/><g id="text_10"><defs><path d="M 10.796875 72.90625 L 49.515625 72.90625 L 49.515625 64.59375 L 19.828125 64.59375 L 19.828125 46.734375 Q 21.96875 47.46875 24.109375 47.828125 Q 26.265625 48.1875 28.421875 48.1875 Q 40.625 48.1875 47.75 41.5 Q 54.890625 34.8125 54.890625 23.390625 Q 54.890625 11.625 47.5625 5.09375 Q 40.234375 -1.421875 26.90625 -1.421875 Q 22.3125 -1.421875 17.546875 -0.640625 Q 12.796875 0.140625 7.71875 1.703125 L 7.71875 11.625 Q 12.109375 9.234375 16.796875 8.0625 Q 21.484375 6.890625 26.703125 6.890625 Q 35.15625 6.890625 40.078125 11.328125 Q 45.015625 15.765625 45.015625 23.390625 Q 45.015625 31 40.078125 35.4375 Q 35.15625 39.890625 26.703125 39.890625 Q 22.75 39.890625 18.8125 39.015625 Q 14.890625 38.140625 10.796875 36.28125 z" id="DejaVuSans-53"/></defs><g transform="matrix(0 -.1 -.1 0 174.103 544.675)"><use xlink:href="#DejaVuSans-53"/><use x="63.623" xlink:href="#DejaVuSans-50"/></g></g></g><g id="xtick_11"><path clip-path="url(#p74d9dedb55)" d="M 184.729414 524.95 L 184.729414 26.88" fill="none" stroke="#b0b0b0" stroke-linecap="square" stroke-width=".8" id="line2d_21"/><use x="184.729" xlink:href="#mfc518bbc66" y="524.95" stroke="#000" stroke-width=".8" id="line2d_22"/><g transform="matrix(0 -.1 -.1 0 187.489 544.675)" id="text_11"><use xlink:href="#DejaVuSans-53"/><use x="63.623" xlink:href="#DejaVuSans-54"/></g></g><g id="xtick_12"><path clip-path="url(#p74d9dedb55)" d="M 198.115356 524.95 L 198.115356 26.88" fill="none" stroke="#b0b0b0" stroke-linecap="square" stroke-width=".8" id="line2d_23"/><use x="198.115" xlink:href="#mfc518bbc66" y="524.95" stroke="#000" stroke-width=".8" id="line2d_24"/><g transform="matrix(0 -.1 -.1 0 200.875 544.675)" id="text_12"><use xlink:href="#DejaVuSans-54"/><use x="63.623" xlink:href="#DejaVuSans-48"/></g></g><g id="xtick_13"><path clip-path="url(#p74d9dedb55)" d="M 211.501297 524.95 L 211.501297 26.88" fill="none" stroke="#b0b0b0" stroke-linecap="square" stroke-width=".8" id="line2d_25"/><use x="211.501" xlink:href="#mfc518bbc66" y="524.95" stroke="#000" stroke-width=".8" id="line2d_26"/><g transform="matrix(0 -.1 -.1 0 214.26 544.675)" id="text_13"><use xlink:href="#DejaVuSans-54"/><use x="63.623" xlink:href="#DejaVuSans-52"/></g></g><g id="xtick_14"><path clip-path="url(#p74d9dedb55)" d="M 224.887238 524.95 L 224.887238 26.88" fill="none" stroke="#b0b0b0" stroke-linecap="square" stroke-width=".8" id="line2d_27"/><use x="224.887" xlink:href="#mfc518bbc66" y="524.95" stroke="#000" stroke-width=".8" id="line2d_28"/><g transform="matrix(0 -.1 -.1 0 227.647 544.675)" id="text_14"><use xlink:href="#DejaVuSans-54"/><use x="63.623" xlink:href="#DejaVuSans-56"/></g></g><g id="xtick_15"><path clip-path="url(#p74d9dedb55)" d="M 238.27318 524.95 L 238.27318 26.88" fill="none" stroke="#b0b0b0" stroke-linecap="square" stroke-width=".8" id="line2d_29"/><use x="238.273" xlink:href="#mfc518bbc66" y="524.95" stroke="#000" stroke-width=".8" id="line2d_30"/><g id="text_15"><defs><path d="M 8.203125 72.90625 L 55.078125 72.90625 L 55.078125 68.703125 L 28.609375 0 L 18.3125 0 L 43.21875 64.59375 L 8.203125 64.59375 z" id="DejaVuSans-55"/></defs><g transform="matrix(0 -.1 -.1 0 241.033 544.675)"><use xlink:href="#DejaVuSans-55"/><use x="63.623" xlink:href="#DejaVuSans-50"/></g></g></g><g id="xtick_16"><path clip-path="url(#p74d9dedb55)" d="M 251.659121 524.95 L 251.659121 26.88" fill="none" stroke="#b0b0b0" stroke-linecap="square" stroke-width=".8" id="line2d_31"/><use x="251.659" xlink:href="#mfc518bbc66" y="524.95" stroke="#000" stroke-width=".8" id="line2d_32"/><g transform="matrix(0 -.1 -.1 0 254.418 544.675)" id="text_16"><use xlink:href="#DejaVuSans-55"/><use x="63.623" xlink:href="#DejaVuSans-54"/></g></g><g id="xtick_17"><path clip-path="url(#p74d9dedb55)" d="M 265.045063 524.95 L 265.045063 26.88" fill="none" stroke="#b0b0b0" stroke-linecap="square" stroke-width=".8" id="line2d_33"/><use x="265.045" xlink:href="#mfc518bbc66" y="524.95" stroke="#000" stroke-width=".8" id="line2d_34"/><g transform="matrix(0 -.1 -.1 0 267.804 544.675)" id="text_17"><use xlink:href="#DejaVuSans-56"/><use x="63.623" xlink:href="#DejaVuSans-48"/></g></g><g id="xtick_18"><path clip-path="url(#p74d9dedb55)" d="M 278.431004 524.95 L 278.431004 26.88" fill="none" stroke="#b0b0b0" stroke-linecap="square" stroke-width=".8" id="line2d_35"/><use x="278.431" xlink:href="#mfc518bbc66" y="524.95" stroke="#000" stroke-width=".8" id="line2d_36"/><g transform="matrix(0 -.1 -.1 0 281.19 544.675)" id="text_18"><use xlink:href="#DejaVuSans-56"/><use x="63.623" xlink:href="#DejaVuSans-52"/></g></g><g id="xtick_19"><path clip-path="url(#p74d9dedb55)" d="M 291.816946 524.95 L 291.816946 26.88" fill="none" stroke="#b0b0b0" stroke-linecap="square" stroke-width=".8" id="line2d_37"/><use x="291.817" xlink:href="#mfc518bbc66" y="524.95" stroke="#000" stroke-width=".8" id="line2d_38"/><g transform="matrix(0 -.1 -.1 0 294.576 544.675)" id="text_19"><use xlink:href="#DejaVuSans-56"/><use x="63.623" xlink:href="#DejaVuSans-56"/></g></g><g id="xtick_20"><path clip-path="url(#p74d9dedb55)" d="M 305.202887 524.95 L 305.202887 26.88" fill="none" stroke="#b0b0b0" stroke-linecap="square" stroke-width=".8" id="line2d_39"/><use x="305.203" xlink:href="#mfc518bbc66" y="524.95" stroke="#000" stroke-width=".8" id="line2d_40"/><g id="text_20"><defs><path d="M 10.984375 1.515625 L 10.984375 10.5 Q 14.703125 8.734375 18.5 7.8125 Q 22.3125 6.890625 25.984375 6.890625 Q 35.75 6.890625 40.890625 13.453125 Q 46.046875 20.015625 46.78125 33.40625 Q 43.953125 29.203125 39.59375 26.953125 Q 35.25 24.703125 29.984375 24.703125 Q 19.046875 24.703125 12.671875 31.3125 Q 6.296875 37.9375 6.296875 49.421875 Q 6.296875 60.640625 12.9375 67.421875 Q 19.578125 74.21875 30.609375 74.21875 Q 43.265625 74.21875 49.921875 64.515625 Q 56.59375 54.828125 56.59375 36.375 Q 56.59375 19.140625 48.40625 8.859375 Q 40.234375 -1.421875 26.421875 -1.421875 Q 22.703125 -1.421875 18.890625 -0.6875 Q 15.09375 0.046875 10.984375 1.515625 z M 30.609375 32.421875 Q 37.25 32.421875 41.125 36.953125 Q 45.015625 41.5 45.015625 49.421875 Q 45.015625 57.28125 41.125 61.84375 Q 37.25 66.40625 30.609375 66.40625 Q 23.96875 66.40625 20.09375 61.84375 Q 16.21875 57.28125 16.21875 49.421875 Q 16.21875 41.5 20.09375 36.953125 Q 23.96875 32.421875 30.609375 32.421875 z" id="DejaVuSans-57"/></defs><g transform="matrix(0 -.1 -.1 0 307.962 544.675)"><use xlink:href="#DejaVuSans-57"/><use x="63.623" xlink:href="#DejaVuSans-50"/></g></g></g><g id="xtick_21"><path clip-path="url(#p74d9dedb55)" d="M 318.588828 524.95 L 318.588828 26.88" fill="none" stroke="#b0b0b0" stroke-linecap="square" stroke-width=".8" id="line2d_41"/><use x="318.589" xlink:href="#mfc518bbc66" y="524.95" stroke="#000" stroke-width=".8" id="line2d_42"/><g transform="matrix(0 -.1 -.1 0 321.348 544.675)" id="text_21"><use xlink:href="#DejaVuSans-57"/><use x="63.623" xlink:href="#DejaVuSans-54"/></g></g><g id="xtick_22"><path clip-path="url(#p74d9dedb55)" d="M 331.97477 524.95 L 331.97477 26.88" fill="none" stroke="#b0b0b0" stroke-linecap="square" stroke-width=".8" id="line2d_43"/><use x="331.975" xlink:href="#mfc518bbc66" y="524.95" stroke="#000" stroke-width=".8" id="line2d_44"/><g transform="matrix(0 -.1 -.1 0 334.734 551.038)" id="text_22"><use xlink:href="#DejaVuSans-49"/><use x="63.623" xlink:href="#DejaVuSans-48"/><use x="127.246" xlink:href="#DejaVuSans-48"/></g></g><g id="xtick_23"><path clip-path="url(#p74d9dedb55)" d="M 345.360711 524.95 L 345.360711 26.88" fill="none" stroke="#b0b0b0" stroke-linecap="square" stroke-width=".8" id="line2d_45"/><use x="345.361" xlink:href="#mfc518bbc66" y="524.95" stroke="#000" stroke-width=".8" id="line2d_46"/><g transform="matrix(0 -.1 -.1 0 348.12 551.038)" id="text_23"><use xlink:href="#DejaVuSans-49"/><use x="63.623" xlink:href="#DejaVuSans-48"/><use x="127.246" xlink:href="#DejaVuSans-52"/></g></g><g id="xtick_24"><path clip-path="url(#p74d9dedb55)" d="M 358.746653 524.95 L 358.746653 26.88" fill="none" stroke="#b0b0b0" stroke-linecap="square" stroke-width=".8" id="line2d_47"/><use x="358.747" xlink:href="#mfc518bbc66" y="524.95" stroke="#000" stroke-width=".8" id="line2d_48"/><g transform="matrix(0 -.1 -.1 0 361.506 551.038)" id="text_24"><use xlink:href="#DejaVuSans-49"/><use x="63.623" xlink:href="#DejaVuSans-48"/><use x="127.246" xlink:href="#DejaVuSans-56"/></g></g><g id="xtick_25"><path clip-path="url(#p74d9dedb55)" d="M 372.132594 524.95 L 372.132594 26.88" fill="none" stroke="#b0b0b0" stroke-linecap="square" stroke-width=".8" id="line2d_49"/><use x="372.133" xlink:href="#mfc518bbc66" y="524.95" stroke="#000" stroke-width=".8" id="line2d_50"/><g transform="matrix(0 -.1 -.1 0 374.892 551.038)" id="text_25"><use xlink:href="#DejaVuSans-49"/><use x="63.623" xlink:href="#DejaVuSans-49"/><use x="127.246" xlink:href="#DejaVuSans-50"/></g></g><g id="xtick_26"><path clip-path="url(#p74d9dedb55)" d="M 385.518536 524.95 L 385.518536 26.88" fill="none" stroke="#b0b0b0" stroke-linecap="square" stroke-width=".8" id="line2d_51"/><use x="385.519" xlink:href="#mfc518bbc66" y="524.95" stroke="#000" stroke-width=".8" id="line2d_52"/><g transform="matrix(0 -.1 -.1 0 388.278 551.038)" id="text_26"><use xlink:href="#DejaVuSans-49"/><use x="63.623" xlink:href="#DejaVuSans-49"/><use x="127.246" xlink:href="#DejaVuSans-54"/></g></g><g id="xtick_27"><path clip-path="url(#p74d9dedb55)" d="M 398.904477 524.95 L 398.904477 26.88" fill="none" stroke="#b0b0b0" stroke-linecap="square" stroke-width=".8" id="line2d_53"/><use x="398.904" xlink:href="#mfc518bbc66" y="524.95" stroke="#000" stroke-width=".8" id="line2d_54"/><g transform="matrix(0 -.1 -.1 0 401.664 551.038)" id="text_27"><use xlink:href="#DejaVuSans-49"/><use x="63.623" xlink:href="#DejaVuSans-50"/><use x="127.246" xlink:href="#DejaVuSans-48"/></g></g><g id="xtick_28"><path clip-path="url(#p74d9dedb55)" d="M 412.290418 524.95 L 412.290418 26.88" fill="none" stroke="#b0b0b0" stroke-linecap="square" stroke-width=".8" id="line2d_55"/><use x="412.29" xlink:href="#mfc518bbc66" y="524.95" stroke="#000" stroke-width=".8" id="line2d_56"/><g transform="matrix(0 -.1 -.1 0 415.05 551.038)" id="text_28"><use xlink:href="#DejaVuSans-49"/><use x="63.623" xlink:href="#DejaVuSans-50"/><use x="127.246" xlink:href="#DejaVuSans-52"/></g></g><g id="xtick_29"><path clip-path="url(#p74d9dedb55)" d="M 425.67636 524.95 L 425.67636 26.88" fill="none" stroke="#b0b0b0" stroke-linecap="square" stroke-width=".8" id="line2d_57"/><use x="425.676" xlink:href="#mfc518bbc66" y="524.95" stroke="#000" stroke-width=".8" id="line2d_58"/><g transform="matrix(0 -.1 -.1 0 428.436 551.038)" id="text_29"><use xlink:href="#DejaVuSans-49"/><use x="63.623" xlink:href="#DejaVuSans-50"/><use x="127.246" xlink:href="#DejaVuSans-56"/></g></g><g id="xtick_30"><path clip-path="url(#p74d9dedb55)" d="M 439.062301 524.95 L 439.062301 26.88" fill="none" stroke="#b0b0b0" stroke-linecap="square" stroke-width=".8" id="line2d_59"/><use x="439.062" xlink:href="#mfc518bbc66" y="524.95" stroke="#000" stroke-width=".8" id="line2d_60"/><g transform="matrix(0 -.1 -.1 0 441.822 551.038)" id="text_30"><use xlink:href="#DejaVuSans-49"/><use x="63.623" xlink:href="#DejaVuSans-51"/><use x="127.246" xlink:href="#DejaVuSans-50"/></g></g><g id="xtick_31"><path clip-path="url(#p74d9dedb55)" d="M 452.448243 524.95 L 452.448243 26.88" fill="none" stroke="#b0b0b0" stroke-linecap="square" stroke-width=".8" id="line2d_61"/><use x="452.448" xlink:href="#mfc518bbc66" y="524.95" stroke="#000" stroke-width=".8" id="line2d_62"/><g transform="matrix(0 -.1 -.1 0 455.208 551.038)" id="text_31"><use xlink:href="#DejaVuSans-49"/><use x="63.623" xlink:href="#DejaVuSans-51"/><use x="127.246" xlink:href="#DejaVuSans-54"/></g></g><g id="xtick_32"><path clip-path="url(#p74d9dedb55)" d="M 465.834184 524.95 L 465.834184 26.88" fill="none" stroke="#b0b0b0" stroke-linecap="square" stroke-width=".8" id="line2d_63"/><use x="465.834" xlink:href="#mfc518bbc66" y="524.95" stroke="#000" stroke-width=".8" id="line2d_64"/><g transform="matrix(0 -.1 -.1 0 468.594 551.038)" id="text_32"><use xlink:href="#DejaVuSans-49"/><use x="63.623" xlink:href="#DejaVuSans-52"/><use x="127.246" xlink:href="#DejaVuSans-48"/></g></g><g id="xtick_33"><path clip-path="url(#p74d9dedb55)" d="M 479.220126 524.95 L 479.220126 26.88" fill="none" stroke="#b0b0b0" stroke-linecap="square" stroke-width=".8" id="line2d_65"/><use x="479.22" xlink:href="#mfc518bbc66" y="524.95" stroke="#000" stroke-width=".8" id="line2d_66"/><g transform="matrix(0 -.1 -.1 0 481.98 551.038)" id="text_33"><use xlink:href="#DejaVuSans-49"/><use x="63.623" xlink:href="#DejaVuSans-52"/><use x="127.246" xlink:href="#DejaVuSans-52"/></g></g><g id="xtick_34"><path clip-path="url(#p74d9dedb55)" d="M 492.606067 524.95 L 492.606067 26.88" fill="none" stroke="#b0b0b0" stroke-linecap="square" stroke-width=".8" id="line2d_67"/><use x="492.606" xlink:href="#mfc518bbc66" y="524.95" stroke="#000" stroke-width=".8" id="line2d_68"/><g transform="matrix(0 -.1 -.1 0 495.365 551.038)" id="text_34"><use xlink:href="#DejaVuSans-49"/><use x="63.623" xlink:href="#DejaVuSans-52"/><use x="127.246" xlink:href="#DejaVuSans-56"/></g></g><g id="xtick_35"><path clip-path="url(#p74d9dedb55)" d="M 505.992008 524.95 L 505.992008 26.88" fill="none" stroke="#b0b0b0" stroke-linecap="square" stroke-width=".8" id="line2d_69"/><use x="505.992" xlink:href="#mfc518bbc66" y="524.95" stroke="#000" stroke-width=".8" id="line2d_70"/><g transform="matrix(0 -.1 -.1 0 508.751 551.038)" id="text_35"><use xlink:href="#DejaVuSans-49"/><use x="63.623" xlink:href="#DejaVuSans-53"/><use x="127.246" xlink:href="#DejaVuSans-50"/></g></g><g id="xtick_36"><path clip-path="url(#p74d9dedb55)" d="M 519.37795 524.95 L 519.37795 26.88" fill="none" stroke="#b0b0b0" stroke-linecap="square" stroke-width=".8" id="line2d_71"/><use x="519.378" xlink:href="#mfc518bbc66" y="524.95" stroke="#000" stroke-width=".8" id="line2d_72"/><g transform="matrix(0 -.1 -.1 0 522.137 551.038)" id="text_36"><use xlink:href="#DejaVuSans-49"/><use x="63.623" xlink:href="#DejaVuSans-53"/><use x="127.246" xlink:href="#DejaVuSans-54"/></g></g><g id="xtick_37"><path clip-path="url(#p74d9dedb55)" d="M 532.763891 524.95 L 532.763891 26.88" fill="none" stroke="#b0b0b0" stroke-linecap="square" stroke-width=".8" id="line2d_73"/><use x="532.764" xlink:href="#mfc518bbc66" y="524.95" stroke="#000" stroke-width=".8" id="line2d_74"/><g transform="matrix(0 -.1 -.1 0 535.523 551.038)" id="text_37"><use xlink:href="#DejaVuSans-49"/><use x="63.623" xlink:href="#DejaVuSans-54"/><use x="127.246" xlink:href="#DejaVuSans-48"/></g></g><g id="xtick_38"><path clip-path="url(#p74d9dedb55)" d="M 546.149833 524.95 L 546.149833 26.88" fill="none" stroke="#b0b0b0" stroke-linecap="square" stroke-width=".8" id="line2d_75"/><use x="546.15" xlink:href="#mfc518bbc66" y="524.95" stroke="#000" stroke-width=".8" id="line2d_76"/><g transform="matrix(0 -.1 -.1 0 548.91 551.038)" id="text_38"><use xlink:href="#DejaVuSans-49"/><use x="63.623" xlink:href="#DejaVuSans-54"/><use x="127.246" xlink:href="#DejaVuSans-52"/></g></g><g id="xtick_39"><path clip-path="url(#p74d9dedb55)" d="M 559.535774 524.95 L 559.535774 26.88" fill="none" stroke="#b0b0b0" stroke-linecap="square" stroke-width=".8" id="line2d_77"/><use x="559.536" xlink:href="#mfc518bbc66" y="524.95" stroke="#000" stroke-width=".8" id="line2d_78"/><g transform="matrix(0 -.1 -.1 0 562.295 551.038)" id="text_39"><use xlink:href="#DejaVuSans-49"/><use x="63.623" xlink:href="#DejaVuSans-54"/><use x="127.246" xlink:href="#DejaVuSans-56"/></g></g><g id="xtick_40"><path clip-path="url(#p74d9dedb55)" d="M 572.921715 524.95 L 572.921715 26.88" fill="none" stroke="#b0b0b0" stroke-linecap="square" stroke-width=".8" id="line2d_79"/><use x="572.922" xlink:href="#mfc518bbc66" y="524.95" stroke="#000" stroke-width=".8" id="line2d_80"/><g transform="matrix(0 -.1 -.1 0 575.681 551.038)" id="text_40"><use xlink:href="#DejaVuSans-49"/><use x="63.623" xlink:href="#DejaVuSans-55"/><use x="127.246" xlink:href="#DejaVuSans-50"/></g></g><g id="xtick_41"><path clip-path="url(#p74d9dedb55)" d="M 586.307657 524.95 L 586.307657 26.88" fill="none" stroke="#b0b0b0" stroke-linecap="square" stroke-width=".8" id="line2d_81"/><use x="586.308" xlink:href="#mfc518bbc66" y="524.95" stroke="#000" stroke-width=".8" id="line2d_82"/><g transform="matrix(0 -.1 -.1 0 589.067 551.038)" id="text_41"><use xlink:href="#DejaVuSans-49"/><use x="63.623" xlink:href="#DejaVuSans-55"/><use x="127.246" xlink:href="#DejaVuSans-54"/></g></g><g id="xtick_42"><path clip-path="url(#p74d9dedb55)" d="M 599.693598 524.95 L 599.693598 26.88" fill="none" stroke="#b0b0b0" stroke-linecap="square" stroke-width=".8" id="line2d_83"/><use x="599.694" xlink:href="#mfc518bbc66" y="524.95" stroke="#000" stroke-width=".8" id="line2d_84"/><g transform="matrix(0 -.1 -.1 0 602.453 551.038)" id="text_42"><use xlink:href="#DejaVuSans-49"/><use x="63.623" xlink:href="#DejaVuSans-56"/><use x="127.246" xlink:href="#DejaVuSans-48"/></g></g><g id="xtick_43"><path clip-path="url(#p74d9dedb55)" d="M 613.07954 524.95 L 613.07954 26.88" fill="none" stroke="#b0b0b0" stroke-linecap="square" stroke-width=".8" id="line2d_85"/><use x="613.08" xlink:href="#mfc518bbc66" y="524.95" stroke="#000" stroke-width=".8" id="line2d_86"/><g transform="matrix(0 -.1 -.1 0 615.839 551.038)" id="text_43"><use xlink:href="#DejaVuSans-49"/><use x="63.623" xlink:href="#DejaVuSans-56"/><use x="127.246" xlink:href="#DejaVuSans-52"/></g></g><g id="xtick_44"><path clip-path="url(#p74d9dedb55)" d="M 626.465481 524.95 L 626.465481 26.88" fill="none" stroke="#b0b0b0" stroke-linecap="square" stroke-width=".8" id="line2d_87"/><use x="626.465" xlink:href="#mfc518bbc66" y="524.95" stroke="#000" stroke-width=".8" id="line2d_88"/><g transform="matrix(0 -.1 -.1 0 629.225 551.038)" id="text_44"><use xlink:href="#DejaVuSans-49"/><use x="63.623" xlink:href="#DejaVuSans-56"/><use x="127.246" xlink:href="#DejaVuSans-56"/></g></g><g id="xtick_45"><path clip-path="url(#p74d9dedb55)" d="M 639.851423 524.95 L 639.851423 26.88" fill="none" stroke="#b0b0b0" stroke-linecap="square" stroke-width=".8" id="line2d_89"/><use x="639.851" xlink:href="#mfc518bbc66" y="524.95" stroke="#000" stroke-width=".8" id="line2d_90"/><g transform="matrix(0 -.1 -.1 0 642.61 551.038)" id="text_45"><use xlink:href="#DejaVuSans-49"/><use x="63.623" xlink:href="#DejaVuSans-57"/><use x="127.246" xlink:href="#DejaVuSans-50"/></g></g><g id="xtick_46"><path clip-path="url(#p74d9dedb55)" d="M 653.237364 524.95 L 653.237364 26.88" fill="none" stroke="#b0b0b0" stroke-linecap="square" stroke-width=".8" id="line2d_91"/><use x="653.237" xlink:href="#mfc518bbc66" y="524.95" stroke="#000" stroke-width=".8" id="line2d_92"/><g transform="matrix(0 -.1 -.1 0 655.997 551.038)" id="text_46"><use xlink:href="#DejaVuSans-49"/><use x="63.623" xlink:href="#DejaVuSans-57"/><use x="127.246" xlink:href="#DejaVuSans-54"/></g></g><g id="xtick_47"><path clip-path="url(#p74d9dedb55)" d="M 666.623305 524.95 L 666.623305 26.88" fill="none" stroke="#b0b0b0" stroke-linecap="square" stroke-width=".8" id="line2d_93"/><use x="666.623" xlink:href="#mfc518bbc66" y="524.95" stroke="#000" stroke-width=".8" id="line2d_94"/><g transform="matrix(0 -.1 -.1 0 669.383 551.038)" id="text_47"><use xlink:href="#DejaVuSans-50"/><use x="63.623" xlink:href="#DejaVuSans-48"/><use x="127.246" xlink:href="#DejaVuSans-48"/></g></g><g id="xtick_48"><path clip-path="url(#p74d9dedb55)" d="M 680.009247 524.95 L 680.009247 26.88" fill="none" stroke="#b0b0b0" stroke-linecap="square" stroke-width=".8" id="line2d_95"/><use x="680.009" xlink:href="#mfc518bbc66" y="524.95" stroke="#000" stroke-width=".8" id="line2d_96"/><g transform="matrix(0 -.1 -.1 0 682.769 551.038)" id="text_48"><use xlink:href="#DejaVuSans-50"/><use x="63.623" xlink:href="#DejaVuSans-48"/><use x="127.246" xlink:href="#DejaVuSans-52"/></g></g><g id="xtick_49"><path clip-path="url(#p74d9dedb55)" d="M 693.395188 524.95 L 693.395188 26.88" fill="none" stroke="#b0b0b0" stroke-linecap="square" stroke-width=".8" id="line2d_97"/><use x="693.395" xlink:href="#mfc518bbc66" y="524.95" stroke="#000" stroke-width=".8" id="line2d_98"/><g transform="matrix(0 -.1 -.1 0 696.155 551.038)" id="text_49"><use xlink:href="#DejaVuSans-50"/><use x="63.623" xlink:href="#DejaVuSans-48"/><use x="127.246" xlink:href="#DejaVuSans-56"/></g></g><g id="xtick_50"><path clip-path="url(#p74d9dedb55)" d="M 706.78113 524.95 L 706.78113 26.88" fill="none" stroke="#b0b0b0" stroke-linecap="square" stroke-width=".8" id="line2d_99"/><use x="706.781" xlink:href="#mfc518bbc66" y="524.95" stroke="#000" stroke-width=".8" id="line2d_100"/><g transform="matrix(0 -.1 -.1 0 709.54 551.038)" id="text_50"><use xlink:href="#DejaVuSans-50"/><use x="63.623" xlink:href="#DejaVuSans-49"/><use x="127.246" xlink:href="#DejaVuSans-50"/></g></g><g id="xtick_51"><path clip-path="url(#p74d9dedb55)" d="M 720.167071 524.95 L 720.167071 26.88" fill="none" stroke="#b0b0b0" stroke-linecap="square" stroke-width=".8" id="line2d_101"/><use x="720.167" xlink:href="#mfc518bbc66" y="524.95" stroke="#000" stroke-width=".8" id="line2d_102"/><g transform="matrix(0 -.1 -.1 0 722.926 551.038)" id="text_51"><use xlink:href="#DejaVuSans-50"/><use x="63.623" xlink:href="#DejaVuSans-49"/><use x="127.246" xlink:href="#DejaVuSans-54"/></g></g><g id="xtick_52"><path clip-path="url(#p74d9dedb55)" d="M 733.553013 524.95 L 733.553013 26.88" fill="none" stroke="#b0b0b0" stroke-linecap="square" stroke-width=".8" id="line2d_103"/><use x="733.553" xlink:href="#mfc518bbc66" y="524.95" stroke="#000" stroke-width=".8" id="line2d_104"/><g transform="matrix(0 -.1 -.1 0 736.312 551.038)" id="text_52"><use xlink:href="#DejaVuSans-50"/><use x="63.623" xlink:href="#DejaVuSans-50"/><use x="127.246" xlink:href="#DejaVuSans-48"/></g></g><g id="xtick_53"><path clip-path="url(#p74d9dedb55)" d="M 746.938954 524.95 L 746.938954 26.88" fill="none" stroke="#b0b0b0" stroke-linecap="square" stroke-width=".8" id="line2d_105"/><use x="746.939" xlink:href="#mfc518bbc66" y="524.95" stroke="#000" stroke-width=".8" id="line2d_106"/><g transform="matrix(0 -.1 -.1 0 749.698 551.038)" id="text_53"><use xlink:href="#DejaVuSans-50"/><use x="63.623" xlink:href="#DejaVuSans-50"/><use x="127.246" xlink:href="#DejaVuSans-52"/></g></g><g id="xtick_54"><path clip-path="url(#p74d9dedb55)" d="M 760.324895 524.95 L 760.324895 26.88" fill="none" stroke="#b0b0b0" stroke-linecap="square" stroke-width=".8" id="line2d_107"/><use x="760.325" xlink:href="#mfc518bbc66" y="524.95" stroke="#000" stroke-width=".8" id="line2d_108"/><g transform="matrix(0 -.1 -.1 0 763.084 551.038)" id="text_54"><use xlink:href="#DejaVuSans-50"/><use x="63.623" xlink:href="#DejaVuSans-50"/><use x="127.246" xlink:href="#DejaVuSans-56"/></g></g><g id="xtick_55"><path clip-path="url(#p74d9dedb55)" d="M 773.710837 524.95 L 773.710837 26.88" fill="none" stroke="#b0b0b0" stroke-linecap="square" stroke-width=".8" id="line2d_109"/><use x="773.711" xlink:href="#mfc518bbc66" y="524.95" stroke="#000" stroke-width=".8" id="line2d_110"/><g transform="matrix(0 -.1 -.1 0 776.47 551.038)" id="text_55"><use xlink:href="#DejaVuSans-50"/><use x="63.623" xlink:href="#DejaVuSans-51"/><use x="127.246" xlink:href="#DejaVuSans-50"/></g></g><g id="xtick_56"><path clip-path="url(#p74d9dedb55)" d="M 787.096778 524.95 L 787.096778 26.88" fill="none" stroke="#b0b0b0" stroke-linecap="square" stroke-width=".8" id="line2d_111"/><use x="787.097" xlink:href="#mfc518bbc66" y="524.95" stroke="#000" stroke-width=".8" id="line2d_112"/><g transform="matrix(0 -.1 -.1 0 789.856 551.038)" id="text_56"><use xlink:href="#DejaVuSans-50"/><use x="63.623" xlink:href="#DejaVuSans-51"/><use x="127.246" xlink:href="#DejaVuSans-54"/></g></g><g id="xtick_57"><path clip-path="url(#p74d9dedb55)" d="M 800.48272 524.95 L 800.48272 26.88" fill="none" stroke="#b0b0b0" stroke-linecap="square" stroke-width=".8" id="line2d_113"/><use x="800.483" xlink:href="#mfc518bbc66" y="524.95" stroke="#000" stroke-width=".8" id="line2d_114"/><g transform="matrix(0 -.1 -.1 0 803.242 551.038)" id="text_57"><use xlink:href="#DejaVuSans-50"/><use x="63.623" xlink:href="#DejaVuSans-52"/><use x="127.246" xlink:href="#DejaVuSans-48"/></g></g><g id="xtick_58"><path clip-path="url(#p74d9dedb55)" d="M 813.868661 524.95 L 813.868661 26.88" fill="none" stroke="#b0b0b0" stroke-linecap="square" stroke-width=".8" id="line2d_115"/><use x="813.869" xlink:href="#mfc518bbc66" y="524.95" stroke="#000" stroke-width=".8" id="line2d_116"/><g transform="matrix(0 -.1 -.1 0 816.628 551.038)" id="text_58"><use xlink:href="#DejaVuSans-50"/><use x="63.623" xlink:href="#DejaVuSans-52"/><use x="127.246" xlink:href="#DejaVuSans-52"/></g></g><g id="xtick_59"><path clip-path="url(#p74d9dedb55)" d="M 827.254603 524.95 L 827.254603 26.88" fill="none" stroke="#b0b0b0" stroke-linecap="square" stroke-width=".8" id="line2d_117"/><use x="827.255" xlink:href="#mfc518bbc66" y="524.95" stroke="#000" stroke-width=".8" id="line2d_118"/><g transform="matrix(0 -.1 -.1 0 830.014 551.038)" id="text_59"><use xlink:href="#DejaVuSans-50"/><use x="63.623" xlink:href="#DejaVuSans-52"/><use x="127.246" xlink:href="#DejaVuSans-56"/></g></g><g id="xtick_60"><path clip-path="url(#p74d9dedb55)" d="M 840.640544 524.95 L 840.640544 26.88" fill="none" stroke="#b0b0b0" stroke-linecap="square" stroke-width=".8" id="line2d_119"/><use x="840.641" xlink:href="#mfc518bbc66" y="524.95" stroke="#000" stroke-width=".8" id="line2d_120"/><g transform="matrix(0 -.1 -.1 0 843.4 551.038)" id="text_60"><use xlink:href="#DejaVuSans-50"/><use x="63.623" xlink:href="#DejaVuSans-53"/><use x="127.246" xlink:href="#DejaVuSans-50"/></g></g><g id="text_61"><defs><path d="M 54.890625 33.015625 L 54.890625 0 L 45.90625 0 L 45.90625 32.71875 Q 45.90625 40.484375 42.875 44.328125 Q 39.84375 48.1875 33.796875 48.1875 Q 26.515625 48.1875 22.3125 43.546875 Q 18.109375 38.921875 18.109375 30.90625 L 18.109375 0 L 9.078125 0 L 9.078125 54.6875 L 18.109375 54.6875 L 18.109375 46.1875 Q 21.34375 51.125 25.703125 53.5625 Q 30.078125 56 35.796875 56 Q 45.21875 56 50.046875 50.171875 Q 54.890625 44.34375 54.890625 33.015625 z" id="DejaVuSans-110"/><path d="M 9.8125 72.90625 L 51.703125 72.90625 L 51.703125 64.59375 L 19.671875 64.59375 L 19.671875 43.109375 L 48.578125 43.109375 L 48.578125 34.8125 L 19.671875 34.8125 L 19.671875 0 L 9.8125 0 z" id="DejaVuSans-70"/><path d="M 9.421875 75.984375 L 18.40625 75.984375 L 18.40625 0 L 9.421875 0 z" id="DejaVuSans-108"/><path d="M 56.203125 29.59375 L 56.203125 25.203125 L 14.890625 25.203125 Q 15.484375 15.921875 20.484375 11.0625 Q 25.484375 6.203125 34.421875 6.203125 Q 39.59375 6.203125 44.453125 7.46875 Q 49.3125 8.734375 54.109375 11.28125 L 54.109375 2.78125 Q 49.265625 0.734375 44.1875 -0.34375 Q 39.109375 -1.421875 33.890625 -1.421875 Q 20.796875 -1.421875 13.15625 6.1875 Q 5.515625 13.8125 5.515625 26.8125 Q 5.515625 40.234375 12.765625 48.109375 Q 20.015625 56 32.328125 56 Q 43.359375 56 49.78125 48.890625 Q 56.203125 41.796875 56.203125 29.59375 z M 47.21875 32.234375 Q 47.125 39.59375 43.09375 43.984375 Q 39.0625 48.390625 32.421875 48.390625 Q 24.90625 48.390625 20.390625 44.140625 Q 15.875 39.890625 15.1875 32.171875 z" id="DejaVuSans-101"/><path d="M 41.109375 46.296875 Q 39.59375 47.171875 37.8125 47.578125 Q 36.03125 48 33.890625 48 Q 26.265625 48 22.1875 43.046875 Q 18.109375 38.09375 18.109375 28.8125 L 18.109375 0 L 9.078125 0 L 9.078125 54.6875 L 18.109375 54.6875 L 18.109375 46.1875 Q 20.953125 51.171875 25.484375 53.578125 Q 30.03125 56 36.53125 56 Q 37.453125 56 38.578125 55.875 Q 39.703125 55.765625 41.0625 55.515625 z" id="DejaVuSans-114"/><path d="M 9.8125 72.90625 L 19.671875 72.90625 L 19.671875 0 L 9.8125 0 z" id="DejaVuSans-73"/><path d="M 9.421875 54.6875 L 18.40625 54.6875 L 18.40625 0 L 9.421875 0 z M 9.421875 75.984375 L 18.40625 75.984375 L 18.40625 64.59375 L 9.421875 64.59375 z" id="DejaVuSans-105"/><path d="M 44.28125 53.078125 L 44.28125 44.578125 Q 40.484375 46.53125 36.375 47.5 Q 32.28125 48.484375 27.875 48.484375 Q 21.1875 48.484375 17.84375 46.4375 Q 14.5 44.390625 14.5 40.28125 Q 14.5 37.15625 16.890625 35.375 Q 19.28125 33.59375 26.515625 31.984375 L 29.59375 31.296875 Q 39.15625 29.25 43.1875 25.515625 Q 47.21875 21.78125 47.21875 15.09375 Q 47.21875 7.46875 41.1875 3.015625 Q 35.15625 -1.421875 24.609375 -1.421875 Q 20.21875 -1.421875 15.453125 -0.5625 Q 10.6875 0.296875 5.421875 2 L 5.421875 11.28125 Q 10.40625 8.6875 15.234375 7.390625 Q 20.0625 6.109375 24.8125 6.109375 Q 31.15625 6.109375 34.5625 8.28125 Q 37.984375 10.453125 37.984375 14.40625 Q 37.984375 18.0625 35.515625 20.015625 Q 33.0625 21.96875 24.703125 23.78125 L 21.578125 24.515625 Q 13.234375 26.265625 9.515625 29.90625 Q 5.8125 33.546875 5.8125 39.890625 Q 5.8125 47.609375 11.28125 51.796875 Q 16.75 56 26.8125 56 Q 31.78125 56 36.171875 55.265625 Q 40.578125 54.546875 44.28125 53.078125 z" id="DejaVuSans-115"/><path d="M 18.3125 70.21875 L 18.3125 54.6875 L 36.8125 54.6875 L 36.8125 47.703125 L 18.3125 47.703125 L 18.3125 18.015625 Q 18.3125 11.328125 20.140625 9.421875 Q 21.96875 7.515625 27.59375 7.515625 L 36.8125 7.515625 L 36.8125 0 L 27.59375 0 Q 17.1875 0 13.234375 3.875 Q 9.28125 7.765625 9.28125 18.015625 L 9.28125 47.703125 L 2.6875 47.703125 L 2.6875 54.6875 L 9.28125 54.6875 L 9.28125 70.21875 z" id="DejaVuSans-116"/><path d="M 8.5 21.578125 L 8.5 54.6875 L 17.484375 54.6875 L 17.484375 21.921875 Q 17.484375 14.15625 20.5 10.265625 Q 23.53125 6.390625 29.59375 6.390625 Q 36.859375 6.390625 41.078125 11.03125 Q 45.3125 15.671875 45.3125 23.6875 L 45.3125 54.6875 L 54.296875 54.6875 L 54.296875 0 L 45.3125 0 L 45.3125 8.40625 Q 42.046875 3.421875 37.71875 1 Q 33.40625 -1.421875 27.6875 -1.421875 Q 18.265625 -1.421875 13.375 4.4375 Q 8.5 10.296875 8.5 21.578125 z M 31.109375 56 z" id="DejaVuSans-117"/><path d="M 48.78125 52.59375 L 48.78125 44.1875 Q 44.96875 46.296875 41.140625 47.34375 Q 37.3125 48.390625 33.40625 48.390625 Q 24.65625 48.390625 19.8125 42.84375 Q 14.984375 37.3125 14.984375 27.296875 Q 14.984375 17.28125 19.8125 11.734375 Q 24.65625 6.203125 33.40625 6.203125 Q 37.3125 6.203125 41.140625 7.25 Q 44.96875 8.296875 48.78125 10.40625 L 48.78125 2.09375 Q 45.015625 0.34375 40.984375 -0.53125 Q 36.96875 -1.421875 32.421875 -1.421875 Q 20.0625 -1.421875 12.78125 6.34375 Q 5.515625 14.109375 5.515625 27.296875 Q 5.515625 40.671875 12.859375 48.328125 Q 20.21875 56 33.015625 56 Q 37.15625 56 41.109375 55.140625 Q 45.0625 54.296875 48.78125 52.59375 z" id="DejaVuSans-99"/><path d="M 30.609375 48.390625 Q 23.390625 48.390625 19.1875 42.75 Q 14.984375 37.109375 14.984375 27.296875 Q 14.984375 17.484375 19.15625 11.84375 Q 23.34375 6.203125 30.609375 6.203125 Q 37.796875 6.203125 41.984375 11.859375 Q 46.1875 17.53125 46.1875 27.296875 Q 46.1875 37.015625 41.984375 42.703125 Q 37.796875 48.390625 30.609375 48.390625 z M 30.609375 56 Q 42.328125 56 49.015625 48.375 Q 55.71875 40.765625 55.71875 27.296875 Q 55.71875 13.875 49.015625 6.21875 Q 42.328125 -1.421875 30.609375 -1.421875 Q 18.84375 -1.421875 12.171875 6.21875 Q 5.515625 13.875 5.515625 27.296875 Q 5.515625 40.765625 12.171875 48.375 Q 18.84375 56 30.609375 56 z" id="DejaVuSans-111"/></defs><g transform="matrix(.1 0 0 -.1 407.652 562.636)"><use xlink:href="#DejaVuSans-70"/><use x="57.41" xlink:href="#DejaVuSans-105"/><use x="85.193" xlink:href="#DejaVuSans-108"/><use x="112.977" xlink:href="#DejaVuSans-108"/><use x="140.76" xlink:href="#DejaVuSans-101"/><use x="202.283" xlink:href="#DejaVuSans-114"/><use x="243.396" xlink:href="#DejaVuSans-32"/><use x="275.184" xlink:href="#DejaVuSans-73"/><use x="304.676" xlink:href="#DejaVuSans-110"/><use x="368.055" xlink:href="#DejaVuSans-115"/><use x="420.154" xlink:href="#DejaVuSans-116"/><use x="459.363" xlink:href="#DejaVuSans-114"/><use x="500.477" xlink:href="#DejaVuSans-117"/><use x="563.855" xlink:href="#DejaVuSans-99"/><use x="618.836" xlink:href="#DejaVuSans-116"/><use x="658.045" xlink:href="#DejaVuSans-105"/><use x="685.828" xlink:href="#DejaVuSans-111"/><use x="747.01" xlink:href="#DejaVuSans-110"/><use x="810.389" xlink:href="#DejaVuSans-115"/></g></g></g><g id="matplotlib.axis_2"><g id="ytick_1"><path clip-path="url(#p74d9dedb55)" d="M 50.87 470.929367 L 850.68 470.929367" fill="none" stroke="#b0b0b0" stroke-linecap="square" stroke-width=".8" id="line2d_121"/><g id="line2d_122"><defs><path d="M 0 0 L -3.5 0" id="m3a24eacd0e" stroke="#000" stroke-width=".8"/></defs><use x="50.87" xlink:href="#m3a24eacd0e" y="470.929" stroke="#000" stroke-width=".8"/></g><g transform="matrix(.1 0 0 -.1 24.782 474.729)" id="text_62"><use xlink:href="#DejaVuSans-49"/><use x="63.623" xlink:href="#DejaVuSans-55"/><use x="127.246" xlink:href="#DejaVuSans-53"/></g></g><g id="ytick_2"><path clip-path="url(#p74d9dedb55)" d="M 50.87 412.730022 L 850.68 412.730022" fill="none" stroke="#b0b0b0" stroke-linecap="square" stroke-width=".8" id="line2d_123"/><use x="50.87" xlink:href="#m3a24eacd0e" y="412.73" stroke="#000" stroke-width=".8" id="line2d_124"/><g transform="matrix(.1 0 0 -.1 24.782 416.53)" id="text_63"><use xlink:href="#DejaVuSans-50"/><use x="63.623" xlink:href="#DejaVuSans-48"/><use x="127.246" xlink:href="#DejaVuSans-48"/></g></g><g id="ytick_3"><path clip-path="url(#p74d9dedb55)" d="M 50.87 354.530676 L 850.68 354.530676" fill="none" stroke="#b0b0b0" stroke-linecap="square" stroke-width=".8" id="line2d_125"/><use x="50.87" xlink:href="#m3a24eacd0e" y="354.531" stroke="#000" stroke-width=".8" id="line2d_126"/><g transform="matrix(.1 0 0 -.1 24.782 358.33)" id="text_64"><use xlink:href="#DejaVuSans-50"/><use x="63.623" xlink:href="#DejaVuSans-50"/><use x="127.246" xlink:href="#DejaVuSans-53"/></g></g><g id="ytick_4"><path clip-path="url(#p74d9dedb55)" d="M 50.87 296.33133 L 850.68 296.33133" fill="none" stroke="#b0b0b0" stroke-linecap="square" stroke-width=".8" id="line2d_127"/><use x="50.87" xlink:href="#m3a24eacd0e" y="296.331" stroke="#000" stroke-width=".8" id="line2d_128"/><g transform="matrix(.1 0 0 -.1 24.782 300.13)" id="text_65"><use xlink:href="#DejaVuSans-50"/><use x="63.623" xlink:href="#DejaVuSans-53"/><use x="127.246" xlink:href="#DejaVuSans-48"/></g></g><g id="ytick_5"><path clip-path="url(#p74d9dedb55)" d="M 50.87 238.131985 L 850.68 238.131985" fill="none" stroke="#b0b0b0" stroke-linecap="square" stroke-width=".8" id="line2d_129"/><use x="50.87" xlink:href="#m3a24eacd0e" y="238.132" stroke="#000" stroke-width=".8" id="line2d_130"/><g transform="matrix(.1 0 0 -.1 24.782 241.931)" id="text_66"><use xlink:href="#DejaVuSans-50"/><use x="63.623" xlink:href="#DejaVuSans-55"/><use x="127.246" xlink:href="#DejaVuSans-53"/></g></g><g id="ytick_6"><path clip-path="url(#p74d9dedb55)" d="M 50.87 179.932639 L 850.68 179.932639" fill="none" stroke="#b0b0b0" stroke-linecap="square" stroke-width=".8" id="line2d_131"/><use x="50.87" xlink:href="#m3a24eacd0e" y="179.933" stroke="#000" stroke-width=".8" id="line2d_132"/><g transform="matrix(.1 0 0 -.1 24.782 183.732)" id="text_67"><use xlink:href="#DejaVuSans-51"/><use x="63.623" xlink:href="#DejaVuSans-48"/><use x="127.246" xlink:href="#DejaVuSans-48"/></g></g><g id="ytick_7"><path clip-path="url(#p74d9dedb55)" d="M 50.87 121.733294 L 850.68 121.733294" fill="none" stroke="#b0b0b0" stroke-linecap="square" stroke-width=".8" id="line2d_133"/><use x="50.87" xlink:href="#m3a24eacd0e" y="121.733" stroke="#000" stroke-width=".8" id="line2d_134"/><g transform="matrix(.1 0 0 -.1 24.782 125.533)" id="text_68"><use xlink:href="#DejaVuSans-51"/><use x="63.623" xlink:href="#DejaVuSans-50"/><use x="127.246" xlink:href="#DejaVuSans-53"/></g></g><g id="ytick_8"><path clip-path="url(#p74d9dedb55)" d="M 50.87 63.533948 L 850.68 63.533948" fill="none" stroke="#b0b0b0" stroke-linecap="square" stroke-width=".8" id="line2d_135"/><use x="50.87" xlink:href="#m3a24eacd0e" y="63.534" stroke="#000" stroke-width=".8" id="line2d_136"/><g transform="matrix(.1 0 0 -.1 24.782 67.333)" id="text_69"><use xlink:href="#DejaVuSans-51"/><use x="63.623" xlink:href="#DejaVuSans-53"/><use x="127.246" xlink:href="#DejaVuSans-48"/></g></g><g id="text_70"><defs><path d="M 64.40625 67.28125 L 64.40625 56.890625 Q 59.421875 61.53125 53.78125 63.8125 Q 48.140625 66.109375 41.796875 66.109375 Q 29.296875 66.109375 22.65625 58.46875 Q 16.015625 50.828125 16.015625 36.375 Q 16.015625 21.96875 22.65625 14.328125 Q 29.296875 6.6875 41.796875 6.6875 Q 48.140625 6.6875 53.78125 8.984375 Q 59.421875 11.28125 64.40625 15.921875 L 64.40625 5.609375 Q 59.234375 2.09375 53.4375 0.328125 Q 47.65625 -1.421875 41.21875 -1.421875 Q 24.65625 -1.421875 15.125 8.703125 Q 5.609375 18.84375 5.609375 36.375 Q 5.609375 53.953125 15.125 64.078125 Q 24.65625 74.21875 41.21875 74.21875 Q 47.75 74.21875 53.53125 72.484375 Q 59.328125 70.75 64.40625 67.28125 z" id="DejaVuSans-67"/><path d="M 32.171875 -5.078125 Q 28.375 -14.84375 24.75 -17.8125 Q 21.140625 -20.796875 15.09375 -20.796875 L 7.90625 -20.796875 L 7.90625 -13.28125 L 13.1875 -13.28125 Q 16.890625 -13.28125 18.9375 -11.515625 Q 21 -9.765625 23.484375 -3.21875 L 25.09375 0.875 L 2.984375 54.6875 L 12.5 54.6875 L 29.59375 11.921875 L 46.6875 54.6875 L 56.203125 54.6875 z" id="DejaVuSans-121"/></defs><g transform="matrix(0 -.1 -.1 0 18.703 292.185)"><use xlink:href="#DejaVuSans-67"/><use x="69.824" xlink:href="#DejaVuSans-121"/><use x="129.004" xlink:href="#DejaVuSans-99"/><use x="183.984" xlink:href="#DejaVuSans-108"/><use x="211.768" xlink:href="#DejaVuSans-101"/><use x="273.291" xlink:href="#DejaVuSans-115"/></g></g></g><g id="line2d_137"><path clip-path="url(#p74d9dedb55)" d="M 50.87 500.378236 L 54.216485 500.354957 L 67.602427 500.680873 L 70.948912 500.704153 L 74.295397 502.240615 L 80.988368 502.100937 L 91.027824 502.310455 L 94.37431 501.355985 L 97.720795 499.470326 L 107.760251 499.330648 L 111.106736 499.726404 L 121.146192 499.796243 L 134.532134 499.703124 L 137.878619 499.284089 L 141.225105 499.051291 L 161.304017 499.16769 L 164.650502 499.563445 L 167.996987 499.051291 L 178.036444 499.284089 L 181.382929 496.746597 L 184.729414 495.419652 L 188.0759 495.140295 L 191.422385 495.210134 L 194.76887 495.908527 L 198.115356 495.233414 L 201.461841 493.464154 L 204.808326 493.254636 L 214.847782 493.231357 L 218.194268 495.000617 L 224.887238 494.581581 L 228.233724 493.906469 L 231.580209 492.626083 L 261.698577 492.556244 L 265.045063 491.601775 L 268.391548 490.530907 L 271.738033 490.856823 L 275.084519 491.438817 L 278.431004 491.531936 L 281.77749 491.415537 L 298.509916 491.462097 L 305.202887 491.229299 L 308.549372 491.1129 L 315.242343 491.13618 L 325.281799 490.996502 L 331.97477 490.973222 L 338.667741 490.437788 L 342.014226 489.716116 L 345.360711 486.945827 L 348.707197 479.123835 L 352.053682 473.257341 L 355.400167 468.741072 L 358.746653 466.017343 L 362.093138 464.131684 L 365.439623 462.013228 L 368.786109 461.989948 L 372.132594 461.035479 L 378.825565 459.545575 L 382.17205 459.033421 L 385.518536 458.148791 L 392.211506 456.682168 L 395.557992 455.774258 L 398.904477 455.331943 L 402.250962 454.633551 L 405.597448 454.074837 L 408.943933 453.166927 L 412.290418 452.096059 L 415.636904 451.420947 L 422.329874 450.652715 L 425.67636 451.211429 L 432.369331 450.000883 L 435.715816 449.139532 L 439.062301 448.44114 L 445.755272 447.742748 L 449.101757 446.741719 L 452.448243 442.667765 L 455.794728 441.34082 L 459.141213 441.573617 L 462.487699 440.875225 L 475.87364 437.522943 L 479.220126 436.91767 L 482.566611 436.475355 L 485.913096 435.451046 L 489.259582 435.194969 L 495.952552 432.936835 L 499.299038 432.587638 L 502.645523 432.075484 L 505.992008 431.726288 L 509.338494 431.167574 L 512.684979 430.422623 L 519.37795 428.420565 L 526.070921 427.582495 L 529.417406 426.628025 L 532.763891 425.557158 L 536.110377 424.719087 L 539.456862 420.947769 L 542.803347 420.01658 L 546.149833 419.411307 L 549.496318 419.318188 L 552.842803 419.504426 L 556.189289 418.24732 L 562.882259 416.384941 L 566.228745 415.942626 L 572.921715 414.382883 L 576.268201 413.335295 L 579.614686 412.567064 L 582.961172 409.726935 L 589.654142 408.42327 L 596.347113 407.422241 L 599.693598 406.444492 L 606.386569 404.954589 L 609.733054 405.373624 L 613.07954 404.582113 L 616.426025 403.604364 L 619.77251 403.06893 L 623.118996 401.998062 L 626.465481 401.276391 L 629.811967 396.736842 L 633.158452 395.922051 L 636.504937 395.270218 L 643.197908 393.687196 L 649.890879 391.242823 L 653.237364 390.334914 L 656.583849 387.05247 L 659.930335 386.982631 L 663.27682 385.050413 L 666.623305 381.139417 L 673.316276 366.729259 L 676.662762 350.340323 L 680.009247 327.200263 L 683.355732 277.474742 L 686.702218 239.039895 L 690.048703 198.765947 L 693.395188 150.576889 L 696.741674 115.331366 L 700.088159 107.81201 L 703.434644 84.392593 L 706.78113 80.27208 L 710.127615 73.637354 L 713.4741 73.451116 L 716.820586 70.308352 L 720.167071 70.634268 L 723.513556 68.445973 L 726.860042 69.423722 L 730.206527 68.865008 L 733.553013 62.113884 L 736.899498 60.251505 L 740.245983 61.415492 L 743.592469 62.928675 L 746.938954 62.393241 L 750.285439 60.786939 L 753.631925 60.64726 L 756.97841 53.640059 L 760.324895 56.480187 L 763.671381 55.3162 L 767.017866 55.269641 L 770.364351 54.385011 L 773.710837 54.47813 L 777.057322 54.687647 L 780.403808 54.361731 L 783.750293 53.54694 L 787.096778 52.173436 L 790.443264 52.848548 L 793.789749 52.755429 L 797.136234 51.77768 L 800.48272 50.939609 L 803.829205 49.938581 L 807.17569 68.236455 L 810.522176 67.724301 L 813.868661 67.095748 L 817.215146 66.234398 L 823.908117 65.210089 L 827.254603 58.412405 L 830.601088 58.133049 L 833.947573 57.644174 L 837.294059 57.364817 L 840.640544 58.03993 L 843.987029 60.880058 L 847.333515 56.061152 L 850.68 55.409319 L 850.68 55.409319" fill="none" stroke="#1f77b4" stroke-linecap="square" stroke-width="1.5"/><defs><path d="M 0 1.5 C 0.397805 1.5 0.77937 1.341951 1.06066 1.06066 C 1.341951 0.77937 1.5 0.397805 1.5 0 C 1.5 -0.397805 1.341951 -0.77937 1.06066 -1.06066 C 0.77937 -1.341951 0.397805 -1.5 0 -1.5 C -0.397805 -1.5 -0.77937 -1.341951 -1.06066 -1.06066 C -1.341951 -0.77937 -1.5 -0.397805 -1.5 0 C -1.5 0.397805 -1.341951 0.77937 -1.06066 1.06066 C -0.77937 1.341951 -0.397805 1.5 0 1.5 z" id="mfd23d3c377" stroke="#1f77b4"/></defs><g clip-path="url(#p74d9dedb55)" fill="#1f77b4" stroke="#1f77b4"><use x="50.87" xlink:href="#mfd23d3c377" y="500.378"/><use x="54.216" xlink:href="#mfd23d3c377" y="500.355"/><use x="57.563" xlink:href="#mfd23d3c377" y="500.448"/><use x="60.909" xlink:href="#mfd23d3c377" y="500.588"/><use x="64.256" xlink:href="#mfd23d3c377" y="500.681"/><use x="67.602" xlink:href="#mfd23d3c377" y="500.681"/><use x="70.949" xlink:href="#mfd23d3c377" y="500.704"/><use x="74.295" xlink:href="#mfd23d3c377" y="502.241"/><use x="77.642" xlink:href="#mfd23d3c377" y="502.147"/><use x="80.988" xlink:href="#mfd23d3c377" y="502.101"/><use x="84.335" xlink:href="#mfd23d3c377" y="502.194"/><use x="87.681" xlink:href="#mfd23d3c377" y="502.217"/><use x="91.028" xlink:href="#mfd23d3c377" y="502.31"/><use x="94.374" xlink:href="#mfd23d3c377" y="501.356"/><use x="97.721" xlink:href="#mfd23d3c377" y="499.47"/><use x="101.067" xlink:href="#mfd23d3c377" y="499.424"/><use x="104.414" xlink:href="#mfd23d3c377" y="499.284"/><use x="107.76" xlink:href="#mfd23d3c377" y="499.331"/><use x="111.107" xlink:href="#mfd23d3c377" y="499.726"/><use x="114.453" xlink:href="#mfd23d3c377" y="499.773"/><use x="117.8" xlink:href="#mfd23d3c377" y="499.82"/><use x="121.146" xlink:href="#mfd23d3c377" y="499.796"/><use x="124.493" xlink:href="#mfd23d3c377" y="499.75"/><use x="127.839" xlink:href="#mfd23d3c377" y="499.726"/><use x="131.186" xlink:href="#mfd23d3c377" y="499.75"/><use x="134.532" xlink:href="#mfd23d3c377" y="499.703"/><use x="137.879" xlink:href="#mfd23d3c377" y="499.284"/><use x="141.225" xlink:href="#mfd23d3c377" y="499.051"/><use x="144.572" xlink:href="#mfd23d3c377" y="499.075"/><use x="147.918" xlink:href="#mfd23d3c377" y="499.098"/><use x="151.265" xlink:href="#mfd23d3c377" y="499.075"/><use x="154.611" xlink:href="#mfd23d3c377" y="499.121"/><use x="157.958" xlink:href="#mfd23d3c377" y="499.121"/><use x="161.304" xlink:href="#mfd23d3c377" y="499.168"/><use x="164.651" xlink:href="#mfd23d3c377" y="499.563"/><use x="167.997" xlink:href="#mfd23d3c377" y="499.051"/><use x="171.343" xlink:href="#mfd23d3c377" y="499.144"/><use x="174.69" xlink:href="#mfd23d3c377" y="499.238"/><use x="178.036" xlink:href="#mfd23d3c377" y="499.284"/><use x="181.383" xlink:href="#mfd23d3c377" y="496.747"/><use x="184.729" xlink:href="#mfd23d3c377" y="495.42"/><use x="188.076" xlink:href="#mfd23d3c377" y="495.14"/><use x="191.422" xlink:href="#mfd23d3c377" y="495.21"/><use x="194.769" xlink:href="#mfd23d3c377" y="495.909"/><use x="198.115" xlink:href="#mfd23d3c377" y="495.233"/><use x="201.462" xlink:href="#mfd23d3c377" y="493.464"/><use x="204.808" xlink:href="#mfd23d3c377" y="493.255"/><use x="208.155" xlink:href="#mfd23d3c377" y="493.278"/><use x="211.501" xlink:href="#mfd23d3c377" y="493.301"/><use x="214.848" xlink:href="#mfd23d3c377" y="493.231"/><use x="218.194" xlink:href="#mfd23d3c377" y="495.001"/><use x="221.541" xlink:href="#mfd23d3c377" y="494.838"/><use x="224.887" xlink:href="#mfd23d3c377" y="494.582"/><use x="228.234" xlink:href="#mfd23d3c377" y="493.906"/><use x="231.58" xlink:href="#mfd23d3c377" y="492.626"/><use x="234.927" xlink:href="#mfd23d3c377" y="492.626"/><use x="238.273" xlink:href="#mfd23d3c377" y="492.649"/><use x="241.62" xlink:href="#mfd23d3c377" y="492.673"/><use x="244.966" xlink:href="#mfd23d3c377" y="492.603"/><use x="248.313" xlink:href="#mfd23d3c377" y="492.673"/><use x="251.659" xlink:href="#mfd23d3c377" y="492.696"/><use x="255.006" xlink:href="#mfd23d3c377" y="492.603"/><use x="258.352" xlink:href="#mfd23d3c377" y="492.673"/><use x="261.699" xlink:href="#mfd23d3c377" y="492.556"/><use x="265.045" xlink:href="#mfd23d3c377" y="491.602"/><use x="268.392" xlink:href="#mfd23d3c377" y="490.531"/><use x="271.738" xlink:href="#mfd23d3c377" y="490.857"/><use x="275.085" xlink:href="#mfd23d3c377" y="491.439"/><use x="278.431" xlink:href="#mfd23d3c377" y="491.532"/><use x="281.777" xlink:href="#mfd23d3c377" y="491.416"/><use x="285.124" xlink:href="#mfd23d3c377" y="491.416"/><use x="288.47" xlink:href="#mfd23d3c377" y="491.346"/><use x="291.817" xlink:href="#mfd23d3c377" y="491.369"/><use x="295.163" xlink:href="#mfd23d3c377" y="491.346"/><use x="298.51" xlink:href="#mfd23d3c377" y="491.462"/><use x="301.856" xlink:href="#mfd23d3c377" y="491.299"/><use x="305.203" xlink:href="#mfd23d3c377" y="491.229"/><use x="308.549" xlink:href="#mfd23d3c377" y="491.113"/><use x="311.896" xlink:href="#mfd23d3c377" y="491.159"/><use x="315.242" xlink:href="#mfd23d3c377" y="491.136"/><use x="318.589" xlink:href="#mfd23d3c377" y="491.066"/><use x="321.935" xlink:href="#mfd23d3c377" y="491.066"/><use x="325.282" xlink:href="#mfd23d3c377" y="490.997"/><use x="328.628" xlink:href="#mfd23d3c377" y="490.997"/><use x="331.975" xlink:href="#mfd23d3c377" y="490.973"/><use x="335.321" xlink:href="#mfd23d3c377" y="490.694"/><use x="338.668" xlink:href="#mfd23d3c377" y="490.438"/><use x="342.014" xlink:href="#mfd23d3c377" y="489.716"/><use x="345.361" xlink:href="#mfd23d3c377" y="486.946"/><use x="348.707" xlink:href="#mfd23d3c377" y="479.124"/><use x="352.054" xlink:href="#mfd23d3c377" y="473.257"/><use x="355.4" xlink:href="#mfd23d3c377" y="468.741"/><use x="358.747" xlink:href="#mfd23d3c377" y="466.017"/><use x="362.093" xlink:href="#mfd23d3c377" y="464.132"/><use x="365.44" xlink:href="#mfd23d3c377" y="462.013"/><use x="368.786" xlink:href="#mfd23d3c377" y="461.99"/><use x="372.133" xlink:href="#mfd23d3c377" y="461.035"/><use x="375.479" xlink:href="#mfd23d3c377" y="460.291"/><use x="378.826" xlink:href="#mfd23d3c377" y="459.546"/><use x="382.172" xlink:href="#mfd23d3c377" y="459.033"/><use x="385.519" xlink:href="#mfd23d3c377" y="458.149"/><use x="388.865" xlink:href="#mfd23d3c377" y="457.427"/><use x="392.212" xlink:href="#mfd23d3c377" y="456.682"/><use x="395.558" xlink:href="#mfd23d3c377" y="455.774"/><use x="398.904" xlink:href="#mfd23d3c377" y="455.332"/><use x="402.251" xlink:href="#mfd23d3c377" y="454.634"/><use x="405.597" xlink:href="#mfd23d3c377" y="454.075"/><use x="408.944" xlink:href="#mfd23d3c377" y="453.167"/><use x="412.29" xlink:href="#mfd23d3c377" y="452.096"/><use x="415.637" xlink:href="#mfd23d3c377" y="451.421"/><use x="418.983" xlink:href="#mfd23d3c377" y="451.048"/><use x="422.33" xlink:href="#mfd23d3c377" y="450.653"/><use x="425.676" xlink:href="#mfd23d3c377" y="451.211"/><use x="429.023" xlink:href="#mfd23d3c377" y="450.653"/><use x="432.369" xlink:href="#mfd23d3c377" y="450.001"/><use x="435.716" xlink:href="#mfd23d3c377" y="449.14"/><use x="439.062" xlink:href="#mfd23d3c377" y="448.441"/><use x="442.409" xlink:href="#mfd23d3c377" y="448.115"/><use x="445.755" xlink:href="#mfd23d3c377" y="447.743"/><use x="449.102" xlink:href="#mfd23d3c377" y="446.742"/><use x="452.448" xlink:href="#mfd23d3c377" y="442.668"/><use x="455.795" xlink:href="#mfd23d3c377" y="441.341"/><use x="459.141" xlink:href="#mfd23d3c377" y="441.574"/><use x="462.488" xlink:href="#mfd23d3c377" y="440.875"/><use x="465.834" xlink:href="#mfd23d3c377" y="440.037"/><use x="469.181" xlink:href="#mfd23d3c377" y="439.199"/><use x="472.527" xlink:href="#mfd23d3c377" y="438.454"/><use x="475.874" xlink:href="#mfd23d3c377" y="437.523"/><use x="479.22" xlink:href="#mfd23d3c377" y="436.918"/><use x="482.567" xlink:href="#mfd23d3c377" y="436.475"/><use x="485.913" xlink:href="#mfd23d3c377" y="435.451"/><use x="489.26" xlink:href="#mfd23d3c377" y="435.195"/><use x="492.606" xlink:href="#mfd23d3c377" y="434.078"/><use x="495.953" xlink:href="#mfd23d3c377" y="432.937"/><use x="499.299" xlink:href="#mfd23d3c377" y="432.588"/><use x="502.646" xlink:href="#mfd23d3c377" y="432.075"/><use x="505.992" xlink:href="#mfd23d3c377" y="431.726"/><use x="509.338" xlink:href="#mfd23d3c377" y="431.168"/><use x="512.685" xlink:href="#mfd23d3c377" y="430.423"/><use x="516.031" xlink:href="#mfd23d3c377" y="429.445"/><use x="519.378" xlink:href="#mfd23d3c377" y="428.421"/><use x="522.724" xlink:href="#mfd23d3c377" y="428.002"/><use x="526.071" xlink:href="#mfd23d3c377" y="427.582"/><use x="529.417" xlink:href="#mfd23d3c377" y="426.628"/><use x="532.764" xlink:href="#mfd23d3c377" y="425.557"/><use x="536.11" xlink:href="#mfd23d3c377" y="424.719"/><use x="539.457" xlink:href="#mfd23d3c377" y="420.948"/><use x="542.803" xlink:href="#mfd23d3c377" y="420.017"/><use x="546.15" xlink:href="#mfd23d3c377" y="419.411"/><use x="549.496" xlink:href="#mfd23d3c377" y="419.318"/><use x="552.843" xlink:href="#mfd23d3c377" y="419.504"/><use x="556.189" xlink:href="#mfd23d3c377" y="418.247"/><use x="559.536" xlink:href="#mfd23d3c377" y="417.339"/><use x="562.882" xlink:href="#mfd23d3c377" y="416.385"/><use x="566.229" xlink:href="#mfd23d3c377" y="415.943"/><use x="569.575" xlink:href="#mfd23d3c377" y="415.198"/><use x="572.922" xlink:href="#mfd23d3c377" y="414.383"/><use x="576.268" xlink:href="#mfd23d3c377" y="413.335"/><use x="579.615" xlink:href="#mfd23d3c377" y="412.567"/><use x="582.961" xlink:href="#mfd23d3c377" y="409.727"/><use x="586.308" xlink:href="#mfd23d3c377" y="409.052"/><use x="589.654" xlink:href="#mfd23d3c377" y="408.423"/><use x="593.001" xlink:href="#mfd23d3c377" y="407.958"/><use x="596.347" xlink:href="#mfd23d3c377" y="407.422"/><use x="599.694" xlink:href="#mfd23d3c377" y="406.444"/><use x="603.04" xlink:href="#mfd23d3c377" y="405.7"/><use x="606.387" xlink:href="#mfd23d3c377" y="404.955"/><use x="609.733" xlink:href="#mfd23d3c377" y="405.374"/><use x="613.08" xlink:href="#mfd23d3c377" y="404.582"/><use x="616.426" xlink:href="#mfd23d3c377" y="403.604"/><use x="619.773" xlink:href="#mfd23d3c377" y="403.069"/><use x="623.119" xlink:href="#mfd23d3c377" y="401.998"/><use x="626.465" xlink:href="#mfd23d3c377" y="401.276"/><use x="629.812" xlink:href="#mfd23d3c377" y="396.737"/><use x="633.158" xlink:href="#mfd23d3c377" y="395.922"/><use x="636.505" xlink:href="#mfd23d3c377" y="395.27"/><use x="639.851" xlink:href="#mfd23d3c377" y="394.432"/><use x="643.198" xlink:href="#mfd23d3c377" y="393.687"/><use x="646.544" xlink:href="#mfd23d3c377" y="392.477"/><use x="649.891" xlink:href="#mfd23d3c377" y="391.243"/><use x="653.237" xlink:href="#mfd23d3c377" y="390.335"/><use x="656.584" xlink:href="#mfd23d3c377" y="387.052"/><use x="659.93" xlink:href="#mfd23d3c377" y="386.983"/><use x="663.277" xlink:href="#mfd23d3c377" y="385.05"/><use x="666.623" xlink:href="#mfd23d3c377" y="381.139"/><use x="669.97" xlink:href="#mfd23d3c377" y="373.899"/><use x="673.316" xlink:href="#mfd23d3c377" y="366.729"/><use x="676.663" xlink:href="#mfd23d3c377" y="350.34"/><use x="680.009" xlink:href="#mfd23d3c377" y="327.2"/><use x="683.356" xlink:href="#mfd23d3c377" y="277.475"/><use x="686.702" xlink:href="#mfd23d3c377" y="239.04"/><use x="690.049" xlink:href="#mfd23d3c377" y="198.766"/><use x="693.395" xlink:href="#mfd23d3c377" y="150.577"/><use x="696.742" xlink:href="#mfd23d3c377" y="115.331"/><use x="700.088" xlink:href="#mfd23d3c377" y="107.812"/><use x="703.435" xlink:href="#mfd23d3c377" y="84.393"/><use x="706.781" xlink:href="#mfd23d3c377" y="80.272"/><use x="710.128" xlink:href="#mfd23d3c377" y="73.637"/><use x="713.474" xlink:href="#mfd23d3c377" y="73.451"/><use x="716.821" xlink:href="#mfd23d3c377" y="70.308"/><use x="720.167" xlink:href="#mfd23d3c377" y="70.634"/><use x="723.514" xlink:href="#mfd23d3c377" y="68.446"/><use x="726.86" xlink:href="#mfd23d3c377" y="69.424"/><use x="730.207" xlink:href="#mfd23d3c377" y="68.865"/><use x="733.553" xlink:href="#mfd23d3c377" y="62.114"/><use x="736.899" xlink:href="#mfd23d3c377" y="60.252"/><use x="740.246" xlink:href="#mfd23d3c377" y="61.415"/><use x="743.592" xlink:href="#mfd23d3c377" y="62.929"/><use x="746.939" xlink:href="#mfd23d3c377" y="62.393"/><use x="750.285" xlink:href="#mfd23d3c377" y="60.787"/><use x="753.632" xlink:href="#mfd23d3c377" y="60.647"/><use x="756.978" xlink:href="#mfd23d3c377" y="53.64"/><use x="760.325" xlink:href="#mfd23d3c377" y="56.48"/><use x="763.671" xlink:href="#mfd23d3c377" y="55.316"/><use x="767.018" xlink:href="#mfd23d3c377" y="55.27"/><use x="770.364" xlink:href="#mfd23d3c377" y="54.385"/><use x="773.711" xlink:href="#mfd23d3c377" y="54.478"/><use x="777.057" xlink:href="#mfd23d3c377" y="54.688"/><use x="780.404" xlink:href="#mfd23d3c377" y="54.362"/><use x="783.75" xlink:href="#mfd23d3c377" y="53.547"/><use x="787.097" xlink:href="#mfd23d3c377" y="52.173"/><use x="790.443" xlink:href="#mfd23d3c377" y="52.849"/><use x="793.79" xlink:href="#mfd23d3c377" y="52.755"/><use x="797.136" xlink:href="#mfd23d3c377" y="51.778"/><use x="800.483" xlink:href="#mfd23d3c377" y="50.94"/><use x="803.829" xlink:href="#mfd23d3c377" y="49.939"/><use x="807.176" xlink:href="#mfd23d3c377" y="68.236"/><use x="810.522" xlink:href="#mfd23d3c377" y="67.724"/><use x="813.869" xlink:href="#mfd23d3c377" y="67.096"/><use x="817.215" xlink:href="#mfd23d3c377" y="66.234"/><use x="820.562" xlink:href="#mfd23d3c377" y="65.769"/><use x="823.908" xlink:href="#mfd23d3c377" y="65.21"/><use x="827.255" xlink:href="#mfd23d3c377" y="58.412"/><use x="830.601" xlink:href="#mfd23d3c377" y="58.133"/><use x="833.948" xlink:href="#mfd23d3c377" y="57.644"/><use x="837.294" xlink:href="#mfd23d3c377" y="57.365"/><use x="840.641" xlink:href="#mfd23d3c377" y="58.04"/><use x="843.987" xlink:href="#mfd23d3c377" y="60.88"/><use x="847.334" xlink:href="#mfd23d3c377" y="56.061"/><use x="850.68" xlink:href="#mfd23d3c377" y="55.409"/></g></g><g id="line2d_138"><path clip-path="url(#p74d9dedb55)" d="M 50.87 499.377208 L 54.216485 500.168719 L 60.909456 500.261838 L 64.255941 500.424796 L 70.948912 500.517915 L 74.295397 501.053349 L 77.641883 501.937979 L 80.988368 501.891419 L 84.334854 502.031098 L 91.027824 502.100937 L 94.37431 499.703124 L 97.720795 498.678815 L 101.06728 499.14441 L 104.413766 499.051291 L 111.106736 499.377208 L 114.453222 499.610005 L 124.492678 499.493606 L 131.185649 499.493606 L 134.532134 499.493606 L 137.878619 499.028011 L 141.225105 498.888333 L 171.343473 498.981452 L 178.036444 499.028011 L 181.382929 496.094764 L 184.729414 494.72126 L 188.0759 494.954057 L 194.76887 494.977337 L 198.115356 494.74454 L 201.461841 492.90544 L 204.808326 493.091678 L 214.847782 493.021839 L 218.194268 493.557273 L 221.540753 494.651421 L 224.887238 494.372064 L 228.233724 493.627112 L 231.580209 492.416566 L 241.619665 492.463125 L 244.966151 492.370006 L 258.352092 492.439846 L 261.698577 491.438817 L 265.045063 491.252579 L 268.391548 489.622997 L 271.738033 490.624026 L 275.084519 490.903383 L 278.431004 491.299138 L 288.47046 491.13618 L 298.509916 491.13618 L 311.895858 490.926663 L 318.588828 490.903383 L 328.628285 490.786984 L 335.321255 490.530907 L 338.667741 490.204991 L 342.014226 489.110843 L 345.360711 486.66647 L 348.707197 478.68152 L 352.053682 472.51239 L 355.400167 468.06596 L 358.746653 465.691426 L 362.093138 462.595221 L 365.439623 461.547633 L 372.132594 460.546604 L 378.825565 459.056701 L 382.17205 458.521267 L 385.518536 457.683196 L 388.865021 457.054643 L 392.211506 455.657859 L 395.557992 455.401782 L 398.904477 454.912907 L 402.250962 454.261075 L 405.597448 453.283326 L 412.290418 451.723583 L 415.636904 451.16487 L 422.329874 450.419918 L 425.67636 450.303519 L 429.022845 450.070722 L 439.062301 448.161783 L 442.408787 447.812587 L 445.755272 447.230594 L 449.101757 446.345964 L 452.448243 442.341849 L 455.794728 441.014904 L 459.141213 441.177862 L 462.487699 440.549309 L 469.180669 438.943007 L 472.527155 438.128216 L 475.87364 437.197027 L 482.566611 436.172718 L 485.913096 434.729374 L 489.259582 434.310339 L 492.606067 433.728346 L 495.952552 432.634198 L 505.992008 431.493491 L 509.338494 430.818378 L 512.684979 430.026867 L 519.37795 428.211048 L 522.724435 427.675614 L 526.070921 426.907382 L 529.417406 425.743395 L 532.763891 425.231241 L 536.110377 424.346611 L 539.456862 420.621853 L 542.803347 419.760503 L 549.496318 418.549956 L 552.842803 418.875873 L 562.882259 416.175423 L 566.228745 415.663269 L 569.57523 414.988156 L 576.268201 413.125777 L 579.614686 410.844363 L 582.961172 409.401019 L 596.347113 406.979926 L 603.040084 405.303785 L 606.386569 404.698512 L 609.733054 404.954589 L 613.07954 404.279477 L 616.426025 403.348287 L 619.77251 402.603336 L 626.465481 400.787516 L 629.811967 396.527324 L 633.158452 395.712533 L 636.504937 394.711504 L 639.851423 394.19935 L 643.197908 393.058643 L 646.544393 392.104174 L 649.890879 390.590991 L 653.237364 389.473563 L 656.583849 386.819673 L 659.930335 386.493757 L 663.27682 384.491699 L 666.623305 380.673822 L 669.969791 373.526943 L 673.316276 365.961028 L 676.662762 349.851449 L 680.009247 326.59499 L 683.355732 276.706511 L 686.702218 238.341502 L 690.048703 197.997716 L 693.395188 149.762098 L 696.741674 114.446735 L 700.088159 106.810981 L 703.434644 83.857159 L 706.78113 79.503848 L 710.127615 73.1252 L 713.4741 72.845843 L 716.820586 69.819477 L 720.167071 69.097805 L 723.513556 67.072468 L 726.860042 68.888288 L 730.206527 66.90951 L 733.553013 61.694849 L 736.899498 59.553113 L 740.245983 60.763659 L 743.592469 62.532919 L 746.938954 61.950926 L 750.285439 60.367903 L 753.631925 57.783853 L 756.97841 53.267583 L 760.324895 56.014592 L 763.671381 54.757487 L 767.017866 54.827326 L 770.364351 53.965975 L 773.710837 53.383982 L 777.057322 54.245332 L 780.403808 53.919416 L 783.750293 53.058066 L 787.096778 51.77768 L 790.443264 51.568162 L 793.789749 52.289834 L 800.48272 50.590413 L 803.829205 49.519545 L 807.17569 67.910539 L 810.522176 67.421664 L 813.868661 66.793111 L 817.215146 66.02488 L 820.561632 65.536005 L 823.908117 64.25562 L 827.254603 58.156328 L 830.601088 57.876971 L 833.947573 57.364817 L 837.294059 57.13202 L 840.640544 56.643145 L 843.987029 56.014592 L 847.333515 55.735236 L 850.68 55.176522 L 850.68 55.176522" fill="none" stroke="#ff7f0e" stroke-linecap="square" stroke-width="1.5"/><defs><path d="M 0 1.5 C 0.397805 1.5 0.77937 1.341951 1.06066 1.06066 C 1.341951 0.77937 1.5 0.397805 1.5 0 C 1.5 -0.397805 1.341951 -0.77937 1.06066 -1.06066 C 0.77937 -1.341951 0.397805 -1.5 0 -1.5 C -0.397805 -1.5 -0.77937 -1.341951 -1.06066 -1.06066 C -1.341951 -0.77937 -1.5 -0.397805 -1.5 0 C -1.5 0.397805 -1.341951 0.77937 -1.06066 1.06066 C -0.77937 1.341951 -0.397805 1.5 0 1.5 z" id="mf7b048cd89" stroke="#ff7f0e"/></defs><g clip-path="url(#p74d9dedb55)" fill="#ff7f0e" stroke="#ff7f0e"><use x="50.87" xlink:href="#mf7b048cd89" y="499.377"/><use x="54.216" xlink:href="#mf7b048cd89" y="500.169"/><use x="57.563" xlink:href="#mf7b048cd89" y="500.192"/><use x="60.909" xlink:href="#mf7b048cd89" y="500.262"/><use x="64.256" xlink:href="#mf7b048cd89" y="500.425"/><use x="67.602" xlink:href="#mf7b048cd89" y="500.471"/><use x="70.949" xlink:href="#mf7b048cd89" y="500.518"/><use x="74.295" xlink:href="#mf7b048cd89" y="501.053"/><use x="77.642" xlink:href="#mf7b048cd89" y="501.938"/><use x="80.988" xlink:href="#mf7b048cd89" y="501.891"/><use x="84.335" xlink:href="#mf7b048cd89" y="502.031"/><use x="87.681" xlink:href="#mf7b048cd89" y="502.031"/><use x="91.028" xlink:href="#mf7b048cd89" y="502.101"/><use x="94.374" xlink:href="#mf7b048cd89" y="499.703"/><use x="97.721" xlink:href="#mf7b048cd89" y="498.679"/><use x="101.067" xlink:href="#mf7b048cd89" y="499.144"/><use x="104.414" xlink:href="#mf7b048cd89" y="499.051"/><use x="107.76" xlink:href="#mf7b048cd89" y="499.168"/><use x="111.107" xlink:href="#mf7b048cd89" y="499.377"/><use x="114.453" xlink:href="#mf7b048cd89" y="499.61"/><use x="117.8" xlink:href="#mf7b048cd89" y="499.563"/><use x="121.146" xlink:href="#mf7b048cd89" y="499.587"/><use x="124.493" xlink:href="#mf7b048cd89" y="499.494"/><use x="127.839" xlink:href="#mf7b048cd89" y="499.54"/><use x="131.186" xlink:href="#mf7b048cd89" y="499.494"/><use x="134.532" xlink:href="#mf7b048cd89" y="499.494"/><use x="137.879" xlink:href="#mf7b048cd89" y="499.028"/><use x="141.225" xlink:href="#mf7b048cd89" y="498.888"/><use x="144.572" xlink:href="#mf7b048cd89" y="498.888"/><use x="147.918" xlink:href="#mf7b048cd89" y="498.912"/><use x="151.265" xlink:href="#mf7b048cd89" y="498.912"/><use x="154.611" xlink:href="#mf7b048cd89" y="498.935"/><use x="157.958" xlink:href="#mf7b048cd89" y="498.912"/><use x="161.304" xlink:href="#mf7b048cd89" y="498.935"/><use x="164.651" xlink:href="#mf7b048cd89" y="498.981"/><use x="167.997" xlink:href="#mf7b048cd89" y="498.888"/><use x="171.343" xlink:href="#mf7b048cd89" y="498.981"/><use x="174.69" xlink:href="#mf7b048cd89" y="499.005"/><use x="178.036" xlink:href="#mf7b048cd89" y="499.028"/><use x="181.383" xlink:href="#mf7b048cd89" y="496.095"/><use x="184.729" xlink:href="#mf7b048cd89" y="494.721"/><use x="188.076" xlink:href="#mf7b048cd89" y="494.954"/><use x="191.422" xlink:href="#mf7b048cd89" y="495.001"/><use x="194.769" xlink:href="#mf7b048cd89" y="494.977"/><use x="198.115" xlink:href="#mf7b048cd89" y="494.745"/><use x="201.462" xlink:href="#mf7b048cd89" y="492.905"/><use x="204.808" xlink:href="#mf7b048cd89" y="493.092"/><use x="208.155" xlink:href="#mf7b048cd89" y="493.068"/><use x="211.501" xlink:href="#mf7b048cd89" y="493.045"/><use x="214.848" xlink:href="#mf7b048cd89" y="493.022"/><use x="218.194" xlink:href="#mf7b048cd89" y="493.557"/><use x="221.541" xlink:href="#mf7b048cd89" y="494.651"/><use x="224.887" xlink:href="#mf7b048cd89" y="494.372"/><use x="228.234" xlink:href="#mf7b048cd89" y="493.627"/><use x="231.58" xlink:href="#mf7b048cd89" y="492.417"/><use x="234.927" xlink:href="#mf7b048cd89" y="492.463"/><use x="238.273" xlink:href="#mf7b048cd89" y="492.463"/><use x="241.62" xlink:href="#mf7b048cd89" y="492.463"/><use x="244.966" xlink:href="#mf7b048cd89" y="492.37"/><use x="248.313" xlink:href="#mf7b048cd89" y="492.393"/><use x="251.659" xlink:href="#mf7b048cd89" y="492.463"/><use x="255.006" xlink:href="#mf7b048cd89" y="492.417"/><use x="258.352" xlink:href="#mf7b048cd89" y="492.44"/><use x="261.699" xlink:href="#mf7b048cd89" y="491.439"/><use x="265.045" xlink:href="#mf7b048cd89" y="491.253"/><use x="268.392" xlink:href="#mf7b048cd89" y="489.623"/><use x="271.738" xlink:href="#mf7b048cd89" y="490.624"/><use x="275.085" xlink:href="#mf7b048cd89" y="490.903"/><use x="278.431" xlink:href="#mf7b048cd89" y="491.299"/><use x="281.777" xlink:href="#mf7b048cd89" y="491.229"/><use x="285.124" xlink:href="#mf7b048cd89" y="491.183"/><use x="288.47" xlink:href="#mf7b048cd89" y="491.136"/><use x="291.817" xlink:href="#mf7b048cd89" y="491.159"/><use x="295.163" xlink:href="#mf7b048cd89" y="491.113"/><use x="298.51" xlink:href="#mf7b048cd89" y="491.136"/><use x="301.856" xlink:href="#mf7b048cd89" y="491.066"/><use x="305.203" xlink:href="#mf7b048cd89" y="491.09"/><use x="308.549" xlink:href="#mf7b048cd89" y="490.903"/><use x="311.896" xlink:href="#mf7b048cd89" y="490.927"/><use x="315.242" xlink:href="#mf7b048cd89" y="490.95"/><use x="318.589" xlink:href="#mf7b048cd89" y="490.903"/><use x="321.935" xlink:href="#mf7b048cd89" y="490.88"/><use x="325.282" xlink:href="#mf7b048cd89" y="490.81"/><use x="328.628" xlink:href="#mf7b048cd89" y="490.787"/><use x="331.975" xlink:href="#mf7b048cd89" y="490.694"/><use x="335.321" xlink:href="#mf7b048cd89" y="490.531"/><use x="338.668" xlink:href="#mf7b048cd89" y="490.205"/><use x="342.014" xlink:href="#mf7b048cd89" y="489.111"/><use x="345.361" xlink:href="#mf7b048cd89" y="486.666"/><use x="348.707" xlink:href="#mf7b048cd89" y="478.682"/><use x="352.054" xlink:href="#mf7b048cd89" y="472.512"/><use x="355.4" xlink:href="#mf7b048cd89" y="468.066"/><use x="358.747" xlink:href="#mf7b048cd89" y="465.691"/><use x="362.093" xlink:href="#mf7b048cd89" y="462.595"/><use x="365.44" xlink:href="#mf7b048cd89" y="461.548"/><use x="368.786" xlink:href="#mf7b048cd89" y="461.082"/><use x="372.133" xlink:href="#mf7b048cd89" y="460.547"/><use x="375.479" xlink:href="#mf7b048cd89" y="459.825"/><use x="378.826" xlink:href="#mf7b048cd89" y="459.057"/><use x="382.172" xlink:href="#mf7b048cd89" y="458.521"/><use x="385.519" xlink:href="#mf7b048cd89" y="457.683"/><use x="388.865" xlink:href="#mf7b048cd89" y="457.055"/><use x="392.212" xlink:href="#mf7b048cd89" y="455.658"/><use x="395.558" xlink:href="#mf7b048cd89" y="455.402"/><use x="398.904" xlink:href="#mf7b048cd89" y="454.913"/><use x="402.251" xlink:href="#mf7b048cd89" y="454.261"/><use x="405.597" xlink:href="#mf7b048cd89" y="453.283"/><use x="408.944" xlink:href="#mf7b048cd89" y="452.538"/><use x="412.29" xlink:href="#mf7b048cd89" y="451.724"/><use x="415.637" xlink:href="#mf7b048cd89" y="451.165"/><use x="418.983" xlink:href="#mf7b048cd89" y="450.746"/><use x="422.33" xlink:href="#mf7b048cd89" y="450.42"/><use x="425.676" xlink:href="#mf7b048cd89" y="450.304"/><use x="429.023" xlink:href="#mf7b048cd89" y="450.071"/><use x="432.369" xlink:href="#mf7b048cd89" y="449.419"/><use x="435.716" xlink:href="#mf7b048cd89" y="448.79"/><use x="439.062" xlink:href="#mf7b048cd89" y="448.162"/><use x="442.409" xlink:href="#mf7b048cd89" y="447.813"/><use x="445.755" xlink:href="#mf7b048cd89" y="447.231"/><use x="449.102" xlink:href="#mf7b048cd89" y="446.346"/><use x="452.448" xlink:href="#mf7b048cd89" y="442.342"/><use x="455.795" xlink:href="#mf7b048cd89" y="441.015"/><use x="459.141" xlink:href="#mf7b048cd89" y="441.178"/><use x="462.488" xlink:href="#mf7b048cd89" y="440.549"/><use x="465.834" xlink:href="#mf7b048cd89" y="439.781"/><use x="469.181" xlink:href="#mf7b048cd89" y="438.943"/><use x="472.527" xlink:href="#mf7b048cd89" y="438.128"/><use x="475.874" xlink:href="#mf7b048cd89" y="437.197"/><use x="479.22" xlink:href="#mf7b048cd89" y="436.662"/><use x="482.567" xlink:href="#mf7b048cd89" y="436.173"/><use x="485.913" xlink:href="#mf7b048cd89" y="434.729"/><use x="489.26" xlink:href="#mf7b048cd89" y="434.31"/><use x="492.606" xlink:href="#mf7b048cd89" y="433.728"/><use x="495.953" xlink:href="#mf7b048cd89" y="432.634"/><use x="499.299" xlink:href="#mf7b048cd89" y="432.285"/><use x="502.646" xlink:href="#mf7b048cd89" y="431.866"/><use x="505.992" xlink:href="#mf7b048cd89" y="431.493"/><use x="509.338" xlink:href="#mf7b048cd89" y="430.818"/><use x="512.685" xlink:href="#mf7b048cd89" y="430.027"/><use x="516.031" xlink:href="#mf7b048cd89" y="429.072"/><use x="519.378" xlink:href="#mf7b048cd89" y="428.211"/><use x="522.724" xlink:href="#mf7b048cd89" y="427.676"/><use x="526.071" xlink:href="#mf7b048cd89" y="426.907"/><use x="529.417" xlink:href="#mf7b048cd89" y="425.743"/><use x="532.764" xlink:href="#mf7b048cd89" y="425.231"/><use x="536.11" xlink:href="#mf7b048cd89" y="424.347"/><use x="539.457" xlink:href="#mf7b048cd89" y="420.622"/><use x="542.803" xlink:href="#mf7b048cd89" y="419.761"/><use x="546.15" xlink:href="#mf7b048cd89" y="419.155"/><use x="549.496" xlink:href="#mf7b048cd89" y="418.55"/><use x="552.843" xlink:href="#mf7b048cd89" y="418.876"/><use x="556.189" xlink:href="#mf7b048cd89" y="417.991"/><use x="559.536" xlink:href="#mf7b048cd89" y="417.037"/><use x="562.882" xlink:href="#mf7b048cd89" y="416.175"/><use x="566.229" xlink:href="#mf7b048cd89" y="415.663"/><use x="569.575" xlink:href="#mf7b048cd89" y="414.988"/><use x="572.922" xlink:href="#mf7b048cd89" y="414.057"/><use x="576.268" xlink:href="#mf7b048cd89" y="413.126"/><use x="579.615" xlink:href="#mf7b048cd89" y="410.844"/><use x="582.961" xlink:href="#mf7b048cd89" y="409.401"/><use x="586.308" xlink:href="#mf7b048cd89" y="408.796"/><use x="589.654" xlink:href="#mf7b048cd89" y="408.19"/><use x="593.001" xlink:href="#mf7b048cd89" y="407.678"/><use x="596.347" xlink:href="#mf7b048cd89" y="406.98"/><use x="599.694" xlink:href="#mf7b048cd89" y="406.142"/><use x="603.04" xlink:href="#mf7b048cd89" y="405.304"/><use x="606.387" xlink:href="#mf7b048cd89" y="404.699"/><use x="609.733" xlink:href="#mf7b048cd89" y="404.955"/><use x="613.08" xlink:href="#mf7b048cd89" y="404.279"/><use x="616.426" xlink:href="#mf7b048cd89" y="403.348"/><use x="619.773" xlink:href="#mf7b048cd89" y="402.603"/><use x="623.119" xlink:href="#mf7b048cd89" y="401.672"/><use x="626.465" xlink:href="#mf7b048cd89" y="400.788"/><use x="629.812" xlink:href="#mf7b048cd89" y="396.527"/><use x="633.158" xlink:href="#mf7b048cd89" y="395.713"/><use x="636.505" xlink:href="#mf7b048cd89" y="394.712"/><use x="639.851" xlink:href="#mf7b048cd89" y="394.199"/><use x="643.198" xlink:href="#mf7b048cd89" y="393.059"/><use x="646.544" xlink:href="#mf7b048cd89" y="392.104"/><use x="649.891" xlink:href="#mf7b048cd89" y="390.591"/><use x="653.237" xlink:href="#mf7b048cd89" y="389.474"/><use x="656.584" xlink:href="#mf7b048cd89" y="386.82"/><use x="659.93" xlink:href="#mf7b048cd89" y="386.494"/><use x="663.277" xlink:href="#mf7b048cd89" y="384.492"/><use x="666.623" xlink:href="#mf7b048cd89" y="380.674"/><use x="669.97" xlink:href="#mf7b048cd89" y="373.527"/><use x="673.316" xlink:href="#mf7b048cd89" y="365.961"/><use x="676.663" xlink:href="#mf7b048cd89" y="349.851"/><use x="680.009" xlink:href="#mf7b048cd89" y="326.595"/><use x="683.356" xlink:href="#mf7b048cd89" y="276.707"/><use x="686.702" xlink:href="#mf7b048cd89" y="238.342"/><use x="690.049" xlink:href="#mf7b048cd89" y="197.998"/><use x="693.395" xlink:href="#mf7b048cd89" y="149.762"/><use x="696.742" xlink:href="#mf7b048cd89" y="114.447"/><use x="700.088" xlink:href="#mf7b048cd89" y="106.811"/><use x="703.435" xlink:href="#mf7b048cd89" y="83.857"/><use x="706.781" xlink:href="#mf7b048cd89" y="79.504"/><use x="710.128" xlink:href="#mf7b048cd89" y="73.125"/><use x="713.474" xlink:href="#mf7b048cd89" y="72.846"/><use x="716.821" xlink:href="#mf7b048cd89" y="69.819"/><use x="720.167" xlink:href="#mf7b048cd89" y="69.098"/><use x="723.514" xlink:href="#mf7b048cd89" y="67.072"/><use x="726.86" xlink:href="#mf7b048cd89" y="68.888"/><use x="730.207" xlink:href="#mf7b048cd89" y="66.91"/><use x="733.553" xlink:href="#mf7b048cd89" y="61.695"/><use x="736.899" xlink:href="#mf7b048cd89" y="59.553"/><use x="740.246" xlink:href="#mf7b048cd89" y="60.764"/><use x="743.592" xlink:href="#mf7b048cd89" y="62.533"/><use x="746.939" xlink:href="#mf7b048cd89" y="61.951"/><use x="750.285" xlink:href="#mf7b048cd89" y="60.368"/><use x="753.632" xlink:href="#mf7b048cd89" y="57.784"/><use x="756.978" xlink:href="#mf7b048cd89" y="53.268"/><use x="760.325" xlink:href="#mf7b048cd89" y="56.015"/><use x="763.671" xlink:href="#mf7b048cd89" y="54.757"/><use x="767.018" xlink:href="#mf7b048cd89" y="54.827"/><use x="770.364" xlink:href="#mf7b048cd89" y="53.966"/><use x="773.711" xlink:href="#mf7b048cd89" y="53.384"/><use x="777.057" xlink:href="#mf7b048cd89" y="54.245"/><use x="780.404" xlink:href="#mf7b048cd89" y="53.919"/><use x="783.75" xlink:href="#mf7b048cd89" y="53.058"/><use x="787.097" xlink:href="#mf7b048cd89" y="51.778"/><use x="790.443" xlink:href="#mf7b048cd89" y="51.568"/><use x="793.79" xlink:href="#mf7b048cd89" y="52.29"/><use x="797.136" xlink:href="#mf7b048cd89" y="51.452"/><use x="800.483" xlink:href="#mf7b048cd89" y="50.59"/><use x="803.829" xlink:href="#mf7b048cd89" y="49.52"/><use x="807.176" xlink:href="#mf7b048cd89" y="67.911"/><use x="810.522" xlink:href="#mf7b048cd89" y="67.422"/><use x="813.869" xlink:href="#mf7b048cd89" y="66.793"/><use x="817.215" xlink:href="#mf7b048cd89" y="66.025"/><use x="820.562" xlink:href="#mf7b048cd89" y="65.536"/><use x="823.908" xlink:href="#mf7b048cd89" y="64.256"/><use x="827.255" xlink:href="#mf7b048cd89" y="58.156"/><use x="830.601" xlink:href="#mf7b048cd89" y="57.877"/><use x="833.948" xlink:href="#mf7b048cd89" y="57.365"/><use x="837.294" xlink:href="#mf7b048cd89" y="57.132"/><use x="840.641" xlink:href="#mf7b048cd89" y="56.643"/><use x="843.987" xlink:href="#mf7b048cd89" y="56.015"/><use x="847.334" xlink:href="#mf7b048cd89" y="55.735"/><use x="850.68" xlink:href="#mf7b048cd89" y="55.177"/></g></g><path d="M 50.87 524.95 L 50.87 26.88" fill="none" stroke="#000" stroke-linecap="square" stroke-width=".8" id="patch_3"/><path d="M 850.68 524.95 L 850.68 26.88" fill="none" stroke="#000" stroke-linecap="square" stroke-width=".8" id="patch_4"/><path d="M 50.87 524.95 L 850.68 524.95" fill="none" stroke="#000" stroke-linecap="square" stroke-width=".8" id="patch_5"/><path d="M 50.87 26.88 L 850.68 26.88" fill="none" stroke="#000" stroke-linecap="square" stroke-width=".8" id="patch_6"/><g id="text_71"><defs><path d="M 45.40625 46.390625 L 45.40625 75.984375 L 54.390625 75.984375 L 54.390625 0 L 45.40625 0 L 45.40625 8.203125 Q 42.578125 3.328125 38.25 0.953125 Q 33.9375 -1.421875 27.875 -1.421875 Q 17.96875 -1.421875 11.734375 6.484375 Q 5.515625 14.40625 5.515625 27.296875 Q 5.515625 40.1875 11.734375 48.09375 Q 17.96875 56 27.875 56 Q 33.9375 56 38.25 53.625 Q 42.578125 51.265625 45.40625 46.390625 z M 14.796875 27.296875 Q 14.796875 17.390625 18.875 11.75 Q 22.953125 6.109375 30.078125 6.109375 Q 37.203125 6.109375 41.296875 11.75 Q 45.40625 17.390625 45.40625 27.296875 Q 45.40625 37.203125 41.296875 42.84375 Q 37.203125 48.484375 30.078125 48.484375 Q 22.953125 48.484375 18.875 42.84375 Q 14.796875 37.203125 14.796875 27.296875 z" id="DejaVuSans-100"/><path d="M -0.296875 72.90625 L 61.375 72.90625 L 61.375 64.59375 L 35.5 64.59375 L 35.5 0 L 25.59375 0 L 25.59375 64.59375 L -0.296875 64.59375 z" id="DejaVuSans-84"/><path d="M 34.1875 63.1875 L 20.796875 26.90625 L 47.609375 26.90625 z M 28.609375 72.90625 L 39.796875 72.90625 L 67.578125 0 L 57.328125 0 L 50.6875 18.703125 L 17.828125 18.703125 L 11.1875 0 L 0.78125 0 z" id="DejaVuSans-65"/><path d="M 34.28125 27.484375 Q 23.390625 27.484375 19.1875 25 Q 14.984375 22.515625 14.984375 16.5 Q 14.984375 11.71875 18.140625 8.90625 Q 21.296875 6.109375 26.703125 6.109375 Q 34.1875 6.109375 38.703125 11.40625 Q 43.21875 16.703125 43.21875 25.484375 L 43.21875 27.484375 z M 52.203125 31.203125 L 52.203125 0 L 43.21875 0 L 43.21875 8.296875 Q 40.140625 3.328125 35.546875 0.953125 Q 30.953125 -1.421875 24.3125 -1.421875 Q 15.921875 -1.421875 10.953125 3.296875 Q 6 8.015625 6 15.921875 Q 6 25.140625 12.171875 29.828125 Q 18.359375 34.515625 30.609375 34.515625 L 43.21875 34.515625 L 43.21875 35.40625 Q 43.21875 41.609375 39.140625 45 Q 35.0625 48.390625 27.6875 48.390625 Q 23 48.390625 18.546875 47.265625 Q 14.109375 46.140625 10.015625 43.890625 L 10.015625 52.203125 Q 14.9375 54.109375 19.578125 55.046875 Q 24.21875 56 28.609375 56 Q 40.484375 56 46.34375 49.84375 Q 52.203125 43.703125 52.203125 31.203125 z" id="DejaVuSans-97"/><path d="M 45.40625 27.984375 Q 45.40625 37.75 41.375 43.109375 Q 37.359375 48.484375 30.078125 48.484375 Q 22.859375 48.484375 18.828125 43.109375 Q 14.796875 37.75 14.796875 27.984375 Q 14.796875 18.265625 18.828125 12.890625 Q 22.859375 7.515625 30.078125 7.515625 Q 37.359375 7.515625 41.375 12.890625 Q 45.40625 18.265625 45.40625 27.984375 z M 54.390625 6.78125 Q 54.390625 -7.171875 48.1875 -13.984375 Q 42 -20.796875 29.203125 -20.796875 Q 24.46875 -20.796875 20.265625 -20.09375 Q 16.0625 -19.390625 12.109375 -17.921875 L 12.109375 -9.1875 Q 16.0625 -11.328125 19.921875 -12.34375 Q 23.78125 -13.375 27.78125 -13.375 Q 36.625 -13.375 41.015625 -8.765625 Q 45.40625 -4.15625 45.40625 5.171875 L 45.40625 9.625 Q 42.625 4.78125 38.28125 2.390625 Q 33.9375 0 27.875 0 Q 17.828125 0 11.671875 7.65625 Q 5.515625 15.328125 5.515625 27.984375 Q 5.515625 40.671875 11.671875 48.328125 Q 17.828125 56 27.875 56 Q 33.9375 56 38.28125 53.609375 Q 42.625 51.21875 45.40625 46.390625 L 45.40625 54.6875 L 54.390625 54.6875 z" id="DejaVuSans-103"/><path d="M 9.8125 72.90625 L 24.515625 72.90625 L 43.109375 23.296875 L 61.8125 72.90625 L 76.515625 72.90625 L 76.515625 0 L 66.890625 0 L 66.890625 64.015625 L 48.09375 14.015625 L 38.1875 14.015625 L 19.390625 64.015625 L 19.390625 0 L 9.8125 0 z" id="DejaVuSans-77"/><path d="M 9.078125 75.984375 L 18.109375 75.984375 L 18.109375 31.109375 L 44.921875 54.6875 L 56.390625 54.6875 L 27.390625 29.109375 L 57.625 0 L 45.90625 0 L 18.109375 26.703125 L 18.109375 0 L 9.078125 0 z" id="DejaVuSans-107"/><path d="M 11.71875 12.40625 L 22.015625 12.40625 L 22.015625 0 L 11.71875 0 z M 11.71875 51.703125 L 22.015625 51.703125 L 22.015625 39.3125 L 11.71875 39.3125 z" id="DejaVuSans-58"/><path d="M 53.515625 70.515625 L 53.515625 60.890625 Q 47.90625 63.578125 42.921875 64.890625 Q 37.9375 66.21875 33.296875 66.21875 Q 25.25 66.21875 20.875 63.09375 Q 16.5 59.96875 16.5 54.203125 Q 16.5 49.359375 19.40625 46.890625 Q 22.3125 44.4375 30.421875 42.921875 L 36.375 41.703125 Q 47.40625 39.59375 52.65625 34.296875 Q 57.90625 29 57.90625 20.125 Q 57.90625 9.515625 50.796875 4.046875 Q 43.703125 -1.421875 29.984375 -1.421875 Q 24.8125 -1.421875 18.96875 -0.25 Q 13.140625 0.921875 6.890625 3.21875 L 6.890625 13.375 Q 12.890625 10.015625 18.65625 8.296875 Q 24.421875 6.59375 29.984375 6.59375 Q 38.421875 6.59375 43.015625 9.90625 Q 47.609375 13.234375 47.609375 19.390625 Q 47.609375 24.75 44.3125 27.78125 Q 41.015625 30.8125 33.5 32.328125 L 27.484375 33.5 Q 16.453125 35.6875 11.515625 40.375 Q 6.59375 45.0625 6.59375 53.421875 Q 6.59375 63.09375 13.40625 68.65625 Q 20.21875 74.21875 32.171875 74.21875 Q 37.3125 74.21875 42.625 73.28125 Q 47.953125 72.359375 53.515625 70.515625 z" id="DejaVuSans-83"/><path d="M 19.671875 64.796875 L 19.671875 8.109375 L 31.59375 8.109375 Q 46.6875 8.109375 53.6875 14.9375 Q 60.6875 21.78125 60.6875 36.53125 Q 60.6875 51.171875 53.6875 57.984375 Q 46.6875 64.796875 31.59375 64.796875 z M 9.8125 72.90625 L 30.078125 72.90625 Q 51.265625 72.90625 61.171875 64.09375 Q 71.09375 55.28125 71.09375 36.53125 Q 71.09375 17.671875 61.125 8.828125 Q 51.171875 0 30.078125 0 L 9.8125 0 z" id="DejaVuSans-68"/><path d="M 6.296875 72.90625 L 16.890625 72.90625 L 35.015625 45.796875 L 53.21875 72.90625 L 63.8125 72.90625 L 40.375 37.890625 L 65.375 0 L 54.78125 0 L 34.28125 31 L 13.625 0 L 2.984375 0 L 29 38.921875 z" id="DejaVuSans-88"/><path d="M 31 75.875 Q 24.46875 64.65625 21.28125 53.65625 Q 18.109375 42.671875 18.109375 31.390625 Q 18.109375 20.125 21.3125 9.0625 Q 24.515625 -2 31 -13.1875 L 23.1875 -13.1875 Q 15.875 -1.703125 12.234375 9.375 Q 8.59375 20.453125 8.59375 31.390625 Q 8.59375 42.28125 12.203125 53.3125 Q 15.828125 64.359375 23.1875 75.875 z" id="DejaVuSans-40"/><path d="M 9.8125 72.90625 L 19.671875 72.90625 L 19.671875 42.09375 L 52.390625 72.90625 L 65.09375 72.90625 L 28.90625 38.921875 L 67.671875 0 L 54.6875 0 L 19.671875 35.109375 L 19.671875 0 L 9.8125 0 z" id="DejaVuSans-75"/><path d="M 8.015625 75.875 L 15.828125 75.875 Q 23.140625 64.359375 26.78125 53.3125 Q 30.421875 42.28125 30.421875 31.390625 Q 30.421875 20.453125 26.78125 9.375 Q 23.140625 -1.703125 15.828125 -13.1875 L 8.015625 -13.1875 Q 14.5 -2 17.703125 9.0625 Q 20.90625 20.125 20.90625 31.390625 Q 20.90625 42.671875 17.703125 53.65625 Q 14.5 64.65625 8.015625 75.875 z" id="DejaVuSans-41"/></defs><g transform="matrix(.12 0 0 -.12 299.031 20.88)"><use xlink:href="#DejaVuSans-84"/><use x="60.818" xlink:href="#DejaVuSans-101"/><use x="122.342" xlink:href="#DejaVuSans-115"/><use x="174.441" xlink:href="#DejaVuSans-116"/><use x="213.65" xlink:href="#DejaVuSans-32"/><use x="245.438" xlink:href="#DejaVuSans-51"/><use x="309.061" xlink:href="#DejaVuSans-53"/><use x="372.684" xlink:href="#DejaVuSans-58"/><use x="406.375" xlink:href="#DejaVuSans-32"/><use x="438.162" xlink:href="#DejaVuSans-65"/><use x="506.57" xlink:href="#DejaVuSans-108"/><use x="534.354" xlink:href="#DejaVuSans-116"/><use x="573.563" xlink:href="#DejaVuSans-101"/><use x="635.086" xlink:href="#DejaVuSans-114"/><use x="676.184" xlink:href="#DejaVuSans-110"/><use x="739.563" xlink:href="#DejaVuSans-97"/><use x="800.842" xlink:href="#DejaVuSans-116"/><use x="840.051" xlink:href="#DejaVuSans-105"/><use x="867.834" xlink:href="#DejaVuSans-110"/><use x="931.213" xlink:href="#DejaVuSans-103"/><use x="994.689" xlink:href="#DejaVuSans-32"/><use x="1026.477" xlink:href="#DejaVuSans-77"/><use x="1112.756" xlink:href="#DejaVuSans-97"/><use x="1174.035" xlink:href="#DejaVuSans-115"/><use x="1226.135" xlink:href="#DejaVuSans-107"/><use x="1284.045" xlink:href="#DejaVuSans-32"/><use x="1315.832" xlink:href="#DejaVuSans-65"/><use x="1384.225" xlink:href="#DejaVuSans-100"/><use x="1447.701" xlink:href="#DejaVuSans-100"/><use x="1511.178" xlink:href="#DejaVuSans-32"/><use x="1542.965" xlink:href="#DejaVuSans-97"/><use x="1604.244" xlink:href="#DejaVuSans-110"/><use x="1667.623" xlink:href="#DejaVuSans-100"/><use x="1731.1" xlink:href="#DejaVuSans-32"/><use x="1762.887" xlink:href="#DejaVuSans-83"/><use x="1826.363" xlink:href="#DejaVuSans-73"/><use x="1855.855" xlink:href="#DejaVuSans-77"/><use x="1942.135" xlink:href="#DejaVuSans-68"/><use x="2019.137" xlink:href="#DejaVuSans-32"/><use x="2050.924" xlink:href="#DejaVuSans-88"/><use x="2119.43" xlink:href="#DejaVuSans-111"/><use x="2180.611" xlink:href="#DejaVuSans-114"/><use x="2221.725" xlink:href="#DejaVuSans-32"/><use x="2253.512" xlink:href="#DejaVuSans-40"/><use x="2292.525" xlink:href="#DejaVuSans-83"/><use x="2356.002" xlink:href="#DejaVuSans-75"/><use x="2421.578" xlink:href="#DejaVuSans-88"/><use x="2490.084" xlink:href="#DejaVuSans-41"/></g></g><g id="legend_1"><path d="M 57.87 64.23625 L 111.290312 64.23625 Q 113.290312 64.23625 113.290312 62.23625 L 113.290312 33.88 Q 113.290312 31.88 111.290312 31.88 L 57.87 31.88 Q 55.87 31.88 55.87 33.88 L 55.87 62.23625 Q 55.87 64.23625 57.87 64.23625 z" fill="#fff" opacity=".8" stroke="#ccc" id="patch_7"/><path d="M 59.87 39.978437 L 79.87 39.978437" fill="none" stroke="#1f77b4" stroke-linecap="square" stroke-width="1.5" id="line2d_139"/><use x="69.87" xlink:href="#mfd23d3c377" y="39.978" fill="#1f77b4" stroke="#1f77b4" id="line2d_140"/><g id="text_72"><defs><path d="M 9.8125 72.90625 L 23.09375 72.90625 L 55.421875 11.921875 L 55.421875 72.90625 L 64.984375 72.90625 L 64.984375 0 L 51.703125 0 L 19.390625 60.984375 L 19.390625 0 L 9.8125 0 z" id="DejaVuSans-78"/></defs><g transform="matrix(.1 0 0 -.1 87.87 43.478)"><use xlink:href="#DejaVuSans-77"/><use x="86.279" xlink:href="#DejaVuSans-73"/><use x="115.771" xlink:href="#DejaVuSans-78"/></g></g><path d="M 59.87 54.656562 L 79.87 54.656562" fill="none" stroke="#ff7f0e" stroke-linecap="square" stroke-width="1.5" id="line2d_141"/><use x="69.87" xlink:href="#mf7b048cd89" y="54.657" fill="#ff7f0e" stroke="#ff7f0e" id="line2d_142"/><g id="text_73"><defs><path d="M 28.609375 0 L 0.78125 72.90625 L 11.078125 72.90625 L 34.1875 11.53125 L 57.328125 72.90625 L 67.578125 72.90625 L 39.796875 0 z" id="DejaVuSans-86"/><path d="M 59.515625 10.40625 L 59.515625 29.984375 L 43.40625 29.984375 L 43.40625 38.09375 L 69.28125 38.09375 L 69.28125 6.78125 Q 63.578125 2.734375 56.6875 0.65625 Q 49.8125 -1.421875 42 -1.421875 Q 24.90625 -1.421875 15.25 8.5625 Q 5.609375 18.5625 5.609375 36.375 Q 5.609375 54.25 15.25 64.234375 Q 24.90625 74.21875 42 74.21875 Q 49.125 74.21875 55.546875 72.453125 Q 61.96875 70.703125 67.390625 67.28125 L 67.390625 56.78125 Q 61.921875 61.421875 55.765625 63.765625 Q 49.609375 66.109375 42.828125 66.109375 Q 29.4375 66.109375 22.71875 58.640625 Q 16.015625 51.171875 16.015625 36.375 Q 16.015625 21.625 22.71875 14.15625 Q 29.4375 6.6875 42.828125 6.6875 Q 48.046875 6.6875 52.140625 7.59375 Q 56.25 8.5 59.515625 10.40625 z" id="DejaVuSans-71"/></defs><g transform="matrix(.1 0 0 -.1 87.87 58.157)"><use xlink:href="#DejaVuSans-65"/><use x="68.314" xlink:href="#DejaVuSans-86"/><use x="136.723" xlink:href="#DejaVuSans-71"/></g></g></g></g></g><defs><clipPath id="p74d9dedb55"><path d="M50.87 26.88H850.68V524.95H50.87z"/></clipPath></defs></svg>