<?xml version="1.0" encoding="utf-8" standalone="no"?>
<!DOCTYPE svg PUBLIC "-//W3C//DTD SVG 1.1//EN"
  "http://www.w3.org/Graphics/SVG/1.1/DTD/svg11.dtd">
<!-- Created with matplotlib (https://matplotlib.org/) -->
<svg height="432pt" version="1.1" viewBox="0 0 648 432" width="648pt" xmlns="http://www.w3.org/2000/svg" xmlns:xlink="http://www.w3.org/1999/xlink">
 <defs>
  <style type="text/css">
*{stroke-linecap:butt;stroke-linejoin:round;}
  </style>
 </defs>
 <g id="figure_1">
  <g id="patch_1">
   <path d="M 0 432 
L 648 432 
L 648 0 
L 0 0 
z
" style="fill:#ffffff;"/>
  </g>
  <g id="axes_1">
   <g id="patch_2">
    <path d="M 58.16 389.32 
L 637.2 389.32 
L 637.2 25.44 
L 58.16 25.44 
z
" style="fill:#ffffff;"/>
   </g>
   <g id="patch_3">
    <path clip-path="url(#p54c3fcca10)" d="M 67.810667 389.32 
L 72.636 389.32 
L 72.636 379.651106 
L 67.810667 379.651106 
z
" style="fill:#1f77b4;"/>
   </g>
   <g id="patch_4">
    <path clip-path="url(#p54c3fcca10)" d="M 106.413333 389.32 
L 111.238667 389.32 
L 111.238667 376.314088 
L 106.413333 376.314088 
z
" style="fill:#1f77b4;"/>
   </g>
   <g id="patch_5">
    <path clip-path="url(#p54c3fcca10)" d="M 145.016 389.32 
L 149.841333 389.32 
L 149.841333 368.528995 
L 145.016 368.528995 
z
" style="fill:#1f77b4;"/>
   </g>
   <g id="patch_6">
    <path clip-path="url(#p54c3fcca10)" d="M 183.618667 389.32 
L 188.444 389.32 
L 188.444 363.300487 
L 183.618667 363.300487 
z
" style="fill:#1f77b4;"/>
   </g>
   <g id="patch_7">
    <path clip-path="url(#p54c3fcca10)" d="M 222.221333 389.32 
L 227.046667 389.32 
L 227.046667 348.441531 
L 222.221333 348.441531 
z
" style="fill:#1f77b4;"/>
   </g>
   <g id="patch_8">
    <path clip-path="url(#p54c3fcca10)" d="M 260.824 389.32 
L 265.649333 389.32 
L 265.649333 335.635533 
L 260.824 335.635533 
z
" style="fill:#1f77b4;"/>
   </g>
   <g id="patch_9">
    <path clip-path="url(#p54c3fcca10)" d="M 299.426667 389.32 
L 304.252 389.32 
L 304.252 324.824825 
L 299.426667 324.824825 
z
" style="fill:#1f77b4;"/>
   </g>
   <g id="patch_10">
    <path clip-path="url(#p54c3fcca10)" d="M 338.029333 389.32 
L 342.854667 389.32 
L 342.854667 306.498138 
L 338.029333 306.498138 
z
" style="fill:#1f77b4;"/>
   </g>
   <g id="patch_11">
    <path clip-path="url(#p54c3fcca10)" d="M 376.632 389.32 
L 381.457333 389.32 
L 381.457333 293.380736 
L 376.632 293.380736 
z
" style="fill:#1f77b4;"/>
   </g>
   <g id="patch_12">
    <path clip-path="url(#p54c3fcca10)" d="M 415.234667 389.32 
L 420.06 389.32 
L 420.06 282.162513 
L 415.234667 282.162513 
z
" style="fill:#1f77b4;"/>
   </g>
   <g id="patch_13">
    <path clip-path="url(#p54c3fcca10)" d="M 453.837333 389.32 
L 458.662667 389.32 
L 458.662667 274.438931 
L 453.837333 274.438931 
z
" style="fill:#1f77b4;"/>
   </g>
   <g id="patch_14">
    <path clip-path="url(#p54c3fcca10)" d="M 492.44 389.32 
L 497.265333 389.32 
L 497.265333 266.046408 
L 492.44 266.046408 
z
" style="fill:#1f77b4;"/>
   </g>
   <g id="patch_15">
    <path clip-path="url(#p54c3fcca10)" d="M 531.042667 389.32 
L 535.868 389.32 
L 535.868 253.021274 
L 531.042667 253.021274 
z
" style="fill:#1f77b4;"/>
   </g>
   <g id="patch_16">
    <path clip-path="url(#p54c3fcca10)" d="M 569.645333 389.32 
L 574.470667 389.32 
L 574.470667 242.010653 
L 569.645333 242.010653 
z
" style="fill:#1f77b4;"/>
   </g>
   <g id="patch_17">
    <path clip-path="url(#p54c3fcca10)" d="M 608.248 389.32 
L 613.073333 389.32 
L 613.073333 232.360981 
L 608.248 232.360981 
z
" style="fill:#1f77b4;"/>
   </g>
   <g id="patch_18">
    <path clip-path="url(#p54c3fcca10)" d="M 72.636 389.32 
L 77.461333 389.32 
L 77.461333 388.139741 
L 72.636 388.139741 
z
" style="fill:#ff7f0e;"/>
   </g>
   <g id="patch_19">
    <path clip-path="url(#p54c3fcca10)" d="M 111.238667 389.32 
L 116.064 389.32 
L 116.064 386.029116 
L 111.238667 386.029116 
z
" style="fill:#ff7f0e;"/>
   </g>
   <g id="patch_20">
    <path clip-path="url(#p54c3fcca10)" d="M 149.841333 389.32 
L 154.666667 389.32 
L 154.666667 385.267907 
L 149.841333 385.267907 
z
" style="fill:#ff7f0e;"/>
   </g>
   <g id="patch_21">
    <path clip-path="url(#p54c3fcca10)" d="M 188.444 389.32 
L 193.269333 389.32 
L 193.269333 384.137627 
L 188.444 384.137627 
z
" style="fill:#ff7f0e;"/>
   </g>
   <g id="patch_22">
    <path clip-path="url(#p54c3fcca10)" d="M 227.046667 389.32 
L 231.872 389.32 
L 231.872 379.408903 
L 227.046667 379.408903 
z
" style="fill:#ff7f0e;"/>
   </g>
   <g id="patch_23">
    <path clip-path="url(#p54c3fcca10)" d="M 265.649333 389.32 
L 270.474667 389.32 
L 270.474667 376.786961 
L 265.649333 376.786961 
z
" style="fill:#ff7f0e;"/>
   </g>
   <g id="patch_24">
    <path clip-path="url(#p54c3fcca10)" d="M 304.252 389.32 
L 309.077333 389.32 
L 309.077333 373.549899 
L 304.252 373.549899 
z
" style="fill:#ff7f0e;"/>
   </g>
   <g id="patch_25">
    <path clip-path="url(#p54c3fcca10)" d="M 342.854667 389.32 
L 347.68 389.32 
L 347.68 377.62506 
L 342.854667 377.62506 
z
" style="fill:#ff7f0e;"/>
   </g>
   <g id="patch_26">
    <path clip-path="url(#p54c3fcca10)" d="M 381.457333 389.32 
L 386.282667 389.32 
L 386.282667 368.0369 
L 381.457333 368.0369 
z
" style="fill:#ff7f0e;"/>
   </g>
   <g id="patch_27">
    <path clip-path="url(#p54c3fcca10)" d="M 420.06 389.32 
L 424.885333 389.32 
L 424.885333 366.560615 
L 420.06 366.560615 
z
" style="fill:#ff7f0e;"/>
   </g>
   <g id="patch_28">
    <path clip-path="url(#p54c3fcca10)" d="M 458.662667 389.32 
L 463.488 389.32 
L 463.488 358.237293 
L 458.662667 358.237293 
z
" style="fill:#ff7f0e;"/>
   </g>
   <g id="patch_29">
    <path clip-path="url(#p54c3fcca10)" d="M 497.265333 389.32 
L 502.090667 389.32 
L 502.090667 363.804116 
L 497.265333 363.804116 
z
" style="fill:#ff7f0e;"/>
   </g>
   <g id="patch_30">
    <path clip-path="url(#p54c3fcca10)" d="M 535.868 389.32 
L 540.693333 389.32 
L 540.693333 349.910127 
L 535.868 349.910127 
z
" style="fill:#ff7f0e;"/>
   </g>
   <g id="patch_31">
    <path clip-path="url(#p54c3fcca10)" d="M 574.470667 389.32 
L 579.296 389.32 
L 579.296 344.216436 
L 574.470667 344.216436 
z
" style="fill:#ff7f0e;"/>
   </g>
   <g id="patch_32">
    <path clip-path="url(#p54c3fcca10)" d="M 613.073333 389.32 
L 617.898667 389.32 
L 617.898667 336.562055 
L 613.073333 336.562055 
z
" style="fill:#ff7f0e;"/>
   </g>
   <g id="patch_33">
    <path clip-path="url(#p54c3fcca10)" d="M 77.461333 389.32 
L 82.286667 389.32 
L 82.286667 387.213219 
L 77.461333 387.213219 
z
" style="fill:#2ca02c;"/>
   </g>
   <g id="patch_34">
    <path clip-path="url(#p54c3fcca10)" d="M 116.064 389.32 
L 120.889333 389.32 
L 120.889333 383.837756 
L 116.064 383.837756 
z
" style="fill:#2ca02c;"/>
   </g>
   <g id="patch_35">
    <path clip-path="url(#p54c3fcca10)" d="M 154.666667 389.32 
L 159.492 389.32 
L 159.492 382.588297 
L 154.666667 382.588297 
z
" style="fill:#2ca02c;"/>
   </g>
   <g id="patch_36">
    <path clip-path="url(#p54c3fcca10)" d="M 193.269333 389.32 
L 198.094667 389.32 
L 198.094667 380.485361 
L 193.269333 380.485361 
z
" style="fill:#2ca02c;"/>
   </g>
   <g id="patch_37">
    <path clip-path="url(#p54c3fcca10)" d="M 231.872 389.32 
L 236.697333 389.32 
L 236.697333 374.33802 
L 231.872 374.33802 
z
" style="fill:#2ca02c;"/>
   </g>
   <g id="patch_38">
    <path clip-path="url(#p54c3fcca10)" d="M 270.474667 389.32 
L 275.3 389.32 
L 275.3 369.140269 
L 270.474667 369.140269 
z
" style="fill:#2ca02c;"/>
   </g>
   <g id="patch_39">
    <path clip-path="url(#p54c3fcca10)" d="M 309.077333 389.32 
L 313.902667 389.32 
L 313.902667 364.672971 
L 309.077333 364.672971 
z
" style="fill:#2ca02c;"/>
   </g>
   <g id="patch_40">
    <path clip-path="url(#p54c3fcca10)" d="M 347.68 389.32 
L 352.505333 389.32 
L 352.505333 366.226145 
L 347.68 366.226145 
z
" style="fill:#2ca02c;"/>
   </g>
   <g id="patch_41">
    <path clip-path="url(#p54c3fcca10)" d="M 386.282667 389.32 
L 391.108 389.32 
L 391.108 356.215091 
L 386.282667 356.215091 
z
" style="fill:#2ca02c;"/>
   </g>
   <g id="patch_42">
    <path clip-path="url(#p54c3fcca10)" d="M 424.885333 389.32 
L 429.710667 389.32 
L 429.710667 346.380884 
L 424.885333 346.380884 
z
" style="fill:#2ca02c;"/>
   </g>
   <g id="patch_43">
    <path clip-path="url(#p54c3fcca10)" d="M 463.488 389.32 
L 468.313333 389.32 
L 468.313333 339.010996 
L 463.488 339.010996 
z
" style="fill:#2ca02c;"/>
   </g>
   <g id="patch_44">
    <path clip-path="url(#p54c3fcca10)" d="M 502.090667 389.32 
L 506.916 389.32 
L 506.916 339.491557 
L 502.090667 339.491557 
z
" style="fill:#2ca02c;"/>
   </g>
   <g id="patch_45">
    <path clip-path="url(#p54c3fcca10)" d="M 540.693333 389.32 
L 545.518667 389.32 
L 545.518667 327.3199 
L 540.693333 327.3199 
z
" style="fill:#2ca02c;"/>
   </g>
   <g id="patch_46">
    <path clip-path="url(#p54c3fcca10)" d="M 579.296 389.32 
L 584.121333 389.32 
L 584.121333 320.203747 
L 579.296 320.203747 
z
" style="fill:#2ca02c;"/>
   </g>
   <g id="patch_47">
    <path clip-path="url(#p54c3fcca10)" d="M 617.898667 389.32 
L 622.724 389.32 
L 622.724 310.119649 
L 617.898667 310.119649 
z
" style="fill:#2ca02c;"/>
   </g>
   <g id="patch_48">
    <path clip-path="url(#p54c3fcca10)" d="M 82.286667 389.32 
L 87.112 389.32 
L 87.112 360.916903 
L 82.286667 360.916903 
z
" style="fill:#d62728;"/>
   </g>
   <g id="patch_49">
    <path clip-path="url(#p54c3fcca10)" d="M 120.889333 389.32 
L 125.714667 389.32 
L 125.714667 353.035697 
L 120.889333 353.035697 
z
" style="fill:#d62728;"/>
   </g>
   <g id="patch_50">
    <path clip-path="url(#p54c3fcca10)" d="M 159.492 389.32 
L 164.317333 389.32 
L 164.317333 328.853851 
L 159.492 328.853851 
z
" style="fill:#d62728;"/>
   </g>
   <g id="patch_51">
    <path clip-path="url(#p54c3fcca10)" d="M 198.094667 389.32 
L 202.92 389.32 
L 202.92 292.577238 
L 198.094667 292.577238 
z
" style="fill:#d62728;"/>
   </g>
   <g id="patch_52">
    <path clip-path="url(#p54c3fcca10)" d="M 236.697333 389.32 
L 241.522667 389.32 
L 241.522667 270.263814 
L 236.697333 270.263814 
z
" style="fill:#d62728;"/>
   </g>
   <g id="patch_53">
    <path clip-path="url(#p54c3fcca10)" d="M 275.3 389.32 
L 280.125333 389.32 
L 280.125333 245.809009 
L 275.3 245.809009 
z
" style="fill:#d62728;"/>
   </g>
   <g id="patch_54">
    <path clip-path="url(#p54c3fcca10)" d="M 313.902667 389.32 
L 318.728 389.32 
L 318.728 214.068895 
L 313.902667 214.068895 
z
" style="fill:#d62728;"/>
   </g>
   <g id="patch_55">
    <path clip-path="url(#p54c3fcca10)" d="M 352.505333 389.32 
L 357.330667 389.32 
L 357.330667 200.805402 
L 352.505333 200.805402 
z
" style="fill:#d62728;"/>
   </g>
   <g id="patch_56">
    <path clip-path="url(#p54c3fcca10)" d="M 391.108 389.32 
L 395.933333 389.32 
L 395.933333 181.217722 
L 391.108 181.217722 
z
" style="fill:#d62728;"/>
   </g>
   <g id="patch_57">
    <path clip-path="url(#p54c3fcca10)" d="M 429.710667 389.32 
L 434.536 389.32 
L 434.536 157.058943 
L 429.710667 157.058943 
z
" style="fill:#d62728;"/>
   </g>
   <g id="patch_58">
    <path clip-path="url(#p54c3fcca10)" d="M 468.313333 389.32 
L 473.138667 389.32 
L 473.138667 133.349969 
L 468.313333 133.349969 
z
" style="fill:#d62728;"/>
   </g>
   <g id="patch_59">
    <path clip-path="url(#p54c3fcca10)" d="M 506.916 389.32 
L 511.741333 389.32 
L 511.741333 114.127516 
L 506.916 114.127516 
z
" style="fill:#d62728;"/>
   </g>
   <g id="patch_60">
    <path clip-path="url(#p54c3fcca10)" d="M 545.518667 389.32 
L 550.344 389.32 
L 550.344 92.17163 
L 545.518667 92.17163 
z
" style="fill:#d62728;"/>
   </g>
   <g id="patch_61">
    <path clip-path="url(#p54c3fcca10)" d="M 584.121333 389.32 
L 588.946667 389.32 
L 588.946667 76.77829 
L 584.121333 76.77829 
z
" style="fill:#d62728;"/>
   </g>
   <g id="patch_62">
    <path clip-path="url(#p54c3fcca10)" d="M 622.724 389.32 
L 627.549333 389.32 
L 627.549333 50.497352 
L 622.724 50.497352 
z
" style="fill:#d62728;"/>
   </g>
   <g id="matplotlib.axis_1">
    <g id="xtick_1">
     <g id="line2d_1">
      <defs>
       <path d="M 0 0 
L 0 3.5 
" id="mfc518bbc66" style="stroke:#000000;stroke-width:0.8;"/>
      </defs>
      <g>
       <use style="stroke:#000000;stroke-width:0.8;" x="77.461333" xlink:href="#mfc518bbc66" y="389.32"/>
      </g>
     </g>
     <g id="text_1">
      <!-- 2 -->
      <defs>
       <path d="M 19.1875 8.296875 
L 53.609375 8.296875 
L 53.609375 0 
L 7.328125 0 
L 7.328125 8.296875 
Q 12.9375 14.109375 22.625 23.890625 
Q 32.328125 33.6875 34.8125 36.53125 
Q 39.546875 41.84375 41.421875 45.53125 
Q 43.3125 49.21875 43.3125 52.78125 
Q 43.3125 58.59375 39.234375 62.25 
Q 35.15625 65.921875 28.609375 65.921875 
Q 23.96875 65.921875 18.8125 64.3125 
Q 13.671875 62.703125 7.8125 59.421875 
L 7.8125 69.390625 
Q 13.765625 71.78125 18.9375 73 
Q 24.125 74.21875 28.421875 74.21875 
Q 39.75 74.21875 46.484375 68.546875 
Q 53.21875 62.890625 53.21875 53.421875 
Q 53.21875 48.921875 51.53125 44.890625 
Q 49.859375 40.875 45.40625 35.40625 
Q 44.1875 33.984375 37.640625 27.21875 
Q 31.109375 20.453125 19.1875 8.296875 
z
" id="DejaVuSans-50"/>
      </defs>
      <g transform="translate(74.280083 403.918437)scale(0.1 -0.1)">
       <use xlink:href="#DejaVuSans-50"/>
      </g>
     </g>
    </g>
    <g id="xtick_2">
     <g id="line2d_2">
      <g>
       <use style="stroke:#000000;stroke-width:0.8;" x="116.064" xlink:href="#mfc518bbc66" y="389.32"/>
      </g>
     </g>
     <g id="text_2">
      <!-- 3 -->
      <defs>
       <path d="M 40.578125 39.3125 
Q 47.65625 37.796875 51.625 33 
Q 55.609375 28.21875 55.609375 21.1875 
Q 55.609375 10.40625 48.1875 4.484375 
Q 40.765625 -1.421875 27.09375 -1.421875 
Q 22.515625 -1.421875 17.65625 -0.515625 
Q 12.796875 0.390625 7.625 2.203125 
L 7.625 11.71875 
Q 11.71875 9.328125 16.59375 8.109375 
Q 21.484375 6.890625 26.8125 6.890625 
Q 36.078125 6.890625 40.9375 10.546875 
Q 45.796875 14.203125 45.796875 21.1875 
Q 45.796875 27.640625 41.28125 31.265625 
Q 36.765625 34.90625 28.71875 34.90625 
L 20.21875 34.90625 
L 20.21875 43.015625 
L 29.109375 43.015625 
Q 36.375 43.015625 40.234375 45.921875 
Q 44.09375 48.828125 44.09375 54.296875 
Q 44.09375 59.90625 40.109375 62.90625 
Q 36.140625 65.921875 28.71875 65.921875 
Q 24.65625 65.921875 20.015625 65.03125 
Q 15.375 64.15625 9.8125 62.3125 
L 9.8125 71.09375 
Q 15.4375 72.65625 20.34375 73.4375 
Q 25.25 74.21875 29.59375 74.21875 
Q 40.828125 74.21875 47.359375 69.109375 
Q 53.90625 64.015625 53.90625 55.328125 
Q 53.90625 49.265625 50.4375 45.09375 
Q 46.96875 40.921875 40.578125 39.3125 
z
" id="DejaVuSans-51"/>
      </defs>
      <g transform="translate(112.88275 403.918437)scale(0.1 -0.1)">
       <use xlink:href="#DejaVuSans-51"/>
      </g>
     </g>
    </g>
    <g id="xtick_3">
     <g id="line2d_3">
      <g>
       <use style="stroke:#000000;stroke-width:0.8;" x="154.666667" xlink:href="#mfc518bbc66" y="389.32"/>
      </g>
     </g>
     <g id="text_3">
      <!-- 4 -->
      <defs>
       <path d="M 37.796875 64.3125 
L 12.890625 25.390625 
L 37.796875 25.390625 
z
M 35.203125 72.90625 
L 47.609375 72.90625 
L 47.609375 25.390625 
L 58.015625 25.390625 
L 58.015625 17.1875 
L 47.609375 17.1875 
L 47.609375 0 
L 37.796875 0 
L 37.796875 17.1875 
L 4.890625 17.1875 
L 4.890625 26.703125 
z
" id="DejaVuSans-52"/>
      </defs>
      <g transform="translate(151.485417 403.918437)scale(0.1 -0.1)">
       <use xlink:href="#DejaVuSans-52"/>
      </g>
     </g>
    </g>
    <g id="xtick_4">
     <g id="line2d_4">
      <g>
       <use style="stroke:#000000;stroke-width:0.8;" x="193.269333" xlink:href="#mfc518bbc66" y="389.32"/>
      </g>
     </g>
     <g id="text_4">
      <!-- 5 -->
      <defs>
       <path d="M 10.796875 72.90625 
L 49.515625 72.90625 
L 49.515625 64.59375 
L 19.828125 64.59375 
L 19.828125 46.734375 
Q 21.96875 47.46875 24.109375 47.828125 
Q 26.265625 48.1875 28.421875 48.1875 
Q 40.625 48.1875 47.75 41.5 
Q 54.890625 34.8125 54.890625 23.390625 
Q 54.890625 11.625 47.5625 5.09375 
Q 40.234375 -1.421875 26.90625 -1.421875 
Q 22.3125 -1.421875 17.546875 -0.640625 
Q 12.796875 0.140625 7.71875 1.703125 
L 7.71875 11.625 
Q 12.109375 9.234375 16.796875 8.0625 
Q 21.484375 6.890625 26.703125 6.890625 
Q 35.15625 6.890625 40.078125 11.328125 
Q 45.015625 15.765625 45.015625 23.390625 
Q 45.015625 31 40.078125 35.4375 
Q 35.15625 39.890625 26.703125 39.890625 
Q 22.75 39.890625 18.8125 39.015625 
Q 14.890625 38.140625 10.796875 36.28125 
z
" id="DejaVuSans-53"/>
      </defs>
      <g transform="translate(190.088083 403.918437)scale(0.1 -0.1)">
       <use xlink:href="#DejaVuSans-53"/>
      </g>
     </g>
    </g>
    <g id="xtick_5">
     <g id="line2d_5">
      <g>
       <use style="stroke:#000000;stroke-width:0.8;" x="231.872" xlink:href="#mfc518bbc66" y="389.32"/>
      </g>
     </g>
     <g id="text_5">
      <!-- 6 -->
      <defs>
       <path d="M 33.015625 40.375 
Q 26.375 40.375 22.484375 35.828125 
Q 18.609375 31.296875 18.609375 23.390625 
Q 18.609375 15.53125 22.484375 10.953125 
Q 26.375 6.390625 33.015625 6.390625 
Q 39.65625 6.390625 43.53125 10.953125 
Q 47.40625 15.53125 47.40625 23.390625 
Q 47.40625 31.296875 43.53125 35.828125 
Q 39.65625 40.375 33.015625 40.375 
z
M 52.59375 71.296875 
L 52.59375 62.3125 
Q 48.875 64.0625 45.09375 64.984375 
Q 41.3125 65.921875 37.59375 65.921875 
Q 27.828125 65.921875 22.671875 59.328125 
Q 17.53125 52.734375 16.796875 39.40625 
Q 19.671875 43.65625 24.015625 45.921875 
Q 28.375 48.1875 33.59375 48.1875 
Q 44.578125 48.1875 50.953125 41.515625 
Q 57.328125 34.859375 57.328125 23.390625 
Q 57.328125 12.15625 50.6875 5.359375 
Q 44.046875 -1.421875 33.015625 -1.421875 
Q 20.359375 -1.421875 13.671875 8.265625 
Q 6.984375 17.96875 6.984375 36.375 
Q 6.984375 53.65625 15.1875 63.9375 
Q 23.390625 74.21875 37.203125 74.21875 
Q 40.921875 74.21875 44.703125 73.484375 
Q 48.484375 72.75 52.59375 71.296875 
z
" id="DejaVuSans-54"/>
      </defs>
      <g transform="translate(228.69075 403.918437)scale(0.1 -0.1)">
       <use xlink:href="#DejaVuSans-54"/>
      </g>
     </g>
    </g>
    <g id="xtick_6">
     <g id="line2d_6">
      <g>
       <use style="stroke:#000000;stroke-width:0.8;" x="270.474667" xlink:href="#mfc518bbc66" y="389.32"/>
      </g>
     </g>
     <g id="text_6">
      <!-- 7 -->
      <defs>
       <path d="M 8.203125 72.90625 
L 55.078125 72.90625 
L 55.078125 68.703125 
L 28.609375 0 
L 18.3125 0 
L 43.21875 64.59375 
L 8.203125 64.59375 
z
" id="DejaVuSans-55"/>
      </defs>
      <g transform="translate(267.293417 403.918437)scale(0.1 -0.1)">
       <use xlink:href="#DejaVuSans-55"/>
      </g>
     </g>
    </g>
    <g id="xtick_7">
     <g id="line2d_7">
      <g>
       <use style="stroke:#000000;stroke-width:0.8;" x="309.077333" xlink:href="#mfc518bbc66" y="389.32"/>
      </g>
     </g>
     <g id="text_7">
      <!-- 8 -->
      <defs>
       <path d="M 31.78125 34.625 
Q 24.75 34.625 20.71875 30.859375 
Q 16.703125 27.09375 16.703125 20.515625 
Q 16.703125 13.921875 20.71875 10.15625 
Q 24.75 6.390625 31.78125 6.390625 
Q 38.8125 6.390625 42.859375 10.171875 
Q 46.921875 13.96875 46.921875 20.515625 
Q 46.921875 27.09375 42.890625 30.859375 
Q 38.875 34.625 31.78125 34.625 
z
M 21.921875 38.8125 
Q 15.578125 40.375 12.03125 44.71875 
Q 8.5 49.078125 8.5 55.328125 
Q 8.5 64.0625 14.71875 69.140625 
Q 20.953125 74.21875 31.78125 74.21875 
Q 42.671875 74.21875 48.875 69.140625 
Q 55.078125 64.0625 55.078125 55.328125 
Q 55.078125 49.078125 51.53125 44.71875 
Q 48 40.375 41.703125 38.8125 
Q 48.828125 37.15625 52.796875 32.3125 
Q 56.78125 27.484375 56.78125 20.515625 
Q 56.78125 9.90625 50.3125 4.234375 
Q 43.84375 -1.421875 31.78125 -1.421875 
Q 19.734375 -1.421875 13.25 4.234375 
Q 6.78125 9.90625 6.78125 20.515625 
Q 6.78125 27.484375 10.78125 32.3125 
Q 14.796875 37.15625 21.921875 38.8125 
z
M 18.3125 54.390625 
Q 18.3125 48.734375 21.84375 45.5625 
Q 25.390625 42.390625 31.78125 42.390625 
Q 38.140625 42.390625 41.71875 45.5625 
Q 45.3125 48.734375 45.3125 54.390625 
Q 45.3125 60.0625 41.71875 63.234375 
Q 38.140625 66.40625 31.78125 66.40625 
Q 25.390625 66.40625 21.84375 63.234375 
Q 18.3125 60.0625 18.3125 54.390625 
z
" id="DejaVuSans-56"/>
      </defs>
      <g transform="translate(305.896083 403.918437)scale(0.1 -0.1)">
       <use xlink:href="#DejaVuSans-56"/>
      </g>
     </g>
    </g>
    <g id="xtick_8">
     <g id="line2d_8">
      <g>
       <use style="stroke:#000000;stroke-width:0.8;" x="347.68" xlink:href="#mfc518bbc66" y="389.32"/>
      </g>
     </g>
     <g id="text_8">
      <!-- 9 -->
      <defs>
       <path d="M 10.984375 1.515625 
L 10.984375 10.5 
Q 14.703125 8.734375 18.5 7.8125 
Q 22.3125 6.890625 25.984375 6.890625 
Q 35.75 6.890625 40.890625 13.453125 
Q 46.046875 20.015625 46.78125 33.40625 
Q 43.953125 29.203125 39.59375 26.953125 
Q 35.25 24.703125 29.984375 24.703125 
Q 19.046875 24.703125 12.671875 31.3125 
Q 6.296875 37.9375 6.296875 49.421875 
Q 6.296875 60.640625 12.9375 67.421875 
Q 19.578125 74.21875 30.609375 74.21875 
Q 43.265625 74.21875 49.921875 64.515625 
Q 56.59375 54.828125 56.59375 36.375 
Q 56.59375 19.140625 48.40625 8.859375 
Q 40.234375 -1.421875 26.421875 -1.421875 
Q 22.703125 -1.421875 18.890625 -0.6875 
Q 15.09375 0.046875 10.984375 1.515625 
z
M 30.609375 32.421875 
Q 37.25 32.421875 41.125 36.953125 
Q 45.015625 41.5 45.015625 49.421875 
Q 45.015625 57.28125 41.125 61.84375 
Q 37.25 66.40625 30.609375 66.40625 
Q 23.96875 66.40625 20.09375 61.84375 
Q 16.21875 57.28125 16.21875 49.421875 
Q 16.21875 41.5 20.09375 36.953125 
Q 23.96875 32.421875 30.609375 32.421875 
z
" id="DejaVuSans-57"/>
      </defs>
      <g transform="translate(344.49875 403.918437)scale(0.1 -0.1)">
       <use xlink:href="#DejaVuSans-57"/>
      </g>
     </g>
    </g>
    <g id="xtick_9">
     <g id="line2d_9">
      <g>
       <use style="stroke:#000000;stroke-width:0.8;" x="386.282667" xlink:href="#mfc518bbc66" y="389.32"/>
      </g>
     </g>
     <g id="text_9">
      <!-- 10 -->
      <defs>
       <path d="M 12.40625 8.296875 
L 28.515625 8.296875 
L 28.515625 63.921875 
L 10.984375 60.40625 
L 10.984375 69.390625 
L 28.421875 72.90625 
L 38.28125 72.90625 
L 38.28125 8.296875 
L 54.390625 8.296875 
L 54.390625 0 
L 12.40625 0 
z
" id="DejaVuSans-49"/>
       <path d="M 31.78125 66.40625 
Q 24.171875 66.40625 20.328125 58.90625 
Q 16.5 51.421875 16.5 36.375 
Q 16.5 21.390625 20.328125 13.890625 
Q 24.171875 6.390625 31.78125 6.390625 
Q 39.453125 6.390625 43.28125 13.890625 
Q 47.125 21.390625 47.125 36.375 
Q 47.125 51.421875 43.28125 58.90625 
Q 39.453125 66.40625 31.78125 66.40625 
z
M 31.78125 74.21875 
Q 44.046875 74.21875 50.515625 64.515625 
Q 56.984375 54.828125 56.984375 36.375 
Q 56.984375 17.96875 50.515625 8.265625 
Q 44.046875 -1.421875 31.78125 -1.421875 
Q 19.53125 -1.421875 13.0625 8.265625 
Q 6.59375 17.96875 6.59375 36.375 
Q 6.59375 54.828125 13.0625 64.515625 
Q 19.53125 74.21875 31.78125 74.21875 
z
" id="DejaVuSans-48"/>
      </defs>
      <g transform="translate(379.920167 403.918437)scale(0.1 -0.1)">
       <use xlink:href="#DejaVuSans-49"/>
       <use x="63.623047" xlink:href="#DejaVuSans-48"/>
      </g>
     </g>
    </g>
    <g id="xtick_10">
     <g id="line2d_10">
      <g>
       <use style="stroke:#000000;stroke-width:0.8;" x="424.885333" xlink:href="#mfc518bbc66" y="389.32"/>
      </g>
     </g>
     <g id="text_10">
      <!-- 11 -->
      <g transform="translate(418.522833 403.918437)scale(0.1 -0.1)">
       <use xlink:href="#DejaVuSans-49"/>
       <use x="63.623047" xlink:href="#DejaVuSans-49"/>
      </g>
     </g>
    </g>
    <g id="xtick_11">
     <g id="line2d_11">
      <g>
       <use style="stroke:#000000;stroke-width:0.8;" x="463.488" xlink:href="#mfc518bbc66" y="389.32"/>
      </g>
     </g>
     <g id="text_11">
      <!-- 12 -->
      <g transform="translate(457.1255 403.918437)scale(0.1 -0.1)">
       <use xlink:href="#DejaVuSans-49"/>
       <use x="63.623047" xlink:href="#DejaVuSans-50"/>
      </g>
     </g>
    </g>
    <g id="xtick_12">
     <g id="line2d_12">
      <g>
       <use style="stroke:#000000;stroke-width:0.8;" x="502.090667" xlink:href="#mfc518bbc66" y="389.32"/>
      </g>
     </g>
     <g id="text_12">
      <!-- 13 -->
      <g transform="translate(495.728167 403.918437)scale(0.1 -0.1)">
       <use xlink:href="#DejaVuSans-49"/>
       <use x="63.623047" xlink:href="#DejaVuSans-51"/>
      </g>
     </g>
    </g>
    <g id="xtick_13">
     <g id="line2d_13">
      <g>
       <use style="stroke:#000000;stroke-width:0.8;" x="540.693333" xlink:href="#mfc518bbc66" y="389.32"/>
      </g>
     </g>
     <g id="text_13">
      <!-- 14 -->
      <g transform="translate(534.330833 403.918437)scale(0.1 -0.1)">
       <use xlink:href="#DejaVuSans-49"/>
       <use x="63.623047" xlink:href="#DejaVuSans-52"/>
      </g>
     </g>
    </g>
    <g id="xtick_14">
     <g id="line2d_14">
      <g>
       <use style="stroke:#000000;stroke-width:0.8;" x="579.296" xlink:href="#mfc518bbc66" y="389.32"/>
      </g>
     </g>
     <g id="text_14">
      <!-- 15 -->
      <g transform="translate(572.9335 403.918437)scale(0.1 -0.1)">
       <use xlink:href="#DejaVuSans-49"/>
       <use x="63.623047" xlink:href="#DejaVuSans-53"/>
      </g>
     </g>
    </g>
    <g id="xtick_15">
     <g id="line2d_15">
      <g>
       <use style="stroke:#000000;stroke-width:0.8;" x="617.898667" xlink:href="#mfc518bbc66" y="389.32"/>
      </g>
     </g>
     <g id="text_15">
      <!-- 16 -->
      <g transform="translate(611.536167 403.918437)scale(0.1 -0.1)">
       <use xlink:href="#DejaVuSans-49"/>
       <use x="63.623047" xlink:href="#DejaVuSans-54"/>
      </g>
     </g>
    </g>
    <g id="text_16">
     <!-- Active Cores -->
     <defs>
      <path d="M 34.1875 63.1875 
L 20.796875 26.90625 
L 47.609375 26.90625 
z
M 28.609375 72.90625 
L 39.796875 72.90625 
L 67.578125 0 
L 57.328125 0 
L 50.6875 18.703125 
L 17.828125 18.703125 
L 11.1875 0 
L 0.78125 0 
z
" id="DejaVuSans-65"/>
      <path d="M 48.78125 52.59375 
L 48.78125 44.1875 
Q 44.96875 46.296875 41.140625 47.34375 
Q 37.3125 48.390625 33.40625 48.390625 
Q 24.65625 48.390625 19.8125 42.84375 
Q 14.984375 37.3125 14.984375 27.296875 
Q 14.984375 17.28125 19.8125 11.734375 
Q 24.65625 6.203125 33.40625 6.203125 
Q 37.3125 6.203125 41.140625 7.25 
Q 44.96875 8.296875 48.78125 10.40625 
L 48.78125 2.09375 
Q 45.015625 0.34375 40.984375 -0.53125 
Q 36.96875 -1.421875 32.421875 -1.421875 
Q 20.0625 -1.421875 12.78125 6.34375 
Q 5.515625 14.109375 5.515625 27.296875 
Q 5.515625 40.671875 12.859375 48.328125 
Q 20.21875 56 33.015625 56 
Q 37.15625 56 41.109375 55.140625 
Q 45.0625 54.296875 48.78125 52.59375 
z
" id="DejaVuSans-99"/>
      <path d="M 18.3125 70.21875 
L 18.3125 54.6875 
L 36.8125 54.6875 
L 36.8125 47.703125 
L 18.3125 47.703125 
L 18.3125 18.015625 
Q 18.3125 11.328125 20.140625 9.421875 
Q 21.96875 7.515625 27.59375 7.515625 
L 36.8125 7.515625 
L 36.8125 0 
L 27.59375 0 
Q 17.1875 0 13.234375 3.875 
Q 9.28125 7.765625 9.28125 18.015625 
L 9.28125 47.703125 
L 2.6875 47.703125 
L 2.6875 54.6875 
L 9.28125 54.6875 
L 9.28125 70.21875 
z
" id="DejaVuSans-116"/>
      <path d="M 9.421875 54.6875 
L 18.40625 54.6875 
L 18.40625 0 
L 9.421875 0 
z
M 9.421875 75.984375 
L 18.40625 75.984375 
L 18.40625 64.59375 
L 9.421875 64.59375 
z
" id="DejaVuSans-105"/>
      <path d="M 2.984375 54.6875 
L 12.5 54.6875 
L 29.59375 8.796875 
L 46.6875 54.6875 
L 56.203125 54.6875 
L 35.6875 0 
L 23.484375 0 
z
" id="DejaVuSans-118"/>
      <path d="M 56.203125 29.59375 
L 56.203125 25.203125 
L 14.890625 25.203125 
Q 15.484375 15.921875 20.484375 11.0625 
Q 25.484375 6.203125 34.421875 6.203125 
Q 39.59375 6.203125 44.453125 7.46875 
Q 49.3125 8.734375 54.109375 11.28125 
L 54.109375 2.78125 
Q 49.265625 0.734375 44.1875 -0.34375 
Q 39.109375 -1.421875 33.890625 -1.421875 
Q 20.796875 -1.421875 13.15625 6.1875 
Q 5.515625 13.8125 5.515625 26.8125 
Q 5.515625 40.234375 12.765625 48.109375 
Q 20.015625 56 32.328125 56 
Q 43.359375 56 49.78125 48.890625 
Q 56.203125 41.796875 56.203125 29.59375 
z
M 47.21875 32.234375 
Q 47.125 39.59375 43.09375 43.984375 
Q 39.0625 48.390625 32.421875 48.390625 
Q 24.90625 48.390625 20.390625 44.140625 
Q 15.875 39.890625 15.1875 32.171875 
z
" id="DejaVuSans-101"/>
      <path id="DejaVuSans-32"/>
      <path d="M 64.40625 67.28125 
L 64.40625 56.890625 
Q 59.421875 61.53125 53.78125 63.8125 
Q 48.140625 66.109375 41.796875 66.109375 
Q 29.296875 66.109375 22.65625 58.46875 
Q 16.015625 50.828125 16.015625 36.375 
Q 16.015625 21.96875 22.65625 14.328125 
Q 29.296875 6.6875 41.796875 6.6875 
Q 48.140625 6.6875 53.78125 8.984375 
Q 59.421875 11.28125 64.40625 15.921875 
L 64.40625 5.609375 
Q 59.234375 2.09375 53.4375 0.328125 
Q 47.65625 -1.421875 41.21875 -1.421875 
Q 24.65625 -1.421875 15.125 8.703125 
Q 5.609375 18.84375 5.609375 36.375 
Q 5.609375 53.953125 15.125 64.078125 
Q 24.65625 74.21875 41.21875 74.21875 
Q 47.75 74.21875 53.53125 72.484375 
Q 59.328125 70.75 64.40625 67.28125 
z
" id="DejaVuSans-67"/>
      <path d="M 30.609375 48.390625 
Q 23.390625 48.390625 19.1875 42.75 
Q 14.984375 37.109375 14.984375 27.296875 
Q 14.984375 17.484375 19.15625 11.84375 
Q 23.34375 6.203125 30.609375 6.203125 
Q 37.796875 6.203125 41.984375 11.859375 
Q 46.1875 17.53125 46.1875 27.296875 
Q 46.1875 37.015625 41.984375 42.703125 
Q 37.796875 48.390625 30.609375 48.390625 
z
M 30.609375 56 
Q 42.328125 56 49.015625 48.375 
Q 55.71875 40.765625 55.71875 27.296875 
Q 55.71875 13.875 49.015625 6.21875 
Q 42.328125 -1.421875 30.609375 -1.421875 
Q 18.84375 -1.421875 12.171875 6.21875 
Q 5.515625 13.875 5.515625 27.296875 
Q 5.515625 40.765625 12.171875 48.375 
Q 18.84375 56 30.609375 56 
z
" id="DejaVuSans-111"/>
      <path d="M 41.109375 46.296875 
Q 39.59375 47.171875 37.8125 47.578125 
Q 36.03125 48 33.890625 48 
Q 26.265625 48 22.1875 43.046875 
Q 18.109375 38.09375 18.109375 28.8125 
L 18.109375 0 
L 9.078125 0 
L 9.078125 54.6875 
L 18.109375 54.6875 
L 18.109375 46.1875 
Q 20.953125 51.171875 25.484375 53.578125 
Q 30.03125 56 36.53125 56 
Q 37.453125 56 38.578125 55.875 
Q 39.703125 55.765625 41.0625 55.515625 
z
" id="DejaVuSans-114"/>
      <path d="M 44.28125 53.078125 
L 44.28125 44.578125 
Q 40.484375 46.53125 36.375 47.5 
Q 32.28125 48.484375 27.875 48.484375 
Q 21.1875 48.484375 17.84375 46.4375 
Q 14.5 44.390625 14.5 40.28125 
Q 14.5 37.15625 16.890625 35.375 
Q 19.28125 33.59375 26.515625 31.984375 
L 29.59375 31.296875 
Q 39.15625 29.25 43.1875 25.515625 
Q 47.21875 21.78125 47.21875 15.09375 
Q 47.21875 7.46875 41.1875 3.015625 
Q 35.15625 -1.421875 24.609375 -1.421875 
Q 20.21875 -1.421875 15.453125 -0.5625 
Q 10.6875 0.296875 5.421875 2 
L 5.421875 11.28125 
Q 10.40625 8.6875 15.234375 7.390625 
Q 20.0625 6.109375 24.8125 6.109375 
Q 31.15625 6.109375 34.5625 8.28125 
Q 37.984375 10.453125 37.984375 14.40625 
Q 37.984375 18.0625 35.515625 20.015625 
Q 33.0625 21.96875 24.703125 23.78125 
L 21.578125 24.515625 
Q 13.234375 26.265625 9.515625 29.90625 
Q 5.8125 33.546875 5.8125 39.890625 
Q 5.8125 47.609375 11.28125 51.796875 
Q 16.75 56 26.8125 56 
Q 31.78125 56 36.171875 55.265625 
Q 40.578125 54.546875 44.28125 53.078125 
z
" id="DejaVuSans-115"/>
     </defs>
     <g transform="translate(309.965312 419.11625)scale(0.12 -0.12)">
      <use xlink:href="#DejaVuSans-65"/>
      <use x="68.392578" xlink:href="#DejaVuSans-99"/>
      <use x="123.373047" xlink:href="#DejaVuSans-116"/>
      <use x="162.582031" xlink:href="#DejaVuSans-105"/>
      <use x="190.365234" xlink:href="#DejaVuSans-118"/>
      <use x="249.544922" xlink:href="#DejaVuSans-101"/>
      <use x="311.068359" xlink:href="#DejaVuSans-32"/>
      <use x="342.855469" xlink:href="#DejaVuSans-67"/>
      <use x="412.679688" xlink:href="#DejaVuSans-111"/>
      <use x="473.861328" xlink:href="#DejaVuSans-114"/>
      <use x="514.943359" xlink:href="#DejaVuSans-101"/>
      <use x="576.466797" xlink:href="#DejaVuSans-115"/>
     </g>
    </g>
   </g>
   <g id="matplotlib.axis_2">
    <g id="ytick_1">
     <g id="line2d_16">
      <defs>
       <path d="M 0 0 
L -3.5 0 
" id="m3a24eacd0e" style="stroke:#000000;stroke-width:0.8;"/>
      </defs>
      <g>
       <use style="stroke:#000000;stroke-width:0.8;" x="58.16" xlink:href="#m3a24eacd0e" y="389.32"/>
      </g>
     </g>
     <g id="text_17">
      <!-- 0 -->
      <g transform="translate(44.7975 393.119219)scale(0.1 -0.1)">
       <use xlink:href="#DejaVuSans-48"/>
      </g>
     </g>
    </g>
    <g id="ytick_2">
     <g id="line2d_17">
      <g>
       <use style="stroke:#000000;stroke-width:0.8;" x="58.16" xlink:href="#m3a24eacd0e" y="312.430187"/>
      </g>
     </g>
     <g id="text_18">
      <!-- 2000 -->
      <g transform="translate(25.71 316.229406)scale(0.1 -0.1)">
       <use xlink:href="#DejaVuSans-50"/>
       <use x="63.623047" xlink:href="#DejaVuSans-48"/>
       <use x="127.246094" xlink:href="#DejaVuSans-48"/>
       <use x="190.869141" xlink:href="#DejaVuSans-48"/>
      </g>
     </g>
    </g>
    <g id="ytick_3">
     <g id="line2d_18">
      <g>
       <use style="stroke:#000000;stroke-width:0.8;" x="58.16" xlink:href="#m3a24eacd0e" y="235.540375"/>
      </g>
     </g>
     <g id="text_19">
      <!-- 4000 -->
      <g transform="translate(25.71 239.339594)scale(0.1 -0.1)">
       <use xlink:href="#DejaVuSans-52"/>
       <use x="63.623047" xlink:href="#DejaVuSans-48"/>
       <use x="127.246094" xlink:href="#DejaVuSans-48"/>
       <use x="190.869141" xlink:href="#DejaVuSans-48"/>
      </g>
     </g>
    </g>
    <g id="ytick_4">
     <g id="line2d_19">
      <g>
       <use style="stroke:#000000;stroke-width:0.8;" x="58.16" xlink:href="#m3a24eacd0e" y="158.650562"/>
      </g>
     </g>
     <g id="text_20">
      <!-- 6000 -->
      <g transform="translate(25.71 162.449781)scale(0.1 -0.1)">
       <use xlink:href="#DejaVuSans-54"/>
       <use x="63.623047" xlink:href="#DejaVuSans-48"/>
       <use x="127.246094" xlink:href="#DejaVuSans-48"/>
       <use x="190.869141" xlink:href="#DejaVuSans-48"/>
      </g>
     </g>
    </g>
    <g id="ytick_5">
     <g id="line2d_20">
      <g>
       <use style="stroke:#000000;stroke-width:0.8;" x="58.16" xlink:href="#m3a24eacd0e" y="81.76075"/>
      </g>
     </g>
     <g id="text_21">
      <!-- 8000 -->
      <g transform="translate(25.71 85.559968)scale(0.1 -0.1)">
       <use xlink:href="#DejaVuSans-56"/>
       <use x="63.623047" xlink:href="#DejaVuSans-48"/>
       <use x="127.246094" xlink:href="#DejaVuSans-48"/>
       <use x="190.869141" xlink:href="#DejaVuSans-48"/>
      </g>
     </g>
    </g>
    <g id="text_22">
     <!-- Nanoseconds per increment -->
     <defs>
      <path d="M 9.8125 72.90625 
L 23.09375 72.90625 
L 55.421875 11.921875 
L 55.421875 72.90625 
L 64.984375 72.90625 
L 64.984375 0 
L 51.703125 0 
L 19.390625 60.984375 
L 19.390625 0 
L 9.8125 0 
z
" id="DejaVuSans-78"/>
      <path d="M 34.28125 27.484375 
Q 23.390625 27.484375 19.1875 25 
Q 14.984375 22.515625 14.984375 16.5 
Q 14.984375 11.71875 18.140625 8.90625 
Q 21.296875 6.109375 26.703125 6.109375 
Q 34.1875 6.109375 38.703125 11.40625 
Q 43.21875 16.703125 43.21875 25.484375 
L 43.21875 27.484375 
z
M 52.203125 31.203125 
L 52.203125 0 
L 43.21875 0 
L 43.21875 8.296875 
Q 40.140625 3.328125 35.546875 0.953125 
Q 30.953125 -1.421875 24.3125 -1.421875 
Q 15.921875 -1.421875 10.953125 3.296875 
Q 6 8.015625 6 15.921875 
Q 6 25.140625 12.171875 29.828125 
Q 18.359375 34.515625 30.609375 34.515625 
L 43.21875 34.515625 
L 43.21875 35.40625 
Q 43.21875 41.609375 39.140625 45 
Q 35.0625 48.390625 27.6875 48.390625 
Q 23 48.390625 18.546875 47.265625 
Q 14.109375 46.140625 10.015625 43.890625 
L 10.015625 52.203125 
Q 14.9375 54.109375 19.578125 55.046875 
Q 24.21875 56 28.609375 56 
Q 40.484375 56 46.34375 49.84375 
Q 52.203125 43.703125 52.203125 31.203125 
z
" id="DejaVuSans-97"/>
      <path d="M 54.890625 33.015625 
L 54.890625 0 
L 45.90625 0 
L 45.90625 32.71875 
Q 45.90625 40.484375 42.875 44.328125 
Q 39.84375 48.1875 33.796875 48.1875 
Q 26.515625 48.1875 22.3125 43.546875 
Q 18.109375 38.921875 18.109375 30.90625 
L 18.109375 0 
L 9.078125 0 
L 9.078125 54.6875 
L 18.109375 54.6875 
L 18.109375 46.1875 
Q 21.34375 51.125 25.703125 53.5625 
Q 30.078125 56 35.796875 56 
Q 45.21875 56 50.046875 50.171875 
Q 54.890625 44.34375 54.890625 33.015625 
z
" id="DejaVuSans-110"/>
      <path d="M 45.40625 46.390625 
L 45.40625 75.984375 
L 54.390625 75.984375 
L 54.390625 0 
L 45.40625 0 
L 45.40625 8.203125 
Q 42.578125 3.328125 38.25 0.953125 
Q 33.9375 -1.421875 27.875 -1.421875 
Q 17.96875 -1.421875 11.734375 6.484375 
Q 5.515625 14.40625 5.515625 27.296875 
Q 5.515625 40.1875 11.734375 48.09375 
Q 17.96875 56 27.875 56 
Q 33.9375 56 38.25 53.625 
Q 42.578125 51.265625 45.40625 46.390625 
z
M 14.796875 27.296875 
Q 14.796875 17.390625 18.875 11.75 
Q 22.953125 6.109375 30.078125 6.109375 
Q 37.203125 6.109375 41.296875 11.75 
Q 45.40625 17.390625 45.40625 27.296875 
Q 45.40625 37.203125 41.296875 42.84375 
Q 37.203125 48.484375 30.078125 48.484375 
Q 22.953125 48.484375 18.875 42.84375 
Q 14.796875 37.203125 14.796875 27.296875 
z
" id="DejaVuSans-100"/>
      <path d="M 18.109375 8.203125 
L 18.109375 -20.796875 
L 9.078125 -20.796875 
L 9.078125 54.6875 
L 18.109375 54.6875 
L 18.109375 46.390625 
Q 20.953125 51.265625 25.265625 53.625 
Q 29.59375 56 35.59375 56 
Q 45.5625 56 51.78125 48.09375 
Q 58.015625 40.1875 58.015625 27.296875 
Q 58.015625 14.40625 51.78125 6.484375 
Q 45.5625 -1.421875 35.59375 -1.421875 
Q 29.59375 -1.421875 25.265625 0.953125 
Q 20.953125 3.328125 18.109375 8.203125 
z
M 48.6875 27.296875 
Q 48.6875 37.203125 44.609375 42.84375 
Q 40.53125 48.484375 33.40625 48.484375 
Q 26.265625 48.484375 22.1875 42.84375 
Q 18.109375 37.203125 18.109375 27.296875 
Q 18.109375 17.390625 22.1875 11.75 
Q 26.265625 6.109375 33.40625 6.109375 
Q 40.53125 6.109375 44.609375 11.75 
Q 48.6875 17.390625 48.6875 27.296875 
z
" id="DejaVuSans-112"/>
      <path d="M 52 44.1875 
Q 55.375 50.25 60.0625 53.125 
Q 64.75 56 71.09375 56 
Q 79.640625 56 84.28125 50.015625 
Q 88.921875 44.046875 88.921875 33.015625 
L 88.921875 0 
L 79.890625 0 
L 79.890625 32.71875 
Q 79.890625 40.578125 77.09375 44.375 
Q 74.3125 48.1875 68.609375 48.1875 
Q 61.625 48.1875 57.5625 43.546875 
Q 53.515625 38.921875 53.515625 30.90625 
L 53.515625 0 
L 44.484375 0 
L 44.484375 32.71875 
Q 44.484375 40.625 41.703125 44.40625 
Q 38.921875 48.1875 33.109375 48.1875 
Q 26.21875 48.1875 22.15625 43.53125 
Q 18.109375 38.875 18.109375 30.90625 
L 18.109375 0 
L 9.078125 0 
L 9.078125 54.6875 
L 18.109375 54.6875 
L 18.109375 46.1875 
Q 21.1875 51.21875 25.484375 53.609375 
Q 29.78125 56 35.6875 56 
Q 41.65625 56 45.828125 52.96875 
Q 50 49.953125 52 44.1875 
z
" id="DejaVuSans-109"/>
     </defs>
     <g transform="translate(19.214375 291.941562)rotate(-90)scale(0.12 -0.12)">
      <use xlink:href="#DejaVuSans-78"/>
      <use x="74.804688" xlink:href="#DejaVuSans-97"/>
      <use x="136.083984" xlink:href="#DejaVuSans-110"/>
      <use x="199.462891" xlink:href="#DejaVuSans-111"/>
      <use x="260.644531" xlink:href="#DejaVuSans-115"/>
      <use x="312.744141" xlink:href="#DejaVuSans-101"/>
      <use x="374.267578" xlink:href="#DejaVuSans-99"/>
      <use x="429.248047" xlink:href="#DejaVuSans-111"/>
      <use x="490.429688" xlink:href="#DejaVuSans-110"/>
      <use x="553.808594" xlink:href="#DejaVuSans-100"/>
      <use x="617.285156" xlink:href="#DejaVuSans-115"/>
      <use x="669.384766" xlink:href="#DejaVuSans-32"/>
      <use x="701.171875" xlink:href="#DejaVuSans-112"/>
      <use x="764.648438" xlink:href="#DejaVuSans-101"/>
      <use x="826.171875" xlink:href="#DejaVuSans-114"/>
      <use x="867.285156" xlink:href="#DejaVuSans-32"/>
      <use x="899.072266" xlink:href="#DejaVuSans-105"/>
      <use x="926.855469" xlink:href="#DejaVuSans-110"/>
      <use x="990.234375" xlink:href="#DejaVuSans-99"/>
      <use x="1045.214844" xlink:href="#DejaVuSans-114"/>
      <use x="1086.296875" xlink:href="#DejaVuSans-101"/>
      <use x="1147.820312" xlink:href="#DejaVuSans-109"/>
      <use x="1245.232422" xlink:href="#DejaVuSans-101"/>
      <use x="1306.755859" xlink:href="#DejaVuSans-110"/>
      <use x="1370.134766" xlink:href="#DejaVuSans-116"/>
     </g>
    </g>
   </g>
   <g id="LineCollection_1">
    <path clip-path="url(#p54c3fcca10)" d="M 70.223333 382.112349 
L 70.223333 377.099133 
" style="fill:none;stroke:#000000;stroke-width:1.5;"/>
    <path clip-path="url(#p54c3fcca10)" d="M 108.826 376.457103 
L 108.826 376.129553 
" style="fill:none;stroke:#000000;stroke-width:1.5;"/>
    <path clip-path="url(#p54c3fcca10)" d="M 147.428667 368.738904 
L 147.428667 368.30909 
" style="fill:none;stroke:#000000;stroke-width:1.5;"/>
    <path clip-path="url(#p54c3fcca10)" d="M 186.031333 363.50117 
L 186.031333 362.820695 
" style="fill:none;stroke:#000000;stroke-width:1.5;"/>
    <path clip-path="url(#p54c3fcca10)" d="M 224.634 349.181211 
L 224.634 347.914836 
" style="fill:none;stroke:#000000;stroke-width:1.5;"/>
    <path clip-path="url(#p54c3fcca10)" d="M 263.236667 336.535144 
L 263.236667 334.749762 
" style="fill:none;stroke:#000000;stroke-width:1.5;"/>
    <path clip-path="url(#p54c3fcca10)" d="M 301.839333 325.627555 
L 301.839333 323.671478 
" style="fill:none;stroke:#000000;stroke-width:1.5;"/>
    <path clip-path="url(#p54c3fcca10)" d="M 340.442 307.619192 
L 340.442 305.880713 
" style="fill:none;stroke:#000000;stroke-width:1.5;"/>
    <path clip-path="url(#p54c3fcca10)" d="M 379.044667 295.340658 
L 379.044667 290.285921 
" style="fill:none;stroke:#000000;stroke-width:1.5;"/>
    <path clip-path="url(#p54c3fcca10)" d="M 417.647333 283.353536 
L 417.647333 280.724673 
" style="fill:none;stroke:#000000;stroke-width:1.5;"/>
    <path clip-path="url(#p54c3fcca10)" d="M 456.25 275.277799 
L 456.25 272.921126 
" style="fill:none;stroke:#000000;stroke-width:1.5;"/>
    <path clip-path="url(#p54c3fcca10)" d="M 494.852667 267.382753 
L 494.852667 263.774314 
" style="fill:none;stroke:#000000;stroke-width:1.5;"/>
    <path clip-path="url(#p54c3fcca10)" d="M 533.455333 254.973506 
L 533.455333 251.374294 
" style="fill:none;stroke:#000000;stroke-width:1.5;"/>
    <path clip-path="url(#p54c3fcca10)" d="M 572.058 244.090522 
L 572.058 239.986144 
" style="fill:none;stroke:#000000;stroke-width:1.5;"/>
    <path clip-path="url(#p54c3fcca10)" d="M 610.660667 234.047944 
L 610.660667 231.004645 
" style="fill:none;stroke:#000000;stroke-width:1.5;"/>
   </g>
   <g id="LineCollection_2">
    <path clip-path="url(#p54c3fcca10)" d="M 75.048667 388.139741 
L 75.048667 388.139741 
" style="fill:none;stroke:#000000;stroke-width:1.5;"/>
    <path clip-path="url(#p54c3fcca10)" d="M 113.651333 386.064485 
L 113.651333 385.980675 
" style="fill:none;stroke:#000000;stroke-width:1.5;"/>
    <path clip-path="url(#p54c3fcca10)" d="M 152.254 385.276365 
L 152.254 385.260218 
" style="fill:none;stroke:#000000;stroke-width:1.5;"/>
    <path clip-path="url(#p54c3fcca10)" d="M 190.856667 384.143778 
L 190.856667 384.131475 
" style="fill:none;stroke:#000000;stroke-width:1.5;"/>
    <path clip-path="url(#p54c3fcca10)" d="M 229.459333 379.416592 
L 229.459333 379.398907 
" style="fill:none;stroke:#000000;stroke-width:1.5;"/>
    <path clip-path="url(#p54c3fcca10)" d="M 268.062 376.812334 
L 268.062 376.75928 
" style="fill:none;stroke:#000000;stroke-width:1.5;"/>
    <path clip-path="url(#p54c3fcca10)" d="M 306.664667 373.567584 
L 306.664667 373.502997 
" style="fill:none;stroke:#000000;stroke-width:1.5;"/>
    <path clip-path="url(#p54c3fcca10)" d="M 345.267333 377.642744 
L 345.267333 377.566623 
" style="fill:none;stroke:#000000;stroke-width:1.5;"/>
    <path clip-path="url(#p54c3fcca10)" d="M 383.87 368.25296 
L 383.87 367.929254 
" style="fill:none;stroke:#000000;stroke-width:1.5;"/>
    <path clip-path="url(#p54c3fcca10)" d="M 422.472667 366.715164 
L 422.472667 366.364546 
" style="fill:none;stroke:#000000;stroke-width:1.5;"/>
    <path clip-path="url(#p54c3fcca10)" d="M 461.075333 358.454891 
L 461.075333 358.082745 
" style="fill:none;stroke:#000000;stroke-width:1.5;"/>
    <path clip-path="url(#p54c3fcca10)" d="M 499.678 363.948669 
L 499.678 363.744142 
" style="fill:none;stroke:#000000;stroke-width:1.5;"/>
    <path clip-path="url(#p54c3fcca10)" d="M 538.280667 350.156174 
L 538.280667 349.606412 
" style="fill:none;stroke:#000000;stroke-width:1.5;"/>
    <path clip-path="url(#p54c3fcca10)" d="M 576.883333 344.477092 
L 576.883333 343.923486 
" style="fill:none;stroke:#000000;stroke-width:1.5;"/>
    <path clip-path="url(#p54c3fcca10)" d="M 615.486 336.797338 
L 615.486 336.188371 
" style="fill:none;stroke:#000000;stroke-width:1.5;"/>
   </g>
   <g id="LineCollection_3">
    <path clip-path="url(#p54c3fcca10)" d="M 79.874 387.217064 
L 79.874 387.213219 
" style="fill:none;stroke:#000000;stroke-width:1.5;"/>
    <path clip-path="url(#p54c3fcca10)" d="M 118.476667 383.861592 
L 118.476667 383.812383 
" style="fill:none;stroke:#000000;stroke-width:1.5;"/>
    <path clip-path="url(#p54c3fcca10)" d="M 157.079333 382.605982 
L 157.079333 382.57215 
" style="fill:none;stroke:#000000;stroke-width:1.5;"/>
    <path clip-path="url(#p54c3fcca10)" d="M 195.682 380.500738 
L 195.682 380.466907 
" style="fill:none;stroke:#000000;stroke-width:1.5;"/>
    <path clip-path="url(#p54c3fcca10)" d="M 234.284667 374.366469 
L 234.284667 374.291886 
" style="fill:none;stroke:#000000;stroke-width:1.5;"/>
    <path clip-path="url(#p54c3fcca10)" d="M 272.887333 369.201781 
L 272.887333 369.067223 
" style="fill:none;stroke:#000000;stroke-width:1.5;"/>
    <path clip-path="url(#p54c3fcca10)" d="M 311.49 364.793688 
L 311.49 364.497662 
" style="fill:none;stroke:#000000;stroke-width:1.5;"/>
    <path clip-path="url(#p54c3fcca10)" d="M 350.092667 366.329946 
L 350.092667 366.098508 
" style="fill:none;stroke:#000000;stroke-width:1.5;"/>
    <path clip-path="url(#p54c3fcca10)" d="M 388.695333 356.295057 
L 388.695333 356.06208 
" style="fill:none;stroke:#000000;stroke-width:1.5;"/>
    <path clip-path="url(#p54c3fcca10)" d="M 427.298 346.789938 
L 427.298 346.081014 
" style="fill:none;stroke:#000000;stroke-width:1.5;"/>
    <path clip-path="url(#p54c3fcca10)" d="M 465.900667 339.508473 
L 465.900667 338.518901 
" style="fill:none;stroke:#000000;stroke-width:1.5;"/>
    <path clip-path="url(#p54c3fcca10)" d="M 504.503333 339.642261 
L 504.503333 339.370071 
" style="fill:none;stroke:#000000;stroke-width:1.5;"/>
    <path clip-path="url(#p54c3fcca10)" d="M 543.106 327.664366 
L 543.106 326.781671 
" style="fill:none;stroke:#000000;stroke-width:1.5;"/>
    <path clip-path="url(#p54c3fcca10)" d="M 581.708667 320.321389 
L 581.708667 319.511739 
" style="fill:none;stroke:#000000;stroke-width:1.5;"/>
    <path clip-path="url(#p54c3fcca10)" d="M 620.311333 310.912383 
L 620.311333 309.130846 
" style="fill:none;stroke:#000000;stroke-width:1.5;"/>
   </g>
   <g id="LineCollection_4">
    <path clip-path="url(#p54c3fcca10)" d="M 84.699333 361.7427 
L 84.699333 360.276411 
" style="fill:none;stroke:#000000;stroke-width:1.5;"/>
    <path clip-path="url(#p54c3fcca10)" d="M 123.302 357.812862 
L 123.302 348.0517 
" style="fill:none;stroke:#000000;stroke-width:1.5;"/>
    <path clip-path="url(#p54c3fcca10)" d="M 161.904667 331.500399 
L 161.904667 324.403469 
" style="fill:none;stroke:#000000;stroke-width:1.5;"/>
    <path clip-path="url(#p54c3fcca10)" d="M 200.507333 297.259827 
L 200.507333 289.015702 
" style="fill:none;stroke:#000000;stroke-width:1.5;"/>
    <path clip-path="url(#p54c3fcca10)" d="M 239.11 276.627984 
L 239.11 266.056404 
" style="fill:none;stroke:#000000;stroke-width:1.5;"/>
    <path clip-path="url(#p54c3fcca10)" d="M 277.712667 262.933908 
L 277.712667 230.127332 
" style="fill:none;stroke:#000000;stroke-width:1.5;"/>
    <path clip-path="url(#p54c3fcca10)" d="M 316.315333 225.53009 
L 316.315333 201.092201 
" style="fill:none;stroke:#000000;stroke-width:1.5;"/>
    <path clip-path="url(#p54c3fcca10)" d="M 354.918 206.259965 
L 354.918 191.057312 
" style="fill:none;stroke:#000000;stroke-width:1.5;"/>
    <path clip-path="url(#p54c3fcca10)" d="M 393.520667 191.766236 
L 393.520667 168.708519 
" style="fill:none;stroke:#000000;stroke-width:1.5;"/>
    <path clip-path="url(#p54c3fcca10)" d="M 432.123333 166.381064 
L 432.123333 144.656616 
" style="fill:none;stroke:#000000;stroke-width:1.5;"/>
    <path clip-path="url(#p54c3fcca10)" d="M 470.726 155.071341 
L 470.726 120.780792 
" style="fill:none;stroke:#000000;stroke-width:1.5;"/>
    <path clip-path="url(#p54c3fcca10)" d="M 509.328667 124.755995 
L 509.328667 104.320221 
" style="fill:none;stroke:#000000;stroke-width:1.5;"/>
    <path clip-path="url(#p54c3fcca10)" d="M 547.931333 104.410182 
L 547.931333 74.213246 
" style="fill:none;stroke:#000000;stroke-width:1.5;"/>
    <path clip-path="url(#p54c3fcca10)" d="M 586.534 81.652335 
L 586.534 59.946341 
" style="fill:none;stroke:#000000;stroke-width:1.5;"/>
    <path clip-path="url(#p54c3fcca10)" d="M 625.136667 62.35453 
L 625.136667 42.767619 
" style="fill:none;stroke:#000000;stroke-width:1.5;"/>
   </g>
   <g id="patch_63">
    <path d="M 58.16 389.32 
L 58.16 25.44 
" style="fill:none;stroke:#000000;stroke-linecap:square;stroke-linejoin:miter;stroke-width:0.8;"/>
   </g>
   <g id="patch_64">
    <path d="M 637.2 389.32 
L 637.2 25.44 
" style="fill:none;stroke:#000000;stroke-linecap:square;stroke-linejoin:miter;stroke-width:0.8;"/>
   </g>
   <g id="patch_65">
    <path d="M 58.16 389.32 
L 637.2 389.32 
" style="fill:none;stroke:#000000;stroke-linecap:square;stroke-linejoin:miter;stroke-width:0.8;"/>
   </g>
   <g id="patch_66">
    <path d="M 58.16 25.44 
L 637.2 25.44 
" style="fill:none;stroke:#000000;stroke-linecap:square;stroke-linejoin:miter;stroke-width:0.8;"/>
   </g>
   <g id="text_23">
    <!-- Increment Cost: Yielding Ticket -->
    <defs>
     <path d="M 9.8125 72.90625 
L 19.671875 72.90625 
L 19.671875 0 
L 9.8125 0 
z
" id="DejaVuSans-73"/>
     <path d="M 11.71875 12.40625 
L 22.015625 12.40625 
L 22.015625 0 
L 11.71875 0 
z
M 11.71875 51.703125 
L 22.015625 51.703125 
L 22.015625 39.3125 
L 11.71875 39.3125 
z
" id="DejaVuSans-58"/>
     <path d="M -0.203125 72.90625 
L 10.40625 72.90625 
L 30.609375 42.921875 
L 50.6875 72.90625 
L 61.28125 72.90625 
L 35.5 34.71875 
L 35.5 0 
L 25.59375 0 
L 25.59375 34.71875 
z
" id="DejaVuSans-89"/>
     <path d="M 9.421875 75.984375 
L 18.40625 75.984375 
L 18.40625 0 
L 9.421875 0 
z
" id="DejaVuSans-108"/>
     <path d="M 45.40625 27.984375 
Q 45.40625 37.75 41.375 43.109375 
Q 37.359375 48.484375 30.078125 48.484375 
Q 22.859375 48.484375 18.828125 43.109375 
Q 14.796875 37.75 14.796875 27.984375 
Q 14.796875 18.265625 18.828125 12.890625 
Q 22.859375 7.515625 30.078125 7.515625 
Q 37.359375 7.515625 41.375 12.890625 
Q 45.40625 18.265625 45.40625 27.984375 
z
M 54.390625 6.78125 
Q 54.390625 -7.171875 48.1875 -13.984375 
Q 42 -20.796875 29.203125 -20.796875 
Q 24.46875 -20.796875 20.265625 -20.09375 
Q 16.0625 -19.390625 12.109375 -17.921875 
L 12.109375 -9.1875 
Q 16.0625 -11.328125 19.921875 -12.34375 
Q 23.78125 -13.375 27.78125 -13.375 
Q 36.625 -13.375 41.015625 -8.765625 
Q 45.40625 -4.15625 45.40625 5.171875 
L 45.40625 9.625 
Q 42.625 4.78125 38.28125 2.390625 
Q 33.9375 0 27.875 0 
Q 17.828125 0 11.671875 7.65625 
Q 5.515625 15.328125 5.515625 27.984375 
Q 5.515625 40.671875 11.671875 48.328125 
Q 17.828125 56 27.875 56 
Q 33.9375 56 38.28125 53.609375 
Q 42.625 51.21875 45.40625 46.390625 
L 45.40625 54.6875 
L 54.390625 54.6875 
z
" id="DejaVuSans-103"/>
     <path d="M -0.296875 72.90625 
L 61.375 72.90625 
L 61.375 64.59375 
L 35.5 64.59375 
L 35.5 0 
L 25.59375 0 
L 25.59375 64.59375 
L -0.296875 64.59375 
z
" id="DejaVuSans-84"/>
     <path d="M 9.078125 75.984375 
L 18.109375 75.984375 
L 18.109375 31.109375 
L 44.921875 54.6875 
L 56.390625 54.6875 
L 27.390625 29.109375 
L 57.625 0 
L 45.90625 0 
L 18.109375 26.703125 
L 18.109375 0 
L 9.078125 0 
z
" id="DejaVuSans-107"/>
    </defs>
    <g transform="translate(253.961875 19.44)scale(0.12 -0.12)">
     <use xlink:href="#DejaVuSans-73"/>
     <use x="29.492188" xlink:href="#DejaVuSans-110"/>
     <use x="92.871094" xlink:href="#DejaVuSans-99"/>
     <use x="147.851562" xlink:href="#DejaVuSans-114"/>
     <use x="188.933594" xlink:href="#DejaVuSans-101"/>
     <use x="250.457031" xlink:href="#DejaVuSans-109"/>
     <use x="347.869141" xlink:href="#DejaVuSans-101"/>
     <use x="409.392578" xlink:href="#DejaVuSans-110"/>
     <use x="472.771484" xlink:href="#DejaVuSans-116"/>
     <use x="511.980469" xlink:href="#DejaVuSans-32"/>
     <use x="543.767578" xlink:href="#DejaVuSans-67"/>
     <use x="613.591797" xlink:href="#DejaVuSans-111"/>
     <use x="674.773438" xlink:href="#DejaVuSans-115"/>
     <use x="726.873047" xlink:href="#DejaVuSans-116"/>
     <use x="766.082031" xlink:href="#DejaVuSans-58"/>
     <use x="799.773438" xlink:href="#DejaVuSans-32"/>
     <use x="831.560547" xlink:href="#DejaVuSans-89"/>
     <use x="892.597656" xlink:href="#DejaVuSans-105"/>
     <use x="920.380859" xlink:href="#DejaVuSans-101"/>
     <use x="981.904297" xlink:href="#DejaVuSans-108"/>
     <use x="1009.6875" xlink:href="#DejaVuSans-100"/>
     <use x="1073.164062" xlink:href="#DejaVuSans-105"/>
     <use x="1100.947266" xlink:href="#DejaVuSans-110"/>
     <use x="1164.326172" xlink:href="#DejaVuSans-103"/>
     <use x="1227.802734" xlink:href="#DejaVuSans-32"/>
     <use x="1259.589844" xlink:href="#DejaVuSans-84"/>
     <use x="1320.626953" xlink:href="#DejaVuSans-105"/>
     <use x="1348.410156" xlink:href="#DejaVuSans-99"/>
     <use x="1403.390625" xlink:href="#DejaVuSans-107"/>
     <use x="1461.253906" xlink:href="#DejaVuSans-101"/>
     <use x="1522.777344" xlink:href="#DejaVuSans-116"/>
    </g>
   </g>
   <g id="legend_1">
    <g id="patch_67">
     <path d="M 65.16 106.830625 
L 153.3475 106.830625 
Q 155.3475 106.830625 155.3475 104.830625 
L 155.3475 32.44 
Q 155.3475 30.44 153.3475 30.44 
L 65.16 30.44 
Q 63.16 30.44 63.16 32.44 
L 63.16 104.830625 
Q 63.16 106.830625 65.16 106.830625 
z
" style="fill:#ffffff;opacity:0.8;stroke:#cccccc;stroke-linejoin:miter;"/>
    </g>
    <g id="text_24">
     <!-- Implementation -->
     <g transform="translate(69.551406 42.038437)scale(0.1 -0.1)">
      <use xlink:href="#DejaVuSans-73"/>
      <use x="29.492188" xlink:href="#DejaVuSans-109"/>
      <use x="126.904297" xlink:href="#DejaVuSans-112"/>
      <use x="190.380859" xlink:href="#DejaVuSans-108"/>
      <use x="218.164062" xlink:href="#DejaVuSans-101"/>
      <use x="279.6875" xlink:href="#DejaVuSans-109"/>
      <use x="377.099609" xlink:href="#DejaVuSans-101"/>
      <use x="438.623047" xlink:href="#DejaVuSans-110"/>
      <use x="502.001953" xlink:href="#DejaVuSans-116"/>
      <use x="541.210938" xlink:href="#DejaVuSans-97"/>
      <use x="602.490234" xlink:href="#DejaVuSans-116"/>
      <use x="641.699219" xlink:href="#DejaVuSans-105"/>
      <use x="669.482422" xlink:href="#DejaVuSans-111"/>
      <use x="730.664062" xlink:href="#DejaVuSans-110"/>
     </g>
    </g>
    <g id="patch_68">
     <path d="M 67.16 56.716563 
L 87.16 56.716563 
L 87.16 49.716563 
L 67.16 49.716563 
z
" style="fill:#1f77b4;"/>
    </g>
    <g id="text_25">
     <!-- mutex add -->
     <defs>
      <path d="M 8.5 21.578125 
L 8.5 54.6875 
L 17.484375 54.6875 
L 17.484375 21.921875 
Q 17.484375 14.15625 20.5 10.265625 
Q 23.53125 6.390625 29.59375 6.390625 
Q 36.859375 6.390625 41.078125 11.03125 
Q 45.3125 15.671875 45.3125 23.6875 
L 45.3125 54.6875 
L 54.296875 54.6875 
L 54.296875 0 
L 45.3125 0 
L 45.3125 8.40625 
Q 42.046875 3.421875 37.71875 1 
Q 33.40625 -1.421875 27.6875 -1.421875 
Q 18.265625 -1.421875 13.375 4.4375 
Q 8.5 10.296875 8.5 21.578125 
z
M 31.109375 56 
z
" id="DejaVuSans-117"/>
      <path d="M 54.890625 54.6875 
L 35.109375 28.078125 
L 55.90625 0 
L 45.3125 0 
L 29.390625 21.484375 
L 13.484375 0 
L 2.875 0 
L 24.125 28.609375 
L 4.6875 54.6875 
L 15.28125 54.6875 
L 29.78125 35.203125 
L 44.28125 54.6875 
z
" id="DejaVuSans-120"/>
     </defs>
     <g transform="translate(95.16 56.716563)scale(0.1 -0.1)">
      <use xlink:href="#DejaVuSans-109"/>
      <use x="97.412109" xlink:href="#DejaVuSans-117"/>
      <use x="160.791016" xlink:href="#DejaVuSans-116"/>
      <use x="200" xlink:href="#DejaVuSans-101"/>
      <use x="261.507812" xlink:href="#DejaVuSans-120"/>
      <use x="320.6875" xlink:href="#DejaVuSans-32"/>
      <use x="352.474609" xlink:href="#DejaVuSans-97"/>
      <use x="413.753906" xlink:href="#DejaVuSans-100"/>
      <use x="477.230469" xlink:href="#DejaVuSans-100"/>
     </g>
    </g>
    <g id="patch_69">
     <path d="M 67.16 71.394688 
L 87.16 71.394688 
L 87.16 64.394688 
L 67.16 64.394688 
z
" style="fill:#ff7f0e;"/>
    </g>
    <g id="text_26">
     <!-- atomic add -->
     <g transform="translate(95.16 71.394688)scale(0.1 -0.1)">
      <use xlink:href="#DejaVuSans-97"/>
      <use x="61.279297" xlink:href="#DejaVuSans-116"/>
      <use x="100.488281" xlink:href="#DejaVuSans-111"/>
      <use x="161.669922" xlink:href="#DejaVuSans-109"/>
      <use x="259.082031" xlink:href="#DejaVuSans-105"/>
      <use x="286.865234" xlink:href="#DejaVuSans-99"/>
      <use x="341.845703" xlink:href="#DejaVuSans-32"/>
      <use x="373.632812" xlink:href="#DejaVuSans-97"/>
      <use x="434.912109" xlink:href="#DejaVuSans-100"/>
      <use x="498.388672" xlink:href="#DejaVuSans-100"/>
     </g>
    </g>
    <g id="patch_70">
     <path d="M 67.16 86.072812 
L 87.16 86.072812 
L 87.16 79.072812 
L 67.16 79.072812 
z
" style="fill:#2ca02c;"/>
    </g>
    <g id="text_27">
     <!-- cas add -->
     <g transform="translate(95.16 86.072812)scale(0.1 -0.1)">
      <use xlink:href="#DejaVuSans-99"/>
      <use x="54.980469" xlink:href="#DejaVuSans-97"/>
      <use x="116.259766" xlink:href="#DejaVuSans-115"/>
      <use x="168.359375" xlink:href="#DejaVuSans-32"/>
      <use x="200.146484" xlink:href="#DejaVuSans-97"/>
      <use x="261.425781" xlink:href="#DejaVuSans-100"/>
      <use x="324.902344" xlink:href="#DejaVuSans-100"/>
     </g>
    </g>
    <g id="patch_71">
     <path d="M 67.16 100.750938 
L 87.16 100.750938 
L 87.16 93.750938 
L 67.16 93.750938 
z
" style="fill:#d62728;"/>
    </g>
    <g id="text_28">
     <!-- ticket yield -->
     <defs>
      <path d="M 32.171875 -5.078125 
Q 28.375 -14.84375 24.75 -17.8125 
Q 21.140625 -20.796875 15.09375 -20.796875 
L 7.90625 -20.796875 
L 7.90625 -13.28125 
L 13.1875 -13.28125 
Q 16.890625 -13.28125 18.9375 -11.515625 
Q 21 -9.765625 23.484375 -3.21875 
L 25.09375 0.875 
L 2.984375 54.6875 
L 12.5 54.6875 
L 29.59375 11.921875 
L 46.6875 54.6875 
L 56.203125 54.6875 
z
" id="DejaVuSans-121"/>
     </defs>
     <g transform="translate(95.16 100.750938)scale(0.1 -0.1)">
      <use xlink:href="#DejaVuSans-116"/>
      <use x="39.208984" xlink:href="#DejaVuSans-105"/>
      <use x="66.992188" xlink:href="#DejaVuSans-99"/>
      <use x="121.972656" xlink:href="#DejaVuSans-107"/>
      <use x="179.835938" xlink:href="#DejaVuSans-101"/>
      <use x="241.359375" xlink:href="#DejaVuSans-116"/>
      <use x="280.568359" xlink:href="#DejaVuSans-32"/>
      <use x="312.355469" xlink:href="#DejaVuSans-121"/>
      <use x="371.535156" xlink:href="#DejaVuSans-105"/>
      <use x="399.318359" xlink:href="#DejaVuSans-101"/>
      <use x="460.841797" xlink:href="#DejaVuSans-108"/>
      <use x="488.625" xlink:href="#DejaVuSans-100"/>
     </g>
    </g>
   </g>
  </g>
 </g>
 <defs>
  <clipPath id="p54c3fcca10">
   <rect height="363.88" width="579.04" x="58.16" y="25.44"/>
  </clipPath>
 </defs>
</svg>
