<?xml version="1.0" encoding="utf-8" standalone="no"?>
<!DOCTYPE svg PUBLIC "-//W3C//DTD SVG 1.1//EN"
  "http://www.w3.org/Graphics/SVG/1.1/DTD/svg11.dtd">
<!-- Created with matplotlib (https://matplotlib.org/) -->
<svg height="432pt" version="1.1" viewBox="0 0 648 432" width="648pt" xmlns="http://www.w3.org/2000/svg" xmlns:xlink="http://www.w3.org/1999/xlink">
 <defs>
  <style type="text/css">
*{stroke-linecap:butt;stroke-linejoin:round;}
  </style>
 </defs>
 <g id="figure_1">
  <g id="patch_1">
   <path d="M 0 432 
L 648 432 
L 648 0 
L 0 0 
z
" style="fill:#ffffff;"/>
  </g>
  <g id="axes_1">
   <g id="patch_2">
    <path d="M 58.16 389.32 
L 637.2 389.32 
L 637.2 25.44 
L 58.16 25.44 
z
" style="fill:#ffffff;"/>
   </g>
   <g id="patch_3">
    <path clip-path="url(#p54c3fcca10)" d="M 67.2075 389.32 
L 73.239167 389.32 
L 73.239167 387.113331 
L 67.2075 387.113331 
z
" style="fill:#1f77b4;"/>
   </g>
   <g id="patch_4">
    <path clip-path="url(#p54c3fcca10)" d="M 103.3975 389.32 
L 109.429167 389.32 
L 109.429167 381.621734 
L 103.3975 381.621734 
z
" style="fill:#1f77b4;"/>
   </g>
   <g id="patch_5">
    <path clip-path="url(#p54c3fcca10)" d="M 139.5875 389.32 
L 145.619167 389.32 
L 145.619167 367.855127 
L 139.5875 367.855127 
z
" style="fill:#1f77b4;"/>
   </g>
   <g id="patch_6">
    <path clip-path="url(#p54c3fcca10)" d="M 175.7775 389.32 
L 181.809167 389.32 
L 181.809167 362.890121 
L 175.7775 362.890121 
z
" style="fill:#1f77b4;"/>
   </g>
   <g id="patch_7">
    <path clip-path="url(#p54c3fcca10)" d="M 211.9675 389.32 
L 217.999167 389.32 
L 217.999167 355.51784 
L 211.9675 355.51784 
z
" style="fill:#1f77b4;"/>
   </g>
   <g id="patch_8">
    <path clip-path="url(#p54c3fcca10)" d="M 248.1575 389.32 
L 254.189167 389.32 
L 254.189167 324.674623 
L 248.1575 324.674623 
z
" style="fill:#1f77b4;"/>
   </g>
   <g id="patch_9">
    <path clip-path="url(#p54c3fcca10)" d="M 284.3475 389.32 
L 290.379167 389.32 
L 290.379167 307.572937 
L 284.3475 307.572937 
z
" style="fill:#1f77b4;"/>
   </g>
   <g id="patch_10">
    <path clip-path="url(#p54c3fcca10)" d="M 320.5375 389.32 
L 326.569167 389.32 
L 326.569167 286.459125 
L 320.5375 286.459125 
z
" style="fill:#1f77b4;"/>
   </g>
   <g id="patch_11">
    <path clip-path="url(#p54c3fcca10)" d="M 356.7275 389.32 
L 362.759167 389.32 
L 362.759167 313.039458 
L 356.7275 313.039458 
z
" style="fill:#1f77b4;"/>
   </g>
   <g id="patch_12">
    <path clip-path="url(#p54c3fcca10)" d="M 392.9175 389.32 
L 398.949167 389.32 
L 398.949167 250.500447 
L 392.9175 250.500447 
z
" style="fill:#1f77b4;"/>
   </g>
   <g id="patch_13">
    <path clip-path="url(#p54c3fcca10)" d="M 429.1075 389.32 
L 435.139167 389.32 
L 435.139167 240.871345 
L 429.1075 240.871345 
z
" style="fill:#1f77b4;"/>
   </g>
   <g id="patch_14">
    <path clip-path="url(#p54c3fcca10)" d="M 465.2975 389.32 
L 471.329167 389.32 
L 471.329167 186.582268 
L 465.2975 186.582268 
z
" style="fill:#1f77b4;"/>
   </g>
   <g id="patch_15">
    <path clip-path="url(#p54c3fcca10)" d="M 501.4875 389.32 
L 507.519167 389.32 
L 507.519167 222.892007 
L 501.4875 222.892007 
z
" style="fill:#1f77b4;"/>
   </g>
   <g id="patch_16">
    <path clip-path="url(#p54c3fcca10)" d="M 537.6775 389.32 
L 543.709167 389.32 
L 543.709167 132.268115 
L 537.6775 132.268115 
z
" style="fill:#1f77b4;"/>
   </g>
   <g id="patch_17">
    <path clip-path="url(#p54c3fcca10)" d="M 573.8675 389.32 
L 579.899167 389.32 
L 579.899167 95.130876 
L 573.8675 95.130876 
z
" style="fill:#1f77b4;"/>
   </g>
   <g id="patch_18">
    <path clip-path="url(#p54c3fcca10)" d="M 610.0575 389.32 
L 616.089167 389.32 
L 616.089167 45.204985 
L 610.0575 45.204985 
z
" style="fill:#1f77b4;"/>
   </g>
   <g id="patch_19">
    <path clip-path="url(#p54c3fcca10)" d="M 73.239167 389.32 
L 79.270833 389.32 
L 79.270833 384.931737 
L 73.239167 384.931737 
z
" style="fill:#ff7f0e;"/>
   </g>
   <g id="patch_20">
    <path clip-path="url(#p54c3fcca10)" d="M 109.429167 389.32 
L 115.460833 389.32 
L 115.460833 384.931737 
L 109.429167 384.931737 
z
" style="fill:#ff7f0e;"/>
   </g>
   <g id="patch_21">
    <path clip-path="url(#p54c3fcca10)" d="M 145.619167 389.32 
L 151.650833 389.32 
L 151.650833 384.931737 
L 145.619167 384.931737 
z
" style="fill:#ff7f0e;"/>
   </g>
   <g id="patch_22">
    <path clip-path="url(#p54c3fcca10)" d="M 181.809167 389.32 
L 187.840833 389.32 
L 187.840833 384.931737 
L 181.809167 384.931737 
z
" style="fill:#ff7f0e;"/>
   </g>
   <g id="patch_23">
    <path clip-path="url(#p54c3fcca10)" d="M 217.999167 389.32 
L 224.030833 389.32 
L 224.030833 384.931737 
L 217.999167 384.931737 
z
" style="fill:#ff7f0e;"/>
   </g>
   <g id="patch_24">
    <path clip-path="url(#p54c3fcca10)" d="M 254.189167 389.32 
L 260.220833 389.32 
L 260.220833 384.931737 
L 254.189167 384.931737 
z
" style="fill:#ff7f0e;"/>
   </g>
   <g id="patch_25">
    <path clip-path="url(#p54c3fcca10)" d="M 290.379167 389.32 
L 296.410833 389.32 
L 296.410833 384.931737 
L 290.379167 384.931737 
z
" style="fill:#ff7f0e;"/>
   </g>
   <g id="patch_26">
    <path clip-path="url(#p54c3fcca10)" d="M 326.569167 389.32 
L 332.600833 389.32 
L 332.600833 384.931737 
L 326.569167 384.931737 
z
" style="fill:#ff7f0e;"/>
   </g>
   <g id="patch_27">
    <path clip-path="url(#p54c3fcca10)" d="M 362.759167 389.32 
L 368.790833 389.32 
L 368.790833 384.931737 
L 362.759167 384.931737 
z
" style="fill:#ff7f0e;"/>
   </g>
   <g id="patch_28">
    <path clip-path="url(#p54c3fcca10)" d="M 398.949167 389.32 
L 404.980833 389.32 
L 404.980833 384.931737 
L 398.949167 384.931737 
z
" style="fill:#ff7f0e;"/>
   </g>
   <g id="patch_29">
    <path clip-path="url(#p54c3fcca10)" d="M 435.139167 389.32 
L 441.170833 389.32 
L 441.170833 384.931737 
L 435.139167 384.931737 
z
" style="fill:#ff7f0e;"/>
   </g>
   <g id="patch_30">
    <path clip-path="url(#p54c3fcca10)" d="M 471.329167 389.32 
L 477.360833 389.32 
L 477.360833 384.931737 
L 471.329167 384.931737 
z
" style="fill:#ff7f0e;"/>
   </g>
   <g id="patch_31">
    <path clip-path="url(#p54c3fcca10)" d="M 507.519167 389.32 
L 513.550833 389.32 
L 513.550833 384.931737 
L 507.519167 384.931737 
z
" style="fill:#ff7f0e;"/>
   </g>
   <g id="patch_32">
    <path clip-path="url(#p54c3fcca10)" d="M 543.709167 389.32 
L 549.740833 389.32 
L 549.740833 384.931737 
L 543.709167 384.931737 
z
" style="fill:#ff7f0e;"/>
   </g>
   <g id="patch_33">
    <path clip-path="url(#p54c3fcca10)" d="M 579.899167 389.32 
L 585.930833 389.32 
L 585.930833 384.931737 
L 579.899167 384.931737 
z
" style="fill:#ff7f0e;"/>
   </g>
   <g id="patch_34">
    <path clip-path="url(#p54c3fcca10)" d="M 616.089167 389.32 
L 622.120833 389.32 
L 622.120833 384.931737 
L 616.089167 384.931737 
z
" style="fill:#ff7f0e;"/>
   </g>
   <g id="patch_35">
    <path clip-path="url(#p54c3fcca10)" d="M 79.270833 389.32 
L 85.3025 389.32 
L 85.3025 388.291893 
L 79.270833 388.291893 
z
" style="fill:#2ca02c;"/>
   </g>
   <g id="patch_36">
    <path clip-path="url(#p54c3fcca10)" d="M 115.460833 389.32 
L 121.4925 389.32 
L 121.4925 388.291893 
L 115.460833 388.291893 
z
" style="fill:#2ca02c;"/>
   </g>
   <g id="patch_37">
    <path clip-path="url(#p54c3fcca10)" d="M 151.650833 389.32 
L 157.6825 389.32 
L 157.6825 388.291893 
L 151.650833 388.291893 
z
" style="fill:#2ca02c;"/>
   </g>
   <g id="patch_38">
    <path clip-path="url(#p54c3fcca10)" d="M 187.840833 389.32 
L 193.8725 389.32 
L 193.8725 388.291893 
L 187.840833 388.291893 
z
" style="fill:#2ca02c;"/>
   </g>
   <g id="patch_39">
    <path clip-path="url(#p54c3fcca10)" d="M 224.030833 389.32 
L 230.0625 389.32 
L 230.0625 388.291893 
L 224.030833 388.291893 
z
" style="fill:#2ca02c;"/>
   </g>
   <g id="patch_40">
    <path clip-path="url(#p54c3fcca10)" d="M 260.220833 389.32 
L 266.2525 389.32 
L 266.2525 388.291893 
L 260.220833 388.291893 
z
" style="fill:#2ca02c;"/>
   </g>
   <g id="patch_41">
    <path clip-path="url(#p54c3fcca10)" d="M 296.410833 389.32 
L 302.4425 389.32 
L 302.4425 388.291893 
L 296.410833 388.291893 
z
" style="fill:#2ca02c;"/>
   </g>
   <g id="patch_42">
    <path clip-path="url(#p54c3fcca10)" d="M 332.600833 389.32 
L 338.6325 389.32 
L 338.6325 388.291893 
L 332.600833 388.291893 
z
" style="fill:#2ca02c;"/>
   </g>
   <g id="patch_43">
    <path clip-path="url(#p54c3fcca10)" d="M 368.790833 389.32 
L 374.8225 389.32 
L 374.8225 388.291893 
L 368.790833 388.291893 
z
" style="fill:#2ca02c;"/>
   </g>
   <g id="patch_44">
    <path clip-path="url(#p54c3fcca10)" d="M 404.980833 389.32 
L 411.0125 389.32 
L 411.0125 388.291893 
L 404.980833 388.291893 
z
" style="fill:#2ca02c;"/>
   </g>
   <g id="patch_45">
    <path clip-path="url(#p54c3fcca10)" d="M 441.170833 389.32 
L 447.2025 389.32 
L 447.2025 388.291893 
L 441.170833 388.291893 
z
" style="fill:#2ca02c;"/>
   </g>
   <g id="patch_46">
    <path clip-path="url(#p54c3fcca10)" d="M 477.360833 389.32 
L 483.3925 389.32 
L 483.3925 388.291893 
L 477.360833 388.291893 
z
" style="fill:#2ca02c;"/>
   </g>
   <g id="patch_47">
    <path clip-path="url(#p54c3fcca10)" d="M 513.550833 389.32 
L 519.5825 389.32 
L 519.5825 388.291893 
L 513.550833 388.291893 
z
" style="fill:#2ca02c;"/>
   </g>
   <g id="patch_48">
    <path clip-path="url(#p54c3fcca10)" d="M 549.740833 389.32 
L 555.7725 389.32 
L 555.7725 388.291893 
L 549.740833 388.291893 
z
" style="fill:#2ca02c;"/>
   </g>
   <g id="patch_49">
    <path clip-path="url(#p54c3fcca10)" d="M 585.930833 389.32 
L 591.9625 389.32 
L 591.9625 388.291893 
L 585.930833 388.291893 
z
" style="fill:#2ca02c;"/>
   </g>
   <g id="patch_50">
    <path clip-path="url(#p54c3fcca10)" d="M 622.120833 389.32 
L 628.1525 389.32 
L 628.1525 388.291893 
L 622.120833 388.291893 
z
" style="fill:#2ca02c;"/>
   </g>
   <g id="matplotlib.axis_1">
    <g id="xtick_1">
     <g id="line2d_1">
      <defs>
       <path d="M 0 0 
L 0 3.5 
" id="mfc518bbc66" style="stroke:#000000;stroke-width:0.8;"/>
      </defs>
      <g>
       <use style="stroke:#000000;stroke-width:0.8;" x="76.255" xlink:href="#mfc518bbc66" y="389.32"/>
      </g>
     </g>
     <g id="text_1">
      <!-- 1 -->
      <defs>
       <path d="M 12.40625 8.296875 
L 28.515625 8.296875 
L 28.515625 63.921875 
L 10.984375 60.40625 
L 10.984375 69.390625 
L 28.421875 72.90625 
L 38.28125 72.90625 
L 38.28125 8.296875 
L 54.390625 8.296875 
L 54.390625 0 
L 12.40625 0 
z
" id="DejaVuSans-49"/>
      </defs>
      <g transform="translate(73.07375 403.918437)scale(0.1 -0.1)">
       <use xlink:href="#DejaVuSans-49"/>
      </g>
     </g>
    </g>
    <g id="xtick_2">
     <g id="line2d_2">
      <g>
       <use style="stroke:#000000;stroke-width:0.8;" x="112.445" xlink:href="#mfc518bbc66" y="389.32"/>
      </g>
     </g>
     <g id="text_2">
      <!-- 2 -->
      <defs>
       <path d="M 19.1875 8.296875 
L 53.609375 8.296875 
L 53.609375 0 
L 7.328125 0 
L 7.328125 8.296875 
Q 12.9375 14.109375 22.625 23.890625 
Q 32.328125 33.6875 34.8125 36.53125 
Q 39.546875 41.84375 41.421875 45.53125 
Q 43.3125 49.21875 43.3125 52.78125 
Q 43.3125 58.59375 39.234375 62.25 
Q 35.15625 65.921875 28.609375 65.921875 
Q 23.96875 65.921875 18.8125 64.3125 
Q 13.671875 62.703125 7.8125 59.421875 
L 7.8125 69.390625 
Q 13.765625 71.78125 18.9375 73 
Q 24.125 74.21875 28.421875 74.21875 
Q 39.75 74.21875 46.484375 68.546875 
Q 53.21875 62.890625 53.21875 53.421875 
Q 53.21875 48.921875 51.53125 44.890625 
Q 49.859375 40.875 45.40625 35.40625 
Q 44.1875 33.984375 37.640625 27.21875 
Q 31.109375 20.453125 19.1875 8.296875 
z
" id="DejaVuSans-50"/>
      </defs>
      <g transform="translate(109.26375 403.918437)scale(0.1 -0.1)">
       <use xlink:href="#DejaVuSans-50"/>
      </g>
     </g>
    </g>
    <g id="xtick_3">
     <g id="line2d_3">
      <g>
       <use style="stroke:#000000;stroke-width:0.8;" x="148.635" xlink:href="#mfc518bbc66" y="389.32"/>
      </g>
     </g>
     <g id="text_3">
      <!-- 3 -->
      <defs>
       <path d="M 40.578125 39.3125 
Q 47.65625 37.796875 51.625 33 
Q 55.609375 28.21875 55.609375 21.1875 
Q 55.609375 10.40625 48.1875 4.484375 
Q 40.765625 -1.421875 27.09375 -1.421875 
Q 22.515625 -1.421875 17.65625 -0.515625 
Q 12.796875 0.390625 7.625 2.203125 
L 7.625 11.71875 
Q 11.71875 9.328125 16.59375 8.109375 
Q 21.484375 6.890625 26.8125 6.890625 
Q 36.078125 6.890625 40.9375 10.546875 
Q 45.796875 14.203125 45.796875 21.1875 
Q 45.796875 27.640625 41.28125 31.265625 
Q 36.765625 34.90625 28.71875 34.90625 
L 20.21875 34.90625 
L 20.21875 43.015625 
L 29.109375 43.015625 
Q 36.375 43.015625 40.234375 45.921875 
Q 44.09375 48.828125 44.09375 54.296875 
Q 44.09375 59.90625 40.109375 62.90625 
Q 36.140625 65.921875 28.71875 65.921875 
Q 24.65625 65.921875 20.015625 65.03125 
Q 15.375 64.15625 9.8125 62.3125 
L 9.8125 71.09375 
Q 15.4375 72.65625 20.34375 73.4375 
Q 25.25 74.21875 29.59375 74.21875 
Q 40.828125 74.21875 47.359375 69.109375 
Q 53.90625 64.015625 53.90625 55.328125 
Q 53.90625 49.265625 50.4375 45.09375 
Q 46.96875 40.921875 40.578125 39.3125 
z
" id="DejaVuSans-51"/>
      </defs>
      <g transform="translate(145.45375 403.918437)scale(0.1 -0.1)">
       <use xlink:href="#DejaVuSans-51"/>
      </g>
     </g>
    </g>
    <g id="xtick_4">
     <g id="line2d_4">
      <g>
       <use style="stroke:#000000;stroke-width:0.8;" x="184.825" xlink:href="#mfc518bbc66" y="389.32"/>
      </g>
     </g>
     <g id="text_4">
      <!-- 4 -->
      <defs>
       <path d="M 37.796875 64.3125 
L 12.890625 25.390625 
L 37.796875 25.390625 
z
M 35.203125 72.90625 
L 47.609375 72.90625 
L 47.609375 25.390625 
L 58.015625 25.390625 
L 58.015625 17.1875 
L 47.609375 17.1875 
L 47.609375 0 
L 37.796875 0 
L 37.796875 17.1875 
L 4.890625 17.1875 
L 4.890625 26.703125 
z
" id="DejaVuSans-52"/>
      </defs>
      <g transform="translate(181.64375 403.918437)scale(0.1 -0.1)">
       <use xlink:href="#DejaVuSans-52"/>
      </g>
     </g>
    </g>
    <g id="xtick_5">
     <g id="line2d_5">
      <g>
       <use style="stroke:#000000;stroke-width:0.8;" x="221.015" xlink:href="#mfc518bbc66" y="389.32"/>
      </g>
     </g>
     <g id="text_5">
      <!-- 5 -->
      <defs>
       <path d="M 10.796875 72.90625 
L 49.515625 72.90625 
L 49.515625 64.59375 
L 19.828125 64.59375 
L 19.828125 46.734375 
Q 21.96875 47.46875 24.109375 47.828125 
Q 26.265625 48.1875 28.421875 48.1875 
Q 40.625 48.1875 47.75 41.5 
Q 54.890625 34.8125 54.890625 23.390625 
Q 54.890625 11.625 47.5625 5.09375 
Q 40.234375 -1.421875 26.90625 -1.421875 
Q 22.3125 -1.421875 17.546875 -0.640625 
Q 12.796875 0.140625 7.71875 1.703125 
L 7.71875 11.625 
Q 12.109375 9.234375 16.796875 8.0625 
Q 21.484375 6.890625 26.703125 6.890625 
Q 35.15625 6.890625 40.078125 11.328125 
Q 45.015625 15.765625 45.015625 23.390625 
Q 45.015625 31 40.078125 35.4375 
Q 35.15625 39.890625 26.703125 39.890625 
Q 22.75 39.890625 18.8125 39.015625 
Q 14.890625 38.140625 10.796875 36.28125 
z
" id="DejaVuSans-53"/>
      </defs>
      <g transform="translate(217.83375 403.918437)scale(0.1 -0.1)">
       <use xlink:href="#DejaVuSans-53"/>
      </g>
     </g>
    </g>
    <g id="xtick_6">
     <g id="line2d_6">
      <g>
       <use style="stroke:#000000;stroke-width:0.8;" x="257.205" xlink:href="#mfc518bbc66" y="389.32"/>
      </g>
     </g>
     <g id="text_6">
      <!-- 6 -->
      <defs>
       <path d="M 33.015625 40.375 
Q 26.375 40.375 22.484375 35.828125 
Q 18.609375 31.296875 18.609375 23.390625 
Q 18.609375 15.53125 22.484375 10.953125 
Q 26.375 6.390625 33.015625 6.390625 
Q 39.65625 6.390625 43.53125 10.953125 
Q 47.40625 15.53125 47.40625 23.390625 
Q 47.40625 31.296875 43.53125 35.828125 
Q 39.65625 40.375 33.015625 40.375 
z
M 52.59375 71.296875 
L 52.59375 62.3125 
Q 48.875 64.0625 45.09375 64.984375 
Q 41.3125 65.921875 37.59375 65.921875 
Q 27.828125 65.921875 22.671875 59.328125 
Q 17.53125 52.734375 16.796875 39.40625 
Q 19.671875 43.65625 24.015625 45.921875 
Q 28.375 48.1875 33.59375 48.1875 
Q 44.578125 48.1875 50.953125 41.515625 
Q 57.328125 34.859375 57.328125 23.390625 
Q 57.328125 12.15625 50.6875 5.359375 
Q 44.046875 -1.421875 33.015625 -1.421875 
Q 20.359375 -1.421875 13.671875 8.265625 
Q 6.984375 17.96875 6.984375 36.375 
Q 6.984375 53.65625 15.1875 63.9375 
Q 23.390625 74.21875 37.203125 74.21875 
Q 40.921875 74.21875 44.703125 73.484375 
Q 48.484375 72.75 52.59375 71.296875 
z
" id="DejaVuSans-54"/>
      </defs>
      <g transform="translate(254.02375 403.918437)scale(0.1 -0.1)">
       <use xlink:href="#DejaVuSans-54"/>
      </g>
     </g>
    </g>
    <g id="xtick_7">
     <g id="line2d_7">
      <g>
       <use style="stroke:#000000;stroke-width:0.8;" x="293.395" xlink:href="#mfc518bbc66" y="389.32"/>
      </g>
     </g>
     <g id="text_7">
      <!-- 7 -->
      <defs>
       <path d="M 8.203125 72.90625 
L 55.078125 72.90625 
L 55.078125 68.703125 
L 28.609375 0 
L 18.3125 0 
L 43.21875 64.59375 
L 8.203125 64.59375 
z
" id="DejaVuSans-55"/>
      </defs>
      <g transform="translate(290.21375 403.918437)scale(0.1 -0.1)">
       <use xlink:href="#DejaVuSans-55"/>
      </g>
     </g>
    </g>
    <g id="xtick_8">
     <g id="line2d_8">
      <g>
       <use style="stroke:#000000;stroke-width:0.8;" x="329.585" xlink:href="#mfc518bbc66" y="389.32"/>
      </g>
     </g>
     <g id="text_8">
      <!-- 8 -->
      <defs>
       <path d="M 31.78125 34.625 
Q 24.75 34.625 20.71875 30.859375 
Q 16.703125 27.09375 16.703125 20.515625 
Q 16.703125 13.921875 20.71875 10.15625 
Q 24.75 6.390625 31.78125 6.390625 
Q 38.8125 6.390625 42.859375 10.171875 
Q 46.921875 13.96875 46.921875 20.515625 
Q 46.921875 27.09375 42.890625 30.859375 
Q 38.875 34.625 31.78125 34.625 
z
M 21.921875 38.8125 
Q 15.578125 40.375 12.03125 44.71875 
Q 8.5 49.078125 8.5 55.328125 
Q 8.5 64.0625 14.71875 69.140625 
Q 20.953125 74.21875 31.78125 74.21875 
Q 42.671875 74.21875 48.875 69.140625 
Q 55.078125 64.0625 55.078125 55.328125 
Q 55.078125 49.078125 51.53125 44.71875 
Q 48 40.375 41.703125 38.8125 
Q 48.828125 37.15625 52.796875 32.3125 
Q 56.78125 27.484375 56.78125 20.515625 
Q 56.78125 9.90625 50.3125 4.234375 
Q 43.84375 -1.421875 31.78125 -1.421875 
Q 19.734375 -1.421875 13.25 4.234375 
Q 6.78125 9.90625 6.78125 20.515625 
Q 6.78125 27.484375 10.78125 32.3125 
Q 14.796875 37.15625 21.921875 38.8125 
z
M 18.3125 54.390625 
Q 18.3125 48.734375 21.84375 45.5625 
Q 25.390625 42.390625 31.78125 42.390625 
Q 38.140625 42.390625 41.71875 45.5625 
Q 45.3125 48.734375 45.3125 54.390625 
Q 45.3125 60.0625 41.71875 63.234375 
Q 38.140625 66.40625 31.78125 66.40625 
Q 25.390625 66.40625 21.84375 63.234375 
Q 18.3125 60.0625 18.3125 54.390625 
z
" id="DejaVuSans-56"/>
      </defs>
      <g transform="translate(326.40375 403.918437)scale(0.1 -0.1)">
       <use xlink:href="#DejaVuSans-56"/>
      </g>
     </g>
    </g>
    <g id="xtick_9">
     <g id="line2d_9">
      <g>
       <use style="stroke:#000000;stroke-width:0.8;" x="365.775" xlink:href="#mfc518bbc66" y="389.32"/>
      </g>
     </g>
     <g id="text_9">
      <!-- 9 -->
      <defs>
       <path d="M 10.984375 1.515625 
L 10.984375 10.5 
Q 14.703125 8.734375 18.5 7.8125 
Q 22.3125 6.890625 25.984375 6.890625 
Q 35.75 6.890625 40.890625 13.453125 
Q 46.046875 20.015625 46.78125 33.40625 
Q 43.953125 29.203125 39.59375 26.953125 
Q 35.25 24.703125 29.984375 24.703125 
Q 19.046875 24.703125 12.671875 31.3125 
Q 6.296875 37.9375 6.296875 49.421875 
Q 6.296875 60.640625 12.9375 67.421875 
Q 19.578125 74.21875 30.609375 74.21875 
Q 43.265625 74.21875 49.921875 64.515625 
Q 56.59375 54.828125 56.59375 36.375 
Q 56.59375 19.140625 48.40625 8.859375 
Q 40.234375 -1.421875 26.421875 -1.421875 
Q 22.703125 -1.421875 18.890625 -0.6875 
Q 15.09375 0.046875 10.984375 1.515625 
z
M 30.609375 32.421875 
Q 37.25 32.421875 41.125 36.953125 
Q 45.015625 41.5 45.015625 49.421875 
Q 45.015625 57.28125 41.125 61.84375 
Q 37.25 66.40625 30.609375 66.40625 
Q 23.96875 66.40625 20.09375 61.84375 
Q 16.21875 57.28125 16.21875 49.421875 
Q 16.21875 41.5 20.09375 36.953125 
Q 23.96875 32.421875 30.609375 32.421875 
z
" id="DejaVuSans-57"/>
      </defs>
      <g transform="translate(362.59375 403.918437)scale(0.1 -0.1)">
       <use xlink:href="#DejaVuSans-57"/>
      </g>
     </g>
    </g>
    <g id="xtick_10">
     <g id="line2d_10">
      <g>
       <use style="stroke:#000000;stroke-width:0.8;" x="401.965" xlink:href="#mfc518bbc66" y="389.32"/>
      </g>
     </g>
     <g id="text_10">
      <!-- 10 -->
      <defs>
       <path d="M 31.78125 66.40625 
Q 24.171875 66.40625 20.328125 58.90625 
Q 16.5 51.421875 16.5 36.375 
Q 16.5 21.390625 20.328125 13.890625 
Q 24.171875 6.390625 31.78125 6.390625 
Q 39.453125 6.390625 43.28125 13.890625 
Q 47.125 21.390625 47.125 36.375 
Q 47.125 51.421875 43.28125 58.90625 
Q 39.453125 66.40625 31.78125 66.40625 
z
M 31.78125 74.21875 
Q 44.046875 74.21875 50.515625 64.515625 
Q 56.984375 54.828125 56.984375 36.375 
Q 56.984375 17.96875 50.515625 8.265625 
Q 44.046875 -1.421875 31.78125 -1.421875 
Q 19.53125 -1.421875 13.0625 8.265625 
Q 6.59375 17.96875 6.59375 36.375 
Q 6.59375 54.828125 13.0625 64.515625 
Q 19.53125 74.21875 31.78125 74.21875 
z
" id="DejaVuSans-48"/>
      </defs>
      <g transform="translate(395.6025 403.918437)scale(0.1 -0.1)">
       <use xlink:href="#DejaVuSans-49"/>
       <use x="63.623047" xlink:href="#DejaVuSans-48"/>
      </g>
     </g>
    </g>
    <g id="xtick_11">
     <g id="line2d_11">
      <g>
       <use style="stroke:#000000;stroke-width:0.8;" x="438.155" xlink:href="#mfc518bbc66" y="389.32"/>
      </g>
     </g>
     <g id="text_11">
      <!-- 11 -->
      <g transform="translate(431.7925 403.918437)scale(0.1 -0.1)">
       <use xlink:href="#DejaVuSans-49"/>
       <use x="63.623047" xlink:href="#DejaVuSans-49"/>
      </g>
     </g>
    </g>
    <g id="xtick_12">
     <g id="line2d_12">
      <g>
       <use style="stroke:#000000;stroke-width:0.8;" x="474.345" xlink:href="#mfc518bbc66" y="389.32"/>
      </g>
     </g>
     <g id="text_12">
      <!-- 12 -->
      <g transform="translate(467.9825 403.918437)scale(0.1 -0.1)">
       <use xlink:href="#DejaVuSans-49"/>
       <use x="63.623047" xlink:href="#DejaVuSans-50"/>
      </g>
     </g>
    </g>
    <g id="xtick_13">
     <g id="line2d_13">
      <g>
       <use style="stroke:#000000;stroke-width:0.8;" x="510.535" xlink:href="#mfc518bbc66" y="389.32"/>
      </g>
     </g>
     <g id="text_13">
      <!-- 13 -->
      <g transform="translate(504.1725 403.918437)scale(0.1 -0.1)">
       <use xlink:href="#DejaVuSans-49"/>
       <use x="63.623047" xlink:href="#DejaVuSans-51"/>
      </g>
     </g>
    </g>
    <g id="xtick_14">
     <g id="line2d_14">
      <g>
       <use style="stroke:#000000;stroke-width:0.8;" x="546.725" xlink:href="#mfc518bbc66" y="389.32"/>
      </g>
     </g>
     <g id="text_14">
      <!-- 14 -->
      <g transform="translate(540.3625 403.918437)scale(0.1 -0.1)">
       <use xlink:href="#DejaVuSans-49"/>
       <use x="63.623047" xlink:href="#DejaVuSans-52"/>
      </g>
     </g>
    </g>
    <g id="xtick_15">
     <g id="line2d_15">
      <g>
       <use style="stroke:#000000;stroke-width:0.8;" x="582.915" xlink:href="#mfc518bbc66" y="389.32"/>
      </g>
     </g>
     <g id="text_15">
      <!-- 15 -->
      <g transform="translate(576.5525 403.918437)scale(0.1 -0.1)">
       <use xlink:href="#DejaVuSans-49"/>
       <use x="63.623047" xlink:href="#DejaVuSans-53"/>
      </g>
     </g>
    </g>
    <g id="xtick_16">
     <g id="line2d_16">
      <g>
       <use style="stroke:#000000;stroke-width:0.8;" x="619.105" xlink:href="#mfc518bbc66" y="389.32"/>
      </g>
     </g>
     <g id="text_16">
      <!-- 16 -->
      <g transform="translate(612.7425 403.918437)scale(0.1 -0.1)">
       <use xlink:href="#DejaVuSans-49"/>
       <use x="63.623047" xlink:href="#DejaVuSans-54"/>
      </g>
     </g>
    </g>
    <g id="text_17">
     <!-- Active Cores -->
     <defs>
      <path d="M 34.1875 63.1875 
L 20.796875 26.90625 
L 47.609375 26.90625 
z
M 28.609375 72.90625 
L 39.796875 72.90625 
L 67.578125 0 
L 57.328125 0 
L 50.6875 18.703125 
L 17.828125 18.703125 
L 11.1875 0 
L 0.78125 0 
z
" id="DejaVuSans-65"/>
      <path d="M 48.78125 52.59375 
L 48.78125 44.1875 
Q 44.96875 46.296875 41.140625 47.34375 
Q 37.3125 48.390625 33.40625 48.390625 
Q 24.65625 48.390625 19.8125 42.84375 
Q 14.984375 37.3125 14.984375 27.296875 
Q 14.984375 17.28125 19.8125 11.734375 
Q 24.65625 6.203125 33.40625 6.203125 
Q 37.3125 6.203125 41.140625 7.25 
Q 44.96875 8.296875 48.78125 10.40625 
L 48.78125 2.09375 
Q 45.015625 0.34375 40.984375 -0.53125 
Q 36.96875 -1.421875 32.421875 -1.421875 
Q 20.0625 -1.421875 12.78125 6.34375 
Q 5.515625 14.109375 5.515625 27.296875 
Q 5.515625 40.671875 12.859375 48.328125 
Q 20.21875 56 33.015625 56 
Q 37.15625 56 41.109375 55.140625 
Q 45.0625 54.296875 48.78125 52.59375 
z
" id="DejaVuSans-99"/>
      <path d="M 18.3125 70.21875 
L 18.3125 54.6875 
L 36.8125 54.6875 
L 36.8125 47.703125 
L 18.3125 47.703125 
L 18.3125 18.015625 
Q 18.3125 11.328125 20.140625 9.421875 
Q 21.96875 7.515625 27.59375 7.515625 
L 36.8125 7.515625 
L 36.8125 0 
L 27.59375 0 
Q 17.1875 0 13.234375 3.875 
Q 9.28125 7.765625 9.28125 18.015625 
L 9.28125 47.703125 
L 2.6875 47.703125 
L 2.6875 54.6875 
L 9.28125 54.6875 
L 9.28125 70.21875 
z
" id="DejaVuSans-116"/>
      <path d="M 9.421875 54.6875 
L 18.40625 54.6875 
L 18.40625 0 
L 9.421875 0 
z
M 9.421875 75.984375 
L 18.40625 75.984375 
L 18.40625 64.59375 
L 9.421875 64.59375 
z
" id="DejaVuSans-105"/>
      <path d="M 2.984375 54.6875 
L 12.5 54.6875 
L 29.59375 8.796875 
L 46.6875 54.6875 
L 56.203125 54.6875 
L 35.6875 0 
L 23.484375 0 
z
" id="DejaVuSans-118"/>
      <path d="M 56.203125 29.59375 
L 56.203125 25.203125 
L 14.890625 25.203125 
Q 15.484375 15.921875 20.484375 11.0625 
Q 25.484375 6.203125 34.421875 6.203125 
Q 39.59375 6.203125 44.453125 7.46875 
Q 49.3125 8.734375 54.109375 11.28125 
L 54.109375 2.78125 
Q 49.265625 0.734375 44.1875 -0.34375 
Q 39.109375 -1.421875 33.890625 -1.421875 
Q 20.796875 -1.421875 13.15625 6.1875 
Q 5.515625 13.8125 5.515625 26.8125 
Q 5.515625 40.234375 12.765625 48.109375 
Q 20.015625 56 32.328125 56 
Q 43.359375 56 49.78125 48.890625 
Q 56.203125 41.796875 56.203125 29.59375 
z
M 47.21875 32.234375 
Q 47.125 39.59375 43.09375 43.984375 
Q 39.0625 48.390625 32.421875 48.390625 
Q 24.90625 48.390625 20.390625 44.140625 
Q 15.875 39.890625 15.1875 32.171875 
z
" id="DejaVuSans-101"/>
      <path id="DejaVuSans-32"/>
      <path d="M 64.40625 67.28125 
L 64.40625 56.890625 
Q 59.421875 61.53125 53.78125 63.8125 
Q 48.140625 66.109375 41.796875 66.109375 
Q 29.296875 66.109375 22.65625 58.46875 
Q 16.015625 50.828125 16.015625 36.375 
Q 16.015625 21.96875 22.65625 14.328125 
Q 29.296875 6.6875 41.796875 6.6875 
Q 48.140625 6.6875 53.78125 8.984375 
Q 59.421875 11.28125 64.40625 15.921875 
L 64.40625 5.609375 
Q 59.234375 2.09375 53.4375 0.328125 
Q 47.65625 -1.421875 41.21875 -1.421875 
Q 24.65625 -1.421875 15.125 8.703125 
Q 5.609375 18.84375 5.609375 36.375 
Q 5.609375 53.953125 15.125 64.078125 
Q 24.65625 74.21875 41.21875 74.21875 
Q 47.75 74.21875 53.53125 72.484375 
Q 59.328125 70.75 64.40625 67.28125 
z
" id="DejaVuSans-67"/>
      <path d="M 30.609375 48.390625 
Q 23.390625 48.390625 19.1875 42.75 
Q 14.984375 37.109375 14.984375 27.296875 
Q 14.984375 17.484375 19.15625 11.84375 
Q 23.34375 6.203125 30.609375 6.203125 
Q 37.796875 6.203125 41.984375 11.859375 
Q 46.1875 17.53125 46.1875 27.296875 
Q 46.1875 37.015625 41.984375 42.703125 
Q 37.796875 48.390625 30.609375 48.390625 
z
M 30.609375 56 
Q 42.328125 56 49.015625 48.375 
Q 55.71875 40.765625 55.71875 27.296875 
Q 55.71875 13.875 49.015625 6.21875 
Q 42.328125 -1.421875 30.609375 -1.421875 
Q 18.84375 -1.421875 12.171875 6.21875 
Q 5.515625 13.875 5.515625 27.296875 
Q 5.515625 40.765625 12.171875 48.375 
Q 18.84375 56 30.609375 56 
z
" id="DejaVuSans-111"/>
      <path d="M 41.109375 46.296875 
Q 39.59375 47.171875 37.8125 47.578125 
Q 36.03125 48 33.890625 48 
Q 26.265625 48 22.1875 43.046875 
Q 18.109375 38.09375 18.109375 28.8125 
L 18.109375 0 
L 9.078125 0 
L 9.078125 54.6875 
L 18.109375 54.6875 
L 18.109375 46.1875 
Q 20.953125 51.171875 25.484375 53.578125 
Q 30.03125 56 36.53125 56 
Q 37.453125 56 38.578125 55.875 
Q 39.703125 55.765625 41.0625 55.515625 
z
" id="DejaVuSans-114"/>
      <path d="M 44.28125 53.078125 
L 44.28125 44.578125 
Q 40.484375 46.53125 36.375 47.5 
Q 32.28125 48.484375 27.875 48.484375 
Q 21.1875 48.484375 17.84375 46.4375 
Q 14.5 44.390625 14.5 40.28125 
Q 14.5 37.15625 16.890625 35.375 
Q 19.28125 33.59375 26.515625 31.984375 
L 29.59375 31.296875 
Q 39.15625 29.25 43.1875 25.515625 
Q 47.21875 21.78125 47.21875 15.09375 
Q 47.21875 7.46875 41.1875 3.015625 
Q 35.15625 -1.421875 24.609375 -1.421875 
Q 20.21875 -1.421875 15.453125 -0.5625 
Q 10.6875 0.296875 5.421875 2 
L 5.421875 11.28125 
Q 10.40625 8.6875 15.234375 7.390625 
Q 20.0625 6.109375 24.8125 6.109375 
Q 31.15625 6.109375 34.5625 8.28125 
Q 37.984375 10.453125 37.984375 14.40625 
Q 37.984375 18.0625 35.515625 20.015625 
Q 33.0625 21.96875 24.703125 23.78125 
L 21.578125 24.515625 
Q 13.234375 26.265625 9.515625 29.90625 
Q 5.8125 33.546875 5.8125 39.890625 
Q 5.8125 47.609375 11.28125 51.796875 
Q 16.75 56 26.8125 56 
Q 31.78125 56 36.171875 55.265625 
Q 40.578125 54.546875 44.28125 53.078125 
z
" id="DejaVuSans-115"/>
     </defs>
     <g transform="translate(309.965312 419.11625)scale(0.12 -0.12)">
      <use xlink:href="#DejaVuSans-65"/>
      <use x="68.392578" xlink:href="#DejaVuSans-99"/>
      <use x="123.373047" xlink:href="#DejaVuSans-116"/>
      <use x="162.582031" xlink:href="#DejaVuSans-105"/>
      <use x="190.365234" xlink:href="#DejaVuSans-118"/>
      <use x="249.544922" xlink:href="#DejaVuSans-101"/>
      <use x="311.068359" xlink:href="#DejaVuSans-32"/>
      <use x="342.855469" xlink:href="#DejaVuSans-67"/>
      <use x="412.679688" xlink:href="#DejaVuSans-111"/>
      <use x="473.861328" xlink:href="#DejaVuSans-114"/>
      <use x="514.943359" xlink:href="#DejaVuSans-101"/>
      <use x="576.466797" xlink:href="#DejaVuSans-115"/>
     </g>
    </g>
   </g>
   <g id="matplotlib.axis_2">
    <g id="ytick_1">
     <g id="line2d_17">
      <defs>
       <path d="M 0 0 
L -3.5 0 
" id="m3a24eacd0e" style="stroke:#000000;stroke-width:0.8;"/>
      </defs>
      <g>
       <use style="stroke:#000000;stroke-width:0.8;" x="58.16" xlink:href="#m3a24eacd0e" y="389.32"/>
      </g>
     </g>
     <g id="text_18">
      <!-- 0 -->
      <g transform="translate(44.7975 393.119219)scale(0.1 -0.1)">
       <use xlink:href="#DejaVuSans-48"/>
      </g>
     </g>
    </g>
    <g id="ytick_2">
     <g id="line2d_18">
      <g>
       <use style="stroke:#000000;stroke-width:0.8;" x="58.16" xlink:href="#m3a24eacd0e" y="339.168428"/>
      </g>
     </g>
     <g id="text_19">
      <!-- 200 -->
      <g transform="translate(32.0725 342.967646)scale(0.1 -0.1)">
       <use xlink:href="#DejaVuSans-50"/>
       <use x="63.623047" xlink:href="#DejaVuSans-48"/>
       <use x="127.246094" xlink:href="#DejaVuSans-48"/>
      </g>
     </g>
    </g>
    <g id="ytick_3">
     <g id="line2d_19">
      <g>
       <use style="stroke:#000000;stroke-width:0.8;" x="58.16" xlink:href="#m3a24eacd0e" y="289.016855"/>
      </g>
     </g>
     <g id="text_20">
      <!-- 400 -->
      <g transform="translate(32.0725 292.816074)scale(0.1 -0.1)">
       <use xlink:href="#DejaVuSans-52"/>
       <use x="63.623047" xlink:href="#DejaVuSans-48"/>
       <use x="127.246094" xlink:href="#DejaVuSans-48"/>
      </g>
     </g>
    </g>
    <g id="ytick_4">
     <g id="line2d_20">
      <g>
       <use style="stroke:#000000;stroke-width:0.8;" x="58.16" xlink:href="#m3a24eacd0e" y="238.865283"/>
      </g>
     </g>
     <g id="text_21">
      <!-- 600 -->
      <g transform="translate(32.0725 242.664501)scale(0.1 -0.1)">
       <use xlink:href="#DejaVuSans-54"/>
       <use x="63.623047" xlink:href="#DejaVuSans-48"/>
       <use x="127.246094" xlink:href="#DejaVuSans-48"/>
      </g>
     </g>
    </g>
    <g id="ytick_5">
     <g id="line2d_21">
      <g>
       <use style="stroke:#000000;stroke-width:0.8;" x="58.16" xlink:href="#m3a24eacd0e" y="188.71371"/>
      </g>
     </g>
     <g id="text_22">
      <!-- 800 -->
      <g transform="translate(32.0725 192.512929)scale(0.1 -0.1)">
       <use xlink:href="#DejaVuSans-56"/>
       <use x="63.623047" xlink:href="#DejaVuSans-48"/>
       <use x="127.246094" xlink:href="#DejaVuSans-48"/>
      </g>
     </g>
    </g>
    <g id="ytick_6">
     <g id="line2d_22">
      <g>
       <use style="stroke:#000000;stroke-width:0.8;" x="58.16" xlink:href="#m3a24eacd0e" y="138.562138"/>
      </g>
     </g>
     <g id="text_23">
      <!-- 1000 -->
      <g transform="translate(25.71 142.361356)scale(0.1 -0.1)">
       <use xlink:href="#DejaVuSans-49"/>
       <use x="63.623047" xlink:href="#DejaVuSans-48"/>
       <use x="127.246094" xlink:href="#DejaVuSans-48"/>
       <use x="190.869141" xlink:href="#DejaVuSans-48"/>
      </g>
     </g>
    </g>
    <g id="ytick_7">
     <g id="line2d_23">
      <g>
       <use style="stroke:#000000;stroke-width:0.8;" x="58.16" xlink:href="#m3a24eacd0e" y="88.410565"/>
      </g>
     </g>
     <g id="text_24">
      <!-- 1200 -->
      <g transform="translate(25.71 92.209784)scale(0.1 -0.1)">
       <use xlink:href="#DejaVuSans-49"/>
       <use x="63.623047" xlink:href="#DejaVuSans-50"/>
       <use x="127.246094" xlink:href="#DejaVuSans-48"/>
       <use x="190.869141" xlink:href="#DejaVuSans-48"/>
      </g>
     </g>
    </g>
    <g id="ytick_8">
     <g id="line2d_24">
      <g>
       <use style="stroke:#000000;stroke-width:0.8;" x="58.16" xlink:href="#m3a24eacd0e" y="38.258993"/>
      </g>
     </g>
     <g id="text_25">
      <!-- 1400 -->
      <g transform="translate(25.71 42.058211)scale(0.1 -0.1)">
       <use xlink:href="#DejaVuSans-49"/>
       <use x="63.623047" xlink:href="#DejaVuSans-52"/>
       <use x="127.246094" xlink:href="#DejaVuSans-48"/>
       <use x="190.869141" xlink:href="#DejaVuSans-48"/>
      </g>
     </g>
    </g>
    <g id="text_26">
     <!-- Nanoseconds per increment -->
     <defs>
      <path d="M 9.8125 72.90625 
L 23.09375 72.90625 
L 55.421875 11.921875 
L 55.421875 72.90625 
L 64.984375 72.90625 
L 64.984375 0 
L 51.703125 0 
L 19.390625 60.984375 
L 19.390625 0 
L 9.8125 0 
z
" id="DejaVuSans-78"/>
      <path d="M 34.28125 27.484375 
Q 23.390625 27.484375 19.1875 25 
Q 14.984375 22.515625 14.984375 16.5 
Q 14.984375 11.71875 18.140625 8.90625 
Q 21.296875 6.109375 26.703125 6.109375 
Q 34.1875 6.109375 38.703125 11.40625 
Q 43.21875 16.703125 43.21875 25.484375 
L 43.21875 27.484375 
z
M 52.203125 31.203125 
L 52.203125 0 
L 43.21875 0 
L 43.21875 8.296875 
Q 40.140625 3.328125 35.546875 0.953125 
Q 30.953125 -1.421875 24.3125 -1.421875 
Q 15.921875 -1.421875 10.953125 3.296875 
Q 6 8.015625 6 15.921875 
Q 6 25.140625 12.171875 29.828125 
Q 18.359375 34.515625 30.609375 34.515625 
L 43.21875 34.515625 
L 43.21875 35.40625 
Q 43.21875 41.609375 39.140625 45 
Q 35.0625 48.390625 27.6875 48.390625 
Q 23 48.390625 18.546875 47.265625 
Q 14.109375 46.140625 10.015625 43.890625 
L 10.015625 52.203125 
Q 14.9375 54.109375 19.578125 55.046875 
Q 24.21875 56 28.609375 56 
Q 40.484375 56 46.34375 49.84375 
Q 52.203125 43.703125 52.203125 31.203125 
z
" id="DejaVuSans-97"/>
      <path d="M 54.890625 33.015625 
L 54.890625 0 
L 45.90625 0 
L 45.90625 32.71875 
Q 45.90625 40.484375 42.875 44.328125 
Q 39.84375 48.1875 33.796875 48.1875 
Q 26.515625 48.1875 22.3125 43.546875 
Q 18.109375 38.921875 18.109375 30.90625 
L 18.109375 0 
L 9.078125 0 
L 9.078125 54.6875 
L 18.109375 54.6875 
L 18.109375 46.1875 
Q 21.34375 51.125 25.703125 53.5625 
Q 30.078125 56 35.796875 56 
Q 45.21875 56 50.046875 50.171875 
Q 54.890625 44.34375 54.890625 33.015625 
z
" id="DejaVuSans-110"/>
      <path d="M 45.40625 46.390625 
L 45.40625 75.984375 
L 54.390625 75.984375 
L 54.390625 0 
L 45.40625 0 
L 45.40625 8.203125 
Q 42.578125 3.328125 38.25 0.953125 
Q 33.9375 -1.421875 27.875 -1.421875 
Q 17.96875 -1.421875 11.734375 6.484375 
Q 5.515625 14.40625 5.515625 27.296875 
Q 5.515625 40.1875 11.734375 48.09375 
Q 17.96875 56 27.875 56 
Q 33.9375 56 38.25 53.625 
Q 42.578125 51.265625 45.40625 46.390625 
z
M 14.796875 27.296875 
Q 14.796875 17.390625 18.875 11.75 
Q 22.953125 6.109375 30.078125 6.109375 
Q 37.203125 6.109375 41.296875 11.75 
Q 45.40625 17.390625 45.40625 27.296875 
Q 45.40625 37.203125 41.296875 42.84375 
Q 37.203125 48.484375 30.078125 48.484375 
Q 22.953125 48.484375 18.875 42.84375 
Q 14.796875 37.203125 14.796875 27.296875 
z
" id="DejaVuSans-100"/>
      <path d="M 18.109375 8.203125 
L 18.109375 -20.796875 
L 9.078125 -20.796875 
L 9.078125 54.6875 
L 18.109375 54.6875 
L 18.109375 46.390625 
Q 20.953125 51.265625 25.265625 53.625 
Q 29.59375 56 35.59375 56 
Q 45.5625 56 51.78125 48.09375 
Q 58.015625 40.1875 58.015625 27.296875 
Q 58.015625 14.40625 51.78125 6.484375 
Q 45.5625 -1.421875 35.59375 -1.421875 
Q 29.59375 -1.421875 25.265625 0.953125 
Q 20.953125 3.328125 18.109375 8.203125 
z
M 48.6875 27.296875 
Q 48.6875 37.203125 44.609375 42.84375 
Q 40.53125 48.484375 33.40625 48.484375 
Q 26.265625 48.484375 22.1875 42.84375 
Q 18.109375 37.203125 18.109375 27.296875 
Q 18.109375 17.390625 22.1875 11.75 
Q 26.265625 6.109375 33.40625 6.109375 
Q 40.53125 6.109375 44.609375 11.75 
Q 48.6875 17.390625 48.6875 27.296875 
z
" id="DejaVuSans-112"/>
      <path d="M 52 44.1875 
Q 55.375 50.25 60.0625 53.125 
Q 64.75 56 71.09375 56 
Q 79.640625 56 84.28125 50.015625 
Q 88.921875 44.046875 88.921875 33.015625 
L 88.921875 0 
L 79.890625 0 
L 79.890625 32.71875 
Q 79.890625 40.578125 77.09375 44.375 
Q 74.3125 48.1875 68.609375 48.1875 
Q 61.625 48.1875 57.5625 43.546875 
Q 53.515625 38.921875 53.515625 30.90625 
L 53.515625 0 
L 44.484375 0 
L 44.484375 32.71875 
Q 44.484375 40.625 41.703125 44.40625 
Q 38.921875 48.1875 33.109375 48.1875 
Q 26.21875 48.1875 22.15625 43.53125 
Q 18.109375 38.875 18.109375 30.90625 
L 18.109375 0 
L 9.078125 0 
L 9.078125 54.6875 
L 18.109375 54.6875 
L 18.109375 46.1875 
Q 21.1875 51.21875 25.484375 53.609375 
Q 29.78125 56 35.6875 56 
Q 41.65625 56 45.828125 52.96875 
Q 50 49.953125 52 44.1875 
z
" id="DejaVuSans-109"/>
     </defs>
     <g transform="translate(19.214375 291.941562)rotate(-90)scale(0.12 -0.12)">
      <use xlink:href="#DejaVuSans-78"/>
      <use x="74.804688" xlink:href="#DejaVuSans-97"/>
      <use x="136.083984" xlink:href="#DejaVuSans-110"/>
      <use x="199.462891" xlink:href="#DejaVuSans-111"/>
      <use x="260.644531" xlink:href="#DejaVuSans-115"/>
      <use x="312.744141" xlink:href="#DejaVuSans-101"/>
      <use x="374.267578" xlink:href="#DejaVuSans-99"/>
      <use x="429.248047" xlink:href="#DejaVuSans-111"/>
      <use x="490.429688" xlink:href="#DejaVuSans-110"/>
      <use x="553.808594" xlink:href="#DejaVuSans-100"/>
      <use x="617.285156" xlink:href="#DejaVuSans-115"/>
      <use x="669.384766" xlink:href="#DejaVuSans-32"/>
      <use x="701.171875" xlink:href="#DejaVuSans-112"/>
      <use x="764.648438" xlink:href="#DejaVuSans-101"/>
      <use x="826.171875" xlink:href="#DejaVuSans-114"/>
      <use x="867.285156" xlink:href="#DejaVuSans-32"/>
      <use x="899.072266" xlink:href="#DejaVuSans-105"/>
      <use x="926.855469" xlink:href="#DejaVuSans-110"/>
      <use x="990.234375" xlink:href="#DejaVuSans-99"/>
      <use x="1045.214844" xlink:href="#DejaVuSans-114"/>
      <use x="1086.296875" xlink:href="#DejaVuSans-101"/>
      <use x="1147.820312" xlink:href="#DejaVuSans-109"/>
      <use x="1245.232422" xlink:href="#DejaVuSans-101"/>
      <use x="1306.755859" xlink:href="#DejaVuSans-110"/>
      <use x="1370.134766" xlink:href="#DejaVuSans-116"/>
     </g>
    </g>
   </g>
   <g id="LineCollection_1">
    <path clip-path="url(#p54c3fcca10)" d="M 70.223333 387.113331 
L 70.223333 387.113331 
" style="fill:none;stroke:#000000;stroke-width:1.5;"/>
    <path clip-path="url(#p54c3fcca10)" d="M 106.413333 381.621734 
L 106.413333 381.621734 
" style="fill:none;stroke:#000000;stroke-width:1.5;"/>
    <path clip-path="url(#p54c3fcca10)" d="M 142.603333 368.085824 
L 142.603333 367.539172 
" style="fill:none;stroke:#000000;stroke-width:1.5;"/>
    <path clip-path="url(#p54c3fcca10)" d="M 178.793333 362.945288 
L 178.793333 362.83997 
" style="fill:none;stroke:#000000;stroke-width:1.5;"/>
    <path clip-path="url(#p54c3fcca10)" d="M 214.983333 355.557961 
L 214.983333 355.477719 
" style="fill:none;stroke:#000000;stroke-width:1.5;"/>
    <path clip-path="url(#p54c3fcca10)" d="M 251.173333 324.724775 
L 251.173333 324.609426 
" style="fill:none;stroke:#000000;stroke-width:1.5;"/>
    <path clip-path="url(#p54c3fcca10)" d="M 287.363333 307.738437 
L 287.363333 307.392391 
" style="fill:none;stroke:#000000;stroke-width:1.5;"/>
    <path clip-path="url(#p54c3fcca10)" d="M 323.553333 286.574473 
L 323.553333 286.1532 
" style="fill:none;stroke:#000000;stroke-width:1.5;"/>
    <path clip-path="url(#p54c3fcca10)" d="M 359.743333 313.154807 
L 359.743333 312.658306 
" style="fill:none;stroke:#000000;stroke-width:1.5;"/>
    <path clip-path="url(#p54c3fcca10)" d="M 395.933333 251.909707 
L 395.933333 249.798325 
" style="fill:none;stroke:#000000;stroke-width:1.5;"/>
    <path clip-path="url(#p54c3fcca10)" d="M 432.123333 241.879392 
L 432.123333 239.59248 
" style="fill:none;stroke:#000000;stroke-width:1.5;"/>
    <path clip-path="url(#p54c3fcca10)" d="M 468.313333 188.001558 
L 468.313333 185.574222 
" style="fill:none;stroke:#000000;stroke-width:1.5;"/>
    <path clip-path="url(#p54c3fcca10)" d="M 504.503333 223.834856 
L 504.503333 222.500824 
" style="fill:none;stroke:#000000;stroke-width:1.5;"/>
    <path clip-path="url(#p54c3fcca10)" d="M 540.693333 133.872966 
L 540.693333 130.287128 
" style="fill:none;stroke:#000000;stroke-width:1.5;"/>
    <path clip-path="url(#p54c3fcca10)" d="M 576.883333 96.831014 
L 576.883333 93.220101 
" style="fill:none;stroke:#000000;stroke-width:1.5;"/>
    <path clip-path="url(#p54c3fcca10)" d="M 613.073333 46.739624 
L 613.073333 42.767619 
" style="fill:none;stroke:#000000;stroke-width:1.5;"/>
   </g>
   <g id="LineCollection_2">
    <path clip-path="url(#p54c3fcca10)" d="M 76.255 384.931737 
L 76.255 384.931737 
" style="fill:none;stroke:#000000;stroke-width:1.5;"/>
    <path clip-path="url(#p54c3fcca10)" d="M 112.445 384.931737 
L 112.445 384.931737 
" style="fill:none;stroke:#000000;stroke-width:1.5;"/>
    <path clip-path="url(#p54c3fcca10)" d="M 148.635 384.931737 
L 148.635 384.931737 
" style="fill:none;stroke:#000000;stroke-width:1.5;"/>
    <path clip-path="url(#p54c3fcca10)" d="M 184.825 384.931737 
L 184.825 384.931737 
" style="fill:none;stroke:#000000;stroke-width:1.5;"/>
    <path clip-path="url(#p54c3fcca10)" d="M 221.015 384.931737 
L 221.015 384.931737 
" style="fill:none;stroke:#000000;stroke-width:1.5;"/>
    <path clip-path="url(#p54c3fcca10)" d="M 257.205 384.931737 
L 257.205 384.931737 
" style="fill:none;stroke:#000000;stroke-width:1.5;"/>
    <path clip-path="url(#p54c3fcca10)" d="M 293.395 384.931737 
L 293.395 384.931737 
" style="fill:none;stroke:#000000;stroke-width:1.5;"/>
    <path clip-path="url(#p54c3fcca10)" d="M 329.585 384.931737 
L 329.585 384.931737 
" style="fill:none;stroke:#000000;stroke-width:1.5;"/>
    <path clip-path="url(#p54c3fcca10)" d="M 365.775 384.931737 
L 365.775 384.931737 
" style="fill:none;stroke:#000000;stroke-width:1.5;"/>
    <path clip-path="url(#p54c3fcca10)" d="M 401.965 384.931737 
L 401.965 384.931737 
" style="fill:none;stroke:#000000;stroke-width:1.5;"/>
    <path clip-path="url(#p54c3fcca10)" d="M 438.155 384.931737 
L 438.155 384.931737 
" style="fill:none;stroke:#000000;stroke-width:1.5;"/>
    <path clip-path="url(#p54c3fcca10)" d="M 474.345 384.931737 
L 474.345 384.931737 
" style="fill:none;stroke:#000000;stroke-width:1.5;"/>
    <path clip-path="url(#p54c3fcca10)" d="M 510.535 384.931737 
L 510.535 384.931737 
" style="fill:none;stroke:#000000;stroke-width:1.5;"/>
    <path clip-path="url(#p54c3fcca10)" d="M 546.725 384.931737 
L 546.725 384.931737 
" style="fill:none;stroke:#000000;stroke-width:1.5;"/>
    <path clip-path="url(#p54c3fcca10)" d="M 582.915 384.931737 
L 582.915 384.931737 
" style="fill:none;stroke:#000000;stroke-width:1.5;"/>
    <path clip-path="url(#p54c3fcca10)" d="M 619.105 384.931737 
L 619.105 384.931737 
" style="fill:none;stroke:#000000;stroke-width:1.5;"/>
   </g>
   <g id="LineCollection_3">
    <path clip-path="url(#p54c3fcca10)" d="M 82.286667 388.291893 
L 82.286667 388.291893 
" style="fill:none;stroke:#000000;stroke-width:1.5;"/>
    <path clip-path="url(#p54c3fcca10)" d="M 118.476667 388.291893 
L 118.476667 388.291893 
" style="fill:none;stroke:#000000;stroke-width:1.5;"/>
    <path clip-path="url(#p54c3fcca10)" d="M 154.666667 388.291893 
L 154.666667 388.291893 
" style="fill:none;stroke:#000000;stroke-width:1.5;"/>
    <path clip-path="url(#p54c3fcca10)" d="M 190.856667 388.291893 
L 190.856667 388.291893 
" style="fill:none;stroke:#000000;stroke-width:1.5;"/>
    <path clip-path="url(#p54c3fcca10)" d="M 227.046667 388.291893 
L 227.046667 388.291893 
" style="fill:none;stroke:#000000;stroke-width:1.5;"/>
    <path clip-path="url(#p54c3fcca10)" d="M 263.236667 388.291893 
L 263.236667 388.291893 
" style="fill:none;stroke:#000000;stroke-width:1.5;"/>
    <path clip-path="url(#p54c3fcca10)" d="M 299.426667 388.291893 
L 299.426667 388.291893 
" style="fill:none;stroke:#000000;stroke-width:1.5;"/>
    <path clip-path="url(#p54c3fcca10)" d="M 335.616667 388.291893 
L 335.616667 388.291893 
" style="fill:none;stroke:#000000;stroke-width:1.5;"/>
    <path clip-path="url(#p54c3fcca10)" d="M 371.806667 388.291893 
L 371.806667 388.291893 
" style="fill:none;stroke:#000000;stroke-width:1.5;"/>
    <path clip-path="url(#p54c3fcca10)" d="M 407.996667 388.291893 
L 407.996667 388.291893 
" style="fill:none;stroke:#000000;stroke-width:1.5;"/>
    <path clip-path="url(#p54c3fcca10)" d="M 444.186667 388.291893 
L 444.186667 388.291893 
" style="fill:none;stroke:#000000;stroke-width:1.5;"/>
    <path clip-path="url(#p54c3fcca10)" d="M 480.376667 388.291893 
L 480.376667 388.291893 
" style="fill:none;stroke:#000000;stroke-width:1.5;"/>
    <path clip-path="url(#p54c3fcca10)" d="M 516.566667 388.291893 
L 516.566667 388.291893 
" style="fill:none;stroke:#000000;stroke-width:1.5;"/>
    <path clip-path="url(#p54c3fcca10)" d="M 552.756667 388.291893 
L 552.756667 388.291893 
" style="fill:none;stroke:#000000;stroke-width:1.5;"/>
    <path clip-path="url(#p54c3fcca10)" d="M 588.946667 388.291893 
L 588.946667 388.291893 
" style="fill:none;stroke:#000000;stroke-width:1.5;"/>
    <path clip-path="url(#p54c3fcca10)" d="M 625.136667 388.291893 
L 625.136667 388.291893 
" style="fill:none;stroke:#000000;stroke-width:1.5;"/>
   </g>
   <g id="patch_51">
    <path d="M 58.16 389.32 
L 58.16 25.44 
" style="fill:none;stroke:#000000;stroke-linecap:square;stroke-linejoin:miter;stroke-width:0.8;"/>
   </g>
   <g id="patch_52">
    <path d="M 637.2 389.32 
L 637.2 25.44 
" style="fill:none;stroke:#000000;stroke-linecap:square;stroke-linejoin:miter;stroke-width:0.8;"/>
   </g>
   <g id="patch_53">
    <path d="M 58.16 389.32 
L 637.2 389.32 
" style="fill:none;stroke:#000000;stroke-linecap:square;stroke-linejoin:miter;stroke-width:0.8;"/>
   </g>
   <g id="patch_54">
    <path d="M 58.16 25.44 
L 637.2 25.44 
" style="fill:none;stroke:#000000;stroke-linecap:square;stroke-linejoin:miter;stroke-width:0.8;"/>
   </g>
   <g id="text_27">
    <!-- Increment Cost: Thread Local Storage -->
    <defs>
     <path d="M 9.8125 72.90625 
L 19.671875 72.90625 
L 19.671875 0 
L 9.8125 0 
z
" id="DejaVuSans-73"/>
     <path d="M 11.71875 12.40625 
L 22.015625 12.40625 
L 22.015625 0 
L 11.71875 0 
z
M 11.71875 51.703125 
L 22.015625 51.703125 
L 22.015625 39.3125 
L 11.71875 39.3125 
z
" id="DejaVuSans-58"/>
     <path d="M -0.296875 72.90625 
L 61.375 72.90625 
L 61.375 64.59375 
L 35.5 64.59375 
L 35.5 0 
L 25.59375 0 
L 25.59375 64.59375 
L -0.296875 64.59375 
z
" id="DejaVuSans-84"/>
     <path d="M 54.890625 33.015625 
L 54.890625 0 
L 45.90625 0 
L 45.90625 32.71875 
Q 45.90625 40.484375 42.875 44.328125 
Q 39.84375 48.1875 33.796875 48.1875 
Q 26.515625 48.1875 22.3125 43.546875 
Q 18.109375 38.921875 18.109375 30.90625 
L 18.109375 0 
L 9.078125 0 
L 9.078125 75.984375 
L 18.109375 75.984375 
L 18.109375 46.1875 
Q 21.34375 51.125 25.703125 53.5625 
Q 30.078125 56 35.796875 56 
Q 45.21875 56 50.046875 50.171875 
Q 54.890625 44.34375 54.890625 33.015625 
z
" id="DejaVuSans-104"/>
     <path d="M 9.8125 72.90625 
L 19.671875 72.90625 
L 19.671875 8.296875 
L 55.171875 8.296875 
L 55.171875 0 
L 9.8125 0 
z
" id="DejaVuSans-76"/>
     <path d="M 9.421875 75.984375 
L 18.40625 75.984375 
L 18.40625 0 
L 9.421875 0 
z
" id="DejaVuSans-108"/>
     <path d="M 53.515625 70.515625 
L 53.515625 60.890625 
Q 47.90625 63.578125 42.921875 64.890625 
Q 37.9375 66.21875 33.296875 66.21875 
Q 25.25 66.21875 20.875 63.09375 
Q 16.5 59.96875 16.5 54.203125 
Q 16.5 49.359375 19.40625 46.890625 
Q 22.3125 44.4375 30.421875 42.921875 
L 36.375 41.703125 
Q 47.40625 39.59375 52.65625 34.296875 
Q 57.90625 29 57.90625 20.125 
Q 57.90625 9.515625 50.796875 4.046875 
Q 43.703125 -1.421875 29.984375 -1.421875 
Q 24.8125 -1.421875 18.96875 -0.25 
Q 13.140625 0.921875 6.890625 3.21875 
L 6.890625 13.375 
Q 12.890625 10.015625 18.65625 8.296875 
Q 24.421875 6.59375 29.984375 6.59375 
Q 38.421875 6.59375 43.015625 9.90625 
Q 47.609375 13.234375 47.609375 19.390625 
Q 47.609375 24.75 44.3125 27.78125 
Q 41.015625 30.8125 33.5 32.328125 
L 27.484375 33.5 
Q 16.453125 35.6875 11.515625 40.375 
Q 6.59375 45.0625 6.59375 53.421875 
Q 6.59375 63.09375 13.40625 68.65625 
Q 20.21875 74.21875 32.171875 74.21875 
Q 37.3125 74.21875 42.625 73.28125 
Q 47.953125 72.359375 53.515625 70.515625 
z
" id="DejaVuSans-83"/>
     <path d="M 45.40625 27.984375 
Q 45.40625 37.75 41.375 43.109375 
Q 37.359375 48.484375 30.078125 48.484375 
Q 22.859375 48.484375 18.828125 43.109375 
Q 14.796875 37.75 14.796875 27.984375 
Q 14.796875 18.265625 18.828125 12.890625 
Q 22.859375 7.515625 30.078125 7.515625 
Q 37.359375 7.515625 41.375 12.890625 
Q 45.40625 18.265625 45.40625 27.984375 
z
M 54.390625 6.78125 
Q 54.390625 -7.171875 48.1875 -13.984375 
Q 42 -20.796875 29.203125 -20.796875 
Q 24.46875 -20.796875 20.265625 -20.09375 
Q 16.0625 -19.390625 12.109375 -17.921875 
L 12.109375 -9.1875 
Q 16.0625 -11.328125 19.921875 -12.34375 
Q 23.78125 -13.375 27.78125 -13.375 
Q 36.625 -13.375 41.015625 -8.765625 
Q 45.40625 -4.15625 45.40625 5.171875 
L 45.40625 9.625 
Q 42.625 4.78125 38.28125 2.390625 
Q 33.9375 0 27.875 0 
Q 17.828125 0 11.671875 7.65625 
Q 5.515625 15.328125 5.515625 27.984375 
Q 5.515625 40.671875 11.671875 48.328125 
Q 17.828125 56 27.875 56 
Q 33.9375 56 38.28125 53.609375 
Q 42.625 51.21875 45.40625 46.390625 
L 45.40625 54.6875 
L 54.390625 54.6875 
z
" id="DejaVuSans-103"/>
    </defs>
    <g transform="translate(233.730625 19.44)scale(0.12 -0.12)">
     <use xlink:href="#DejaVuSans-73"/>
     <use x="29.492188" xlink:href="#DejaVuSans-110"/>
     <use x="92.871094" xlink:href="#DejaVuSans-99"/>
     <use x="147.851562" xlink:href="#DejaVuSans-114"/>
     <use x="188.933594" xlink:href="#DejaVuSans-101"/>
     <use x="250.457031" xlink:href="#DejaVuSans-109"/>
     <use x="347.869141" xlink:href="#DejaVuSans-101"/>
     <use x="409.392578" xlink:href="#DejaVuSans-110"/>
     <use x="472.771484" xlink:href="#DejaVuSans-116"/>
     <use x="511.980469" xlink:href="#DejaVuSans-32"/>
     <use x="543.767578" xlink:href="#DejaVuSans-67"/>
     <use x="613.591797" xlink:href="#DejaVuSans-111"/>
     <use x="674.773438" xlink:href="#DejaVuSans-115"/>
     <use x="726.873047" xlink:href="#DejaVuSans-116"/>
     <use x="766.082031" xlink:href="#DejaVuSans-58"/>
     <use x="799.773438" xlink:href="#DejaVuSans-32"/>
     <use x="831.560547" xlink:href="#DejaVuSans-84"/>
     <use x="892.644531" xlink:href="#DejaVuSans-104"/>
     <use x="956.023438" xlink:href="#DejaVuSans-114"/>
     <use x="997.105469" xlink:href="#DejaVuSans-101"/>
     <use x="1058.628906" xlink:href="#DejaVuSans-97"/>
     <use x="1119.908203" xlink:href="#DejaVuSans-100"/>
     <use x="1183.384766" xlink:href="#DejaVuSans-32"/>
     <use x="1215.171875" xlink:href="#DejaVuSans-76"/>
     <use x="1270.869141" xlink:href="#DejaVuSans-111"/>
     <use x="1332.050781" xlink:href="#DejaVuSans-99"/>
     <use x="1387.03125" xlink:href="#DejaVuSans-97"/>
     <use x="1448.310547" xlink:href="#DejaVuSans-108"/>
     <use x="1476.09375" xlink:href="#DejaVuSans-32"/>
     <use x="1507.880859" xlink:href="#DejaVuSans-83"/>
     <use x="1571.357422" xlink:href="#DejaVuSans-116"/>
     <use x="1610.566406" xlink:href="#DejaVuSans-111"/>
     <use x="1671.748047" xlink:href="#DejaVuSans-114"/>
     <use x="1712.861328" xlink:href="#DejaVuSans-97"/>
     <use x="1774.140625" xlink:href="#DejaVuSans-103"/>
     <use x="1837.617188" xlink:href="#DejaVuSans-101"/>
    </g>
   </g>
   <g id="legend_1">
    <g id="patch_55">
     <path d="M 65.16 92.1525 
L 153.3475 92.1525 
Q 155.3475 92.1525 155.3475 90.1525 
L 155.3475 32.44 
Q 155.3475 30.44 153.3475 30.44 
L 65.16 30.44 
Q 63.16 30.44 63.16 32.44 
L 63.16 90.1525 
Q 63.16 92.1525 65.16 92.1525 
z
" style="fill:#ffffff;opacity:0.8;stroke:#cccccc;stroke-linejoin:miter;"/>
    </g>
    <g id="text_28">
     <!-- Implementation -->
     <g transform="translate(69.551406 42.038437)scale(0.1 -0.1)">
      <use xlink:href="#DejaVuSans-73"/>
      <use x="29.492188" xlink:href="#DejaVuSans-109"/>
      <use x="126.904297" xlink:href="#DejaVuSans-112"/>
      <use x="190.380859" xlink:href="#DejaVuSans-108"/>
      <use x="218.164062" xlink:href="#DejaVuSans-101"/>
      <use x="279.6875" xlink:href="#DejaVuSans-109"/>
      <use x="377.099609" xlink:href="#DejaVuSans-101"/>
      <use x="438.623047" xlink:href="#DejaVuSans-110"/>
      <use x="502.001953" xlink:href="#DejaVuSans-116"/>
      <use x="541.210938" xlink:href="#DejaVuSans-97"/>
      <use x="602.490234" xlink:href="#DejaVuSans-116"/>
      <use x="641.699219" xlink:href="#DejaVuSans-105"/>
      <use x="669.482422" xlink:href="#DejaVuSans-111"/>
      <use x="730.664062" xlink:href="#DejaVuSans-110"/>
     </g>
    </g>
    <g id="patch_56">
     <path d="M 67.16 56.716563 
L 87.16 56.716563 
L 87.16 49.716563 
L 67.16 49.716563 
z
" style="fill:#1f77b4;"/>
    </g>
    <g id="text_29">
     <!-- atomic add -->
     <g transform="translate(95.16 56.716563)scale(0.1 -0.1)">
      <use xlink:href="#DejaVuSans-97"/>
      <use x="61.279297" xlink:href="#DejaVuSans-116"/>
      <use x="100.488281" xlink:href="#DejaVuSans-111"/>
      <use x="161.669922" xlink:href="#DejaVuSans-109"/>
      <use x="259.082031" xlink:href="#DejaVuSans-105"/>
      <use x="286.865234" xlink:href="#DejaVuSans-99"/>
      <use x="341.845703" xlink:href="#DejaVuSans-32"/>
      <use x="373.632812" xlink:href="#DejaVuSans-97"/>
      <use x="434.912109" xlink:href="#DejaVuSans-100"/>
      <use x="498.388672" xlink:href="#DejaVuSans-100"/>
     </g>
    </g>
    <g id="patch_57">
     <path d="M 67.16 71.394688 
L 87.16 71.394688 
L 87.16 64.394688 
L 67.16 64.394688 
z
" style="fill:#ff7f0e;"/>
    </g>
    <g id="text_30">
     <!-- cas multi -->
     <defs>
      <path d="M 8.5 21.578125 
L 8.5 54.6875 
L 17.484375 54.6875 
L 17.484375 21.921875 
Q 17.484375 14.15625 20.5 10.265625 
Q 23.53125 6.390625 29.59375 6.390625 
Q 36.859375 6.390625 41.078125 11.03125 
Q 45.3125 15.671875 45.3125 23.6875 
L 45.3125 54.6875 
L 54.296875 54.6875 
L 54.296875 0 
L 45.3125 0 
L 45.3125 8.40625 
Q 42.046875 3.421875 37.71875 1 
Q 33.40625 -1.421875 27.6875 -1.421875 
Q 18.265625 -1.421875 13.375 4.4375 
Q 8.5 10.296875 8.5 21.578125 
z
M 31.109375 56 
z
" id="DejaVuSans-117"/>
     </defs>
     <g transform="translate(95.16 71.394688)scale(0.1 -0.1)">
      <use xlink:href="#DejaVuSans-99"/>
      <use x="54.980469" xlink:href="#DejaVuSans-97"/>
      <use x="116.259766" xlink:href="#DejaVuSans-115"/>
      <use x="168.359375" xlink:href="#DejaVuSans-32"/>
      <use x="200.146484" xlink:href="#DejaVuSans-109"/>
      <use x="297.558594" xlink:href="#DejaVuSans-117"/>
      <use x="360.9375" xlink:href="#DejaVuSans-108"/>
      <use x="388.720703" xlink:href="#DejaVuSans-116"/>
      <use x="427.929688" xlink:href="#DejaVuSans-105"/>
     </g>
    </g>
    <g id="patch_58">
     <path d="M 67.16 86.072812 
L 87.16 86.072812 
L 87.16 79.072812 
L 67.16 79.072812 
z
" style="fill:#2ca02c;"/>
    </g>
    <g id="text_31">
     <!-- tls add -->
     <g transform="translate(95.16 86.072812)scale(0.1 -0.1)">
      <use xlink:href="#DejaVuSans-116"/>
      <use x="39.208984" xlink:href="#DejaVuSans-108"/>
      <use x="66.992188" xlink:href="#DejaVuSans-115"/>
      <use x="119.091797" xlink:href="#DejaVuSans-32"/>
      <use x="150.878906" xlink:href="#DejaVuSans-97"/>
      <use x="212.158203" xlink:href="#DejaVuSans-100"/>
      <use x="275.634766" xlink:href="#DejaVuSans-100"/>
     </g>
    </g>
   </g>
  </g>
 </g>
 <defs>
  <clipPath id="p54c3fcca10">
   <rect height="363.88" width="579.04" x="58.16" y="25.44"/>
  </clipPath>
 </defs>
</svg>
