<?xml version="1.0" encoding="utf-8" standalone="no"?>
<!DOCTYPE svg PUBLIC "-//W3C//DTD SVG 1.1//EN"
  "http://www.w3.org/Graphics/SVG/1.1/DTD/svg11.dtd">
<!-- Created with matplotlib (https://matplotlib.org/) -->
<svg height="432pt" version="1.1" viewBox="0 0 648 432" width="648pt" xmlns="http://www.w3.org/2000/svg" xmlns:xlink="http://www.w3.org/1999/xlink">
 <defs>
  <style type="text/css">
*{stroke-linecap:butt;stroke-linejoin:round;}
  </style>
 </defs>
 <g id="figure_1">
  <g id="patch_1">
   <path d="M 0 432 
L 648 432 
L 648 0 
L 0 0 
z
" style="fill:#ffffff;"/>
  </g>
  <g id="axes_1">
   <g id="patch_2">
    <path d="M 77.33 389.32 
L 637.2 389.32 
L 637.2 25.44 
L 77.33 25.44 
z
" style="fill:#ffffff;"/>
   </g>
   <g id="patch_3">
    <path clip-path="url(#p2b8a11e210)" d="M 85.563382 389.32 
L 87.915777 389.32 
L 87.915777 389.269799 
L 85.563382 389.269799 
z
" style="fill:#1f77b4;"/>
   </g>
   <g id="patch_4">
    <path clip-path="url(#p2b8a11e210)" d="M 118.496912 389.32 
L 120.849307 389.32 
L 120.849307 389.252473 
L 118.496912 389.252473 
z
" style="fill:#1f77b4;"/>
   </g>
   <g id="patch_5">
    <path clip-path="url(#p2b8a11e210)" d="M 151.430441 389.32 
L 153.782836 389.32 
L 153.782836 389.212053 
L 151.430441 389.212053 
z
" style="fill:#1f77b4;"/>
   </g>
   <g id="patch_6">
    <path clip-path="url(#p2b8a11e210)" d="M 184.363971 389.32 
L 186.716366 389.32 
L 186.716366 389.184906 
L 184.363971 389.184906 
z
" style="fill:#1f77b4;"/>
   </g>
   <g id="patch_7">
    <path clip-path="url(#p2b8a11e210)" d="M 217.2975 389.32 
L 219.649895 389.32 
L 219.649895 389.107758 
L 217.2975 389.107758 
z
" style="fill:#1f77b4;"/>
   </g>
   <g id="patch_8">
    <path clip-path="url(#p2b8a11e210)" d="M 250.231029 389.32 
L 252.583424 389.32 
L 252.583424 389.041269 
L 250.231029 389.041269 
z
" style="fill:#1f77b4;"/>
   </g>
   <g id="patch_9">
    <path clip-path="url(#p2b8a11e210)" d="M 283.164559 389.32 
L 285.516954 389.32 
L 285.516954 388.985139 
L 283.164559 388.985139 
z
" style="fill:#1f77b4;"/>
   </g>
   <g id="patch_10">
    <path clip-path="url(#p2b8a11e210)" d="M 316.098088 389.32 
L 318.450483 389.32 
L 318.450483 388.889987 
L 316.098088 388.889987 
z
" style="fill:#1f77b4;"/>
   </g>
   <g id="patch_11">
    <path clip-path="url(#p2b8a11e210)" d="M 349.031618 389.32 
L 351.384013 389.32 
L 351.384013 388.821881 
L 349.031618 388.821881 
z
" style="fill:#1f77b4;"/>
   </g>
   <g id="patch_12">
    <path clip-path="url(#p2b8a11e210)" d="M 381.965147 389.32 
L 384.317542 389.32 
L 384.317542 388.763635 
L 381.965147 388.763635 
z
" style="fill:#1f77b4;"/>
   </g>
   <g id="patch_13">
    <path clip-path="url(#p2b8a11e210)" d="M 414.898676 389.32 
L 417.251071 389.32 
L 417.251071 388.723534 
L 414.898676 388.723534 
z
" style="fill:#1f77b4;"/>
   </g>
   <g id="patch_14">
    <path clip-path="url(#p2b8a11e210)" d="M 447.832206 389.32 
L 450.184601 389.32 
L 450.184601 388.67996 
L 447.832206 388.67996 
z
" style="fill:#1f77b4;"/>
   </g>
   <g id="patch_15">
    <path clip-path="url(#p2b8a11e210)" d="M 480.765735 389.32 
L 483.11813 389.32 
L 483.11813 388.612333 
L 480.765735 388.612333 
z
" style="fill:#1f77b4;"/>
   </g>
   <g id="patch_16">
    <path clip-path="url(#p2b8a11e210)" d="M 513.699265 389.32 
L 516.05166 389.32 
L 516.05166 388.555166 
L 513.699265 388.555166 
z
" style="fill:#1f77b4;"/>
   </g>
   <g id="patch_17">
    <path clip-path="url(#p2b8a11e210)" d="M 546.632794 389.32 
L 548.985189 389.32 
L 548.985189 388.505064 
L 546.632794 388.505064 
z
" style="fill:#1f77b4;"/>
   </g>
   <g id="patch_18">
    <path clip-path="url(#p2b8a11e210)" d="M 579.566324 389.32 
L 581.918718 389.32 
L 581.918718 388.432627 
L 579.566324 388.432627 
z
" style="fill:#1f77b4;"/>
   </g>
   <g id="patch_19">
    <path clip-path="url(#p2b8a11e210)" d="M 612.499853 389.32 
L 614.852248 389.32 
L 614.852248 388.386298 
L 612.499853 388.386298 
z
" style="fill:#1f77b4;"/>
   </g>
   <g id="patch_20">
    <path clip-path="url(#p2b8a11e210)" d="M 87.915777 389.32 
L 90.268172 389.32 
L 90.268172 389.313872 
L 87.915777 389.313872 
z
" style="fill:#ff7f0e;"/>
   </g>
   <g id="patch_21">
    <path clip-path="url(#p2b8a11e210)" d="M 120.849307 389.32 
L 123.201702 389.32 
L 123.201702 389.302914 
L 120.849307 389.302914 
z
" style="fill:#ff7f0e;"/>
   </g>
   <g id="patch_22">
    <path clip-path="url(#p2b8a11e210)" d="M 153.782836 389.32 
L 156.135231 389.32 
L 156.135231 389.298961 
L 153.782836 389.298961 
z
" style="fill:#ff7f0e;"/>
   </g>
   <g id="patch_23">
    <path clip-path="url(#p2b8a11e210)" d="M 186.716366 389.32 
L 189.068761 389.32 
L 189.068761 389.293093 
L 186.716366 389.293093 
z
" style="fill:#ff7f0e;"/>
   </g>
   <g id="patch_24">
    <path clip-path="url(#p2b8a11e210)" d="M 219.649895 389.32 
L 222.00229 389.32 
L 222.00229 389.268541 
L 219.649895 389.268541 
z
" style="fill:#ff7f0e;"/>
   </g>
   <g id="patch_25">
    <path clip-path="url(#p2b8a11e210)" d="M 252.583424 389.32 
L 254.935819 389.32 
L 254.935819 389.254928 
L 252.583424 389.254928 
z
" style="fill:#ff7f0e;"/>
   </g>
   <g id="patch_26">
    <path clip-path="url(#p2b8a11e210)" d="M 285.516954 389.32 
L 287.869349 389.32 
L 287.869349 389.238121 
L 285.516954 389.238121 
z
" style="fill:#ff7f0e;"/>
   </g>
   <g id="patch_27">
    <path clip-path="url(#p2b8a11e210)" d="M 318.450483 389.32 
L 320.802878 389.32 
L 320.802878 389.25928 
L 318.450483 389.25928 
z
" style="fill:#ff7f0e;"/>
   </g>
   <g id="patch_28">
    <path clip-path="url(#p2b8a11e210)" d="M 351.384013 389.32 
L 353.736408 389.32 
L 353.736408 389.209498 
L 351.384013 389.209498 
z
" style="fill:#ff7f0e;"/>
   </g>
   <g id="patch_29">
    <path clip-path="url(#p2b8a11e210)" d="M 384.317542 389.32 
L 386.669937 389.32 
L 386.669937 389.201833 
L 384.317542 389.201833 
z
" style="fill:#ff7f0e;"/>
   </g>
   <g id="patch_30">
    <path clip-path="url(#p2b8a11e210)" d="M 417.251071 389.32 
L 419.603466 389.32 
L 419.603466 389.158618 
L 417.251071 389.158618 
z
" style="fill:#ff7f0e;"/>
   </g>
   <g id="patch_31">
    <path clip-path="url(#p2b8a11e210)" d="M 450.184601 389.32 
L 452.536996 389.32 
L 452.536996 389.187521 
L 450.184601 389.187521 
z
" style="fill:#ff7f0e;"/>
   </g>
   <g id="patch_32">
    <path clip-path="url(#p2b8a11e210)" d="M 483.11813 389.32 
L 485.470525 389.32 
L 485.470525 389.115383 
L 483.11813 389.115383 
z
" style="fill:#ff7f0e;"/>
   </g>
   <g id="patch_33">
    <path clip-path="url(#p2b8a11e210)" d="M 516.05166 389.32 
L 518.404055 389.32 
L 518.404055 389.085821 
L 516.05166 389.085821 
z
" style="fill:#ff7f0e;"/>
   </g>
   <g id="patch_34">
    <path clip-path="url(#p2b8a11e210)" d="M 548.985189 389.32 
L 551.337584 389.32 
L 551.337584 389.046079 
L 548.985189 389.046079 
z
" style="fill:#ff7f0e;"/>
   </g>
   <g id="patch_35">
    <path clip-path="url(#p2b8a11e210)" d="M 581.918718 389.32 
L 584.271113 389.32 
L 584.271113 389.025999 
L 581.918718 389.025999 
z
" style="fill:#ff7f0e;"/>
   </g>
   <g id="patch_36">
    <path clip-path="url(#p2b8a11e210)" d="M 614.852248 389.32 
L 617.204643 389.32 
L 617.204643 389.013104 
L 614.852248 389.013104 
z
" style="fill:#ff7f0e;"/>
   </g>
   <g id="patch_37">
    <path clip-path="url(#p2b8a11e210)" d="M 90.268172 389.32 
L 92.620567 389.32 
L 92.620567 389.309062 
L 90.268172 389.309062 
z
" style="fill:#2ca02c;"/>
   </g>
   <g id="patch_38">
    <path clip-path="url(#p2b8a11e210)" d="M 123.201702 389.32 
L 125.554097 389.32 
L 125.554097 389.291536 
L 123.201702 389.291536 
z
" style="fill:#2ca02c;"/>
   </g>
   <g id="patch_39">
    <path clip-path="url(#p2b8a11e210)" d="M 156.135231 389.32 
L 158.487626 389.32 
L 158.487626 389.285049 
L 156.135231 389.285049 
z
" style="fill:#2ca02c;"/>
   </g>
   <g id="patch_40">
    <path clip-path="url(#p2b8a11e210)" d="M 189.068761 389.32 
L 191.421155 389.32 
L 191.421155 389.27413 
L 189.068761 389.27413 
z
" style="fill:#2ca02c;"/>
   </g>
   <g id="patch_41">
    <path clip-path="url(#p2b8a11e210)" d="M 222.00229 389.32 
L 224.354685 389.32 
L 224.354685 389.242213 
L 222.00229 389.242213 
z
" style="fill:#2ca02c;"/>
   </g>
   <g id="patch_42">
    <path clip-path="url(#p2b8a11e210)" d="M 254.935819 389.32 
L 257.288214 389.32 
L 257.288214 389.215226 
L 254.935819 389.215226 
z
" style="fill:#2ca02c;"/>
   </g>
   <g id="patch_43">
    <path clip-path="url(#p2b8a11e210)" d="M 287.869349 389.32 
L 290.221744 389.32 
L 290.221744 389.192032 
L 287.869349 389.192032 
z
" style="fill:#2ca02c;"/>
   </g>
   <g id="patch_44">
    <path clip-path="url(#p2b8a11e210)" d="M 320.802878 389.32 
L 323.155273 389.32 
L 323.155273 389.200096 
L 320.802878 389.200096 
z
" style="fill:#2ca02c;"/>
   </g>
   <g id="patch_45">
    <path clip-path="url(#p2b8a11e210)" d="M 353.736408 389.32 
L 356.088803 389.32 
L 356.088803 389.148118 
L 353.736408 389.148118 
z
" style="fill:#2ca02c;"/>
   </g>
   <g id="patch_46">
    <path clip-path="url(#p2b8a11e210)" d="M 386.669937 389.32 
L 389.022332 389.32 
L 389.022332 389.097059 
L 386.669937 389.097059 
z
" style="fill:#2ca02c;"/>
   </g>
   <g id="patch_47">
    <path clip-path="url(#p2b8a11e210)" d="M 419.603466 389.32 
L 421.955861 389.32 
L 421.955861 389.058794 
L 419.603466 389.058794 
z
" style="fill:#2ca02c;"/>
   </g>
   <g id="patch_48">
    <path clip-path="url(#p2b8a11e210)" d="M 452.536996 389.32 
L 454.889391 389.32 
L 454.889391 389.061289 
L 452.536996 389.061289 
z
" style="fill:#2ca02c;"/>
   </g>
   <g id="patch_49">
    <path clip-path="url(#p2b8a11e210)" d="M 485.470525 389.32 
L 487.82292 389.32 
L 487.82292 388.998094 
L 485.470525 388.998094 
z
" style="fill:#2ca02c;"/>
   </g>
   <g id="patch_50">
    <path clip-path="url(#p2b8a11e210)" d="M 518.404055 389.32 
L 520.75645 389.32 
L 520.75645 388.961146 
L 518.404055 388.961146 
z
" style="fill:#2ca02c;"/>
   </g>
   <g id="patch_51">
    <path clip-path="url(#p2b8a11e210)" d="M 551.337584 389.32 
L 553.689979 389.32 
L 553.689979 388.90879 
L 551.337584 388.90879 
z
" style="fill:#2ca02c;"/>
   </g>
   <g id="patch_52">
    <path clip-path="url(#p2b8a11e210)" d="M 584.271113 389.32 
L 586.623508 389.32 
L 586.623508 388.869826 
L 584.271113 388.869826 
z
" style="fill:#2ca02c;"/>
   </g>
   <g id="patch_53">
    <path clip-path="url(#p2b8a11e210)" d="M 617.204643 389.32 
L 619.557038 389.32 
L 619.557038 388.843079 
L 617.204643 388.843079 
z
" style="fill:#2ca02c;"/>
   </g>
   <g id="patch_54">
    <path clip-path="url(#p2b8a11e210)" d="M 92.620567 389.32 
L 94.972962 389.32 
L 94.972962 389.17253 
L 92.620567 389.17253 
z
" style="fill:#d62728;"/>
   </g>
   <g id="patch_55">
    <path clip-path="url(#p2b8a11e210)" d="M 125.554097 389.32 
L 127.906492 389.32 
L 127.906492 389.131611 
L 125.554097 389.131611 
z
" style="fill:#d62728;"/>
   </g>
   <g id="patch_56">
    <path clip-path="url(#p2b8a11e210)" d="M 158.487626 389.32 
L 160.840021 389.32 
L 160.840021 389.006058 
L 158.487626 389.006058 
z
" style="fill:#d62728;"/>
   </g>
   <g id="patch_57">
    <path clip-path="url(#p2b8a11e210)" d="M 191.421155 389.32 
L 193.77355 389.32 
L 193.77355 388.817709 
L 191.421155 388.817709 
z
" style="fill:#d62728;"/>
   </g>
   <g id="patch_58">
    <path clip-path="url(#p2b8a11e210)" d="M 224.354685 389.32 
L 226.70708 389.32 
L 226.70708 388.701857 
L 224.354685 388.701857 
z
" style="fill:#d62728;"/>
   </g>
   <g id="patch_59">
    <path clip-path="url(#p2b8a11e210)" d="M 257.288214 389.32 
L 259.640609 389.32 
L 259.640609 388.574887 
L 257.288214 388.574887 
z
" style="fill:#d62728;"/>
   </g>
   <g id="patch_60">
    <path clip-path="url(#p2b8a11e210)" d="M 290.221744 389.32 
L 292.574139 389.32 
L 292.574139 388.410091 
L 290.221744 388.410091 
z
" style="fill:#d62728;"/>
   </g>
   <g id="patch_61">
    <path clip-path="url(#p2b8a11e210)" d="M 323.155273 389.32 
L 325.507668 389.32 
L 325.507668 388.341227 
L 323.155273 388.341227 
z
" style="fill:#d62728;"/>
   </g>
   <g id="patch_62">
    <path clip-path="url(#p2b8a11e210)" d="M 356.088803 389.32 
L 358.441197 389.32 
L 358.441197 388.239527 
L 356.088803 388.239527 
z
" style="fill:#d62728;"/>
   </g>
   <g id="patch_63">
    <path clip-path="url(#p2b8a11e210)" d="M 389.022332 389.32 
L 391.374727 389.32 
L 391.374727 388.114094 
L 389.022332 388.114094 
z
" style="fill:#d62728;"/>
   </g>
   <g id="patch_64">
    <path clip-path="url(#p2b8a11e210)" d="M 421.955861 389.32 
L 424.308256 389.32 
L 424.308256 387.990996 
L 421.955861 387.990996 
z
" style="fill:#d62728;"/>
   </g>
   <g id="patch_65">
    <path clip-path="url(#p2b8a11e210)" d="M 454.889391 389.32 
L 457.241786 389.32 
L 457.241786 387.891193 
L 454.889391 387.891193 
z
" style="fill:#d62728;"/>
   </g>
   <g id="patch_66">
    <path clip-path="url(#p2b8a11e210)" d="M 487.82292 389.32 
L 490.175315 389.32 
L 490.175315 387.777197 
L 487.82292 387.777197 
z
" style="fill:#d62728;"/>
   </g>
   <g id="patch_67">
    <path clip-path="url(#p2b8a11e210)" d="M 520.75645 389.32 
L 523.108845 389.32 
L 523.108845 387.697274 
L 520.75645 387.697274 
z
" style="fill:#d62728;"/>
   </g>
   <g id="patch_68">
    <path clip-path="url(#p2b8a11e210)" d="M 553.689979 389.32 
L 556.042374 389.32 
L 556.042374 387.560823 
L 553.689979 387.560823 
z
" style="fill:#d62728;"/>
   </g>
   <g id="patch_69">
    <path clip-path="url(#p2b8a11e210)" d="M 586.623508 389.32 
L 588.975903 389.32 
L 588.975903 387.189235 
L 586.623508 387.189235 
z
" style="fill:#d62728;"/>
   </g>
   <g id="patch_70">
    <path clip-path="url(#p2b8a11e210)" d="M 619.557038 389.32 
L 621.909433 389.32 
L 621.909433 386.738821 
L 619.557038 386.738821 
z
" style="fill:#d62728;"/>
   </g>
   <g id="patch_71">
    <path clip-path="url(#p2b8a11e210)" d="M 94.972962 389.32 
L 97.325357 389.32 
L 97.325357 384.490767 
L 94.972962 384.490767 
z
" style="fill:#9467bd;"/>
   </g>
   <g id="patch_72">
    <path clip-path="url(#p2b8a11e210)" d="M 127.906492 389.32 
L 130.258887 389.32 
L 130.258887 374.494725 
L 127.906492 374.494725 
z
" style="fill:#9467bd;"/>
   </g>
   <g id="patch_73">
    <path clip-path="url(#p2b8a11e210)" d="M 160.840021 389.32 
L 163.192416 389.32 
L 163.192416 368.87912 
L 160.840021 368.87912 
z
" style="fill:#9467bd;"/>
   </g>
   <g id="patch_74">
    <path clip-path="url(#p2b8a11e210)" d="M 193.77355 389.32 
L 196.125945 389.32 
L 196.125945 363.667819 
L 193.77355 363.667819 
z
" style="fill:#9467bd;"/>
   </g>
   <g id="patch_75">
    <path clip-path="url(#p2b8a11e210)" d="M 226.70708 389.32 
L 229.059475 389.32 
L 229.059475 353.348334 
L 226.70708 353.348334 
z
" style="fill:#9467bd;"/>
   </g>
   <g id="patch_76">
    <path clip-path="url(#p2b8a11e210)" d="M 259.640609 389.32 
L 261.993004 389.32 
L 261.993004 342.173952 
L 259.640609 342.173952 
z
" style="fill:#9467bd;"/>
   </g>
   <g id="patch_77">
    <path clip-path="url(#p2b8a11e210)" d="M 292.574139 389.32 
L 294.926534 389.32 
L 294.926534 327.524331 
L 292.574139 327.524331 
z
" style="fill:#9467bd;"/>
   </g>
   <g id="patch_78">
    <path clip-path="url(#p2b8a11e210)" d="M 325.507668 389.32 
L 327.860063 389.32 
L 327.860063 312.888283 
L 325.507668 312.888283 
z
" style="fill:#9467bd;"/>
   </g>
   <g id="patch_79">
    <path clip-path="url(#p2b8a11e210)" d="M 358.441197 389.32 
L 360.793592 389.32 
L 360.793592 296.434395 
L 358.441197 296.434395 
z
" style="fill:#9467bd;"/>
   </g>
   <g id="patch_80">
    <path clip-path="url(#p2b8a11e210)" d="M 391.374727 389.32 
L 393.727122 389.32 
L 393.727122 277.935931 
L 391.374727 277.935931 
z
" style="fill:#9467bd;"/>
   </g>
   <g id="patch_81">
    <path clip-path="url(#p2b8a11e210)" d="M 424.308256 389.32 
L 426.660651 389.32 
L 426.660651 256.381822 
L 424.308256 256.381822 
z
" style="fill:#9467bd;"/>
   </g>
   <g id="patch_82">
    <path clip-path="url(#p2b8a11e210)" d="M 457.241786 389.32 
L 459.594181 389.32 
L 459.594181 234.971211 
L 457.241786 234.971211 
z
" style="fill:#9467bd;"/>
   </g>
   <g id="patch_83">
    <path clip-path="url(#p2b8a11e210)" d="M 490.175315 389.32 
L 492.52771 389.32 
L 492.52771 212.083907 
L 490.175315 212.083907 
z
" style="fill:#9467bd;"/>
   </g>
   <g id="patch_84">
    <path clip-path="url(#p2b8a11e210)" d="M 523.108845 389.32 
L 525.461239 389.32 
L 525.461239 186.449451 
L 523.108845 186.449451 
z
" style="fill:#9467bd;"/>
   </g>
   <g id="patch_85">
    <path clip-path="url(#p2b8a11e210)" d="M 556.042374 389.32 
L 558.394769 389.32 
L 558.394769 158.844255 
L 556.042374 158.844255 
z
" style="fill:#9467bd;"/>
   </g>
   <g id="patch_86">
    <path clip-path="url(#p2b8a11e210)" d="M 588.975903 389.32 
L 591.328298 389.32 
L 591.328298 129.111746 
L 588.975903 129.111746 
z
" style="fill:#9467bd;"/>
   </g>
   <g id="patch_87">
    <path clip-path="url(#p2b8a11e210)" d="M 621.909433 389.32 
L 624.261828 389.32 
L 624.261828 93.34322 
L 621.909433 93.34322 
z
" style="fill:#9467bd;"/>
   </g>
   <g id="patch_88">
    <path clip-path="url(#p2b8a11e210)" d="M 97.325357 389.32 
L 99.677752 389.32 
L 99.677752 386.0484 
L 97.325357 386.0484 
z
" style="fill:#8c564b;"/>
   </g>
   <g id="patch_89">
    <path clip-path="url(#p2b8a11e210)" d="M 130.258887 389.32 
L 132.611282 389.32 
L 132.611282 382.052207 
L 130.258887 382.052207 
z
" style="fill:#8c564b;"/>
   </g>
   <g id="patch_90">
    <path clip-path="url(#p2b8a11e210)" d="M 163.192416 389.32 
L 165.544811 389.32 
L 165.544811 379.685526 
L 163.192416 379.685526 
z
" style="fill:#8c564b;"/>
   </g>
   <g id="patch_91">
    <path clip-path="url(#p2b8a11e210)" d="M 196.125945 389.32 
L 198.47834 389.32 
L 198.47834 376.907914 
L 196.125945 376.907914 
z
" style="fill:#8c564b;"/>
   </g>
   <g id="patch_92">
    <path clip-path="url(#p2b8a11e210)" d="M 229.059475 389.32 
L 231.41187 389.32 
L 231.41187 374.060121 
L 229.059475 374.060121 
z
" style="fill:#8c564b;"/>
   </g>
   <g id="patch_93">
    <path clip-path="url(#p2b8a11e210)" d="M 261.993004 389.32 
L 264.345399 389.32 
L 264.345399 371.746196 
L 261.993004 371.746196 
z
" style="fill:#8c564b;"/>
   </g>
   <g id="patch_94">
    <path clip-path="url(#p2b8a11e210)" d="M 294.926534 389.32 
L 297.278929 389.32 
L 297.278929 369.359275 
L 294.926534 369.359275 
z
" style="fill:#8c564b;"/>
   </g>
   <g id="patch_95">
    <path clip-path="url(#p2b8a11e210)" d="M 327.860063 389.32 
L 330.212458 389.32 
L 330.212458 366.306664 
L 327.860063 366.306664 
z
" style="fill:#8c564b;"/>
   </g>
   <g id="patch_96">
    <path clip-path="url(#p2b8a11e210)" d="M 360.793592 389.32 
L 363.145987 389.32 
L 363.145987 363.381962 
L 360.793592 363.381962 
z
" style="fill:#8c564b;"/>
   </g>
   <g id="patch_97">
    <path clip-path="url(#p2b8a11e210)" d="M 393.727122 389.32 
L 396.079517 389.32 
L 396.079517 361.08658 
L 393.727122 361.08658 
z
" style="fill:#8c564b;"/>
   </g>
   <g id="patch_98">
    <path clip-path="url(#p2b8a11e210)" d="M 426.660651 389.32 
L 429.013046 389.32 
L 429.013046 358.117326 
L 426.660651 358.117326 
z
" style="fill:#8c564b;"/>
   </g>
   <g id="patch_99">
    <path clip-path="url(#p2b8a11e210)" d="M 459.594181 389.32 
L 461.946576 389.32 
L 461.946576 355.649983 
L 459.594181 355.649983 
z
" style="fill:#8c564b;"/>
   </g>
   <g id="patch_100">
    <path clip-path="url(#p2b8a11e210)" d="M 492.52771 389.32 
L 494.880105 389.32 
L 494.880105 352.685359 
L 492.52771 352.685359 
z
" style="fill:#8c564b;"/>
   </g>
   <g id="patch_101">
    <path clip-path="url(#p2b8a11e210)" d="M 525.461239 389.32 
L 527.813634 389.32 
L 527.813634 349.706304 
L 525.461239 349.706304 
z
" style="fill:#8c564b;"/>
   </g>
   <g id="patch_102">
    <path clip-path="url(#p2b8a11e210)" d="M 558.394769 389.32 
L 560.747164 389.32 
L 560.747164 347.150116 
L 558.394769 347.150116 
z
" style="fill:#8c564b;"/>
   </g>
   <g id="patch_103">
    <path clip-path="url(#p2b8a11e210)" d="M 591.328298 389.32 
L 593.680693 389.32 
L 593.680693 344.122316 
L 591.328298 344.122316 
z
" style="fill:#8c564b;"/>
   </g>
   <g id="patch_104">
    <path clip-path="url(#p2b8a11e210)" d="M 624.261828 389.32 
L 626.614223 389.32 
L 626.614223 340.578992 
L 624.261828 340.578992 
z
" style="fill:#8c564b;"/>
   </g>
   <g id="patch_105">
    <path clip-path="url(#p2b8a11e210)" d="M 99.677752 389.32 
L 102.030147 389.32 
L 102.030147 389.28463 
L 99.677752 389.28463 
z
" style="fill:#e377c2;"/>
   </g>
   <g id="patch_106">
    <path clip-path="url(#p2b8a11e210)" d="M 132.611282 389.32 
L 134.963676 389.32 
L 134.963676 389.244389 
L 132.611282 389.244389 
z
" style="fill:#e377c2;"/>
   </g>
   <g id="patch_107">
    <path clip-path="url(#p2b8a11e210)" d="M 165.544811 389.32 
L 167.897206 389.32 
L 167.897206 389.221694 
L 165.544811 389.221694 
z
" style="fill:#e377c2;"/>
   </g>
   <g id="patch_108">
    <path clip-path="url(#p2b8a11e210)" d="M 198.47834 389.32 
L 200.830735 389.32 
L 200.830735 389.120133 
L 198.47834 389.120133 
z
" style="fill:#e377c2;"/>
   </g>
   <g id="patch_109">
    <path clip-path="url(#p2b8a11e210)" d="M 231.41187 389.32 
L 233.764265 389.32 
L 233.764265 389.075402 
L 231.41187 389.075402 
z
" style="fill:#e377c2;"/>
   </g>
   <g id="patch_110">
    <path clip-path="url(#p2b8a11e210)" d="M 264.345399 389.32 
L 266.697794 389.32 
L 266.697794 389.018434 
L 264.345399 389.018434 
z
" style="fill:#e377c2;"/>
   </g>
   <g id="patch_111">
    <path clip-path="url(#p2b8a11e210)" d="M 297.278929 389.32 
L 299.631324 389.32 
L 299.631324 388.973362 
L 297.278929 388.973362 
z
" style="fill:#e377c2;"/>
   </g>
   <g id="patch_112">
    <path clip-path="url(#p2b8a11e210)" d="M 330.212458 389.32 
L 332.564853 389.32 
L 332.564853 388.894957 
L 330.212458 388.894957 
z
" style="fill:#e377c2;"/>
   </g>
   <g id="patch_113">
    <path clip-path="url(#p2b8a11e210)" d="M 363.145987 389.32 
L 365.498382 389.32 
L 365.498382 388.822939 
L 363.145987 388.822939 
z
" style="fill:#e377c2;"/>
   </g>
   <g id="patch_114">
    <path clip-path="url(#p2b8a11e210)" d="M 396.079517 389.32 
L 398.431912 389.32 
L 398.431912 388.790043 
L 396.079517 388.790043 
z
" style="fill:#e377c2;"/>
   </g>
   <g id="patch_115">
    <path clip-path="url(#p2b8a11e210)" d="M 429.013046 389.32 
L 431.365441 389.32 
L 431.365441 388.743195 
L 429.013046 388.743195 
z
" style="fill:#e377c2;"/>
   </g>
   <g id="patch_116">
    <path clip-path="url(#p2b8a11e210)" d="M 461.946576 389.32 
L 464.298971 389.32 
L 464.298971 388.623471 
L 461.946576 388.623471 
z
" style="fill:#e377c2;"/>
   </g>
   <g id="patch_117">
    <path clip-path="url(#p2b8a11e210)" d="M 494.880105 389.32 
L 497.2325 389.32 
L 497.2325 388.531672 
L 494.880105 388.531672 
z
" style="fill:#e377c2;"/>
   </g>
   <g id="patch_118">
    <path clip-path="url(#p2b8a11e210)" d="M 527.813634 389.32 
L 530.166029 389.32 
L 530.166029 388.521811 
L 527.813634 388.521811 
z
" style="fill:#e377c2;"/>
   </g>
   <g id="patch_119">
    <path clip-path="url(#p2b8a11e210)" d="M 560.747164 389.32 
L 563.099559 389.32 
L 563.099559 388.444364 
L 560.747164 388.444364 
z
" style="fill:#e377c2;"/>
   </g>
   <g id="patch_120">
    <path clip-path="url(#p2b8a11e210)" d="M 593.680693 389.32 
L 596.033088 389.32 
L 596.033088 164.933148 
L 593.680693 164.933148 
z
" style="fill:#e377c2;"/>
   </g>
   <g id="patch_121">
    <path clip-path="url(#p2b8a11e210)" d="M 626.614223 389.32 
L 628.966618 389.32 
L 628.966618 263.332659 
L 626.614223 263.332659 
z
" style="fill:#e377c2;"/>
   </g>
   <g id="matplotlib.axis_1">
    <g id="xtick_1">
     <g id="line2d_1">
      <defs>
       <path d="M 0 0 
L 0 3.5 
" id="mfc518bbc66" style="stroke:#000000;stroke-width:0.8;"/>
      </defs>
      <g>
       <use style="stroke:#000000;stroke-width:0.8;" x="93.796765" xlink:href="#mfc518bbc66" y="389.32"/>
      </g>
     </g>
     <g id="text_1">
      <!-- 2 -->
      <defs>
       <path d="M 19.1875 8.296875 
L 53.609375 8.296875 
L 53.609375 0 
L 7.328125 0 
L 7.328125 8.296875 
Q 12.9375 14.109375 22.625 23.890625 
Q 32.328125 33.6875 34.8125 36.53125 
Q 39.546875 41.84375 41.421875 45.53125 
Q 43.3125 49.21875 43.3125 52.78125 
Q 43.3125 58.59375 39.234375 62.25 
Q 35.15625 65.921875 28.609375 65.921875 
Q 23.96875 65.921875 18.8125 64.3125 
Q 13.671875 62.703125 7.8125 59.421875 
L 7.8125 69.390625 
Q 13.765625 71.78125 18.9375 73 
Q 24.125 74.21875 28.421875 74.21875 
Q 39.75 74.21875 46.484375 68.546875 
Q 53.21875 62.890625 53.21875 53.421875 
Q 53.21875 48.921875 51.53125 44.890625 
Q 49.859375 40.875 45.40625 35.40625 
Q 44.1875 33.984375 37.640625 27.21875 
Q 31.109375 20.453125 19.1875 8.296875 
z
" id="DejaVuSans-50"/>
      </defs>
      <g transform="translate(90.615515 403.918437)scale(0.1 -0.1)">
       <use xlink:href="#DejaVuSans-50"/>
      </g>
     </g>
    </g>
    <g id="xtick_2">
     <g id="line2d_2">
      <g>
       <use style="stroke:#000000;stroke-width:0.8;" x="126.730294" xlink:href="#mfc518bbc66" y="389.32"/>
      </g>
     </g>
     <g id="text_2">
      <!-- 3 -->
      <defs>
       <path d="M 40.578125 39.3125 
Q 47.65625 37.796875 51.625 33 
Q 55.609375 28.21875 55.609375 21.1875 
Q 55.609375 10.40625 48.1875 4.484375 
Q 40.765625 -1.421875 27.09375 -1.421875 
Q 22.515625 -1.421875 17.65625 -0.515625 
Q 12.796875 0.390625 7.625 2.203125 
L 7.625 11.71875 
Q 11.71875 9.328125 16.59375 8.109375 
Q 21.484375 6.890625 26.8125 6.890625 
Q 36.078125 6.890625 40.9375 10.546875 
Q 45.796875 14.203125 45.796875 21.1875 
Q 45.796875 27.640625 41.28125 31.265625 
Q 36.765625 34.90625 28.71875 34.90625 
L 20.21875 34.90625 
L 20.21875 43.015625 
L 29.109375 43.015625 
Q 36.375 43.015625 40.234375 45.921875 
Q 44.09375 48.828125 44.09375 54.296875 
Q 44.09375 59.90625 40.109375 62.90625 
Q 36.140625 65.921875 28.71875 65.921875 
Q 24.65625 65.921875 20.015625 65.03125 
Q 15.375 64.15625 9.8125 62.3125 
L 9.8125 71.09375 
Q 15.4375 72.65625 20.34375 73.4375 
Q 25.25 74.21875 29.59375 74.21875 
Q 40.828125 74.21875 47.359375 69.109375 
Q 53.90625 64.015625 53.90625 55.328125 
Q 53.90625 49.265625 50.4375 45.09375 
Q 46.96875 40.921875 40.578125 39.3125 
z
" id="DejaVuSans-51"/>
      </defs>
      <g transform="translate(123.549044 403.918437)scale(0.1 -0.1)">
       <use xlink:href="#DejaVuSans-51"/>
      </g>
     </g>
    </g>
    <g id="xtick_3">
     <g id="line2d_3">
      <g>
       <use style="stroke:#000000;stroke-width:0.8;" x="159.663824" xlink:href="#mfc518bbc66" y="389.32"/>
      </g>
     </g>
     <g id="text_3">
      <!-- 4 -->
      <defs>
       <path d="M 37.796875 64.3125 
L 12.890625 25.390625 
L 37.796875 25.390625 
z
M 35.203125 72.90625 
L 47.609375 72.90625 
L 47.609375 25.390625 
L 58.015625 25.390625 
L 58.015625 17.1875 
L 47.609375 17.1875 
L 47.609375 0 
L 37.796875 0 
L 37.796875 17.1875 
L 4.890625 17.1875 
L 4.890625 26.703125 
z
" id="DejaVuSans-52"/>
      </defs>
      <g transform="translate(156.482574 403.918437)scale(0.1 -0.1)">
       <use xlink:href="#DejaVuSans-52"/>
      </g>
     </g>
    </g>
    <g id="xtick_4">
     <g id="line2d_4">
      <g>
       <use style="stroke:#000000;stroke-width:0.8;" x="192.597353" xlink:href="#mfc518bbc66" y="389.32"/>
      </g>
     </g>
     <g id="text_4">
      <!-- 5 -->
      <defs>
       <path d="M 10.796875 72.90625 
L 49.515625 72.90625 
L 49.515625 64.59375 
L 19.828125 64.59375 
L 19.828125 46.734375 
Q 21.96875 47.46875 24.109375 47.828125 
Q 26.265625 48.1875 28.421875 48.1875 
Q 40.625 48.1875 47.75 41.5 
Q 54.890625 34.8125 54.890625 23.390625 
Q 54.890625 11.625 47.5625 5.09375 
Q 40.234375 -1.421875 26.90625 -1.421875 
Q 22.3125 -1.421875 17.546875 -0.640625 
Q 12.796875 0.140625 7.71875 1.703125 
L 7.71875 11.625 
Q 12.109375 9.234375 16.796875 8.0625 
Q 21.484375 6.890625 26.703125 6.890625 
Q 35.15625 6.890625 40.078125 11.328125 
Q 45.015625 15.765625 45.015625 23.390625 
Q 45.015625 31 40.078125 35.4375 
Q 35.15625 39.890625 26.703125 39.890625 
Q 22.75 39.890625 18.8125 39.015625 
Q 14.890625 38.140625 10.796875 36.28125 
z
" id="DejaVuSans-53"/>
      </defs>
      <g transform="translate(189.416103 403.918437)scale(0.1 -0.1)">
       <use xlink:href="#DejaVuSans-53"/>
      </g>
     </g>
    </g>
    <g id="xtick_5">
     <g id="line2d_5">
      <g>
       <use style="stroke:#000000;stroke-width:0.8;" x="225.530882" xlink:href="#mfc518bbc66" y="389.32"/>
      </g>
     </g>
     <g id="text_5">
      <!-- 6 -->
      <defs>
       <path d="M 33.015625 40.375 
Q 26.375 40.375 22.484375 35.828125 
Q 18.609375 31.296875 18.609375 23.390625 
Q 18.609375 15.53125 22.484375 10.953125 
Q 26.375 6.390625 33.015625 6.390625 
Q 39.65625 6.390625 43.53125 10.953125 
Q 47.40625 15.53125 47.40625 23.390625 
Q 47.40625 31.296875 43.53125 35.828125 
Q 39.65625 40.375 33.015625 40.375 
z
M 52.59375 71.296875 
L 52.59375 62.3125 
Q 48.875 64.0625 45.09375 64.984375 
Q 41.3125 65.921875 37.59375 65.921875 
Q 27.828125 65.921875 22.671875 59.328125 
Q 17.53125 52.734375 16.796875 39.40625 
Q 19.671875 43.65625 24.015625 45.921875 
Q 28.375 48.1875 33.59375 48.1875 
Q 44.578125 48.1875 50.953125 41.515625 
Q 57.328125 34.859375 57.328125 23.390625 
Q 57.328125 12.15625 50.6875 5.359375 
Q 44.046875 -1.421875 33.015625 -1.421875 
Q 20.359375 -1.421875 13.671875 8.265625 
Q 6.984375 17.96875 6.984375 36.375 
Q 6.984375 53.65625 15.1875 63.9375 
Q 23.390625 74.21875 37.203125 74.21875 
Q 40.921875 74.21875 44.703125 73.484375 
Q 48.484375 72.75 52.59375 71.296875 
z
" id="DejaVuSans-54"/>
      </defs>
      <g transform="translate(222.349632 403.918437)scale(0.1 -0.1)">
       <use xlink:href="#DejaVuSans-54"/>
      </g>
     </g>
    </g>
    <g id="xtick_6">
     <g id="line2d_6">
      <g>
       <use style="stroke:#000000;stroke-width:0.8;" x="258.464412" xlink:href="#mfc518bbc66" y="389.32"/>
      </g>
     </g>
     <g id="text_6">
      <!-- 7 -->
      <defs>
       <path d="M 8.203125 72.90625 
L 55.078125 72.90625 
L 55.078125 68.703125 
L 28.609375 0 
L 18.3125 0 
L 43.21875 64.59375 
L 8.203125 64.59375 
z
" id="DejaVuSans-55"/>
      </defs>
      <g transform="translate(255.283162 403.918437)scale(0.1 -0.1)">
       <use xlink:href="#DejaVuSans-55"/>
      </g>
     </g>
    </g>
    <g id="xtick_7">
     <g id="line2d_7">
      <g>
       <use style="stroke:#000000;stroke-width:0.8;" x="291.397941" xlink:href="#mfc518bbc66" y="389.32"/>
      </g>
     </g>
     <g id="text_7">
      <!-- 8 -->
      <defs>
       <path d="M 31.78125 34.625 
Q 24.75 34.625 20.71875 30.859375 
Q 16.703125 27.09375 16.703125 20.515625 
Q 16.703125 13.921875 20.71875 10.15625 
Q 24.75 6.390625 31.78125 6.390625 
Q 38.8125 6.390625 42.859375 10.171875 
Q 46.921875 13.96875 46.921875 20.515625 
Q 46.921875 27.09375 42.890625 30.859375 
Q 38.875 34.625 31.78125 34.625 
z
M 21.921875 38.8125 
Q 15.578125 40.375 12.03125 44.71875 
Q 8.5 49.078125 8.5 55.328125 
Q 8.5 64.0625 14.71875 69.140625 
Q 20.953125 74.21875 31.78125 74.21875 
Q 42.671875 74.21875 48.875 69.140625 
Q 55.078125 64.0625 55.078125 55.328125 
Q 55.078125 49.078125 51.53125 44.71875 
Q 48 40.375 41.703125 38.8125 
Q 48.828125 37.15625 52.796875 32.3125 
Q 56.78125 27.484375 56.78125 20.515625 
Q 56.78125 9.90625 50.3125 4.234375 
Q 43.84375 -1.421875 31.78125 -1.421875 
Q 19.734375 -1.421875 13.25 4.234375 
Q 6.78125 9.90625 6.78125 20.515625 
Q 6.78125 27.484375 10.78125 32.3125 
Q 14.796875 37.15625 21.921875 38.8125 
z
M 18.3125 54.390625 
Q 18.3125 48.734375 21.84375 45.5625 
Q 25.390625 42.390625 31.78125 42.390625 
Q 38.140625 42.390625 41.71875 45.5625 
Q 45.3125 48.734375 45.3125 54.390625 
Q 45.3125 60.0625 41.71875 63.234375 
Q 38.140625 66.40625 31.78125 66.40625 
Q 25.390625 66.40625 21.84375 63.234375 
Q 18.3125 60.0625 18.3125 54.390625 
z
" id="DejaVuSans-56"/>
      </defs>
      <g transform="translate(288.216691 403.918437)scale(0.1 -0.1)">
       <use xlink:href="#DejaVuSans-56"/>
      </g>
     </g>
    </g>
    <g id="xtick_8">
     <g id="line2d_8">
      <g>
       <use style="stroke:#000000;stroke-width:0.8;" x="324.331471" xlink:href="#mfc518bbc66" y="389.32"/>
      </g>
     </g>
     <g id="text_8">
      <!-- 9 -->
      <defs>
       <path d="M 10.984375 1.515625 
L 10.984375 10.5 
Q 14.703125 8.734375 18.5 7.8125 
Q 22.3125 6.890625 25.984375 6.890625 
Q 35.75 6.890625 40.890625 13.453125 
Q 46.046875 20.015625 46.78125 33.40625 
Q 43.953125 29.203125 39.59375 26.953125 
Q 35.25 24.703125 29.984375 24.703125 
Q 19.046875 24.703125 12.671875 31.3125 
Q 6.296875 37.9375 6.296875 49.421875 
Q 6.296875 60.640625 12.9375 67.421875 
Q 19.578125 74.21875 30.609375 74.21875 
Q 43.265625 74.21875 49.921875 64.515625 
Q 56.59375 54.828125 56.59375 36.375 
Q 56.59375 19.140625 48.40625 8.859375 
Q 40.234375 -1.421875 26.421875 -1.421875 
Q 22.703125 -1.421875 18.890625 -0.6875 
Q 15.09375 0.046875 10.984375 1.515625 
z
M 30.609375 32.421875 
Q 37.25 32.421875 41.125 36.953125 
Q 45.015625 41.5 45.015625 49.421875 
Q 45.015625 57.28125 41.125 61.84375 
Q 37.25 66.40625 30.609375 66.40625 
Q 23.96875 66.40625 20.09375 61.84375 
Q 16.21875 57.28125 16.21875 49.421875 
Q 16.21875 41.5 20.09375 36.953125 
Q 23.96875 32.421875 30.609375 32.421875 
z
" id="DejaVuSans-57"/>
      </defs>
      <g transform="translate(321.150221 403.918437)scale(0.1 -0.1)">
       <use xlink:href="#DejaVuSans-57"/>
      </g>
     </g>
    </g>
    <g id="xtick_9">
     <g id="line2d_9">
      <g>
       <use style="stroke:#000000;stroke-width:0.8;" x="357.265" xlink:href="#mfc518bbc66" y="389.32"/>
      </g>
     </g>
     <g id="text_9">
      <!-- 10 -->
      <defs>
       <path d="M 12.40625 8.296875 
L 28.515625 8.296875 
L 28.515625 63.921875 
L 10.984375 60.40625 
L 10.984375 69.390625 
L 28.421875 72.90625 
L 38.28125 72.90625 
L 38.28125 8.296875 
L 54.390625 8.296875 
L 54.390625 0 
L 12.40625 0 
z
" id="DejaVuSans-49"/>
       <path d="M 31.78125 66.40625 
Q 24.171875 66.40625 20.328125 58.90625 
Q 16.5 51.421875 16.5 36.375 
Q 16.5 21.390625 20.328125 13.890625 
Q 24.171875 6.390625 31.78125 6.390625 
Q 39.453125 6.390625 43.28125 13.890625 
Q 47.125 21.390625 47.125 36.375 
Q 47.125 51.421875 43.28125 58.90625 
Q 39.453125 66.40625 31.78125 66.40625 
z
M 31.78125 74.21875 
Q 44.046875 74.21875 50.515625 64.515625 
Q 56.984375 54.828125 56.984375 36.375 
Q 56.984375 17.96875 50.515625 8.265625 
Q 44.046875 -1.421875 31.78125 -1.421875 
Q 19.53125 -1.421875 13.0625 8.265625 
Q 6.59375 17.96875 6.59375 36.375 
Q 6.59375 54.828125 13.0625 64.515625 
Q 19.53125 74.21875 31.78125 74.21875 
z
" id="DejaVuSans-48"/>
      </defs>
      <g transform="translate(350.9025 403.918437)scale(0.1 -0.1)">
       <use xlink:href="#DejaVuSans-49"/>
       <use x="63.623047" xlink:href="#DejaVuSans-48"/>
      </g>
     </g>
    </g>
    <g id="xtick_10">
     <g id="line2d_10">
      <g>
       <use style="stroke:#000000;stroke-width:0.8;" x="390.198529" xlink:href="#mfc518bbc66" y="389.32"/>
      </g>
     </g>
     <g id="text_10">
      <!-- 11 -->
      <g transform="translate(383.836029 403.918437)scale(0.1 -0.1)">
       <use xlink:href="#DejaVuSans-49"/>
       <use x="63.623047" xlink:href="#DejaVuSans-49"/>
      </g>
     </g>
    </g>
    <g id="xtick_11">
     <g id="line2d_11">
      <g>
       <use style="stroke:#000000;stroke-width:0.8;" x="423.132059" xlink:href="#mfc518bbc66" y="389.32"/>
      </g>
     </g>
     <g id="text_11">
      <!-- 12 -->
      <g transform="translate(416.769559 403.918437)scale(0.1 -0.1)">
       <use xlink:href="#DejaVuSans-49"/>
       <use x="63.623047" xlink:href="#DejaVuSans-50"/>
      </g>
     </g>
    </g>
    <g id="xtick_12">
     <g id="line2d_12">
      <g>
       <use style="stroke:#000000;stroke-width:0.8;" x="456.065588" xlink:href="#mfc518bbc66" y="389.32"/>
      </g>
     </g>
     <g id="text_12">
      <!-- 13 -->
      <g transform="translate(449.703088 403.918437)scale(0.1 -0.1)">
       <use xlink:href="#DejaVuSans-49"/>
       <use x="63.623047" xlink:href="#DejaVuSans-51"/>
      </g>
     </g>
    </g>
    <g id="xtick_13">
     <g id="line2d_13">
      <g>
       <use style="stroke:#000000;stroke-width:0.8;" x="488.999118" xlink:href="#mfc518bbc66" y="389.32"/>
      </g>
     </g>
     <g id="text_13">
      <!-- 14 -->
      <g transform="translate(482.636618 403.918437)scale(0.1 -0.1)">
       <use xlink:href="#DejaVuSans-49"/>
       <use x="63.623047" xlink:href="#DejaVuSans-52"/>
      </g>
     </g>
    </g>
    <g id="xtick_14">
     <g id="line2d_14">
      <g>
       <use style="stroke:#000000;stroke-width:0.8;" x="521.932647" xlink:href="#mfc518bbc66" y="389.32"/>
      </g>
     </g>
     <g id="text_14">
      <!-- 15 -->
      <g transform="translate(515.570147 403.918437)scale(0.1 -0.1)">
       <use xlink:href="#DejaVuSans-49"/>
       <use x="63.623047" xlink:href="#DejaVuSans-53"/>
      </g>
     </g>
    </g>
    <g id="xtick_15">
     <g id="line2d_15">
      <g>
       <use style="stroke:#000000;stroke-width:0.8;" x="554.866176" xlink:href="#mfc518bbc66" y="389.32"/>
      </g>
     </g>
     <g id="text_15">
      <!-- 16 -->
      <g transform="translate(548.503676 403.918437)scale(0.1 -0.1)">
       <use xlink:href="#DejaVuSans-49"/>
       <use x="63.623047" xlink:href="#DejaVuSans-54"/>
      </g>
     </g>
    </g>
    <g id="xtick_16">
     <g id="line2d_16">
      <g>
       <use style="stroke:#000000;stroke-width:0.8;" x="587.799706" xlink:href="#mfc518bbc66" y="389.32"/>
      </g>
     </g>
     <g id="text_16">
      <!-- 17 -->
      <g transform="translate(581.437206 403.918437)scale(0.1 -0.1)">
       <use xlink:href="#DejaVuSans-49"/>
       <use x="63.623047" xlink:href="#DejaVuSans-55"/>
      </g>
     </g>
    </g>
    <g id="xtick_17">
     <g id="line2d_17">
      <g>
       <use style="stroke:#000000;stroke-width:0.8;" x="620.733235" xlink:href="#mfc518bbc66" y="389.32"/>
      </g>
     </g>
     <g id="text_17">
      <!-- 18 -->
      <g transform="translate(614.370735 403.918437)scale(0.1 -0.1)">
       <use xlink:href="#DejaVuSans-49"/>
       <use x="63.623047" xlink:href="#DejaVuSans-56"/>
      </g>
     </g>
    </g>
    <g id="text_18">
     <!-- Active Cores -->
     <defs>
      <path d="M 34.1875 63.1875 
L 20.796875 26.90625 
L 47.609375 26.90625 
z
M 28.609375 72.90625 
L 39.796875 72.90625 
L 67.578125 0 
L 57.328125 0 
L 50.6875 18.703125 
L 17.828125 18.703125 
L 11.1875 0 
L 0.78125 0 
z
" id="DejaVuSans-65"/>
      <path d="M 48.78125 52.59375 
L 48.78125 44.1875 
Q 44.96875 46.296875 41.140625 47.34375 
Q 37.3125 48.390625 33.40625 48.390625 
Q 24.65625 48.390625 19.8125 42.84375 
Q 14.984375 37.3125 14.984375 27.296875 
Q 14.984375 17.28125 19.8125 11.734375 
Q 24.65625 6.203125 33.40625 6.203125 
Q 37.3125 6.203125 41.140625 7.25 
Q 44.96875 8.296875 48.78125 10.40625 
L 48.78125 2.09375 
Q 45.015625 0.34375 40.984375 -0.53125 
Q 36.96875 -1.421875 32.421875 -1.421875 
Q 20.0625 -1.421875 12.78125 6.34375 
Q 5.515625 14.109375 5.515625 27.296875 
Q 5.515625 40.671875 12.859375 48.328125 
Q 20.21875 56 33.015625 56 
Q 37.15625 56 41.109375 55.140625 
Q 45.0625 54.296875 48.78125 52.59375 
z
" id="DejaVuSans-99"/>
      <path d="M 18.3125 70.21875 
L 18.3125 54.6875 
L 36.8125 54.6875 
L 36.8125 47.703125 
L 18.3125 47.703125 
L 18.3125 18.015625 
Q 18.3125 11.328125 20.140625 9.421875 
Q 21.96875 7.515625 27.59375 7.515625 
L 36.8125 7.515625 
L 36.8125 0 
L 27.59375 0 
Q 17.1875 0 13.234375 3.875 
Q 9.28125 7.765625 9.28125 18.015625 
L 9.28125 47.703125 
L 2.6875 47.703125 
L 2.6875 54.6875 
L 9.28125 54.6875 
L 9.28125 70.21875 
z
" id="DejaVuSans-116"/>
      <path d="M 9.421875 54.6875 
L 18.40625 54.6875 
L 18.40625 0 
L 9.421875 0 
z
M 9.421875 75.984375 
L 18.40625 75.984375 
L 18.40625 64.59375 
L 9.421875 64.59375 
z
" id="DejaVuSans-105"/>
      <path d="M 2.984375 54.6875 
L 12.5 54.6875 
L 29.59375 8.796875 
L 46.6875 54.6875 
L 56.203125 54.6875 
L 35.6875 0 
L 23.484375 0 
z
" id="DejaVuSans-118"/>
      <path d="M 56.203125 29.59375 
L 56.203125 25.203125 
L 14.890625 25.203125 
Q 15.484375 15.921875 20.484375 11.0625 
Q 25.484375 6.203125 34.421875 6.203125 
Q 39.59375 6.203125 44.453125 7.46875 
Q 49.3125 8.734375 54.109375 11.28125 
L 54.109375 2.78125 
Q 49.265625 0.734375 44.1875 -0.34375 
Q 39.109375 -1.421875 33.890625 -1.421875 
Q 20.796875 -1.421875 13.15625 6.1875 
Q 5.515625 13.8125 5.515625 26.8125 
Q 5.515625 40.234375 12.765625 48.109375 
Q 20.015625 56 32.328125 56 
Q 43.359375 56 49.78125 48.890625 
Q 56.203125 41.796875 56.203125 29.59375 
z
M 47.21875 32.234375 
Q 47.125 39.59375 43.09375 43.984375 
Q 39.0625 48.390625 32.421875 48.390625 
Q 24.90625 48.390625 20.390625 44.140625 
Q 15.875 39.890625 15.1875 32.171875 
z
" id="DejaVuSans-101"/>
      <path id="DejaVuSans-32"/>
      <path d="M 64.40625 67.28125 
L 64.40625 56.890625 
Q 59.421875 61.53125 53.78125 63.8125 
Q 48.140625 66.109375 41.796875 66.109375 
Q 29.296875 66.109375 22.65625 58.46875 
Q 16.015625 50.828125 16.015625 36.375 
Q 16.015625 21.96875 22.65625 14.328125 
Q 29.296875 6.6875 41.796875 6.6875 
Q 48.140625 6.6875 53.78125 8.984375 
Q 59.421875 11.28125 64.40625 15.921875 
L 64.40625 5.609375 
Q 59.234375 2.09375 53.4375 0.328125 
Q 47.65625 -1.421875 41.21875 -1.421875 
Q 24.65625 -1.421875 15.125 8.703125 
Q 5.609375 18.84375 5.609375 36.375 
Q 5.609375 53.953125 15.125 64.078125 
Q 24.65625 74.21875 41.21875 74.21875 
Q 47.75 74.21875 53.53125 72.484375 
Q 59.328125 70.75 64.40625 67.28125 
z
" id="DejaVuSans-67"/>
      <path d="M 30.609375 48.390625 
Q 23.390625 48.390625 19.1875 42.75 
Q 14.984375 37.109375 14.984375 27.296875 
Q 14.984375 17.484375 19.15625 11.84375 
Q 23.34375 6.203125 30.609375 6.203125 
Q 37.796875 6.203125 41.984375 11.859375 
Q 46.1875 17.53125 46.1875 27.296875 
Q 46.1875 37.015625 41.984375 42.703125 
Q 37.796875 48.390625 30.609375 48.390625 
z
M 30.609375 56 
Q 42.328125 56 49.015625 48.375 
Q 55.71875 40.765625 55.71875 27.296875 
Q 55.71875 13.875 49.015625 6.21875 
Q 42.328125 -1.421875 30.609375 -1.421875 
Q 18.84375 -1.421875 12.171875 6.21875 
Q 5.515625 13.875 5.515625 27.296875 
Q 5.515625 40.765625 12.171875 48.375 
Q 18.84375 56 30.609375 56 
z
" id="DejaVuSans-111"/>
      <path d="M 41.109375 46.296875 
Q 39.59375 47.171875 37.8125 47.578125 
Q 36.03125 48 33.890625 48 
Q 26.265625 48 22.1875 43.046875 
Q 18.109375 38.09375 18.109375 28.8125 
L 18.109375 0 
L 9.078125 0 
L 9.078125 54.6875 
L 18.109375 54.6875 
L 18.109375 46.1875 
Q 20.953125 51.171875 25.484375 53.578125 
Q 30.03125 56 36.53125 56 
Q 37.453125 56 38.578125 55.875 
Q 39.703125 55.765625 41.0625 55.515625 
z
" id="DejaVuSans-114"/>
      <path d="M 44.28125 53.078125 
L 44.28125 44.578125 
Q 40.484375 46.53125 36.375 47.5 
Q 32.28125 48.484375 27.875 48.484375 
Q 21.1875 48.484375 17.84375 46.4375 
Q 14.5 44.390625 14.5 40.28125 
Q 14.5 37.15625 16.890625 35.375 
Q 19.28125 33.59375 26.515625 31.984375 
L 29.59375 31.296875 
Q 39.15625 29.25 43.1875 25.515625 
Q 47.21875 21.78125 47.21875 15.09375 
Q 47.21875 7.46875 41.1875 3.015625 
Q 35.15625 -1.421875 24.609375 -1.421875 
Q 20.21875 -1.421875 15.453125 -0.5625 
Q 10.6875 0.296875 5.421875 2 
L 5.421875 11.28125 
Q 10.40625 8.6875 15.234375 7.390625 
Q 20.0625 6.109375 24.8125 6.109375 
Q 31.15625 6.109375 34.5625 8.28125 
Q 37.984375 10.453125 37.984375 14.40625 
Q 37.984375 18.0625 35.515625 20.015625 
Q 33.0625 21.96875 24.703125 23.78125 
L 21.578125 24.515625 
Q 13.234375 26.265625 9.515625 29.90625 
Q 5.8125 33.546875 5.8125 39.890625 
Q 5.8125 47.609375 11.28125 51.796875 
Q 16.75 56 26.8125 56 
Q 31.78125 56 36.171875 55.265625 
Q 40.578125 54.546875 44.28125 53.078125 
z
" id="DejaVuSans-115"/>
     </defs>
     <g transform="translate(319.550312 419.11625)scale(0.12 -0.12)">
      <use xlink:href="#DejaVuSans-65"/>
      <use x="68.392578" xlink:href="#DejaVuSans-99"/>
      <use x="123.373047" xlink:href="#DejaVuSans-116"/>
      <use x="162.582031" xlink:href="#DejaVuSans-105"/>
      <use x="190.365234" xlink:href="#DejaVuSans-118"/>
      <use x="249.544922" xlink:href="#DejaVuSans-101"/>
      <use x="311.068359" xlink:href="#DejaVuSans-32"/>
      <use x="342.855469" xlink:href="#DejaVuSans-67"/>
      <use x="412.679688" xlink:href="#DejaVuSans-111"/>
      <use x="473.861328" xlink:href="#DejaVuSans-114"/>
      <use x="514.943359" xlink:href="#DejaVuSans-101"/>
      <use x="576.466797" xlink:href="#DejaVuSans-115"/>
     </g>
    </g>
   </g>
   <g id="matplotlib.axis_2">
    <g id="ytick_1">
     <g id="line2d_18">
      <defs>
       <path d="M 0 0 
L -3.5 0 
" id="m3a24eacd0e" style="stroke:#000000;stroke-width:0.8;"/>
      </defs>
      <g>
       <use style="stroke:#000000;stroke-width:0.8;" x="77.33" xlink:href="#m3a24eacd0e" y="389.32"/>
      </g>
     </g>
     <g id="text_19">
      <!-- 0 -->
      <g transform="translate(63.9675 393.119219)scale(0.1 -0.1)">
       <use xlink:href="#DejaVuSans-48"/>
      </g>
     </g>
    </g>
    <g id="ytick_2">
     <g id="line2d_19">
      <g>
       <use style="stroke:#000000;stroke-width:0.8;" x="77.33" xlink:href="#m3a24eacd0e" y="339.418237"/>
      </g>
     </g>
     <g id="text_20">
      <!-- 250000 -->
      <g transform="translate(32.155 343.217455)scale(0.1 -0.1)">
       <use xlink:href="#DejaVuSans-50"/>
       <use x="63.623047" xlink:href="#DejaVuSans-53"/>
       <use x="127.246094" xlink:href="#DejaVuSans-48"/>
       <use x="190.869141" xlink:href="#DejaVuSans-48"/>
       <use x="254.492188" xlink:href="#DejaVuSans-48"/>
       <use x="318.115234" xlink:href="#DejaVuSans-48"/>
      </g>
     </g>
    </g>
    <g id="ytick_3">
     <g id="line2d_20">
      <g>
       <use style="stroke:#000000;stroke-width:0.8;" x="77.33" xlink:href="#m3a24eacd0e" y="289.516473"/>
      </g>
     </g>
     <g id="text_21">
      <!-- 500000 -->
      <g transform="translate(32.155 293.315692)scale(0.1 -0.1)">
       <use xlink:href="#DejaVuSans-53"/>
       <use x="63.623047" xlink:href="#DejaVuSans-48"/>
       <use x="127.246094" xlink:href="#DejaVuSans-48"/>
       <use x="190.869141" xlink:href="#DejaVuSans-48"/>
       <use x="254.492188" xlink:href="#DejaVuSans-48"/>
       <use x="318.115234" xlink:href="#DejaVuSans-48"/>
      </g>
     </g>
    </g>
    <g id="ytick_4">
     <g id="line2d_21">
      <g>
       <use style="stroke:#000000;stroke-width:0.8;" x="77.33" xlink:href="#m3a24eacd0e" y="239.61471"/>
      </g>
     </g>
     <g id="text_22">
      <!-- 750000 -->
      <g transform="translate(32.155 243.413929)scale(0.1 -0.1)">
       <use xlink:href="#DejaVuSans-55"/>
       <use x="63.623047" xlink:href="#DejaVuSans-53"/>
       <use x="127.246094" xlink:href="#DejaVuSans-48"/>
       <use x="190.869141" xlink:href="#DejaVuSans-48"/>
       <use x="254.492188" xlink:href="#DejaVuSans-48"/>
       <use x="318.115234" xlink:href="#DejaVuSans-48"/>
      </g>
     </g>
    </g>
    <g id="ytick_5">
     <g id="line2d_22">
      <g>
       <use style="stroke:#000000;stroke-width:0.8;" x="77.33" xlink:href="#m3a24eacd0e" y="189.712946"/>
      </g>
     </g>
     <g id="text_23">
      <!-- 1000000 -->
      <g transform="translate(25.7925 193.512165)scale(0.1 -0.1)">
       <use xlink:href="#DejaVuSans-49"/>
       <use x="63.623047" xlink:href="#DejaVuSans-48"/>
       <use x="127.246094" xlink:href="#DejaVuSans-48"/>
       <use x="190.869141" xlink:href="#DejaVuSans-48"/>
       <use x="254.492188" xlink:href="#DejaVuSans-48"/>
       <use x="318.115234" xlink:href="#DejaVuSans-48"/>
       <use x="381.738281" xlink:href="#DejaVuSans-48"/>
      </g>
     </g>
    </g>
    <g id="ytick_6">
     <g id="line2d_23">
      <g>
       <use style="stroke:#000000;stroke-width:0.8;" x="77.33" xlink:href="#m3a24eacd0e" y="139.811183"/>
      </g>
     </g>
     <g id="text_24">
      <!-- 1250000 -->
      <g transform="translate(25.7925 143.610402)scale(0.1 -0.1)">
       <use xlink:href="#DejaVuSans-49"/>
       <use x="63.623047" xlink:href="#DejaVuSans-50"/>
       <use x="127.246094" xlink:href="#DejaVuSans-53"/>
       <use x="190.869141" xlink:href="#DejaVuSans-48"/>
       <use x="254.492188" xlink:href="#DejaVuSans-48"/>
       <use x="318.115234" xlink:href="#DejaVuSans-48"/>
       <use x="381.738281" xlink:href="#DejaVuSans-48"/>
      </g>
     </g>
    </g>
    <g id="ytick_7">
     <g id="line2d_24">
      <g>
       <use style="stroke:#000000;stroke-width:0.8;" x="77.33" xlink:href="#m3a24eacd0e" y="89.90942"/>
      </g>
     </g>
     <g id="text_25">
      <!-- 1500000 -->
      <g transform="translate(25.7925 93.708638)scale(0.1 -0.1)">
       <use xlink:href="#DejaVuSans-49"/>
       <use x="63.623047" xlink:href="#DejaVuSans-53"/>
       <use x="127.246094" xlink:href="#DejaVuSans-48"/>
       <use x="190.869141" xlink:href="#DejaVuSans-48"/>
       <use x="254.492188" xlink:href="#DejaVuSans-48"/>
       <use x="318.115234" xlink:href="#DejaVuSans-48"/>
       <use x="381.738281" xlink:href="#DejaVuSans-48"/>
      </g>
     </g>
    </g>
    <g id="ytick_8">
     <g id="line2d_25">
      <g>
       <use style="stroke:#000000;stroke-width:0.8;" x="77.33" xlink:href="#m3a24eacd0e" y="40.007656"/>
      </g>
     </g>
     <g id="text_26">
      <!-- 1750000 -->
      <g transform="translate(25.7925 43.806875)scale(0.1 -0.1)">
       <use xlink:href="#DejaVuSans-49"/>
       <use x="63.623047" xlink:href="#DejaVuSans-55"/>
       <use x="127.246094" xlink:href="#DejaVuSans-53"/>
       <use x="190.869141" xlink:href="#DejaVuSans-48"/>
       <use x="254.492188" xlink:href="#DejaVuSans-48"/>
       <use x="318.115234" xlink:href="#DejaVuSans-48"/>
       <use x="381.738281" xlink:href="#DejaVuSans-48"/>
      </g>
     </g>
    </g>
    <g id="text_27">
     <!-- Nanoseconds per increment -->
     <defs>
      <path d="M 9.8125 72.90625 
L 23.09375 72.90625 
L 55.421875 11.921875 
L 55.421875 72.90625 
L 64.984375 72.90625 
L 64.984375 0 
L 51.703125 0 
L 19.390625 60.984375 
L 19.390625 0 
L 9.8125 0 
z
" id="DejaVuSans-78"/>
      <path d="M 34.28125 27.484375 
Q 23.390625 27.484375 19.1875 25 
Q 14.984375 22.515625 14.984375 16.5 
Q 14.984375 11.71875 18.140625 8.90625 
Q 21.296875 6.109375 26.703125 6.109375 
Q 34.1875 6.109375 38.703125 11.40625 
Q 43.21875 16.703125 43.21875 25.484375 
L 43.21875 27.484375 
z
M 52.203125 31.203125 
L 52.203125 0 
L 43.21875 0 
L 43.21875 8.296875 
Q 40.140625 3.328125 35.546875 0.953125 
Q 30.953125 -1.421875 24.3125 -1.421875 
Q 15.921875 -1.421875 10.953125 3.296875 
Q 6 8.015625 6 15.921875 
Q 6 25.140625 12.171875 29.828125 
Q 18.359375 34.515625 30.609375 34.515625 
L 43.21875 34.515625 
L 43.21875 35.40625 
Q 43.21875 41.609375 39.140625 45 
Q 35.0625 48.390625 27.6875 48.390625 
Q 23 48.390625 18.546875 47.265625 
Q 14.109375 46.140625 10.015625 43.890625 
L 10.015625 52.203125 
Q 14.9375 54.109375 19.578125 55.046875 
Q 24.21875 56 28.609375 56 
Q 40.484375 56 46.34375 49.84375 
Q 52.203125 43.703125 52.203125 31.203125 
z
" id="DejaVuSans-97"/>
      <path d="M 54.890625 33.015625 
L 54.890625 0 
L 45.90625 0 
L 45.90625 32.71875 
Q 45.90625 40.484375 42.875 44.328125 
Q 39.84375 48.1875 33.796875 48.1875 
Q 26.515625 48.1875 22.3125 43.546875 
Q 18.109375 38.921875 18.109375 30.90625 
L 18.109375 0 
L 9.078125 0 
L 9.078125 54.6875 
L 18.109375 54.6875 
L 18.109375 46.1875 
Q 21.34375 51.125 25.703125 53.5625 
Q 30.078125 56 35.796875 56 
Q 45.21875 56 50.046875 50.171875 
Q 54.890625 44.34375 54.890625 33.015625 
z
" id="DejaVuSans-110"/>
      <path d="M 45.40625 46.390625 
L 45.40625 75.984375 
L 54.390625 75.984375 
L 54.390625 0 
L 45.40625 0 
L 45.40625 8.203125 
Q 42.578125 3.328125 38.25 0.953125 
Q 33.9375 -1.421875 27.875 -1.421875 
Q 17.96875 -1.421875 11.734375 6.484375 
Q 5.515625 14.40625 5.515625 27.296875 
Q 5.515625 40.1875 11.734375 48.09375 
Q 17.96875 56 27.875 56 
Q 33.9375 56 38.25 53.625 
Q 42.578125 51.265625 45.40625 46.390625 
z
M 14.796875 27.296875 
Q 14.796875 17.390625 18.875 11.75 
Q 22.953125 6.109375 30.078125 6.109375 
Q 37.203125 6.109375 41.296875 11.75 
Q 45.40625 17.390625 45.40625 27.296875 
Q 45.40625 37.203125 41.296875 42.84375 
Q 37.203125 48.484375 30.078125 48.484375 
Q 22.953125 48.484375 18.875 42.84375 
Q 14.796875 37.203125 14.796875 27.296875 
z
" id="DejaVuSans-100"/>
      <path d="M 18.109375 8.203125 
L 18.109375 -20.796875 
L 9.078125 -20.796875 
L 9.078125 54.6875 
L 18.109375 54.6875 
L 18.109375 46.390625 
Q 20.953125 51.265625 25.265625 53.625 
Q 29.59375 56 35.59375 56 
Q 45.5625 56 51.78125 48.09375 
Q 58.015625 40.1875 58.015625 27.296875 
Q 58.015625 14.40625 51.78125 6.484375 
Q 45.5625 -1.421875 35.59375 -1.421875 
Q 29.59375 -1.421875 25.265625 0.953125 
Q 20.953125 3.328125 18.109375 8.203125 
z
M 48.6875 27.296875 
Q 48.6875 37.203125 44.609375 42.84375 
Q 40.53125 48.484375 33.40625 48.484375 
Q 26.265625 48.484375 22.1875 42.84375 
Q 18.109375 37.203125 18.109375 27.296875 
Q 18.109375 17.390625 22.1875 11.75 
Q 26.265625 6.109375 33.40625 6.109375 
Q 40.53125 6.109375 44.609375 11.75 
Q 48.6875 17.390625 48.6875 27.296875 
z
" id="DejaVuSans-112"/>
      <path d="M 52 44.1875 
Q 55.375 50.25 60.0625 53.125 
Q 64.75 56 71.09375 56 
Q 79.640625 56 84.28125 50.015625 
Q 88.921875 44.046875 88.921875 33.015625 
L 88.921875 0 
L 79.890625 0 
L 79.890625 32.71875 
Q 79.890625 40.578125 77.09375 44.375 
Q 74.3125 48.1875 68.609375 48.1875 
Q 61.625 48.1875 57.5625 43.546875 
Q 53.515625 38.921875 53.515625 30.90625 
L 53.515625 0 
L 44.484375 0 
L 44.484375 32.71875 
Q 44.484375 40.625 41.703125 44.40625 
Q 38.921875 48.1875 33.109375 48.1875 
Q 26.21875 48.1875 22.15625 43.53125 
Q 18.109375 38.875 18.109375 30.90625 
L 18.109375 0 
L 9.078125 0 
L 9.078125 54.6875 
L 18.109375 54.6875 
L 18.109375 46.1875 
Q 21.1875 51.21875 25.484375 53.609375 
Q 29.78125 56 35.6875 56 
Q 41.65625 56 45.828125 52.96875 
Q 50 49.953125 52 44.1875 
z
" id="DejaVuSans-109"/>
     </defs>
     <g transform="translate(19.296875 291.941562)rotate(-90)scale(0.12 -0.12)">
      <use xlink:href="#DejaVuSans-78"/>
      <use x="74.804688" xlink:href="#DejaVuSans-97"/>
      <use x="136.083984" xlink:href="#DejaVuSans-110"/>
      <use x="199.462891" xlink:href="#DejaVuSans-111"/>
      <use x="260.644531" xlink:href="#DejaVuSans-115"/>
      <use x="312.744141" xlink:href="#DejaVuSans-101"/>
      <use x="374.267578" xlink:href="#DejaVuSans-99"/>
      <use x="429.248047" xlink:href="#DejaVuSans-111"/>
      <use x="490.429688" xlink:href="#DejaVuSans-110"/>
      <use x="553.808594" xlink:href="#DejaVuSans-100"/>
      <use x="617.285156" xlink:href="#DejaVuSans-115"/>
      <use x="669.384766" xlink:href="#DejaVuSans-32"/>
      <use x="701.171875" xlink:href="#DejaVuSans-112"/>
      <use x="764.648438" xlink:href="#DejaVuSans-101"/>
      <use x="826.171875" xlink:href="#DejaVuSans-114"/>
      <use x="867.285156" xlink:href="#DejaVuSans-32"/>
      <use x="899.072266" xlink:href="#DejaVuSans-105"/>
      <use x="926.855469" xlink:href="#DejaVuSans-110"/>
      <use x="990.234375" xlink:href="#DejaVuSans-99"/>
      <use x="1045.214844" xlink:href="#DejaVuSans-114"/>
      <use x="1086.296875" xlink:href="#DejaVuSans-101"/>
      <use x="1147.820312" xlink:href="#DejaVuSans-109"/>
      <use x="1245.232422" xlink:href="#DejaVuSans-101"/>
      <use x="1306.755859" xlink:href="#DejaVuSans-110"/>
      <use x="1370.134766" xlink:href="#DejaVuSans-116"/>
     </g>
    </g>
   </g>
   <g id="LineCollection_1">
    <path clip-path="url(#p2b8a11e210)" d="M 86.73958 389.282578 
L 86.73958 389.256549 
" style="fill:none;stroke:#000000;stroke-width:1.5;"/>
    <path clip-path="url(#p2b8a11e210)" d="M 119.673109 389.253215 
L 119.673109 389.251515 
" style="fill:none;stroke:#000000;stroke-width:1.5;"/>
    <path clip-path="url(#p2b8a11e210)" d="M 152.606639 389.213142 
L 152.606639 389.210911 
" style="fill:none;stroke:#000000;stroke-width:1.5;"/>
    <path clip-path="url(#p2b8a11e210)" d="M 185.540168 389.185948 
L 185.540168 389.182415 
" style="fill:none;stroke:#000000;stroke-width:1.5;"/>
    <path clip-path="url(#p2b8a11e210)" d="M 218.473697 389.111598 
L 218.473697 389.105023 
" style="fill:none;stroke:#000000;stroke-width:1.5;"/>
    <path clip-path="url(#p2b8a11e210)" d="M 251.407227 389.04594 
L 251.407227 389.03667 
" style="fill:none;stroke:#000000;stroke-width:1.5;"/>
    <path clip-path="url(#p2b8a11e210)" d="M 284.340756 388.989307 
L 284.340756 388.979151 
" style="fill:none;stroke:#000000;stroke-width:1.5;"/>
    <path clip-path="url(#p2b8a11e210)" d="M 317.274286 388.895807 
L 317.274286 388.886781 
" style="fill:none;stroke:#000000;stroke-width:1.5;"/>
    <path clip-path="url(#p2b8a11e210)" d="M 350.207815 388.832057 
L 350.207815 388.805812 
" style="fill:none;stroke:#000000;stroke-width:1.5;"/>
    <path clip-path="url(#p2b8a11e210)" d="M 383.141345 388.769819 
L 383.141345 388.75617 
" style="fill:none;stroke:#000000;stroke-width:1.5;"/>
    <path clip-path="url(#p2b8a11e210)" d="M 416.074874 388.72789 
L 416.074874 388.715654 
" style="fill:none;stroke:#000000;stroke-width:1.5;"/>
    <path clip-path="url(#p2b8a11e210)" d="M 449.008403 388.686898 
L 449.008403 388.668163 
" style="fill:none;stroke:#000000;stroke-width:1.5;"/>
    <path clip-path="url(#p2b8a11e210)" d="M 481.941933 388.622469 
L 481.941933 388.603782 
" style="fill:none;stroke:#000000;stroke-width:1.5;"/>
    <path clip-path="url(#p2b8a11e210)" d="M 514.875462 388.565964 
L 514.875462 388.544654 
" style="fill:none;stroke:#000000;stroke-width:1.5;"/>
    <path clip-path="url(#p2b8a11e210)" d="M 547.808992 388.513823 
L 547.808992 388.498022 
" style="fill:none;stroke:#000000;stroke-width:1.5;"/>
    <path clip-path="url(#p2b8a11e210)" d="M 580.742521 388.434507 
L 580.742521 388.431062 
" style="fill:none;stroke:#000000;stroke-width:1.5;"/>
    <path clip-path="url(#p2b8a11e210)" d="M 613.67605 388.389392 
L 613.67605 388.384733 
" style="fill:none;stroke:#000000;stroke-width:1.5;"/>
   </g>
   <g id="LineCollection_2">
    <path clip-path="url(#p2b8a11e210)" d="M 89.091975 389.313872 
L 89.091975 389.313872 
" style="fill:none;stroke:#000000;stroke-width:1.5;"/>
    <path clip-path="url(#p2b8a11e210)" d="M 122.025504 389.303097 
L 122.025504 389.302662 
" style="fill:none;stroke:#000000;stroke-width:1.5;"/>
    <path clip-path="url(#p2b8a11e210)" d="M 154.959034 389.299005 
L 154.959034 389.298921 
" style="fill:none;stroke:#000000;stroke-width:1.5;"/>
    <path clip-path="url(#p2b8a11e210)" d="M 187.892563 389.293125 
L 187.892563 389.293061 
" style="fill:none;stroke:#000000;stroke-width:1.5;"/>
    <path clip-path="url(#p2b8a11e210)" d="M 220.826092 389.268581 
L 220.826092 389.268489 
" style="fill:none;stroke:#000000;stroke-width:1.5;"/>
    <path clip-path="url(#p2b8a11e210)" d="M 253.759622 389.25506 
L 253.759622 389.254784 
" style="fill:none;stroke:#000000;stroke-width:1.5;"/>
    <path clip-path="url(#p2b8a11e210)" d="M 286.693151 389.238213 
L 286.693151 389.237878 
" style="fill:none;stroke:#000000;stroke-width:1.5;"/>
    <path clip-path="url(#p2b8a11e210)" d="M 319.626681 389.259371 
L 319.626681 389.258976 
" style="fill:none;stroke:#000000;stroke-width:1.5;"/>
    <path clip-path="url(#p2b8a11e210)" d="M 352.56021 389.210619 
L 352.56021 389.208939 
" style="fill:none;stroke:#000000;stroke-width:1.5;"/>
    <path clip-path="url(#p2b8a11e210)" d="M 385.493739 389.202635 
L 385.493739 389.200815 
" style="fill:none;stroke:#000000;stroke-width:1.5;"/>
    <path clip-path="url(#p2b8a11e210)" d="M 418.427269 389.159747 
L 418.427269 389.157815 
" style="fill:none;stroke:#000000;stroke-width:1.5;"/>
    <path clip-path="url(#p2b8a11e210)" d="M 451.360798 389.188271 
L 451.360798 389.187209 
" style="fill:none;stroke:#000000;stroke-width:1.5;"/>
    <path clip-path="url(#p2b8a11e210)" d="M 484.294328 389.11666 
L 484.294328 389.113806 
" style="fill:none;stroke:#000000;stroke-width:1.5;"/>
    <path clip-path="url(#p2b8a11e210)" d="M 517.227857 389.087174 
L 517.227857 389.0843 
" style="fill:none;stroke:#000000;stroke-width:1.5;"/>
    <path clip-path="url(#p2b8a11e210)" d="M 550.161387 389.047301 
L 550.161387 389.044139 
" style="fill:none;stroke:#000000;stroke-width:1.5;"/>
    <path clip-path="url(#p2b8a11e210)" d="M 583.094916 389.030793 
L 583.094916 389.022326 
" style="fill:none;stroke:#000000;stroke-width:1.5;"/>
    <path clip-path="url(#p2b8a11e210)" d="M 616.028445 389.013527 
L 616.028445 389.012861 
" style="fill:none;stroke:#000000;stroke-width:1.5;"/>
   </g>
   <g id="LineCollection_3">
    <path clip-path="url(#p2b8a11e210)" d="M 91.44437 389.309081 
L 91.44437 389.309062 
" style="fill:none;stroke:#000000;stroke-width:1.5;"/>
    <path clip-path="url(#p2b8a11e210)" d="M 124.377899 389.29166 
L 124.377899 389.291404 
" style="fill:none;stroke:#000000;stroke-width:1.5;"/>
    <path clip-path="url(#p2b8a11e210)" d="M 157.311429 389.285141 
L 157.311429 389.284965 
" style="fill:none;stroke:#000000;stroke-width:1.5;"/>
    <path clip-path="url(#p2b8a11e210)" d="M 190.244958 389.27421 
L 190.244958 389.274034 
" style="fill:none;stroke:#000000;stroke-width:1.5;"/>
    <path clip-path="url(#p2b8a11e210)" d="M 223.178487 389.242361 
L 223.178487 389.241974 
" style="fill:none;stroke:#000000;stroke-width:1.5;"/>
    <path clip-path="url(#p2b8a11e210)" d="M 256.112017 389.215546 
L 256.112017 389.214847 
" style="fill:none;stroke:#000000;stroke-width:1.5;"/>
    <path clip-path="url(#p2b8a11e210)" d="M 289.045546 389.192659 
L 289.045546 389.191122 
" style="fill:none;stroke:#000000;stroke-width:1.5;"/>
    <path clip-path="url(#p2b8a11e210)" d="M 321.979076 389.200635 
L 321.979076 389.199433 
" style="fill:none;stroke:#000000;stroke-width:1.5;"/>
    <path clip-path="url(#p2b8a11e210)" d="M 354.912605 389.148534 
L 354.912605 389.147324 
" style="fill:none;stroke:#000000;stroke-width:1.5;"/>
    <path clip-path="url(#p2b8a11e210)" d="M 387.846134 389.099183 
L 387.846134 389.095502 
" style="fill:none;stroke:#000000;stroke-width:1.5;"/>
    <path clip-path="url(#p2b8a11e210)" d="M 420.779664 389.061377 
L 420.779664 389.056239 
" style="fill:none;stroke:#000000;stroke-width:1.5;"/>
    <path clip-path="url(#p2b8a11e210)" d="M 453.713193 389.062072 
L 453.713193 389.060659 
" style="fill:none;stroke:#000000;stroke-width:1.5;"/>
    <path clip-path="url(#p2b8a11e210)" d="M 486.646723 388.999882 
L 486.646723 388.995299 
" style="fill:none;stroke:#000000;stroke-width:1.5;"/>
    <path clip-path="url(#p2b8a11e210)" d="M 519.580252 388.961757 
L 519.580252 388.957554 
" style="fill:none;stroke:#000000;stroke-width:1.5;"/>
    <path clip-path="url(#p2b8a11e210)" d="M 552.513782 388.912905 
L 552.513782 388.903656 
" style="fill:none;stroke:#000000;stroke-width:1.5;"/>
    <path clip-path="url(#p2b8a11e210)" d="M 585.447311 388.870086 
L 585.447311 388.869595 
" style="fill:none;stroke:#000000;stroke-width:1.5;"/>
    <path clip-path="url(#p2b8a11e210)" d="M 618.38084 388.84365 
L 618.38084 388.842939 
" style="fill:none;stroke:#000000;stroke-width:1.5;"/>
   </g>
   <g id="LineCollection_4">
    <path clip-path="url(#p2b8a11e210)" d="M 93.796765 389.176818 
L 93.796765 389.169205 
" style="fill:none;stroke:#000000;stroke-width:1.5;"/>
    <path clip-path="url(#p2b8a11e210)" d="M 126.730294 389.156414 
L 126.730294 389.105734 
" style="fill:none;stroke:#000000;stroke-width:1.5;"/>
    <path clip-path="url(#p2b8a11e210)" d="M 159.663824 389.019799 
L 159.663824 388.982952 
" style="fill:none;stroke:#000000;stroke-width:1.5;"/>
    <path clip-path="url(#p2b8a11e210)" d="M 192.597353 388.842021 
L 192.597353 388.799217 
" style="fill:none;stroke:#000000;stroke-width:1.5;"/>
    <path clip-path="url(#p2b8a11e210)" d="M 225.530882 388.7349 
L 225.530882 388.680012 
" style="fill:none;stroke:#000000;stroke-width:1.5;"/>
    <path clip-path="url(#p2b8a11e210)" d="M 258.464412 388.6638 
L 258.464412 388.493467 
" style="fill:none;stroke:#000000;stroke-width:1.5;"/>
    <path clip-path="url(#p2b8a11e210)" d="M 291.397941 388.469598 
L 291.397941 388.342716 
" style="fill:none;stroke:#000000;stroke-width:1.5;"/>
    <path clip-path="url(#p2b8a11e210)" d="M 324.331471 388.369547 
L 324.331471 388.290614 
" style="fill:none;stroke:#000000;stroke-width:1.5;"/>
    <path clip-path="url(#p2b8a11e210)" d="M 357.265 388.294295 
L 357.265 388.174579 
" style="fill:none;stroke:#000000;stroke-width:1.5;"/>
    <path clip-path="url(#p2b8a11e210)" d="M 390.198529 388.162495 
L 390.198529 388.049701 
" style="fill:none;stroke:#000000;stroke-width:1.5;"/>
    <path clip-path="url(#p2b8a11e210)" d="M 423.132059 388.103774 
L 423.132059 387.925737 
" style="fill:none;stroke:#000000;stroke-width:1.5;"/>
    <path clip-path="url(#p2b8a11e210)" d="M 456.065588 387.946376 
L 456.065588 387.840273 
" style="fill:none;stroke:#000000;stroke-width:1.5;"/>
    <path clip-path="url(#p2b8a11e210)" d="M 488.999118 387.84074 
L 488.999118 387.683957 
" style="fill:none;stroke:#000000;stroke-width:1.5;"/>
    <path clip-path="url(#p2b8a11e210)" d="M 521.932647 387.722581 
L 521.932647 387.609883 
" style="fill:none;stroke:#000000;stroke-width:1.5;"/>
    <path clip-path="url(#p2b8a11e210)" d="M 554.866176 387.622386 
L 554.866176 387.52069 
" style="fill:none;stroke:#000000;stroke-width:1.5;"/>
    <path clip-path="url(#p2b8a11e210)" d="M 587.799706 387.27261 
L 587.799706 387.158731 
" style="fill:none;stroke:#000000;stroke-width:1.5;"/>
    <path clip-path="url(#p2b8a11e210)" d="M 620.733235 386.818461 
L 620.733235 386.706557 
" style="fill:none;stroke:#000000;stroke-width:1.5;"/>
   </g>
   <g id="LineCollection_5">
    <path clip-path="url(#p2b8a11e210)" d="M 96.14916 384.615118 
L 96.14916 384.485326 
" style="fill:none;stroke:#000000;stroke-width:1.5;"/>
    <path clip-path="url(#p2b8a11e210)" d="M 129.082689 374.523013 
L 129.082689 374.208932 
" style="fill:none;stroke:#000000;stroke-width:1.5;"/>
    <path clip-path="url(#p2b8a11e210)" d="M 162.016218 368.955905 
L 162.016218 368.795924 
" style="fill:none;stroke:#000000;stroke-width:1.5;"/>
    <path clip-path="url(#p2b8a11e210)" d="M 194.949748 364.19245 
L 194.949748 362.949525 
" style="fill:none;stroke:#000000;stroke-width:1.5;"/>
    <path clip-path="url(#p2b8a11e210)" d="M 227.883277 353.687414 
L 227.883277 352.85122 
" style="fill:none;stroke:#000000;stroke-width:1.5;"/>
    <path clip-path="url(#p2b8a11e210)" d="M 260.816807 342.62193 
L 260.816807 341.870409 
" style="fill:none;stroke:#000000;stroke-width:1.5;"/>
    <path clip-path="url(#p2b8a11e210)" d="M 293.750336 328.106497 
L 293.750336 327.031729 
" style="fill:none;stroke:#000000;stroke-width:1.5;"/>
    <path clip-path="url(#p2b8a11e210)" d="M 326.683866 313.446277 
L 326.683866 312.626866 
" style="fill:none;stroke:#000000;stroke-width:1.5;"/>
    <path clip-path="url(#p2b8a11e210)" d="M 359.617395 297.429456 
L 359.617395 296.016968 
" style="fill:none;stroke:#000000;stroke-width:1.5;"/>
    <path clip-path="url(#p2b8a11e210)" d="M 392.550924 278.824186 
L 392.550924 276.336328 
" style="fill:none;stroke:#000000;stroke-width:1.5;"/>
    <path clip-path="url(#p2b8a11e210)" d="M 425.484454 258.343065 
L 425.484454 255.720332 
" style="fill:none;stroke:#000000;stroke-width:1.5;"/>
    <path clip-path="url(#p2b8a11e210)" d="M 458.417983 236.601027 
L 458.417983 234.030527 
" style="fill:none;stroke:#000000;stroke-width:1.5;"/>
    <path clip-path="url(#p2b8a11e210)" d="M 491.351513 213.235676 
L 491.351513 210.900497 
" style="fill:none;stroke:#000000;stroke-width:1.5;"/>
    <path clip-path="url(#p2b8a11e210)" d="M 524.285042 187.709682 
L 524.285042 185.639002 
" style="fill:none;stroke:#000000;stroke-width:1.5;"/>
    <path clip-path="url(#p2b8a11e210)" d="M 557.218571 161.150678 
L 557.218571 157.622336 
" style="fill:none;stroke:#000000;stroke-width:1.5;"/>
    <path clip-path="url(#p2b8a11e210)" d="M 590.152101 142.52738 
L 590.152101 124.958334 
" style="fill:none;stroke:#000000;stroke-width:1.5;"/>
    <path clip-path="url(#p2b8a11e210)" d="M 623.08563 103.388118 
L 623.08563 89.600671 
" style="fill:none;stroke:#000000;stroke-width:1.5;"/>
   </g>
   <g id="LineCollection_6">
    <path clip-path="url(#p2b8a11e210)" d="M 98.501555 386.085388 
L 98.501555 386.035913 
" style="fill:none;stroke:#000000;stroke-width:1.5;"/>
    <path clip-path="url(#p2b8a11e210)" d="M 131.435084 382.489658 
L 131.435084 382.024853 
" style="fill:none;stroke:#000000;stroke-width:1.5;"/>
    <path clip-path="url(#p2b8a11e210)" d="M 164.368613 379.731823 
L 164.368613 379.634311 
" style="fill:none;stroke:#000000;stroke-width:1.5;"/>
    <path clip-path="url(#p2b8a11e210)" d="M 197.302143 376.975777 
L 197.302143 376.879658 
" style="fill:none;stroke:#000000;stroke-width:1.5;"/>
    <path clip-path="url(#p2b8a11e210)" d="M 230.235672 374.608345 
L 230.235672 373.940899 
" style="fill:none;stroke:#000000;stroke-width:1.5;"/>
    <path clip-path="url(#p2b8a11e210)" d="M 263.169202 371.873896 
L 263.169202 370.987174 
" style="fill:none;stroke:#000000;stroke-width:1.5;"/>
    <path clip-path="url(#p2b8a11e210)" d="M 296.102731 369.41766 
L 296.102731 368.706763 
" style="fill:none;stroke:#000000;stroke-width:1.5;"/>
    <path clip-path="url(#p2b8a11e210)" d="M 329.036261 366.764431 
L 329.036261 365.902771 
" style="fill:none;stroke:#000000;stroke-width:1.5;"/>
    <path clip-path="url(#p2b8a11e210)" d="M 361.96979 364.17924 
L 361.96979 363.129032 
" style="fill:none;stroke:#000000;stroke-width:1.5;"/>
    <path clip-path="url(#p2b8a11e210)" d="M 394.903319 361.479295 
L 394.903319 360.399205 
" style="fill:none;stroke:#000000;stroke-width:1.5;"/>
    <path clip-path="url(#p2b8a11e210)" d="M 427.836849 358.784784 
L 427.836849 357.547871 
" style="fill:none;stroke:#000000;stroke-width:1.5;"/>
    <path clip-path="url(#p2b8a11e210)" d="M 460.770378 356.057728 
L 460.770378 354.762258 
" style="fill:none;stroke:#000000;stroke-width:1.5;"/>
    <path clip-path="url(#p2b8a11e210)" d="M 493.703908 353.278228 
L 493.703908 352.082534 
" style="fill:none;stroke:#000000;stroke-width:1.5;"/>
    <path clip-path="url(#p2b8a11e210)" d="M 526.637437 349.923672 
L 526.637437 349.024614 
" style="fill:none;stroke:#000000;stroke-width:1.5;"/>
    <path clip-path="url(#p2b8a11e210)" d="M 559.570966 348.292108 
L 559.570966 346.665909 
" style="fill:none;stroke:#000000;stroke-width:1.5;"/>
    <path clip-path="url(#p2b8a11e210)" d="M 592.504496 345.326418 
L 592.504496 343.431847 
" style="fill:none;stroke:#000000;stroke-width:1.5;"/>
    <path clip-path="url(#p2b8a11e210)" d="M 625.438025 342.063026 
L 625.438025 339.603907 
" style="fill:none;stroke:#000000;stroke-width:1.5;"/>
   </g>
   <g id="LineCollection_7">
    <path clip-path="url(#p2b8a11e210)" d="M 100.85395 389.285536 
L 100.85395 389.284386 
" style="fill:none;stroke:#000000;stroke-width:1.5;"/>
    <path clip-path="url(#p2b8a11e210)" d="M 133.787479 389.249499 
L 133.787479 389.239011 
" style="fill:none;stroke:#000000;stroke-width:1.5;"/>
    <path clip-path="url(#p2b8a11e210)" d="M 166.721008 389.231075 
L 166.721008 389.193633 
" style="fill:none;stroke:#000000;stroke-width:1.5;"/>
    <path clip-path="url(#p2b8a11e210)" d="M 199.654538 389.124046 
L 199.654538 389.115798 
" style="fill:none;stroke:#000000;stroke-width:1.5;"/>
    <path clip-path="url(#p2b8a11e210)" d="M 232.588067 389.08755 
L 232.588067 389.050866 
" style="fill:none;stroke:#000000;stroke-width:1.5;"/>
    <path clip-path="url(#p2b8a11e210)" d="M 265.521597 389.031863 
L 265.521597 388.999659 
" style="fill:none;stroke:#000000;stroke-width:1.5;"/>
    <path clip-path="url(#p2b8a11e210)" d="M 298.455126 388.989387 
L 298.455126 388.951653 
" style="fill:none;stroke:#000000;stroke-width:1.5;"/>
    <path clip-path="url(#p2b8a11e210)" d="M 331.388655 388.925473 
L 331.388655 388.876453 
" style="fill:none;stroke:#000000;stroke-width:1.5;"/>
    <path clip-path="url(#p2b8a11e210)" d="M 364.322185 388.848696 
L 364.322185 388.802096 
" style="fill:none;stroke:#000000;stroke-width:1.5;"/>
    <path clip-path="url(#p2b8a11e210)" d="M 397.255714 388.823561 
L 397.255714 388.769671 
" style="fill:none;stroke:#000000;stroke-width:1.5;"/>
    <path clip-path="url(#p2b8a11e210)" d="M 430.189244 388.780199 
L 430.189244 388.688655 
" style="fill:none;stroke:#000000;stroke-width:1.5;"/>
    <path clip-path="url(#p2b8a11e210)" d="M 463.122773 388.640613 
L 463.122773 388.58662 
" style="fill:none;stroke:#000000;stroke-width:1.5;"/>
    <path clip-path="url(#p2b8a11e210)" d="M 496.056303 388.578248 
L 496.056303 388.516582 
" style="fill:none;stroke:#000000;stroke-width:1.5;"/>
    <path clip-path="url(#p2b8a11e210)" d="M 528.989832 388.535309 
L 528.989832 388.476253 
" style="fill:none;stroke:#000000;stroke-width:1.5;"/>
    <path clip-path="url(#p2b8a11e210)" d="M 561.923361 388.499563 
L 561.923361 388.408466 
" style="fill:none;stroke:#000000;stroke-width:1.5;"/>
    <path clip-path="url(#p2b8a11e210)" d="M 594.856891 305.548672 
L 594.856891 55.30099 
" style="fill:none;stroke:#000000;stroke-width:1.5;"/>
    <path clip-path="url(#p2b8a11e210)" d="M 627.79042 303.022944 
L 627.79042 42.767619 
" style="fill:none;stroke:#000000;stroke-width:1.5;"/>
   </g>
   <g id="patch_122">
    <path d="M 77.33 389.32 
L 77.33 25.44 
" style="fill:none;stroke:#000000;stroke-linecap:square;stroke-linejoin:miter;stroke-width:0.8;"/>
   </g>
   <g id="patch_123">
    <path d="M 637.2 389.32 
L 637.2 25.44 
" style="fill:none;stroke:#000000;stroke-linecap:square;stroke-linejoin:miter;stroke-width:0.8;"/>
   </g>
   <g id="patch_124">
    <path d="M 77.33 389.32 
L 637.2 389.32 
" style="fill:none;stroke:#000000;stroke-linecap:square;stroke-linejoin:miter;stroke-width:0.8;"/>
   </g>
   <g id="patch_125">
    <path d="M 77.33 25.44 
L 637.2 25.44 
" style="fill:none;stroke:#000000;stroke-linecap:square;stroke-linejoin:miter;stroke-width:0.8;"/>
   </g>
   <g id="text_28">
    <!-- Increment Cost: Ticket Spin (Oversubscribed) -->
    <defs>
     <path d="M 9.8125 72.90625 
L 19.671875 72.90625 
L 19.671875 0 
L 9.8125 0 
z
" id="DejaVuSans-73"/>
     <path d="M 11.71875 12.40625 
L 22.015625 12.40625 
L 22.015625 0 
L 11.71875 0 
z
M 11.71875 51.703125 
L 22.015625 51.703125 
L 22.015625 39.3125 
L 11.71875 39.3125 
z
" id="DejaVuSans-58"/>
     <path d="M -0.296875 72.90625 
L 61.375 72.90625 
L 61.375 64.59375 
L 35.5 64.59375 
L 35.5 0 
L 25.59375 0 
L 25.59375 64.59375 
L -0.296875 64.59375 
z
" id="DejaVuSans-84"/>
     <path d="M 9.078125 75.984375 
L 18.109375 75.984375 
L 18.109375 31.109375 
L 44.921875 54.6875 
L 56.390625 54.6875 
L 27.390625 29.109375 
L 57.625 0 
L 45.90625 0 
L 18.109375 26.703125 
L 18.109375 0 
L 9.078125 0 
z
" id="DejaVuSans-107"/>
     <path d="M 53.515625 70.515625 
L 53.515625 60.890625 
Q 47.90625 63.578125 42.921875 64.890625 
Q 37.9375 66.21875 33.296875 66.21875 
Q 25.25 66.21875 20.875 63.09375 
Q 16.5 59.96875 16.5 54.203125 
Q 16.5 49.359375 19.40625 46.890625 
Q 22.3125 44.4375 30.421875 42.921875 
L 36.375 41.703125 
Q 47.40625 39.59375 52.65625 34.296875 
Q 57.90625 29 57.90625 20.125 
Q 57.90625 9.515625 50.796875 4.046875 
Q 43.703125 -1.421875 29.984375 -1.421875 
Q 24.8125 -1.421875 18.96875 -0.25 
Q 13.140625 0.921875 6.890625 3.21875 
L 6.890625 13.375 
Q 12.890625 10.015625 18.65625 8.296875 
Q 24.421875 6.59375 29.984375 6.59375 
Q 38.421875 6.59375 43.015625 9.90625 
Q 47.609375 13.234375 47.609375 19.390625 
Q 47.609375 24.75 44.3125 27.78125 
Q 41.015625 30.8125 33.5 32.328125 
L 27.484375 33.5 
Q 16.453125 35.6875 11.515625 40.375 
Q 6.59375 45.0625 6.59375 53.421875 
Q 6.59375 63.09375 13.40625 68.65625 
Q 20.21875 74.21875 32.171875 74.21875 
Q 37.3125 74.21875 42.625 73.28125 
Q 47.953125 72.359375 53.515625 70.515625 
z
" id="DejaVuSans-83"/>
     <path d="M 31 75.875 
Q 24.46875 64.65625 21.28125 53.65625 
Q 18.109375 42.671875 18.109375 31.390625 
Q 18.109375 20.125 21.3125 9.0625 
Q 24.515625 -2 31 -13.1875 
L 23.1875 -13.1875 
Q 15.875 -1.703125 12.234375 9.375 
Q 8.59375 20.453125 8.59375 31.390625 
Q 8.59375 42.28125 12.203125 53.3125 
Q 15.828125 64.359375 23.1875 75.875 
z
" id="DejaVuSans-40"/>
     <path d="M 39.40625 66.21875 
Q 28.65625 66.21875 22.328125 58.203125 
Q 16.015625 50.203125 16.015625 36.375 
Q 16.015625 22.609375 22.328125 14.59375 
Q 28.65625 6.59375 39.40625 6.59375 
Q 50.140625 6.59375 56.421875 14.59375 
Q 62.703125 22.609375 62.703125 36.375 
Q 62.703125 50.203125 56.421875 58.203125 
Q 50.140625 66.21875 39.40625 66.21875 
z
M 39.40625 74.21875 
Q 54.734375 74.21875 63.90625 63.9375 
Q 73.09375 53.65625 73.09375 36.375 
Q 73.09375 19.140625 63.90625 8.859375 
Q 54.734375 -1.421875 39.40625 -1.421875 
Q 24.03125 -1.421875 14.8125 8.828125 
Q 5.609375 19.09375 5.609375 36.375 
Q 5.609375 53.65625 14.8125 63.9375 
Q 24.03125 74.21875 39.40625 74.21875 
z
" id="DejaVuSans-79"/>
     <path d="M 8.5 21.578125 
L 8.5 54.6875 
L 17.484375 54.6875 
L 17.484375 21.921875 
Q 17.484375 14.15625 20.5 10.265625 
Q 23.53125 6.390625 29.59375 6.390625 
Q 36.859375 6.390625 41.078125 11.03125 
Q 45.3125 15.671875 45.3125 23.6875 
L 45.3125 54.6875 
L 54.296875 54.6875 
L 54.296875 0 
L 45.3125 0 
L 45.3125 8.40625 
Q 42.046875 3.421875 37.71875 1 
Q 33.40625 -1.421875 27.6875 -1.421875 
Q 18.265625 -1.421875 13.375 4.4375 
Q 8.5 10.296875 8.5 21.578125 
z
M 31.109375 56 
z
" id="DejaVuSans-117"/>
     <path d="M 48.6875 27.296875 
Q 48.6875 37.203125 44.609375 42.84375 
Q 40.53125 48.484375 33.40625 48.484375 
Q 26.265625 48.484375 22.1875 42.84375 
Q 18.109375 37.203125 18.109375 27.296875 
Q 18.109375 17.390625 22.1875 11.75 
Q 26.265625 6.109375 33.40625 6.109375 
Q 40.53125 6.109375 44.609375 11.75 
Q 48.6875 17.390625 48.6875 27.296875 
z
M 18.109375 46.390625 
Q 20.953125 51.265625 25.265625 53.625 
Q 29.59375 56 35.59375 56 
Q 45.5625 56 51.78125 48.09375 
Q 58.015625 40.1875 58.015625 27.296875 
Q 58.015625 14.40625 51.78125 6.484375 
Q 45.5625 -1.421875 35.59375 -1.421875 
Q 29.59375 -1.421875 25.265625 0.953125 
Q 20.953125 3.328125 18.109375 8.203125 
L 18.109375 0 
L 9.078125 0 
L 9.078125 75.984375 
L 18.109375 75.984375 
z
" id="DejaVuSans-98"/>
     <path d="M 8.015625 75.875 
L 15.828125 75.875 
Q 23.140625 64.359375 26.78125 53.3125 
Q 30.421875 42.28125 30.421875 31.390625 
Q 30.421875 20.453125 26.78125 9.375 
Q 23.140625 -1.703125 15.828125 -13.1875 
L 8.015625 -13.1875 
Q 14.5 -2 17.703125 9.0625 
Q 20.90625 20.125 20.90625 31.390625 
Q 20.90625 42.671875 17.703125 53.65625 
Q 14.5 64.65625 8.015625 75.875 
z
" id="DejaVuSans-41"/>
    </defs>
    <g transform="translate(220.6075 19.44)scale(0.12 -0.12)">
     <use xlink:href="#DejaVuSans-73"/>
     <use x="29.492188" xlink:href="#DejaVuSans-110"/>
     <use x="92.871094" xlink:href="#DejaVuSans-99"/>
     <use x="147.851562" xlink:href="#DejaVuSans-114"/>
     <use x="188.933594" xlink:href="#DejaVuSans-101"/>
     <use x="250.457031" xlink:href="#DejaVuSans-109"/>
     <use x="347.869141" xlink:href="#DejaVuSans-101"/>
     <use x="409.392578" xlink:href="#DejaVuSans-110"/>
     <use x="472.771484" xlink:href="#DejaVuSans-116"/>
     <use x="511.980469" xlink:href="#DejaVuSans-32"/>
     <use x="543.767578" xlink:href="#DejaVuSans-67"/>
     <use x="613.591797" xlink:href="#DejaVuSans-111"/>
     <use x="674.773438" xlink:href="#DejaVuSans-115"/>
     <use x="726.873047" xlink:href="#DejaVuSans-116"/>
     <use x="766.082031" xlink:href="#DejaVuSans-58"/>
     <use x="799.773438" xlink:href="#DejaVuSans-32"/>
     <use x="831.560547" xlink:href="#DejaVuSans-84"/>
     <use x="892.597656" xlink:href="#DejaVuSans-105"/>
     <use x="920.380859" xlink:href="#DejaVuSans-99"/>
     <use x="975.361328" xlink:href="#DejaVuSans-107"/>
     <use x="1033.224609" xlink:href="#DejaVuSans-101"/>
     <use x="1094.748047" xlink:href="#DejaVuSans-116"/>
     <use x="1133.957031" xlink:href="#DejaVuSans-32"/>
     <use x="1165.744141" xlink:href="#DejaVuSans-83"/>
     <use x="1229.220703" xlink:href="#DejaVuSans-112"/>
     <use x="1292.697266" xlink:href="#DejaVuSans-105"/>
     <use x="1320.480469" xlink:href="#DejaVuSans-110"/>
     <use x="1383.859375" xlink:href="#DejaVuSans-32"/>
     <use x="1415.646484" xlink:href="#DejaVuSans-40"/>
     <use x="1454.660156" xlink:href="#DejaVuSans-79"/>
     <use x="1533.371094" xlink:href="#DejaVuSans-118"/>
     <use x="1592.550781" xlink:href="#DejaVuSans-101"/>
     <use x="1654.074219" xlink:href="#DejaVuSans-114"/>
     <use x="1695.1875" xlink:href="#DejaVuSans-115"/>
     <use x="1747.287109" xlink:href="#DejaVuSans-117"/>
     <use x="1810.666016" xlink:href="#DejaVuSans-98"/>
     <use x="1874.142578" xlink:href="#DejaVuSans-115"/>
     <use x="1926.242188" xlink:href="#DejaVuSans-99"/>
     <use x="1981.222656" xlink:href="#DejaVuSans-114"/>
     <use x="2022.335938" xlink:href="#DejaVuSans-105"/>
     <use x="2050.119141" xlink:href="#DejaVuSans-98"/>
     <use x="2113.595703" xlink:href="#DejaVuSans-101"/>
     <use x="2175.119141" xlink:href="#DejaVuSans-100"/>
     <use x="2238.595703" xlink:href="#DejaVuSans-41"/>
    </g>
   </g>
   <g id="legend_1">
    <g id="patch_126">
     <path d="M 84.33 150.865 
L 189.562813 150.865 
Q 191.562813 150.865 191.562813 148.865 
L 191.562813 32.44 
Q 191.562813 30.44 189.562813 30.44 
L 84.33 30.44 
Q 82.33 30.44 82.33 32.44 
L 82.33 148.865 
Q 82.33 150.865 84.33 150.865 
z
" style="fill:#ffffff;opacity:0.8;stroke:#cccccc;stroke-linejoin:miter;"/>
    </g>
    <g id="text_29">
     <!-- Implementation -->
     <defs>
      <path d="M 9.421875 75.984375 
L 18.40625 75.984375 
L 18.40625 0 
L 9.421875 0 
z
" id="DejaVuSans-108"/>
     </defs>
     <g transform="translate(97.244062 42.038438)scale(0.1 -0.1)">
      <use xlink:href="#DejaVuSans-73"/>
      <use x="29.492188" xlink:href="#DejaVuSans-109"/>
      <use x="126.904297" xlink:href="#DejaVuSans-112"/>
      <use x="190.380859" xlink:href="#DejaVuSans-108"/>
      <use x="218.164062" xlink:href="#DejaVuSans-101"/>
      <use x="279.6875" xlink:href="#DejaVuSans-109"/>
      <use x="377.099609" xlink:href="#DejaVuSans-101"/>
      <use x="438.623047" xlink:href="#DejaVuSans-110"/>
      <use x="502.001953" xlink:href="#DejaVuSans-116"/>
      <use x="541.210938" xlink:href="#DejaVuSans-97"/>
      <use x="602.490234" xlink:href="#DejaVuSans-116"/>
      <use x="641.699219" xlink:href="#DejaVuSans-105"/>
      <use x="669.482422" xlink:href="#DejaVuSans-111"/>
      <use x="730.664062" xlink:href="#DejaVuSans-110"/>
     </g>
    </g>
    <g id="patch_127">
     <path d="M 86.33 56.716563 
L 106.33 56.716563 
L 106.33 49.716563 
L 86.33 49.716563 
z
" style="fill:#1f77b4;"/>
    </g>
    <g id="text_30">
     <!-- mutex add -->
     <defs>
      <path d="M 54.890625 54.6875 
L 35.109375 28.078125 
L 55.90625 0 
L 45.3125 0 
L 29.390625 21.484375 
L 13.484375 0 
L 2.875 0 
L 24.125 28.609375 
L 4.6875 54.6875 
L 15.28125 54.6875 
L 29.78125 35.203125 
L 44.28125 54.6875 
z
" id="DejaVuSans-120"/>
     </defs>
     <g transform="translate(114.33 56.716563)scale(0.1 -0.1)">
      <use xlink:href="#DejaVuSans-109"/>
      <use x="97.412109" xlink:href="#DejaVuSans-117"/>
      <use x="160.791016" xlink:href="#DejaVuSans-116"/>
      <use x="200" xlink:href="#DejaVuSans-101"/>
      <use x="261.507812" xlink:href="#DejaVuSans-120"/>
      <use x="320.6875" xlink:href="#DejaVuSans-32"/>
      <use x="352.474609" xlink:href="#DejaVuSans-97"/>
      <use x="413.753906" xlink:href="#DejaVuSans-100"/>
      <use x="477.230469" xlink:href="#DejaVuSans-100"/>
     </g>
    </g>
    <g id="patch_128">
     <path d="M 86.33 71.394688 
L 106.33 71.394688 
L 106.33 64.394688 
L 86.33 64.394688 
z
" style="fill:#ff7f0e;"/>
    </g>
    <g id="text_31">
     <!-- atomic add -->
     <g transform="translate(114.33 71.394688)scale(0.1 -0.1)">
      <use xlink:href="#DejaVuSans-97"/>
      <use x="61.279297" xlink:href="#DejaVuSans-116"/>
      <use x="100.488281" xlink:href="#DejaVuSans-111"/>
      <use x="161.669922" xlink:href="#DejaVuSans-109"/>
      <use x="259.082031" xlink:href="#DejaVuSans-105"/>
      <use x="286.865234" xlink:href="#DejaVuSans-99"/>
      <use x="341.845703" xlink:href="#DejaVuSans-32"/>
      <use x="373.632812" xlink:href="#DejaVuSans-97"/>
      <use x="434.912109" xlink:href="#DejaVuSans-100"/>
      <use x="498.388672" xlink:href="#DejaVuSans-100"/>
     </g>
    </g>
    <g id="patch_129">
     <path d="M 86.33 86.072813 
L 106.33 86.072813 
L 106.33 79.072813 
L 86.33 79.072813 
z
" style="fill:#2ca02c;"/>
    </g>
    <g id="text_32">
     <!-- cas add -->
     <g transform="translate(114.33 86.072813)scale(0.1 -0.1)">
      <use xlink:href="#DejaVuSans-99"/>
      <use x="54.980469" xlink:href="#DejaVuSans-97"/>
      <use x="116.259766" xlink:href="#DejaVuSans-115"/>
      <use x="168.359375" xlink:href="#DejaVuSans-32"/>
      <use x="200.146484" xlink:href="#DejaVuSans-97"/>
      <use x="261.425781" xlink:href="#DejaVuSans-100"/>
      <use x="324.902344" xlink:href="#DejaVuSans-100"/>
     </g>
    </g>
    <g id="patch_130">
     <path d="M 86.33 100.750938 
L 106.33 100.750938 
L 106.33 93.750938 
L 86.33 93.750938 
z
" style="fill:#d62728;"/>
    </g>
    <g id="text_33">
     <!-- ticket yield -->
     <defs>
      <path d="M 32.171875 -5.078125 
Q 28.375 -14.84375 24.75 -17.8125 
Q 21.140625 -20.796875 15.09375 -20.796875 
L 7.90625 -20.796875 
L 7.90625 -13.28125 
L 13.1875 -13.28125 
Q 16.890625 -13.28125 18.9375 -11.515625 
Q 21 -9.765625 23.484375 -3.21875 
L 25.09375 0.875 
L 2.984375 54.6875 
L 12.5 54.6875 
L 29.59375 11.921875 
L 46.6875 54.6875 
L 56.203125 54.6875 
z
" id="DejaVuSans-121"/>
     </defs>
     <g transform="translate(114.33 100.750938)scale(0.1 -0.1)">
      <use xlink:href="#DejaVuSans-116"/>
      <use x="39.208984" xlink:href="#DejaVuSans-105"/>
      <use x="66.992188" xlink:href="#DejaVuSans-99"/>
      <use x="121.972656" xlink:href="#DejaVuSans-107"/>
      <use x="179.835938" xlink:href="#DejaVuSans-101"/>
      <use x="241.359375" xlink:href="#DejaVuSans-116"/>
      <use x="280.568359" xlink:href="#DejaVuSans-32"/>
      <use x="312.355469" xlink:href="#DejaVuSans-121"/>
      <use x="371.535156" xlink:href="#DejaVuSans-105"/>
      <use x="399.318359" xlink:href="#DejaVuSans-101"/>
      <use x="460.841797" xlink:href="#DejaVuSans-108"/>
      <use x="488.625" xlink:href="#DejaVuSans-100"/>
     </g>
    </g>
    <g id="patch_131">
     <path d="M 86.33 115.429063 
L 106.33 115.429063 
L 106.33 108.429063 
L 86.33 108.429063 
z
" style="fill:#9467bd;"/>
    </g>
    <g id="text_34">
     <!-- ticket blocking -->
     <defs>
      <path d="M 45.40625 27.984375 
Q 45.40625 37.75 41.375 43.109375 
Q 37.359375 48.484375 30.078125 48.484375 
Q 22.859375 48.484375 18.828125 43.109375 
Q 14.796875 37.75 14.796875 27.984375 
Q 14.796875 18.265625 18.828125 12.890625 
Q 22.859375 7.515625 30.078125 7.515625 
Q 37.359375 7.515625 41.375 12.890625 
Q 45.40625 18.265625 45.40625 27.984375 
z
M 54.390625 6.78125 
Q 54.390625 -7.171875 48.1875 -13.984375 
Q 42 -20.796875 29.203125 -20.796875 
Q 24.46875 -20.796875 20.265625 -20.09375 
Q 16.0625 -19.390625 12.109375 -17.921875 
L 12.109375 -9.1875 
Q 16.0625 -11.328125 19.921875 -12.34375 
Q 23.78125 -13.375 27.78125 -13.375 
Q 36.625 -13.375 41.015625 -8.765625 
Q 45.40625 -4.15625 45.40625 5.171875 
L 45.40625 9.625 
Q 42.625 4.78125 38.28125 2.390625 
Q 33.9375 0 27.875 0 
Q 17.828125 0 11.671875 7.65625 
Q 5.515625 15.328125 5.515625 27.984375 
Q 5.515625 40.671875 11.671875 48.328125 
Q 17.828125 56 27.875 56 
Q 33.9375 56 38.28125 53.609375 
Q 42.625 51.21875 45.40625 46.390625 
L 45.40625 54.6875 
L 54.390625 54.6875 
z
" id="DejaVuSans-103"/>
     </defs>
     <g transform="translate(114.33 115.429063)scale(0.1 -0.1)">
      <use xlink:href="#DejaVuSans-116"/>
      <use x="39.208984" xlink:href="#DejaVuSans-105"/>
      <use x="66.992188" xlink:href="#DejaVuSans-99"/>
      <use x="121.972656" xlink:href="#DejaVuSans-107"/>
      <use x="179.835938" xlink:href="#DejaVuSans-101"/>
      <use x="241.359375" xlink:href="#DejaVuSans-116"/>
      <use x="280.568359" xlink:href="#DejaVuSans-32"/>
      <use x="312.355469" xlink:href="#DejaVuSans-98"/>
      <use x="375.832031" xlink:href="#DejaVuSans-108"/>
      <use x="403.615234" xlink:href="#DejaVuSans-111"/>
      <use x="464.796875" xlink:href="#DejaVuSans-99"/>
      <use x="519.777344" xlink:href="#DejaVuSans-107"/>
      <use x="577.6875" xlink:href="#DejaVuSans-105"/>
      <use x="605.470703" xlink:href="#DejaVuSans-110"/>
      <use x="668.849609" xlink:href="#DejaVuSans-103"/>
     </g>
    </g>
    <g id="patch_132">
     <path d="M 86.33 130.107188 
L 106.33 130.107188 
L 106.33 123.107188 
L 86.33 123.107188 
z
" style="fill:#8c564b;"/>
    </g>
    <g id="text_35">
     <!-- queued fifo -->
     <defs>
      <path d="M 14.796875 27.296875 
Q 14.796875 17.390625 18.875 11.75 
Q 22.953125 6.109375 30.078125 6.109375 
Q 37.203125 6.109375 41.296875 11.75 
Q 45.40625 17.390625 45.40625 27.296875 
Q 45.40625 37.203125 41.296875 42.84375 
Q 37.203125 48.484375 30.078125 48.484375 
Q 22.953125 48.484375 18.875 42.84375 
Q 14.796875 37.203125 14.796875 27.296875 
z
M 45.40625 8.203125 
Q 42.578125 3.328125 38.25 0.953125 
Q 33.9375 -1.421875 27.875 -1.421875 
Q 17.96875 -1.421875 11.734375 6.484375 
Q 5.515625 14.40625 5.515625 27.296875 
Q 5.515625 40.1875 11.734375 48.09375 
Q 17.96875 56 27.875 56 
Q 33.9375 56 38.25 53.625 
Q 42.578125 51.265625 45.40625 46.390625 
L 45.40625 54.6875 
L 54.390625 54.6875 
L 54.390625 -20.796875 
L 45.40625 -20.796875 
z
" id="DejaVuSans-113"/>
      <path d="M 37.109375 75.984375 
L 37.109375 68.5 
L 28.515625 68.5 
Q 23.6875 68.5 21.796875 66.546875 
Q 19.921875 64.59375 19.921875 59.515625 
L 19.921875 54.6875 
L 34.71875 54.6875 
L 34.71875 47.703125 
L 19.921875 47.703125 
L 19.921875 0 
L 10.890625 0 
L 10.890625 47.703125 
L 2.296875 47.703125 
L 2.296875 54.6875 
L 10.890625 54.6875 
L 10.890625 58.5 
Q 10.890625 67.625 15.140625 71.796875 
Q 19.390625 75.984375 28.609375 75.984375 
z
" id="DejaVuSans-102"/>
     </defs>
     <g transform="translate(114.33 130.107188)scale(0.1 -0.1)">
      <use xlink:href="#DejaVuSans-113"/>
      <use x="63.476562" xlink:href="#DejaVuSans-117"/>
      <use x="126.855469" xlink:href="#DejaVuSans-101"/>
      <use x="188.378906" xlink:href="#DejaVuSans-117"/>
      <use x="251.757812" xlink:href="#DejaVuSans-101"/>
      <use x="313.28125" xlink:href="#DejaVuSans-100"/>
      <use x="376.757812" xlink:href="#DejaVuSans-32"/>
      <use x="408.544922" xlink:href="#DejaVuSans-102"/>
      <use x="443.75" xlink:href="#DejaVuSans-105"/>
      <use x="471.533203" xlink:href="#DejaVuSans-102"/>
      <use x="506.738281" xlink:href="#DejaVuSans-111"/>
     </g>
    </g>
    <g id="patch_133">
     <path d="M 86.33 144.785313 
L 106.33 144.785313 
L 106.33 137.785313 
L 86.33 137.785313 
z
" style="fill:#e377c2;"/>
    </g>
    <g id="text_36">
     <!-- ticket spin -->
     <g transform="translate(114.33 144.785313)scale(0.1 -0.1)">
      <use xlink:href="#DejaVuSans-116"/>
      <use x="39.208984" xlink:href="#DejaVuSans-105"/>
      <use x="66.992188" xlink:href="#DejaVuSans-99"/>
      <use x="121.972656" xlink:href="#DejaVuSans-107"/>
      <use x="179.835938" xlink:href="#DejaVuSans-101"/>
      <use x="241.359375" xlink:href="#DejaVuSans-116"/>
      <use x="280.568359" xlink:href="#DejaVuSans-32"/>
      <use x="312.355469" xlink:href="#DejaVuSans-115"/>
      <use x="364.455078" xlink:href="#DejaVuSans-112"/>
      <use x="427.931641" xlink:href="#DejaVuSans-105"/>
      <use x="455.714844" xlink:href="#DejaVuSans-110"/>
     </g>
    </g>
   </g>
  </g>
 </g>
 <defs>
  <clipPath id="p2b8a11e210">
   <rect height="363.88" width="559.87" x="77.33" y="25.44"/>
  </clipPath>
 </defs>
</svg>
