<?xml version="1.0" encoding="UTF-8" standalone="no"?>
<!-- Created with Inkscape (http://www.inkscape.org/) -->
<svg id="svg4941" xmlns:rdf="http://www.w3.org/1999/02/22-rdf-syntax-ns#" xmlns="http://www.w3.org/2000/svg" height="384.39mm" width="296.9mm" version="1.1" xmlns:cc="http://creativecommons.org/ns#" xmlns:dc="http://purl.org/dc/elements/1.1/" viewBox="0 0 1052 1361.9999">
 <metadata id="metadata4946">
  <rdf:RDF>
   <cc:Work rdf:about="">
    <dc:format>image/svg+xml</dc:format>
    <dc:type rdf:resource="http://purl.org/dc/dcmitype/StillImage"/>
    <dc:title/>
   </cc:Work>
  </rdf:RDF>
 </metadata>
 <g id="layer1" transform="translate(665 172.64)">
  <g id="g4153">
   <rect id="rect4151" height="1362" width="1052" y="-172.64" x="-665"/>
   <path id="path5502" d="m360 75l-35 30 50 55h190l50-45-35-40h-220zm340 0l-55 45 40 40h180l70-60-25-25h-210zm-395 40l-32.5 32.5-85 475 37.5 40 52.5-45 80-445-52.5-57.5zm640 2.5l-65 60-85 445 35 40 52.5-47.5 90-465-27.5-32.5zm-80 67.5l-90 75-134.42 185.7-110.58 224.3 95-55 215-300 25-130zm-348.29 496.57l-93.72 53.57-212.99 299.86-20 130 85-75 140-200 101.71-208.43zm305.79 8.43l-55 50-75 445 47.5 52.5 37.5-30 82.5-477.5-37.5-40zm-602.5 2.5l-55 47.5-90 475 27.5 25 70-60 82.5-445-35-42.5zm-40 507.5l-67.5 60 22.5 22.5h217.5l50-47.5-30-35h-192.5zm310 0l-52.5 40 35 42.5h217.5l32.5-30-47.5-52.5h-185z" fill-rule="evenodd" transform="translate(-665 -172.64)" fill="#ff4a00"/>
   <path id="path5576" d="m625 130l-55 50-60 305 15 170 80-165 60-320-40-40zm-260 55l-20 125 110 310 60 50-15-180-80-245-55-60zm-80 452.5l-47.5 42.5 32.5 40h157.5l77.5-45-47.5-37.5h-172.5zm330 0l-75 40 52.5 42.5h165l52.5-47.5-32.5-35h-162.5zm-85 45l17.5 187.5 85 237.5 52.5 67.5 20-125-117.5-320-57.5-47.5zm-10 17.29l-80 170.21-55 310 37.5 42.5 57.5-45 54.43-329.07-14.43-148.64zm407 487.21a50 50 0 0 0 -50 50 50 50 0 0 0 50 50 50 50 0 0 0 50 -50 50 50 0 0 0 -50 -50z" fill-rule="evenodd" transform="translate(-665 -172.64)" fill="#141414"/>
  </g>
 </g>
</svg>
