<?xml version="1.0" encoding="utf-8" standalone="no"?>
<!DOCTYPE svg PUBLIC "-//W3C//DTD SVG 1.1//EN"
  "http://www.w3.org/Graphics/SVG/1.1/DTD/svg11.dtd">
<!-- Created with matplotlib (https://matplotlib.org/) -->
<svg height="432pt" version="1.1" viewBox="0 0 648 432" width="648pt" xmlns="http://www.w3.org/2000/svg" xmlns:xlink="http://www.w3.org/1999/xlink">
 <defs>
  <style type="text/css">
*{stroke-linecap:butt;stroke-linejoin:round;}
  </style>
 </defs>
 <g id="figure_1">
  <g id="patch_1">
   <path d="M 0 432 
L 648 432 
L 648 0 
L 0 0 
z
" style="fill:#ffffff;"/>
  </g>
  <g id="axes_1">
   <g id="patch_2">
    <path d="M 70.94 389.32 
L 637.2 389.32 
L 637.2 25.44 
L 70.94 25.44 
z
" style="fill:#ffffff;"/>
   </g>
   <g id="patch_3">
    <path clip-path="url(#p362939adce)" d="M 80.377667 389.32 
L 83.074143 389.32 
L 83.074143 389.117071 
L 80.377667 389.117071 
z
" style="fill:#1f77b4;"/>
   </g>
   <g id="patch_4">
    <path clip-path="url(#p362939adce)" d="M 118.128333 389.32 
L 120.82481 389.32 
L 120.82481 389.11832 
L 118.128333 389.11832 
z
" style="fill:#1f77b4;"/>
   </g>
   <g id="patch_5">
    <path clip-path="url(#p362939adce)" d="M 155.879 389.32 
L 158.575476 389.32 
L 158.575476 388.942334 
L 155.879 388.942334 
z
" style="fill:#1f77b4;"/>
   </g>
   <g id="patch_6">
    <path clip-path="url(#p362939adce)" d="M 193.629667 389.32 
L 196.326143 389.32 
L 196.326143 389.032167 
L 193.629667 389.032167 
z
" style="fill:#1f77b4;"/>
   </g>
   <g id="patch_7">
    <path clip-path="url(#p362939adce)" d="M 231.380333 389.32 
L 234.07681 389.32 
L 234.07681 388.842644 
L 231.380333 388.842644 
z
" style="fill:#1f77b4;"/>
   </g>
   <g id="patch_8">
    <path clip-path="url(#p362939adce)" d="M 269.131 389.32 
L 271.827476 389.32 
L 271.827476 388.746173 
L 269.131 388.746173 
z
" style="fill:#1f77b4;"/>
   </g>
   <g id="patch_9">
    <path clip-path="url(#p362939adce)" d="M 306.881667 389.32 
L 309.578143 389.32 
L 309.578143 388.666198 
L 306.881667 388.666198 
z
" style="fill:#1f77b4;"/>
   </g>
   <g id="patch_10">
    <path clip-path="url(#p362939adce)" d="M 344.632333 389.32 
L 347.32881 389.32 
L 347.32881 388.593517 
L 344.632333 388.593517 
z
" style="fill:#1f77b4;"/>
   </g>
   <g id="patch_11">
    <path clip-path="url(#p362939adce)" d="M 382.383 389.32 
L 385.079476 389.32 
L 385.079476 388.497375 
L 382.383 388.497375 
z
" style="fill:#1f77b4;"/>
   </g>
   <g id="patch_12">
    <path clip-path="url(#p362939adce)" d="M 420.133667 389.32 
L 422.830143 389.32 
L 422.830143 388.419437 
L 420.133667 388.419437 
z
" style="fill:#1f77b4;"/>
   </g>
   <g id="patch_13">
    <path clip-path="url(#p362939adce)" d="M 457.884333 389.32 
L 460.58081 389.32 
L 460.58081 388.349778 
L 457.884333 388.349778 
z
" style="fill:#1f77b4;"/>
   </g>
   <g id="patch_14">
    <path clip-path="url(#p362939adce)" d="M 495.635 389.32 
L 498.331476 389.32 
L 498.331476 388.272366 
L 495.635 388.272366 
z
" style="fill:#1f77b4;"/>
   </g>
   <g id="patch_15">
    <path clip-path="url(#p362939adce)" d="M 533.385667 389.32 
L 536.082143 389.32 
L 536.082143 388.200539 
L 533.385667 388.200539 
z
" style="fill:#1f77b4;"/>
   </g>
   <g id="patch_16">
    <path clip-path="url(#p362939adce)" d="M 571.136333 389.32 
L 573.83281 389.32 
L 573.83281 388.092503 
L 571.136333 388.092503 
z
" style="fill:#1f77b4;"/>
   </g>
   <g id="patch_17">
    <path clip-path="url(#p362939adce)" d="M 608.887 389.32 
L 611.583476 389.32 
L 611.583476 387.992484 
L 608.887 387.992484 
z
" style="fill:#1f77b4;"/>
   </g>
   <g id="patch_18">
    <path clip-path="url(#p362939adce)" d="M 83.074143 389.32 
L 85.770619 389.32 
L 85.770619 389.308828 
L 83.074143 389.308828 
z
" style="fill:#ff7f0e;"/>
   </g>
   <g id="patch_19">
    <path clip-path="url(#p362939adce)" d="M 120.82481 389.32 
L 123.521286 389.32 
L 123.521286 389.302783 
L 120.82481 389.302783 
z
" style="fill:#ff7f0e;"/>
   </g>
   <g id="patch_20">
    <path clip-path="url(#p362939adce)" d="M 158.575476 389.32 
L 161.271952 389.32 
L 161.271952 389.297197 
L 158.575476 389.297197 
z
" style="fill:#ff7f0e;"/>
   </g>
   <g id="patch_21">
    <path clip-path="url(#p362939adce)" d="M 196.326143 389.32 
L 199.022619 389.32 
L 199.022619 389.290034 
L 196.326143 389.290034 
z
" style="fill:#ff7f0e;"/>
   </g>
   <g id="patch_22">
    <path clip-path="url(#p362939adce)" d="M 234.07681 389.32 
L 236.773286 389.32 
L 236.773286 389.283002 
L 234.07681 389.283002 
z
" style="fill:#ff7f0e;"/>
   </g>
   <g id="patch_23">
    <path clip-path="url(#p362939adce)" d="M 271.827476 389.32 
L 274.523952 389.32 
L 274.523952 389.276628 
L 271.827476 389.276628 
z
" style="fill:#ff7f0e;"/>
   </g>
   <g id="patch_24">
    <path clip-path="url(#p362939adce)" d="M 309.578143 389.32 
L 312.274619 389.32 
L 312.274619 389.270385 
L 309.578143 389.270385 
z
" style="fill:#ff7f0e;"/>
   </g>
   <g id="patch_25">
    <path clip-path="url(#p362939adce)" d="M 347.32881 389.32 
L 350.025286 389.32 
L 350.025286 389.264405 
L 347.32881 389.264405 
z
" style="fill:#ff7f0e;"/>
   </g>
   <g id="patch_26">
    <path clip-path="url(#p362939adce)" d="M 385.079476 389.32 
L 387.775952 389.32 
L 387.775952 389.258359 
L 385.079476 389.258359 
z
" style="fill:#ff7f0e;"/>
   </g>
   <g id="patch_27">
    <path clip-path="url(#p362939adce)" d="M 422.830143 389.32 
L 425.526619 389.32 
L 425.526619 389.251393 
L 422.830143 389.251393 
z
" style="fill:#ff7f0e;"/>
   </g>
   <g id="patch_28">
    <path clip-path="url(#p362939adce)" d="M 460.58081 389.32 
L 463.277286 389.32 
L 463.277286 389.24469 
L 460.58081 389.24469 
z
" style="fill:#ff7f0e;"/>
   </g>
   <g id="patch_29">
    <path clip-path="url(#p362939adce)" d="M 498.331476 389.32 
L 501.027952 389.32 
L 501.027952 389.238644 
L 498.331476 389.238644 
z
" style="fill:#ff7f0e;"/>
   </g>
   <g id="patch_30">
    <path clip-path="url(#p362939adce)" d="M 536.082143 389.32 
L 538.778619 389.32 
L 538.778619 389.23273 
L 536.082143 389.23273 
z
" style="fill:#ff7f0e;"/>
   </g>
   <g id="patch_31">
    <path clip-path="url(#p362939adce)" d="M 573.83281 389.32 
L 576.529286 389.32 
L 576.529286 389.226947 
L 573.83281 389.226947 
z
" style="fill:#ff7f0e;"/>
   </g>
   <g id="patch_32">
    <path clip-path="url(#p362939adce)" d="M 611.583476 389.32 
L 614.279952 389.32 
L 614.279952 389.22123 
L 611.583476 389.22123 
z
" style="fill:#ff7f0e;"/>
   </g>
   <g id="patch_33">
    <path clip-path="url(#p362939adce)" d="M 85.770619 389.32 
L 88.467095 389.32 
L 88.467095 389.285697 
L 85.770619 389.285697 
z
" style="fill:#2ca02c;"/>
   </g>
   <g id="patch_34">
    <path clip-path="url(#p362939adce)" d="M 123.521286 389.32 
L 126.217762 389.32 
L 126.217762 389.264733 
L 123.521286 389.264733 
z
" style="fill:#2ca02c;"/>
   </g>
   <g id="patch_35">
    <path clip-path="url(#p362939adce)" d="M 161.271952 389.32 
L 163.968429 389.32 
L 163.968429 389.243442 
L 161.271952 389.243442 
z
" style="fill:#2ca02c;"/>
   </g>
   <g id="patch_36">
    <path clip-path="url(#p362939adce)" d="M 199.022619 389.32 
L 201.719095 389.32 
L 201.719095 389.209861 
L 199.022619 389.209861 
z
" style="fill:#2ca02c;"/>
   </g>
   <g id="patch_37">
    <path clip-path="url(#p362939adce)" d="M 236.773286 389.32 
L 239.469762 389.32 
L 239.469762 389.17674 
L 236.773286 389.17674 
z
" style="fill:#2ca02c;"/>
   </g>
   <g id="patch_38">
    <path clip-path="url(#p362939adce)" d="M 274.523952 389.32 
L 277.220429 389.32 
L 277.220429 389.138166 
L 274.523952 389.138166 
z
" style="fill:#2ca02c;"/>
   </g>
   <g id="patch_39">
    <path clip-path="url(#p362939adce)" d="M 312.274619 389.32 
L 314.971095 389.32 
L 314.971095 389.107542 
L 312.274619 389.107542 
z
" style="fill:#2ca02c;"/>
   </g>
   <g id="patch_40">
    <path clip-path="url(#p362939adce)" d="M 350.025286 389.32 
L 352.721762 389.32 
L 352.721762 389.081913 
L 350.025286 389.081913 
z
" style="fill:#2ca02c;"/>
   </g>
   <g id="patch_41">
    <path clip-path="url(#p362939adce)" d="M 387.775952 389.32 
L 390.472429 389.32 
L 390.472429 389.056087 
L 387.775952 389.056087 
z
" style="fill:#2ca02c;"/>
   </g>
   <g id="patch_42">
    <path clip-path="url(#p362939adce)" d="M 425.526619 389.32 
L 428.223095 389.32 
L 428.223095 389.021324 
L 425.526619 389.021324 
z
" style="fill:#2ca02c;"/>
   </g>
   <g id="patch_43">
    <path clip-path="url(#p362939adce)" d="M 463.277286 389.32 
L 465.973762 389.32 
L 465.973762 388.986429 
L 463.277286 388.986429 
z
" style="fill:#2ca02c;"/>
   </g>
   <g id="patch_44">
    <path clip-path="url(#p362939adce)" d="M 501.027952 389.32 
L 503.724429 389.32 
L 503.724429 388.968357 
L 501.027952 388.968357 
z
" style="fill:#2ca02c;"/>
   </g>
   <g id="patch_45">
    <path clip-path="url(#p362939adce)" d="M 538.778619 389.32 
L 541.475095 389.32 
L 541.475095 388.952848 
L 538.778619 388.952848 
z
" style="fill:#2ca02c;"/>
   </g>
   <g id="patch_46">
    <path clip-path="url(#p362939adce)" d="M 576.529286 389.32 
L 579.225762 389.32 
L 579.225762 388.925511 
L 576.529286 388.925511 
z
" style="fill:#2ca02c;"/>
   </g>
   <g id="patch_47">
    <path clip-path="url(#p362939adce)" d="M 614.279952 389.32 
L 616.976429 389.32 
L 616.976429 388.900276 
L 614.279952 388.900276 
z
" style="fill:#2ca02c;"/>
   </g>
   <g id="patch_48">
    <path clip-path="url(#p362939adce)" d="M 88.467095 389.32 
L 91.163571 389.32 
L 91.163571 389.081782 
L 88.467095 389.081782 
z
" style="fill:#d62728;"/>
   </g>
   <g id="patch_49">
    <path clip-path="url(#p362939adce)" d="M 126.217762 389.32 
L 128.914238 389.32 
L 128.914238 388.976046 
L 126.217762 388.976046 
z
" style="fill:#d62728;"/>
   </g>
   <g id="patch_50">
    <path clip-path="url(#p362939adce)" d="M 163.968429 389.32 
L 166.664905 389.32 
L 166.664905 388.658772 
L 163.968429 388.658772 
z
" style="fill:#d62728;"/>
   </g>
   <g id="patch_51">
    <path clip-path="url(#p362939adce)" d="M 201.719095 389.32 
L 204.415571 389.32 
L 204.415571 388.480026 
L 201.719095 388.480026 
z
" style="fill:#d62728;"/>
   </g>
   <g id="patch_52">
    <path clip-path="url(#p362939adce)" d="M 239.469762 389.32 
L 242.166238 389.32 
L 242.166238 388.356284 
L 239.469762 388.356284 
z
" style="fill:#d62728;"/>
   </g>
   <g id="patch_53">
    <path clip-path="url(#p362939adce)" d="M 277.220429 389.32 
L 279.916905 389.32 
L 279.916905 387.956998 
L 277.220429 387.956998 
z
" style="fill:#d62728;"/>
   </g>
   <g id="patch_54">
    <path clip-path="url(#p362939adce)" d="M 314.971095 389.32 
L 317.667571 389.32 
L 317.667571 387.584391 
L 314.971095 387.584391 
z
" style="fill:#d62728;"/>
   </g>
   <g id="patch_55">
    <path clip-path="url(#p362939adce)" d="M 352.721762 389.32 
L 355.418238 389.32 
L 355.418238 387.208171 
L 352.721762 387.208171 
z
" style="fill:#d62728;"/>
   </g>
   <g id="patch_56">
    <path clip-path="url(#p362939adce)" d="M 390.472429 389.32 
L 393.168905 389.32 
L 393.168905 386.833199 
L 390.472429 386.833199 
z
" style="fill:#d62728;"/>
   </g>
   <g id="patch_57">
    <path clip-path="url(#p362939adce)" d="M 428.223095 389.32 
L 430.919571 389.32 
L 430.919571 386.439564 
L 428.223095 386.439564 
z
" style="fill:#d62728;"/>
   </g>
   <g id="patch_58">
    <path clip-path="url(#p362939adce)" d="M 465.973762 389.32 
L 468.670238 389.32 
L 468.670238 385.972656 
L 465.973762 385.972656 
z
" style="fill:#d62728;"/>
   </g>
   <g id="patch_59">
    <path clip-path="url(#p362939adce)" d="M 503.724429 389.32 
L 506.420905 389.32 
L 506.420905 385.440822 
L 503.724429 385.440822 
z
" style="fill:#d62728;"/>
   </g>
   <g id="patch_60">
    <path clip-path="url(#p362939adce)" d="M 541.475095 389.32 
L 544.171571 389.32 
L 544.171571 384.894201 
L 541.475095 384.894201 
z
" style="fill:#d62728;"/>
   </g>
   <g id="patch_61">
    <path clip-path="url(#p362939adce)" d="M 579.225762 389.32 
L 581.922238 389.32 
L 581.922238 384.38195 
L 579.225762 384.38195 
z
" style="fill:#d62728;"/>
   </g>
   <g id="patch_62">
    <path clip-path="url(#p362939adce)" d="M 616.976429 389.32 
L 619.672905 389.32 
L 619.672905 383.729922 
L 616.976429 383.729922 
z
" style="fill:#d62728;"/>
   </g>
   <g id="patch_63">
    <path clip-path="url(#p362939adce)" d="M 91.163571 389.32 
L 93.860048 389.32 
L 93.860048 383.099843 
L 91.163571 383.099843 
z
" style="fill:#9467bd;"/>
   </g>
   <g id="patch_64">
    <path clip-path="url(#p362939adce)" d="M 128.914238 389.32 
L 131.610714 389.32 
L 131.610714 371.537882 
L 128.914238 371.537882 
z
" style="fill:#9467bd;"/>
   </g>
   <g id="patch_65">
    <path clip-path="url(#p362939adce)" d="M 166.664905 389.32 
L 169.361381 389.32 
L 169.361381 371.87165 
L 166.664905 371.87165 
z
" style="fill:#9467bd;"/>
   </g>
   <g id="patch_66">
    <path clip-path="url(#p362939adce)" d="M 204.415571 389.32 
L 207.112048 389.32 
L 207.112048 359.710758 
L 204.415571 359.710758 
z
" style="fill:#9467bd;"/>
   </g>
   <g id="patch_67">
    <path clip-path="url(#p362939adce)" d="M 242.166238 389.32 
L 244.862714 389.32 
L 244.862714 339.558681 
L 242.166238 339.558681 
z
" style="fill:#9467bd;"/>
   </g>
   <g id="patch_68">
    <path clip-path="url(#p362939adce)" d="M 279.916905 389.32 
L 282.613381 389.32 
L 282.613381 321.398568 
L 279.916905 321.398568 
z
" style="fill:#9467bd;"/>
   </g>
   <g id="patch_69">
    <path clip-path="url(#p362939adce)" d="M 317.667571 389.32 
L 320.364048 389.32 
L 320.364048 301.638614 
L 317.667571 301.638614 
z
" style="fill:#9467bd;"/>
   </g>
   <g id="patch_70">
    <path clip-path="url(#p362939adce)" d="M 355.418238 389.32 
L 358.114714 389.32 
L 358.114714 278.557603 
L 355.418238 278.557603 
z
" style="fill:#9467bd;"/>
   </g>
   <g id="patch_71">
    <path clip-path="url(#p362939adce)" d="M 393.168905 389.32 
L 395.865381 389.32 
L 395.865381 253.973353 
L 393.168905 253.973353 
z
" style="fill:#9467bd;"/>
   </g>
   <g id="patch_72">
    <path clip-path="url(#p362939adce)" d="M 430.919571 389.32 
L 433.616048 389.32 
L 433.616048 226.879892 
L 430.919571 226.879892 
z
" style="fill:#9467bd;"/>
   </g>
   <g id="patch_73">
    <path clip-path="url(#p362939adce)" d="M 468.670238 389.32 
L 471.366714 389.32 
L 471.366714 195.585577 
L 468.670238 195.585577 
z
" style="fill:#9467bd;"/>
   </g>
   <g id="patch_74">
    <path clip-path="url(#p362939adce)" d="M 506.420905 389.32 
L 509.117381 389.32 
L 509.117381 162.716262 
L 506.420905 162.716262 
z
" style="fill:#9467bd;"/>
   </g>
   <g id="patch_75">
    <path clip-path="url(#p362939adce)" d="M 544.171571 389.32 
L 546.868048 389.32 
L 546.868048 124.130696 
L 544.171571 124.130696 
z
" style="fill:#9467bd;"/>
   </g>
   <g id="patch_76">
    <path clip-path="url(#p362939adce)" d="M 581.922238 389.32 
L 584.618714 389.32 
L 584.618714 85.725649 
L 581.922238 85.725649 
z
" style="fill:#9467bd;"/>
   </g>
   <g id="patch_77">
    <path clip-path="url(#p362939adce)" d="M 619.672905 389.32 
L 622.369381 389.32 
L 622.369381 46.060445 
L 619.672905 46.060445 
z
" style="fill:#9467bd;"/>
   </g>
   <g id="patch_78">
    <path clip-path="url(#p362939adce)" d="M 93.860048 389.32 
L 96.556524 389.32 
L 96.556524 384.90465 
L 93.860048 384.90465 
z
" style="fill:#8c564b;"/>
   </g>
   <g id="patch_79">
    <path clip-path="url(#p362939adce)" d="M 131.610714 389.32 
L 134.30719 389.32 
L 134.30719 379.452443 
L 131.610714 379.452443 
z
" style="fill:#8c564b;"/>
   </g>
   <g id="patch_80">
    <path clip-path="url(#p362939adce)" d="M 169.361381 389.32 
L 172.057857 389.32 
L 172.057857 376.46614 
L 169.361381 376.46614 
z
" style="fill:#8c564b;"/>
   </g>
   <g id="patch_81">
    <path clip-path="url(#p362939adce)" d="M 207.112048 389.32 
L 209.808524 389.32 
L 209.808524 372.403419 
L 207.112048 372.403419 
z
" style="fill:#8c564b;"/>
   </g>
   <g id="patch_82">
    <path clip-path="url(#p362939adce)" d="M 244.862714 389.32 
L 247.55919 389.32 
L 247.55919 369.050884 
L 244.862714 369.050884 
z
" style="fill:#8c564b;"/>
   </g>
   <g id="patch_83">
    <path clip-path="url(#p362939adce)" d="M 282.613381 389.32 
L 285.309857 389.32 
L 285.309857 365.809802 
L 282.613381 365.809802 
z
" style="fill:#8c564b;"/>
   </g>
   <g id="patch_84">
    <path clip-path="url(#p362939adce)" d="M 320.364048 389.32 
L 323.060524 389.32 
L 323.060524 362.592969 
L 320.364048 362.592969 
z
" style="fill:#8c564b;"/>
   </g>
   <g id="patch_85">
    <path clip-path="url(#p362939adce)" d="M 358.114714 389.32 
L 360.81119 389.32 
L 360.81119 359.633674 
L 358.114714 359.633674 
z
" style="fill:#8c564b;"/>
   </g>
   <g id="patch_86">
    <path clip-path="url(#p362939adce)" d="M 395.865381 389.32 
L 398.561857 389.32 
L 398.561857 356.594536 
L 395.865381 356.594536 
z
" style="fill:#8c564b;"/>
   </g>
   <g id="patch_87">
    <path clip-path="url(#p362939adce)" d="M 433.616048 389.32 
L 436.312524 389.32 
L 436.312524 352.956927 
L 433.616048 352.956927 
z
" style="fill:#8c564b;"/>
   </g>
   <g id="patch_88">
    <path clip-path="url(#p362939adce)" d="M 471.366714 389.32 
L 474.06319 389.32 
L 474.06319 349.250121 
L 471.366714 349.250121 
z
" style="fill:#8c564b;"/>
   </g>
   <g id="patch_89">
    <path clip-path="url(#p362939adce)" d="M 509.117381 389.32 
L 511.813857 389.32 
L 511.813857 346.535616 
L 509.117381 346.535616 
z
" style="fill:#8c564b;"/>
   </g>
   <g id="patch_90">
    <path clip-path="url(#p362939adce)" d="M 546.868048 389.32 
L 549.564524 389.32 
L 549.564524 343.495032 
L 546.868048 343.495032 
z
" style="fill:#8c564b;"/>
   </g>
   <g id="patch_91">
    <path clip-path="url(#p362939adce)" d="M 584.618714 389.32 
L 587.31519 389.32 
L 587.31519 339.856569 
L 584.618714 339.856569 
z
" style="fill:#8c564b;"/>
   </g>
   <g id="patch_92">
    <path clip-path="url(#p362939adce)" d="M 622.369381 389.32 
L 625.065857 389.32 
L 625.065857 337.021148 
L 622.369381 337.021148 
z
" style="fill:#8c564b;"/>
   </g>
   <g id="patch_93">
    <path clip-path="url(#p362939adce)" d="M 96.556524 389.32 
L 99.253 389.32 
L 99.253 389.145394 
L 96.556524 389.145394 
z
" style="fill:#e377c2;"/>
   </g>
   <g id="patch_94">
    <path clip-path="url(#p362939adce)" d="M 134.30719 389.32 
L 137.003667 389.32 
L 137.003667 389.011203 
L 134.30719 389.011203 
z
" style="fill:#e377c2;"/>
   </g>
   <g id="patch_95">
    <path clip-path="url(#p362939adce)" d="M 172.057857 389.32 
L 174.754333 389.32 
L 174.754333 388.872018 
L 172.057857 388.872018 
z
" style="fill:#e377c2;"/>
   </g>
   <g id="patch_96">
    <path clip-path="url(#p362939adce)" d="M 209.808524 389.32 
L 212.505 389.32 
L 212.505 388.690381 
L 209.808524 388.690381 
z
" style="fill:#e377c2;"/>
   </g>
   <g id="patch_97">
    <path clip-path="url(#p362939adce)" d="M 247.55919 389.32 
L 250.255667 389.32 
L 250.255667 388.489292 
L 247.55919 388.489292 
z
" style="fill:#e377c2;"/>
   </g>
   <g id="patch_98">
    <path clip-path="url(#p362939adce)" d="M 285.309857 389.32 
L 288.006333 389.32 
L 288.006333 388.253965 
L 285.309857 388.253965 
z
" style="fill:#e377c2;"/>
   </g>
   <g id="patch_99">
    <path clip-path="url(#p362939adce)" d="M 323.060524 389.32 
L 325.757 389.32 
L 325.757 388.008584 
L 323.060524 388.008584 
z
" style="fill:#e377c2;"/>
   </g>
   <g id="patch_100">
    <path clip-path="url(#p362939adce)" d="M 360.81119 389.32 
L 363.507667 389.32 
L 363.507667 387.743751 
L 360.81119 387.743751 
z
" style="fill:#e377c2;"/>
   </g>
   <g id="patch_101">
    <path clip-path="url(#p362939adce)" d="M 398.561857 389.32 
L 401.258333 389.32 
L 401.258333 387.487724 
L 398.561857 387.487724 
z
" style="fill:#e377c2;"/>
   </g>
   <g id="patch_102">
    <path clip-path="url(#p362939adce)" d="M 436.312524 389.32 
L 439.009 389.32 
L 439.009 387.091592 
L 436.312524 387.091592 
z
" style="fill:#e377c2;"/>
   </g>
   <g id="patch_103">
    <path clip-path="url(#p362939adce)" d="M 474.06319 389.32 
L 476.759667 389.32 
L 476.759667 386.661288 
L 474.06319 386.661288 
z
" style="fill:#e377c2;"/>
   </g>
   <g id="patch_104">
    <path clip-path="url(#p362939adce)" d="M 511.813857 389.32 
L 514.510333 389.32 
L 514.510333 386.223952 
L 511.813857 386.223952 
z
" style="fill:#e377c2;"/>
   </g>
   <g id="patch_105">
    <path clip-path="url(#p362939adce)" d="M 549.564524 389.32 
L 552.261 389.32 
L 552.261 385.77091 
L 549.564524 385.77091 
z
" style="fill:#e377c2;"/>
   </g>
   <g id="patch_106">
    <path clip-path="url(#p362939adce)" d="M 587.31519 389.32 
L 590.011667 389.32 
L 590.011667 385.305383 
L 587.31519 385.305383 
z
" style="fill:#e377c2;"/>
   </g>
   <g id="patch_107">
    <path clip-path="url(#p362939adce)" d="M 625.065857 389.32 
L 627.762333 389.32 
L 627.762333 384.82428 
L 625.065857 384.82428 
z
" style="fill:#e377c2;"/>
   </g>
   <g id="matplotlib.axis_1">
    <g id="xtick_1">
     <g id="line2d_1">
      <defs>
       <path d="M 0 0 
L 0 3.5 
" id="mfc518bbc66" style="stroke:#000000;stroke-width:0.8;"/>
      </defs>
      <g>
       <use style="stroke:#000000;stroke-width:0.8;" x="89.815333" xlink:href="#mfc518bbc66" y="389.32"/>
      </g>
     </g>
     <g id="text_1">
      <!-- 2 -->
      <defs>
       <path d="M 19.1875 8.296875 
L 53.609375 8.296875 
L 53.609375 0 
L 7.328125 0 
L 7.328125 8.296875 
Q 12.9375 14.109375 22.625 23.890625 
Q 32.328125 33.6875 34.8125 36.53125 
Q 39.546875 41.84375 41.421875 45.53125 
Q 43.3125 49.21875 43.3125 52.78125 
Q 43.3125 58.59375 39.234375 62.25 
Q 35.15625 65.921875 28.609375 65.921875 
Q 23.96875 65.921875 18.8125 64.3125 
Q 13.671875 62.703125 7.8125 59.421875 
L 7.8125 69.390625 
Q 13.765625 71.78125 18.9375 73 
Q 24.125 74.21875 28.421875 74.21875 
Q 39.75 74.21875 46.484375 68.546875 
Q 53.21875 62.890625 53.21875 53.421875 
Q 53.21875 48.921875 51.53125 44.890625 
Q 49.859375 40.875 45.40625 35.40625 
Q 44.1875 33.984375 37.640625 27.21875 
Q 31.109375 20.453125 19.1875 8.296875 
z
" id="DejaVuSans-50"/>
      </defs>
      <g transform="translate(86.634083 403.918437)scale(0.1 -0.1)">
       <use xlink:href="#DejaVuSans-50"/>
      </g>
     </g>
    </g>
    <g id="xtick_2">
     <g id="line2d_2">
      <g>
       <use style="stroke:#000000;stroke-width:0.8;" x="127.566" xlink:href="#mfc518bbc66" y="389.32"/>
      </g>
     </g>
     <g id="text_2">
      <!-- 3 -->
      <defs>
       <path d="M 40.578125 39.3125 
Q 47.65625 37.796875 51.625 33 
Q 55.609375 28.21875 55.609375 21.1875 
Q 55.609375 10.40625 48.1875 4.484375 
Q 40.765625 -1.421875 27.09375 -1.421875 
Q 22.515625 -1.421875 17.65625 -0.515625 
Q 12.796875 0.390625 7.625 2.203125 
L 7.625 11.71875 
Q 11.71875 9.328125 16.59375 8.109375 
Q 21.484375 6.890625 26.8125 6.890625 
Q 36.078125 6.890625 40.9375 10.546875 
Q 45.796875 14.203125 45.796875 21.1875 
Q 45.796875 27.640625 41.28125 31.265625 
Q 36.765625 34.90625 28.71875 34.90625 
L 20.21875 34.90625 
L 20.21875 43.015625 
L 29.109375 43.015625 
Q 36.375 43.015625 40.234375 45.921875 
Q 44.09375 48.828125 44.09375 54.296875 
Q 44.09375 59.90625 40.109375 62.90625 
Q 36.140625 65.921875 28.71875 65.921875 
Q 24.65625 65.921875 20.015625 65.03125 
Q 15.375 64.15625 9.8125 62.3125 
L 9.8125 71.09375 
Q 15.4375 72.65625 20.34375 73.4375 
Q 25.25 74.21875 29.59375 74.21875 
Q 40.828125 74.21875 47.359375 69.109375 
Q 53.90625 64.015625 53.90625 55.328125 
Q 53.90625 49.265625 50.4375 45.09375 
Q 46.96875 40.921875 40.578125 39.3125 
z
" id="DejaVuSans-51"/>
      </defs>
      <g transform="translate(124.38475 403.918437)scale(0.1 -0.1)">
       <use xlink:href="#DejaVuSans-51"/>
      </g>
     </g>
    </g>
    <g id="xtick_3">
     <g id="line2d_3">
      <g>
       <use style="stroke:#000000;stroke-width:0.8;" x="165.316667" xlink:href="#mfc518bbc66" y="389.32"/>
      </g>
     </g>
     <g id="text_3">
      <!-- 4 -->
      <defs>
       <path d="M 37.796875 64.3125 
L 12.890625 25.390625 
L 37.796875 25.390625 
z
M 35.203125 72.90625 
L 47.609375 72.90625 
L 47.609375 25.390625 
L 58.015625 25.390625 
L 58.015625 17.1875 
L 47.609375 17.1875 
L 47.609375 0 
L 37.796875 0 
L 37.796875 17.1875 
L 4.890625 17.1875 
L 4.890625 26.703125 
z
" id="DejaVuSans-52"/>
      </defs>
      <g transform="translate(162.135417 403.918437)scale(0.1 -0.1)">
       <use xlink:href="#DejaVuSans-52"/>
      </g>
     </g>
    </g>
    <g id="xtick_4">
     <g id="line2d_4">
      <g>
       <use style="stroke:#000000;stroke-width:0.8;" x="203.067333" xlink:href="#mfc518bbc66" y="389.32"/>
      </g>
     </g>
     <g id="text_4">
      <!-- 5 -->
      <defs>
       <path d="M 10.796875 72.90625 
L 49.515625 72.90625 
L 49.515625 64.59375 
L 19.828125 64.59375 
L 19.828125 46.734375 
Q 21.96875 47.46875 24.109375 47.828125 
Q 26.265625 48.1875 28.421875 48.1875 
Q 40.625 48.1875 47.75 41.5 
Q 54.890625 34.8125 54.890625 23.390625 
Q 54.890625 11.625 47.5625 5.09375 
Q 40.234375 -1.421875 26.90625 -1.421875 
Q 22.3125 -1.421875 17.546875 -0.640625 
Q 12.796875 0.140625 7.71875 1.703125 
L 7.71875 11.625 
Q 12.109375 9.234375 16.796875 8.0625 
Q 21.484375 6.890625 26.703125 6.890625 
Q 35.15625 6.890625 40.078125 11.328125 
Q 45.015625 15.765625 45.015625 23.390625 
Q 45.015625 31 40.078125 35.4375 
Q 35.15625 39.890625 26.703125 39.890625 
Q 22.75 39.890625 18.8125 39.015625 
Q 14.890625 38.140625 10.796875 36.28125 
z
" id="DejaVuSans-53"/>
      </defs>
      <g transform="translate(199.886083 403.918437)scale(0.1 -0.1)">
       <use xlink:href="#DejaVuSans-53"/>
      </g>
     </g>
    </g>
    <g id="xtick_5">
     <g id="line2d_5">
      <g>
       <use style="stroke:#000000;stroke-width:0.8;" x="240.818" xlink:href="#mfc518bbc66" y="389.32"/>
      </g>
     </g>
     <g id="text_5">
      <!-- 6 -->
      <defs>
       <path d="M 33.015625 40.375 
Q 26.375 40.375 22.484375 35.828125 
Q 18.609375 31.296875 18.609375 23.390625 
Q 18.609375 15.53125 22.484375 10.953125 
Q 26.375 6.390625 33.015625 6.390625 
Q 39.65625 6.390625 43.53125 10.953125 
Q 47.40625 15.53125 47.40625 23.390625 
Q 47.40625 31.296875 43.53125 35.828125 
Q 39.65625 40.375 33.015625 40.375 
z
M 52.59375 71.296875 
L 52.59375 62.3125 
Q 48.875 64.0625 45.09375 64.984375 
Q 41.3125 65.921875 37.59375 65.921875 
Q 27.828125 65.921875 22.671875 59.328125 
Q 17.53125 52.734375 16.796875 39.40625 
Q 19.671875 43.65625 24.015625 45.921875 
Q 28.375 48.1875 33.59375 48.1875 
Q 44.578125 48.1875 50.953125 41.515625 
Q 57.328125 34.859375 57.328125 23.390625 
Q 57.328125 12.15625 50.6875 5.359375 
Q 44.046875 -1.421875 33.015625 -1.421875 
Q 20.359375 -1.421875 13.671875 8.265625 
Q 6.984375 17.96875 6.984375 36.375 
Q 6.984375 53.65625 15.1875 63.9375 
Q 23.390625 74.21875 37.203125 74.21875 
Q 40.921875 74.21875 44.703125 73.484375 
Q 48.484375 72.75 52.59375 71.296875 
z
" id="DejaVuSans-54"/>
      </defs>
      <g transform="translate(237.63675 403.918437)scale(0.1 -0.1)">
       <use xlink:href="#DejaVuSans-54"/>
      </g>
     </g>
    </g>
    <g id="xtick_6">
     <g id="line2d_6">
      <g>
       <use style="stroke:#000000;stroke-width:0.8;" x="278.568667" xlink:href="#mfc518bbc66" y="389.32"/>
      </g>
     </g>
     <g id="text_6">
      <!-- 7 -->
      <defs>
       <path d="M 8.203125 72.90625 
L 55.078125 72.90625 
L 55.078125 68.703125 
L 28.609375 0 
L 18.3125 0 
L 43.21875 64.59375 
L 8.203125 64.59375 
z
" id="DejaVuSans-55"/>
      </defs>
      <g transform="translate(275.387417 403.918437)scale(0.1 -0.1)">
       <use xlink:href="#DejaVuSans-55"/>
      </g>
     </g>
    </g>
    <g id="xtick_7">
     <g id="line2d_7">
      <g>
       <use style="stroke:#000000;stroke-width:0.8;" x="316.319333" xlink:href="#mfc518bbc66" y="389.32"/>
      </g>
     </g>
     <g id="text_7">
      <!-- 8 -->
      <defs>
       <path d="M 31.78125 34.625 
Q 24.75 34.625 20.71875 30.859375 
Q 16.703125 27.09375 16.703125 20.515625 
Q 16.703125 13.921875 20.71875 10.15625 
Q 24.75 6.390625 31.78125 6.390625 
Q 38.8125 6.390625 42.859375 10.171875 
Q 46.921875 13.96875 46.921875 20.515625 
Q 46.921875 27.09375 42.890625 30.859375 
Q 38.875 34.625 31.78125 34.625 
z
M 21.921875 38.8125 
Q 15.578125 40.375 12.03125 44.71875 
Q 8.5 49.078125 8.5 55.328125 
Q 8.5 64.0625 14.71875 69.140625 
Q 20.953125 74.21875 31.78125 74.21875 
Q 42.671875 74.21875 48.875 69.140625 
Q 55.078125 64.0625 55.078125 55.328125 
Q 55.078125 49.078125 51.53125 44.71875 
Q 48 40.375 41.703125 38.8125 
Q 48.828125 37.15625 52.796875 32.3125 
Q 56.78125 27.484375 56.78125 20.515625 
Q 56.78125 9.90625 50.3125 4.234375 
Q 43.84375 -1.421875 31.78125 -1.421875 
Q 19.734375 -1.421875 13.25 4.234375 
Q 6.78125 9.90625 6.78125 20.515625 
Q 6.78125 27.484375 10.78125 32.3125 
Q 14.796875 37.15625 21.921875 38.8125 
z
M 18.3125 54.390625 
Q 18.3125 48.734375 21.84375 45.5625 
Q 25.390625 42.390625 31.78125 42.390625 
Q 38.140625 42.390625 41.71875 45.5625 
Q 45.3125 48.734375 45.3125 54.390625 
Q 45.3125 60.0625 41.71875 63.234375 
Q 38.140625 66.40625 31.78125 66.40625 
Q 25.390625 66.40625 21.84375 63.234375 
Q 18.3125 60.0625 18.3125 54.390625 
z
" id="DejaVuSans-56"/>
      </defs>
      <g transform="translate(313.138083 403.918437)scale(0.1 -0.1)">
       <use xlink:href="#DejaVuSans-56"/>
      </g>
     </g>
    </g>
    <g id="xtick_8">
     <g id="line2d_8">
      <g>
       <use style="stroke:#000000;stroke-width:0.8;" x="354.07" xlink:href="#mfc518bbc66" y="389.32"/>
      </g>
     </g>
     <g id="text_8">
      <!-- 9 -->
      <defs>
       <path d="M 10.984375 1.515625 
L 10.984375 10.5 
Q 14.703125 8.734375 18.5 7.8125 
Q 22.3125 6.890625 25.984375 6.890625 
Q 35.75 6.890625 40.890625 13.453125 
Q 46.046875 20.015625 46.78125 33.40625 
Q 43.953125 29.203125 39.59375 26.953125 
Q 35.25 24.703125 29.984375 24.703125 
Q 19.046875 24.703125 12.671875 31.3125 
Q 6.296875 37.9375 6.296875 49.421875 
Q 6.296875 60.640625 12.9375 67.421875 
Q 19.578125 74.21875 30.609375 74.21875 
Q 43.265625 74.21875 49.921875 64.515625 
Q 56.59375 54.828125 56.59375 36.375 
Q 56.59375 19.140625 48.40625 8.859375 
Q 40.234375 -1.421875 26.421875 -1.421875 
Q 22.703125 -1.421875 18.890625 -0.6875 
Q 15.09375 0.046875 10.984375 1.515625 
z
M 30.609375 32.421875 
Q 37.25 32.421875 41.125 36.953125 
Q 45.015625 41.5 45.015625 49.421875 
Q 45.015625 57.28125 41.125 61.84375 
Q 37.25 66.40625 30.609375 66.40625 
Q 23.96875 66.40625 20.09375 61.84375 
Q 16.21875 57.28125 16.21875 49.421875 
Q 16.21875 41.5 20.09375 36.953125 
Q 23.96875 32.421875 30.609375 32.421875 
z
" id="DejaVuSans-57"/>
      </defs>
      <g transform="translate(350.88875 403.918437)scale(0.1 -0.1)">
       <use xlink:href="#DejaVuSans-57"/>
      </g>
     </g>
    </g>
    <g id="xtick_9">
     <g id="line2d_9">
      <g>
       <use style="stroke:#000000;stroke-width:0.8;" x="391.820667" xlink:href="#mfc518bbc66" y="389.32"/>
      </g>
     </g>
     <g id="text_9">
      <!-- 10 -->
      <defs>
       <path d="M 12.40625 8.296875 
L 28.515625 8.296875 
L 28.515625 63.921875 
L 10.984375 60.40625 
L 10.984375 69.390625 
L 28.421875 72.90625 
L 38.28125 72.90625 
L 38.28125 8.296875 
L 54.390625 8.296875 
L 54.390625 0 
L 12.40625 0 
z
" id="DejaVuSans-49"/>
       <path d="M 31.78125 66.40625 
Q 24.171875 66.40625 20.328125 58.90625 
Q 16.5 51.421875 16.5 36.375 
Q 16.5 21.390625 20.328125 13.890625 
Q 24.171875 6.390625 31.78125 6.390625 
Q 39.453125 6.390625 43.28125 13.890625 
Q 47.125 21.390625 47.125 36.375 
Q 47.125 51.421875 43.28125 58.90625 
Q 39.453125 66.40625 31.78125 66.40625 
z
M 31.78125 74.21875 
Q 44.046875 74.21875 50.515625 64.515625 
Q 56.984375 54.828125 56.984375 36.375 
Q 56.984375 17.96875 50.515625 8.265625 
Q 44.046875 -1.421875 31.78125 -1.421875 
Q 19.53125 -1.421875 13.0625 8.265625 
Q 6.59375 17.96875 6.59375 36.375 
Q 6.59375 54.828125 13.0625 64.515625 
Q 19.53125 74.21875 31.78125 74.21875 
z
" id="DejaVuSans-48"/>
      </defs>
      <g transform="translate(385.458167 403.918437)scale(0.1 -0.1)">
       <use xlink:href="#DejaVuSans-49"/>
       <use x="63.623047" xlink:href="#DejaVuSans-48"/>
      </g>
     </g>
    </g>
    <g id="xtick_10">
     <g id="line2d_10">
      <g>
       <use style="stroke:#000000;stroke-width:0.8;" x="429.571333" xlink:href="#mfc518bbc66" y="389.32"/>
      </g>
     </g>
     <g id="text_10">
      <!-- 11 -->
      <g transform="translate(423.208833 403.918437)scale(0.1 -0.1)">
       <use xlink:href="#DejaVuSans-49"/>
       <use x="63.623047" xlink:href="#DejaVuSans-49"/>
      </g>
     </g>
    </g>
    <g id="xtick_11">
     <g id="line2d_11">
      <g>
       <use style="stroke:#000000;stroke-width:0.8;" x="467.322" xlink:href="#mfc518bbc66" y="389.32"/>
      </g>
     </g>
     <g id="text_11">
      <!-- 12 -->
      <g transform="translate(460.9595 403.918437)scale(0.1 -0.1)">
       <use xlink:href="#DejaVuSans-49"/>
       <use x="63.623047" xlink:href="#DejaVuSans-50"/>
      </g>
     </g>
    </g>
    <g id="xtick_12">
     <g id="line2d_12">
      <g>
       <use style="stroke:#000000;stroke-width:0.8;" x="505.072667" xlink:href="#mfc518bbc66" y="389.32"/>
      </g>
     </g>
     <g id="text_12">
      <!-- 13 -->
      <g transform="translate(498.710167 403.918437)scale(0.1 -0.1)">
       <use xlink:href="#DejaVuSans-49"/>
       <use x="63.623047" xlink:href="#DejaVuSans-51"/>
      </g>
     </g>
    </g>
    <g id="xtick_13">
     <g id="line2d_13">
      <g>
       <use style="stroke:#000000;stroke-width:0.8;" x="542.823333" xlink:href="#mfc518bbc66" y="389.32"/>
      </g>
     </g>
     <g id="text_13">
      <!-- 14 -->
      <g transform="translate(536.460833 403.918437)scale(0.1 -0.1)">
       <use xlink:href="#DejaVuSans-49"/>
       <use x="63.623047" xlink:href="#DejaVuSans-52"/>
      </g>
     </g>
    </g>
    <g id="xtick_14">
     <g id="line2d_14">
      <g>
       <use style="stroke:#000000;stroke-width:0.8;" x="580.574" xlink:href="#mfc518bbc66" y="389.32"/>
      </g>
     </g>
     <g id="text_14">
      <!-- 15 -->
      <g transform="translate(574.2115 403.918437)scale(0.1 -0.1)">
       <use xlink:href="#DejaVuSans-49"/>
       <use x="63.623047" xlink:href="#DejaVuSans-53"/>
      </g>
     </g>
    </g>
    <g id="xtick_15">
     <g id="line2d_15">
      <g>
       <use style="stroke:#000000;stroke-width:0.8;" x="618.324667" xlink:href="#mfc518bbc66" y="389.32"/>
      </g>
     </g>
     <g id="text_15">
      <!-- 16 -->
      <g transform="translate(611.962167 403.918437)scale(0.1 -0.1)">
       <use xlink:href="#DejaVuSans-49"/>
       <use x="63.623047" xlink:href="#DejaVuSans-54"/>
      </g>
     </g>
    </g>
    <g id="text_16">
     <!-- Active Cores -->
     <defs>
      <path d="M 34.1875 63.1875 
L 20.796875 26.90625 
L 47.609375 26.90625 
z
M 28.609375 72.90625 
L 39.796875 72.90625 
L 67.578125 0 
L 57.328125 0 
L 50.6875 18.703125 
L 17.828125 18.703125 
L 11.1875 0 
L 0.78125 0 
z
" id="DejaVuSans-65"/>
      <path d="M 48.78125 52.59375 
L 48.78125 44.1875 
Q 44.96875 46.296875 41.140625 47.34375 
Q 37.3125 48.390625 33.40625 48.390625 
Q 24.65625 48.390625 19.8125 42.84375 
Q 14.984375 37.3125 14.984375 27.296875 
Q 14.984375 17.28125 19.8125 11.734375 
Q 24.65625 6.203125 33.40625 6.203125 
Q 37.3125 6.203125 41.140625 7.25 
Q 44.96875 8.296875 48.78125 10.40625 
L 48.78125 2.09375 
Q 45.015625 0.34375 40.984375 -0.53125 
Q 36.96875 -1.421875 32.421875 -1.421875 
Q 20.0625 -1.421875 12.78125 6.34375 
Q 5.515625 14.109375 5.515625 27.296875 
Q 5.515625 40.671875 12.859375 48.328125 
Q 20.21875 56 33.015625 56 
Q 37.15625 56 41.109375 55.140625 
Q 45.0625 54.296875 48.78125 52.59375 
z
" id="DejaVuSans-99"/>
      <path d="M 18.3125 70.21875 
L 18.3125 54.6875 
L 36.8125 54.6875 
L 36.8125 47.703125 
L 18.3125 47.703125 
L 18.3125 18.015625 
Q 18.3125 11.328125 20.140625 9.421875 
Q 21.96875 7.515625 27.59375 7.515625 
L 36.8125 7.515625 
L 36.8125 0 
L 27.59375 0 
Q 17.1875 0 13.234375 3.875 
Q 9.28125 7.765625 9.28125 18.015625 
L 9.28125 47.703125 
L 2.6875 47.703125 
L 2.6875 54.6875 
L 9.28125 54.6875 
L 9.28125 70.21875 
z
" id="DejaVuSans-116"/>
      <path d="M 9.421875 54.6875 
L 18.40625 54.6875 
L 18.40625 0 
L 9.421875 0 
z
M 9.421875 75.984375 
L 18.40625 75.984375 
L 18.40625 64.59375 
L 9.421875 64.59375 
z
" id="DejaVuSans-105"/>
      <path d="M 2.984375 54.6875 
L 12.5 54.6875 
L 29.59375 8.796875 
L 46.6875 54.6875 
L 56.203125 54.6875 
L 35.6875 0 
L 23.484375 0 
z
" id="DejaVuSans-118"/>
      <path d="M 56.203125 29.59375 
L 56.203125 25.203125 
L 14.890625 25.203125 
Q 15.484375 15.921875 20.484375 11.0625 
Q 25.484375 6.203125 34.421875 6.203125 
Q 39.59375 6.203125 44.453125 7.46875 
Q 49.3125 8.734375 54.109375 11.28125 
L 54.109375 2.78125 
Q 49.265625 0.734375 44.1875 -0.34375 
Q 39.109375 -1.421875 33.890625 -1.421875 
Q 20.796875 -1.421875 13.15625 6.1875 
Q 5.515625 13.8125 5.515625 26.8125 
Q 5.515625 40.234375 12.765625 48.109375 
Q 20.015625 56 32.328125 56 
Q 43.359375 56 49.78125 48.890625 
Q 56.203125 41.796875 56.203125 29.59375 
z
M 47.21875 32.234375 
Q 47.125 39.59375 43.09375 43.984375 
Q 39.0625 48.390625 32.421875 48.390625 
Q 24.90625 48.390625 20.390625 44.140625 
Q 15.875 39.890625 15.1875 32.171875 
z
" id="DejaVuSans-101"/>
      <path id="DejaVuSans-32"/>
      <path d="M 64.40625 67.28125 
L 64.40625 56.890625 
Q 59.421875 61.53125 53.78125 63.8125 
Q 48.140625 66.109375 41.796875 66.109375 
Q 29.296875 66.109375 22.65625 58.46875 
Q 16.015625 50.828125 16.015625 36.375 
Q 16.015625 21.96875 22.65625 14.328125 
Q 29.296875 6.6875 41.796875 6.6875 
Q 48.140625 6.6875 53.78125 8.984375 
Q 59.421875 11.28125 64.40625 15.921875 
L 64.40625 5.609375 
Q 59.234375 2.09375 53.4375 0.328125 
Q 47.65625 -1.421875 41.21875 -1.421875 
Q 24.65625 -1.421875 15.125 8.703125 
Q 5.609375 18.84375 5.609375 36.375 
Q 5.609375 53.953125 15.125 64.078125 
Q 24.65625 74.21875 41.21875 74.21875 
Q 47.75 74.21875 53.53125 72.484375 
Q 59.328125 70.75 64.40625 67.28125 
z
" id="DejaVuSans-67"/>
      <path d="M 30.609375 48.390625 
Q 23.390625 48.390625 19.1875 42.75 
Q 14.984375 37.109375 14.984375 27.296875 
Q 14.984375 17.484375 19.15625 11.84375 
Q 23.34375 6.203125 30.609375 6.203125 
Q 37.796875 6.203125 41.984375 11.859375 
Q 46.1875 17.53125 46.1875 27.296875 
Q 46.1875 37.015625 41.984375 42.703125 
Q 37.796875 48.390625 30.609375 48.390625 
z
M 30.609375 56 
Q 42.328125 56 49.015625 48.375 
Q 55.71875 40.765625 55.71875 27.296875 
Q 55.71875 13.875 49.015625 6.21875 
Q 42.328125 -1.421875 30.609375 -1.421875 
Q 18.84375 -1.421875 12.171875 6.21875 
Q 5.515625 13.875 5.515625 27.296875 
Q 5.515625 40.765625 12.171875 48.375 
Q 18.84375 56 30.609375 56 
z
" id="DejaVuSans-111"/>
      <path d="M 41.109375 46.296875 
Q 39.59375 47.171875 37.8125 47.578125 
Q 36.03125 48 33.890625 48 
Q 26.265625 48 22.1875 43.046875 
Q 18.109375 38.09375 18.109375 28.8125 
L 18.109375 0 
L 9.078125 0 
L 9.078125 54.6875 
L 18.109375 54.6875 
L 18.109375 46.1875 
Q 20.953125 51.171875 25.484375 53.578125 
Q 30.03125 56 36.53125 56 
Q 37.453125 56 38.578125 55.875 
Q 39.703125 55.765625 41.0625 55.515625 
z
" id="DejaVuSans-114"/>
      <path d="M 44.28125 53.078125 
L 44.28125 44.578125 
Q 40.484375 46.53125 36.375 47.5 
Q 32.28125 48.484375 27.875 48.484375 
Q 21.1875 48.484375 17.84375 46.4375 
Q 14.5 44.390625 14.5 40.28125 
Q 14.5 37.15625 16.890625 35.375 
Q 19.28125 33.59375 26.515625 31.984375 
L 29.59375 31.296875 
Q 39.15625 29.25 43.1875 25.515625 
Q 47.21875 21.78125 47.21875 15.09375 
Q 47.21875 7.46875 41.1875 3.015625 
Q 35.15625 -1.421875 24.609375 -1.421875 
Q 20.21875 -1.421875 15.453125 -0.5625 
Q 10.6875 0.296875 5.421875 2 
L 5.421875 11.28125 
Q 10.40625 8.6875 15.234375 7.390625 
Q 20.0625 6.109375 24.8125 6.109375 
Q 31.15625 6.109375 34.5625 8.28125 
Q 37.984375 10.453125 37.984375 14.40625 
Q 37.984375 18.0625 35.515625 20.015625 
Q 33.0625 21.96875 24.703125 23.78125 
L 21.578125 24.515625 
Q 13.234375 26.265625 9.515625 29.90625 
Q 5.8125 33.546875 5.8125 39.890625 
Q 5.8125 47.609375 11.28125 51.796875 
Q 16.75 56 26.8125 56 
Q 31.78125 56 36.171875 55.265625 
Q 40.578125 54.546875 44.28125 53.078125 
z
" id="DejaVuSans-115"/>
     </defs>
     <g transform="translate(316.355312 419.11625)scale(0.12 -0.12)">
      <use xlink:href="#DejaVuSans-65"/>
      <use x="68.392578" xlink:href="#DejaVuSans-99"/>
      <use x="123.373047" xlink:href="#DejaVuSans-116"/>
      <use x="162.582031" xlink:href="#DejaVuSans-105"/>
      <use x="190.365234" xlink:href="#DejaVuSans-118"/>
      <use x="249.544922" xlink:href="#DejaVuSans-101"/>
      <use x="311.068359" xlink:href="#DejaVuSans-32"/>
      <use x="342.855469" xlink:href="#DejaVuSans-67"/>
      <use x="412.679688" xlink:href="#DejaVuSans-111"/>
      <use x="473.861328" xlink:href="#DejaVuSans-114"/>
      <use x="514.943359" xlink:href="#DejaVuSans-101"/>
      <use x="576.466797" xlink:href="#DejaVuSans-115"/>
     </g>
    </g>
   </g>
   <g id="matplotlib.axis_2">
    <g id="ytick_1">
     <g id="line2d_16">
      <defs>
       <path d="M 0 0 
L -3.5 0 
" id="m3a24eacd0e" style="stroke:#000000;stroke-width:0.8;"/>
      </defs>
      <g>
       <use style="stroke:#000000;stroke-width:0.8;" x="70.94" xlink:href="#m3a24eacd0e" y="389.32"/>
      </g>
     </g>
     <g id="text_17">
      <!-- 0 -->
      <g transform="translate(57.5775 393.119219)scale(0.1 -0.1)">
       <use xlink:href="#DejaVuSans-48"/>
      </g>
     </g>
    </g>
    <g id="ytick_2">
     <g id="line2d_17">
      <g>
       <use style="stroke:#000000;stroke-width:0.8;" x="70.94" xlink:href="#m3a24eacd0e" y="323.604633"/>
      </g>
     </g>
     <g id="text_18">
      <!-- 100000 -->
      <g transform="translate(25.765 327.403852)scale(0.1 -0.1)">
       <use xlink:href="#DejaVuSans-49"/>
       <use x="63.623047" xlink:href="#DejaVuSans-48"/>
       <use x="127.246094" xlink:href="#DejaVuSans-48"/>
       <use x="190.869141" xlink:href="#DejaVuSans-48"/>
       <use x="254.492188" xlink:href="#DejaVuSans-48"/>
       <use x="318.115234" xlink:href="#DejaVuSans-48"/>
      </g>
     </g>
    </g>
    <g id="ytick_3">
     <g id="line2d_18">
      <g>
       <use style="stroke:#000000;stroke-width:0.8;" x="70.94" xlink:href="#m3a24eacd0e" y="257.889266"/>
      </g>
     </g>
     <g id="text_19">
      <!-- 200000 -->
      <g transform="translate(25.765 261.688484)scale(0.1 -0.1)">
       <use xlink:href="#DejaVuSans-50"/>
       <use x="63.623047" xlink:href="#DejaVuSans-48"/>
       <use x="127.246094" xlink:href="#DejaVuSans-48"/>
       <use x="190.869141" xlink:href="#DejaVuSans-48"/>
       <use x="254.492188" xlink:href="#DejaVuSans-48"/>
       <use x="318.115234" xlink:href="#DejaVuSans-48"/>
      </g>
     </g>
    </g>
    <g id="ytick_4">
     <g id="line2d_19">
      <g>
       <use style="stroke:#000000;stroke-width:0.8;" x="70.94" xlink:href="#m3a24eacd0e" y="192.173898"/>
      </g>
     </g>
     <g id="text_20">
      <!-- 300000 -->
      <g transform="translate(25.765 195.973117)scale(0.1 -0.1)">
       <use xlink:href="#DejaVuSans-51"/>
       <use x="63.623047" xlink:href="#DejaVuSans-48"/>
       <use x="127.246094" xlink:href="#DejaVuSans-48"/>
       <use x="190.869141" xlink:href="#DejaVuSans-48"/>
       <use x="254.492188" xlink:href="#DejaVuSans-48"/>
       <use x="318.115234" xlink:href="#DejaVuSans-48"/>
      </g>
     </g>
    </g>
    <g id="ytick_5">
     <g id="line2d_20">
      <g>
       <use style="stroke:#000000;stroke-width:0.8;" x="70.94" xlink:href="#m3a24eacd0e" y="126.458531"/>
      </g>
     </g>
     <g id="text_21">
      <!-- 400000 -->
      <g transform="translate(25.765 130.25775)scale(0.1 -0.1)">
       <use xlink:href="#DejaVuSans-52"/>
       <use x="63.623047" xlink:href="#DejaVuSans-48"/>
       <use x="127.246094" xlink:href="#DejaVuSans-48"/>
       <use x="190.869141" xlink:href="#DejaVuSans-48"/>
       <use x="254.492188" xlink:href="#DejaVuSans-48"/>
       <use x="318.115234" xlink:href="#DejaVuSans-48"/>
      </g>
     </g>
    </g>
    <g id="ytick_6">
     <g id="line2d_21">
      <g>
       <use style="stroke:#000000;stroke-width:0.8;" x="70.94" xlink:href="#m3a24eacd0e" y="60.743164"/>
      </g>
     </g>
     <g id="text_22">
      <!-- 500000 -->
      <g transform="translate(25.765 64.542383)scale(0.1 -0.1)">
       <use xlink:href="#DejaVuSans-53"/>
       <use x="63.623047" xlink:href="#DejaVuSans-48"/>
       <use x="127.246094" xlink:href="#DejaVuSans-48"/>
       <use x="190.869141" xlink:href="#DejaVuSans-48"/>
       <use x="254.492188" xlink:href="#DejaVuSans-48"/>
       <use x="318.115234" xlink:href="#DejaVuSans-48"/>
      </g>
     </g>
    </g>
    <g id="text_23">
     <!-- Nanoseconds per increment -->
     <defs>
      <path d="M 9.8125 72.90625 
L 23.09375 72.90625 
L 55.421875 11.921875 
L 55.421875 72.90625 
L 64.984375 72.90625 
L 64.984375 0 
L 51.703125 0 
L 19.390625 60.984375 
L 19.390625 0 
L 9.8125 0 
z
" id="DejaVuSans-78"/>
      <path d="M 34.28125 27.484375 
Q 23.390625 27.484375 19.1875 25 
Q 14.984375 22.515625 14.984375 16.5 
Q 14.984375 11.71875 18.140625 8.90625 
Q 21.296875 6.109375 26.703125 6.109375 
Q 34.1875 6.109375 38.703125 11.40625 
Q 43.21875 16.703125 43.21875 25.484375 
L 43.21875 27.484375 
z
M 52.203125 31.203125 
L 52.203125 0 
L 43.21875 0 
L 43.21875 8.296875 
Q 40.140625 3.328125 35.546875 0.953125 
Q 30.953125 -1.421875 24.3125 -1.421875 
Q 15.921875 -1.421875 10.953125 3.296875 
Q 6 8.015625 6 15.921875 
Q 6 25.140625 12.171875 29.828125 
Q 18.359375 34.515625 30.609375 34.515625 
L 43.21875 34.515625 
L 43.21875 35.40625 
Q 43.21875 41.609375 39.140625 45 
Q 35.0625 48.390625 27.6875 48.390625 
Q 23 48.390625 18.546875 47.265625 
Q 14.109375 46.140625 10.015625 43.890625 
L 10.015625 52.203125 
Q 14.9375 54.109375 19.578125 55.046875 
Q 24.21875 56 28.609375 56 
Q 40.484375 56 46.34375 49.84375 
Q 52.203125 43.703125 52.203125 31.203125 
z
" id="DejaVuSans-97"/>
      <path d="M 54.890625 33.015625 
L 54.890625 0 
L 45.90625 0 
L 45.90625 32.71875 
Q 45.90625 40.484375 42.875 44.328125 
Q 39.84375 48.1875 33.796875 48.1875 
Q 26.515625 48.1875 22.3125 43.546875 
Q 18.109375 38.921875 18.109375 30.90625 
L 18.109375 0 
L 9.078125 0 
L 9.078125 54.6875 
L 18.109375 54.6875 
L 18.109375 46.1875 
Q 21.34375 51.125 25.703125 53.5625 
Q 30.078125 56 35.796875 56 
Q 45.21875 56 50.046875 50.171875 
Q 54.890625 44.34375 54.890625 33.015625 
z
" id="DejaVuSans-110"/>
      <path d="M 45.40625 46.390625 
L 45.40625 75.984375 
L 54.390625 75.984375 
L 54.390625 0 
L 45.40625 0 
L 45.40625 8.203125 
Q 42.578125 3.328125 38.25 0.953125 
Q 33.9375 -1.421875 27.875 -1.421875 
Q 17.96875 -1.421875 11.734375 6.484375 
Q 5.515625 14.40625 5.515625 27.296875 
Q 5.515625 40.1875 11.734375 48.09375 
Q 17.96875 56 27.875 56 
Q 33.9375 56 38.25 53.625 
Q 42.578125 51.265625 45.40625 46.390625 
z
M 14.796875 27.296875 
Q 14.796875 17.390625 18.875 11.75 
Q 22.953125 6.109375 30.078125 6.109375 
Q 37.203125 6.109375 41.296875 11.75 
Q 45.40625 17.390625 45.40625 27.296875 
Q 45.40625 37.203125 41.296875 42.84375 
Q 37.203125 48.484375 30.078125 48.484375 
Q 22.953125 48.484375 18.875 42.84375 
Q 14.796875 37.203125 14.796875 27.296875 
z
" id="DejaVuSans-100"/>
      <path d="M 18.109375 8.203125 
L 18.109375 -20.796875 
L 9.078125 -20.796875 
L 9.078125 54.6875 
L 18.109375 54.6875 
L 18.109375 46.390625 
Q 20.953125 51.265625 25.265625 53.625 
Q 29.59375 56 35.59375 56 
Q 45.5625 56 51.78125 48.09375 
Q 58.015625 40.1875 58.015625 27.296875 
Q 58.015625 14.40625 51.78125 6.484375 
Q 45.5625 -1.421875 35.59375 -1.421875 
Q 29.59375 -1.421875 25.265625 0.953125 
Q 20.953125 3.328125 18.109375 8.203125 
z
M 48.6875 27.296875 
Q 48.6875 37.203125 44.609375 42.84375 
Q 40.53125 48.484375 33.40625 48.484375 
Q 26.265625 48.484375 22.1875 42.84375 
Q 18.109375 37.203125 18.109375 27.296875 
Q 18.109375 17.390625 22.1875 11.75 
Q 26.265625 6.109375 33.40625 6.109375 
Q 40.53125 6.109375 44.609375 11.75 
Q 48.6875 17.390625 48.6875 27.296875 
z
" id="DejaVuSans-112"/>
      <path d="M 52 44.1875 
Q 55.375 50.25 60.0625 53.125 
Q 64.75 56 71.09375 56 
Q 79.640625 56 84.28125 50.015625 
Q 88.921875 44.046875 88.921875 33.015625 
L 88.921875 0 
L 79.890625 0 
L 79.890625 32.71875 
Q 79.890625 40.578125 77.09375 44.375 
Q 74.3125 48.1875 68.609375 48.1875 
Q 61.625 48.1875 57.5625 43.546875 
Q 53.515625 38.921875 53.515625 30.90625 
L 53.515625 0 
L 44.484375 0 
L 44.484375 32.71875 
Q 44.484375 40.625 41.703125 44.40625 
Q 38.921875 48.1875 33.109375 48.1875 
Q 26.21875 48.1875 22.15625 43.53125 
Q 18.109375 38.875 18.109375 30.90625 
L 18.109375 0 
L 9.078125 0 
L 9.078125 54.6875 
L 18.109375 54.6875 
L 18.109375 46.1875 
Q 21.1875 51.21875 25.484375 53.609375 
Q 29.78125 56 35.6875 56 
Q 41.65625 56 45.828125 52.96875 
Q 50 49.953125 52 44.1875 
z
" id="DejaVuSans-109"/>
     </defs>
     <g transform="translate(19.269375 291.941562)rotate(-90)scale(0.12 -0.12)">
      <use xlink:href="#DejaVuSans-78"/>
      <use x="74.804688" xlink:href="#DejaVuSans-97"/>
      <use x="136.083984" xlink:href="#DejaVuSans-110"/>
      <use x="199.462891" xlink:href="#DejaVuSans-111"/>
      <use x="260.644531" xlink:href="#DejaVuSans-115"/>
      <use x="312.744141" xlink:href="#DejaVuSans-101"/>
      <use x="374.267578" xlink:href="#DejaVuSans-99"/>
      <use x="429.248047" xlink:href="#DejaVuSans-111"/>
      <use x="490.429688" xlink:href="#DejaVuSans-110"/>
      <use x="553.808594" xlink:href="#DejaVuSans-100"/>
      <use x="617.285156" xlink:href="#DejaVuSans-115"/>
      <use x="669.384766" xlink:href="#DejaVuSans-32"/>
      <use x="701.171875" xlink:href="#DejaVuSans-112"/>
      <use x="764.648438" xlink:href="#DejaVuSans-101"/>
      <use x="826.171875" xlink:href="#DejaVuSans-114"/>
      <use x="867.285156" xlink:href="#DejaVuSans-32"/>
      <use x="899.072266" xlink:href="#DejaVuSans-105"/>
      <use x="926.855469" xlink:href="#DejaVuSans-110"/>
      <use x="990.234375" xlink:href="#DejaVuSans-99"/>
      <use x="1045.214844" xlink:href="#DejaVuSans-114"/>
      <use x="1086.296875" xlink:href="#DejaVuSans-101"/>
      <use x="1147.820312" xlink:href="#DejaVuSans-109"/>
      <use x="1245.232422" xlink:href="#DejaVuSans-101"/>
      <use x="1306.755859" xlink:href="#DejaVuSans-110"/>
      <use x="1370.134766" xlink:href="#DejaVuSans-116"/>
     </g>
    </g>
   </g>
   <g id="LineCollection_1">
    <path clip-path="url(#p362939adce)" d="M 81.725905 389.119594 
L 81.725905 389.102088 
" style="fill:none;stroke:#000000;stroke-width:1.5;"/>
    <path clip-path="url(#p362939adce)" d="M 119.476571 389.125115 
L 119.476571 389.101431 
" style="fill:none;stroke:#000000;stroke-width:1.5;"/>
    <path clip-path="url(#p362939adce)" d="M 157.227238 388.945514 
L 157.227238 388.937852 
" style="fill:none;stroke:#000000;stroke-width:1.5;"/>
    <path clip-path="url(#p362939adce)" d="M 194.977905 389.0377 
L 194.977905 389.028211 
" style="fill:none;stroke:#000000;stroke-width:1.5;"/>
    <path clip-path="url(#p362939adce)" d="M 232.728571 388.847572 
L 232.728571 388.833404 
" style="fill:none;stroke:#000000;stroke-width:1.5;"/>
    <path clip-path="url(#p362939adce)" d="M 270.479238 388.750629 
L 270.479238 388.734292 
" style="fill:none;stroke:#000000;stroke-width:1.5;"/>
    <path clip-path="url(#p362939adce)" d="M 308.229905 388.674333 
L 308.229905 388.659587 
" style="fill:none;stroke:#000000;stroke-width:1.5;"/>
    <path clip-path="url(#p362939adce)" d="M 345.980571 388.606607 
L 345.980571 388.586156 
" style="fill:none;stroke:#000000;stroke-width:1.5;"/>
    <path clip-path="url(#p362939adce)" d="M 383.731238 388.501213 
L 383.731238 388.486808 
" style="fill:none;stroke:#000000;stroke-width:1.5;"/>
    <path clip-path="url(#p362939adce)" d="M 421.481905 388.42844 
L 421.481905 388.407122 
" style="fill:none;stroke:#000000;stroke-width:1.5;"/>
    <path clip-path="url(#p362939adce)" d="M 459.232571 388.365051 
L 459.232571 388.345612 
" style="fill:none;stroke:#000000;stroke-width:1.5;"/>
    <path clip-path="url(#p362939adce)" d="M 496.983238 388.278858 
L 496.983238 388.256278 
" style="fill:none;stroke:#000000;stroke-width:1.5;"/>
    <path clip-path="url(#p362939adce)" d="M 534.733905 388.211355 
L 534.733905 388.187343 
" style="fill:none;stroke:#000000;stroke-width:1.5;"/>
    <path clip-path="url(#p362939adce)" d="M 572.484571 388.102137 
L 572.484571 388.070409 
" style="fill:none;stroke:#000000;stroke-width:1.5;"/>
    <path clip-path="url(#p362939adce)" d="M 610.235238 388.008545 
L 610.235238 387.977238 
" style="fill:none;stroke:#000000;stroke-width:1.5;"/>
   </g>
   <g id="LineCollection_2">
    <path clip-path="url(#p362939adce)" d="M 84.422381 389.308828 
L 84.422381 389.308828 
" style="fill:none;stroke:#000000;stroke-width:1.5;"/>
    <path clip-path="url(#p362939adce)" d="M 122.173048 389.302783 
L 122.173048 389.302717 
" style="fill:none;stroke:#000000;stroke-width:1.5;"/>
    <path clip-path="url(#p362939adce)" d="M 159.923714 389.297328 
L 159.923714 389.297131 
" style="fill:none;stroke:#000000;stroke-width:1.5;"/>
    <path clip-path="url(#p362939adce)" d="M 197.674381 389.290139 
L 197.674381 389.289968 
" style="fill:none;stroke:#000000;stroke-width:1.5;"/>
    <path clip-path="url(#p362939adce)" d="M 235.425048 389.28337 
L 235.425048 389.282463 
" style="fill:none;stroke:#000000;stroke-width:1.5;"/>
    <path clip-path="url(#p362939adce)" d="M 273.175714 389.277022 
L 273.175714 389.27626 
" style="fill:none;stroke:#000000;stroke-width:1.5;"/>
    <path clip-path="url(#p362939adce)" d="M 310.926381 389.270924 
L 310.926381 389.270083 
" style="fill:none;stroke:#000000;stroke-width:1.5;"/>
    <path clip-path="url(#p362939adce)" d="M 348.677048 389.264773 
L 348.677048 389.264024 
" style="fill:none;stroke:#000000;stroke-width:1.5;"/>
    <path clip-path="url(#p362939adce)" d="M 386.427714 389.258898 
L 386.427714 389.258057 
" style="fill:none;stroke:#000000;stroke-width:1.5;"/>
    <path clip-path="url(#p362939adce)" d="M 424.178381 389.251866 
L 424.178381 389.25113 
" style="fill:none;stroke:#000000;stroke-width:1.5;"/>
    <path clip-path="url(#p362939adce)" d="M 461.929048 389.24515 
L 461.929048 389.244309 
" style="fill:none;stroke:#000000;stroke-width:1.5;"/>
    <path clip-path="url(#p362939adce)" d="M 499.679714 389.239249 
L 499.679714 389.238079 
" style="fill:none;stroke:#000000;stroke-width:1.5;"/>
    <path clip-path="url(#p362939adce)" d="M 537.430381 389.233295 
L 537.430381 389.232007 
" style="fill:none;stroke:#000000;stroke-width:1.5;"/>
    <path clip-path="url(#p362939adce)" d="M 575.181048 389.227249 
L 575.181048 389.226448 
" style="fill:none;stroke:#000000;stroke-width:1.5;"/>
    <path clip-path="url(#p362939adce)" d="M 612.931714 389.221834 
L 612.931714 389.220573 
" style="fill:none;stroke:#000000;stroke-width:1.5;"/>
   </g>
   <g id="LineCollection_3">
    <path clip-path="url(#p362939adce)" d="M 87.118857 389.285697 
L 87.118857 389.285697 
" style="fill:none;stroke:#000000;stroke-width:1.5;"/>
    <path clip-path="url(#p362939adce)" d="M 124.869524 389.264773 
L 124.869524 389.264694 
" style="fill:none;stroke:#000000;stroke-width:1.5;"/>
    <path clip-path="url(#p362939adce)" d="M 162.62019 389.243573 
L 162.62019 389.243336 
" style="fill:none;stroke:#000000;stroke-width:1.5;"/>
    <path clip-path="url(#p362939adce)" d="M 200.370857 389.210229 
L 200.370857 389.209138 
" style="fill:none;stroke:#000000;stroke-width:1.5;"/>
    <path clip-path="url(#p362939adce)" d="M 238.121524 389.178475 
L 238.121524 389.175492 
" style="fill:none;stroke:#000000;stroke-width:1.5;"/>
    <path clip-path="url(#p362939adce)" d="M 275.87219 389.138796 
L 275.87219 389.137364 
" style="fill:none;stroke:#000000;stroke-width:1.5;"/>
    <path clip-path="url(#p362939adce)" d="M 313.622857 389.108331 
L 313.622857 389.106832 
" style="fill:none;stroke:#000000;stroke-width:1.5;"/>
    <path clip-path="url(#p362939adce)" d="M 351.373524 389.082584 
L 351.373524 389.080389 
" style="fill:none;stroke:#000000;stroke-width:1.5;"/>
    <path clip-path="url(#p362939adce)" d="M 389.12419 389.056823 
L 389.12419 389.055851 
" style="fill:none;stroke:#000000;stroke-width:1.5;"/>
    <path clip-path="url(#p362939adce)" d="M 426.874857 389.024005 
L 426.874857 389.020128 
" style="fill:none;stroke:#000000;stroke-width:1.5;"/>
    <path clip-path="url(#p362939adce)" d="M 464.625524 388.988466 
L 464.625524 388.98543 
" style="fill:none;stroke:#000000;stroke-width:1.5;"/>
    <path clip-path="url(#p362939adce)" d="M 502.37619 388.97347 
L 502.37619 388.966162 
" style="fill:none;stroke:#000000;stroke-width:1.5;"/>
    <path clip-path="url(#p362939adce)" d="M 540.126857 388.957553 
L 540.126857 388.945764 
" style="fill:none;stroke:#000000;stroke-width:1.5;"/>
    <path clip-path="url(#p362939adce)" d="M 577.877524 388.932056 
L 577.877524 388.920766 
" style="fill:none;stroke:#000000;stroke-width:1.5;"/>
    <path clip-path="url(#p362939adce)" d="M 615.62819 388.904469 
L 615.62819 388.893678 
" style="fill:none;stroke:#000000;stroke-width:1.5;"/>
   </g>
   <g id="LineCollection_4">
    <path clip-path="url(#p362939adce)" d="M 89.815333 389.082281 
L 89.815333 389.08098 
" style="fill:none;stroke:#000000;stroke-width:1.5;"/>
    <path clip-path="url(#p362939adce)" d="M 127.566 389.023873 
L 127.566 388.862306 
" style="fill:none;stroke:#000000;stroke-width:1.5;"/>
    <path clip-path="url(#p362939adce)" d="M 165.316667 388.679827 
L 165.316667 388.628096 
" style="fill:none;stroke:#000000;stroke-width:1.5;"/>
    <path clip-path="url(#p362939adce)" d="M 203.067333 388.540668 
L 203.067333 388.407805 
" style="fill:none;stroke:#000000;stroke-width:1.5;"/>
    <path clip-path="url(#p362939adce)" d="M 240.818 388.390062 
L 240.818 388.311716 
" style="fill:none;stroke:#000000;stroke-width:1.5;"/>
    <path clip-path="url(#p362939adce)" d="M 278.568667 388.074628 
L 278.568667 387.900666 
" style="fill:none;stroke:#000000;stroke-width:1.5;"/>
    <path clip-path="url(#p362939adce)" d="M 316.319333 387.595589 
L 316.319333 387.575533 
" style="fill:none;stroke:#000000;stroke-width:1.5;"/>
    <path clip-path="url(#p362939adce)" d="M 354.07 387.2131 
L 354.07 387.20273 
" style="fill:none;stroke:#000000;stroke-width:1.5;"/>
    <path clip-path="url(#p362939adce)" d="M 391.820667 386.843792 
L 391.820667 386.827206 
" style="fill:none;stroke:#000000;stroke-width:1.5;"/>
    <path clip-path="url(#p362939adce)" d="M 429.571333 386.445229 
L 429.571333 386.432309 
" style="fill:none;stroke:#000000;stroke-width:1.5;"/>
    <path clip-path="url(#p362939adce)" d="M 467.322 386.103088 
L 467.322 385.907532 
" style="fill:none;stroke:#000000;stroke-width:1.5;"/>
    <path clip-path="url(#p362939adce)" d="M 505.072667 385.446421 
L 505.072667 385.435788 
" style="fill:none;stroke:#000000;stroke-width:1.5;"/>
    <path clip-path="url(#p362939adce)" d="M 542.823333 384.903862 
L 542.823333 384.881781 
" style="fill:none;stroke:#000000;stroke-width:1.5;"/>
    <path clip-path="url(#p362939adce)" d="M 580.574 384.384566 
L 580.574 384.376088 
" style="fill:none;stroke:#000000;stroke-width:1.5;"/>
    <path clip-path="url(#p362939adce)" d="M 618.324667 383.737611 
L 618.324667 383.723311 
" style="fill:none;stroke:#000000;stroke-width:1.5;"/>
   </g>
   <g id="LineCollection_5">
    <path clip-path="url(#p362939adce)" d="M 92.51181 383.119887 
L 92.51181 383.095112 
" style="fill:none;stroke:#000000;stroke-width:1.5;"/>
    <path clip-path="url(#p362939adce)" d="M 130.262476 371.590047 
L 130.262476 371.416742 
" style="fill:none;stroke:#000000;stroke-width:1.5;"/>
    <path clip-path="url(#p362939adce)" d="M 168.013143 373.01883 
L 168.013143 370.090632 
" style="fill:none;stroke:#000000;stroke-width:1.5;"/>
    <path clip-path="url(#p362939adce)" d="M 205.76381 359.984358 
L 205.76381 359.224728 
" style="fill:none;stroke:#000000;stroke-width:1.5;"/>
    <path clip-path="url(#p362939adce)" d="M 243.514476 340.187065 
L 243.514476 339.167228 
" style="fill:none;stroke:#000000;stroke-width:1.5;"/>
    <path clip-path="url(#p362939adce)" d="M 281.265143 321.840017 
L 281.265143 321.0528 
" style="fill:none;stroke:#000000;stroke-width:1.5;"/>
    <path clip-path="url(#p362939adce)" d="M 319.01581 302.780971 
L 319.01581 300.783329 
" style="fill:none;stroke:#000000;stroke-width:1.5;"/>
    <path clip-path="url(#p362939adce)" d="M 356.766476 279.547342 
L 356.766476 277.831014 
" style="fill:none;stroke:#000000;stroke-width:1.5;"/>
    <path clip-path="url(#p362939adce)" d="M 394.517143 254.749175 
L 394.517143 252.979066 
" style="fill:none;stroke:#000000;stroke-width:1.5;"/>
    <path clip-path="url(#p362939adce)" d="M 432.26781 227.916605 
L 432.26781 225.895305 
" style="fill:none;stroke:#000000;stroke-width:1.5;"/>
    <path clip-path="url(#p362939adce)" d="M 470.018476 197.650446 
L 470.018476 194.572036 
" style="fill:none;stroke:#000000;stroke-width:1.5;"/>
    <path clip-path="url(#p362939adce)" d="M 507.769143 165.748921 
L 507.769143 160.487144 
" style="fill:none;stroke:#000000;stroke-width:1.5;"/>
    <path clip-path="url(#p362939adce)" d="M 545.51981 126.257942 
L 545.51981 123.538574 
" style="fill:none;stroke:#000000;stroke-width:1.5;"/>
    <path clip-path="url(#p362939adce)" d="M 583.270476 87.68678 
L 583.270476 84.303713 
" style="fill:none;stroke:#000000;stroke-width:1.5;"/>
    <path clip-path="url(#p362939adce)" d="M 621.021143 47.339122 
L 621.021143 42.767619 
" style="fill:none;stroke:#000000;stroke-width:1.5;"/>
   </g>
   <g id="LineCollection_6">
    <path clip-path="url(#p362939adce)" d="M 95.208286 384.920764 
L 95.208286 382.791809 
" style="fill:none;stroke:#000000;stroke-width:1.5;"/>
    <path clip-path="url(#p362939adce)" d="M 132.958952 380.106719 
L 132.958952 379.356013 
" style="fill:none;stroke:#000000;stroke-width:1.5;"/>
    <path clip-path="url(#p362939adce)" d="M 170.709619 377.467511 
L 170.709619 376.196089 
" style="fill:none;stroke:#000000;stroke-width:1.5;"/>
    <path clip-path="url(#p362939adce)" d="M 208.460286 372.896954 
L 208.460286 371.816857 
" style="fill:none;stroke:#000000;stroke-width:1.5;"/>
    <path clip-path="url(#p362939adce)" d="M 246.210952 369.203567 
L 246.210952 368.136257 
" style="fill:none;stroke:#000000;stroke-width:1.5;"/>
    <path clip-path="url(#p362939adce)" d="M 283.961619 365.987693 
L 283.961619 364.916598 
" style="fill:none;stroke:#000000;stroke-width:1.5;"/>
    <path clip-path="url(#p362939adce)" d="M 321.712286 362.773003 
L 321.712286 361.890984 
" style="fill:none;stroke:#000000;stroke-width:1.5;"/>
    <path clip-path="url(#p362939adce)" d="M 359.462952 360.011354 
L 359.462952 358.180405 
" style="fill:none;stroke:#000000;stroke-width:1.5;"/>
    <path clip-path="url(#p362939adce)" d="M 397.213619 356.809517 
L 397.213619 355.564198 
" style="fill:none;stroke:#000000;stroke-width:1.5;"/>
    <path clip-path="url(#p362939adce)" d="M 434.964286 353.358146 
L 434.964286 351.482366 
" style="fill:none;stroke:#000000;stroke-width:1.5;"/>
    <path clip-path="url(#p362939adce)" d="M 472.714952 349.780759 
L 472.714952 347.499174 
" style="fill:none;stroke:#000000;stroke-width:1.5;"/>
    <path clip-path="url(#p362939adce)" d="M 510.465619 346.97148 
L 510.465619 344.75076 
" style="fill:none;stroke:#000000;stroke-width:1.5;"/>
    <path clip-path="url(#p362939adce)" d="M 548.216286 343.750927 
L 548.216286 340.67211 
" style="fill:none;stroke:#000000;stroke-width:1.5;"/>
    <path clip-path="url(#p362939adce)" d="M 585.966952 340.413704 
L 585.966952 338.190237 
" style="fill:none;stroke:#000000;stroke-width:1.5;"/>
    <path clip-path="url(#p362939adce)" d="M 623.717619 337.472336 
L 623.717619 334.253387 
" style="fill:none;stroke:#000000;stroke-width:1.5;"/>
   </g>
   <g id="LineCollection_7">
    <path clip-path="url(#p362939adce)" d="M 97.904762 389.146787 
L 97.904762 389.144277 
" style="fill:none;stroke:#000000;stroke-width:1.5;"/>
    <path clip-path="url(#p362939adce)" d="M 135.655429 389.013109 
L 135.655429 389.010546 
" style="fill:none;stroke:#000000;stroke-width:1.5;"/>
    <path clip-path="url(#p362939adce)" d="M 173.406095 388.878104 
L 173.406095 388.869731 
" style="fill:none;stroke:#000000;stroke-width:1.5;"/>
    <path clip-path="url(#p362939adce)" d="M 211.156762 388.695415 
L 211.156762 388.684151 
" style="fill:none;stroke:#000000;stroke-width:1.5;"/>
    <path clip-path="url(#p362939adce)" d="M 248.907429 388.500871 
L 248.907429 388.488188 
" style="fill:none;stroke:#000000;stroke-width:1.5;"/>
    <path clip-path="url(#p362939adce)" d="M 286.658095 388.281579 
L 286.658095 388.227469 
" style="fill:none;stroke:#000000;stroke-width:1.5;"/>
    <path clip-path="url(#p362939adce)" d="M 324.408762 388.027011 
L 324.408762 387.992694 
" style="fill:none;stroke:#000000;stroke-width:1.5;"/>
    <path clip-path="url(#p362939adce)" d="M 362.159429 387.765293 
L 362.159429 387.708252 
" style="fill:none;stroke:#000000;stroke-width:1.5;"/>
    <path clip-path="url(#p362939adce)" d="M 399.910095 387.501314 
L 399.910095 387.446455 
" style="fill:none;stroke:#000000;stroke-width:1.5;"/>
    <path clip-path="url(#p362939adce)" d="M 437.660762 387.11613 
L 437.660762 387.060193 
" style="fill:none;stroke:#000000;stroke-width:1.5;"/>
    <path clip-path="url(#p362939adce)" d="M 475.411429 386.679438 
L 475.411429 386.632005 
" style="fill:none;stroke:#000000;stroke-width:1.5;"/>
    <path clip-path="url(#p362939adce)" d="M 513.162095 386.244311 
L 513.162095 386.211519 
" style="fill:none;stroke:#000000;stroke-width:1.5;"/>
    <path clip-path="url(#p362939adce)" d="M 550.912762 385.784881 
L 550.912762 385.744769 
" style="fill:none;stroke:#000000;stroke-width:1.5;"/>
    <path clip-path="url(#p362939adce)" d="M 588.663429 385.318355 
L 588.663429 385.281738 
" style="fill:none;stroke:#000000;stroke-width:1.5;"/>
    <path clip-path="url(#p362939adce)" d="M 626.414095 384.840604 
L 626.414095 384.804145 
" style="fill:none;stroke:#000000;stroke-width:1.5;"/>
   </g>
   <g id="patch_108">
    <path d="M 70.94 389.32 
L 70.94 25.44 
" style="fill:none;stroke:#000000;stroke-linecap:square;stroke-linejoin:miter;stroke-width:0.8;"/>
   </g>
   <g id="patch_109">
    <path d="M 637.2 389.32 
L 637.2 25.44 
" style="fill:none;stroke:#000000;stroke-linecap:square;stroke-linejoin:miter;stroke-width:0.8;"/>
   </g>
   <g id="patch_110">
    <path d="M 70.94 389.32 
L 637.2 389.32 
" style="fill:none;stroke:#000000;stroke-linecap:square;stroke-linejoin:miter;stroke-width:0.8;"/>
   </g>
   <g id="patch_111">
    <path d="M 70.94 25.44 
L 637.2 25.44 
" style="fill:none;stroke:#000000;stroke-linecap:square;stroke-linejoin:miter;stroke-width:0.8;"/>
   </g>
   <g id="text_24">
    <!-- Increment Cost: Ticket Spin -->
    <defs>
     <path d="M 9.8125 72.90625 
L 19.671875 72.90625 
L 19.671875 0 
L 9.8125 0 
z
" id="DejaVuSans-73"/>
     <path d="M 11.71875 12.40625 
L 22.015625 12.40625 
L 22.015625 0 
L 11.71875 0 
z
M 11.71875 51.703125 
L 22.015625 51.703125 
L 22.015625 39.3125 
L 11.71875 39.3125 
z
" id="DejaVuSans-58"/>
     <path d="M -0.296875 72.90625 
L 61.375 72.90625 
L 61.375 64.59375 
L 35.5 64.59375 
L 35.5 0 
L 25.59375 0 
L 25.59375 64.59375 
L -0.296875 64.59375 
z
" id="DejaVuSans-84"/>
     <path d="M 9.078125 75.984375 
L 18.109375 75.984375 
L 18.109375 31.109375 
L 44.921875 54.6875 
L 56.390625 54.6875 
L 27.390625 29.109375 
L 57.625 0 
L 45.90625 0 
L 18.109375 26.703125 
L 18.109375 0 
L 9.078125 0 
z
" id="DejaVuSans-107"/>
     <path d="M 53.515625 70.515625 
L 53.515625 60.890625 
Q 47.90625 63.578125 42.921875 64.890625 
Q 37.9375 66.21875 33.296875 66.21875 
Q 25.25 66.21875 20.875 63.09375 
Q 16.5 59.96875 16.5 54.203125 
Q 16.5 49.359375 19.40625 46.890625 
Q 22.3125 44.4375 30.421875 42.921875 
L 36.375 41.703125 
Q 47.40625 39.59375 52.65625 34.296875 
Q 57.90625 29 57.90625 20.125 
Q 57.90625 9.515625 50.796875 4.046875 
Q 43.703125 -1.421875 29.984375 -1.421875 
Q 24.8125 -1.421875 18.96875 -0.25 
Q 13.140625 0.921875 6.890625 3.21875 
L 6.890625 13.375 
Q 12.890625 10.015625 18.65625 8.296875 
Q 24.421875 6.59375 29.984375 6.59375 
Q 38.421875 6.59375 43.015625 9.90625 
Q 47.609375 13.234375 47.609375 19.390625 
Q 47.609375 24.75 44.3125 27.78125 
Q 41.015625 30.8125 33.5 32.328125 
L 27.484375 33.5 
Q 16.453125 35.6875 11.515625 40.375 
Q 6.59375 45.0625 6.59375 53.421875 
Q 6.59375 63.09375 13.40625 68.65625 
Q 20.21875 74.21875 32.171875 74.21875 
Q 37.3125 74.21875 42.625 73.28125 
Q 47.953125 72.359375 53.515625 70.515625 
z
" id="DejaVuSans-83"/>
    </defs>
    <g transform="translate(271.039375 19.44)scale(0.12 -0.12)">
     <use xlink:href="#DejaVuSans-73"/>
     <use x="29.492188" xlink:href="#DejaVuSans-110"/>
     <use x="92.871094" xlink:href="#DejaVuSans-99"/>
     <use x="147.851562" xlink:href="#DejaVuSans-114"/>
     <use x="188.933594" xlink:href="#DejaVuSans-101"/>
     <use x="250.457031" xlink:href="#DejaVuSans-109"/>
     <use x="347.869141" xlink:href="#DejaVuSans-101"/>
     <use x="409.392578" xlink:href="#DejaVuSans-110"/>
     <use x="472.771484" xlink:href="#DejaVuSans-116"/>
     <use x="511.980469" xlink:href="#DejaVuSans-32"/>
     <use x="543.767578" xlink:href="#DejaVuSans-67"/>
     <use x="613.591797" xlink:href="#DejaVuSans-111"/>
     <use x="674.773438" xlink:href="#DejaVuSans-115"/>
     <use x="726.873047" xlink:href="#DejaVuSans-116"/>
     <use x="766.082031" xlink:href="#DejaVuSans-58"/>
     <use x="799.773438" xlink:href="#DejaVuSans-32"/>
     <use x="831.560547" xlink:href="#DejaVuSans-84"/>
     <use x="892.597656" xlink:href="#DejaVuSans-105"/>
     <use x="920.380859" xlink:href="#DejaVuSans-99"/>
     <use x="975.361328" xlink:href="#DejaVuSans-107"/>
     <use x="1033.224609" xlink:href="#DejaVuSans-101"/>
     <use x="1094.748047" xlink:href="#DejaVuSans-116"/>
     <use x="1133.957031" xlink:href="#DejaVuSans-32"/>
     <use x="1165.744141" xlink:href="#DejaVuSans-83"/>
     <use x="1229.220703" xlink:href="#DejaVuSans-112"/>
     <use x="1292.697266" xlink:href="#DejaVuSans-105"/>
     <use x="1320.480469" xlink:href="#DejaVuSans-110"/>
    </g>
   </g>
   <g id="legend_1">
    <g id="patch_112">
     <path d="M 77.94 150.865 
L 183.172813 150.865 
Q 185.172813 150.865 185.172813 148.865 
L 185.172813 32.44 
Q 185.172813 30.44 183.172813 30.44 
L 77.94 30.44 
Q 75.94 30.44 75.94 32.44 
L 75.94 148.865 
Q 75.94 150.865 77.94 150.865 
z
" style="fill:#ffffff;opacity:0.8;stroke:#cccccc;stroke-linejoin:miter;"/>
    </g>
    <g id="text_25">
     <!-- Implementation -->
     <defs>
      <path d="M 9.421875 75.984375 
L 18.40625 75.984375 
L 18.40625 0 
L 9.421875 0 
z
" id="DejaVuSans-108"/>
     </defs>
     <g transform="translate(90.854063 42.038438)scale(0.1 -0.1)">
      <use xlink:href="#DejaVuSans-73"/>
      <use x="29.492188" xlink:href="#DejaVuSans-109"/>
      <use x="126.904297" xlink:href="#DejaVuSans-112"/>
      <use x="190.380859" xlink:href="#DejaVuSans-108"/>
      <use x="218.164062" xlink:href="#DejaVuSans-101"/>
      <use x="279.6875" xlink:href="#DejaVuSans-109"/>
      <use x="377.099609" xlink:href="#DejaVuSans-101"/>
      <use x="438.623047" xlink:href="#DejaVuSans-110"/>
      <use x="502.001953" xlink:href="#DejaVuSans-116"/>
      <use x="541.210938" xlink:href="#DejaVuSans-97"/>
      <use x="602.490234" xlink:href="#DejaVuSans-116"/>
      <use x="641.699219" xlink:href="#DejaVuSans-105"/>
      <use x="669.482422" xlink:href="#DejaVuSans-111"/>
      <use x="730.664062" xlink:href="#DejaVuSans-110"/>
     </g>
    </g>
    <g id="patch_113">
     <path d="M 79.94 56.716563 
L 99.94 56.716563 
L 99.94 49.716563 
L 79.94 49.716563 
z
" style="fill:#1f77b4;"/>
    </g>
    <g id="text_26">
     <!-- mutex add -->
     <defs>
      <path d="M 8.5 21.578125 
L 8.5 54.6875 
L 17.484375 54.6875 
L 17.484375 21.921875 
Q 17.484375 14.15625 20.5 10.265625 
Q 23.53125 6.390625 29.59375 6.390625 
Q 36.859375 6.390625 41.078125 11.03125 
Q 45.3125 15.671875 45.3125 23.6875 
L 45.3125 54.6875 
L 54.296875 54.6875 
L 54.296875 0 
L 45.3125 0 
L 45.3125 8.40625 
Q 42.046875 3.421875 37.71875 1 
Q 33.40625 -1.421875 27.6875 -1.421875 
Q 18.265625 -1.421875 13.375 4.4375 
Q 8.5 10.296875 8.5 21.578125 
z
M 31.109375 56 
z
" id="DejaVuSans-117"/>
      <path d="M 54.890625 54.6875 
L 35.109375 28.078125 
L 55.90625 0 
L 45.3125 0 
L 29.390625 21.484375 
L 13.484375 0 
L 2.875 0 
L 24.125 28.609375 
L 4.6875 54.6875 
L 15.28125 54.6875 
L 29.78125 35.203125 
L 44.28125 54.6875 
z
" id="DejaVuSans-120"/>
     </defs>
     <g transform="translate(107.94 56.716563)scale(0.1 -0.1)">
      <use xlink:href="#DejaVuSans-109"/>
      <use x="97.412109" xlink:href="#DejaVuSans-117"/>
      <use x="160.791016" xlink:href="#DejaVuSans-116"/>
      <use x="200" xlink:href="#DejaVuSans-101"/>
      <use x="261.507812" xlink:href="#DejaVuSans-120"/>
      <use x="320.6875" xlink:href="#DejaVuSans-32"/>
      <use x="352.474609" xlink:href="#DejaVuSans-97"/>
      <use x="413.753906" xlink:href="#DejaVuSans-100"/>
      <use x="477.230469" xlink:href="#DejaVuSans-100"/>
     </g>
    </g>
    <g id="patch_114">
     <path d="M 79.94 71.394688 
L 99.94 71.394688 
L 99.94 64.394688 
L 79.94 64.394688 
z
" style="fill:#ff7f0e;"/>
    </g>
    <g id="text_27">
     <!-- atomic add -->
     <g transform="translate(107.94 71.394688)scale(0.1 -0.1)">
      <use xlink:href="#DejaVuSans-97"/>
      <use x="61.279297" xlink:href="#DejaVuSans-116"/>
      <use x="100.488281" xlink:href="#DejaVuSans-111"/>
      <use x="161.669922" xlink:href="#DejaVuSans-109"/>
      <use x="259.082031" xlink:href="#DejaVuSans-105"/>
      <use x="286.865234" xlink:href="#DejaVuSans-99"/>
      <use x="341.845703" xlink:href="#DejaVuSans-32"/>
      <use x="373.632812" xlink:href="#DejaVuSans-97"/>
      <use x="434.912109" xlink:href="#DejaVuSans-100"/>
      <use x="498.388672" xlink:href="#DejaVuSans-100"/>
     </g>
    </g>
    <g id="patch_115">
     <path d="M 79.94 86.072813 
L 99.94 86.072813 
L 99.94 79.072813 
L 79.94 79.072813 
z
" style="fill:#2ca02c;"/>
    </g>
    <g id="text_28">
     <!-- cas add -->
     <g transform="translate(107.94 86.072813)scale(0.1 -0.1)">
      <use xlink:href="#DejaVuSans-99"/>
      <use x="54.980469" xlink:href="#DejaVuSans-97"/>
      <use x="116.259766" xlink:href="#DejaVuSans-115"/>
      <use x="168.359375" xlink:href="#DejaVuSans-32"/>
      <use x="200.146484" xlink:href="#DejaVuSans-97"/>
      <use x="261.425781" xlink:href="#DejaVuSans-100"/>
      <use x="324.902344" xlink:href="#DejaVuSans-100"/>
     </g>
    </g>
    <g id="patch_116">
     <path d="M 79.94 100.750938 
L 99.94 100.750938 
L 99.94 93.750938 
L 79.94 93.750938 
z
" style="fill:#d62728;"/>
    </g>
    <g id="text_29">
     <!-- ticket yield -->
     <defs>
      <path d="M 32.171875 -5.078125 
Q 28.375 -14.84375 24.75 -17.8125 
Q 21.140625 -20.796875 15.09375 -20.796875 
L 7.90625 -20.796875 
L 7.90625 -13.28125 
L 13.1875 -13.28125 
Q 16.890625 -13.28125 18.9375 -11.515625 
Q 21 -9.765625 23.484375 -3.21875 
L 25.09375 0.875 
L 2.984375 54.6875 
L 12.5 54.6875 
L 29.59375 11.921875 
L 46.6875 54.6875 
L 56.203125 54.6875 
z
" id="DejaVuSans-121"/>
     </defs>
     <g transform="translate(107.94 100.750938)scale(0.1 -0.1)">
      <use xlink:href="#DejaVuSans-116"/>
      <use x="39.208984" xlink:href="#DejaVuSans-105"/>
      <use x="66.992188" xlink:href="#DejaVuSans-99"/>
      <use x="121.972656" xlink:href="#DejaVuSans-107"/>
      <use x="179.835938" xlink:href="#DejaVuSans-101"/>
      <use x="241.359375" xlink:href="#DejaVuSans-116"/>
      <use x="280.568359" xlink:href="#DejaVuSans-32"/>
      <use x="312.355469" xlink:href="#DejaVuSans-121"/>
      <use x="371.535156" xlink:href="#DejaVuSans-105"/>
      <use x="399.318359" xlink:href="#DejaVuSans-101"/>
      <use x="460.841797" xlink:href="#DejaVuSans-108"/>
      <use x="488.625" xlink:href="#DejaVuSans-100"/>
     </g>
    </g>
    <g id="patch_117">
     <path d="M 79.94 115.429063 
L 99.94 115.429063 
L 99.94 108.429063 
L 79.94 108.429063 
z
" style="fill:#9467bd;"/>
    </g>
    <g id="text_30">
     <!-- ticket blocking -->
     <defs>
      <path d="M 48.6875 27.296875 
Q 48.6875 37.203125 44.609375 42.84375 
Q 40.53125 48.484375 33.40625 48.484375 
Q 26.265625 48.484375 22.1875 42.84375 
Q 18.109375 37.203125 18.109375 27.296875 
Q 18.109375 17.390625 22.1875 11.75 
Q 26.265625 6.109375 33.40625 6.109375 
Q 40.53125 6.109375 44.609375 11.75 
Q 48.6875 17.390625 48.6875 27.296875 
z
M 18.109375 46.390625 
Q 20.953125 51.265625 25.265625 53.625 
Q 29.59375 56 35.59375 56 
Q 45.5625 56 51.78125 48.09375 
Q 58.015625 40.1875 58.015625 27.296875 
Q 58.015625 14.40625 51.78125 6.484375 
Q 45.5625 -1.421875 35.59375 -1.421875 
Q 29.59375 -1.421875 25.265625 0.953125 
Q 20.953125 3.328125 18.109375 8.203125 
L 18.109375 0 
L 9.078125 0 
L 9.078125 75.984375 
L 18.109375 75.984375 
z
" id="DejaVuSans-98"/>
      <path d="M 45.40625 27.984375 
Q 45.40625 37.75 41.375 43.109375 
Q 37.359375 48.484375 30.078125 48.484375 
Q 22.859375 48.484375 18.828125 43.109375 
Q 14.796875 37.75 14.796875 27.984375 
Q 14.796875 18.265625 18.828125 12.890625 
Q 22.859375 7.515625 30.078125 7.515625 
Q 37.359375 7.515625 41.375 12.890625 
Q 45.40625 18.265625 45.40625 27.984375 
z
M 54.390625 6.78125 
Q 54.390625 -7.171875 48.1875 -13.984375 
Q 42 -20.796875 29.203125 -20.796875 
Q 24.46875 -20.796875 20.265625 -20.09375 
Q 16.0625 -19.390625 12.109375 -17.921875 
L 12.109375 -9.1875 
Q 16.0625 -11.328125 19.921875 -12.34375 
Q 23.78125 -13.375 27.78125 -13.375 
Q 36.625 -13.375 41.015625 -8.765625 
Q 45.40625 -4.15625 45.40625 5.171875 
L 45.40625 9.625 
Q 42.625 4.78125 38.28125 2.390625 
Q 33.9375 0 27.875 0 
Q 17.828125 0 11.671875 7.65625 
Q 5.515625 15.328125 5.515625 27.984375 
Q 5.515625 40.671875 11.671875 48.328125 
Q 17.828125 56 27.875 56 
Q 33.9375 56 38.28125 53.609375 
Q 42.625 51.21875 45.40625 46.390625 
L 45.40625 54.6875 
L 54.390625 54.6875 
z
" id="DejaVuSans-103"/>
     </defs>
     <g transform="translate(107.94 115.429063)scale(0.1 -0.1)">
      <use xlink:href="#DejaVuSans-116"/>
      <use x="39.208984" xlink:href="#DejaVuSans-105"/>
      <use x="66.992188" xlink:href="#DejaVuSans-99"/>
      <use x="121.972656" xlink:href="#DejaVuSans-107"/>
      <use x="179.835938" xlink:href="#DejaVuSans-101"/>
      <use x="241.359375" xlink:href="#DejaVuSans-116"/>
      <use x="280.568359" xlink:href="#DejaVuSans-32"/>
      <use x="312.355469" xlink:href="#DejaVuSans-98"/>
      <use x="375.832031" xlink:href="#DejaVuSans-108"/>
      <use x="403.615234" xlink:href="#DejaVuSans-111"/>
      <use x="464.796875" xlink:href="#DejaVuSans-99"/>
      <use x="519.777344" xlink:href="#DejaVuSans-107"/>
      <use x="577.6875" xlink:href="#DejaVuSans-105"/>
      <use x="605.470703" xlink:href="#DejaVuSans-110"/>
      <use x="668.849609" xlink:href="#DejaVuSans-103"/>
     </g>
    </g>
    <g id="patch_118">
     <path d="M 79.94 130.107188 
L 99.94 130.107188 
L 99.94 123.107188 
L 79.94 123.107188 
z
" style="fill:#8c564b;"/>
    </g>
    <g id="text_31">
     <!-- queued fifo -->
     <defs>
      <path d="M 14.796875 27.296875 
Q 14.796875 17.390625 18.875 11.75 
Q 22.953125 6.109375 30.078125 6.109375 
Q 37.203125 6.109375 41.296875 11.75 
Q 45.40625 17.390625 45.40625 27.296875 
Q 45.40625 37.203125 41.296875 42.84375 
Q 37.203125 48.484375 30.078125 48.484375 
Q 22.953125 48.484375 18.875 42.84375 
Q 14.796875 37.203125 14.796875 27.296875 
z
M 45.40625 8.203125 
Q 42.578125 3.328125 38.25 0.953125 
Q 33.9375 -1.421875 27.875 -1.421875 
Q 17.96875 -1.421875 11.734375 6.484375 
Q 5.515625 14.40625 5.515625 27.296875 
Q 5.515625 40.1875 11.734375 48.09375 
Q 17.96875 56 27.875 56 
Q 33.9375 56 38.25 53.625 
Q 42.578125 51.265625 45.40625 46.390625 
L 45.40625 54.6875 
L 54.390625 54.6875 
L 54.390625 -20.796875 
L 45.40625 -20.796875 
z
" id="DejaVuSans-113"/>
      <path d="M 37.109375 75.984375 
L 37.109375 68.5 
L 28.515625 68.5 
Q 23.6875 68.5 21.796875 66.546875 
Q 19.921875 64.59375 19.921875 59.515625 
L 19.921875 54.6875 
L 34.71875 54.6875 
L 34.71875 47.703125 
L 19.921875 47.703125 
L 19.921875 0 
L 10.890625 0 
L 10.890625 47.703125 
L 2.296875 47.703125 
L 2.296875 54.6875 
L 10.890625 54.6875 
L 10.890625 58.5 
Q 10.890625 67.625 15.140625 71.796875 
Q 19.390625 75.984375 28.609375 75.984375 
z
" id="DejaVuSans-102"/>
     </defs>
     <g transform="translate(107.94 130.107188)scale(0.1 -0.1)">
      <use xlink:href="#DejaVuSans-113"/>
      <use x="63.476562" xlink:href="#DejaVuSans-117"/>
      <use x="126.855469" xlink:href="#DejaVuSans-101"/>
      <use x="188.378906" xlink:href="#DejaVuSans-117"/>
      <use x="251.757812" xlink:href="#DejaVuSans-101"/>
      <use x="313.28125" xlink:href="#DejaVuSans-100"/>
      <use x="376.757812" xlink:href="#DejaVuSans-32"/>
      <use x="408.544922" xlink:href="#DejaVuSans-102"/>
      <use x="443.75" xlink:href="#DejaVuSans-105"/>
      <use x="471.533203" xlink:href="#DejaVuSans-102"/>
      <use x="506.738281" xlink:href="#DejaVuSans-111"/>
     </g>
    </g>
    <g id="patch_119">
     <path d="M 79.94 144.785313 
L 99.94 144.785313 
L 99.94 137.785313 
L 79.94 137.785313 
z
" style="fill:#e377c2;"/>
    </g>
    <g id="text_32">
     <!-- ticket spin -->
     <g transform="translate(107.94 144.785313)scale(0.1 -0.1)">
      <use xlink:href="#DejaVuSans-116"/>
      <use x="39.208984" xlink:href="#DejaVuSans-105"/>
      <use x="66.992188" xlink:href="#DejaVuSans-99"/>
      <use x="121.972656" xlink:href="#DejaVuSans-107"/>
      <use x="179.835938" xlink:href="#DejaVuSans-101"/>
      <use x="241.359375" xlink:href="#DejaVuSans-116"/>
      <use x="280.568359" xlink:href="#DejaVuSans-32"/>
      <use x="312.355469" xlink:href="#DejaVuSans-115"/>
      <use x="364.455078" xlink:href="#DejaVuSans-112"/>
      <use x="427.931641" xlink:href="#DejaVuSans-105"/>
      <use x="455.714844" xlink:href="#DejaVuSans-110"/>
     </g>
    </g>
   </g>
  </g>
 </g>
 <defs>
  <clipPath id="p362939adce">
   <rect height="363.88" width="566.26" x="70.94" y="25.44"/>
  </clipPath>
 </defs>
</svg>
