<?xml version="1.0" encoding="utf-8" standalone="no"?>
<!DOCTYPE svg PUBLIC "-//W3C//DTD SVG 1.1//EN"
  "http://www.w3.org/Graphics/SVG/1.1/DTD/svg11.dtd">
<!-- Created with matplotlib (https://matplotlib.org/) -->
<svg height="432pt" version="1.1" viewBox="0 0 648 432" width="648pt" xmlns="http://www.w3.org/2000/svg" xmlns:xlink="http://www.w3.org/1999/xlink">
 <defs>
  <style type="text/css">
*{stroke-linecap:butt;stroke-linejoin:round;}
  </style>
 </defs>
 <g id="figure_1">
  <g id="patch_1">
   <path d="M 0 432 
L 648 432 
L 648 0 
L 0 0 
z
" style="fill:#ffffff;"/>
  </g>
  <g id="axes_1">
   <g id="patch_2">
    <path d="M 77.33 389.32 
L 637.2 389.32 
L 637.2 25.44 
L 77.33 25.44 
z
" style="fill:#ffffff;"/>
   </g>
   <g id="patch_3">
    <path clip-path="url(#p2b8a11e210)" d="M 85.563382 389.32 
L 87.915777 389.32 
L 87.915777 389.300038 
L 85.563382 389.300038 
z
" style="fill:#1f77b4;"/>
   </g>
   <g id="patch_4">
    <path clip-path="url(#p2b8a11e210)" d="M 118.496912 389.32 
L 120.849307 389.32 
L 120.849307 389.300161 
L 118.496912 389.300161 
z
" style="fill:#1f77b4;"/>
   </g>
   <g id="patch_5">
    <path clip-path="url(#p2b8a11e210)" d="M 151.430441 389.32 
L 153.782836 389.32 
L 153.782836 389.282849 
L 151.430441 389.282849 
z
" style="fill:#1f77b4;"/>
   </g>
   <g id="patch_6">
    <path clip-path="url(#p2b8a11e210)" d="M 184.363971 389.32 
L 186.716366 389.32 
L 186.716366 389.291686 
L 184.363971 389.291686 
z
" style="fill:#1f77b4;"/>
   </g>
   <g id="patch_7">
    <path clip-path="url(#p2b8a11e210)" d="M 217.2975 389.32 
L 219.649895 389.32 
L 219.649895 389.273043 
L 217.2975 389.273043 
z
" style="fill:#1f77b4;"/>
   </g>
   <g id="patch_8">
    <path clip-path="url(#p2b8a11e210)" d="M 250.231029 389.32 
L 252.583424 389.32 
L 252.583424 389.263553 
L 250.231029 389.263553 
z
" style="fill:#1f77b4;"/>
   </g>
   <g id="patch_9">
    <path clip-path="url(#p2b8a11e210)" d="M 283.164559 389.32 
L 285.516954 389.32 
L 285.516954 389.255686 
L 283.164559 389.255686 
z
" style="fill:#1f77b4;"/>
   </g>
   <g id="patch_10">
    <path clip-path="url(#p2b8a11e210)" d="M 316.098088 389.32 
L 318.450483 389.32 
L 318.450483 389.248536 
L 316.098088 389.248536 
z
" style="fill:#1f77b4;"/>
   </g>
   <g id="patch_11">
    <path clip-path="url(#p2b8a11e210)" d="M 349.031618 389.32 
L 351.384013 389.32 
L 351.384013 389.239079 
L 349.031618 389.239079 
z
" style="fill:#1f77b4;"/>
   </g>
   <g id="patch_12">
    <path clip-path="url(#p2b8a11e210)" d="M 381.965147 389.32 
L 384.317542 389.32 
L 384.317542 389.231412 
L 381.965147 389.231412 
z
" style="fill:#1f77b4;"/>
   </g>
   <g id="patch_13">
    <path clip-path="url(#p2b8a11e210)" d="M 414.898676 389.32 
L 417.251071 389.32 
L 417.251071 389.22456 
L 414.898676 389.22456 
z
" style="fill:#1f77b4;"/>
   </g>
   <g id="patch_14">
    <path clip-path="url(#p2b8a11e210)" d="M 447.832206 389.32 
L 450.184601 389.32 
L 450.184601 389.216945 
L 447.832206 389.216945 
z
" style="fill:#1f77b4;"/>
   </g>
   <g id="patch_15">
    <path clip-path="url(#p2b8a11e210)" d="M 480.765735 389.32 
L 483.11813 389.32 
L 483.11813 389.209879 
L 480.765735 389.209879 
z
" style="fill:#1f77b4;"/>
   </g>
   <g id="patch_16">
    <path clip-path="url(#p2b8a11e210)" d="M 513.699265 389.32 
L 516.05166 389.32 
L 516.05166 389.199252 
L 513.699265 389.199252 
z
" style="fill:#1f77b4;"/>
   </g>
   <g id="patch_17">
    <path clip-path="url(#p2b8a11e210)" d="M 546.632794 389.32 
L 548.985189 389.32 
L 548.985189 389.189413 
L 546.632794 389.189413 
z
" style="fill:#1f77b4;"/>
   </g>
   <g id="patch_18">
    <path clip-path="url(#p2b8a11e210)" d="M 579.566324 389.32 
L 581.918718 389.32 
L 581.918718 389.171617 
L 579.566324 389.171617 
z
" style="fill:#1f77b4;"/>
   </g>
   <g id="patch_19">
    <path clip-path="url(#p2b8a11e210)" d="M 612.499853 389.32 
L 614.852248 389.32 
L 614.852248 389.163064 
L 612.499853 389.163064 
z
" style="fill:#1f77b4;"/>
   </g>
   <g id="patch_20">
    <path clip-path="url(#p2b8a11e210)" d="M 87.915777 389.32 
L 90.268172 389.32 
L 90.268172 389.318901 
L 87.915777 389.318901 
z
" style="fill:#ff7f0e;"/>
   </g>
   <g id="patch_21">
    <path clip-path="url(#p2b8a11e210)" d="M 120.849307 389.32 
L 123.201702 389.32 
L 123.201702 389.318306 
L 120.849307 389.318306 
z
" style="fill:#ff7f0e;"/>
   </g>
   <g id="patch_22">
    <path clip-path="url(#p2b8a11e210)" d="M 153.782836 389.32 
L 156.135231 389.32 
L 156.135231 389.317757 
L 153.782836 389.317757 
z
" style="fill:#ff7f0e;"/>
   </g>
   <g id="patch_23">
    <path clip-path="url(#p2b8a11e210)" d="M 186.716366 389.32 
L 189.068761 389.32 
L 189.068761 389.317052 
L 186.716366 389.317052 
z
" style="fill:#ff7f0e;"/>
   </g>
   <g id="patch_24">
    <path clip-path="url(#p2b8a11e210)" d="M 219.649895 389.32 
L 222.00229 389.32 
L 222.00229 389.316361 
L 219.649895 389.316361 
z
" style="fill:#ff7f0e;"/>
   </g>
   <g id="patch_25">
    <path clip-path="url(#p2b8a11e210)" d="M 252.583424 389.32 
L 254.935819 389.32 
L 254.935819 389.315734 
L 252.583424 389.315734 
z
" style="fill:#ff7f0e;"/>
   </g>
   <g id="patch_26">
    <path clip-path="url(#p2b8a11e210)" d="M 285.516954 389.32 
L 287.869349 389.32 
L 287.869349 389.315119 
L 285.516954 389.315119 
z
" style="fill:#ff7f0e;"/>
   </g>
   <g id="patch_27">
    <path clip-path="url(#p2b8a11e210)" d="M 318.450483 389.32 
L 320.802878 389.32 
L 320.802878 389.314531 
L 318.450483 389.314531 
z
" style="fill:#ff7f0e;"/>
   </g>
   <g id="patch_28">
    <path clip-path="url(#p2b8a11e210)" d="M 351.384013 389.32 
L 353.736408 389.32 
L 353.736408 389.313936 
L 351.384013 389.313936 
z
" style="fill:#ff7f0e;"/>
   </g>
   <g id="patch_29">
    <path clip-path="url(#p2b8a11e210)" d="M 384.317542 389.32 
L 386.669937 389.32 
L 386.669937 389.313251 
L 384.317542 389.313251 
z
" style="fill:#ff7f0e;"/>
   </g>
   <g id="patch_30">
    <path clip-path="url(#p2b8a11e210)" d="M 417.251071 389.32 
L 419.603466 389.32 
L 419.603466 389.312592 
L 417.251071 389.312592 
z
" style="fill:#ff7f0e;"/>
   </g>
   <g id="patch_31">
    <path clip-path="url(#p2b8a11e210)" d="M 450.184601 389.32 
L 452.536996 389.32 
L 452.536996 389.311997 
L 450.184601 389.311997 
z
" style="fill:#ff7f0e;"/>
   </g>
   <g id="patch_32">
    <path clip-path="url(#p2b8a11e210)" d="M 483.11813 389.32 
L 485.470525 389.32 
L 485.470525 389.311415 
L 483.11813 389.311415 
z
" style="fill:#ff7f0e;"/>
   </g>
   <g id="patch_33">
    <path clip-path="url(#p2b8a11e210)" d="M 516.05166 389.32 
L 518.404055 389.32 
L 518.404055 389.310846 
L 516.05166 389.310846 
z
" style="fill:#ff7f0e;"/>
   </g>
   <g id="patch_34">
    <path clip-path="url(#p2b8a11e210)" d="M 548.985189 389.32 
L 551.337584 389.32 
L 551.337584 389.310284 
L 548.985189 389.310284 
z
" style="fill:#ff7f0e;"/>
   </g>
   <g id="patch_35">
    <path clip-path="url(#p2b8a11e210)" d="M 581.918718 389.32 
L 584.271113 389.32 
L 584.271113 389.310252 
L 581.918718 389.310252 
z
" style="fill:#ff7f0e;"/>
   </g>
   <g id="patch_36">
    <path clip-path="url(#p2b8a11e210)" d="M 614.852248 389.32 
L 617.204643 389.32 
L 617.204643 389.309676 
L 614.852248 389.309676 
z
" style="fill:#ff7f0e;"/>
   </g>
   <g id="patch_37">
    <path clip-path="url(#p2b8a11e210)" d="M 90.268172 389.32 
L 92.620567 389.32 
L 92.620567 389.316626 
L 90.268172 389.316626 
z
" style="fill:#2ca02c;"/>
   </g>
   <g id="patch_38">
    <path clip-path="url(#p2b8a11e210)" d="M 123.201702 389.32 
L 125.554097 389.32 
L 125.554097 389.314563 
L 123.201702 389.314563 
z
" style="fill:#2ca02c;"/>
   </g>
   <g id="patch_39">
    <path clip-path="url(#p2b8a11e210)" d="M 156.135231 389.32 
L 158.487626 389.32 
L 158.487626 389.312469 
L 156.135231 389.312469 
z
" style="fill:#2ca02c;"/>
   </g>
   <g id="patch_40">
    <path clip-path="url(#p2b8a11e210)" d="M 189.068761 389.32 
L 191.421155 389.32 
L 191.421155 389.309166 
L 189.068761 389.309166 
z
" style="fill:#2ca02c;"/>
   </g>
   <g id="patch_41">
    <path clip-path="url(#p2b8a11e210)" d="M 222.00229 389.32 
L 224.354685 389.32 
L 224.354685 389.305908 
L 222.00229 389.305908 
z
" style="fill:#2ca02c;"/>
   </g>
   <g id="patch_42">
    <path clip-path="url(#p2b8a11e210)" d="M 254.935819 389.32 
L 257.288214 389.32 
L 257.288214 389.302113 
L 254.935819 389.302113 
z
" style="fill:#2ca02c;"/>
   </g>
   <g id="patch_43">
    <path clip-path="url(#p2b8a11e210)" d="M 287.869349 389.32 
L 290.221744 389.32 
L 290.221744 389.299101 
L 287.869349 389.299101 
z
" style="fill:#2ca02c;"/>
   </g>
   <g id="patch_44">
    <path clip-path="url(#p2b8a11e210)" d="M 320.802878 389.32 
L 323.155273 389.32 
L 323.155273 389.29658 
L 320.802878 389.29658 
z
" style="fill:#2ca02c;"/>
   </g>
   <g id="patch_45">
    <path clip-path="url(#p2b8a11e210)" d="M 353.736408 389.32 
L 356.088803 389.32 
L 356.088803 389.294039 
L 353.736408 389.294039 
z
" style="fill:#2ca02c;"/>
   </g>
   <g id="patch_46">
    <path clip-path="url(#p2b8a11e210)" d="M 386.669937 389.32 
L 389.022332 389.32 
L 389.022332 389.290619 
L 386.669937 389.290619 
z
" style="fill:#2ca02c;"/>
   </g>
   <g id="patch_47">
    <path clip-path="url(#p2b8a11e210)" d="M 419.603466 389.32 
L 421.955861 389.32 
L 421.955861 389.287187 
L 419.603466 389.287187 
z
" style="fill:#2ca02c;"/>
   </g>
   <g id="patch_48">
    <path clip-path="url(#p2b8a11e210)" d="M 452.536996 389.32 
L 454.889391 389.32 
L 454.889391 389.285409 
L 452.536996 389.285409 
z
" style="fill:#2ca02c;"/>
   </g>
   <g id="patch_49">
    <path clip-path="url(#p2b8a11e210)" d="M 485.470525 389.32 
L 487.82292 389.32 
L 487.82292 389.283884 
L 485.470525 389.283884 
z
" style="fill:#2ca02c;"/>
   </g>
   <g id="patch_50">
    <path clip-path="url(#p2b8a11e210)" d="M 518.404055 389.32 
L 520.75645 389.32 
L 520.75645 389.281194 
L 518.404055 389.281194 
z
" style="fill:#2ca02c;"/>
   </g>
   <g id="patch_51">
    <path clip-path="url(#p2b8a11e210)" d="M 551.337584 389.32 
L 553.689979 389.32 
L 553.689979 389.278712 
L 551.337584 389.278712 
z
" style="fill:#2ca02c;"/>
   </g>
   <g id="patch_52">
    <path clip-path="url(#p2b8a11e210)" d="M 584.271113 389.32 
L 586.623508 389.32 
L 586.623508 389.28316 
L 584.271113 389.28316 
z
" style="fill:#2ca02c;"/>
   </g>
   <g id="patch_53">
    <path clip-path="url(#p2b8a11e210)" d="M 617.204643 389.32 
L 619.557038 389.32 
L 619.557038 389.280981 
L 617.204643 389.280981 
z
" style="fill:#2ca02c;"/>
   </g>
   <g id="patch_54">
    <path clip-path="url(#p2b8a11e210)" d="M 92.620567 389.32 
L 94.972962 389.32 
L 94.972962 389.296567 
L 92.620567 389.296567 
z
" style="fill:#d62728;"/>
   </g>
   <g id="patch_55">
    <path clip-path="url(#p2b8a11e210)" d="M 125.554097 389.32 
L 127.906492 389.32 
L 127.906492 389.286165 
L 125.554097 389.286165 
z
" style="fill:#d62728;"/>
   </g>
   <g id="patch_56">
    <path clip-path="url(#p2b8a11e210)" d="M 158.487626 389.32 
L 160.840021 389.32 
L 160.840021 389.254955 
L 158.487626 389.254955 
z
" style="fill:#d62728;"/>
   </g>
   <g id="patch_57">
    <path clip-path="url(#p2b8a11e210)" d="M 191.421155 389.32 
L 193.77355 389.32 
L 193.77355 389.237372 
L 191.421155 389.237372 
z
" style="fill:#d62728;"/>
   </g>
   <g id="patch_58">
    <path clip-path="url(#p2b8a11e210)" d="M 224.354685 389.32 
L 226.70708 389.32 
L 226.70708 389.2252 
L 224.354685 389.2252 
z
" style="fill:#d62728;"/>
   </g>
   <g id="patch_59">
    <path clip-path="url(#p2b8a11e210)" d="M 257.288214 389.32 
L 259.640609 389.32 
L 259.640609 389.185922 
L 257.288214 389.185922 
z
" style="fill:#d62728;"/>
   </g>
   <g id="patch_60">
    <path clip-path="url(#p2b8a11e210)" d="M 290.221744 389.32 
L 292.574139 389.32 
L 292.574139 389.149269 
L 290.221744 389.149269 
z
" style="fill:#d62728;"/>
   </g>
   <g id="patch_61">
    <path clip-path="url(#p2b8a11e210)" d="M 323.155273 389.32 
L 325.507668 389.32 
L 325.507668 389.112261 
L 323.155273 389.112261 
z
" style="fill:#d62728;"/>
   </g>
   <g id="patch_62">
    <path clip-path="url(#p2b8a11e210)" d="M 356.088803 389.32 
L 358.441197 389.32 
L 358.441197 389.075375 
L 356.088803 389.075375 
z
" style="fill:#d62728;"/>
   </g>
   <g id="patch_63">
    <path clip-path="url(#p2b8a11e210)" d="M 389.022332 389.32 
L 391.374727 389.32 
L 391.374727 389.036653 
L 389.022332 389.036653 
z
" style="fill:#d62728;"/>
   </g>
   <g id="patch_64">
    <path clip-path="url(#p2b8a11e210)" d="M 421.955861 389.32 
L 424.308256 389.32 
L 424.308256 388.990724 
L 421.955861 388.990724 
z
" style="fill:#d62728;"/>
   </g>
   <g id="patch_65">
    <path clip-path="url(#p2b8a11e210)" d="M 454.889391 389.32 
L 457.241786 389.32 
L 457.241786 388.938408 
L 454.889391 388.938408 
z
" style="fill:#d62728;"/>
   </g>
   <g id="patch_66">
    <path clip-path="url(#p2b8a11e210)" d="M 487.82292 389.32 
L 490.175315 389.32 
L 490.175315 388.884637 
L 487.82292 388.884637 
z
" style="fill:#d62728;"/>
   </g>
   <g id="patch_67">
    <path clip-path="url(#p2b8a11e210)" d="M 520.75645 389.32 
L 523.108845 389.32 
L 523.108845 388.834247 
L 520.75645 388.834247 
z
" style="fill:#d62728;"/>
   </g>
   <g id="patch_68">
    <path clip-path="url(#p2b8a11e210)" d="M 553.689979 389.32 
L 556.042374 389.32 
L 556.042374 388.770108 
L 553.689979 388.770108 
z
" style="fill:#d62728;"/>
   </g>
   <g id="patch_69">
    <path clip-path="url(#p2b8a11e210)" d="M 586.623508 389.32 
L 588.975903 389.32 
L 588.975903 388.705193 
L 586.623508 388.705193 
z
" style="fill:#d62728;"/>
   </g>
   <g id="patch_70">
    <path clip-path="url(#p2b8a11e210)" d="M 619.557038 389.32 
L 621.909433 389.32 
L 621.909433 388.641234 
L 619.557038 388.641234 
z
" style="fill:#d62728;"/>
   </g>
   <g id="patch_71">
    <path clip-path="url(#p2b8a11e210)" d="M 94.972962 389.32 
L 97.325357 389.32 
L 97.325357 388.708127 
L 94.972962 388.708127 
z
" style="fill:#9467bd;"/>
   </g>
   <g id="patch_72">
    <path clip-path="url(#p2b8a11e210)" d="M 127.906492 389.32 
L 130.258887 389.32 
L 130.258887 387.570785 
L 127.906492 387.570785 
z
" style="fill:#9467bd;"/>
   </g>
   <g id="patch_73">
    <path clip-path="url(#p2b8a11e210)" d="M 160.840021 389.32 
L 163.192416 389.32 
L 163.192416 387.603618 
L 160.840021 387.603618 
z
" style="fill:#9467bd;"/>
   </g>
   <g id="patch_74">
    <path clip-path="url(#p2b8a11e210)" d="M 193.77355 389.32 
L 196.125945 389.32 
L 196.125945 386.407359 
L 193.77355 386.407359 
z
" style="fill:#9467bd;"/>
   </g>
   <g id="patch_75">
    <path clip-path="url(#p2b8a11e210)" d="M 226.70708 389.32 
L 229.059475 389.32 
L 229.059475 384.425013 
L 226.70708 384.425013 
z
" style="fill:#9467bd;"/>
   </g>
   <g id="patch_76">
    <path clip-path="url(#p2b8a11e210)" d="M 259.640609 389.32 
L 261.993004 389.32 
L 261.993004 382.638615 
L 259.640609 382.638615 
z
" style="fill:#9467bd;"/>
   </g>
   <g id="patch_77">
    <path clip-path="url(#p2b8a11e210)" d="M 292.574139 389.32 
L 294.926534 389.32 
L 294.926534 380.694842 
L 292.574139 380.694842 
z
" style="fill:#9467bd;"/>
   </g>
   <g id="patch_78">
    <path clip-path="url(#p2b8a11e210)" d="M 325.507668 389.32 
L 327.860063 389.32 
L 327.860063 378.424379 
L 325.507668 378.424379 
z
" style="fill:#9467bd;"/>
   </g>
   <g id="patch_79">
    <path clip-path="url(#p2b8a11e210)" d="M 358.441197 389.32 
L 360.793592 389.32 
L 360.793592 376.006043 
L 358.441197 376.006043 
z
" style="fill:#9467bd;"/>
   </g>
   <g id="patch_80">
    <path clip-path="url(#p2b8a11e210)" d="M 391.374727 389.32 
L 393.727122 389.32 
L 393.727122 373.340878 
L 391.374727 373.340878 
z
" style="fill:#9467bd;"/>
   </g>
   <g id="patch_81">
    <path clip-path="url(#p2b8a11e210)" d="M 424.308256 389.32 
L 426.660651 389.32 
L 426.660651 370.262478 
L 424.308256 370.262478 
z
" style="fill:#9467bd;"/>
   </g>
   <g id="patch_82">
    <path clip-path="url(#p2b8a11e210)" d="M 457.241786 389.32 
L 459.594181 389.32 
L 459.594181 367.029146 
L 457.241786 367.029146 
z
" style="fill:#9467bd;"/>
   </g>
   <g id="patch_83">
    <path clip-path="url(#p2b8a11e210)" d="M 490.175315 389.32 
L 492.52771 389.32 
L 492.52771 363.233511 
L 490.175315 363.233511 
z
" style="fill:#9467bd;"/>
   </g>
   <g id="patch_84">
    <path clip-path="url(#p2b8a11e210)" d="M 523.108845 389.32 
L 525.461239 389.32 
L 525.461239 359.455633 
L 523.108845 359.455633 
z
" style="fill:#9467bd;"/>
   </g>
   <g id="patch_85">
    <path clip-path="url(#p2b8a11e210)" d="M 556.042374 389.32 
L 558.394769 389.32 
L 558.394769 355.553794 
L 556.042374 355.553794 
z
" style="fill:#9467bd;"/>
   </g>
   <g id="patch_86">
    <path clip-path="url(#p2b8a11e210)" d="M 588.975903 389.32 
L 591.328298 389.32 
L 591.328298 351.394666 
L 588.975903 351.394666 
z
" style="fill:#9467bd;"/>
   </g>
   <g id="patch_87">
    <path clip-path="url(#p2b8a11e210)" d="M 621.909433 389.32 
L 624.261828 389.32 
L 624.261828 346.457273 
L 621.909433 346.457273 
z
" style="fill:#9467bd;"/>
   </g>
   <g id="patch_88">
    <path clip-path="url(#p2b8a11e210)" d="M 97.325357 389.32 
L 99.677752 389.32 
L 99.677752 388.885665 
L 97.325357 388.885665 
z
" style="fill:#8c564b;"/>
   </g>
   <g id="patch_89">
    <path clip-path="url(#p2b8a11e210)" d="M 130.258887 389.32 
L 132.611282 389.32 
L 132.611282 388.349335 
L 130.258887 388.349335 
z
" style="fill:#8c564b;"/>
   </g>
   <g id="patch_90">
    <path clip-path="url(#p2b8a11e210)" d="M 163.192416 389.32 
L 165.544811 389.32 
L 165.544811 388.055575 
L 163.192416 388.055575 
z
" style="fill:#8c564b;"/>
   </g>
   <g id="patch_91">
    <path clip-path="url(#p2b8a11e210)" d="M 196.125945 389.32 
L 198.47834 389.32 
L 198.47834 387.655928 
L 196.125945 387.655928 
z
" style="fill:#8c564b;"/>
   </g>
   <g id="patch_92">
    <path clip-path="url(#p2b8a11e210)" d="M 229.059475 389.32 
L 231.41187 389.32 
L 231.41187 387.326141 
L 229.059475 387.326141 
z
" style="fill:#8c564b;"/>
   </g>
   <g id="patch_93">
    <path clip-path="url(#p2b8a11e210)" d="M 261.993004 389.32 
L 264.345399 389.32 
L 264.345399 387.007318 
L 261.993004 387.007318 
z
" style="fill:#8c564b;"/>
   </g>
   <g id="patch_94">
    <path clip-path="url(#p2b8a11e210)" d="M 294.926534 389.32 
L 297.278929 389.32 
L 297.278929 386.69088 
L 294.926534 386.69088 
z
" style="fill:#8c564b;"/>
   </g>
   <g id="patch_95">
    <path clip-path="url(#p2b8a11e210)" d="M 327.860063 389.32 
L 330.212458 389.32 
L 330.212458 386.399777 
L 327.860063 386.399777 
z
" style="fill:#8c564b;"/>
   </g>
   <g id="patch_96">
    <path clip-path="url(#p2b8a11e210)" d="M 360.793592 389.32 
L 363.145987 389.32 
L 363.145987 386.100819 
L 360.793592 386.100819 
z
" style="fill:#8c564b;"/>
   </g>
   <g id="patch_97">
    <path clip-path="url(#p2b8a11e210)" d="M 393.727122 389.32 
L 396.079517 389.32 
L 396.079517 385.74299 
L 393.727122 385.74299 
z
" style="fill:#8c564b;"/>
   </g>
   <g id="patch_98">
    <path clip-path="url(#p2b8a11e210)" d="M 426.660651 389.32 
L 429.013046 389.32 
L 429.013046 385.378354 
L 426.660651 385.378354 
z
" style="fill:#8c564b;"/>
   </g>
   <g id="patch_99">
    <path clip-path="url(#p2b8a11e210)" d="M 459.594181 389.32 
L 461.946576 389.32 
L 461.946576 385.11133 
L 459.594181 385.11133 
z
" style="fill:#8c564b;"/>
   </g>
   <g id="patch_100">
    <path clip-path="url(#p2b8a11e210)" d="M 492.52771 389.32 
L 494.880105 389.32 
L 494.880105 384.812229 
L 492.52771 384.812229 
z
" style="fill:#8c564b;"/>
   </g>
   <g id="patch_101">
    <path clip-path="url(#p2b8a11e210)" d="M 525.461239 389.32 
L 527.813634 389.32 
L 527.813634 384.454316 
L 525.461239 384.454316 
z
" style="fill:#8c564b;"/>
   </g>
   <g id="patch_102">
    <path clip-path="url(#p2b8a11e210)" d="M 558.394769 389.32 
L 560.747164 389.32 
L 560.747164 384.175398 
L 558.394769 384.175398 
z
" style="fill:#8c564b;"/>
   </g>
   <g id="patch_103">
    <path clip-path="url(#p2b8a11e210)" d="M 591.328298 389.32 
L 593.680693 389.32 
L 593.680693 383.765149 
L 591.328298 383.765149 
z
" style="fill:#8c564b;"/>
   </g>
   <g id="patch_104">
    <path clip-path="url(#p2b8a11e210)" d="M 624.261828 389.32 
L 626.614223 389.32 
L 626.614223 383.375057 
L 624.261828 383.375057 
z
" style="fill:#8c564b;"/>
   </g>
   <g id="patch_105">
    <path clip-path="url(#p2b8a11e210)" d="M 99.677752 389.32 
L 102.030147 389.32 
L 102.030147 389.302824 
L 99.677752 389.302824 
z
" style="fill:#e377c2;"/>
   </g>
   <g id="patch_106">
    <path clip-path="url(#p2b8a11e210)" d="M 132.611282 389.32 
L 134.963676 389.32 
L 134.963676 389.289624 
L 132.611282 389.289624 
z
" style="fill:#e377c2;"/>
   </g>
   <g id="patch_107">
    <path clip-path="url(#p2b8a11e210)" d="M 165.544811 389.32 
L 167.897206 389.32 
L 167.897206 389.275932 
L 165.544811 389.275932 
z
" style="fill:#e377c2;"/>
   </g>
   <g id="patch_108">
    <path clip-path="url(#p2b8a11e210)" d="M 198.47834 389.32 
L 200.830735 389.32 
L 200.830735 389.258065 
L 198.47834 389.258065 
z
" style="fill:#e377c2;"/>
   </g>
   <g id="patch_109">
    <path clip-path="url(#p2b8a11e210)" d="M 231.41187 389.32 
L 233.764265 389.32 
L 233.764265 389.238284 
L 231.41187 389.238284 
z
" style="fill:#e377c2;"/>
   </g>
   <g id="patch_110">
    <path clip-path="url(#p2b8a11e210)" d="M 264.345399 389.32 
L 266.697794 389.32 
L 266.697794 389.215135 
L 264.345399 389.215135 
z
" style="fill:#e377c2;"/>
   </g>
   <g id="patch_111">
    <path clip-path="url(#p2b8a11e210)" d="M 297.278929 389.32 
L 299.631324 389.32 
L 299.631324 389.190997 
L 297.278929 389.190997 
z
" style="fill:#e377c2;"/>
   </g>
   <g id="patch_112">
    <path clip-path="url(#p2b8a11e210)" d="M 330.212458 389.32 
L 332.564853 389.32 
L 332.564853 389.164945 
L 330.212458 389.164945 
z
" style="fill:#e377c2;"/>
   </g>
   <g id="patch_113">
    <path clip-path="url(#p2b8a11e210)" d="M 363.145987 389.32 
L 365.498382 389.32 
L 365.498382 389.13976 
L 363.145987 389.13976 
z
" style="fill:#e377c2;"/>
   </g>
   <g id="patch_114">
    <path clip-path="url(#p2b8a11e210)" d="M 396.079517 389.32 
L 398.431912 389.32 
L 398.431912 389.100793 
L 396.079517 389.100793 
z
" style="fill:#e377c2;"/>
   </g>
   <g id="patch_115">
    <path clip-path="url(#p2b8a11e210)" d="M 429.013046 389.32 
L 431.365441 389.32 
L 431.365441 389.058464 
L 429.013046 389.058464 
z
" style="fill:#e377c2;"/>
   </g>
   <g id="patch_116">
    <path clip-path="url(#p2b8a11e210)" d="M 461.946576 389.32 
L 464.298971 389.32 
L 464.298971 389.015444 
L 461.946576 389.015444 
z
" style="fill:#e377c2;"/>
   </g>
   <g id="patch_117">
    <path clip-path="url(#p2b8a11e210)" d="M 494.880105 389.32 
L 497.2325 389.32 
L 497.2325 388.970878 
L 494.880105 388.970878 
z
" style="fill:#e377c2;"/>
   </g>
   <g id="patch_118">
    <path clip-path="url(#p2b8a11e210)" d="M 527.813634 389.32 
L 530.166029 389.32 
L 530.166029 388.925085 
L 527.813634 388.925085 
z
" style="fill:#e377c2;"/>
   </g>
   <g id="patch_119">
    <path clip-path="url(#p2b8a11e210)" d="M 560.747164 389.32 
L 563.099559 389.32 
L 563.099559 388.877759 
L 560.747164 388.877759 
z
" style="fill:#e377c2;"/>
   </g>
   <g id="patch_120">
    <path clip-path="url(#p2b8a11e210)" d="M 593.680693 389.32 
L 596.033088 389.32 
L 596.033088 264.491378 
L 593.680693 264.491378 
z
" style="fill:#e377c2;"/>
   </g>
   <g id="patch_121">
    <path clip-path="url(#p2b8a11e210)" d="M 626.614223 389.32 
L 628.966618 389.32 
L 628.966618 54.971117 
L 626.614223 54.971117 
z
" style="fill:#e377c2;"/>
   </g>
   <g id="matplotlib.axis_1">
    <g id="xtick_1">
     <g id="line2d_1">
      <defs>
       <path d="M 0 0 
L 0 3.5 
" id="mfc518bbc66" style="stroke:#000000;stroke-width:0.8;"/>
      </defs>
      <g>
       <use style="stroke:#000000;stroke-width:0.8;" x="93.796765" xlink:href="#mfc518bbc66" y="389.32"/>
      </g>
     </g>
     <g id="text_1">
      <!-- 2 -->
      <defs>
       <path d="M 19.1875 8.296875 
L 53.609375 8.296875 
L 53.609375 0 
L 7.328125 0 
L 7.328125 8.296875 
Q 12.9375 14.109375 22.625 23.890625 
Q 32.328125 33.6875 34.8125 36.53125 
Q 39.546875 41.84375 41.421875 45.53125 
Q 43.3125 49.21875 43.3125 52.78125 
Q 43.3125 58.59375 39.234375 62.25 
Q 35.15625 65.921875 28.609375 65.921875 
Q 23.96875 65.921875 18.8125 64.3125 
Q 13.671875 62.703125 7.8125 59.421875 
L 7.8125 69.390625 
Q 13.765625 71.78125 18.9375 73 
Q 24.125 74.21875 28.421875 74.21875 
Q 39.75 74.21875 46.484375 68.546875 
Q 53.21875 62.890625 53.21875 53.421875 
Q 53.21875 48.921875 51.53125 44.890625 
Q 49.859375 40.875 45.40625 35.40625 
Q 44.1875 33.984375 37.640625 27.21875 
Q 31.109375 20.453125 19.1875 8.296875 
z
" id="DejaVuSans-50"/>
      </defs>
      <g transform="translate(90.615515 403.918437)scale(0.1 -0.1)">
       <use xlink:href="#DejaVuSans-50"/>
      </g>
     </g>
    </g>
    <g id="xtick_2">
     <g id="line2d_2">
      <g>
       <use style="stroke:#000000;stroke-width:0.8;" x="126.730294" xlink:href="#mfc518bbc66" y="389.32"/>
      </g>
     </g>
     <g id="text_2">
      <!-- 3 -->
      <defs>
       <path d="M 40.578125 39.3125 
Q 47.65625 37.796875 51.625 33 
Q 55.609375 28.21875 55.609375 21.1875 
Q 55.609375 10.40625 48.1875 4.484375 
Q 40.765625 -1.421875 27.09375 -1.421875 
Q 22.515625 -1.421875 17.65625 -0.515625 
Q 12.796875 0.390625 7.625 2.203125 
L 7.625 11.71875 
Q 11.71875 9.328125 16.59375 8.109375 
Q 21.484375 6.890625 26.8125 6.890625 
Q 36.078125 6.890625 40.9375 10.546875 
Q 45.796875 14.203125 45.796875 21.1875 
Q 45.796875 27.640625 41.28125 31.265625 
Q 36.765625 34.90625 28.71875 34.90625 
L 20.21875 34.90625 
L 20.21875 43.015625 
L 29.109375 43.015625 
Q 36.375 43.015625 40.234375 45.921875 
Q 44.09375 48.828125 44.09375 54.296875 
Q 44.09375 59.90625 40.109375 62.90625 
Q 36.140625 65.921875 28.71875 65.921875 
Q 24.65625 65.921875 20.015625 65.03125 
Q 15.375 64.15625 9.8125 62.3125 
L 9.8125 71.09375 
Q 15.4375 72.65625 20.34375 73.4375 
Q 25.25 74.21875 29.59375 74.21875 
Q 40.828125 74.21875 47.359375 69.109375 
Q 53.90625 64.015625 53.90625 55.328125 
Q 53.90625 49.265625 50.4375 45.09375 
Q 46.96875 40.921875 40.578125 39.3125 
z
" id="DejaVuSans-51"/>
      </defs>
      <g transform="translate(123.549044 403.918437)scale(0.1 -0.1)">
       <use xlink:href="#DejaVuSans-51"/>
      </g>
     </g>
    </g>
    <g id="xtick_3">
     <g id="line2d_3">
      <g>
       <use style="stroke:#000000;stroke-width:0.8;" x="159.663824" xlink:href="#mfc518bbc66" y="389.32"/>
      </g>
     </g>
     <g id="text_3">
      <!-- 4 -->
      <defs>
       <path d="M 37.796875 64.3125 
L 12.890625 25.390625 
L 37.796875 25.390625 
z
M 35.203125 72.90625 
L 47.609375 72.90625 
L 47.609375 25.390625 
L 58.015625 25.390625 
L 58.015625 17.1875 
L 47.609375 17.1875 
L 47.609375 0 
L 37.796875 0 
L 37.796875 17.1875 
L 4.890625 17.1875 
L 4.890625 26.703125 
z
" id="DejaVuSans-52"/>
      </defs>
      <g transform="translate(156.482574 403.918437)scale(0.1 -0.1)">
       <use xlink:href="#DejaVuSans-52"/>
      </g>
     </g>
    </g>
    <g id="xtick_4">
     <g id="line2d_4">
      <g>
       <use style="stroke:#000000;stroke-width:0.8;" x="192.597353" xlink:href="#mfc518bbc66" y="389.32"/>
      </g>
     </g>
     <g id="text_4">
      <!-- 5 -->
      <defs>
       <path d="M 10.796875 72.90625 
L 49.515625 72.90625 
L 49.515625 64.59375 
L 19.828125 64.59375 
L 19.828125 46.734375 
Q 21.96875 47.46875 24.109375 47.828125 
Q 26.265625 48.1875 28.421875 48.1875 
Q 40.625 48.1875 47.75 41.5 
Q 54.890625 34.8125 54.890625 23.390625 
Q 54.890625 11.625 47.5625 5.09375 
Q 40.234375 -1.421875 26.90625 -1.421875 
Q 22.3125 -1.421875 17.546875 -0.640625 
Q 12.796875 0.140625 7.71875 1.703125 
L 7.71875 11.625 
Q 12.109375 9.234375 16.796875 8.0625 
Q 21.484375 6.890625 26.703125 6.890625 
Q 35.15625 6.890625 40.078125 11.328125 
Q 45.015625 15.765625 45.015625 23.390625 
Q 45.015625 31 40.078125 35.4375 
Q 35.15625 39.890625 26.703125 39.890625 
Q 22.75 39.890625 18.8125 39.015625 
Q 14.890625 38.140625 10.796875 36.28125 
z
" id="DejaVuSans-53"/>
      </defs>
      <g transform="translate(189.416103 403.918437)scale(0.1 -0.1)">
       <use xlink:href="#DejaVuSans-53"/>
      </g>
     </g>
    </g>
    <g id="xtick_5">
     <g id="line2d_5">
      <g>
       <use style="stroke:#000000;stroke-width:0.8;" x="225.530882" xlink:href="#mfc518bbc66" y="389.32"/>
      </g>
     </g>
     <g id="text_5">
      <!-- 6 -->
      <defs>
       <path d="M 33.015625 40.375 
Q 26.375 40.375 22.484375 35.828125 
Q 18.609375 31.296875 18.609375 23.390625 
Q 18.609375 15.53125 22.484375 10.953125 
Q 26.375 6.390625 33.015625 6.390625 
Q 39.65625 6.390625 43.53125 10.953125 
Q 47.40625 15.53125 47.40625 23.390625 
Q 47.40625 31.296875 43.53125 35.828125 
Q 39.65625 40.375 33.015625 40.375 
z
M 52.59375 71.296875 
L 52.59375 62.3125 
Q 48.875 64.0625 45.09375 64.984375 
Q 41.3125 65.921875 37.59375 65.921875 
Q 27.828125 65.921875 22.671875 59.328125 
Q 17.53125 52.734375 16.796875 39.40625 
Q 19.671875 43.65625 24.015625 45.921875 
Q 28.375 48.1875 33.59375 48.1875 
Q 44.578125 48.1875 50.953125 41.515625 
Q 57.328125 34.859375 57.328125 23.390625 
Q 57.328125 12.15625 50.6875 5.359375 
Q 44.046875 -1.421875 33.015625 -1.421875 
Q 20.359375 -1.421875 13.671875 8.265625 
Q 6.984375 17.96875 6.984375 36.375 
Q 6.984375 53.65625 15.1875 63.9375 
Q 23.390625 74.21875 37.203125 74.21875 
Q 40.921875 74.21875 44.703125 73.484375 
Q 48.484375 72.75 52.59375 71.296875 
z
" id="DejaVuSans-54"/>
      </defs>
      <g transform="translate(222.349632 403.918437)scale(0.1 -0.1)">
       <use xlink:href="#DejaVuSans-54"/>
      </g>
     </g>
    </g>
    <g id="xtick_6">
     <g id="line2d_6">
      <g>
       <use style="stroke:#000000;stroke-width:0.8;" x="258.464412" xlink:href="#mfc518bbc66" y="389.32"/>
      </g>
     </g>
     <g id="text_6">
      <!-- 7 -->
      <defs>
       <path d="M 8.203125 72.90625 
L 55.078125 72.90625 
L 55.078125 68.703125 
L 28.609375 0 
L 18.3125 0 
L 43.21875 64.59375 
L 8.203125 64.59375 
z
" id="DejaVuSans-55"/>
      </defs>
      <g transform="translate(255.283162 403.918437)scale(0.1 -0.1)">
       <use xlink:href="#DejaVuSans-55"/>
      </g>
     </g>
    </g>
    <g id="xtick_7">
     <g id="line2d_7">
      <g>
       <use style="stroke:#000000;stroke-width:0.8;" x="291.397941" xlink:href="#mfc518bbc66" y="389.32"/>
      </g>
     </g>
     <g id="text_7">
      <!-- 8 -->
      <defs>
       <path d="M 31.78125 34.625 
Q 24.75 34.625 20.71875 30.859375 
Q 16.703125 27.09375 16.703125 20.515625 
Q 16.703125 13.921875 20.71875 10.15625 
Q 24.75 6.390625 31.78125 6.390625 
Q 38.8125 6.390625 42.859375 10.171875 
Q 46.921875 13.96875 46.921875 20.515625 
Q 46.921875 27.09375 42.890625 30.859375 
Q 38.875 34.625 31.78125 34.625 
z
M 21.921875 38.8125 
Q 15.578125 40.375 12.03125 44.71875 
Q 8.5 49.078125 8.5 55.328125 
Q 8.5 64.0625 14.71875 69.140625 
Q 20.953125 74.21875 31.78125 74.21875 
Q 42.671875 74.21875 48.875 69.140625 
Q 55.078125 64.0625 55.078125 55.328125 
Q 55.078125 49.078125 51.53125 44.71875 
Q 48 40.375 41.703125 38.8125 
Q 48.828125 37.15625 52.796875 32.3125 
Q 56.78125 27.484375 56.78125 20.515625 
Q 56.78125 9.90625 50.3125 4.234375 
Q 43.84375 -1.421875 31.78125 -1.421875 
Q 19.734375 -1.421875 13.25 4.234375 
Q 6.78125 9.90625 6.78125 20.515625 
Q 6.78125 27.484375 10.78125 32.3125 
Q 14.796875 37.15625 21.921875 38.8125 
z
M 18.3125 54.390625 
Q 18.3125 48.734375 21.84375 45.5625 
Q 25.390625 42.390625 31.78125 42.390625 
Q 38.140625 42.390625 41.71875 45.5625 
Q 45.3125 48.734375 45.3125 54.390625 
Q 45.3125 60.0625 41.71875 63.234375 
Q 38.140625 66.40625 31.78125 66.40625 
Q 25.390625 66.40625 21.84375 63.234375 
Q 18.3125 60.0625 18.3125 54.390625 
z
" id="DejaVuSans-56"/>
      </defs>
      <g transform="translate(288.216691 403.918437)scale(0.1 -0.1)">
       <use xlink:href="#DejaVuSans-56"/>
      </g>
     </g>
    </g>
    <g id="xtick_8">
     <g id="line2d_8">
      <g>
       <use style="stroke:#000000;stroke-width:0.8;" x="324.331471" xlink:href="#mfc518bbc66" y="389.32"/>
      </g>
     </g>
     <g id="text_8">
      <!-- 9 -->
      <defs>
       <path d="M 10.984375 1.515625 
L 10.984375 10.5 
Q 14.703125 8.734375 18.5 7.8125 
Q 22.3125 6.890625 25.984375 6.890625 
Q 35.75 6.890625 40.890625 13.453125 
Q 46.046875 20.015625 46.78125 33.40625 
Q 43.953125 29.203125 39.59375 26.953125 
Q 35.25 24.703125 29.984375 24.703125 
Q 19.046875 24.703125 12.671875 31.3125 
Q 6.296875 37.9375 6.296875 49.421875 
Q 6.296875 60.640625 12.9375 67.421875 
Q 19.578125 74.21875 30.609375 74.21875 
Q 43.265625 74.21875 49.921875 64.515625 
Q 56.59375 54.828125 56.59375 36.375 
Q 56.59375 19.140625 48.40625 8.859375 
Q 40.234375 -1.421875 26.421875 -1.421875 
Q 22.703125 -1.421875 18.890625 -0.6875 
Q 15.09375 0.046875 10.984375 1.515625 
z
M 30.609375 32.421875 
Q 37.25 32.421875 41.125 36.953125 
Q 45.015625 41.5 45.015625 49.421875 
Q 45.015625 57.28125 41.125 61.84375 
Q 37.25 66.40625 30.609375 66.40625 
Q 23.96875 66.40625 20.09375 61.84375 
Q 16.21875 57.28125 16.21875 49.421875 
Q 16.21875 41.5 20.09375 36.953125 
Q 23.96875 32.421875 30.609375 32.421875 
z
" id="DejaVuSans-57"/>
      </defs>
      <g transform="translate(321.150221 403.918437)scale(0.1 -0.1)">
       <use xlink:href="#DejaVuSans-57"/>
      </g>
     </g>
    </g>
    <g id="xtick_9">
     <g id="line2d_9">
      <g>
       <use style="stroke:#000000;stroke-width:0.8;" x="357.265" xlink:href="#mfc518bbc66" y="389.32"/>
      </g>
     </g>
     <g id="text_9">
      <!-- 10 -->
      <defs>
       <path d="M 12.40625 8.296875 
L 28.515625 8.296875 
L 28.515625 63.921875 
L 10.984375 60.40625 
L 10.984375 69.390625 
L 28.421875 72.90625 
L 38.28125 72.90625 
L 38.28125 8.296875 
L 54.390625 8.296875 
L 54.390625 0 
L 12.40625 0 
z
" id="DejaVuSans-49"/>
       <path d="M 31.78125 66.40625 
Q 24.171875 66.40625 20.328125 58.90625 
Q 16.5 51.421875 16.5 36.375 
Q 16.5 21.390625 20.328125 13.890625 
Q 24.171875 6.390625 31.78125 6.390625 
Q 39.453125 6.390625 43.28125 13.890625 
Q 47.125 21.390625 47.125 36.375 
Q 47.125 51.421875 43.28125 58.90625 
Q 39.453125 66.40625 31.78125 66.40625 
z
M 31.78125 74.21875 
Q 44.046875 74.21875 50.515625 64.515625 
Q 56.984375 54.828125 56.984375 36.375 
Q 56.984375 17.96875 50.515625 8.265625 
Q 44.046875 -1.421875 31.78125 -1.421875 
Q 19.53125 -1.421875 13.0625 8.265625 
Q 6.59375 17.96875 6.59375 36.375 
Q 6.59375 54.828125 13.0625 64.515625 
Q 19.53125 74.21875 31.78125 74.21875 
z
" id="DejaVuSans-48"/>
      </defs>
      <g transform="translate(350.9025 403.918437)scale(0.1 -0.1)">
       <use xlink:href="#DejaVuSans-49"/>
       <use x="63.623047" xlink:href="#DejaVuSans-48"/>
      </g>
     </g>
    </g>
    <g id="xtick_10">
     <g id="line2d_10">
      <g>
       <use style="stroke:#000000;stroke-width:0.8;" x="390.198529" xlink:href="#mfc518bbc66" y="389.32"/>
      </g>
     </g>
     <g id="text_10">
      <!-- 11 -->
      <g transform="translate(383.836029 403.918437)scale(0.1 -0.1)">
       <use xlink:href="#DejaVuSans-49"/>
       <use x="63.623047" xlink:href="#DejaVuSans-49"/>
      </g>
     </g>
    </g>
    <g id="xtick_11">
     <g id="line2d_11">
      <g>
       <use style="stroke:#000000;stroke-width:0.8;" x="423.132059" xlink:href="#mfc518bbc66" y="389.32"/>
      </g>
     </g>
     <g id="text_11">
      <!-- 12 -->
      <g transform="translate(416.769559 403.918437)scale(0.1 -0.1)">
       <use xlink:href="#DejaVuSans-49"/>
       <use x="63.623047" xlink:href="#DejaVuSans-50"/>
      </g>
     </g>
    </g>
    <g id="xtick_12">
     <g id="line2d_12">
      <g>
       <use style="stroke:#000000;stroke-width:0.8;" x="456.065588" xlink:href="#mfc518bbc66" y="389.32"/>
      </g>
     </g>
     <g id="text_12">
      <!-- 13 -->
      <g transform="translate(449.703088 403.918437)scale(0.1 -0.1)">
       <use xlink:href="#DejaVuSans-49"/>
       <use x="63.623047" xlink:href="#DejaVuSans-51"/>
      </g>
     </g>
    </g>
    <g id="xtick_13">
     <g id="line2d_13">
      <g>
       <use style="stroke:#000000;stroke-width:0.8;" x="488.999118" xlink:href="#mfc518bbc66" y="389.32"/>
      </g>
     </g>
     <g id="text_13">
      <!-- 14 -->
      <g transform="translate(482.636618 403.918437)scale(0.1 -0.1)">
       <use xlink:href="#DejaVuSans-49"/>
       <use x="63.623047" xlink:href="#DejaVuSans-52"/>
      </g>
     </g>
    </g>
    <g id="xtick_14">
     <g id="line2d_14">
      <g>
       <use style="stroke:#000000;stroke-width:0.8;" x="521.932647" xlink:href="#mfc518bbc66" y="389.32"/>
      </g>
     </g>
     <g id="text_14">
      <!-- 15 -->
      <g transform="translate(515.570147 403.918437)scale(0.1 -0.1)">
       <use xlink:href="#DejaVuSans-49"/>
       <use x="63.623047" xlink:href="#DejaVuSans-53"/>
      </g>
     </g>
    </g>
    <g id="xtick_15">
     <g id="line2d_15">
      <g>
       <use style="stroke:#000000;stroke-width:0.8;" x="554.866176" xlink:href="#mfc518bbc66" y="389.32"/>
      </g>
     </g>
     <g id="text_15">
      <!-- 16 -->
      <g transform="translate(548.503676 403.918437)scale(0.1 -0.1)">
       <use xlink:href="#DejaVuSans-49"/>
       <use x="63.623047" xlink:href="#DejaVuSans-54"/>
      </g>
     </g>
    </g>
    <g id="xtick_16">
     <g id="line2d_16">
      <g>
       <use style="stroke:#000000;stroke-width:0.8;" x="587.799706" xlink:href="#mfc518bbc66" y="389.32"/>
      </g>
     </g>
     <g id="text_16">
      <!-- 17 -->
      <g transform="translate(581.437206 403.918437)scale(0.1 -0.1)">
       <use xlink:href="#DejaVuSans-49"/>
       <use x="63.623047" xlink:href="#DejaVuSans-55"/>
      </g>
     </g>
    </g>
    <g id="xtick_17">
     <g id="line2d_17">
      <g>
       <use style="stroke:#000000;stroke-width:0.8;" x="620.733235" xlink:href="#mfc518bbc66" y="389.32"/>
      </g>
     </g>
     <g id="text_17">
      <!-- 18 -->
      <g transform="translate(614.370735 403.918437)scale(0.1 -0.1)">
       <use xlink:href="#DejaVuSans-49"/>
       <use x="63.623047" xlink:href="#DejaVuSans-56"/>
      </g>
     </g>
    </g>
    <g id="text_18">
     <!-- Active Cores -->
     <defs>
      <path d="M 34.1875 63.1875 
L 20.796875 26.90625 
L 47.609375 26.90625 
z
M 28.609375 72.90625 
L 39.796875 72.90625 
L 67.578125 0 
L 57.328125 0 
L 50.6875 18.703125 
L 17.828125 18.703125 
L 11.1875 0 
L 0.78125 0 
z
" id="DejaVuSans-65"/>
      <path d="M 48.78125 52.59375 
L 48.78125 44.1875 
Q 44.96875 46.296875 41.140625 47.34375 
Q 37.3125 48.390625 33.40625 48.390625 
Q 24.65625 48.390625 19.8125 42.84375 
Q 14.984375 37.3125 14.984375 27.296875 
Q 14.984375 17.28125 19.8125 11.734375 
Q 24.65625 6.203125 33.40625 6.203125 
Q 37.3125 6.203125 41.140625 7.25 
Q 44.96875 8.296875 48.78125 10.40625 
L 48.78125 2.09375 
Q 45.015625 0.34375 40.984375 -0.53125 
Q 36.96875 -1.421875 32.421875 -1.421875 
Q 20.0625 -1.421875 12.78125 6.34375 
Q 5.515625 14.109375 5.515625 27.296875 
Q 5.515625 40.671875 12.859375 48.328125 
Q 20.21875 56 33.015625 56 
Q 37.15625 56 41.109375 55.140625 
Q 45.0625 54.296875 48.78125 52.59375 
z
" id="DejaVuSans-99"/>
      <path d="M 18.3125 70.21875 
L 18.3125 54.6875 
L 36.8125 54.6875 
L 36.8125 47.703125 
L 18.3125 47.703125 
L 18.3125 18.015625 
Q 18.3125 11.328125 20.140625 9.421875 
Q 21.96875 7.515625 27.59375 7.515625 
L 36.8125 7.515625 
L 36.8125 0 
L 27.59375 0 
Q 17.1875 0 13.234375 3.875 
Q 9.28125 7.765625 9.28125 18.015625 
L 9.28125 47.703125 
L 2.6875 47.703125 
L 2.6875 54.6875 
L 9.28125 54.6875 
L 9.28125 70.21875 
z
" id="DejaVuSans-116"/>
      <path d="M 9.421875 54.6875 
L 18.40625 54.6875 
L 18.40625 0 
L 9.421875 0 
z
M 9.421875 75.984375 
L 18.40625 75.984375 
L 18.40625 64.59375 
L 9.421875 64.59375 
z
" id="DejaVuSans-105"/>
      <path d="M 2.984375 54.6875 
L 12.5 54.6875 
L 29.59375 8.796875 
L 46.6875 54.6875 
L 56.203125 54.6875 
L 35.6875 0 
L 23.484375 0 
z
" id="DejaVuSans-118"/>
      <path d="M 56.203125 29.59375 
L 56.203125 25.203125 
L 14.890625 25.203125 
Q 15.484375 15.921875 20.484375 11.0625 
Q 25.484375 6.203125 34.421875 6.203125 
Q 39.59375 6.203125 44.453125 7.46875 
Q 49.3125 8.734375 54.109375 11.28125 
L 54.109375 2.78125 
Q 49.265625 0.734375 44.1875 -0.34375 
Q 39.109375 -1.421875 33.890625 -1.421875 
Q 20.796875 -1.421875 13.15625 6.1875 
Q 5.515625 13.8125 5.515625 26.8125 
Q 5.515625 40.234375 12.765625 48.109375 
Q 20.015625 56 32.328125 56 
Q 43.359375 56 49.78125 48.890625 
Q 56.203125 41.796875 56.203125 29.59375 
z
M 47.21875 32.234375 
Q 47.125 39.59375 43.09375 43.984375 
Q 39.0625 48.390625 32.421875 48.390625 
Q 24.90625 48.390625 20.390625 44.140625 
Q 15.875 39.890625 15.1875 32.171875 
z
" id="DejaVuSans-101"/>
      <path id="DejaVuSans-32"/>
      <path d="M 64.40625 67.28125 
L 64.40625 56.890625 
Q 59.421875 61.53125 53.78125 63.8125 
Q 48.140625 66.109375 41.796875 66.109375 
Q 29.296875 66.109375 22.65625 58.46875 
Q 16.015625 50.828125 16.015625 36.375 
Q 16.015625 21.96875 22.65625 14.328125 
Q 29.296875 6.6875 41.796875 6.6875 
Q 48.140625 6.6875 53.78125 8.984375 
Q 59.421875 11.28125 64.40625 15.921875 
L 64.40625 5.609375 
Q 59.234375 2.09375 53.4375 0.328125 
Q 47.65625 -1.421875 41.21875 -1.421875 
Q 24.65625 -1.421875 15.125 8.703125 
Q 5.609375 18.84375 5.609375 36.375 
Q 5.609375 53.953125 15.125 64.078125 
Q 24.65625 74.21875 41.21875 74.21875 
Q 47.75 74.21875 53.53125 72.484375 
Q 59.328125 70.75 64.40625 67.28125 
z
" id="DejaVuSans-67"/>
      <path d="M 30.609375 48.390625 
Q 23.390625 48.390625 19.1875 42.75 
Q 14.984375 37.109375 14.984375 27.296875 
Q 14.984375 17.484375 19.15625 11.84375 
Q 23.34375 6.203125 30.609375 6.203125 
Q 37.796875 6.203125 41.984375 11.859375 
Q 46.1875 17.53125 46.1875 27.296875 
Q 46.1875 37.015625 41.984375 42.703125 
Q 37.796875 48.390625 30.609375 48.390625 
z
M 30.609375 56 
Q 42.328125 56 49.015625 48.375 
Q 55.71875 40.765625 55.71875 27.296875 
Q 55.71875 13.875 49.015625 6.21875 
Q 42.328125 -1.421875 30.609375 -1.421875 
Q 18.84375 -1.421875 12.171875 6.21875 
Q 5.515625 13.875 5.515625 27.296875 
Q 5.515625 40.765625 12.171875 48.375 
Q 18.84375 56 30.609375 56 
z
" id="DejaVuSans-111"/>
      <path d="M 41.109375 46.296875 
Q 39.59375 47.171875 37.8125 47.578125 
Q 36.03125 48 33.890625 48 
Q 26.265625 48 22.1875 43.046875 
Q 18.109375 38.09375 18.109375 28.8125 
L 18.109375 0 
L 9.078125 0 
L 9.078125 54.6875 
L 18.109375 54.6875 
L 18.109375 46.1875 
Q 20.953125 51.171875 25.484375 53.578125 
Q 30.03125 56 36.53125 56 
Q 37.453125 56 38.578125 55.875 
Q 39.703125 55.765625 41.0625 55.515625 
z
" id="DejaVuSans-114"/>
      <path d="M 44.28125 53.078125 
L 44.28125 44.578125 
Q 40.484375 46.53125 36.375 47.5 
Q 32.28125 48.484375 27.875 48.484375 
Q 21.1875 48.484375 17.84375 46.4375 
Q 14.5 44.390625 14.5 40.28125 
Q 14.5 37.15625 16.890625 35.375 
Q 19.28125 33.59375 26.515625 31.984375 
L 29.59375 31.296875 
Q 39.15625 29.25 43.1875 25.515625 
Q 47.21875 21.78125 47.21875 15.09375 
Q 47.21875 7.46875 41.1875 3.015625 
Q 35.15625 -1.421875 24.609375 -1.421875 
Q 20.21875 -1.421875 15.453125 -0.5625 
Q 10.6875 0.296875 5.421875 2 
L 5.421875 11.28125 
Q 10.40625 8.6875 15.234375 7.390625 
Q 20.0625 6.109375 24.8125 6.109375 
Q 31.15625 6.109375 34.5625 8.28125 
Q 37.984375 10.453125 37.984375 14.40625 
Q 37.984375 18.0625 35.515625 20.015625 
Q 33.0625 21.96875 24.703125 23.78125 
L 21.578125 24.515625 
Q 13.234375 26.265625 9.515625 29.90625 
Q 5.8125 33.546875 5.8125 39.890625 
Q 5.8125 47.609375 11.28125 51.796875 
Q 16.75 56 26.8125 56 
Q 31.78125 56 36.171875 55.265625 
Q 40.578125 54.546875 44.28125 53.078125 
z
" id="DejaVuSans-115"/>
     </defs>
     <g transform="translate(319.550312 419.11625)scale(0.12 -0.12)">
      <use xlink:href="#DejaVuSans-65"/>
      <use x="68.392578" xlink:href="#DejaVuSans-99"/>
      <use x="123.373047" xlink:href="#DejaVuSans-116"/>
      <use x="162.582031" xlink:href="#DejaVuSans-105"/>
      <use x="190.365234" xlink:href="#DejaVuSans-118"/>
      <use x="249.544922" xlink:href="#DejaVuSans-101"/>
      <use x="311.068359" xlink:href="#DejaVuSans-32"/>
      <use x="342.855469" xlink:href="#DejaVuSans-67"/>
      <use x="412.679688" xlink:href="#DejaVuSans-111"/>
      <use x="473.861328" xlink:href="#DejaVuSans-114"/>
      <use x="514.943359" xlink:href="#DejaVuSans-101"/>
      <use x="576.466797" xlink:href="#DejaVuSans-115"/>
     </g>
    </g>
   </g>
   <g id="matplotlib.axis_2">
    <g id="ytick_1">
     <g id="line2d_18">
      <defs>
       <path d="M 0 0 
L -3.5 0 
" id="m3a24eacd0e" style="stroke:#000000;stroke-width:0.8;"/>
      </defs>
      <g>
       <use style="stroke:#000000;stroke-width:0.8;" x="77.33" xlink:href="#m3a24eacd0e" y="389.32"/>
      </g>
     </g>
     <g id="text_19">
      <!-- 0 -->
      <g transform="translate(63.9675 393.119219)scale(0.1 -0.1)">
       <use xlink:href="#DejaVuSans-48"/>
      </g>
     </g>
    </g>
    <g id="ytick_2">
     <g id="line2d_19">
      <g>
       <use style="stroke:#000000;stroke-width:0.8;" x="77.33" xlink:href="#m3a24eacd0e" y="324.676245"/>
      </g>
     </g>
     <g id="text_20">
      <!-- 1000000 -->
      <g transform="translate(25.7925 328.475464)scale(0.1 -0.1)">
       <use xlink:href="#DejaVuSans-49"/>
       <use x="63.623047" xlink:href="#DejaVuSans-48"/>
       <use x="127.246094" xlink:href="#DejaVuSans-48"/>
       <use x="190.869141" xlink:href="#DejaVuSans-48"/>
       <use x="254.492188" xlink:href="#DejaVuSans-48"/>
       <use x="318.115234" xlink:href="#DejaVuSans-48"/>
       <use x="381.738281" xlink:href="#DejaVuSans-48"/>
      </g>
     </g>
    </g>
    <g id="ytick_3">
     <g id="line2d_20">
      <g>
       <use style="stroke:#000000;stroke-width:0.8;" x="77.33" xlink:href="#m3a24eacd0e" y="260.032491"/>
      </g>
     </g>
     <g id="text_21">
      <!-- 2000000 -->
      <g transform="translate(25.7925 263.83171)scale(0.1 -0.1)">
       <use xlink:href="#DejaVuSans-50"/>
       <use x="63.623047" xlink:href="#DejaVuSans-48"/>
       <use x="127.246094" xlink:href="#DejaVuSans-48"/>
       <use x="190.869141" xlink:href="#DejaVuSans-48"/>
       <use x="254.492188" xlink:href="#DejaVuSans-48"/>
       <use x="318.115234" xlink:href="#DejaVuSans-48"/>
       <use x="381.738281" xlink:href="#DejaVuSans-48"/>
      </g>
     </g>
    </g>
    <g id="ytick_4">
     <g id="line2d_21">
      <g>
       <use style="stroke:#000000;stroke-width:0.8;" x="77.33" xlink:href="#m3a24eacd0e" y="195.388736"/>
      </g>
     </g>
     <g id="text_22">
      <!-- 3000000 -->
      <g transform="translate(25.7925 199.187955)scale(0.1 -0.1)">
       <use xlink:href="#DejaVuSans-51"/>
       <use x="63.623047" xlink:href="#DejaVuSans-48"/>
       <use x="127.246094" xlink:href="#DejaVuSans-48"/>
       <use x="190.869141" xlink:href="#DejaVuSans-48"/>
       <use x="254.492188" xlink:href="#DejaVuSans-48"/>
       <use x="318.115234" xlink:href="#DejaVuSans-48"/>
       <use x="381.738281" xlink:href="#DejaVuSans-48"/>
      </g>
     </g>
    </g>
    <g id="ytick_5">
     <g id="line2d_22">
      <g>
       <use style="stroke:#000000;stroke-width:0.8;" x="77.33" xlink:href="#m3a24eacd0e" y="130.744982"/>
      </g>
     </g>
     <g id="text_23">
      <!-- 4000000 -->
      <g transform="translate(25.7925 134.5442)scale(0.1 -0.1)">
       <use xlink:href="#DejaVuSans-52"/>
       <use x="63.623047" xlink:href="#DejaVuSans-48"/>
       <use x="127.246094" xlink:href="#DejaVuSans-48"/>
       <use x="190.869141" xlink:href="#DejaVuSans-48"/>
       <use x="254.492188" xlink:href="#DejaVuSans-48"/>
       <use x="318.115234" xlink:href="#DejaVuSans-48"/>
       <use x="381.738281" xlink:href="#DejaVuSans-48"/>
      </g>
     </g>
    </g>
    <g id="ytick_6">
     <g id="line2d_23">
      <g>
       <use style="stroke:#000000;stroke-width:0.8;" x="77.33" xlink:href="#m3a24eacd0e" y="66.101227"/>
      </g>
     </g>
     <g id="text_24">
      <!-- 5000000 -->
      <g transform="translate(25.7925 69.900446)scale(0.1 -0.1)">
       <use xlink:href="#DejaVuSans-53"/>
       <use x="63.623047" xlink:href="#DejaVuSans-48"/>
       <use x="127.246094" xlink:href="#DejaVuSans-48"/>
       <use x="190.869141" xlink:href="#DejaVuSans-48"/>
       <use x="254.492188" xlink:href="#DejaVuSans-48"/>
       <use x="318.115234" xlink:href="#DejaVuSans-48"/>
       <use x="381.738281" xlink:href="#DejaVuSans-48"/>
      </g>
     </g>
    </g>
    <g id="text_25">
     <!-- Nanoseconds per increment -->
     <defs>
      <path d="M 9.8125 72.90625 
L 23.09375 72.90625 
L 55.421875 11.921875 
L 55.421875 72.90625 
L 64.984375 72.90625 
L 64.984375 0 
L 51.703125 0 
L 19.390625 60.984375 
L 19.390625 0 
L 9.8125 0 
z
" id="DejaVuSans-78"/>
      <path d="M 34.28125 27.484375 
Q 23.390625 27.484375 19.1875 25 
Q 14.984375 22.515625 14.984375 16.5 
Q 14.984375 11.71875 18.140625 8.90625 
Q 21.296875 6.109375 26.703125 6.109375 
Q 34.1875 6.109375 38.703125 11.40625 
Q 43.21875 16.703125 43.21875 25.484375 
L 43.21875 27.484375 
z
M 52.203125 31.203125 
L 52.203125 0 
L 43.21875 0 
L 43.21875 8.296875 
Q 40.140625 3.328125 35.546875 0.953125 
Q 30.953125 -1.421875 24.3125 -1.421875 
Q 15.921875 -1.421875 10.953125 3.296875 
Q 6 8.015625 6 15.921875 
Q 6 25.140625 12.171875 29.828125 
Q 18.359375 34.515625 30.609375 34.515625 
L 43.21875 34.515625 
L 43.21875 35.40625 
Q 43.21875 41.609375 39.140625 45 
Q 35.0625 48.390625 27.6875 48.390625 
Q 23 48.390625 18.546875 47.265625 
Q 14.109375 46.140625 10.015625 43.890625 
L 10.015625 52.203125 
Q 14.9375 54.109375 19.578125 55.046875 
Q 24.21875 56 28.609375 56 
Q 40.484375 56 46.34375 49.84375 
Q 52.203125 43.703125 52.203125 31.203125 
z
" id="DejaVuSans-97"/>
      <path d="M 54.890625 33.015625 
L 54.890625 0 
L 45.90625 0 
L 45.90625 32.71875 
Q 45.90625 40.484375 42.875 44.328125 
Q 39.84375 48.1875 33.796875 48.1875 
Q 26.515625 48.1875 22.3125 43.546875 
Q 18.109375 38.921875 18.109375 30.90625 
L 18.109375 0 
L 9.078125 0 
L 9.078125 54.6875 
L 18.109375 54.6875 
L 18.109375 46.1875 
Q 21.34375 51.125 25.703125 53.5625 
Q 30.078125 56 35.796875 56 
Q 45.21875 56 50.046875 50.171875 
Q 54.890625 44.34375 54.890625 33.015625 
z
" id="DejaVuSans-110"/>
      <path d="M 45.40625 46.390625 
L 45.40625 75.984375 
L 54.390625 75.984375 
L 54.390625 0 
L 45.40625 0 
L 45.40625 8.203125 
Q 42.578125 3.328125 38.25 0.953125 
Q 33.9375 -1.421875 27.875 -1.421875 
Q 17.96875 -1.421875 11.734375 6.484375 
Q 5.515625 14.40625 5.515625 27.296875 
Q 5.515625 40.1875 11.734375 48.09375 
Q 17.96875 56 27.875 56 
Q 33.9375 56 38.25 53.625 
Q 42.578125 51.265625 45.40625 46.390625 
z
M 14.796875 27.296875 
Q 14.796875 17.390625 18.875 11.75 
Q 22.953125 6.109375 30.078125 6.109375 
Q 37.203125 6.109375 41.296875 11.75 
Q 45.40625 17.390625 45.40625 27.296875 
Q 45.40625 37.203125 41.296875 42.84375 
Q 37.203125 48.484375 30.078125 48.484375 
Q 22.953125 48.484375 18.875 42.84375 
Q 14.796875 37.203125 14.796875 27.296875 
z
" id="DejaVuSans-100"/>
      <path d="M 18.109375 8.203125 
L 18.109375 -20.796875 
L 9.078125 -20.796875 
L 9.078125 54.6875 
L 18.109375 54.6875 
L 18.109375 46.390625 
Q 20.953125 51.265625 25.265625 53.625 
Q 29.59375 56 35.59375 56 
Q 45.5625 56 51.78125 48.09375 
Q 58.015625 40.1875 58.015625 27.296875 
Q 58.015625 14.40625 51.78125 6.484375 
Q 45.5625 -1.421875 35.59375 -1.421875 
Q 29.59375 -1.421875 25.265625 0.953125 
Q 20.953125 3.328125 18.109375 8.203125 
z
M 48.6875 27.296875 
Q 48.6875 37.203125 44.609375 42.84375 
Q 40.53125 48.484375 33.40625 48.484375 
Q 26.265625 48.484375 22.1875 42.84375 
Q 18.109375 37.203125 18.109375 27.296875 
Q 18.109375 17.390625 22.1875 11.75 
Q 26.265625 6.109375 33.40625 6.109375 
Q 40.53125 6.109375 44.609375 11.75 
Q 48.6875 17.390625 48.6875 27.296875 
z
" id="DejaVuSans-112"/>
      <path d="M 52 44.1875 
Q 55.375 50.25 60.0625 53.125 
Q 64.75 56 71.09375 56 
Q 79.640625 56 84.28125 50.015625 
Q 88.921875 44.046875 88.921875 33.015625 
L 88.921875 0 
L 79.890625 0 
L 79.890625 32.71875 
Q 79.890625 40.578125 77.09375 44.375 
Q 74.3125 48.1875 68.609375 48.1875 
Q 61.625 48.1875 57.5625 43.546875 
Q 53.515625 38.921875 53.515625 30.90625 
L 53.515625 0 
L 44.484375 0 
L 44.484375 32.71875 
Q 44.484375 40.625 41.703125 44.40625 
Q 38.921875 48.1875 33.109375 48.1875 
Q 26.21875 48.1875 22.15625 43.53125 
Q 18.109375 38.875 18.109375 30.90625 
L 18.109375 0 
L 9.078125 0 
L 9.078125 54.6875 
L 18.109375 54.6875 
L 18.109375 46.1875 
Q 21.1875 51.21875 25.484375 53.609375 
Q 29.78125 56 35.6875 56 
Q 41.65625 56 45.828125 52.96875 
Q 50 49.953125 52 44.1875 
z
" id="DejaVuSans-109"/>
     </defs>
     <g transform="translate(19.296875 291.941562)rotate(-90)scale(0.12 -0.12)">
      <use xlink:href="#DejaVuSans-78"/>
      <use x="74.804688" xlink:href="#DejaVuSans-97"/>
      <use x="136.083984" xlink:href="#DejaVuSans-110"/>
      <use x="199.462891" xlink:href="#DejaVuSans-111"/>
      <use x="260.644531" xlink:href="#DejaVuSans-115"/>
      <use x="312.744141" xlink:href="#DejaVuSans-101"/>
      <use x="374.267578" xlink:href="#DejaVuSans-99"/>
      <use x="429.248047" xlink:href="#DejaVuSans-111"/>
      <use x="490.429688" xlink:href="#DejaVuSans-110"/>
      <use x="553.808594" xlink:href="#DejaVuSans-100"/>
      <use x="617.285156" xlink:href="#DejaVuSans-115"/>
      <use x="669.384766" xlink:href="#DejaVuSans-32"/>
      <use x="701.171875" xlink:href="#DejaVuSans-112"/>
      <use x="764.648438" xlink:href="#DejaVuSans-101"/>
      <use x="826.171875" xlink:href="#DejaVuSans-114"/>
      <use x="867.285156" xlink:href="#DejaVuSans-32"/>
      <use x="899.072266" xlink:href="#DejaVuSans-105"/>
      <use x="926.855469" xlink:href="#DejaVuSans-110"/>
      <use x="990.234375" xlink:href="#DejaVuSans-99"/>
      <use x="1045.214844" xlink:href="#DejaVuSans-114"/>
      <use x="1086.296875" xlink:href="#DejaVuSans-101"/>
      <use x="1147.820312" xlink:href="#DejaVuSans-109"/>
      <use x="1245.232422" xlink:href="#DejaVuSans-101"/>
      <use x="1306.755859" xlink:href="#DejaVuSans-110"/>
      <use x="1370.134766" xlink:href="#DejaVuSans-116"/>
     </g>
    </g>
   </g>
   <g id="LineCollection_1">
    <path clip-path="url(#p2b8a11e210)" d="M 86.73958 389.300286 
L 86.73958 389.298564 
" style="fill:none;stroke:#000000;stroke-width:1.5;"/>
    <path clip-path="url(#p2b8a11e210)" d="M 119.673109 389.300829 
L 119.673109 389.298499 
" style="fill:none;stroke:#000000;stroke-width:1.5;"/>
    <path clip-path="url(#p2b8a11e210)" d="M 152.606639 389.283162 
L 152.606639 389.282408 
" style="fill:none;stroke:#000000;stroke-width:1.5;"/>
    <path clip-path="url(#p2b8a11e210)" d="M 185.540168 389.29223 
L 185.540168 389.291297 
" style="fill:none;stroke:#000000;stroke-width:1.5;"/>
    <path clip-path="url(#p2b8a11e210)" d="M 218.473697 389.273528 
L 218.473697 389.272134 
" style="fill:none;stroke:#000000;stroke-width:1.5;"/>
    <path clip-path="url(#p2b8a11e210)" d="M 251.407227 389.263991 
L 251.407227 389.262384 
" style="fill:none;stroke:#000000;stroke-width:1.5;"/>
    <path clip-path="url(#p2b8a11e210)" d="M 284.340756 389.256486 
L 284.340756 389.255036 
" style="fill:none;stroke:#000000;stroke-width:1.5;"/>
    <path clip-path="url(#p2b8a11e210)" d="M 317.274286 389.249824 
L 317.274286 389.247812 
" style="fill:none;stroke:#000000;stroke-width:1.5;"/>
    <path clip-path="url(#p2b8a11e210)" d="M 350.207815 389.239456 
L 350.207815 389.238039 
" style="fill:none;stroke:#000000;stroke-width:1.5;"/>
    <path clip-path="url(#p2b8a11e210)" d="M 383.141345 389.232298 
L 383.141345 389.230201 
" style="fill:none;stroke:#000000;stroke-width:1.5;"/>
    <path clip-path="url(#p2b8a11e210)" d="M 416.074874 389.226062 
L 416.074874 389.22415 
" style="fill:none;stroke:#000000;stroke-width:1.5;"/>
    <path clip-path="url(#p2b8a11e210)" d="M 449.008403 389.217584 
L 449.008403 389.215362 
" style="fill:none;stroke:#000000;stroke-width:1.5;"/>
    <path clip-path="url(#p2b8a11e210)" d="M 481.941933 389.210943 
L 481.941933 389.208581 
" style="fill:none;stroke:#000000;stroke-width:1.5;"/>
    <path clip-path="url(#p2b8a11e210)" d="M 514.875462 389.2002 
L 514.875462 389.197079 
" style="fill:none;stroke:#000000;stroke-width:1.5;"/>
    <path clip-path="url(#p2b8a11e210)" d="M 547.808992 389.190993 
L 547.808992 389.187913 
" style="fill:none;stroke:#000000;stroke-width:1.5;"/>
    <path clip-path="url(#p2b8a11e210)" d="M 580.742521 389.171869 
L 580.742521 389.171415 
" style="fill:none;stroke:#000000;stroke-width:1.5;"/>
    <path clip-path="url(#p2b8a11e210)" d="M 613.67605 389.163282 
L 613.67605 389.162956 
" style="fill:none;stroke:#000000;stroke-width:1.5;"/>
   </g>
   <g id="LineCollection_2">
    <path clip-path="url(#p2b8a11e210)" d="M 89.091975 389.318901 
L 89.091975 389.318901 
" style="fill:none;stroke:#000000;stroke-width:1.5;"/>
    <path clip-path="url(#p2b8a11e210)" d="M 122.025504 389.318306 
L 122.025504 389.3183 
" style="fill:none;stroke:#000000;stroke-width:1.5;"/>
    <path clip-path="url(#p2b8a11e210)" d="M 154.959034 389.31777 
L 154.959034 389.31775 
" style="fill:none;stroke:#000000;stroke-width:1.5;"/>
    <path clip-path="url(#p2b8a11e210)" d="M 187.892563 389.317063 
L 187.892563 389.317046 
" style="fill:none;stroke:#000000;stroke-width:1.5;"/>
    <path clip-path="url(#p2b8a11e210)" d="M 220.826092 389.316397 
L 220.826092 389.316308 
" style="fill:none;stroke:#000000;stroke-width:1.5;"/>
    <path clip-path="url(#p2b8a11e210)" d="M 253.759622 389.315772 
L 253.759622 389.315697 
" style="fill:none;stroke:#000000;stroke-width:1.5;"/>
    <path clip-path="url(#p2b8a11e210)" d="M 286.693151 389.315172 
L 286.693151 389.31509 
" style="fill:none;stroke:#000000;stroke-width:1.5;"/>
    <path clip-path="url(#p2b8a11e210)" d="M 319.626681 389.314567 
L 319.626681 389.314494 
" style="fill:none;stroke:#000000;stroke-width:1.5;"/>
    <path clip-path="url(#p2b8a11e210)" d="M 352.56021 389.313989 
L 352.56021 389.313907 
" style="fill:none;stroke:#000000;stroke-width:1.5;"/>
    <path clip-path="url(#p2b8a11e210)" d="M 385.493739 389.313298 
L 385.493739 389.313225 
" style="fill:none;stroke:#000000;stroke-width:1.5;"/>
    <path clip-path="url(#p2b8a11e210)" d="M 418.427269 389.312637 
L 418.427269 389.312554 
" style="fill:none;stroke:#000000;stroke-width:1.5;"/>
    <path clip-path="url(#p2b8a11e210)" d="M 451.360798 389.312057 
L 451.360798 389.311942 
" style="fill:none;stroke:#000000;stroke-width:1.5;"/>
    <path clip-path="url(#p2b8a11e210)" d="M 484.294328 389.311471 
L 484.294328 389.311344 
" style="fill:none;stroke:#000000;stroke-width:1.5;"/>
    <path clip-path="url(#p2b8a11e210)" d="M 517.227857 389.310876 
L 517.227857 389.310797 
" style="fill:none;stroke:#000000;stroke-width:1.5;"/>
    <path clip-path="url(#p2b8a11e210)" d="M 550.161387 389.310344 
L 550.161387 389.310219 
" style="fill:none;stroke:#000000;stroke-width:1.5;"/>
    <path clip-path="url(#p2b8a11e210)" d="M 583.094916 389.310252 
L 583.094916 389.310235 
" style="fill:none;stroke:#000000;stroke-width:1.5;"/>
    <path clip-path="url(#p2b8a11e210)" d="M 616.028445 389.309687 
L 616.028445 389.309663 
" style="fill:none;stroke:#000000;stroke-width:1.5;"/>
   </g>
   <g id="LineCollection_3">
    <path clip-path="url(#p2b8a11e210)" d="M 91.44437 389.316626 
L 91.44437 389.316626 
" style="fill:none;stroke:#000000;stroke-width:1.5;"/>
    <path clip-path="url(#p2b8a11e210)" d="M 124.377899 389.314567 
L 124.377899 389.31456 
" style="fill:none;stroke:#000000;stroke-width:1.5;"/>
    <path clip-path="url(#p2b8a11e210)" d="M 157.311429 389.312482 
L 157.311429 389.312459 
" style="fill:none;stroke:#000000;stroke-width:1.5;"/>
    <path clip-path="url(#p2b8a11e210)" d="M 190.244958 389.309202 
L 190.244958 389.309095 
" style="fill:none;stroke:#000000;stroke-width:1.5;"/>
    <path clip-path="url(#p2b8a11e210)" d="M 223.178487 389.306078 
L 223.178487 389.305785 
" style="fill:none;stroke:#000000;stroke-width:1.5;"/>
    <path clip-path="url(#p2b8a11e210)" d="M 256.112017 389.302175 
L 256.112017 389.302034 
" style="fill:none;stroke:#000000;stroke-width:1.5;"/>
    <path clip-path="url(#p2b8a11e210)" d="M 289.045546 389.299178 
L 289.045546 389.299031 
" style="fill:none;stroke:#000000;stroke-width:1.5;"/>
    <path clip-path="url(#p2b8a11e210)" d="M 321.979076 389.296646 
L 321.979076 389.29643 
" style="fill:none;stroke:#000000;stroke-width:1.5;"/>
    <path clip-path="url(#p2b8a11e210)" d="M 354.912605 389.294111 
L 354.912605 389.294016 
" style="fill:none;stroke:#000000;stroke-width:1.5;"/>
    <path clip-path="url(#p2b8a11e210)" d="M 387.846134 389.290883 
L 387.846134 389.290502 
" style="fill:none;stroke:#000000;stroke-width:1.5;"/>
    <path clip-path="url(#p2b8a11e210)" d="M 420.779664 389.287387 
L 420.779664 389.287089 
" style="fill:none;stroke:#000000;stroke-width:1.5;"/>
    <path clip-path="url(#p2b8a11e210)" d="M 453.713193 389.285912 
L 453.713193 389.285193 
" style="fill:none;stroke:#000000;stroke-width:1.5;"/>
    <path clip-path="url(#p2b8a11e210)" d="M 486.646723 389.284346 
L 486.646723 389.283187 
" style="fill:none;stroke:#000000;stroke-width:1.5;"/>
    <path clip-path="url(#p2b8a11e210)" d="M 519.580252 389.281838 
L 519.580252 389.280728 
" style="fill:none;stroke:#000000;stroke-width:1.5;"/>
    <path clip-path="url(#p2b8a11e210)" d="M 552.513782 389.279124 
L 552.513782 389.278063 
" style="fill:none;stroke:#000000;stroke-width:1.5;"/>
    <path clip-path="url(#p2b8a11e210)" d="M 585.447311 389.283206 
L 585.447311 389.28313 
" style="fill:none;stroke:#000000;stroke-width:1.5;"/>
    <path clip-path="url(#p2b8a11e210)" d="M 618.38084 389.281064 
L 618.38084 389.280923 
" style="fill:none;stroke:#000000;stroke-width:1.5;"/>
   </g>
   <g id="LineCollection_4">
    <path clip-path="url(#p2b8a11e210)" d="M 93.796765 389.296616 
L 93.796765 389.296488 
" style="fill:none;stroke:#000000;stroke-width:1.5;"/>
    <path clip-path="url(#p2b8a11e210)" d="M 126.730294 389.29087 
L 126.730294 389.274977 
" style="fill:none;stroke:#000000;stroke-width:1.5;"/>
    <path clip-path="url(#p2b8a11e210)" d="M 159.663824 389.257027 
L 159.663824 389.251938 
" style="fill:none;stroke:#000000;stroke-width:1.5;"/>
    <path clip-path="url(#p2b8a11e210)" d="M 192.597353 389.243338 
L 192.597353 389.230268 
" style="fill:none;stroke:#000000;stroke-width:1.5;"/>
    <path clip-path="url(#p2b8a11e210)" d="M 225.530882 389.228523 
L 225.530882 389.220816 
" style="fill:none;stroke:#000000;stroke-width:1.5;"/>
    <path clip-path="url(#p2b8a11e210)" d="M 258.464412 389.197494 
L 258.464412 389.180381 
" style="fill:none;stroke:#000000;stroke-width:1.5;"/>
    <path clip-path="url(#p2b8a11e210)" d="M 291.397941 389.150371 
L 291.397941 389.148398 
" style="fill:none;stroke:#000000;stroke-width:1.5;"/>
    <path clip-path="url(#p2b8a11e210)" d="M 324.331471 389.112746 
L 324.331471 389.111726 
" style="fill:none;stroke:#000000;stroke-width:1.5;"/>
    <path clip-path="url(#p2b8a11e210)" d="M 357.265 389.076417 
L 357.265 389.074786 
" style="fill:none;stroke:#000000;stroke-width:1.5;"/>
    <path clip-path="url(#p2b8a11e210)" d="M 390.198529 389.037211 
L 390.198529 389.03594 
" style="fill:none;stroke:#000000;stroke-width:1.5;"/>
    <path clip-path="url(#p2b8a11e210)" d="M 423.132059 389.003555 
L 423.132059 388.984318 
" style="fill:none;stroke:#000000;stroke-width:1.5;"/>
    <path clip-path="url(#p2b8a11e210)" d="M 456.065588 388.938959 
L 456.065588 388.937913 
" style="fill:none;stroke:#000000;stroke-width:1.5;"/>
    <path clip-path="url(#p2b8a11e210)" d="M 488.999118 388.885588 
L 488.999118 388.883415 
" style="fill:none;stroke:#000000;stroke-width:1.5;"/>
    <path clip-path="url(#p2b8a11e210)" d="M 521.932647 388.834505 
L 521.932647 388.833671 
" style="fill:none;stroke:#000000;stroke-width:1.5;"/>
    <path clip-path="url(#p2b8a11e210)" d="M 554.866176 388.770864 
L 554.866176 388.769458 
" style="fill:none;stroke:#000000;stroke-width:1.5;"/>
    <path clip-path="url(#p2b8a11e210)" d="M 587.799706 388.717723 
L 587.799706 388.698047 
" style="fill:none;stroke:#000000;stroke-width:1.5;"/>
    <path clip-path="url(#p2b8a11e210)" d="M 620.733235 388.660614 
L 620.733235 388.626459 
" style="fill:none;stroke:#000000;stroke-width:1.5;"/>
   </g>
   <g id="LineCollection_5">
    <path clip-path="url(#p2b8a11e210)" d="M 96.14916 388.710099 
L 96.14916 388.707662 
" style="fill:none;stroke:#000000;stroke-width:1.5;"/>
    <path clip-path="url(#p2b8a11e210)" d="M 129.082689 387.575917 
L 129.082689 387.558869 
" style="fill:none;stroke:#000000;stroke-width:1.5;"/>
    <path clip-path="url(#p2b8a11e210)" d="M 162.016218 387.716465 
L 162.016218 387.42842 
" style="fill:none;stroke:#000000;stroke-width:1.5;"/>
    <path clip-path="url(#p2b8a11e210)" d="M 194.949748 386.434273 
L 194.949748 386.359549 
" style="fill:none;stroke:#000000;stroke-width:1.5;"/>
    <path clip-path="url(#p2b8a11e210)" d="M 227.883277 384.486827 
L 227.883277 384.386506 
" style="fill:none;stroke:#000000;stroke-width:1.5;"/>
    <path clip-path="url(#p2b8a11e210)" d="M 260.816807 382.682041 
L 260.816807 382.604602 
" style="fill:none;stroke:#000000;stroke-width:1.5;"/>
    <path clip-path="url(#p2b8a11e210)" d="M 293.750336 380.807215 
L 293.750336 380.610709 
" style="fill:none;stroke:#000000;stroke-width:1.5;"/>
    <path clip-path="url(#p2b8a11e210)" d="M 326.683866 378.521739 
L 326.683866 378.352905 
" style="fill:none;stroke:#000000;stroke-width:1.5;"/>
    <path clip-path="url(#p2b8a11e210)" d="M 359.617395 376.082361 
L 359.617395 375.908236 
" style="fill:none;stroke:#000000;stroke-width:1.5;"/>
    <path clip-path="url(#p2b8a11e210)" d="M 392.550924 373.442859 
L 392.550924 373.244025 
" style="fill:none;stroke:#000000;stroke-width:1.5;"/>
    <path clip-path="url(#p2b8a11e210)" d="M 425.484454 370.465598 
L 425.484454 370.162777 
" style="fill:none;stroke:#000000;stroke-width:1.5;"/>
    <path clip-path="url(#p2b8a11e210)" d="M 458.417983 367.327467 
L 458.417983 366.809869 
" style="fill:none;stroke:#000000;stroke-width:1.5;"/>
    <path clip-path="url(#p2b8a11e210)" d="M 491.351513 363.442766 
L 491.351513 363.175264 
" style="fill:none;stroke:#000000;stroke-width:1.5;"/>
    <path clip-path="url(#p2b8a11e210)" d="M 524.285042 359.648548 
L 524.285042 359.315758 
" style="fill:none;stroke:#000000;stroke-width:1.5;"/>
    <path clip-path="url(#p2b8a11e210)" d="M 557.218571 355.679576 
L 557.218571 355.229881 
" style="fill:none;stroke:#000000;stroke-width:1.5;"/>
    <path clip-path="url(#p2b8a11e210)" d="M 590.152101 351.886494 
L 590.152101 350.914362 
" style="fill:none;stroke:#000000;stroke-width:1.5;"/>
    <path clip-path="url(#p2b8a11e210)" d="M 623.08563 348.221021 
L 623.08563 345.559403 
" style="fill:none;stroke:#000000;stroke-width:1.5;"/>
   </g>
   <g id="LineCollection_6">
    <path clip-path="url(#p2b8a11e210)" d="M 98.501555 388.88725 
L 98.501555 388.677826 
" style="fill:none;stroke:#000000;stroke-width:1.5;"/>
    <path clip-path="url(#p2b8a11e210)" d="M 131.435084 388.413696 
L 131.435084 388.339849 
" style="fill:none;stroke:#000000;stroke-width:1.5;"/>
    <path clip-path="url(#p2b8a11e210)" d="M 164.368613 388.154079 
L 164.368613 388.02901 
" style="fill:none;stroke:#000000;stroke-width:1.5;"/>
    <path clip-path="url(#p2b8a11e210)" d="M 197.302143 387.704476 
L 197.302143 387.598228 
" style="fill:none;stroke:#000000;stroke-width:1.5;"/>
    <path clip-path="url(#p2b8a11e210)" d="M 230.235672 387.34116 
L 230.235672 387.23617 
" style="fill:none;stroke:#000000;stroke-width:1.5;"/>
    <path clip-path="url(#p2b8a11e210)" d="M 263.169202 387.024817 
L 263.169202 386.919454 
" style="fill:none;stroke:#000000;stroke-width:1.5;"/>
    <path clip-path="url(#p2b8a11e210)" d="M 296.102731 386.70859 
L 296.102731 386.621827 
" style="fill:none;stroke:#000000;stroke-width:1.5;"/>
    <path clip-path="url(#p2b8a11e210)" d="M 329.036261 386.436929 
L 329.036261 386.256819 
" style="fill:none;stroke:#000000;stroke-width:1.5;"/>
    <path clip-path="url(#p2b8a11e210)" d="M 361.96979 386.121966 
L 361.96979 385.999465 
" style="fill:none;stroke:#000000;stroke-width:1.5;"/>
    <path clip-path="url(#p2b8a11e210)" d="M 394.903319 385.782457 
L 394.903319 385.597938 
" style="fill:none;stroke:#000000;stroke-width:1.5;"/>
    <path clip-path="url(#p2b8a11e210)" d="M 427.836849 385.430552 
L 427.836849 385.206114 
" style="fill:none;stroke:#000000;stroke-width:1.5;"/>
    <path clip-path="url(#p2b8a11e210)" d="M 460.770378 385.154205 
L 460.770378 384.935755 
" style="fill:none;stroke:#000000;stroke-width:1.5;"/>
    <path clip-path="url(#p2b8a11e210)" d="M 493.703908 384.837402 
L 493.703908 384.53454 
" style="fill:none;stroke:#000000;stroke-width:1.5;"/>
    <path clip-path="url(#p2b8a11e210)" d="M 526.637437 384.509121 
L 526.637437 384.2904 
" style="fill:none;stroke:#000000;stroke-width:1.5;"/>
    <path clip-path="url(#p2b8a11e210)" d="M 559.570966 384.219781 
L 559.570966 383.903135 
" style="fill:none;stroke:#000000;stroke-width:1.5;"/>
    <path clip-path="url(#p2b8a11e210)" d="M 592.504496 383.84568 
L 592.504496 383.674299 
" style="fill:none;stroke:#000000;stroke-width:1.5;"/>
    <path clip-path="url(#p2b8a11e210)" d="M 625.438025 383.468759 
L 625.438025 383.287142 
" style="fill:none;stroke:#000000;stroke-width:1.5;"/>
   </g>
   <g id="LineCollection_7">
    <path clip-path="url(#p2b8a11e210)" d="M 100.85395 389.302961 
L 100.85395 389.302714 
" style="fill:none;stroke:#000000;stroke-width:1.5;"/>
    <path clip-path="url(#p2b8a11e210)" d="M 133.787479 389.289811 
L 133.787479 389.289559 
" style="fill:none;stroke:#000000;stroke-width:1.5;"/>
    <path clip-path="url(#p2b8a11e210)" d="M 166.721008 389.276531 
L 166.721008 389.275707 
" style="fill:none;stroke:#000000;stroke-width:1.5;"/>
    <path clip-path="url(#p2b8a11e210)" d="M 199.654538 389.25856 
L 199.654538 389.257452 
" style="fill:none;stroke:#000000;stroke-width:1.5;"/>
    <path clip-path="url(#p2b8a11e210)" d="M 232.588067 389.239423 
L 232.588067 389.238175 
" style="fill:none;stroke:#000000;stroke-width:1.5;"/>
    <path clip-path="url(#p2b8a11e210)" d="M 265.521597 389.217851 
L 265.521597 389.212528 
" style="fill:none;stroke:#000000;stroke-width:1.5;"/>
    <path clip-path="url(#p2b8a11e210)" d="M 298.455126 389.19281 
L 298.455126 389.189434 
" style="fill:none;stroke:#000000;stroke-width:1.5;"/>
    <path clip-path="url(#p2b8a11e210)" d="M 331.388655 389.167065 
L 331.388655 389.161453 
" style="fill:none;stroke:#000000;stroke-width:1.5;"/>
    <path clip-path="url(#p2b8a11e210)" d="M 364.322185 389.141097 
L 364.322185 389.135701 
" style="fill:none;stroke:#000000;stroke-width:1.5;"/>
    <path clip-path="url(#p2b8a11e210)" d="M 397.255714 389.103207 
L 397.255714 389.097704 
" style="fill:none;stroke:#000000;stroke-width:1.5;"/>
    <path clip-path="url(#p2b8a11e210)" d="M 430.189244 389.06025 
L 430.189244 389.055584 
" style="fill:none;stroke:#000000;stroke-width:1.5;"/>
    <path clip-path="url(#p2b8a11e210)" d="M 463.122773 389.017447 
L 463.122773 389.014221 
" style="fill:none;stroke:#000000;stroke-width:1.5;"/>
    <path clip-path="url(#p2b8a11e210)" d="M 496.056303 388.972253 
L 496.056303 388.968307 
" style="fill:none;stroke:#000000;stroke-width:1.5;"/>
    <path clip-path="url(#p2b8a11e210)" d="M 528.989832 388.926361 
L 528.989832 388.922759 
" style="fill:none;stroke:#000000;stroke-width:1.5;"/>
    <path clip-path="url(#p2b8a11e210)" d="M 561.923361 388.879365 
L 561.923361 388.875778 
" style="fill:none;stroke:#000000;stroke-width:1.5;"/>
    <path clip-path="url(#p2b8a11e210)" d="M 594.856891 279.253595 
L 594.856891 200.728072 
" style="fill:none;stroke:#000000;stroke-width:1.5;"/>
    <path clip-path="url(#p2b8a11e210)" d="M 627.79042 254.344417 
L 627.79042 42.767619 
" style="fill:none;stroke:#000000;stroke-width:1.5;"/>
   </g>
   <g id="patch_122">
    <path d="M 77.33 389.32 
L 77.33 25.44 
" style="fill:none;stroke:#000000;stroke-linecap:square;stroke-linejoin:miter;stroke-width:0.8;"/>
   </g>
   <g id="patch_123">
    <path d="M 637.2 389.32 
L 637.2 25.44 
" style="fill:none;stroke:#000000;stroke-linecap:square;stroke-linejoin:miter;stroke-width:0.8;"/>
   </g>
   <g id="patch_124">
    <path d="M 77.33 389.32 
L 637.2 389.32 
" style="fill:none;stroke:#000000;stroke-linecap:square;stroke-linejoin:miter;stroke-width:0.8;"/>
   </g>
   <g id="patch_125">
    <path d="M 77.33 25.44 
L 637.2 25.44 
" style="fill:none;stroke:#000000;stroke-linecap:square;stroke-linejoin:miter;stroke-width:0.8;"/>
   </g>
   <g id="text_26">
    <!-- Increment Cost: Ticket Spin (Oversubscribed) -->
    <defs>
     <path d="M 9.8125 72.90625 
L 19.671875 72.90625 
L 19.671875 0 
L 9.8125 0 
z
" id="DejaVuSans-73"/>
     <path d="M 11.71875 12.40625 
L 22.015625 12.40625 
L 22.015625 0 
L 11.71875 0 
z
M 11.71875 51.703125 
L 22.015625 51.703125 
L 22.015625 39.3125 
L 11.71875 39.3125 
z
" id="DejaVuSans-58"/>
     <path d="M -0.296875 72.90625 
L 61.375 72.90625 
L 61.375 64.59375 
L 35.5 64.59375 
L 35.5 0 
L 25.59375 0 
L 25.59375 64.59375 
L -0.296875 64.59375 
z
" id="DejaVuSans-84"/>
     <path d="M 9.078125 75.984375 
L 18.109375 75.984375 
L 18.109375 31.109375 
L 44.921875 54.6875 
L 56.390625 54.6875 
L 27.390625 29.109375 
L 57.625 0 
L 45.90625 0 
L 18.109375 26.703125 
L 18.109375 0 
L 9.078125 0 
z
" id="DejaVuSans-107"/>
     <path d="M 53.515625 70.515625 
L 53.515625 60.890625 
Q 47.90625 63.578125 42.921875 64.890625 
Q 37.9375 66.21875 33.296875 66.21875 
Q 25.25 66.21875 20.875 63.09375 
Q 16.5 59.96875 16.5 54.203125 
Q 16.5 49.359375 19.40625 46.890625 
Q 22.3125 44.4375 30.421875 42.921875 
L 36.375 41.703125 
Q 47.40625 39.59375 52.65625 34.296875 
Q 57.90625 29 57.90625 20.125 
Q 57.90625 9.515625 50.796875 4.046875 
Q 43.703125 -1.421875 29.984375 -1.421875 
Q 24.8125 -1.421875 18.96875 -0.25 
Q 13.140625 0.921875 6.890625 3.21875 
L 6.890625 13.375 
Q 12.890625 10.015625 18.65625 8.296875 
Q 24.421875 6.59375 29.984375 6.59375 
Q 38.421875 6.59375 43.015625 9.90625 
Q 47.609375 13.234375 47.609375 19.390625 
Q 47.609375 24.75 44.3125 27.78125 
Q 41.015625 30.8125 33.5 32.328125 
L 27.484375 33.5 
Q 16.453125 35.6875 11.515625 40.375 
Q 6.59375 45.0625 6.59375 53.421875 
Q 6.59375 63.09375 13.40625 68.65625 
Q 20.21875 74.21875 32.171875 74.21875 
Q 37.3125 74.21875 42.625 73.28125 
Q 47.953125 72.359375 53.515625 70.515625 
z
" id="DejaVuSans-83"/>
     <path d="M 31 75.875 
Q 24.46875 64.65625 21.28125 53.65625 
Q 18.109375 42.671875 18.109375 31.390625 
Q 18.109375 20.125 21.3125 9.0625 
Q 24.515625 -2 31 -13.1875 
L 23.1875 -13.1875 
Q 15.875 -1.703125 12.234375 9.375 
Q 8.59375 20.453125 8.59375 31.390625 
Q 8.59375 42.28125 12.203125 53.3125 
Q 15.828125 64.359375 23.1875 75.875 
z
" id="DejaVuSans-40"/>
     <path d="M 39.40625 66.21875 
Q 28.65625 66.21875 22.328125 58.203125 
Q 16.015625 50.203125 16.015625 36.375 
Q 16.015625 22.609375 22.328125 14.59375 
Q 28.65625 6.59375 39.40625 6.59375 
Q 50.140625 6.59375 56.421875 14.59375 
Q 62.703125 22.609375 62.703125 36.375 
Q 62.703125 50.203125 56.421875 58.203125 
Q 50.140625 66.21875 39.40625 66.21875 
z
M 39.40625 74.21875 
Q 54.734375 74.21875 63.90625 63.9375 
Q 73.09375 53.65625 73.09375 36.375 
Q 73.09375 19.140625 63.90625 8.859375 
Q 54.734375 -1.421875 39.40625 -1.421875 
Q 24.03125 -1.421875 14.8125 8.828125 
Q 5.609375 19.09375 5.609375 36.375 
Q 5.609375 53.65625 14.8125 63.9375 
Q 24.03125 74.21875 39.40625 74.21875 
z
" id="DejaVuSans-79"/>
     <path d="M 8.5 21.578125 
L 8.5 54.6875 
L 17.484375 54.6875 
L 17.484375 21.921875 
Q 17.484375 14.15625 20.5 10.265625 
Q 23.53125 6.390625 29.59375 6.390625 
Q 36.859375 6.390625 41.078125 11.03125 
Q 45.3125 15.671875 45.3125 23.6875 
L 45.3125 54.6875 
L 54.296875 54.6875 
L 54.296875 0 
L 45.3125 0 
L 45.3125 8.40625 
Q 42.046875 3.421875 37.71875 1 
Q 33.40625 -1.421875 27.6875 -1.421875 
Q 18.265625 -1.421875 13.375 4.4375 
Q 8.5 10.296875 8.5 21.578125 
z
M 31.109375 56 
z
" id="DejaVuSans-117"/>
     <path d="M 48.6875 27.296875 
Q 48.6875 37.203125 44.609375 42.84375 
Q 40.53125 48.484375 33.40625 48.484375 
Q 26.265625 48.484375 22.1875 42.84375 
Q 18.109375 37.203125 18.109375 27.296875 
Q 18.109375 17.390625 22.1875 11.75 
Q 26.265625 6.109375 33.40625 6.109375 
Q 40.53125 6.109375 44.609375 11.75 
Q 48.6875 17.390625 48.6875 27.296875 
z
M 18.109375 46.390625 
Q 20.953125 51.265625 25.265625 53.625 
Q 29.59375 56 35.59375 56 
Q 45.5625 56 51.78125 48.09375 
Q 58.015625 40.1875 58.015625 27.296875 
Q 58.015625 14.40625 51.78125 6.484375 
Q 45.5625 -1.421875 35.59375 -1.421875 
Q 29.59375 -1.421875 25.265625 0.953125 
Q 20.953125 3.328125 18.109375 8.203125 
L 18.109375 0 
L 9.078125 0 
L 9.078125 75.984375 
L 18.109375 75.984375 
z
" id="DejaVuSans-98"/>
     <path d="M 8.015625 75.875 
L 15.828125 75.875 
Q 23.140625 64.359375 26.78125 53.3125 
Q 30.421875 42.28125 30.421875 31.390625 
Q 30.421875 20.453125 26.78125 9.375 
Q 23.140625 -1.703125 15.828125 -13.1875 
L 8.015625 -13.1875 
Q 14.5 -2 17.703125 9.0625 
Q 20.90625 20.125 20.90625 31.390625 
Q 20.90625 42.671875 17.703125 53.65625 
Q 14.5 64.65625 8.015625 75.875 
z
" id="DejaVuSans-41"/>
    </defs>
    <g transform="translate(220.6075 19.44)scale(0.12 -0.12)">
     <use xlink:href="#DejaVuSans-73"/>
     <use x="29.492188" xlink:href="#DejaVuSans-110"/>
     <use x="92.871094" xlink:href="#DejaVuSans-99"/>
     <use x="147.851562" xlink:href="#DejaVuSans-114"/>
     <use x="188.933594" xlink:href="#DejaVuSans-101"/>
     <use x="250.457031" xlink:href="#DejaVuSans-109"/>
     <use x="347.869141" xlink:href="#DejaVuSans-101"/>
     <use x="409.392578" xlink:href="#DejaVuSans-110"/>
     <use x="472.771484" xlink:href="#DejaVuSans-116"/>
     <use x="511.980469" xlink:href="#DejaVuSans-32"/>
     <use x="543.767578" xlink:href="#DejaVuSans-67"/>
     <use x="613.591797" xlink:href="#DejaVuSans-111"/>
     <use x="674.773438" xlink:href="#DejaVuSans-115"/>
     <use x="726.873047" xlink:href="#DejaVuSans-116"/>
     <use x="766.082031" xlink:href="#DejaVuSans-58"/>
     <use x="799.773438" xlink:href="#DejaVuSans-32"/>
     <use x="831.560547" xlink:href="#DejaVuSans-84"/>
     <use x="892.597656" xlink:href="#DejaVuSans-105"/>
     <use x="920.380859" xlink:href="#DejaVuSans-99"/>
     <use x="975.361328" xlink:href="#DejaVuSans-107"/>
     <use x="1033.224609" xlink:href="#DejaVuSans-101"/>
     <use x="1094.748047" xlink:href="#DejaVuSans-116"/>
     <use x="1133.957031" xlink:href="#DejaVuSans-32"/>
     <use x="1165.744141" xlink:href="#DejaVuSans-83"/>
     <use x="1229.220703" xlink:href="#DejaVuSans-112"/>
     <use x="1292.697266" xlink:href="#DejaVuSans-105"/>
     <use x="1320.480469" xlink:href="#DejaVuSans-110"/>
     <use x="1383.859375" xlink:href="#DejaVuSans-32"/>
     <use x="1415.646484" xlink:href="#DejaVuSans-40"/>
     <use x="1454.660156" xlink:href="#DejaVuSans-79"/>
     <use x="1533.371094" xlink:href="#DejaVuSans-118"/>
     <use x="1592.550781" xlink:href="#DejaVuSans-101"/>
     <use x="1654.074219" xlink:href="#DejaVuSans-114"/>
     <use x="1695.1875" xlink:href="#DejaVuSans-115"/>
     <use x="1747.287109" xlink:href="#DejaVuSans-117"/>
     <use x="1810.666016" xlink:href="#DejaVuSans-98"/>
     <use x="1874.142578" xlink:href="#DejaVuSans-115"/>
     <use x="1926.242188" xlink:href="#DejaVuSans-99"/>
     <use x="1981.222656" xlink:href="#DejaVuSans-114"/>
     <use x="2022.335938" xlink:href="#DejaVuSans-105"/>
     <use x="2050.119141" xlink:href="#DejaVuSans-98"/>
     <use x="2113.595703" xlink:href="#DejaVuSans-101"/>
     <use x="2175.119141" xlink:href="#DejaVuSans-100"/>
     <use x="2238.595703" xlink:href="#DejaVuSans-41"/>
    </g>
   </g>
   <g id="legend_1">
    <g id="patch_126">
     <path d="M 84.33 150.865 
L 189.562813 150.865 
Q 191.562813 150.865 191.562813 148.865 
L 191.562813 32.44 
Q 191.562813 30.44 189.562813 30.44 
L 84.33 30.44 
Q 82.33 30.44 82.33 32.44 
L 82.33 148.865 
Q 82.33 150.865 84.33 150.865 
z
" style="fill:#ffffff;opacity:0.8;stroke:#cccccc;stroke-linejoin:miter;"/>
    </g>
    <g id="text_27">
     <!-- Implementation -->
     <defs>
      <path d="M 9.421875 75.984375 
L 18.40625 75.984375 
L 18.40625 0 
L 9.421875 0 
z
" id="DejaVuSans-108"/>
     </defs>
     <g transform="translate(97.244062 42.038438)scale(0.1 -0.1)">
      <use xlink:href="#DejaVuSans-73"/>
      <use x="29.492188" xlink:href="#DejaVuSans-109"/>
      <use x="126.904297" xlink:href="#DejaVuSans-112"/>
      <use x="190.380859" xlink:href="#DejaVuSans-108"/>
      <use x="218.164062" xlink:href="#DejaVuSans-101"/>
      <use x="279.6875" xlink:href="#DejaVuSans-109"/>
      <use x="377.099609" xlink:href="#DejaVuSans-101"/>
      <use x="438.623047" xlink:href="#DejaVuSans-110"/>
      <use x="502.001953" xlink:href="#DejaVuSans-116"/>
      <use x="541.210938" xlink:href="#DejaVuSans-97"/>
      <use x="602.490234" xlink:href="#DejaVuSans-116"/>
      <use x="641.699219" xlink:href="#DejaVuSans-105"/>
      <use x="669.482422" xlink:href="#DejaVuSans-111"/>
      <use x="730.664062" xlink:href="#DejaVuSans-110"/>
     </g>
    </g>
    <g id="patch_127">
     <path d="M 86.33 56.716563 
L 106.33 56.716563 
L 106.33 49.716563 
L 86.33 49.716563 
z
" style="fill:#1f77b4;"/>
    </g>
    <g id="text_28">
     <!-- mutex add -->
     <defs>
      <path d="M 54.890625 54.6875 
L 35.109375 28.078125 
L 55.90625 0 
L 45.3125 0 
L 29.390625 21.484375 
L 13.484375 0 
L 2.875 0 
L 24.125 28.609375 
L 4.6875 54.6875 
L 15.28125 54.6875 
L 29.78125 35.203125 
L 44.28125 54.6875 
z
" id="DejaVuSans-120"/>
     </defs>
     <g transform="translate(114.33 56.716563)scale(0.1 -0.1)">
      <use xlink:href="#DejaVuSans-109"/>
      <use x="97.412109" xlink:href="#DejaVuSans-117"/>
      <use x="160.791016" xlink:href="#DejaVuSans-116"/>
      <use x="200" xlink:href="#DejaVuSans-101"/>
      <use x="261.507812" xlink:href="#DejaVuSans-120"/>
      <use x="320.6875" xlink:href="#DejaVuSans-32"/>
      <use x="352.474609" xlink:href="#DejaVuSans-97"/>
      <use x="413.753906" xlink:href="#DejaVuSans-100"/>
      <use x="477.230469" xlink:href="#DejaVuSans-100"/>
     </g>
    </g>
    <g id="patch_128">
     <path d="M 86.33 71.394688 
L 106.33 71.394688 
L 106.33 64.394688 
L 86.33 64.394688 
z
" style="fill:#ff7f0e;"/>
    </g>
    <g id="text_29">
     <!-- atomic add -->
     <g transform="translate(114.33 71.394688)scale(0.1 -0.1)">
      <use xlink:href="#DejaVuSans-97"/>
      <use x="61.279297" xlink:href="#DejaVuSans-116"/>
      <use x="100.488281" xlink:href="#DejaVuSans-111"/>
      <use x="161.669922" xlink:href="#DejaVuSans-109"/>
      <use x="259.082031" xlink:href="#DejaVuSans-105"/>
      <use x="286.865234" xlink:href="#DejaVuSans-99"/>
      <use x="341.845703" xlink:href="#DejaVuSans-32"/>
      <use x="373.632812" xlink:href="#DejaVuSans-97"/>
      <use x="434.912109" xlink:href="#DejaVuSans-100"/>
      <use x="498.388672" xlink:href="#DejaVuSans-100"/>
     </g>
    </g>
    <g id="patch_129">
     <path d="M 86.33 86.072813 
L 106.33 86.072813 
L 106.33 79.072813 
L 86.33 79.072813 
z
" style="fill:#2ca02c;"/>
    </g>
    <g id="text_30">
     <!-- cas add -->
     <g transform="translate(114.33 86.072813)scale(0.1 -0.1)">
      <use xlink:href="#DejaVuSans-99"/>
      <use x="54.980469" xlink:href="#DejaVuSans-97"/>
      <use x="116.259766" xlink:href="#DejaVuSans-115"/>
      <use x="168.359375" xlink:href="#DejaVuSans-32"/>
      <use x="200.146484" xlink:href="#DejaVuSans-97"/>
      <use x="261.425781" xlink:href="#DejaVuSans-100"/>
      <use x="324.902344" xlink:href="#DejaVuSans-100"/>
     </g>
    </g>
    <g id="patch_130">
     <path d="M 86.33 100.750938 
L 106.33 100.750938 
L 106.33 93.750938 
L 86.33 93.750938 
z
" style="fill:#d62728;"/>
    </g>
    <g id="text_31">
     <!-- ticket yield -->
     <defs>
      <path d="M 32.171875 -5.078125 
Q 28.375 -14.84375 24.75 -17.8125 
Q 21.140625 -20.796875 15.09375 -20.796875 
L 7.90625 -20.796875 
L 7.90625 -13.28125 
L 13.1875 -13.28125 
Q 16.890625 -13.28125 18.9375 -11.515625 
Q 21 -9.765625 23.484375 -3.21875 
L 25.09375 0.875 
L 2.984375 54.6875 
L 12.5 54.6875 
L 29.59375 11.921875 
L 46.6875 54.6875 
L 56.203125 54.6875 
z
" id="DejaVuSans-121"/>
     </defs>
     <g transform="translate(114.33 100.750938)scale(0.1 -0.1)">
      <use xlink:href="#DejaVuSans-116"/>
      <use x="39.208984" xlink:href="#DejaVuSans-105"/>
      <use x="66.992188" xlink:href="#DejaVuSans-99"/>
      <use x="121.972656" xlink:href="#DejaVuSans-107"/>
      <use x="179.835938" xlink:href="#DejaVuSans-101"/>
      <use x="241.359375" xlink:href="#DejaVuSans-116"/>
      <use x="280.568359" xlink:href="#DejaVuSans-32"/>
      <use x="312.355469" xlink:href="#DejaVuSans-121"/>
      <use x="371.535156" xlink:href="#DejaVuSans-105"/>
      <use x="399.318359" xlink:href="#DejaVuSans-101"/>
      <use x="460.841797" xlink:href="#DejaVuSans-108"/>
      <use x="488.625" xlink:href="#DejaVuSans-100"/>
     </g>
    </g>
    <g id="patch_131">
     <path d="M 86.33 115.429063 
L 106.33 115.429063 
L 106.33 108.429063 
L 86.33 108.429063 
z
" style="fill:#9467bd;"/>
    </g>
    <g id="text_32">
     <!-- ticket blocking -->
     <defs>
      <path d="M 45.40625 27.984375 
Q 45.40625 37.75 41.375 43.109375 
Q 37.359375 48.484375 30.078125 48.484375 
Q 22.859375 48.484375 18.828125 43.109375 
Q 14.796875 37.75 14.796875 27.984375 
Q 14.796875 18.265625 18.828125 12.890625 
Q 22.859375 7.515625 30.078125 7.515625 
Q 37.359375 7.515625 41.375 12.890625 
Q 45.40625 18.265625 45.40625 27.984375 
z
M 54.390625 6.78125 
Q 54.390625 -7.171875 48.1875 -13.984375 
Q 42 -20.796875 29.203125 -20.796875 
Q 24.46875 -20.796875 20.265625 -20.09375 
Q 16.0625 -19.390625 12.109375 -17.921875 
L 12.109375 -9.1875 
Q 16.0625 -11.328125 19.921875 -12.34375 
Q 23.78125 -13.375 27.78125 -13.375 
Q 36.625 -13.375 41.015625 -8.765625 
Q 45.40625 -4.15625 45.40625 5.171875 
L 45.40625 9.625 
Q 42.625 4.78125 38.28125 2.390625 
Q 33.9375 0 27.875 0 
Q 17.828125 0 11.671875 7.65625 
Q 5.515625 15.328125 5.515625 27.984375 
Q 5.515625 40.671875 11.671875 48.328125 
Q 17.828125 56 27.875 56 
Q 33.9375 56 38.28125 53.609375 
Q 42.625 51.21875 45.40625 46.390625 
L 45.40625 54.6875 
L 54.390625 54.6875 
z
" id="DejaVuSans-103"/>
     </defs>
     <g transform="translate(114.33 115.429063)scale(0.1 -0.1)">
      <use xlink:href="#DejaVuSans-116"/>
      <use x="39.208984" xlink:href="#DejaVuSans-105"/>
      <use x="66.992188" xlink:href="#DejaVuSans-99"/>
      <use x="121.972656" xlink:href="#DejaVuSans-107"/>
      <use x="179.835938" xlink:href="#DejaVuSans-101"/>
      <use x="241.359375" xlink:href="#DejaVuSans-116"/>
      <use x="280.568359" xlink:href="#DejaVuSans-32"/>
      <use x="312.355469" xlink:href="#DejaVuSans-98"/>
      <use x="375.832031" xlink:href="#DejaVuSans-108"/>
      <use x="403.615234" xlink:href="#DejaVuSans-111"/>
      <use x="464.796875" xlink:href="#DejaVuSans-99"/>
      <use x="519.777344" xlink:href="#DejaVuSans-107"/>
      <use x="577.6875" xlink:href="#DejaVuSans-105"/>
      <use x="605.470703" xlink:href="#DejaVuSans-110"/>
      <use x="668.849609" xlink:href="#DejaVuSans-103"/>
     </g>
    </g>
    <g id="patch_132">
     <path d="M 86.33 130.107188 
L 106.33 130.107188 
L 106.33 123.107188 
L 86.33 123.107188 
z
" style="fill:#8c564b;"/>
    </g>
    <g id="text_33">
     <!-- queued fifo -->
     <defs>
      <path d="M 14.796875 27.296875 
Q 14.796875 17.390625 18.875 11.75 
Q 22.953125 6.109375 30.078125 6.109375 
Q 37.203125 6.109375 41.296875 11.75 
Q 45.40625 17.390625 45.40625 27.296875 
Q 45.40625 37.203125 41.296875 42.84375 
Q 37.203125 48.484375 30.078125 48.484375 
Q 22.953125 48.484375 18.875 42.84375 
Q 14.796875 37.203125 14.796875 27.296875 
z
M 45.40625 8.203125 
Q 42.578125 3.328125 38.25 0.953125 
Q 33.9375 -1.421875 27.875 -1.421875 
Q 17.96875 -1.421875 11.734375 6.484375 
Q 5.515625 14.40625 5.515625 27.296875 
Q 5.515625 40.1875 11.734375 48.09375 
Q 17.96875 56 27.875 56 
Q 33.9375 56 38.25 53.625 
Q 42.578125 51.265625 45.40625 46.390625 
L 45.40625 54.6875 
L 54.390625 54.6875 
L 54.390625 -20.796875 
L 45.40625 -20.796875 
z
" id="DejaVuSans-113"/>
      <path d="M 37.109375 75.984375 
L 37.109375 68.5 
L 28.515625 68.5 
Q 23.6875 68.5 21.796875 66.546875 
Q 19.921875 64.59375 19.921875 59.515625 
L 19.921875 54.6875 
L 34.71875 54.6875 
L 34.71875 47.703125 
L 19.921875 47.703125 
L 19.921875 0 
L 10.890625 0 
L 10.890625 47.703125 
L 2.296875 47.703125 
L 2.296875 54.6875 
L 10.890625 54.6875 
L 10.890625 58.5 
Q 10.890625 67.625 15.140625 71.796875 
Q 19.390625 75.984375 28.609375 75.984375 
z
" id="DejaVuSans-102"/>
     </defs>
     <g transform="translate(114.33 130.107188)scale(0.1 -0.1)">
      <use xlink:href="#DejaVuSans-113"/>
      <use x="63.476562" xlink:href="#DejaVuSans-117"/>
      <use x="126.855469" xlink:href="#DejaVuSans-101"/>
      <use x="188.378906" xlink:href="#DejaVuSans-117"/>
      <use x="251.757812" xlink:href="#DejaVuSans-101"/>
      <use x="313.28125" xlink:href="#DejaVuSans-100"/>
      <use x="376.757812" xlink:href="#DejaVuSans-32"/>
      <use x="408.544922" xlink:href="#DejaVuSans-102"/>
      <use x="443.75" xlink:href="#DejaVuSans-105"/>
      <use x="471.533203" xlink:href="#DejaVuSans-102"/>
      <use x="506.738281" xlink:href="#DejaVuSans-111"/>
     </g>
    </g>
    <g id="patch_133">
     <path d="M 86.33 144.785313 
L 106.33 144.785313 
L 106.33 137.785313 
L 86.33 137.785313 
z
" style="fill:#e377c2;"/>
    </g>
    <g id="text_34">
     <!-- ticket spin -->
     <g transform="translate(114.33 144.785313)scale(0.1 -0.1)">
      <use xlink:href="#DejaVuSans-116"/>
      <use x="39.208984" xlink:href="#DejaVuSans-105"/>
      <use x="66.992188" xlink:href="#DejaVuSans-99"/>
      <use x="121.972656" xlink:href="#DejaVuSans-107"/>
      <use x="179.835938" xlink:href="#DejaVuSans-101"/>
      <use x="241.359375" xlink:href="#DejaVuSans-116"/>
      <use x="280.568359" xlink:href="#DejaVuSans-32"/>
      <use x="312.355469" xlink:href="#DejaVuSans-115"/>
      <use x="364.455078" xlink:href="#DejaVuSans-112"/>
      <use x="427.931641" xlink:href="#DejaVuSans-105"/>
      <use x="455.714844" xlink:href="#DejaVuSans-110"/>
     </g>
    </g>
   </g>
  </g>
 </g>
 <defs>
  <clipPath id="p2b8a11e210">
   <rect height="363.88" width="559.87" x="77.33" y="25.44"/>
  </clipPath>
 </defs>
</svg>
