<?xml version="1.0" encoding="utf-8" standalone="no"?>
<!DOCTYPE svg PUBLIC "-//W3C//DTD SVG 1.1//EN"
  "http://www.w3.org/Graphics/SVG/1.1/DTD/svg11.dtd">
<!-- Created with matplotlib (https://matplotlib.org/) -->
<svg height="432pt" version="1.1" viewBox="0 0 648 432" width="648pt" xmlns="http://www.w3.org/2000/svg" xmlns:xlink="http://www.w3.org/1999/xlink">
 <defs>
  <style type="text/css">
*{stroke-linecap:butt;stroke-linejoin:round;}
  </style>
 </defs>
 <g id="figure_1">
  <g id="patch_1">
   <path d="M 0 432 
L 648 432 
L 648 0 
L 0 0 
z
" style="fill:#ffffff;"/>
  </g>
  <g id="axes_1">
   <g id="patch_2">
    <path d="M 47.45 383.848 
L 597.4 383.848 
L 597.4 26.88 
L 47.45 26.88 
z
" style="fill:#ffffff;"/>
   </g>
   <g id="patch_3">
    <path clip-path="url(#p393b8ef0be)" d="M 192.713543 488.520435 
L 396.015822 488.520435 
L 396.015822 26.88 
L 192.713543 26.88 
z
" style="fill:#f5f5f5;stroke:#f5f5f5;stroke-linejoin:miter;"/>
   </g>
   <g id="matplotlib.axis_1">
    <g id="xtick_1">
     <g id="line2d_1">
      <defs>
       <path d="M 0 0 
L 0 3.5 
" id="mfc518bbc66" style="stroke:#000000;stroke-width:0.8;"/>
      </defs>
      <g>
       <use style="stroke:#000000;stroke-width:0.8;" x="131.063473" xlink:href="#mfc518bbc66" y="383.848"/>
      </g>
     </g>
     <g id="text_1">
      <!-- $\mathdefault{10^{5}}$ -->
      <defs>
       <path d="M 12.40625 8.296875 
L 28.515625 8.296875 
L 28.515625 63.921875 
L 10.984375 60.40625 
L 10.984375 69.390625 
L 28.421875 72.90625 
L 38.28125 72.90625 
L 38.28125 8.296875 
L 54.390625 8.296875 
L 54.390625 0 
L 12.40625 0 
z
" id="DejaVuSans-49"/>
       <path d="M 31.78125 66.40625 
Q 24.171875 66.40625 20.328125 58.90625 
Q 16.5 51.421875 16.5 36.375 
Q 16.5 21.390625 20.328125 13.890625 
Q 24.171875 6.390625 31.78125 6.390625 
Q 39.453125 6.390625 43.28125 13.890625 
Q 47.125 21.390625 47.125 36.375 
Q 47.125 51.421875 43.28125 58.90625 
Q 39.453125 66.40625 31.78125 66.40625 
z
M 31.78125 74.21875 
Q 44.046875 74.21875 50.515625 64.515625 
Q 56.984375 54.828125 56.984375 36.375 
Q 56.984375 17.96875 50.515625 8.265625 
Q 44.046875 -1.421875 31.78125 -1.421875 
Q 19.53125 -1.421875 13.0625 8.265625 
Q 6.59375 17.96875 6.59375 36.375 
Q 6.59375 54.828125 13.0625 64.515625 
Q 19.53125 74.21875 31.78125 74.21875 
z
" id="DejaVuSans-48"/>
       <path d="M 10.796875 72.90625 
L 49.515625 72.90625 
L 49.515625 64.59375 
L 19.828125 64.59375 
L 19.828125 46.734375 
Q 21.96875 47.46875 24.109375 47.828125 
Q 26.265625 48.1875 28.421875 48.1875 
Q 40.625 48.1875 47.75 41.5 
Q 54.890625 34.8125 54.890625 23.390625 
Q 54.890625 11.625 47.5625 5.09375 
Q 40.234375 -1.421875 26.90625 -1.421875 
Q 22.3125 -1.421875 17.546875 -0.640625 
Q 12.796875 0.140625 7.71875 1.703125 
L 7.71875 11.625 
Q 12.109375 9.234375 16.796875 8.0625 
Q 21.484375 6.890625 26.703125 6.890625 
Q 35.15625 6.890625 40.078125 11.328125 
Q 45.015625 15.765625 45.015625 23.390625 
Q 45.015625 31 40.078125 35.4375 
Q 35.15625 39.890625 26.703125 39.890625 
Q 22.75 39.890625 18.8125 39.015625 
Q 14.890625 38.140625 10.796875 36.28125 
z
" id="DejaVuSans-53"/>
      </defs>
      <g transform="translate(122.263473 398.446438)scale(0.1 -0.1)">
       <use transform="translate(0 0.684375)" xlink:href="#DejaVuSans-49"/>
       <use transform="translate(63.623047 0.684375)" xlink:href="#DejaVuSans-48"/>
       <use transform="translate(128.203125 38.965625)scale(0.7)" xlink:href="#DejaVuSans-53"/>
      </g>
     </g>
    </g>
    <g id="xtick_2">
     <g id="line2d_2">
      <g>
       <use style="stroke:#000000;stroke-width:0.8;" x="278.361417" xlink:href="#mfc518bbc66" y="383.848"/>
      </g>
     </g>
     <g id="text_2">
      <!-- $\mathdefault{10^{6}}$ -->
      <defs>
       <path d="M 33.015625 40.375 
Q 26.375 40.375 22.484375 35.828125 
Q 18.609375 31.296875 18.609375 23.390625 
Q 18.609375 15.53125 22.484375 10.953125 
Q 26.375 6.390625 33.015625 6.390625 
Q 39.65625 6.390625 43.53125 10.953125 
Q 47.40625 15.53125 47.40625 23.390625 
Q 47.40625 31.296875 43.53125 35.828125 
Q 39.65625 40.375 33.015625 40.375 
z
M 52.59375 71.296875 
L 52.59375 62.3125 
Q 48.875 64.0625 45.09375 64.984375 
Q 41.3125 65.921875 37.59375 65.921875 
Q 27.828125 65.921875 22.671875 59.328125 
Q 17.53125 52.734375 16.796875 39.40625 
Q 19.671875 43.65625 24.015625 45.921875 
Q 28.375 48.1875 33.59375 48.1875 
Q 44.578125 48.1875 50.953125 41.515625 
Q 57.328125 34.859375 57.328125 23.390625 
Q 57.328125 12.15625 50.6875 5.359375 
Q 44.046875 -1.421875 33.015625 -1.421875 
Q 20.359375 -1.421875 13.671875 8.265625 
Q 6.984375 17.96875 6.984375 36.375 
Q 6.984375 53.65625 15.1875 63.9375 
Q 23.390625 74.21875 37.203125 74.21875 
Q 40.921875 74.21875 44.703125 73.484375 
Q 48.484375 72.75 52.59375 71.296875 
z
" id="DejaVuSans-54"/>
      </defs>
      <g transform="translate(269.561417 398.446438)scale(0.1 -0.1)">
       <use transform="translate(0 0.765625)" xlink:href="#DejaVuSans-49"/>
       <use transform="translate(63.623047 0.765625)" xlink:href="#DejaVuSans-48"/>
       <use transform="translate(128.203125 39.046875)scale(0.7)" xlink:href="#DejaVuSans-54"/>
      </g>
     </g>
    </g>
    <g id="xtick_3">
     <g id="line2d_3">
      <g>
       <use style="stroke:#000000;stroke-width:0.8;" x="425.659362" xlink:href="#mfc518bbc66" y="383.848"/>
      </g>
     </g>
     <g id="text_3">
      <!-- $\mathdefault{10^{7}}$ -->
      <defs>
       <path d="M 8.203125 72.90625 
L 55.078125 72.90625 
L 55.078125 68.703125 
L 28.609375 0 
L 18.3125 0 
L 43.21875 64.59375 
L 8.203125 64.59375 
z
" id="DejaVuSans-55"/>
      </defs>
      <g transform="translate(416.859362 398.446438)scale(0.1 -0.1)">
       <use transform="translate(0 0.684375)" xlink:href="#DejaVuSans-49"/>
       <use transform="translate(63.623047 0.684375)" xlink:href="#DejaVuSans-48"/>
       <use transform="translate(128.203125 38.965625)scale(0.7)" xlink:href="#DejaVuSans-55"/>
      </g>
     </g>
    </g>
    <g id="xtick_4">
     <g id="line2d_4">
      <g>
       <use style="stroke:#000000;stroke-width:0.8;" x="572.957306" xlink:href="#mfc518bbc66" y="383.848"/>
      </g>
     </g>
     <g id="text_4">
      <!-- $\mathdefault{10^{8}}$ -->
      <defs>
       <path d="M 31.78125 34.625 
Q 24.75 34.625 20.71875 30.859375 
Q 16.703125 27.09375 16.703125 20.515625 
Q 16.703125 13.921875 20.71875 10.15625 
Q 24.75 6.390625 31.78125 6.390625 
Q 38.8125 6.390625 42.859375 10.171875 
Q 46.921875 13.96875 46.921875 20.515625 
Q 46.921875 27.09375 42.890625 30.859375 
Q 38.875 34.625 31.78125 34.625 
z
M 21.921875 38.8125 
Q 15.578125 40.375 12.03125 44.71875 
Q 8.5 49.078125 8.5 55.328125 
Q 8.5 64.0625 14.71875 69.140625 
Q 20.953125 74.21875 31.78125 74.21875 
Q 42.671875 74.21875 48.875 69.140625 
Q 55.078125 64.0625 55.078125 55.328125 
Q 55.078125 49.078125 51.53125 44.71875 
Q 48 40.375 41.703125 38.8125 
Q 48.828125 37.15625 52.796875 32.3125 
Q 56.78125 27.484375 56.78125 20.515625 
Q 56.78125 9.90625 50.3125 4.234375 
Q 43.84375 -1.421875 31.78125 -1.421875 
Q 19.734375 -1.421875 13.25 4.234375 
Q 6.78125 9.90625 6.78125 20.515625 
Q 6.78125 27.484375 10.78125 32.3125 
Q 14.796875 37.15625 21.921875 38.8125 
z
M 18.3125 54.390625 
Q 18.3125 48.734375 21.84375 45.5625 
Q 25.390625 42.390625 31.78125 42.390625 
Q 38.140625 42.390625 41.71875 45.5625 
Q 45.3125 48.734375 45.3125 54.390625 
Q 45.3125 60.0625 41.71875 63.234375 
Q 38.140625 66.40625 31.78125 66.40625 
Q 25.390625 66.40625 21.84375 63.234375 
Q 18.3125 60.0625 18.3125 54.390625 
z
" id="DejaVuSans-56"/>
      </defs>
      <g transform="translate(564.157306 398.446438)scale(0.1 -0.1)">
       <use transform="translate(0 0.765625)" xlink:href="#DejaVuSans-49"/>
       <use transform="translate(63.623047 0.765625)" xlink:href="#DejaVuSans-48"/>
       <use transform="translate(128.203125 39.046875)scale(0.7)" xlink:href="#DejaVuSans-56"/>
      </g>
     </g>
    </g>
    <g id="xtick_5">
     <g id="line2d_5">
      <defs>
       <path d="M 0 0 
L 0 2 
" id="md8d6988bf2" style="stroke:#000000;stroke-width:0.6;"/>
      </defs>
      <g>
       <use style="stroke:#000000;stroke-width:0.6;" x="54.044508" xlink:href="#md8d6988bf2" y="383.848"/>
      </g>
     </g>
    </g>
    <g id="xtick_6">
     <g id="line2d_6">
      <g>
       <use style="stroke:#000000;stroke-width:0.6;" x="72.447727" xlink:href="#md8d6988bf2" y="383.848"/>
      </g>
     </g>
    </g>
    <g id="xtick_7">
     <g id="line2d_7">
      <g>
       <use style="stroke:#000000;stroke-width:0.6;" x="86.722373" xlink:href="#md8d6988bf2" y="383.848"/>
      </g>
     </g>
    </g>
    <g id="xtick_8">
     <g id="line2d_8">
      <g>
       <use style="stroke:#000000;stroke-width:0.6;" x="98.385608" xlink:href="#md8d6988bf2" y="383.848"/>
      </g>
     </g>
    </g>
    <g id="xtick_9">
     <g id="line2d_9">
      <g>
       <use style="stroke:#000000;stroke-width:0.6;" x="108.246732" xlink:href="#md8d6988bf2" y="383.848"/>
      </g>
     </g>
    </g>
    <g id="xtick_10">
     <g id="line2d_10">
      <g>
       <use style="stroke:#000000;stroke-width:0.6;" x="116.788827" xlink:href="#md8d6988bf2" y="383.848"/>
      </g>
     </g>
    </g>
    <g id="xtick_11">
     <g id="line2d_11">
      <g>
       <use style="stroke:#000000;stroke-width:0.6;" x="124.323488" xlink:href="#md8d6988bf2" y="383.848"/>
      </g>
     </g>
    </g>
    <g id="xtick_12">
     <g id="line2d_12">
      <g>
       <use style="stroke:#000000;stroke-width:0.6;" x="175.404572" xlink:href="#md8d6988bf2" y="383.848"/>
      </g>
     </g>
    </g>
    <g id="xtick_13">
     <g id="line2d_13">
      <g>
       <use style="stroke:#000000;stroke-width:0.6;" x="201.342453" xlink:href="#md8d6988bf2" y="383.848"/>
      </g>
     </g>
    </g>
    <g id="xtick_14">
     <g id="line2d_14">
      <g>
       <use style="stroke:#000000;stroke-width:0.6;" x="219.745672" xlink:href="#md8d6988bf2" y="383.848"/>
      </g>
     </g>
    </g>
    <g id="xtick_15">
     <g id="line2d_15">
      <g>
       <use style="stroke:#000000;stroke-width:0.6;" x="234.020318" xlink:href="#md8d6988bf2" y="383.848"/>
      </g>
     </g>
    </g>
    <g id="xtick_16">
     <g id="line2d_16">
      <g>
       <use style="stroke:#000000;stroke-width:0.6;" x="245.683552" xlink:href="#md8d6988bf2" y="383.848"/>
      </g>
     </g>
    </g>
    <g id="xtick_17">
     <g id="line2d_17">
      <g>
       <use style="stroke:#000000;stroke-width:0.6;" x="255.544677" xlink:href="#md8d6988bf2" y="383.848"/>
      </g>
     </g>
    </g>
    <g id="xtick_18">
     <g id="line2d_18">
      <g>
       <use style="stroke:#000000;stroke-width:0.6;" x="264.086771" xlink:href="#md8d6988bf2" y="383.848"/>
      </g>
     </g>
    </g>
    <g id="xtick_19">
     <g id="line2d_19">
      <g>
       <use style="stroke:#000000;stroke-width:0.6;" x="271.621433" xlink:href="#md8d6988bf2" y="383.848"/>
      </g>
     </g>
    </g>
    <g id="xtick_20">
     <g id="line2d_20">
      <g>
       <use style="stroke:#000000;stroke-width:0.6;" x="322.702517" xlink:href="#md8d6988bf2" y="383.848"/>
      </g>
     </g>
    </g>
    <g id="xtick_21">
     <g id="line2d_21">
      <g>
       <use style="stroke:#000000;stroke-width:0.6;" x="348.640397" xlink:href="#md8d6988bf2" y="383.848"/>
      </g>
     </g>
    </g>
    <g id="xtick_22">
     <g id="line2d_22">
      <g>
       <use style="stroke:#000000;stroke-width:0.6;" x="367.043616" xlink:href="#md8d6988bf2" y="383.848"/>
      </g>
     </g>
    </g>
    <g id="xtick_23">
     <g id="line2d_23">
      <g>
       <use style="stroke:#000000;stroke-width:0.6;" x="381.318262" xlink:href="#md8d6988bf2" y="383.848"/>
      </g>
     </g>
    </g>
    <g id="xtick_24">
     <g id="line2d_24">
      <g>
       <use style="stroke:#000000;stroke-width:0.6;" x="392.981497" xlink:href="#md8d6988bf2" y="383.848"/>
      </g>
     </g>
    </g>
    <g id="xtick_25">
     <g id="line2d_25">
      <g>
       <use style="stroke:#000000;stroke-width:0.6;" x="402.842621" xlink:href="#md8d6988bf2" y="383.848"/>
      </g>
     </g>
    </g>
    <g id="xtick_26">
     <g id="line2d_26">
      <g>
       <use style="stroke:#000000;stroke-width:0.6;" x="411.384716" xlink:href="#md8d6988bf2" y="383.848"/>
      </g>
     </g>
    </g>
    <g id="xtick_27">
     <g id="line2d_27">
      <g>
       <use style="stroke:#000000;stroke-width:0.6;" x="418.919377" xlink:href="#md8d6988bf2" y="383.848"/>
      </g>
     </g>
    </g>
    <g id="xtick_28">
     <g id="line2d_28">
      <g>
       <use style="stroke:#000000;stroke-width:0.6;" x="470.000461" xlink:href="#md8d6988bf2" y="383.848"/>
      </g>
     </g>
    </g>
    <g id="xtick_29">
     <g id="line2d_29">
      <g>
       <use style="stroke:#000000;stroke-width:0.6;" x="495.938342" xlink:href="#md8d6988bf2" y="383.848"/>
      </g>
     </g>
    </g>
    <g id="xtick_30">
     <g id="line2d_30">
      <g>
       <use style="stroke:#000000;stroke-width:0.6;" x="514.341561" xlink:href="#md8d6988bf2" y="383.848"/>
      </g>
     </g>
    </g>
    <g id="xtick_31">
     <g id="line2d_31">
      <g>
       <use style="stroke:#000000;stroke-width:0.6;" x="528.616207" xlink:href="#md8d6988bf2" y="383.848"/>
      </g>
     </g>
    </g>
    <g id="xtick_32">
     <g id="line2d_32">
      <g>
       <use style="stroke:#000000;stroke-width:0.6;" x="540.279441" xlink:href="#md8d6988bf2" y="383.848"/>
      </g>
     </g>
    </g>
    <g id="xtick_33">
     <g id="line2d_33">
      <g>
       <use style="stroke:#000000;stroke-width:0.6;" x="550.140566" xlink:href="#md8d6988bf2" y="383.848"/>
      </g>
     </g>
    </g>
    <g id="xtick_34">
     <g id="line2d_34">
      <g>
       <use style="stroke:#000000;stroke-width:0.6;" x="558.68266" xlink:href="#md8d6988bf2" y="383.848"/>
      </g>
     </g>
    </g>
    <g id="xtick_35">
     <g id="line2d_35">
      <g>
       <use style="stroke:#000000;stroke-width:0.6;" x="566.217322" xlink:href="#md8d6988bf2" y="383.848"/>
      </g>
     </g>
    </g>
    <g id="text_5">
     <!-- Region Size (bytes) -->
     <defs>
      <path d="M 44.390625 34.1875 
Q 47.5625 33.109375 50.5625 29.59375 
Q 53.5625 26.078125 56.59375 19.921875 
L 66.609375 0 
L 56 0 
L 46.6875 18.703125 
Q 43.0625 26.03125 39.671875 28.421875 
Q 36.28125 30.8125 30.421875 30.8125 
L 19.671875 30.8125 
L 19.671875 0 
L 9.8125 0 
L 9.8125 72.90625 
L 32.078125 72.90625 
Q 44.578125 72.90625 50.734375 67.671875 
Q 56.890625 62.453125 56.890625 51.90625 
Q 56.890625 45.015625 53.6875 40.46875 
Q 50.484375 35.9375 44.390625 34.1875 
z
M 19.671875 64.796875 
L 19.671875 38.921875 
L 32.078125 38.921875 
Q 39.203125 38.921875 42.84375 42.21875 
Q 46.484375 45.515625 46.484375 51.90625 
Q 46.484375 58.296875 42.84375 61.546875 
Q 39.203125 64.796875 32.078125 64.796875 
z
" id="DejaVuSans-82"/>
      <path d="M 56.203125 29.59375 
L 56.203125 25.203125 
L 14.890625 25.203125 
Q 15.484375 15.921875 20.484375 11.0625 
Q 25.484375 6.203125 34.421875 6.203125 
Q 39.59375 6.203125 44.453125 7.46875 
Q 49.3125 8.734375 54.109375 11.28125 
L 54.109375 2.78125 
Q 49.265625 0.734375 44.1875 -0.34375 
Q 39.109375 -1.421875 33.890625 -1.421875 
Q 20.796875 -1.421875 13.15625 6.1875 
Q 5.515625 13.8125 5.515625 26.8125 
Q 5.515625 40.234375 12.765625 48.109375 
Q 20.015625 56 32.328125 56 
Q 43.359375 56 49.78125 48.890625 
Q 56.203125 41.796875 56.203125 29.59375 
z
M 47.21875 32.234375 
Q 47.125 39.59375 43.09375 43.984375 
Q 39.0625 48.390625 32.421875 48.390625 
Q 24.90625 48.390625 20.390625 44.140625 
Q 15.875 39.890625 15.1875 32.171875 
z
" id="DejaVuSans-101"/>
      <path d="M 45.40625 27.984375 
Q 45.40625 37.75 41.375 43.109375 
Q 37.359375 48.484375 30.078125 48.484375 
Q 22.859375 48.484375 18.828125 43.109375 
Q 14.796875 37.75 14.796875 27.984375 
Q 14.796875 18.265625 18.828125 12.890625 
Q 22.859375 7.515625 30.078125 7.515625 
Q 37.359375 7.515625 41.375 12.890625 
Q 45.40625 18.265625 45.40625 27.984375 
z
M 54.390625 6.78125 
Q 54.390625 -7.171875 48.1875 -13.984375 
Q 42 -20.796875 29.203125 -20.796875 
Q 24.46875 -20.796875 20.265625 -20.09375 
Q 16.0625 -19.390625 12.109375 -17.921875 
L 12.109375 -9.1875 
Q 16.0625 -11.328125 19.921875 -12.34375 
Q 23.78125 -13.375 27.78125 -13.375 
Q 36.625 -13.375 41.015625 -8.765625 
Q 45.40625 -4.15625 45.40625 5.171875 
L 45.40625 9.625 
Q 42.625 4.78125 38.28125 2.390625 
Q 33.9375 0 27.875 0 
Q 17.828125 0 11.671875 7.65625 
Q 5.515625 15.328125 5.515625 27.984375 
Q 5.515625 40.671875 11.671875 48.328125 
Q 17.828125 56 27.875 56 
Q 33.9375 56 38.28125 53.609375 
Q 42.625 51.21875 45.40625 46.390625 
L 45.40625 54.6875 
L 54.390625 54.6875 
z
" id="DejaVuSans-103"/>
      <path d="M 9.421875 54.6875 
L 18.40625 54.6875 
L 18.40625 0 
L 9.421875 0 
z
M 9.421875 75.984375 
L 18.40625 75.984375 
L 18.40625 64.59375 
L 9.421875 64.59375 
z
" id="DejaVuSans-105"/>
      <path d="M 30.609375 48.390625 
Q 23.390625 48.390625 19.1875 42.75 
Q 14.984375 37.109375 14.984375 27.296875 
Q 14.984375 17.484375 19.15625 11.84375 
Q 23.34375 6.203125 30.609375 6.203125 
Q 37.796875 6.203125 41.984375 11.859375 
Q 46.1875 17.53125 46.1875 27.296875 
Q 46.1875 37.015625 41.984375 42.703125 
Q 37.796875 48.390625 30.609375 48.390625 
z
M 30.609375 56 
Q 42.328125 56 49.015625 48.375 
Q 55.71875 40.765625 55.71875 27.296875 
Q 55.71875 13.875 49.015625 6.21875 
Q 42.328125 -1.421875 30.609375 -1.421875 
Q 18.84375 -1.421875 12.171875 6.21875 
Q 5.515625 13.875 5.515625 27.296875 
Q 5.515625 40.765625 12.171875 48.375 
Q 18.84375 56 30.609375 56 
z
" id="DejaVuSans-111"/>
      <path d="M 54.890625 33.015625 
L 54.890625 0 
L 45.90625 0 
L 45.90625 32.71875 
Q 45.90625 40.484375 42.875 44.328125 
Q 39.84375 48.1875 33.796875 48.1875 
Q 26.515625 48.1875 22.3125 43.546875 
Q 18.109375 38.921875 18.109375 30.90625 
L 18.109375 0 
L 9.078125 0 
L 9.078125 54.6875 
L 18.109375 54.6875 
L 18.109375 46.1875 
Q 21.34375 51.125 25.703125 53.5625 
Q 30.078125 56 35.796875 56 
Q 45.21875 56 50.046875 50.171875 
Q 54.890625 44.34375 54.890625 33.015625 
z
" id="DejaVuSans-110"/>
      <path id="DejaVuSans-32"/>
      <path d="M 53.515625 70.515625 
L 53.515625 60.890625 
Q 47.90625 63.578125 42.921875 64.890625 
Q 37.9375 66.21875 33.296875 66.21875 
Q 25.25 66.21875 20.875 63.09375 
Q 16.5 59.96875 16.5 54.203125 
Q 16.5 49.359375 19.40625 46.890625 
Q 22.3125 44.4375 30.421875 42.921875 
L 36.375 41.703125 
Q 47.40625 39.59375 52.65625 34.296875 
Q 57.90625 29 57.90625 20.125 
Q 57.90625 9.515625 50.796875 4.046875 
Q 43.703125 -1.421875 29.984375 -1.421875 
Q 24.8125 -1.421875 18.96875 -0.25 
Q 13.140625 0.921875 6.890625 3.21875 
L 6.890625 13.375 
Q 12.890625 10.015625 18.65625 8.296875 
Q 24.421875 6.59375 29.984375 6.59375 
Q 38.421875 6.59375 43.015625 9.90625 
Q 47.609375 13.234375 47.609375 19.390625 
Q 47.609375 24.75 44.3125 27.78125 
Q 41.015625 30.8125 33.5 32.328125 
L 27.484375 33.5 
Q 16.453125 35.6875 11.515625 40.375 
Q 6.59375 45.0625 6.59375 53.421875 
Q 6.59375 63.09375 13.40625 68.65625 
Q 20.21875 74.21875 32.171875 74.21875 
Q 37.3125 74.21875 42.625 73.28125 
Q 47.953125 72.359375 53.515625 70.515625 
z
" id="DejaVuSans-83"/>
      <path d="M 5.515625 54.6875 
L 48.1875 54.6875 
L 48.1875 46.484375 
L 14.40625 7.171875 
L 48.1875 7.171875 
L 48.1875 0 
L 4.296875 0 
L 4.296875 8.203125 
L 38.09375 47.515625 
L 5.515625 47.515625 
z
" id="DejaVuSans-122"/>
      <path d="M 31 75.875 
Q 24.46875 64.65625 21.28125 53.65625 
Q 18.109375 42.671875 18.109375 31.390625 
Q 18.109375 20.125 21.3125 9.0625 
Q 24.515625 -2 31 -13.1875 
L 23.1875 -13.1875 
Q 15.875 -1.703125 12.234375 9.375 
Q 8.59375 20.453125 8.59375 31.390625 
Q 8.59375 42.28125 12.203125 53.3125 
Q 15.828125 64.359375 23.1875 75.875 
z
" id="DejaVuSans-40"/>
      <path d="M 48.6875 27.296875 
Q 48.6875 37.203125 44.609375 42.84375 
Q 40.53125 48.484375 33.40625 48.484375 
Q 26.265625 48.484375 22.1875 42.84375 
Q 18.109375 37.203125 18.109375 27.296875 
Q 18.109375 17.390625 22.1875 11.75 
Q 26.265625 6.109375 33.40625 6.109375 
Q 40.53125 6.109375 44.609375 11.75 
Q 48.6875 17.390625 48.6875 27.296875 
z
M 18.109375 46.390625 
Q 20.953125 51.265625 25.265625 53.625 
Q 29.59375 56 35.59375 56 
Q 45.5625 56 51.78125 48.09375 
Q 58.015625 40.1875 58.015625 27.296875 
Q 58.015625 14.40625 51.78125 6.484375 
Q 45.5625 -1.421875 35.59375 -1.421875 
Q 29.59375 -1.421875 25.265625 0.953125 
Q 20.953125 3.328125 18.109375 8.203125 
L 18.109375 0 
L 9.078125 0 
L 9.078125 75.984375 
L 18.109375 75.984375 
z
" id="DejaVuSans-98"/>
      <path d="M 32.171875 -5.078125 
Q 28.375 -14.84375 24.75 -17.8125 
Q 21.140625 -20.796875 15.09375 -20.796875 
L 7.90625 -20.796875 
L 7.90625 -13.28125 
L 13.1875 -13.28125 
Q 16.890625 -13.28125 18.9375 -11.515625 
Q 21 -9.765625 23.484375 -3.21875 
L 25.09375 0.875 
L 2.984375 54.6875 
L 12.5 54.6875 
L 29.59375 11.921875 
L 46.6875 54.6875 
L 56.203125 54.6875 
z
" id="DejaVuSans-121"/>
      <path d="M 18.3125 70.21875 
L 18.3125 54.6875 
L 36.8125 54.6875 
L 36.8125 47.703125 
L 18.3125 47.703125 
L 18.3125 18.015625 
Q 18.3125 11.328125 20.140625 9.421875 
Q 21.96875 7.515625 27.59375 7.515625 
L 36.8125 7.515625 
L 36.8125 0 
L 27.59375 0 
Q 17.1875 0 13.234375 3.875 
Q 9.28125 7.765625 9.28125 18.015625 
L 9.28125 47.703125 
L 2.6875 47.703125 
L 2.6875 54.6875 
L 9.28125 54.6875 
L 9.28125 70.21875 
z
" id="DejaVuSans-116"/>
      <path d="M 44.28125 53.078125 
L 44.28125 44.578125 
Q 40.484375 46.53125 36.375 47.5 
Q 32.28125 48.484375 27.875 48.484375 
Q 21.1875 48.484375 17.84375 46.4375 
Q 14.5 44.390625 14.5 40.28125 
Q 14.5 37.15625 16.890625 35.375 
Q 19.28125 33.59375 26.515625 31.984375 
L 29.59375 31.296875 
Q 39.15625 29.25 43.1875 25.515625 
Q 47.21875 21.78125 47.21875 15.09375 
Q 47.21875 7.46875 41.1875 3.015625 
Q 35.15625 -1.421875 24.609375 -1.421875 
Q 20.21875 -1.421875 15.453125 -0.5625 
Q 10.6875 0.296875 5.421875 2 
L 5.421875 11.28125 
Q 10.40625 8.6875 15.234375 7.390625 
Q 20.0625 6.109375 24.8125 6.109375 
Q 31.15625 6.109375 34.5625 8.28125 
Q 37.984375 10.453125 37.984375 14.40625 
Q 37.984375 18.0625 35.515625 20.015625 
Q 33.0625 21.96875 24.703125 23.78125 
L 21.578125 24.515625 
Q 13.234375 26.265625 9.515625 29.90625 
Q 5.8125 33.546875 5.8125 39.890625 
Q 5.8125 47.609375 11.28125 51.796875 
Q 16.75 56 26.8125 56 
Q 31.78125 56 36.171875 55.265625 
Q 40.578125 54.546875 44.28125 53.078125 
z
" id="DejaVuSans-115"/>
      <path d="M 8.015625 75.875 
L 15.828125 75.875 
Q 23.140625 64.359375 26.78125 53.3125 
Q 30.421875 42.28125 30.421875 31.390625 
Q 30.421875 20.453125 26.78125 9.375 
Q 23.140625 -1.703125 15.828125 -13.1875 
L 8.015625 -13.1875 
Q 14.5 -2 17.703125 9.0625 
Q 20.90625 20.125 20.90625 31.390625 
Q 20.90625 42.671875 17.703125 53.65625 
Q 14.5 64.65625 8.015625 75.875 
z
" id="DejaVuSans-41"/>
     </defs>
     <g transform="translate(264.541875 413.64425)scale(0.12 -0.12)">
      <use xlink:href="#DejaVuSans-82"/>
      <use x="64.982422" xlink:href="#DejaVuSans-101"/>
      <use x="126.505859" xlink:href="#DejaVuSans-103"/>
      <use x="189.982422" xlink:href="#DejaVuSans-105"/>
      <use x="217.765625" xlink:href="#DejaVuSans-111"/>
      <use x="278.947266" xlink:href="#DejaVuSans-110"/>
      <use x="342.326172" xlink:href="#DejaVuSans-32"/>
      <use x="374.113281" xlink:href="#DejaVuSans-83"/>
      <use x="437.589844" xlink:href="#DejaVuSans-105"/>
      <use x="465.373047" xlink:href="#DejaVuSans-122"/>
      <use x="517.863281" xlink:href="#DejaVuSans-101"/>
      <use x="579.386719" xlink:href="#DejaVuSans-32"/>
      <use x="611.173828" xlink:href="#DejaVuSans-40"/>
      <use x="650.1875" xlink:href="#DejaVuSans-98"/>
      <use x="713.664062" xlink:href="#DejaVuSans-121"/>
      <use x="772.84375" xlink:href="#DejaVuSans-116"/>
      <use x="812.052734" xlink:href="#DejaVuSans-101"/>
      <use x="873.576172" xlink:href="#DejaVuSans-115"/>
      <use x="925.675781" xlink:href="#DejaVuSans-41"/>
     </g>
    </g>
   </g>
   <g id="matplotlib.axis_2">
    <g id="ytick_1">
     <g id="line2d_36">
      <defs>
       <path d="M 0 0 
L -3.5 0 
" id="m3a24eacd0e" style="stroke:#000000;stroke-width:0.8;"/>
      </defs>
      <g>
       <use style="stroke:#000000;stroke-width:0.8;" x="47.45" xlink:href="#m3a24eacd0e" y="352.169022"/>
      </g>
     </g>
     <g id="text_6">
      <!-- 15 -->
      <g transform="translate(27.725 355.96824)scale(0.1 -0.1)">
       <use xlink:href="#DejaVuSans-49"/>
       <use x="63.623047" xlink:href="#DejaVuSans-53"/>
      </g>
     </g>
    </g>
    <g id="ytick_2">
     <g id="line2d_37">
      <g>
       <use style="stroke:#000000;stroke-width:0.8;" x="47.45" xlink:href="#m3a24eacd0e" y="306.718551"/>
      </g>
     </g>
     <g id="text_7">
      <!-- 20 -->
      <defs>
       <path d="M 19.1875 8.296875 
L 53.609375 8.296875 
L 53.609375 0 
L 7.328125 0 
L 7.328125 8.296875 
Q 12.9375 14.109375 22.625 23.890625 
Q 32.328125 33.6875 34.8125 36.53125 
Q 39.546875 41.84375 41.421875 45.53125 
Q 43.3125 49.21875 43.3125 52.78125 
Q 43.3125 58.59375 39.234375 62.25 
Q 35.15625 65.921875 28.609375 65.921875 
Q 23.96875 65.921875 18.8125 64.3125 
Q 13.671875 62.703125 7.8125 59.421875 
L 7.8125 69.390625 
Q 13.765625 71.78125 18.9375 73 
Q 24.125 74.21875 28.421875 74.21875 
Q 39.75 74.21875 46.484375 68.546875 
Q 53.21875 62.890625 53.21875 53.421875 
Q 53.21875 48.921875 51.53125 44.890625 
Q 49.859375 40.875 45.40625 35.40625 
Q 44.1875 33.984375 37.640625 27.21875 
Q 31.109375 20.453125 19.1875 8.296875 
z
" id="DejaVuSans-50"/>
      </defs>
      <g transform="translate(27.725 310.517769)scale(0.1 -0.1)">
       <use xlink:href="#DejaVuSans-50"/>
       <use x="63.623047" xlink:href="#DejaVuSans-48"/>
      </g>
     </g>
    </g>
    <g id="ytick_3">
     <g id="line2d_38">
      <g>
       <use style="stroke:#000000;stroke-width:0.8;" x="47.45" xlink:href="#m3a24eacd0e" y="261.268079"/>
      </g>
     </g>
     <g id="text_8">
      <!-- 25 -->
      <g transform="translate(27.725 265.067298)scale(0.1 -0.1)">
       <use xlink:href="#DejaVuSans-50"/>
       <use x="63.623047" xlink:href="#DejaVuSans-53"/>
      </g>
     </g>
    </g>
    <g id="ytick_4">
     <g id="line2d_39">
      <g>
       <use style="stroke:#000000;stroke-width:0.8;" x="47.45" xlink:href="#m3a24eacd0e" y="215.817608"/>
      </g>
     </g>
     <g id="text_9">
      <!-- 30 -->
      <defs>
       <path d="M 40.578125 39.3125 
Q 47.65625 37.796875 51.625 33 
Q 55.609375 28.21875 55.609375 21.1875 
Q 55.609375 10.40625 48.1875 4.484375 
Q 40.765625 -1.421875 27.09375 -1.421875 
Q 22.515625 -1.421875 17.65625 -0.515625 
Q 12.796875 0.390625 7.625 2.203125 
L 7.625 11.71875 
Q 11.71875 9.328125 16.59375 8.109375 
Q 21.484375 6.890625 26.8125 6.890625 
Q 36.078125 6.890625 40.9375 10.546875 
Q 45.796875 14.203125 45.796875 21.1875 
Q 45.796875 27.640625 41.28125 31.265625 
Q 36.765625 34.90625 28.71875 34.90625 
L 20.21875 34.90625 
L 20.21875 43.015625 
L 29.109375 43.015625 
Q 36.375 43.015625 40.234375 45.921875 
Q 44.09375 48.828125 44.09375 54.296875 
Q 44.09375 59.90625 40.109375 62.90625 
Q 36.140625 65.921875 28.71875 65.921875 
Q 24.65625 65.921875 20.015625 65.03125 
Q 15.375 64.15625 9.8125 62.3125 
L 9.8125 71.09375 
Q 15.4375 72.65625 20.34375 73.4375 
Q 25.25 74.21875 29.59375 74.21875 
Q 40.828125 74.21875 47.359375 69.109375 
Q 53.90625 64.015625 53.90625 55.328125 
Q 53.90625 49.265625 50.4375 45.09375 
Q 46.96875 40.921875 40.578125 39.3125 
z
" id="DejaVuSans-51"/>
      </defs>
      <g transform="translate(27.725 219.616827)scale(0.1 -0.1)">
       <use xlink:href="#DejaVuSans-51"/>
       <use x="63.623047" xlink:href="#DejaVuSans-48"/>
      </g>
     </g>
    </g>
    <g id="ytick_5">
     <g id="line2d_40">
      <g>
       <use style="stroke:#000000;stroke-width:0.8;" x="47.45" xlink:href="#m3a24eacd0e" y="170.367137"/>
      </g>
     </g>
     <g id="text_10">
      <!-- 35 -->
      <g transform="translate(27.725 174.166356)scale(0.1 -0.1)">
       <use xlink:href="#DejaVuSans-51"/>
       <use x="63.623047" xlink:href="#DejaVuSans-53"/>
      </g>
     </g>
    </g>
    <g id="ytick_6">
     <g id="line2d_41">
      <g>
       <use style="stroke:#000000;stroke-width:0.8;" x="47.45" xlink:href="#m3a24eacd0e" y="124.916666"/>
      </g>
     </g>
     <g id="text_11">
      <!-- 40 -->
      <defs>
       <path d="M 37.796875 64.3125 
L 12.890625 25.390625 
L 37.796875 25.390625 
z
M 35.203125 72.90625 
L 47.609375 72.90625 
L 47.609375 25.390625 
L 58.015625 25.390625 
L 58.015625 17.1875 
L 47.609375 17.1875 
L 47.609375 0 
L 37.796875 0 
L 37.796875 17.1875 
L 4.890625 17.1875 
L 4.890625 26.703125 
z
" id="DejaVuSans-52"/>
      </defs>
      <g transform="translate(27.725 128.715885)scale(0.1 -0.1)">
       <use xlink:href="#DejaVuSans-52"/>
       <use x="63.623047" xlink:href="#DejaVuSans-48"/>
      </g>
     </g>
    </g>
    <g id="ytick_7">
     <g id="line2d_42">
      <g>
       <use style="stroke:#000000;stroke-width:0.8;" x="47.45" xlink:href="#m3a24eacd0e" y="79.466195"/>
      </g>
     </g>
     <g id="text_12">
      <!-- 45 -->
      <g transform="translate(27.725 83.265414)scale(0.1 -0.1)">
       <use xlink:href="#DejaVuSans-52"/>
       <use x="63.623047" xlink:href="#DejaVuSans-53"/>
      </g>
     </g>
    </g>
    <g id="ytick_8">
     <g id="line2d_43">
      <g>
       <use style="stroke:#000000;stroke-width:0.8;" x="47.45" xlink:href="#m3a24eacd0e" y="34.015724"/>
      </g>
     </g>
     <g id="text_13">
      <!-- 50 -->
      <g transform="translate(27.725 37.814943)scale(0.1 -0.1)">
       <use xlink:href="#DejaVuSans-53"/>
       <use x="63.623047" xlink:href="#DejaVuSans-48"/>
      </g>
     </g>
    </g>
    <g id="text_14">
     <!-- Fill Speed (GB/s) -->
     <defs>
      <path d="M 9.8125 72.90625 
L 51.703125 72.90625 
L 51.703125 64.59375 
L 19.671875 64.59375 
L 19.671875 43.109375 
L 48.578125 43.109375 
L 48.578125 34.8125 
L 19.671875 34.8125 
L 19.671875 0 
L 9.8125 0 
z
" id="DejaVuSans-70"/>
      <path d="M 9.421875 75.984375 
L 18.40625 75.984375 
L 18.40625 0 
L 9.421875 0 
z
" id="DejaVuSans-108"/>
      <path d="M 18.109375 8.203125 
L 18.109375 -20.796875 
L 9.078125 -20.796875 
L 9.078125 54.6875 
L 18.109375 54.6875 
L 18.109375 46.390625 
Q 20.953125 51.265625 25.265625 53.625 
Q 29.59375 56 35.59375 56 
Q 45.5625 56 51.78125 48.09375 
Q 58.015625 40.1875 58.015625 27.296875 
Q 58.015625 14.40625 51.78125 6.484375 
Q 45.5625 -1.421875 35.59375 -1.421875 
Q 29.59375 -1.421875 25.265625 0.953125 
Q 20.953125 3.328125 18.109375 8.203125 
z
M 48.6875 27.296875 
Q 48.6875 37.203125 44.609375 42.84375 
Q 40.53125 48.484375 33.40625 48.484375 
Q 26.265625 48.484375 22.1875 42.84375 
Q 18.109375 37.203125 18.109375 27.296875 
Q 18.109375 17.390625 22.1875 11.75 
Q 26.265625 6.109375 33.40625 6.109375 
Q 40.53125 6.109375 44.609375 11.75 
Q 48.6875 17.390625 48.6875 27.296875 
z
" id="DejaVuSans-112"/>
      <path d="M 45.40625 46.390625 
L 45.40625 75.984375 
L 54.390625 75.984375 
L 54.390625 0 
L 45.40625 0 
L 45.40625 8.203125 
Q 42.578125 3.328125 38.25 0.953125 
Q 33.9375 -1.421875 27.875 -1.421875 
Q 17.96875 -1.421875 11.734375 6.484375 
Q 5.515625 14.40625 5.515625 27.296875 
Q 5.515625 40.1875 11.734375 48.09375 
Q 17.96875 56 27.875 56 
Q 33.9375 56 38.25 53.625 
Q 42.578125 51.265625 45.40625 46.390625 
z
M 14.796875 27.296875 
Q 14.796875 17.390625 18.875 11.75 
Q 22.953125 6.109375 30.078125 6.109375 
Q 37.203125 6.109375 41.296875 11.75 
Q 45.40625 17.390625 45.40625 27.296875 
Q 45.40625 37.203125 41.296875 42.84375 
Q 37.203125 48.484375 30.078125 48.484375 
Q 22.953125 48.484375 18.875 42.84375 
Q 14.796875 37.203125 14.796875 27.296875 
z
" id="DejaVuSans-100"/>
      <path d="M 59.515625 10.40625 
L 59.515625 29.984375 
L 43.40625 29.984375 
L 43.40625 38.09375 
L 69.28125 38.09375 
L 69.28125 6.78125 
Q 63.578125 2.734375 56.6875 0.65625 
Q 49.8125 -1.421875 42 -1.421875 
Q 24.90625 -1.421875 15.25 8.5625 
Q 5.609375 18.5625 5.609375 36.375 
Q 5.609375 54.25 15.25 64.234375 
Q 24.90625 74.21875 42 74.21875 
Q 49.125 74.21875 55.546875 72.453125 
Q 61.96875 70.703125 67.390625 67.28125 
L 67.390625 56.78125 
Q 61.921875 61.421875 55.765625 63.765625 
Q 49.609375 66.109375 42.828125 66.109375 
Q 29.4375 66.109375 22.71875 58.640625 
Q 16.015625 51.171875 16.015625 36.375 
Q 16.015625 21.625 22.71875 14.15625 
Q 29.4375 6.6875 42.828125 6.6875 
Q 48.046875 6.6875 52.140625 7.59375 
Q 56.25 8.5 59.515625 10.40625 
z
" id="DejaVuSans-71"/>
      <path d="M 19.671875 34.8125 
L 19.671875 8.109375 
L 35.5 8.109375 
Q 43.453125 8.109375 47.28125 11.40625 
Q 51.125 14.703125 51.125 21.484375 
Q 51.125 28.328125 47.28125 31.5625 
Q 43.453125 34.8125 35.5 34.8125 
z
M 19.671875 64.796875 
L 19.671875 42.828125 
L 34.28125 42.828125 
Q 41.5 42.828125 45.03125 45.53125 
Q 48.578125 48.25 48.578125 53.8125 
Q 48.578125 59.328125 45.03125 62.0625 
Q 41.5 64.796875 34.28125 64.796875 
z
M 9.8125 72.90625 
L 35.015625 72.90625 
Q 46.296875 72.90625 52.390625 68.21875 
Q 58.5 63.53125 58.5 54.890625 
Q 58.5 48.1875 55.375 44.234375 
Q 52.25 40.28125 46.1875 39.3125 
Q 53.46875 37.75 57.5 32.78125 
Q 61.53125 27.828125 61.53125 20.40625 
Q 61.53125 10.640625 54.890625 5.3125 
Q 48.25 0 35.984375 0 
L 9.8125 0 
z
" id="DejaVuSans-66"/>
      <path d="M 25.390625 72.90625 
L 33.6875 72.90625 
L 8.296875 -9.28125 
L 0 -9.28125 
z
" id="DejaVuSans-47"/>
     </defs>
     <g transform="translate(21.229375 254.599625)rotate(-90)scale(0.12 -0.12)">
      <use xlink:href="#DejaVuSans-70"/>
      <use x="50.269531" xlink:href="#DejaVuSans-105"/>
      <use x="78.052734" xlink:href="#DejaVuSans-108"/>
      <use x="105.835938" xlink:href="#DejaVuSans-108"/>
      <use x="133.619141" xlink:href="#DejaVuSans-32"/>
      <use x="165.40625" xlink:href="#DejaVuSans-83"/>
      <use x="228.882812" xlink:href="#DejaVuSans-112"/>
      <use x="292.359375" xlink:href="#DejaVuSans-101"/>
      <use x="353.882812" xlink:href="#DejaVuSans-101"/>
      <use x="415.40625" xlink:href="#DejaVuSans-100"/>
      <use x="478.882812" xlink:href="#DejaVuSans-32"/>
      <use x="510.669922" xlink:href="#DejaVuSans-40"/>
      <use x="549.683594" xlink:href="#DejaVuSans-71"/>
      <use x="627.173828" xlink:href="#DejaVuSans-66"/>
      <use x="695.777344" xlink:href="#DejaVuSans-47"/>
      <use x="729.46875" xlink:href="#DejaVuSans-115"/>
      <use x="781.568359" xlink:href="#DejaVuSans-41"/>
     </g>
    </g>
   </g>
   <g id="line2d_44">
    <defs>
     <path d="M 0 3.5 
C 0.928211 3.5 1.81853 3.131218 2.474874 2.474874 
C 3.131218 1.81853 3.5 0.928211 3.5 0 
C 3.5 -0.928211 3.131218 -1.81853 2.474874 -2.474874 
C 1.81853 -3.131218 0.928211 -3.5 0 -3.5 
C -0.928211 -3.5 -1.81853 -3.131218 -2.474874 -2.474874 
C -3.131218 -1.81853 -3.5 -0.928211 -3.5 0 
C -3.5 0.928211 -3.131218 1.81853 -2.474874 2.474874 
C -1.81853 3.131218 -0.928211 3.5 0 3.5 
z
" id="mb3218c438a" style="stroke:#1f77b4;"/>
    </defs>
    <g clip-path="url(#p393b8ef0be)">
     <use style="fill:#1f77b4;stroke:#1f77b4;" x="72.447727" xlink:href="#mb3218c438a" y="90.374308"/>
     <use style="fill:#1f77b4;stroke:#1f77b4;" x="78.544785" xlink:href="#mb3218c438a" y="87.64728"/>
     <use style="fill:#1f77b4;stroke:#1f77b4;" x="84.641842" xlink:href="#mb3218c438a" y="60.376997"/>
     <use style="fill:#1f77b4;stroke:#1f77b4;" x="90.7389" xlink:href="#mb3218c438a" y="54.013931"/>
     <use style="fill:#1f77b4;stroke:#1f77b4;" x="96.835957" xlink:href="#mb3218c438a" y="54.013931"/>
     <use style="fill:#1f77b4;stroke:#1f77b4;" x="102.932617" xlink:href="#mb3218c438a" y="61.286007"/>
     <use style="fill:#1f77b4;stroke:#1f77b4;" x="109.027869" xlink:href="#mb3218c438a" y="52.195912"/>
     <use style="fill:#1f77b4;stroke:#1f77b4;" x="115.126568" xlink:href="#mb3218c438a" y="50.377894"/>
     <use style="fill:#1f77b4;stroke:#1f77b4;" x="121.221536" xlink:href="#mb3218c438a" y="50.377894"/>
     <use style="fill:#1f77b4;stroke:#1f77b4;" x="127.31995" xlink:href="#mb3218c438a" y="47.650865"/>
     <use style="fill:#1f77b4;stroke:#1f77b4;" x="133.414788" xlink:href="#mb3218c438a" y="45.832846"/>
     <use style="fill:#1f77b4;stroke:#1f77b4;" x="139.512742" xlink:href="#mb3218c438a" y="57.649969"/>
     <use style="fill:#1f77b4;stroke:#1f77b4;" x="145.6098" xlink:href="#mb3218c438a" y="49.468884"/>
     <use style="fill:#1f77b4;stroke:#1f77b4;" x="151.706301" xlink:href="#mb3218c438a" y="57.649969"/>
     <use style="fill:#1f77b4;stroke:#1f77b4;" x="157.80319" xlink:href="#mb3218c438a" y="55.83195"/>
     <use style="fill:#1f77b4;stroke:#1f77b4;" x="163.899788" xlink:href="#mb3218c438a" y="84.011242"/>
     <use style="fill:#1f77b4;stroke:#1f77b4;" x="169.996846" xlink:href="#mb3218c438a" y="94.919355"/>
     <use style="fill:#1f77b4;stroke:#1f77b4;" x="176.094283" xlink:href="#mb3218c438a" y="86.73827"/>
     <use style="fill:#1f77b4;stroke:#1f77b4;" x="182.19111" xlink:href="#mb3218c438a" y="94.010346"/>
     <use style="fill:#1f77b4;stroke:#1f77b4;" x="188.288586" xlink:href="#mb3218c438a" y="111.281525"/>
     <use style="fill:#1f77b4;stroke:#1f77b4;" x="194.385073" xlink:href="#mb3218c438a" y="105.827468"/>
     <use style="fill:#1f77b4;stroke:#1f77b4;" x="200.482044" xlink:href="#mb3218c438a" y="128.552704"/>
     <use style="fill:#1f77b4;stroke:#1f77b4;" x="206.579259" xlink:href="#mb3218c438a" y="153.095958"/>
     <use style="fill:#1f77b4;stroke:#1f77b4;" x="212.676459" xlink:href="#mb3218c438a" y="169.458128"/>
     <use style="fill:#1f77b4;stroke:#1f77b4;" x="218.773646" xlink:href="#mb3218c438a" y="179.457231"/>
     <use style="fill:#1f77b4;stroke:#1f77b4;" x="224.870586" xlink:href="#mb3218c438a" y="185.820297"/>
     <use style="fill:#1f77b4;stroke:#1f77b4;" x="230.967589" xlink:href="#mb3218c438a" y="191.274354"/>
     <use style="fill:#1f77b4;stroke:#1f77b4;" x="237.064403" xlink:href="#mb3218c438a" y="193.092373"/>
     <use style="fill:#1f77b4;stroke:#1f77b4;" x="243.161372" xlink:href="#mb3218c438a" y="193.092373"/>
     <use style="fill:#1f77b4;stroke:#1f77b4;" x="249.258389" xlink:href="#mb3218c438a" y="193.092373"/>
     <use style="fill:#1f77b4;stroke:#1f77b4;" x="255.355409" xlink:href="#mb3218c438a" y="193.092373"/>
     <use style="fill:#1f77b4;stroke:#1f77b4;" x="261.4527" xlink:href="#mb3218c438a" y="193.092373"/>
     <use style="fill:#1f77b4;stroke:#1f77b4;" x="267.549697" xlink:href="#mb3218c438a" y="193.092373"/>
     <use style="fill:#1f77b4;stroke:#1f77b4;" x="273.646617" xlink:href="#mb3218c438a" y="193.092373"/>
     <use style="fill:#1f77b4;stroke:#1f77b4;" x="279.743749" xlink:href="#mb3218c438a" y="193.092373"/>
     <use style="fill:#1f77b4;stroke:#1f77b4;" x="285.840784" xlink:href="#mb3218c438a" y="193.092373"/>
     <use style="fill:#1f77b4;stroke:#1f77b4;" x="291.937697" xlink:href="#mb3218c438a" y="193.092373"/>
     <use style="fill:#1f77b4;stroke:#1f77b4;" x="298.03481" xlink:href="#mb3218c438a" y="192.183363"/>
     <use style="fill:#1f77b4;stroke:#1f77b4;" x="304.131902" xlink:href="#mb3218c438a" y="192.183363"/>
     <use style="fill:#1f77b4;stroke:#1f77b4;" x="310.22896" xlink:href="#mb3218c438a" y="192.183363"/>
     <use style="fill:#1f77b4;stroke:#1f77b4;" x="316.325989" xlink:href="#mb3218c438a" y="192.183363"/>
     <use style="fill:#1f77b4;stroke:#1f77b4;" x="322.422995" xlink:href="#mb3218c438a" y="192.183363"/>
     <use style="fill:#1f77b4;stroke:#1f77b4;" x="328.520052" xlink:href="#mb3218c438a" y="192.183363"/>
     <use style="fill:#1f77b4;stroke:#1f77b4;" x="334.617088" xlink:href="#mb3218c438a" y="192.183363"/>
     <use style="fill:#1f77b4;stroke:#1f77b4;" x="340.714223" xlink:href="#mb3218c438a" y="192.183363"/>
     <use style="fill:#1f77b4;stroke:#1f77b4;" x="346.811201" xlink:href="#mb3218c438a" y="192.183363"/>
     <use style="fill:#1f77b4;stroke:#1f77b4;" x="352.908275" xlink:href="#mb3218c438a" y="192.183363"/>
     <use style="fill:#1f77b4;stroke:#1f77b4;" x="359.005303" xlink:href="#mb3218c438a" y="192.183363"/>
     <use style="fill:#1f77b4;stroke:#1f77b4;" x="365.102374" xlink:href="#mb3218c438a" y="192.183363"/>
     <use style="fill:#1f77b4;stroke:#1f77b4;" x="371.199431" xlink:href="#mb3218c438a" y="195.819401"/>
     <use style="fill:#1f77b4;stroke:#1f77b4;" x="377.296483" xlink:href="#mb3218c438a" y="208.545533"/>
     <use style="fill:#1f77b4;stroke:#1f77b4;" x="383.393526" xlink:href="#mb3218c438a" y="219.453646"/>
     <use style="fill:#1f77b4;stroke:#1f77b4;" x="389.490601" xlink:href="#mb3218c438a" y="234.906806"/>
     <use style="fill:#1f77b4;stroke:#1f77b4;" x="395.587667" xlink:href="#mb3218c438a" y="249.450957"/>
     <use style="fill:#1f77b4;stroke:#1f77b4;" x="401.684717" xlink:href="#mb3218c438a" y="263.995108"/>
     <use style="fill:#1f77b4;stroke:#1f77b4;" x="407.781744" xlink:href="#mb3218c438a" y="280.357277"/>
     <use style="fill:#1f77b4;stroke:#1f77b4;" x="413.878805" xlink:href="#mb3218c438a" y="288.538362"/>
     <use style="fill:#1f77b4;stroke:#1f77b4;" x="419.975873" xlink:href="#mb3218c438a" y="295.810437"/>
     <use style="fill:#1f77b4;stroke:#1f77b4;" x="426.07291" xlink:href="#mb3218c438a" y="302.173503"/>
     <use style="fill:#1f77b4;stroke:#1f77b4;" x="432.169982" xlink:href="#mb3218c438a" y="306.718551"/>
     <use style="fill:#1f77b4;stroke:#1f77b4;" x="438.267026" xlink:href="#mb3218c438a" y="311.263598"/>
     <use style="fill:#1f77b4;stroke:#1f77b4;" x="444.364086" xlink:href="#mb3218c438a" y="314.899635"/>
     <use style="fill:#1f77b4;stroke:#1f77b4;" x="450.461141" xlink:href="#mb3218c438a" y="318.535673"/>
     <use style="fill:#1f77b4;stroke:#1f77b4;" x="456.5582" xlink:href="#mb3218c438a" y="322.171711"/>
     <use style="fill:#1f77b4;stroke:#1f77b4;" x="462.655246" xlink:href="#mb3218c438a" y="324.898739"/>
     <use style="fill:#1f77b4;stroke:#1f77b4;" x="468.752309" xlink:href="#mb3218c438a" y="327.625767"/>
     <use style="fill:#1f77b4;stroke:#1f77b4;" x="474.849368" xlink:href="#mb3218c438a" y="330.352796"/>
     <use style="fill:#1f77b4;stroke:#1f77b4;" x="480.946417" xlink:href="#mb3218c438a" y="332.170814"/>
     <use style="fill:#1f77b4;stroke:#1f77b4;" x="487.043474" xlink:href="#mb3218c438a" y="333.988833"/>
     <use style="fill:#1f77b4;stroke:#1f77b4;" x="493.140531" xlink:href="#mb3218c438a" y="335.806852"/>
     <use style="fill:#1f77b4;stroke:#1f77b4;" x="499.237588" xlink:href="#mb3218c438a" y="336.715861"/>
     <use style="fill:#1f77b4;stroke:#1f77b4;" x="505.334648" xlink:href="#mb3218c438a" y="338.53388"/>
     <use style="fill:#1f77b4;stroke:#1f77b4;" x="511.431705" xlink:href="#mb3218c438a" y="339.44289"/>
     <use style="fill:#1f77b4;stroke:#1f77b4;" x="517.528758" xlink:href="#mb3218c438a" y="340.351899"/>
     <use style="fill:#1f77b4;stroke:#1f77b4;" x="523.625816" xlink:href="#mb3218c438a" y="341.260909"/>
     <use style="fill:#1f77b4;stroke:#1f77b4;" x="529.722872" xlink:href="#mb3218c438a" y="342.169918"/>
     <use style="fill:#1f77b4;stroke:#1f77b4;" x="535.819931" xlink:href="#mb3218c438a" y="343.078927"/>
     <use style="fill:#1f77b4;stroke:#1f77b4;" x="541.916989" xlink:href="#mb3218c438a" y="343.078927"/>
     <use style="fill:#1f77b4;stroke:#1f77b4;" x="548.014046" xlink:href="#mb3218c438a" y="343.987937"/>
     <use style="fill:#1f77b4;stroke:#1f77b4;" x="554.111101" xlink:href="#mb3218c438a" y="343.987937"/>
     <use style="fill:#1f77b4;stroke:#1f77b4;" x="560.208159" xlink:href="#mb3218c438a" y="344.896946"/>
     <use style="fill:#1f77b4;stroke:#1f77b4;" x="566.305217" xlink:href="#mb3218c438a" y="344.896946"/>
     <use style="fill:#1f77b4;stroke:#1f77b4;" x="572.402273" xlink:href="#mb3218c438a" y="345.805956"/>
    </g>
   </g>
   <g id="line2d_45">
    <defs>
     <path d="M 0 3.5 
C 0.928211 3.5 1.81853 3.131218 2.474874 2.474874 
C 3.131218 1.81853 3.5 0.928211 3.5 0 
C 3.5 -0.928211 3.131218 -1.81853 2.474874 -2.474874 
C 1.81853 -3.131218 0.928211 -3.5 0 -3.5 
C -0.928211 -3.5 -1.81853 -3.131218 -2.474874 -2.474874 
C -3.131218 -1.81853 -3.5 -0.928211 -3.5 0 
C -3.5 0.928211 -3.131218 1.81853 -2.474874 2.474874 
C -1.81853 3.131218 -0.928211 3.5 0 3.5 
z
" id="mc725863d3e" style="stroke:#ff7f0e;"/>
    </defs>
    <g clip-path="url(#p393b8ef0be)">
     <use style="fill:#ff7f0e;stroke:#ff7f0e;" x="72.447727" xlink:href="#mc725863d3e" y="87.64728"/>
     <use style="fill:#ff7f0e;stroke:#ff7f0e;" x="78.544785" xlink:href="#mc725863d3e" y="88.556289"/>
     <use style="fill:#ff7f0e;stroke:#ff7f0e;" x="84.641842" xlink:href="#mc725863d3e" y="60.376997"/>
     <use style="fill:#ff7f0e;stroke:#ff7f0e;" x="90.7389" xlink:href="#mc725863d3e" y="54.922941"/>
     <use style="fill:#ff7f0e;stroke:#ff7f0e;" x="96.835957" xlink:href="#mc725863d3e" y="58.558978"/>
     <use style="fill:#ff7f0e;stroke:#ff7f0e;" x="102.932617" xlink:href="#mc725863d3e" y="53.104922"/>
     <use style="fill:#ff7f0e;stroke:#ff7f0e;" x="109.027869" xlink:href="#mc725863d3e" y="53.104922"/>
     <use style="fill:#ff7f0e;stroke:#ff7f0e;" x="115.126568" xlink:href="#mc725863d3e" y="50.377894"/>
     <use style="fill:#ff7f0e;stroke:#ff7f0e;" x="121.221536" xlink:href="#mc725863d3e" y="45.832846"/>
     <use style="fill:#ff7f0e;stroke:#ff7f0e;" x="127.31995" xlink:href="#mc725863d3e" y="47.650865"/>
     <use style="fill:#ff7f0e;stroke:#ff7f0e;" x="133.414788" xlink:href="#mc725863d3e" y="43.105818"/>
     <use style="fill:#ff7f0e;stroke:#ff7f0e;" x="139.512742" xlink:href="#mc725863d3e" y="75.830157"/>
     <use style="fill:#ff7f0e;stroke:#ff7f0e;" x="145.6098" xlink:href="#mc725863d3e" y="55.83195"/>
     <use style="fill:#ff7f0e;stroke:#ff7f0e;" x="151.706301" xlink:href="#mc725863d3e" y="47.650865"/>
     <use style="fill:#ff7f0e;stroke:#ff7f0e;" x="157.80319" xlink:href="#mc725863d3e" y="55.83195"/>
     <use style="fill:#ff7f0e;stroke:#ff7f0e;" x="163.899788" xlink:href="#mc725863d3e" y="86.73827"/>
     <use style="fill:#ff7f0e;stroke:#ff7f0e;" x="169.996846" xlink:href="#mc725863d3e" y="99.464402"/>
     <use style="fill:#ff7f0e;stroke:#ff7f0e;" x="176.094283" xlink:href="#mc725863d3e" y="95.828365"/>
     <use style="fill:#ff7f0e;stroke:#ff7f0e;" x="182.19111" xlink:href="#mc725863d3e" y="104.009449"/>
     <use style="fill:#ff7f0e;stroke:#ff7f0e;" x="188.288586" xlink:href="#mc725863d3e" y="124.007657"/>
     <use style="fill:#ff7f0e;stroke:#ff7f0e;" x="194.385073" xlink:href="#mc725863d3e" y="118.5536"/>
     <use style="fill:#ff7f0e;stroke:#ff7f0e;" x="200.482044" xlink:href="#mc725863d3e" y="144.914873"/>
     <use style="fill:#ff7f0e;stroke:#ff7f0e;" x="206.579259" xlink:href="#mc725863d3e" y="182.18426"/>
     <use style="fill:#ff7f0e;stroke:#ff7f0e;" x="212.676459" xlink:href="#mc725863d3e" y="204.909495"/>
     <use style="fill:#ff7f0e;stroke:#ff7f0e;" x="218.773646" xlink:href="#mc725863d3e" y="220.362655"/>
     <use style="fill:#ff7f0e;stroke:#ff7f0e;" x="224.870586" xlink:href="#mc725863d3e" y="225.816712"/>
     <use style="fill:#ff7f0e;stroke:#ff7f0e;" x="230.967589" xlink:href="#mc725863d3e" y="233.997797"/>
     <use style="fill:#ff7f0e;stroke:#ff7f0e;" x="237.064403" xlink:href="#mc725863d3e" y="235.815816"/>
     <use style="fill:#ff7f0e;stroke:#ff7f0e;" x="243.161372" xlink:href="#mc725863d3e" y="236.724825"/>
     <use style="fill:#ff7f0e;stroke:#ff7f0e;" x="249.258389" xlink:href="#mc725863d3e" y="237.633834"/>
     <use style="fill:#ff7f0e;stroke:#ff7f0e;" x="255.355409" xlink:href="#mc725863d3e" y="237.633834"/>
     <use style="fill:#ff7f0e;stroke:#ff7f0e;" x="261.4527" xlink:href="#mc725863d3e" y="237.633834"/>
     <use style="fill:#ff7f0e;stroke:#ff7f0e;" x="267.549697" xlink:href="#mc725863d3e" y="236.724825"/>
     <use style="fill:#ff7f0e;stroke:#ff7f0e;" x="273.646617" xlink:href="#mc725863d3e" y="236.724825"/>
     <use style="fill:#ff7f0e;stroke:#ff7f0e;" x="279.743749" xlink:href="#mc725863d3e" y="236.724825"/>
     <use style="fill:#ff7f0e;stroke:#ff7f0e;" x="285.840784" xlink:href="#mc725863d3e" y="236.724825"/>
     <use style="fill:#ff7f0e;stroke:#ff7f0e;" x="291.937697" xlink:href="#mc725863d3e" y="236.724825"/>
     <use style="fill:#ff7f0e;stroke:#ff7f0e;" x="298.03481" xlink:href="#mc725863d3e" y="236.724825"/>
     <use style="fill:#ff7f0e;stroke:#ff7f0e;" x="304.131902" xlink:href="#mc725863d3e" y="236.724825"/>
     <use style="fill:#ff7f0e;stroke:#ff7f0e;" x="310.22896" xlink:href="#mc725863d3e" y="236.724825"/>
     <use style="fill:#ff7f0e;stroke:#ff7f0e;" x="316.325989" xlink:href="#mc725863d3e" y="236.724825"/>
     <use style="fill:#ff7f0e;stroke:#ff7f0e;" x="322.422995" xlink:href="#mc725863d3e" y="236.724825"/>
     <use style="fill:#ff7f0e;stroke:#ff7f0e;" x="328.520052" xlink:href="#mc725863d3e" y="236.724825"/>
     <use style="fill:#ff7f0e;stroke:#ff7f0e;" x="334.617088" xlink:href="#mc725863d3e" y="236.724825"/>
     <use style="fill:#ff7f0e;stroke:#ff7f0e;" x="340.714223" xlink:href="#mc725863d3e" y="236.724825"/>
     <use style="fill:#ff7f0e;stroke:#ff7f0e;" x="346.811201" xlink:href="#mc725863d3e" y="236.724825"/>
     <use style="fill:#ff7f0e;stroke:#ff7f0e;" x="352.908275" xlink:href="#mc725863d3e" y="236.724825"/>
     <use style="fill:#ff7f0e;stroke:#ff7f0e;" x="359.005303" xlink:href="#mc725863d3e" y="235.815816"/>
     <use style="fill:#ff7f0e;stroke:#ff7f0e;" x="365.102374" xlink:href="#mc725863d3e" y="235.815816"/>
     <use style="fill:#ff7f0e;stroke:#ff7f0e;" x="371.199431" xlink:href="#mc725863d3e" y="238.542844"/>
     <use style="fill:#ff7f0e;stroke:#ff7f0e;" x="377.296483" xlink:href="#mc725863d3e" y="245.814919"/>
     <use style="fill:#ff7f0e;stroke:#ff7f0e;" x="383.393526" xlink:href="#mc725863d3e" y="253.086995"/>
     <use style="fill:#ff7f0e;stroke:#ff7f0e;" x="389.490601" xlink:href="#mc725863d3e" y="263.086098"/>
     <use style="fill:#ff7f0e;stroke:#ff7f0e;" x="395.587667" xlink:href="#mc725863d3e" y="274.903221"/>
     <use style="fill:#ff7f0e;stroke:#ff7f0e;" x="401.684717" xlink:href="#mc725863d3e" y="285.811334"/>
     <use style="fill:#ff7f0e;stroke:#ff7f0e;" x="407.781744" xlink:href="#mc725863d3e" y="298.537466"/>
     <use style="fill:#ff7f0e;stroke:#ff7f0e;" x="413.878805" xlink:href="#mc725863d3e" y="303.991522"/>
     <use style="fill:#ff7f0e;stroke:#ff7f0e;" x="419.975873" xlink:href="#mc725863d3e" y="310.354588"/>
     <use style="fill:#ff7f0e;stroke:#ff7f0e;" x="426.07291" xlink:href="#mc725863d3e" y="316.717654"/>
     <use style="fill:#ff7f0e;stroke:#ff7f0e;" x="432.169982" xlink:href="#mc725863d3e" y="322.171711"/>
     <use style="fill:#ff7f0e;stroke:#ff7f0e;" x="438.267026" xlink:href="#mc725863d3e" y="326.716758"/>
     <use style="fill:#ff7f0e;stroke:#ff7f0e;" x="444.364086" xlink:href="#mc725863d3e" y="332.170814"/>
     <use style="fill:#ff7f0e;stroke:#ff7f0e;" x="450.461141" xlink:href="#mc725863d3e" y="337.624871"/>
     <use style="fill:#ff7f0e;stroke:#ff7f0e;" x="456.5582" xlink:href="#mc725863d3e" y="341.260909"/>
     <use style="fill:#ff7f0e;stroke:#ff7f0e;" x="462.655246" xlink:href="#mc725863d3e" y="344.896946"/>
     <use style="fill:#ff7f0e;stroke:#ff7f0e;" x="468.752309" xlink:href="#mc725863d3e" y="346.714965"/>
     <use style="fill:#ff7f0e;stroke:#ff7f0e;" x="474.849368" xlink:href="#mc725863d3e" y="350.351003"/>
     <use style="fill:#ff7f0e;stroke:#ff7f0e;" x="480.946417" xlink:href="#mc725863d3e" y="352.169022"/>
     <use style="fill:#ff7f0e;stroke:#ff7f0e;" x="487.043474" xlink:href="#mc725863d3e" y="354.89605"/>
     <use style="fill:#ff7f0e;stroke:#ff7f0e;" x="493.140531" xlink:href="#mc725863d3e" y="355.805059"/>
     <use style="fill:#ff7f0e;stroke:#ff7f0e;" x="499.237588" xlink:href="#mc725863d3e" y="357.623078"/>
     <use style="fill:#ff7f0e;stroke:#ff7f0e;" x="505.334648" xlink:href="#mc725863d3e" y="358.532088"/>
     <use style="fill:#ff7f0e;stroke:#ff7f0e;" x="511.431705" xlink:href="#mc725863d3e" y="360.350106"/>
     <use style="fill:#ff7f0e;stroke:#ff7f0e;" x="517.528758" xlink:href="#mc725863d3e" y="361.259116"/>
     <use style="fill:#ff7f0e;stroke:#ff7f0e;" x="523.625816" xlink:href="#mc725863d3e" y="362.168125"/>
     <use style="fill:#ff7f0e;stroke:#ff7f0e;" x="529.722872" xlink:href="#mc725863d3e" y="363.077135"/>
     <use style="fill:#ff7f0e;stroke:#ff7f0e;" x="535.819931" xlink:href="#mc725863d3e" y="363.986144"/>
     <use style="fill:#ff7f0e;stroke:#ff7f0e;" x="541.916989" xlink:href="#mc725863d3e" y="364.895154"/>
     <use style="fill:#ff7f0e;stroke:#ff7f0e;" x="548.014046" xlink:href="#mc725863d3e" y="364.895154"/>
     <use style="fill:#ff7f0e;stroke:#ff7f0e;" x="554.111101" xlink:href="#mc725863d3e" y="365.804163"/>
     <use style="fill:#ff7f0e;stroke:#ff7f0e;" x="560.208159" xlink:href="#mc725863d3e" y="366.713172"/>
     <use style="fill:#ff7f0e;stroke:#ff7f0e;" x="566.305217" xlink:href="#mc725863d3e" y="367.622182"/>
     <use style="fill:#ff7f0e;stroke:#ff7f0e;" x="572.402273" xlink:href="#mc725863d3e" y="367.622182"/>
    </g>
   </g>
   <g id="line2d_46">
    <defs>
     <path d="M 0 3.5 
C 0.928211 3.5 1.81853 3.131218 2.474874 2.474874 
C 3.131218 1.81853 3.5 0.928211 3.5 0 
C 3.5 -0.928211 3.131218 -1.81853 2.474874 -2.474874 
C 1.81853 -3.131218 0.928211 -3.5 0 -3.5 
C -0.928211 -3.5 -1.81853 -3.131218 -2.474874 -2.474874 
C -3.131218 -1.81853 -3.5 -0.928211 -3.5 0 
C -3.5 0.928211 -3.131218 1.81853 -2.474874 2.474874 
C -1.81853 3.131218 -0.928211 3.5 0 3.5 
z
" id="mab666040d4" style="stroke:#2ca02c;"/>
    </defs>
    <g clip-path="url(#p393b8ef0be)">
     <use style="fill:#2ca02c;stroke:#2ca02c;" x="72.447727" xlink:href="#mab666040d4" y="90.374308"/>
     <use style="fill:#2ca02c;stroke:#2ca02c;" x="78.544785" xlink:href="#mab666040d4" y="54.013931"/>
     <use style="fill:#2ca02c;stroke:#2ca02c;" x="84.641842" xlink:href="#mab666040d4" y="61.286007"/>
     <use style="fill:#2ca02c;stroke:#2ca02c;" x="90.7389" xlink:href="#mab666040d4" y="51.286903"/>
     <use style="fill:#2ca02c;stroke:#2ca02c;" x="96.835957" xlink:href="#mab666040d4" y="57.649969"/>
     <use style="fill:#2ca02c;stroke:#2ca02c;" x="102.932617" xlink:href="#mab666040d4" y="56.74096"/>
     <use style="fill:#2ca02c;stroke:#2ca02c;" x="109.027869" xlink:href="#mab666040d4" y="51.286903"/>
     <use style="fill:#2ca02c;stroke:#2ca02c;" x="115.126568" xlink:href="#mab666040d4" y="49.468884"/>
     <use style="fill:#2ca02c;stroke:#2ca02c;" x="121.221536" xlink:href="#mab666040d4" y="44.923837"/>
     <use style="fill:#2ca02c;stroke:#2ca02c;" x="127.31995" xlink:href="#mab666040d4" y="44.014828"/>
     <use style="fill:#2ca02c;stroke:#2ca02c;" x="133.414788" xlink:href="#mab666040d4" y="49.468884"/>
     <use style="fill:#2ca02c;stroke:#2ca02c;" x="139.512742" xlink:href="#mab666040d4" y="57.649969"/>
     <use style="fill:#2ca02c;stroke:#2ca02c;" x="145.6098" xlink:href="#mab666040d4" y="55.83195"/>
     <use style="fill:#2ca02c;stroke:#2ca02c;" x="151.706301" xlink:href="#mab666040d4" y="48.559875"/>
     <use style="fill:#2ca02c;stroke:#2ca02c;" x="157.80319" xlink:href="#mab666040d4" y="53.104922"/>
     <use style="fill:#2ca02c;stroke:#2ca02c;" x="163.899788" xlink:href="#mab666040d4" y="84.011242"/>
     <use style="fill:#2ca02c;stroke:#2ca02c;" x="169.996846" xlink:href="#mab666040d4" y="101.282421"/>
     <use style="fill:#2ca02c;stroke:#2ca02c;" x="176.094283" xlink:href="#mab666040d4" y="88.556289"/>
     <use style="fill:#2ca02c;stroke:#2ca02c;" x="182.19111" xlink:href="#mab666040d4" y="95.828365"/>
     <use style="fill:#2ca02c;stroke:#2ca02c;" x="188.288586" xlink:href="#mab666040d4" y="120.371619"/>
     <use style="fill:#2ca02c;stroke:#2ca02c;" x="194.385073" xlink:href="#mab666040d4" y="114.008553"/>
     <use style="fill:#2ca02c;stroke:#2ca02c;" x="200.482044" xlink:href="#mab666040d4" y="140.369826"/>
     <use style="fill:#2ca02c;stroke:#2ca02c;" x="206.579259" xlink:href="#mab666040d4" y="175.821194"/>
     <use style="fill:#2ca02c;stroke:#2ca02c;" x="212.676459" xlink:href="#mab666040d4" y="198.546429"/>
     <use style="fill:#2ca02c;stroke:#2ca02c;" x="218.773646" xlink:href="#mab666040d4" y="213.09058"/>
     <use style="fill:#2ca02c;stroke:#2ca02c;" x="224.870586" xlink:href="#mab666040d4" y="219.453646"/>
     <use style="fill:#2ca02c;stroke:#2ca02c;" x="230.967589" xlink:href="#mab666040d4" y="228.54374"/>
     <use style="fill:#2ca02c;stroke:#2ca02c;" x="237.064403" xlink:href="#mab666040d4" y="229.45275"/>
     <use style="fill:#2ca02c;stroke:#2ca02c;" x="243.161372" xlink:href="#mab666040d4" y="230.361759"/>
     <use style="fill:#2ca02c;stroke:#2ca02c;" x="249.258389" xlink:href="#mab666040d4" y="230.361759"/>
     <use style="fill:#2ca02c;stroke:#2ca02c;" x="255.355409" xlink:href="#mab666040d4" y="230.361759"/>
     <use style="fill:#2ca02c;stroke:#2ca02c;" x="261.4527" xlink:href="#mab666040d4" y="230.361759"/>
     <use style="fill:#2ca02c;stroke:#2ca02c;" x="267.549697" xlink:href="#mab666040d4" y="230.361759"/>
     <use style="fill:#2ca02c;stroke:#2ca02c;" x="273.646617" xlink:href="#mab666040d4" y="230.361759"/>
     <use style="fill:#2ca02c;stroke:#2ca02c;" x="279.743749" xlink:href="#mab666040d4" y="230.361759"/>
     <use style="fill:#2ca02c;stroke:#2ca02c;" x="285.840784" xlink:href="#mab666040d4" y="230.361759"/>
     <use style="fill:#2ca02c;stroke:#2ca02c;" x="291.937697" xlink:href="#mab666040d4" y="230.361759"/>
     <use style="fill:#2ca02c;stroke:#2ca02c;" x="298.03481" xlink:href="#mab666040d4" y="230.361759"/>
     <use style="fill:#2ca02c;stroke:#2ca02c;" x="304.131902" xlink:href="#mab666040d4" y="230.361759"/>
     <use style="fill:#2ca02c;stroke:#2ca02c;" x="310.22896" xlink:href="#mab666040d4" y="230.361759"/>
     <use style="fill:#2ca02c;stroke:#2ca02c;" x="316.325989" xlink:href="#mab666040d4" y="230.361759"/>
     <use style="fill:#2ca02c;stroke:#2ca02c;" x="322.422995" xlink:href="#mab666040d4" y="230.361759"/>
     <use style="fill:#2ca02c;stroke:#2ca02c;" x="328.520052" xlink:href="#mab666040d4" y="229.45275"/>
     <use style="fill:#2ca02c;stroke:#2ca02c;" x="334.617088" xlink:href="#mab666040d4" y="230.361759"/>
     <use style="fill:#2ca02c;stroke:#2ca02c;" x="340.714223" xlink:href="#mab666040d4" y="229.45275"/>
     <use style="fill:#2ca02c;stroke:#2ca02c;" x="346.811201" xlink:href="#mab666040d4" y="229.45275"/>
     <use style="fill:#2ca02c;stroke:#2ca02c;" x="352.908275" xlink:href="#mab666040d4" y="229.45275"/>
     <use style="fill:#2ca02c;stroke:#2ca02c;" x="359.005303" xlink:href="#mab666040d4" y="229.45275"/>
     <use style="fill:#2ca02c;stroke:#2ca02c;" x="365.102374" xlink:href="#mab666040d4" y="229.45275"/>
     <use style="fill:#2ca02c;stroke:#2ca02c;" x="371.199431" xlink:href="#mab666040d4" y="232.179778"/>
     <use style="fill:#2ca02c;stroke:#2ca02c;" x="377.296483" xlink:href="#mab666040d4" y="239.451853"/>
     <use style="fill:#2ca02c;stroke:#2ca02c;" x="383.393526" xlink:href="#mab666040d4" y="247.632938"/>
     <use style="fill:#2ca02c;stroke:#2ca02c;" x="389.490601" xlink:href="#mab666040d4" y="256.723032"/>
     <use style="fill:#2ca02c;stroke:#2ca02c;" x="395.587667" xlink:href="#mab666040d4" y="267.631145"/>
     <use style="fill:#2ca02c;stroke:#2ca02c;" x="401.684717" xlink:href="#mab666040d4" y="277.630249"/>
     <use style="fill:#2ca02c;stroke:#2ca02c;" x="407.781744" xlink:href="#mab666040d4" y="291.26539"/>
     <use style="fill:#2ca02c;stroke:#2ca02c;" x="413.878805" xlink:href="#mab666040d4" y="297.628456"/>
     <use style="fill:#2ca02c;stroke:#2ca02c;" x="419.975873" xlink:href="#mab666040d4" y="303.991522"/>
     <use style="fill:#2ca02c;stroke:#2ca02c;" x="426.07291" xlink:href="#mab666040d4" y="310.354588"/>
     <use style="fill:#2ca02c;stroke:#2ca02c;" x="432.169982" xlink:href="#mab666040d4" y="315.808645"/>
     <use style="fill:#2ca02c;stroke:#2ca02c;" x="438.267026" xlink:href="#mab666040d4" y="320.353692"/>
     <use style="fill:#2ca02c;stroke:#2ca02c;" x="444.364086" xlink:href="#mab666040d4" y="324.898739"/>
     <use style="fill:#2ca02c;stroke:#2ca02c;" x="450.461141" xlink:href="#mab666040d4" y="328.534777"/>
     <use style="fill:#2ca02c;stroke:#2ca02c;" x="456.5582" xlink:href="#mab666040d4" y="332.170814"/>
     <use style="fill:#2ca02c;stroke:#2ca02c;" x="462.655246" xlink:href="#mab666040d4" y="334.897843"/>
     <use style="fill:#2ca02c;stroke:#2ca02c;" x="468.752309" xlink:href="#mab666040d4" y="337.624871"/>
     <use style="fill:#2ca02c;stroke:#2ca02c;" x="474.849368" xlink:href="#mab666040d4" y="340.351899"/>
     <use style="fill:#2ca02c;stroke:#2ca02c;" x="480.946417" xlink:href="#mab666040d4" y="342.169918"/>
     <use style="fill:#2ca02c;stroke:#2ca02c;" x="487.043474" xlink:href="#mab666040d4" y="343.987937"/>
     <use style="fill:#2ca02c;stroke:#2ca02c;" x="493.140531" xlink:href="#mab666040d4" y="345.805956"/>
     <use style="fill:#2ca02c;stroke:#2ca02c;" x="499.237588" xlink:href="#mab666040d4" y="347.623975"/>
     <use style="fill:#2ca02c;stroke:#2ca02c;" x="505.334648" xlink:href="#mab666040d4" y="347.623975"/>
     <use style="fill:#2ca02c;stroke:#2ca02c;" x="511.431705" xlink:href="#mab666040d4" y="349.441993"/>
     <use style="fill:#2ca02c;stroke:#2ca02c;" x="517.528758" xlink:href="#mab666040d4" y="350.351003"/>
     <use style="fill:#2ca02c;stroke:#2ca02c;" x="523.625816" xlink:href="#mab666040d4" y="351.260012"/>
     <use style="fill:#2ca02c;stroke:#2ca02c;" x="529.722872" xlink:href="#mab666040d4" y="352.169022"/>
     <use style="fill:#2ca02c;stroke:#2ca02c;" x="535.819931" xlink:href="#mab666040d4" y="353.078031"/>
     <use style="fill:#2ca02c;stroke:#2ca02c;" x="541.916989" xlink:href="#mab666040d4" y="353.078031"/>
     <use style="fill:#2ca02c;stroke:#2ca02c;" x="548.014046" xlink:href="#mab666040d4" y="353.98704"/>
     <use style="fill:#2ca02c;stroke:#2ca02c;" x="554.111101" xlink:href="#mab666040d4" y="354.89605"/>
     <use style="fill:#2ca02c;stroke:#2ca02c;" x="560.208159" xlink:href="#mab666040d4" y="355.805059"/>
     <use style="fill:#2ca02c;stroke:#2ca02c;" x="566.305217" xlink:href="#mab666040d4" y="355.805059"/>
     <use style="fill:#2ca02c;stroke:#2ca02c;" x="572.402273" xlink:href="#mab666040d4" y="355.805059"/>
    </g>
   </g>
   <g id="patch_4">
    <path d="M 47.45 383.848 
L 47.45 26.88 
" style="fill:none;stroke:#000000;stroke-linecap:square;stroke-linejoin:miter;stroke-width:0.8;"/>
   </g>
   <g id="patch_5">
    <path d="M 597.4 383.848 
L 597.4 26.88 
" style="fill:none;stroke:#000000;stroke-linecap:square;stroke-linejoin:miter;stroke-width:0.8;"/>
   </g>
   <g id="patch_6">
    <path d="M 47.45 383.848 
L 597.4 383.848 
" style="fill:none;stroke:#000000;stroke-linecap:square;stroke-linejoin:miter;stroke-width:0.8;"/>
   </g>
   <g id="patch_7">
    <path d="M 47.45 26.88 
L 597.4 26.88 
" style="fill:none;stroke:#000000;stroke-linecap:square;stroke-linejoin:miter;stroke-width:0.8;"/>
   </g>
   <g id="text_15">
    <!-- L2 -->
    <defs>
     <path d="M 9.8125 72.90625 
L 19.671875 72.90625 
L 19.671875 8.296875 
L 55.171875 8.296875 
L 55.171875 0 
L 9.8125 0 
z
" id="DejaVuSans-76"/>
    </defs>
    <g transform="translate(114.267518 288.402011)scale(0.2 -0.2)">
     <use xlink:href="#DejaVuSans-76"/>
     <use x="55.712891" xlink:href="#DejaVuSans-50"/>
    </g>
   </g>
   <g id="text_16">
    <!-- L3 -->
    <g transform="translate(282.430307 288.402011)scale(0.2 -0.2)">
     <use xlink:href="#DejaVuSans-76"/>
     <use x="55.712891" xlink:href="#DejaVuSans-51"/>
    </g>
   </g>
   <g id="text_17">
    <!-- RAM -->
    <defs>
     <path d="M 34.1875 63.1875 
L 20.796875 26.90625 
L 47.609375 26.90625 
z
M 28.609375 72.90625 
L 39.796875 72.90625 
L 67.578125 0 
L 57.328125 0 
L 50.6875 18.703125 
L 17.828125 18.703125 
L 11.1875 0 
L 0.78125 0 
z
" id="DejaVuSans-65"/>
     <path d="M 9.8125 72.90625 
L 24.515625 72.90625 
L 43.109375 23.296875 
L 61.8125 72.90625 
L 76.515625 72.90625 
L 76.515625 0 
L 66.890625 0 
L 66.890625 64.015625 
L 48.09375 14.015625 
L 38.1875 14.015625 
L 19.390625 64.015625 
L 19.390625 0 
L 9.8125 0 
z
" id="DejaVuSans-77"/>
    </defs>
    <g transform="translate(474.690723 288.402011)scale(0.2 -0.2)">
     <use xlink:href="#DejaVuSans-82"/>
     <use x="65.482422" xlink:href="#DejaVuSans-65"/>
     <use x="133.890625" xlink:href="#DejaVuSans-77"/>
    </g>
   </g>
   <g id="text_18">
    <!-- Fill Performance : L2 Lines Out -->
    <defs>
     <path d="M 19.671875 64.796875 
L 19.671875 37.40625 
L 32.078125 37.40625 
Q 38.96875 37.40625 42.71875 40.96875 
Q 46.484375 44.53125 46.484375 51.125 
Q 46.484375 57.671875 42.71875 61.234375 
Q 38.96875 64.796875 32.078125 64.796875 
z
M 9.8125 72.90625 
L 32.078125 72.90625 
Q 44.34375 72.90625 50.609375 67.359375 
Q 56.890625 61.8125 56.890625 51.125 
Q 56.890625 40.328125 50.609375 34.8125 
Q 44.34375 29.296875 32.078125 29.296875 
L 19.671875 29.296875 
L 19.671875 0 
L 9.8125 0 
z
" id="DejaVuSans-80"/>
     <path d="M 41.109375 46.296875 
Q 39.59375 47.171875 37.8125 47.578125 
Q 36.03125 48 33.890625 48 
Q 26.265625 48 22.1875 43.046875 
Q 18.109375 38.09375 18.109375 28.8125 
L 18.109375 0 
L 9.078125 0 
L 9.078125 54.6875 
L 18.109375 54.6875 
L 18.109375 46.1875 
Q 20.953125 51.171875 25.484375 53.578125 
Q 30.03125 56 36.53125 56 
Q 37.453125 56 38.578125 55.875 
Q 39.703125 55.765625 41.0625 55.515625 
z
" id="DejaVuSans-114"/>
     <path d="M 37.109375 75.984375 
L 37.109375 68.5 
L 28.515625 68.5 
Q 23.6875 68.5 21.796875 66.546875 
Q 19.921875 64.59375 19.921875 59.515625 
L 19.921875 54.6875 
L 34.71875 54.6875 
L 34.71875 47.703125 
L 19.921875 47.703125 
L 19.921875 0 
L 10.890625 0 
L 10.890625 47.703125 
L 2.296875 47.703125 
L 2.296875 54.6875 
L 10.890625 54.6875 
L 10.890625 58.5 
Q 10.890625 67.625 15.140625 71.796875 
Q 19.390625 75.984375 28.609375 75.984375 
z
" id="DejaVuSans-102"/>
     <path d="M 52 44.1875 
Q 55.375 50.25 60.0625 53.125 
Q 64.75 56 71.09375 56 
Q 79.640625 56 84.28125 50.015625 
Q 88.921875 44.046875 88.921875 33.015625 
L 88.921875 0 
L 79.890625 0 
L 79.890625 32.71875 
Q 79.890625 40.578125 77.09375 44.375 
Q 74.3125 48.1875 68.609375 48.1875 
Q 61.625 48.1875 57.5625 43.546875 
Q 53.515625 38.921875 53.515625 30.90625 
L 53.515625 0 
L 44.484375 0 
L 44.484375 32.71875 
Q 44.484375 40.625 41.703125 44.40625 
Q 38.921875 48.1875 33.109375 48.1875 
Q 26.21875 48.1875 22.15625 43.53125 
Q 18.109375 38.875 18.109375 30.90625 
L 18.109375 0 
L 9.078125 0 
L 9.078125 54.6875 
L 18.109375 54.6875 
L 18.109375 46.1875 
Q 21.1875 51.21875 25.484375 53.609375 
Q 29.78125 56 35.6875 56 
Q 41.65625 56 45.828125 52.96875 
Q 50 49.953125 52 44.1875 
z
" id="DejaVuSans-109"/>
     <path d="M 34.28125 27.484375 
Q 23.390625 27.484375 19.1875 25 
Q 14.984375 22.515625 14.984375 16.5 
Q 14.984375 11.71875 18.140625 8.90625 
Q 21.296875 6.109375 26.703125 6.109375 
Q 34.1875 6.109375 38.703125 11.40625 
Q 43.21875 16.703125 43.21875 25.484375 
L 43.21875 27.484375 
z
M 52.203125 31.203125 
L 52.203125 0 
L 43.21875 0 
L 43.21875 8.296875 
Q 40.140625 3.328125 35.546875 0.953125 
Q 30.953125 -1.421875 24.3125 -1.421875 
Q 15.921875 -1.421875 10.953125 3.296875 
Q 6 8.015625 6 15.921875 
Q 6 25.140625 12.171875 29.828125 
Q 18.359375 34.515625 30.609375 34.515625 
L 43.21875 34.515625 
L 43.21875 35.40625 
Q 43.21875 41.609375 39.140625 45 
Q 35.0625 48.390625 27.6875 48.390625 
Q 23 48.390625 18.546875 47.265625 
Q 14.109375 46.140625 10.015625 43.890625 
L 10.015625 52.203125 
Q 14.9375 54.109375 19.578125 55.046875 
Q 24.21875 56 28.609375 56 
Q 40.484375 56 46.34375 49.84375 
Q 52.203125 43.703125 52.203125 31.203125 
z
" id="DejaVuSans-97"/>
     <path d="M 48.78125 52.59375 
L 48.78125 44.1875 
Q 44.96875 46.296875 41.140625 47.34375 
Q 37.3125 48.390625 33.40625 48.390625 
Q 24.65625 48.390625 19.8125 42.84375 
Q 14.984375 37.3125 14.984375 27.296875 
Q 14.984375 17.28125 19.8125 11.734375 
Q 24.65625 6.203125 33.40625 6.203125 
Q 37.3125 6.203125 41.140625 7.25 
Q 44.96875 8.296875 48.78125 10.40625 
L 48.78125 2.09375 
Q 45.015625 0.34375 40.984375 -0.53125 
Q 36.96875 -1.421875 32.421875 -1.421875 
Q 20.0625 -1.421875 12.78125 6.34375 
Q 5.515625 14.109375 5.515625 27.296875 
Q 5.515625 40.671875 12.859375 48.328125 
Q 20.21875 56 33.015625 56 
Q 37.15625 56 41.109375 55.140625 
Q 45.0625 54.296875 48.78125 52.59375 
z
" id="DejaVuSans-99"/>
     <path d="M 11.71875 12.40625 
L 22.015625 12.40625 
L 22.015625 0 
L 11.71875 0 
z
M 11.71875 51.703125 
L 22.015625 51.703125 
L 22.015625 39.3125 
L 11.71875 39.3125 
z
" id="DejaVuSans-58"/>
     <path d="M 39.40625 66.21875 
Q 28.65625 66.21875 22.328125 58.203125 
Q 16.015625 50.203125 16.015625 36.375 
Q 16.015625 22.609375 22.328125 14.59375 
Q 28.65625 6.59375 39.40625 6.59375 
Q 50.140625 6.59375 56.421875 14.59375 
Q 62.703125 22.609375 62.703125 36.375 
Q 62.703125 50.203125 56.421875 58.203125 
Q 50.140625 66.21875 39.40625 66.21875 
z
M 39.40625 74.21875 
Q 54.734375 74.21875 63.90625 63.9375 
Q 73.09375 53.65625 73.09375 36.375 
Q 73.09375 19.140625 63.90625 8.859375 
Q 54.734375 -1.421875 39.40625 -1.421875 
Q 24.03125 -1.421875 14.8125 8.828125 
Q 5.609375 19.09375 5.609375 36.375 
Q 5.609375 53.65625 14.8125 63.9375 
Q 24.03125 74.21875 39.40625 74.21875 
z
" id="DejaVuSans-79"/>
     <path d="M 8.5 21.578125 
L 8.5 54.6875 
L 17.484375 54.6875 
L 17.484375 21.921875 
Q 17.484375 14.15625 20.5 10.265625 
Q 23.53125 6.390625 29.59375 6.390625 
Q 36.859375 6.390625 41.078125 11.03125 
Q 45.3125 15.671875 45.3125 23.6875 
L 45.3125 54.6875 
L 54.296875 54.6875 
L 54.296875 0 
L 45.3125 0 
L 45.3125 8.40625 
Q 42.046875 3.421875 37.71875 1 
Q 33.40625 -1.421875 27.6875 -1.421875 
Q 18.265625 -1.421875 13.375 4.4375 
Q 8.5 10.296875 8.5 21.578125 
z
M 31.109375 56 
z
" id="DejaVuSans-117"/>
    </defs>
    <g transform="translate(231.165937 20.88)scale(0.12 -0.12)">
     <use xlink:href="#DejaVuSans-70"/>
     <use x="50.269531" xlink:href="#DejaVuSans-105"/>
     <use x="78.052734" xlink:href="#DejaVuSans-108"/>
     <use x="105.835938" xlink:href="#DejaVuSans-108"/>
     <use x="133.619141" xlink:href="#DejaVuSans-32"/>
     <use x="165.40625" xlink:href="#DejaVuSans-80"/>
     <use x="222.083984" xlink:href="#DejaVuSans-101"/>
     <use x="283.607422" xlink:href="#DejaVuSans-114"/>
     <use x="324.720703" xlink:href="#DejaVuSans-102"/>
     <use x="359.925781" xlink:href="#DejaVuSans-111"/>
     <use x="421.107422" xlink:href="#DejaVuSans-114"/>
     <use x="460.470703" xlink:href="#DejaVuSans-109"/>
     <use x="557.882812" xlink:href="#DejaVuSans-97"/>
     <use x="619.162109" xlink:href="#DejaVuSans-110"/>
     <use x="682.541016" xlink:href="#DejaVuSans-99"/>
     <use x="737.521484" xlink:href="#DejaVuSans-101"/>
     <use x="799.044922" xlink:href="#DejaVuSans-32"/>
     <use x="830.832031" xlink:href="#DejaVuSans-58"/>
     <use x="864.523438" xlink:href="#DejaVuSans-32"/>
     <use x="896.310547" xlink:href="#DejaVuSans-76"/>
     <use x="952.023438" xlink:href="#DejaVuSans-50"/>
     <use x="1015.646484" xlink:href="#DejaVuSans-32"/>
     <use x="1047.433594" xlink:href="#DejaVuSans-76"/>
     <use x="1103.146484" xlink:href="#DejaVuSans-105"/>
     <use x="1130.929688" xlink:href="#DejaVuSans-110"/>
     <use x="1194.308594" xlink:href="#DejaVuSans-101"/>
     <use x="1255.832031" xlink:href="#DejaVuSans-115"/>
     <use x="1307.931641" xlink:href="#DejaVuSans-32"/>
     <use x="1339.71875" xlink:href="#DejaVuSans-79"/>
     <use x="1418.429688" xlink:href="#DejaVuSans-117"/>
     <use x="1481.808594" xlink:href="#DejaVuSans-116"/>
    </g>
   </g>
   <g id="legend_1">
    <g id="patch_8">
     <path d="M 54.45 228.881188 
L 112.001563 228.881188 
Q 114.001563 228.881188 114.001563 226.881188 
L 114.001563 183.846812 
Q 114.001563 181.846812 112.001563 181.846812 
L 54.45 181.846812 
Q 52.45 181.846812 52.45 183.846812 
L 52.45 226.881188 
Q 52.45 228.881188 54.45 228.881188 
z
" style="fill:#ffffff;opacity:0.8;stroke:#cccccc;stroke-linejoin:miter;"/>
    </g>
    <g id="line2d_47"/>
    <g id="line2d_48">
     <g>
      <use style="fill:#1f77b4;stroke:#1f77b4;" x="66.45" xlink:href="#mb3218c438a" y="189.94525"/>
     </g>
    </g>
    <g id="text_19">
     <!-- fill0 -->
     <g transform="translate(84.45 193.44525)scale(0.1 -0.1)">
      <use xlink:href="#DejaVuSans-102"/>
      <use x="35.205078" xlink:href="#DejaVuSans-105"/>
      <use x="62.988281" xlink:href="#DejaVuSans-108"/>
      <use x="90.771484" xlink:href="#DejaVuSans-108"/>
      <use x="118.554688" xlink:href="#DejaVuSans-48"/>
     </g>
    </g>
    <g id="line2d_49"/>
    <g id="line2d_50">
     <g>
      <use style="fill:#ff7f0e;stroke:#ff7f0e;" x="66.45" xlink:href="#mc725863d3e" y="204.623375"/>
     </g>
    </g>
    <g id="text_20">
     <!-- fill1 -->
     <g transform="translate(84.45 208.123375)scale(0.1 -0.1)">
      <use xlink:href="#DejaVuSans-102"/>
      <use x="35.205078" xlink:href="#DejaVuSans-105"/>
      <use x="62.988281" xlink:href="#DejaVuSans-108"/>
      <use x="90.771484" xlink:href="#DejaVuSans-108"/>
      <use x="118.554688" xlink:href="#DejaVuSans-49"/>
     </g>
    </g>
    <g id="line2d_51"/>
    <g id="line2d_52">
     <g>
      <use style="fill:#2ca02c;stroke:#2ca02c;" x="66.45" xlink:href="#mab666040d4" y="219.3015"/>
     </g>
    </g>
    <g id="text_21">
     <!-- alt01 -->
     <g transform="translate(84.45 222.8015)scale(0.1 -0.1)">
      <use xlink:href="#DejaVuSans-97"/>
      <use x="61.279297" xlink:href="#DejaVuSans-108"/>
      <use x="89.0625" xlink:href="#DejaVuSans-116"/>
      <use x="128.271484" xlink:href="#DejaVuSans-48"/>
      <use x="191.894531" xlink:href="#DejaVuSans-49"/>
     </g>
    </g>
   </g>
  </g>
  <g id="axes_2">
   <g id="matplotlib.axis_3">
    <g id="ytick_9">
     <g id="line2d_53">
      <defs>
       <path d="M 0 0 
L 3.5 0 
" id="mb351d7cc89" style="stroke:#000000;stroke-width:0.8;"/>
      </defs>
      <g>
       <use style="stroke:#000000;stroke-width:0.8;" x="597.4" xlink:href="#mb351d7cc89" y="367.622182"/>
      </g>
     </g>
     <g id="text_22">
      <!-- 0.0 -->
      <defs>
       <path d="M 10.6875 12.40625 
L 21 12.40625 
L 21 0 
L 10.6875 0 
z
" id="DejaVuSans-46"/>
      </defs>
      <g transform="translate(604.4 371.421401)scale(0.1 -0.1)">
       <use xlink:href="#DejaVuSans-48"/>
       <use x="63.623047" xlink:href="#DejaVuSans-46"/>
       <use x="95.410156" xlink:href="#DejaVuSans-48"/>
      </g>
     </g>
    </g>
    <g id="ytick_10">
     <g id="line2d_54">
      <g>
       <use style="stroke:#000000;stroke-width:0.8;" x="597.4" xlink:href="#mb351d7cc89" y="316.111648"/>
      </g>
     </g>
     <g id="text_23">
      <!-- 0.1 -->
      <g transform="translate(604.4 319.910867)scale(0.1 -0.1)">
       <use xlink:href="#DejaVuSans-48"/>
       <use x="63.623047" xlink:href="#DejaVuSans-46"/>
       <use x="95.410156" xlink:href="#DejaVuSans-49"/>
      </g>
     </g>
    </g>
    <g id="ytick_11">
     <g id="line2d_55">
      <g>
       <use style="stroke:#000000;stroke-width:0.8;" x="597.4" xlink:href="#mb351d7cc89" y="264.601114"/>
      </g>
     </g>
     <g id="text_24">
      <!-- 0.2 -->
      <g transform="translate(604.4 268.400333)scale(0.1 -0.1)">
       <use xlink:href="#DejaVuSans-48"/>
       <use x="63.623047" xlink:href="#DejaVuSans-46"/>
       <use x="95.410156" xlink:href="#DejaVuSans-50"/>
      </g>
     </g>
    </g>
    <g id="ytick_12">
     <g id="line2d_56">
      <g>
       <use style="stroke:#000000;stroke-width:0.8;" x="597.4" xlink:href="#mb351d7cc89" y="213.09058"/>
      </g>
     </g>
     <g id="text_25">
      <!-- 0.3 -->
      <g transform="translate(604.4 216.889799)scale(0.1 -0.1)">
       <use xlink:href="#DejaVuSans-48"/>
       <use x="63.623047" xlink:href="#DejaVuSans-46"/>
       <use x="95.410156" xlink:href="#DejaVuSans-51"/>
      </g>
     </g>
    </g>
    <g id="ytick_13">
     <g id="line2d_57">
      <g>
       <use style="stroke:#000000;stroke-width:0.8;" x="597.4" xlink:href="#mb351d7cc89" y="161.580046"/>
      </g>
     </g>
     <g id="text_26">
      <!-- 0.4 -->
      <g transform="translate(604.4 165.379265)scale(0.1 -0.1)">
       <use xlink:href="#DejaVuSans-48"/>
       <use x="63.623047" xlink:href="#DejaVuSans-46"/>
       <use x="95.410156" xlink:href="#DejaVuSans-52"/>
      </g>
     </g>
    </g>
    <g id="ytick_14">
     <g id="line2d_58">
      <g>
       <use style="stroke:#000000;stroke-width:0.8;" x="597.4" xlink:href="#mb351d7cc89" y="110.069512"/>
      </g>
     </g>
     <g id="text_27">
      <!-- 0.5 -->
      <g transform="translate(604.4 113.868731)scale(0.1 -0.1)">
       <use xlink:href="#DejaVuSans-48"/>
       <use x="63.623047" xlink:href="#DejaVuSans-46"/>
       <use x="95.410156" xlink:href="#DejaVuSans-53"/>
      </g>
     </g>
    </g>
    <g id="ytick_15">
     <g id="line2d_59">
      <g>
       <use style="stroke:#000000;stroke-width:0.8;" x="597.4" xlink:href="#mb351d7cc89" y="58.558978"/>
      </g>
     </g>
     <g id="text_28">
      <!-- 0.6 -->
      <g transform="translate(604.4 62.358197)scale(0.1 -0.1)">
       <use xlink:href="#DejaVuSans-48"/>
       <use x="63.623047" xlink:href="#DejaVuSans-46"/>
       <use x="95.410156" xlink:href="#DejaVuSans-54"/>
      </g>
     </g>
    </g>
    <g id="text_29">
     <!-- Events / Cacheline -->
     <defs>
      <path d="M 9.8125 72.90625 
L 55.90625 72.90625 
L 55.90625 64.59375 
L 19.671875 64.59375 
L 19.671875 43.015625 
L 54.390625 43.015625 
L 54.390625 34.71875 
L 19.671875 34.71875 
L 19.671875 8.296875 
L 56.78125 8.296875 
L 56.78125 0 
L 9.8125 0 
z
" id="DejaVuSans-69"/>
      <path d="M 2.984375 54.6875 
L 12.5 54.6875 
L 29.59375 8.796875 
L 46.6875 54.6875 
L 56.203125 54.6875 
L 35.6875 0 
L 23.484375 0 
z
" id="DejaVuSans-118"/>
      <path d="M 64.40625 67.28125 
L 64.40625 56.890625 
Q 59.421875 61.53125 53.78125 63.8125 
Q 48.140625 66.109375 41.796875 66.109375 
Q 29.296875 66.109375 22.65625 58.46875 
Q 16.015625 50.828125 16.015625 36.375 
Q 16.015625 21.96875 22.65625 14.328125 
Q 29.296875 6.6875 41.796875 6.6875 
Q 48.140625 6.6875 53.78125 8.984375 
Q 59.421875 11.28125 64.40625 15.921875 
L 64.40625 5.609375 
Q 59.234375 2.09375 53.4375 0.328125 
Q 47.65625 -1.421875 41.21875 -1.421875 
Q 24.65625 -1.421875 15.125 8.703125 
Q 5.609375 18.84375 5.609375 36.375 
Q 5.609375 53.953125 15.125 64.078125 
Q 24.65625 74.21875 41.21875 74.21875 
Q 47.75 74.21875 53.53125 72.484375 
Q 59.328125 70.75 64.40625 67.28125 
z
" id="DejaVuSans-67"/>
      <path d="M 54.890625 33.015625 
L 54.890625 0 
L 45.90625 0 
L 45.90625 32.71875 
Q 45.90625 40.484375 42.875 44.328125 
Q 39.84375 48.1875 33.796875 48.1875 
Q 26.515625 48.1875 22.3125 43.546875 
Q 18.109375 38.921875 18.109375 30.90625 
L 18.109375 0 
L 9.078125 0 
L 9.078125 75.984375 
L 18.109375 75.984375 
L 18.109375 46.1875 
Q 21.34375 51.125 25.703125 53.5625 
Q 30.078125 56 35.796875 56 
Q 45.21875 56 50.046875 50.171875 
Q 54.890625 44.34375 54.890625 33.015625 
z
" id="DejaVuSans-104"/>
     </defs>
     <g transform="translate(633.42125 261.001813)rotate(-90)scale(0.12 -0.12)">
      <use xlink:href="#DejaVuSans-69"/>
      <use x="63.183594" xlink:href="#DejaVuSans-118"/>
      <use x="122.363281" xlink:href="#DejaVuSans-101"/>
      <use x="183.886719" xlink:href="#DejaVuSans-110"/>
      <use x="247.265625" xlink:href="#DejaVuSans-116"/>
      <use x="286.474609" xlink:href="#DejaVuSans-115"/>
      <use x="338.574219" xlink:href="#DejaVuSans-32"/>
      <use x="370.361328" xlink:href="#DejaVuSans-47"/>
      <use x="404.052734" xlink:href="#DejaVuSans-32"/>
      <use x="435.839844" xlink:href="#DejaVuSans-67"/>
      <use x="505.664062" xlink:href="#DejaVuSans-97"/>
      <use x="566.943359" xlink:href="#DejaVuSans-99"/>
      <use x="621.923828" xlink:href="#DejaVuSans-104"/>
      <use x="685.302734" xlink:href="#DejaVuSans-101"/>
      <use x="746.826172" xlink:href="#DejaVuSans-108"/>
      <use x="774.609375" xlink:href="#DejaVuSans-105"/>
      <use x="802.392578" xlink:href="#DejaVuSans-110"/>
      <use x="865.771484" xlink:href="#DejaVuSans-101"/>
     </g>
    </g>
   </g>
   <g id="line2d_60">
    <path clip-path="url(#p393b8ef0be)" d="M 72.447727 367.622182 
L 78.544785 367.622182 
L 84.641842 367.622182 
L 90.7389 367.622182 
L 96.835957 367.622182 
L 102.932617 367.622182 
L 109.027869 367.622182 
L 115.126568 367.622182 
L 121.221536 367.622182 
L 127.31995 367.622182 
L 133.414788 367.622182 
L 139.512742 367.622182 
L 145.6098 367.622182 
L 151.706301 367.622182 
L 157.80319 362.471128 
L 163.899788 341.866915 
L 169.996846 331.564808 
L 176.094283 336.715861 
L 182.19111 331.564808 
L 188.288586 310.960595 
L 194.385073 316.111648 
L 200.482044 285.205328 
L 206.579259 207.939527 
L 212.676459 151.277939 
L 218.773646 110.069512 
L 224.870586 89.465299 
L 230.967589 53.407925 
L 237.064403 43.105818 
L 243.161372 43.105818 
L 249.258389 43.105818 
L 255.355409 43.105818 
L 261.4527 43.105818 
L 267.549697 43.105818 
L 273.646617 43.105818 
L 279.743749 43.105818 
L 285.840784 43.105818 
L 291.937697 43.105818 
L 298.03481 43.105818 
L 304.131902 43.105818 
L 310.22896 43.105818 
L 316.325989 43.105818 
L 322.422995 43.105818 
L 328.520052 43.105818 
L 334.617088 43.105818 
L 340.714223 43.105818 
L 346.811201 43.105818 
L 352.908275 43.105818 
L 359.005303 43.105818 
L 365.102374 43.105818 
L 371.199431 48.256872 
L 377.296483 53.407925 
L 383.393526 68.861085 
L 389.490601 84.314245 
L 395.587667 104.918459 
L 401.684717 130.673726 
L 407.781744 161.580046 
L 413.878805 177.033206 
L 419.975873 197.63742 
L 426.07291 218.241633 
L 432.169982 233.694794 
L 438.267026 249.147954 
L 444.364086 259.450061 
L 450.461141 269.752167 
L 456.5582 280.054274 
L 462.655246 290.356381 
L 468.752309 295.507434 
L 474.849368 300.658488 
L 480.946417 310.960595 
L 487.043474 316.111648 
L 493.140531 321.262701 
L 499.237588 326.413755 
L 505.334648 326.413755 
L 511.431705 331.564808 
L 517.528758 336.715861 
L 523.625816 336.715861 
L 529.722872 341.866915 
L 535.819931 341.866915 
L 541.916989 347.017968 
L 548.014046 347.017968 
L 554.111101 347.017968 
L 560.208159 352.169022 
L 566.305217 352.169022 
L 572.402273 352.169022 
" style="fill:none;stroke:#d62728;stroke-linecap:square;stroke-width:1.5;"/>
   </g>
   <g id="line2d_61">
    <path clip-path="url(#p393b8ef0be)" d="M 72.447727 367.622182 
L 78.544785 367.622182 
L 84.641842 367.622182 
L 90.7389 367.622182 
L 96.835957 367.622182 
L 102.932617 367.622182 
L 109.027869 367.622182 
L 115.126568 367.622182 
L 121.221536 367.622182 
L 127.31995 367.622182 
L 133.414788 367.622182 
L 139.512742 367.622182 
L 145.6098 367.622182 
L 151.706301 367.622182 
L 157.80319 362.471128 
L 163.899788 357.320075 
L 169.996846 362.471128 
L 176.094283 367.622182 
L 182.19111 362.471128 
L 188.288586 362.471128 
L 194.385073 362.471128 
L 200.482044 362.471128 
L 206.579259 362.471128 
L 212.676459 362.471128 
L 218.773646 367.622182 
L 224.870586 367.622182 
L 230.967589 362.471128 
L 237.064403 367.622182 
L 243.161372 367.622182 
L 249.258389 367.622182 
L 255.355409 367.622182 
L 261.4527 367.622182 
L 267.549697 367.622182 
L 273.646617 367.622182 
L 279.743749 367.622182 
L 285.840784 367.622182 
L 291.937697 367.622182 
L 298.03481 367.622182 
L 304.131902 367.622182 
L 310.22896 367.622182 
L 316.325989 367.622182 
L 322.422995 367.622182 
L 328.520052 367.622182 
L 334.617088 367.622182 
L 340.714223 367.622182 
L 346.811201 367.622182 
L 352.908275 367.622182 
L 359.005303 367.622182 
L 365.102374 367.622182 
L 371.199431 367.622182 
L 377.296483 367.622182 
L 383.393526 367.622182 
L 389.490601 367.622182 
L 395.587667 367.622182 
L 401.684717 362.471128 
L 407.781744 362.471128 
L 413.878805 367.622182 
L 419.975873 367.622182 
L 426.07291 367.622182 
L 432.169982 367.622182 
L 438.267026 367.622182 
L 444.364086 367.622182 
L 450.461141 367.622182 
L 456.5582 367.622182 
L 462.655246 367.622182 
L 468.752309 367.622182 
L 474.849368 367.622182 
L 480.946417 367.622182 
L 487.043474 367.622182 
L 493.140531 367.622182 
L 499.237588 367.622182 
L 505.334648 367.622182 
L 511.431705 367.622182 
L 517.528758 367.622182 
L 523.625816 367.622182 
L 529.722872 367.622182 
L 535.819931 367.622182 
L 541.916989 367.622182 
L 548.014046 367.622182 
L 554.111101 367.622182 
L 560.208159 367.622182 
L 566.305217 367.622182 
L 572.402273 367.622182 
" style="fill:none;stroke:#9467bd;stroke-linecap:square;stroke-width:1.5;"/>
   </g>
   <g id="line2d_62">
    <path clip-path="url(#p393b8ef0be)" d="M 72.447727 367.622182 
L 78.544785 367.622182 
L 84.641842 367.622182 
L 90.7389 367.622182 
L 96.835957 367.622182 
L 102.932617 367.622182 
L 109.027869 367.622182 
L 115.126568 367.622182 
L 121.221536 367.622182 
L 127.31995 367.622182 
L 133.414788 367.622182 
L 139.512742 367.622182 
L 145.6098 367.622182 
L 151.706301 367.622182 
L 157.80319 362.471128 
L 163.899788 352.169022 
L 169.996846 347.017968 
L 176.094283 352.169022 
L 182.19111 347.017968 
L 188.288586 341.866915 
L 194.385073 341.866915 
L 200.482044 326.413755 
L 206.579259 295.507434 
L 212.676459 269.752167 
L 218.773646 249.147954 
L 224.870586 243.9969 
L 230.967589 233.694794 
L 237.064403 228.54374 
L 243.161372 228.54374 
L 249.258389 228.54374 
L 255.355409 228.54374 
L 261.4527 228.54374 
L 267.549697 228.54374 
L 273.646617 228.54374 
L 279.743749 228.54374 
L 285.840784 228.54374 
L 291.937697 228.54374 
L 298.03481 228.54374 
L 304.131902 228.54374 
L 310.22896 228.54374 
L 316.325989 228.54374 
L 322.422995 228.54374 
L 328.520052 228.54374 
L 334.617088 228.54374 
L 340.714223 228.54374 
L 346.811201 228.54374 
L 352.908275 228.54374 
L 359.005303 228.54374 
L 365.102374 228.54374 
L 371.199431 228.54374 
L 377.296483 233.694794 
L 383.393526 238.845847 
L 389.490601 243.9969 
L 395.587667 249.147954 
L 401.684717 254.299007 
L 407.781744 264.601114 
L 413.878805 274.903221 
L 419.975873 280.054274 
L 426.07291 290.356381 
L 432.169982 300.658488 
L 438.267026 305.809541 
L 444.364086 316.111648 
L 450.461141 321.262701 
L 456.5582 326.413755 
L 462.655246 331.564808 
L 468.752309 331.564808 
L 474.849368 336.715861 
L 480.946417 341.866915 
L 487.043474 341.866915 
L 493.140531 341.866915 
L 499.237588 347.017968 
L 505.334648 347.017968 
L 511.431705 352.169022 
L 517.528758 352.169022 
L 523.625816 352.169022 
L 529.722872 352.169022 
L 535.819931 357.320075 
L 541.916989 357.320075 
L 548.014046 357.320075 
L 554.111101 357.320075 
L 560.208159 357.320075 
L 566.305217 357.320075 
L 572.402273 362.471128 
" style="fill:none;stroke:#8c564b;stroke-linecap:square;stroke-width:1.5;"/>
   </g>
   <g id="patch_9">
    <path d="M 47.45 383.848 
L 47.45 26.88 
" style="fill:none;stroke:#000000;stroke-linecap:square;stroke-linejoin:miter;stroke-width:0.8;"/>
   </g>
   <g id="patch_10">
    <path d="M 597.4 383.848 
L 597.4 26.88 
" style="fill:none;stroke:#000000;stroke-linecap:square;stroke-linejoin:miter;stroke-width:0.8;"/>
   </g>
   <g id="patch_11">
    <path d="M 47.45 383.848 
L 597.4 383.848 
" style="fill:none;stroke:#000000;stroke-linecap:square;stroke-linejoin:miter;stroke-width:0.8;"/>
   </g>
   <g id="patch_12">
    <path d="M 47.45 26.88 
L 597.4 26.88 
" style="fill:none;stroke:#000000;stroke-linecap:square;stroke-linejoin:miter;stroke-width:0.8;"/>
   </g>
   <g id="legend_2">
    <g id="patch_13">
     <path d="M 479.695312 228.881188 
L 590.4 228.881188 
Q 592.4 228.881188 592.4 226.881188 
L 592.4 183.846812 
Q 592.4 181.846812 590.4 181.846812 
L 479.695312 181.846812 
Q 477.695312 181.846812 477.695312 183.846812 
L 477.695312 226.881188 
Q 477.695312 228.881188 479.695312 228.881188 
z
" style="fill:#ffffff;opacity:0.8;stroke:#cccccc;stroke-linejoin:miter;"/>
    </g>
    <g id="line2d_63">
     <path d="M 481.695312 189.94525 
L 501.695312 189.94525 
" style="fill:none;stroke:#d62728;stroke-linecap:square;stroke-width:1.5;"/>
    </g>
    <g id="line2d_64"/>
    <g id="text_30">
     <!-- fill0 : L2 Silent -->
     <g transform="translate(509.695312 193.44525)scale(0.1 -0.1)">
      <use xlink:href="#DejaVuSans-102"/>
      <use x="35.205078" xlink:href="#DejaVuSans-105"/>
      <use x="62.988281" xlink:href="#DejaVuSans-108"/>
      <use x="90.771484" xlink:href="#DejaVuSans-108"/>
      <use x="118.554688" xlink:href="#DejaVuSans-48"/>
      <use x="182.177734" xlink:href="#DejaVuSans-32"/>
      <use x="213.964844" xlink:href="#DejaVuSans-58"/>
      <use x="247.65625" xlink:href="#DejaVuSans-32"/>
      <use x="279.443359" xlink:href="#DejaVuSans-76"/>
      <use x="335.15625" xlink:href="#DejaVuSans-50"/>
      <use x="398.779297" xlink:href="#DejaVuSans-32"/>
      <use x="430.566406" xlink:href="#DejaVuSans-83"/>
      <use x="494.042969" xlink:href="#DejaVuSans-105"/>
      <use x="521.826172" xlink:href="#DejaVuSans-108"/>
      <use x="549.609375" xlink:href="#DejaVuSans-101"/>
      <use x="611.132812" xlink:href="#DejaVuSans-110"/>
      <use x="674.511719" xlink:href="#DejaVuSans-116"/>
     </g>
    </g>
    <g id="line2d_65">
     <path d="M 481.695312 204.623375 
L 501.695312 204.623375 
" style="fill:none;stroke:#9467bd;stroke-linecap:square;stroke-width:1.5;"/>
    </g>
    <g id="line2d_66"/>
    <g id="text_31">
     <!-- fill1 : L2 Silent -->
     <g transform="translate(509.695312 208.123375)scale(0.1 -0.1)">
      <use xlink:href="#DejaVuSans-102"/>
      <use x="35.205078" xlink:href="#DejaVuSans-105"/>
      <use x="62.988281" xlink:href="#DejaVuSans-108"/>
      <use x="90.771484" xlink:href="#DejaVuSans-108"/>
      <use x="118.554688" xlink:href="#DejaVuSans-49"/>
      <use x="182.177734" xlink:href="#DejaVuSans-32"/>
      <use x="213.964844" xlink:href="#DejaVuSans-58"/>
      <use x="247.65625" xlink:href="#DejaVuSans-32"/>
      <use x="279.443359" xlink:href="#DejaVuSans-76"/>
      <use x="335.15625" xlink:href="#DejaVuSans-50"/>
      <use x="398.779297" xlink:href="#DejaVuSans-32"/>
      <use x="430.566406" xlink:href="#DejaVuSans-83"/>
      <use x="494.042969" xlink:href="#DejaVuSans-105"/>
      <use x="521.826172" xlink:href="#DejaVuSans-108"/>
      <use x="549.609375" xlink:href="#DejaVuSans-101"/>
      <use x="611.132812" xlink:href="#DejaVuSans-110"/>
      <use x="674.511719" xlink:href="#DejaVuSans-116"/>
     </g>
    </g>
    <g id="line2d_67">
     <path d="M 481.695312 219.3015 
L 501.695312 219.3015 
" style="fill:none;stroke:#8c564b;stroke-linecap:square;stroke-width:1.5;"/>
    </g>
    <g id="line2d_68"/>
    <g id="text_32">
     <!-- alt01 : L2 Silent -->
     <g transform="translate(509.695312 222.8015)scale(0.1 -0.1)">
      <use xlink:href="#DejaVuSans-97"/>
      <use x="61.279297" xlink:href="#DejaVuSans-108"/>
      <use x="89.0625" xlink:href="#DejaVuSans-116"/>
      <use x="128.271484" xlink:href="#DejaVuSans-48"/>
      <use x="191.894531" xlink:href="#DejaVuSans-49"/>
      <use x="255.517578" xlink:href="#DejaVuSans-32"/>
      <use x="287.304688" xlink:href="#DejaVuSans-58"/>
      <use x="320.996094" xlink:href="#DejaVuSans-32"/>
      <use x="352.783203" xlink:href="#DejaVuSans-76"/>
      <use x="408.496094" xlink:href="#DejaVuSans-50"/>
      <use x="472.119141" xlink:href="#DejaVuSans-32"/>
      <use x="503.90625" xlink:href="#DejaVuSans-83"/>
      <use x="567.382812" xlink:href="#DejaVuSans-105"/>
      <use x="595.166016" xlink:href="#DejaVuSans-108"/>
      <use x="622.949219" xlink:href="#DejaVuSans-101"/>
      <use x="684.472656" xlink:href="#DejaVuSans-110"/>
      <use x="747.851562" xlink:href="#DejaVuSans-116"/>
     </g>
    </g>
   </g>
  </g>
 </g>
 <defs>
  <clipPath id="p393b8ef0be">
   <rect height="356.968" width="549.95" x="47.45" y="26.88"/>
  </clipPath>
 </defs>
</svg>
