<?xml version="1.0" encoding="utf-8" standalone="no"?>
<!DOCTYPE svg PUBLIC "-//W3C//DTD SVG 1.1//EN"
  "http://www.w3.org/Graphics/SVG/1.1/DTD/svg11.dtd">
<!-- Created with matplotlib (https://matplotlib.org/) -->
<svg height="432pt" version="1.1" viewBox="0 0 648 432" width="648pt" xmlns="http://www.w3.org/2000/svg" xmlns:xlink="http://www.w3.org/1999/xlink">
 <defs>
  <style type="text/css">
*{stroke-linecap:butt;stroke-linejoin:round;}
  </style>
 </defs>
 <g id="figure_1">
  <g id="patch_1">
   <path d="M 0 432 
L 648 432 
L 648 0 
L 0 0 
z
" style="fill:#ffffff;"/>
  </g>
  <g id="axes_1">
   <g id="patch_2">
    <path d="M 47.45 383.848 
L 597.4 383.848 
L 597.4 26.88 
L 47.45 26.88 
z
" style="fill:#ffffff;"/>
   </g>
   <g id="patch_3">
    <path clip-path="url(#pcddf649632)" d="M 63.013519 531.29451 
L 285.289105 531.29451 
L 285.289105 26.88 
L 63.013519 26.88 
z
" style="fill:#f5f5f5;stroke:#f5f5f5;stroke-linejoin:miter;"/>
   </g>
   <g id="matplotlib.axis_1">
    <g id="xtick_1">
     <g id="line2d_1">
      <defs>
       <path d="M 0 0 
L 0 3.5 
" id="md189ecc349" style="stroke:#000000;stroke-width:0.8;"/>
      </defs>
      <g>
       <use style="stroke:#000000;stroke-width:0.8;" x="156.654533" xlink:href="#md189ecc349" y="383.848"/>
      </g>
     </g>
     <g id="text_1">
      <!-- $\mathdefault{10^{6}}$ -->
      <defs>
       <path d="M 12.40625 8.296875 
L 28.515625 8.296875 
L 28.515625 63.921875 
L 10.984375 60.40625 
L 10.984375 69.390625 
L 28.421875 72.90625 
L 38.28125 72.90625 
L 38.28125 8.296875 
L 54.390625 8.296875 
L 54.390625 0 
L 12.40625 0 
z
" id="DejaVuSans-49"/>
       <path d="M 31.78125 66.40625 
Q 24.171875 66.40625 20.328125 58.90625 
Q 16.5 51.421875 16.5 36.375 
Q 16.5 21.390625 20.328125 13.890625 
Q 24.171875 6.390625 31.78125 6.390625 
Q 39.453125 6.390625 43.28125 13.890625 
Q 47.125 21.390625 47.125 36.375 
Q 47.125 51.421875 43.28125 58.90625 
Q 39.453125 66.40625 31.78125 66.40625 
z
M 31.78125 74.21875 
Q 44.046875 74.21875 50.515625 64.515625 
Q 56.984375 54.828125 56.984375 36.375 
Q 56.984375 17.96875 50.515625 8.265625 
Q 44.046875 -1.421875 31.78125 -1.421875 
Q 19.53125 -1.421875 13.0625 8.265625 
Q 6.59375 17.96875 6.59375 36.375 
Q 6.59375 54.828125 13.0625 64.515625 
Q 19.53125 74.21875 31.78125 74.21875 
z
" id="DejaVuSans-48"/>
       <path d="M 33.015625 40.375 
Q 26.375 40.375 22.484375 35.828125 
Q 18.609375 31.296875 18.609375 23.390625 
Q 18.609375 15.53125 22.484375 10.953125 
Q 26.375 6.390625 33.015625 6.390625 
Q 39.65625 6.390625 43.53125 10.953125 
Q 47.40625 15.53125 47.40625 23.390625 
Q 47.40625 31.296875 43.53125 35.828125 
Q 39.65625 40.375 33.015625 40.375 
z
M 52.59375 71.296875 
L 52.59375 62.3125 
Q 48.875 64.0625 45.09375 64.984375 
Q 41.3125 65.921875 37.59375 65.921875 
Q 27.828125 65.921875 22.671875 59.328125 
Q 17.53125 52.734375 16.796875 39.40625 
Q 19.671875 43.65625 24.015625 45.921875 
Q 28.375 48.1875 33.59375 48.1875 
Q 44.578125 48.1875 50.953125 41.515625 
Q 57.328125 34.859375 57.328125 23.390625 
Q 57.328125 12.15625 50.6875 5.359375 
Q 44.046875 -1.421875 33.015625 -1.421875 
Q 20.359375 -1.421875 13.671875 8.265625 
Q 6.984375 17.96875 6.984375 36.375 
Q 6.984375 53.65625 15.1875 63.9375 
Q 23.390625 74.21875 37.203125 74.21875 
Q 40.921875 74.21875 44.703125 73.484375 
Q 48.484375 72.75 52.59375 71.296875 
z
" id="DejaVuSans-54"/>
      </defs>
      <g transform="translate(147.854533 398.446438)scale(0.1 -0.1)">
       <use transform="translate(0 0.765625)" xlink:href="#DejaVuSans-49"/>
       <use transform="translate(63.623047 0.765625)" xlink:href="#DejaVuSans-48"/>
       <use transform="translate(128.203125 39.046875)scale(0.7)" xlink:href="#DejaVuSans-54"/>
      </g>
     </g>
    </g>
    <g id="xtick_2">
     <g id="line2d_2">
      <g>
       <use style="stroke:#000000;stroke-width:0.8;" x="317.699146" xlink:href="#md189ecc349" y="383.848"/>
      </g>
     </g>
     <g id="text_2">
      <!-- $\mathdefault{10^{7}}$ -->
      <defs>
       <path d="M 8.203125 72.90625 
L 55.078125 72.90625 
L 55.078125 68.703125 
L 28.609375 0 
L 18.3125 0 
L 43.21875 64.59375 
L 8.203125 64.59375 
z
" id="DejaVuSans-55"/>
      </defs>
      <g transform="translate(308.899146 398.446438)scale(0.1 -0.1)">
       <use transform="translate(0 0.684375)" xlink:href="#DejaVuSans-49"/>
       <use transform="translate(63.623047 0.684375)" xlink:href="#DejaVuSans-48"/>
       <use transform="translate(128.203125 38.965625)scale(0.7)" xlink:href="#DejaVuSans-55"/>
      </g>
     </g>
    </g>
    <g id="xtick_3">
     <g id="line2d_3">
      <g>
       <use style="stroke:#000000;stroke-width:0.8;" x="478.743759" xlink:href="#md189ecc349" y="383.848"/>
      </g>
     </g>
     <g id="text_3">
      <!-- $\mathdefault{10^{8}}$ -->
      <defs>
       <path d="M 31.78125 34.625 
Q 24.75 34.625 20.71875 30.859375 
Q 16.703125 27.09375 16.703125 20.515625 
Q 16.703125 13.921875 20.71875 10.15625 
Q 24.75 6.390625 31.78125 6.390625 
Q 38.8125 6.390625 42.859375 10.171875 
Q 46.921875 13.96875 46.921875 20.515625 
Q 46.921875 27.09375 42.890625 30.859375 
Q 38.875 34.625 31.78125 34.625 
z
M 21.921875 38.8125 
Q 15.578125 40.375 12.03125 44.71875 
Q 8.5 49.078125 8.5 55.328125 
Q 8.5 64.0625 14.71875 69.140625 
Q 20.953125 74.21875 31.78125 74.21875 
Q 42.671875 74.21875 48.875 69.140625 
Q 55.078125 64.0625 55.078125 55.328125 
Q 55.078125 49.078125 51.53125 44.71875 
Q 48 40.375 41.703125 38.8125 
Q 48.828125 37.15625 52.796875 32.3125 
Q 56.78125 27.484375 56.78125 20.515625 
Q 56.78125 9.90625 50.3125 4.234375 
Q 43.84375 -1.421875 31.78125 -1.421875 
Q 19.734375 -1.421875 13.25 4.234375 
Q 6.78125 9.90625 6.78125 20.515625 
Q 6.78125 27.484375 10.78125 32.3125 
Q 14.796875 37.15625 21.921875 38.8125 
z
M 18.3125 54.390625 
Q 18.3125 48.734375 21.84375 45.5625 
Q 25.390625 42.390625 31.78125 42.390625 
Q 38.140625 42.390625 41.71875 45.5625 
Q 45.3125 48.734375 45.3125 54.390625 
Q 45.3125 60.0625 41.71875 63.234375 
Q 38.140625 66.40625 31.78125 66.40625 
Q 25.390625 66.40625 21.84375 63.234375 
Q 18.3125 60.0625 18.3125 54.390625 
z
" id="DejaVuSans-56"/>
      </defs>
      <g transform="translate(469.943759 398.446438)scale(0.1 -0.1)">
       <use transform="translate(0 0.765625)" xlink:href="#DejaVuSans-49"/>
       <use transform="translate(63.623047 0.765625)" xlink:href="#DejaVuSans-48"/>
       <use transform="translate(128.203125 39.046875)scale(0.7)" xlink:href="#DejaVuSans-56"/>
      </g>
     </g>
    </g>
    <g id="xtick_4">
     <g id="line2d_4">
      <defs>
       <path d="M 0 0 
L 0 2 
" id="m200e8bf34f" style="stroke:#000000;stroke-width:0.6;"/>
      </defs>
      <g>
       <use style="stroke:#000000;stroke-width:0.6;" x="72.447727" xlink:href="#m200e8bf34f" y="383.848"/>
      </g>
     </g>
    </g>
    <g id="xtick_5">
     <g id="line2d_5">
      <g>
       <use style="stroke:#000000;stroke-width:0.6;" x="92.568438" xlink:href="#m200e8bf34f" y="383.848"/>
      </g>
     </g>
    </g>
    <g id="xtick_6">
     <g id="line2d_6">
      <g>
       <use style="stroke:#000000;stroke-width:0.6;" x="108.175273" xlink:href="#m200e8bf34f" y="383.848"/>
      </g>
     </g>
    </g>
    <g id="xtick_7">
     <g id="line2d_7">
      <g>
       <use style="stroke:#000000;stroke-width:0.6;" x="120.926987" xlink:href="#m200e8bf34f" y="383.848"/>
      </g>
     </g>
    </g>
    <g id="xtick_8">
     <g id="line2d_8">
      <g>
       <use style="stroke:#000000;stroke-width:0.6;" x="131.708406" xlink:href="#m200e8bf34f" y="383.848"/>
      </g>
     </g>
    </g>
    <g id="xtick_9">
     <g id="line2d_9">
      <g>
       <use style="stroke:#000000;stroke-width:0.6;" x="141.047697" xlink:href="#m200e8bf34f" y="383.848"/>
      </g>
     </g>
    </g>
    <g id="xtick_10">
     <g id="line2d_10">
      <g>
       <use style="stroke:#000000;stroke-width:0.6;" x="149.285535" xlink:href="#m200e8bf34f" y="383.848"/>
      </g>
     </g>
    </g>
    <g id="xtick_11">
     <g id="line2d_11">
      <g>
       <use style="stroke:#000000;stroke-width:0.6;" x="205.133792" xlink:href="#m200e8bf34f" y="383.848"/>
      </g>
     </g>
    </g>
    <g id="xtick_12">
     <g id="line2d_12">
      <g>
       <use style="stroke:#000000;stroke-width:0.6;" x="233.492341" xlink:href="#m200e8bf34f" y="383.848"/>
      </g>
     </g>
    </g>
    <g id="xtick_13">
     <g id="line2d_13">
      <g>
       <use style="stroke:#000000;stroke-width:0.6;" x="253.613051" xlink:href="#m200e8bf34f" y="383.848"/>
      </g>
     </g>
    </g>
    <g id="xtick_14">
     <g id="line2d_14">
      <g>
       <use style="stroke:#000000;stroke-width:0.6;" x="269.219887" xlink:href="#m200e8bf34f" y="383.848"/>
      </g>
     </g>
    </g>
    <g id="xtick_15">
     <g id="line2d_15">
      <g>
       <use style="stroke:#000000;stroke-width:0.6;" x="281.9716" xlink:href="#m200e8bf34f" y="383.848"/>
      </g>
     </g>
    </g>
    <g id="xtick_16">
     <g id="line2d_16">
      <g>
       <use style="stroke:#000000;stroke-width:0.6;" x="292.75302" xlink:href="#m200e8bf34f" y="383.848"/>
      </g>
     </g>
    </g>
    <g id="xtick_17">
     <g id="line2d_17">
      <g>
       <use style="stroke:#000000;stroke-width:0.6;" x="302.09231" xlink:href="#m200e8bf34f" y="383.848"/>
      </g>
     </g>
    </g>
    <g id="xtick_18">
     <g id="line2d_18">
      <g>
       <use style="stroke:#000000;stroke-width:0.6;" x="310.330148" xlink:href="#m200e8bf34f" y="383.848"/>
      </g>
     </g>
    </g>
    <g id="xtick_19">
     <g id="line2d_19">
      <g>
       <use style="stroke:#000000;stroke-width:0.6;" x="366.178405" xlink:href="#m200e8bf34f" y="383.848"/>
      </g>
     </g>
    </g>
    <g id="xtick_20">
     <g id="line2d_20">
      <g>
       <use style="stroke:#000000;stroke-width:0.6;" x="394.536954" xlink:href="#m200e8bf34f" y="383.848"/>
      </g>
     </g>
    </g>
    <g id="xtick_21">
     <g id="line2d_21">
      <g>
       <use style="stroke:#000000;stroke-width:0.6;" x="414.657664" xlink:href="#m200e8bf34f" y="383.848"/>
      </g>
     </g>
    </g>
    <g id="xtick_22">
     <g id="line2d_22">
      <g>
       <use style="stroke:#000000;stroke-width:0.6;" x="430.2645" xlink:href="#m200e8bf34f" y="383.848"/>
      </g>
     </g>
    </g>
    <g id="xtick_23">
     <g id="line2d_23">
      <g>
       <use style="stroke:#000000;stroke-width:0.6;" x="443.016213" xlink:href="#m200e8bf34f" y="383.848"/>
      </g>
     </g>
    </g>
    <g id="xtick_24">
     <g id="line2d_24">
      <g>
       <use style="stroke:#000000;stroke-width:0.6;" x="453.797633" xlink:href="#m200e8bf34f" y="383.848"/>
      </g>
     </g>
    </g>
    <g id="xtick_25">
     <g id="line2d_25">
      <g>
       <use style="stroke:#000000;stroke-width:0.6;" x="463.136924" xlink:href="#m200e8bf34f" y="383.848"/>
      </g>
     </g>
    </g>
    <g id="xtick_26">
     <g id="line2d_26">
      <g>
       <use style="stroke:#000000;stroke-width:0.6;" x="471.374762" xlink:href="#m200e8bf34f" y="383.848"/>
      </g>
     </g>
    </g>
    <g id="xtick_27">
     <g id="line2d_27">
      <g>
       <use style="stroke:#000000;stroke-width:0.6;" x="527.223018" xlink:href="#m200e8bf34f" y="383.848"/>
      </g>
     </g>
    </g>
    <g id="xtick_28">
     <g id="line2d_28">
      <g>
       <use style="stroke:#000000;stroke-width:0.6;" x="555.581567" xlink:href="#m200e8bf34f" y="383.848"/>
      </g>
     </g>
    </g>
    <g id="xtick_29">
     <g id="line2d_29">
      <g>
       <use style="stroke:#000000;stroke-width:0.6;" x="575.702278" xlink:href="#m200e8bf34f" y="383.848"/>
      </g>
     </g>
    </g>
    <g id="xtick_30">
     <g id="line2d_30">
      <g>
       <use style="stroke:#000000;stroke-width:0.6;" x="591.309113" xlink:href="#m200e8bf34f" y="383.848"/>
      </g>
     </g>
    </g>
    <g id="text_4">
     <!-- Region Size (bytes) -->
     <defs>
      <path d="M 44.390625 34.1875 
Q 47.5625 33.109375 50.5625 29.59375 
Q 53.5625 26.078125 56.59375 19.921875 
L 66.609375 0 
L 56 0 
L 46.6875 18.703125 
Q 43.0625 26.03125 39.671875 28.421875 
Q 36.28125 30.8125 30.421875 30.8125 
L 19.671875 30.8125 
L 19.671875 0 
L 9.8125 0 
L 9.8125 72.90625 
L 32.078125 72.90625 
Q 44.578125 72.90625 50.734375 67.671875 
Q 56.890625 62.453125 56.890625 51.90625 
Q 56.890625 45.015625 53.6875 40.46875 
Q 50.484375 35.9375 44.390625 34.1875 
z
M 19.671875 64.796875 
L 19.671875 38.921875 
L 32.078125 38.921875 
Q 39.203125 38.921875 42.84375 42.21875 
Q 46.484375 45.515625 46.484375 51.90625 
Q 46.484375 58.296875 42.84375 61.546875 
Q 39.203125 64.796875 32.078125 64.796875 
z
" id="DejaVuSans-82"/>
      <path d="M 56.203125 29.59375 
L 56.203125 25.203125 
L 14.890625 25.203125 
Q 15.484375 15.921875 20.484375 11.0625 
Q 25.484375 6.203125 34.421875 6.203125 
Q 39.59375 6.203125 44.453125 7.46875 
Q 49.3125 8.734375 54.109375 11.28125 
L 54.109375 2.78125 
Q 49.265625 0.734375 44.1875 -0.34375 
Q 39.109375 -1.421875 33.890625 -1.421875 
Q 20.796875 -1.421875 13.15625 6.1875 
Q 5.515625 13.8125 5.515625 26.8125 
Q 5.515625 40.234375 12.765625 48.109375 
Q 20.015625 56 32.328125 56 
Q 43.359375 56 49.78125 48.890625 
Q 56.203125 41.796875 56.203125 29.59375 
z
M 47.21875 32.234375 
Q 47.125 39.59375 43.09375 43.984375 
Q 39.0625 48.390625 32.421875 48.390625 
Q 24.90625 48.390625 20.390625 44.140625 
Q 15.875 39.890625 15.1875 32.171875 
z
" id="DejaVuSans-101"/>
      <path d="M 45.40625 27.984375 
Q 45.40625 37.75 41.375 43.109375 
Q 37.359375 48.484375 30.078125 48.484375 
Q 22.859375 48.484375 18.828125 43.109375 
Q 14.796875 37.75 14.796875 27.984375 
Q 14.796875 18.265625 18.828125 12.890625 
Q 22.859375 7.515625 30.078125 7.515625 
Q 37.359375 7.515625 41.375 12.890625 
Q 45.40625 18.265625 45.40625 27.984375 
z
M 54.390625 6.78125 
Q 54.390625 -7.171875 48.1875 -13.984375 
Q 42 -20.796875 29.203125 -20.796875 
Q 24.46875 -20.796875 20.265625 -20.09375 
Q 16.0625 -19.390625 12.109375 -17.921875 
L 12.109375 -9.1875 
Q 16.0625 -11.328125 19.921875 -12.34375 
Q 23.78125 -13.375 27.78125 -13.375 
Q 36.625 -13.375 41.015625 -8.765625 
Q 45.40625 -4.15625 45.40625 5.171875 
L 45.40625 9.625 
Q 42.625 4.78125 38.28125 2.390625 
Q 33.9375 0 27.875 0 
Q 17.828125 0 11.671875 7.65625 
Q 5.515625 15.328125 5.515625 27.984375 
Q 5.515625 40.671875 11.671875 48.328125 
Q 17.828125 56 27.875 56 
Q 33.9375 56 38.28125 53.609375 
Q 42.625 51.21875 45.40625 46.390625 
L 45.40625 54.6875 
L 54.390625 54.6875 
z
" id="DejaVuSans-103"/>
      <path d="M 9.421875 54.6875 
L 18.40625 54.6875 
L 18.40625 0 
L 9.421875 0 
z
M 9.421875 75.984375 
L 18.40625 75.984375 
L 18.40625 64.59375 
L 9.421875 64.59375 
z
" id="DejaVuSans-105"/>
      <path d="M 30.609375 48.390625 
Q 23.390625 48.390625 19.1875 42.75 
Q 14.984375 37.109375 14.984375 27.296875 
Q 14.984375 17.484375 19.15625 11.84375 
Q 23.34375 6.203125 30.609375 6.203125 
Q 37.796875 6.203125 41.984375 11.859375 
Q 46.1875 17.53125 46.1875 27.296875 
Q 46.1875 37.015625 41.984375 42.703125 
Q 37.796875 48.390625 30.609375 48.390625 
z
M 30.609375 56 
Q 42.328125 56 49.015625 48.375 
Q 55.71875 40.765625 55.71875 27.296875 
Q 55.71875 13.875 49.015625 6.21875 
Q 42.328125 -1.421875 30.609375 -1.421875 
Q 18.84375 -1.421875 12.171875 6.21875 
Q 5.515625 13.875 5.515625 27.296875 
Q 5.515625 40.765625 12.171875 48.375 
Q 18.84375 56 30.609375 56 
z
" id="DejaVuSans-111"/>
      <path d="M 54.890625 33.015625 
L 54.890625 0 
L 45.90625 0 
L 45.90625 32.71875 
Q 45.90625 40.484375 42.875 44.328125 
Q 39.84375 48.1875 33.796875 48.1875 
Q 26.515625 48.1875 22.3125 43.546875 
Q 18.109375 38.921875 18.109375 30.90625 
L 18.109375 0 
L 9.078125 0 
L 9.078125 54.6875 
L 18.109375 54.6875 
L 18.109375 46.1875 
Q 21.34375 51.125 25.703125 53.5625 
Q 30.078125 56 35.796875 56 
Q 45.21875 56 50.046875 50.171875 
Q 54.890625 44.34375 54.890625 33.015625 
z
" id="DejaVuSans-110"/>
      <path id="DejaVuSans-32"/>
      <path d="M 53.515625 70.515625 
L 53.515625 60.890625 
Q 47.90625 63.578125 42.921875 64.890625 
Q 37.9375 66.21875 33.296875 66.21875 
Q 25.25 66.21875 20.875 63.09375 
Q 16.5 59.96875 16.5 54.203125 
Q 16.5 49.359375 19.40625 46.890625 
Q 22.3125 44.4375 30.421875 42.921875 
L 36.375 41.703125 
Q 47.40625 39.59375 52.65625 34.296875 
Q 57.90625 29 57.90625 20.125 
Q 57.90625 9.515625 50.796875 4.046875 
Q 43.703125 -1.421875 29.984375 -1.421875 
Q 24.8125 -1.421875 18.96875 -0.25 
Q 13.140625 0.921875 6.890625 3.21875 
L 6.890625 13.375 
Q 12.890625 10.015625 18.65625 8.296875 
Q 24.421875 6.59375 29.984375 6.59375 
Q 38.421875 6.59375 43.015625 9.90625 
Q 47.609375 13.234375 47.609375 19.390625 
Q 47.609375 24.75 44.3125 27.78125 
Q 41.015625 30.8125 33.5 32.328125 
L 27.484375 33.5 
Q 16.453125 35.6875 11.515625 40.375 
Q 6.59375 45.0625 6.59375 53.421875 
Q 6.59375 63.09375 13.40625 68.65625 
Q 20.21875 74.21875 32.171875 74.21875 
Q 37.3125 74.21875 42.625 73.28125 
Q 47.953125 72.359375 53.515625 70.515625 
z
" id="DejaVuSans-83"/>
      <path d="M 5.515625 54.6875 
L 48.1875 54.6875 
L 48.1875 46.484375 
L 14.40625 7.171875 
L 48.1875 7.171875 
L 48.1875 0 
L 4.296875 0 
L 4.296875 8.203125 
L 38.09375 47.515625 
L 5.515625 47.515625 
z
" id="DejaVuSans-122"/>
      <path d="M 31 75.875 
Q 24.46875 64.65625 21.28125 53.65625 
Q 18.109375 42.671875 18.109375 31.390625 
Q 18.109375 20.125 21.3125 9.0625 
Q 24.515625 -2 31 -13.1875 
L 23.1875 -13.1875 
Q 15.875 -1.703125 12.234375 9.375 
Q 8.59375 20.453125 8.59375 31.390625 
Q 8.59375 42.28125 12.203125 53.3125 
Q 15.828125 64.359375 23.1875 75.875 
z
" id="DejaVuSans-40"/>
      <path d="M 48.6875 27.296875 
Q 48.6875 37.203125 44.609375 42.84375 
Q 40.53125 48.484375 33.40625 48.484375 
Q 26.265625 48.484375 22.1875 42.84375 
Q 18.109375 37.203125 18.109375 27.296875 
Q 18.109375 17.390625 22.1875 11.75 
Q 26.265625 6.109375 33.40625 6.109375 
Q 40.53125 6.109375 44.609375 11.75 
Q 48.6875 17.390625 48.6875 27.296875 
z
M 18.109375 46.390625 
Q 20.953125 51.265625 25.265625 53.625 
Q 29.59375 56 35.59375 56 
Q 45.5625 56 51.78125 48.09375 
Q 58.015625 40.1875 58.015625 27.296875 
Q 58.015625 14.40625 51.78125 6.484375 
Q 45.5625 -1.421875 35.59375 -1.421875 
Q 29.59375 -1.421875 25.265625 0.953125 
Q 20.953125 3.328125 18.109375 8.203125 
L 18.109375 0 
L 9.078125 0 
L 9.078125 75.984375 
L 18.109375 75.984375 
z
" id="DejaVuSans-98"/>
      <path d="M 32.171875 -5.078125 
Q 28.375 -14.84375 24.75 -17.8125 
Q 21.140625 -20.796875 15.09375 -20.796875 
L 7.90625 -20.796875 
L 7.90625 -13.28125 
L 13.1875 -13.28125 
Q 16.890625 -13.28125 18.9375 -11.515625 
Q 21 -9.765625 23.484375 -3.21875 
L 25.09375 0.875 
L 2.984375 54.6875 
L 12.5 54.6875 
L 29.59375 11.921875 
L 46.6875 54.6875 
L 56.203125 54.6875 
z
" id="DejaVuSans-121"/>
      <path d="M 18.3125 70.21875 
L 18.3125 54.6875 
L 36.8125 54.6875 
L 36.8125 47.703125 
L 18.3125 47.703125 
L 18.3125 18.015625 
Q 18.3125 11.328125 20.140625 9.421875 
Q 21.96875 7.515625 27.59375 7.515625 
L 36.8125 7.515625 
L 36.8125 0 
L 27.59375 0 
Q 17.1875 0 13.234375 3.875 
Q 9.28125 7.765625 9.28125 18.015625 
L 9.28125 47.703125 
L 2.6875 47.703125 
L 2.6875 54.6875 
L 9.28125 54.6875 
L 9.28125 70.21875 
z
" id="DejaVuSans-116"/>
      <path d="M 44.28125 53.078125 
L 44.28125 44.578125 
Q 40.484375 46.53125 36.375 47.5 
Q 32.28125 48.484375 27.875 48.484375 
Q 21.1875 48.484375 17.84375 46.4375 
Q 14.5 44.390625 14.5 40.28125 
Q 14.5 37.15625 16.890625 35.375 
Q 19.28125 33.59375 26.515625 31.984375 
L 29.59375 31.296875 
Q 39.15625 29.25 43.1875 25.515625 
Q 47.21875 21.78125 47.21875 15.09375 
Q 47.21875 7.46875 41.1875 3.015625 
Q 35.15625 -1.421875 24.609375 -1.421875 
Q 20.21875 -1.421875 15.453125 -0.5625 
Q 10.6875 0.296875 5.421875 2 
L 5.421875 11.28125 
Q 10.40625 8.6875 15.234375 7.390625 
Q 20.0625 6.109375 24.8125 6.109375 
Q 31.15625 6.109375 34.5625 8.28125 
Q 37.984375 10.453125 37.984375 14.40625 
Q 37.984375 18.0625 35.515625 20.015625 
Q 33.0625 21.96875 24.703125 23.78125 
L 21.578125 24.515625 
Q 13.234375 26.265625 9.515625 29.90625 
Q 5.8125 33.546875 5.8125 39.890625 
Q 5.8125 47.609375 11.28125 51.796875 
Q 16.75 56 26.8125 56 
Q 31.78125 56 36.171875 55.265625 
Q 40.578125 54.546875 44.28125 53.078125 
z
" id="DejaVuSans-115"/>
      <path d="M 8.015625 75.875 
L 15.828125 75.875 
Q 23.140625 64.359375 26.78125 53.3125 
Q 30.421875 42.28125 30.421875 31.390625 
Q 30.421875 20.453125 26.78125 9.375 
Q 23.140625 -1.703125 15.828125 -13.1875 
L 8.015625 -13.1875 
Q 14.5 -2 17.703125 9.0625 
Q 20.90625 20.125 20.90625 31.390625 
Q 20.90625 42.671875 17.703125 53.65625 
Q 14.5 64.65625 8.015625 75.875 
z
" id="DejaVuSans-41"/>
     </defs>
     <g transform="translate(264.541875 413.64425)scale(0.12 -0.12)">
      <use xlink:href="#DejaVuSans-82"/>
      <use x="64.982422" xlink:href="#DejaVuSans-101"/>
      <use x="126.505859" xlink:href="#DejaVuSans-103"/>
      <use x="189.982422" xlink:href="#DejaVuSans-105"/>
      <use x="217.765625" xlink:href="#DejaVuSans-111"/>
      <use x="278.947266" xlink:href="#DejaVuSans-110"/>
      <use x="342.326172" xlink:href="#DejaVuSans-32"/>
      <use x="374.113281" xlink:href="#DejaVuSans-83"/>
      <use x="437.589844" xlink:href="#DejaVuSans-105"/>
      <use x="465.373047" xlink:href="#DejaVuSans-122"/>
      <use x="517.863281" xlink:href="#DejaVuSans-101"/>
      <use x="579.386719" xlink:href="#DejaVuSans-32"/>
      <use x="611.173828" xlink:href="#DejaVuSans-40"/>
      <use x="650.1875" xlink:href="#DejaVuSans-98"/>
      <use x="713.664062" xlink:href="#DejaVuSans-121"/>
      <use x="772.84375" xlink:href="#DejaVuSans-116"/>
      <use x="812.052734" xlink:href="#DejaVuSans-101"/>
      <use x="873.576172" xlink:href="#DejaVuSans-115"/>
      <use x="925.675781" xlink:href="#DejaVuSans-41"/>
     </g>
    </g>
   </g>
   <g id="matplotlib.axis_2">
    <g id="ytick_1">
     <g id="line2d_31">
      <defs>
       <path d="M 0 0 
L -3.5 0 
" id="mc971a609fd" style="stroke:#000000;stroke-width:0.8;"/>
      </defs>
      <g>
       <use style="stroke:#000000;stroke-width:0.8;" x="47.45" xlink:href="#mc971a609fd" y="383.848"/>
      </g>
     </g>
     <g id="text_5">
      <!-- 10 -->
      <g transform="translate(27.725 387.647219)scale(0.1 -0.1)">
       <use xlink:href="#DejaVuSans-49"/>
       <use x="63.623047" xlink:href="#DejaVuSans-48"/>
      </g>
     </g>
    </g>
    <g id="ytick_2">
     <g id="line2d_32">
      <g>
       <use style="stroke:#000000;stroke-width:0.8;" x="47.45" xlink:href="#mc971a609fd" y="310.124745"/>
      </g>
     </g>
     <g id="text_6">
      <!-- 15 -->
      <defs>
       <path d="M 10.796875 72.90625 
L 49.515625 72.90625 
L 49.515625 64.59375 
L 19.828125 64.59375 
L 19.828125 46.734375 
Q 21.96875 47.46875 24.109375 47.828125 
Q 26.265625 48.1875 28.421875 48.1875 
Q 40.625 48.1875 47.75 41.5 
Q 54.890625 34.8125 54.890625 23.390625 
Q 54.890625 11.625 47.5625 5.09375 
Q 40.234375 -1.421875 26.90625 -1.421875 
Q 22.3125 -1.421875 17.546875 -0.640625 
Q 12.796875 0.140625 7.71875 1.703125 
L 7.71875 11.625 
Q 12.109375 9.234375 16.796875 8.0625 
Q 21.484375 6.890625 26.703125 6.890625 
Q 35.15625 6.890625 40.078125 11.328125 
Q 45.015625 15.765625 45.015625 23.390625 
Q 45.015625 31 40.078125 35.4375 
Q 35.15625 39.890625 26.703125 39.890625 
Q 22.75 39.890625 18.8125 39.015625 
Q 14.890625 38.140625 10.796875 36.28125 
z
" id="DejaVuSans-53"/>
      </defs>
      <g transform="translate(27.725 313.923964)scale(0.1 -0.1)">
       <use xlink:href="#DejaVuSans-49"/>
       <use x="63.623047" xlink:href="#DejaVuSans-53"/>
      </g>
     </g>
    </g>
    <g id="ytick_3">
     <g id="line2d_33">
      <g>
       <use style="stroke:#000000;stroke-width:0.8;" x="47.45" xlink:href="#mc971a609fd" y="236.40149"/>
      </g>
     </g>
     <g id="text_7">
      <!-- 20 -->
      <defs>
       <path d="M 19.1875 8.296875 
L 53.609375 8.296875 
L 53.609375 0 
L 7.328125 0 
L 7.328125 8.296875 
Q 12.9375 14.109375 22.625 23.890625 
Q 32.328125 33.6875 34.8125 36.53125 
Q 39.546875 41.84375 41.421875 45.53125 
Q 43.3125 49.21875 43.3125 52.78125 
Q 43.3125 58.59375 39.234375 62.25 
Q 35.15625 65.921875 28.609375 65.921875 
Q 23.96875 65.921875 18.8125 64.3125 
Q 13.671875 62.703125 7.8125 59.421875 
L 7.8125 69.390625 
Q 13.765625 71.78125 18.9375 73 
Q 24.125 74.21875 28.421875 74.21875 
Q 39.75 74.21875 46.484375 68.546875 
Q 53.21875 62.890625 53.21875 53.421875 
Q 53.21875 48.921875 51.53125 44.890625 
Q 49.859375 40.875 45.40625 35.40625 
Q 44.1875 33.984375 37.640625 27.21875 
Q 31.109375 20.453125 19.1875 8.296875 
z
" id="DejaVuSans-50"/>
      </defs>
      <g transform="translate(27.725 240.200709)scale(0.1 -0.1)">
       <use xlink:href="#DejaVuSans-50"/>
       <use x="63.623047" xlink:href="#DejaVuSans-48"/>
      </g>
     </g>
    </g>
    <g id="ytick_4">
     <g id="line2d_34">
      <g>
       <use style="stroke:#000000;stroke-width:0.8;" x="47.45" xlink:href="#mc971a609fd" y="162.678235"/>
      </g>
     </g>
     <g id="text_8">
      <!-- 25 -->
      <g transform="translate(27.725 166.477454)scale(0.1 -0.1)">
       <use xlink:href="#DejaVuSans-50"/>
       <use x="63.623047" xlink:href="#DejaVuSans-53"/>
      </g>
     </g>
    </g>
    <g id="ytick_5">
     <g id="line2d_35">
      <g>
       <use style="stroke:#000000;stroke-width:0.8;" x="47.45" xlink:href="#mc971a609fd" y="88.954981"/>
      </g>
     </g>
     <g id="text_9">
      <!-- 30 -->
      <defs>
       <path d="M 40.578125 39.3125 
Q 47.65625 37.796875 51.625 33 
Q 55.609375 28.21875 55.609375 21.1875 
Q 55.609375 10.40625 48.1875 4.484375 
Q 40.765625 -1.421875 27.09375 -1.421875 
Q 22.515625 -1.421875 17.65625 -0.515625 
Q 12.796875 0.390625 7.625 2.203125 
L 7.625 11.71875 
Q 11.71875 9.328125 16.59375 8.109375 
Q 21.484375 6.890625 26.8125 6.890625 
Q 36.078125 6.890625 40.9375 10.546875 
Q 45.796875 14.203125 45.796875 21.1875 
Q 45.796875 27.640625 41.28125 31.265625 
Q 36.765625 34.90625 28.71875 34.90625 
L 20.21875 34.90625 
L 20.21875 43.015625 
L 29.109375 43.015625 
Q 36.375 43.015625 40.234375 45.921875 
Q 44.09375 48.828125 44.09375 54.296875 
Q 44.09375 59.90625 40.109375 62.90625 
Q 36.140625 65.921875 28.71875 65.921875 
Q 24.65625 65.921875 20.015625 65.03125 
Q 15.375 64.15625 9.8125 62.3125 
L 9.8125 71.09375 
Q 15.4375 72.65625 20.34375 73.4375 
Q 25.25 74.21875 29.59375 74.21875 
Q 40.828125 74.21875 47.359375 69.109375 
Q 53.90625 64.015625 53.90625 55.328125 
Q 53.90625 49.265625 50.4375 45.09375 
Q 46.96875 40.921875 40.578125 39.3125 
z
" id="DejaVuSans-51"/>
      </defs>
      <g transform="translate(27.725 92.754199)scale(0.1 -0.1)">
       <use xlink:href="#DejaVuSans-51"/>
       <use x="63.623047" xlink:href="#DejaVuSans-48"/>
      </g>
     </g>
    </g>
    <g id="text_10">
     <!-- Fill Speed (GB/s) -->
     <defs>
      <path d="M 9.8125 72.90625 
L 51.703125 72.90625 
L 51.703125 64.59375 
L 19.671875 64.59375 
L 19.671875 43.109375 
L 48.578125 43.109375 
L 48.578125 34.8125 
L 19.671875 34.8125 
L 19.671875 0 
L 9.8125 0 
z
" id="DejaVuSans-70"/>
      <path d="M 9.421875 75.984375 
L 18.40625 75.984375 
L 18.40625 0 
L 9.421875 0 
z
" id="DejaVuSans-108"/>
      <path d="M 18.109375 8.203125 
L 18.109375 -20.796875 
L 9.078125 -20.796875 
L 9.078125 54.6875 
L 18.109375 54.6875 
L 18.109375 46.390625 
Q 20.953125 51.265625 25.265625 53.625 
Q 29.59375 56 35.59375 56 
Q 45.5625 56 51.78125 48.09375 
Q 58.015625 40.1875 58.015625 27.296875 
Q 58.015625 14.40625 51.78125 6.484375 
Q 45.5625 -1.421875 35.59375 -1.421875 
Q 29.59375 -1.421875 25.265625 0.953125 
Q 20.953125 3.328125 18.109375 8.203125 
z
M 48.6875 27.296875 
Q 48.6875 37.203125 44.609375 42.84375 
Q 40.53125 48.484375 33.40625 48.484375 
Q 26.265625 48.484375 22.1875 42.84375 
Q 18.109375 37.203125 18.109375 27.296875 
Q 18.109375 17.390625 22.1875 11.75 
Q 26.265625 6.109375 33.40625 6.109375 
Q 40.53125 6.109375 44.609375 11.75 
Q 48.6875 17.390625 48.6875 27.296875 
z
" id="DejaVuSans-112"/>
      <path d="M 45.40625 46.390625 
L 45.40625 75.984375 
L 54.390625 75.984375 
L 54.390625 0 
L 45.40625 0 
L 45.40625 8.203125 
Q 42.578125 3.328125 38.25 0.953125 
Q 33.9375 -1.421875 27.875 -1.421875 
Q 17.96875 -1.421875 11.734375 6.484375 
Q 5.515625 14.40625 5.515625 27.296875 
Q 5.515625 40.1875 11.734375 48.09375 
Q 17.96875 56 27.875 56 
Q 33.9375 56 38.25 53.625 
Q 42.578125 51.265625 45.40625 46.390625 
z
M 14.796875 27.296875 
Q 14.796875 17.390625 18.875 11.75 
Q 22.953125 6.109375 30.078125 6.109375 
Q 37.203125 6.109375 41.296875 11.75 
Q 45.40625 17.390625 45.40625 27.296875 
Q 45.40625 37.203125 41.296875 42.84375 
Q 37.203125 48.484375 30.078125 48.484375 
Q 22.953125 48.484375 18.875 42.84375 
Q 14.796875 37.203125 14.796875 27.296875 
z
" id="DejaVuSans-100"/>
      <path d="M 59.515625 10.40625 
L 59.515625 29.984375 
L 43.40625 29.984375 
L 43.40625 38.09375 
L 69.28125 38.09375 
L 69.28125 6.78125 
Q 63.578125 2.734375 56.6875 0.65625 
Q 49.8125 -1.421875 42 -1.421875 
Q 24.90625 -1.421875 15.25 8.5625 
Q 5.609375 18.5625 5.609375 36.375 
Q 5.609375 54.25 15.25 64.234375 
Q 24.90625 74.21875 42 74.21875 
Q 49.125 74.21875 55.546875 72.453125 
Q 61.96875 70.703125 67.390625 67.28125 
L 67.390625 56.78125 
Q 61.921875 61.421875 55.765625 63.765625 
Q 49.609375 66.109375 42.828125 66.109375 
Q 29.4375 66.109375 22.71875 58.640625 
Q 16.015625 51.171875 16.015625 36.375 
Q 16.015625 21.625 22.71875 14.15625 
Q 29.4375 6.6875 42.828125 6.6875 
Q 48.046875 6.6875 52.140625 7.59375 
Q 56.25 8.5 59.515625 10.40625 
z
" id="DejaVuSans-71"/>
      <path d="M 19.671875 34.8125 
L 19.671875 8.109375 
L 35.5 8.109375 
Q 43.453125 8.109375 47.28125 11.40625 
Q 51.125 14.703125 51.125 21.484375 
Q 51.125 28.328125 47.28125 31.5625 
Q 43.453125 34.8125 35.5 34.8125 
z
M 19.671875 64.796875 
L 19.671875 42.828125 
L 34.28125 42.828125 
Q 41.5 42.828125 45.03125 45.53125 
Q 48.578125 48.25 48.578125 53.8125 
Q 48.578125 59.328125 45.03125 62.0625 
Q 41.5 64.796875 34.28125 64.796875 
z
M 9.8125 72.90625 
L 35.015625 72.90625 
Q 46.296875 72.90625 52.390625 68.21875 
Q 58.5 63.53125 58.5 54.890625 
Q 58.5 48.1875 55.375 44.234375 
Q 52.25 40.28125 46.1875 39.3125 
Q 53.46875 37.75 57.5 32.78125 
Q 61.53125 27.828125 61.53125 20.40625 
Q 61.53125 10.640625 54.890625 5.3125 
Q 48.25 0 35.984375 0 
L 9.8125 0 
z
" id="DejaVuSans-66"/>
      <path d="M 25.390625 72.90625 
L 33.6875 72.90625 
L 8.296875 -9.28125 
L 0 -9.28125 
z
" id="DejaVuSans-47"/>
     </defs>
     <g transform="translate(21.229375 254.599625)rotate(-90)scale(0.12 -0.12)">
      <use xlink:href="#DejaVuSans-70"/>
      <use x="50.269531" xlink:href="#DejaVuSans-105"/>
      <use x="78.052734" xlink:href="#DejaVuSans-108"/>
      <use x="105.835938" xlink:href="#DejaVuSans-108"/>
      <use x="133.619141" xlink:href="#DejaVuSans-32"/>
      <use x="165.40625" xlink:href="#DejaVuSans-83"/>
      <use x="228.882812" xlink:href="#DejaVuSans-112"/>
      <use x="292.359375" xlink:href="#DejaVuSans-101"/>
      <use x="353.882812" xlink:href="#DejaVuSans-101"/>
      <use x="415.40625" xlink:href="#DejaVuSans-100"/>
      <use x="478.882812" xlink:href="#DejaVuSans-32"/>
      <use x="510.669922" xlink:href="#DejaVuSans-40"/>
      <use x="549.683594" xlink:href="#DejaVuSans-71"/>
      <use x="627.173828" xlink:href="#DejaVuSans-66"/>
      <use x="695.777344" xlink:href="#DejaVuSans-47"/>
      <use x="729.46875" xlink:href="#DejaVuSans-115"/>
      <use x="781.568359" xlink:href="#DejaVuSans-41"/>
     </g>
    </g>
   </g>
   <g id="line2d_36">
    <defs>
     <path d="M 0 3 
C 0.795609 3 1.55874 2.683901 2.12132 2.12132 
C 2.683901 1.55874 3 0.795609 3 0 
C 3 -0.795609 2.683901 -1.55874 2.12132 -2.12132 
C 1.55874 -2.683901 0.795609 -3 0 -3 
C -0.795609 -3 -1.55874 -2.683901 -2.12132 -2.12132 
C -2.683901 -1.55874 -3 -0.795609 -3 0 
C -3 0.795609 -2.683901 1.55874 -2.12132 2.12132 
C -1.55874 2.683901 -0.795609 3 0 3 
z
" id="mea49ddc4e0" style="stroke:#1f77b4;"/>
    </defs>
    <g clip-path="url(#pcddf649632)">
     <use style="fill:#1f77b4;stroke:#1f77b4;" x="72.447727" xlink:href="#mea49ddc4e0" y="41.772097"/>
     <use style="fill:#1f77b4;stroke:#1f77b4;" x="79.113796" xlink:href="#mea49ddc4e0" y="56.516748"/>
     <use style="fill:#1f77b4;stroke:#1f77b4;" x="85.779865" xlink:href="#mea49ddc4e0" y="74.21033"/>
     <use style="fill:#1f77b4;stroke:#1f77b4;" x="92.445934" xlink:href="#mea49ddc4e0" y="81.582655"/>
     <use style="fill:#1f77b4;stroke:#1f77b4;" x="99.111685" xlink:href="#mea49ddc4e0" y="84.531585"/>
     <use style="fill:#1f77b4;stroke:#1f77b4;" x="105.777927" xlink:href="#mea49ddc4e0" y="88.954981"/>
     <use style="fill:#1f77b4;stroke:#1f77b4;" x="112.444102" xlink:href="#mea49ddc4e0" y="87.480515"/>
     <use style="fill:#1f77b4;stroke:#1f77b4;" x="119.109836" xlink:href="#mea49ddc4e0" y="84.531585"/>
     <use style="fill:#1f77b4;stroke:#1f77b4;" x="125.775774" xlink:href="#mea49ddc4e0" y="81.582655"/>
     <use style="fill:#1f77b4;stroke:#1f77b4;" x="132.441922" xlink:href="#mea49ddc4e0" y="80.10819"/>
     <use style="fill:#1f77b4;stroke:#1f77b4;" x="139.108171" xlink:href="#mea49ddc4e0" y="77.15926"/>
     <use style="fill:#1f77b4;stroke:#1f77b4;" x="145.77424" xlink:href="#mea49ddc4e0" y="74.21033"/>
     <use style="fill:#1f77b4;stroke:#1f77b4;" x="152.44022" xlink:href="#mea49ddc4e0" y="72.735865"/>
     <use style="fill:#1f77b4;stroke:#1f77b4;" x="159.106262" xlink:href="#mea49ddc4e0" y="69.786934"/>
     <use style="fill:#1f77b4;stroke:#1f77b4;" x="165.772355" xlink:href="#mea49ddc4e0" y="68.312469"/>
     <use style="fill:#1f77b4;stroke:#1f77b4;" x="172.438402" xlink:href="#mea49ddc4e0" y="66.838004"/>
     <use style="fill:#1f77b4;stroke:#1f77b4;" x="179.10443" xlink:href="#mea49ddc4e0" y="65.363539"/>
     <use style="fill:#1f77b4;stroke:#1f77b4;" x="185.770481" xlink:href="#mea49ddc4e0" y="63.889074"/>
     <use style="fill:#1f77b4;stroke:#1f77b4;" x="192.436499" xlink:href="#mea49ddc4e0" y="62.414609"/>
     <use style="fill:#1f77b4;stroke:#1f77b4;" x="199.102553" xlink:href="#mea49ddc4e0" y="60.940144"/>
     <use style="fill:#1f77b4;stroke:#1f77b4;" x="205.768622" xlink:href="#mea49ddc4e0" y="60.940144"/>
     <use style="fill:#1f77b4;stroke:#1f77b4;" x="212.434704" xlink:href="#mea49ddc4e0" y="59.465679"/>
     <use style="fill:#1f77b4;stroke:#1f77b4;" x="219.100715" xlink:href="#mea49ddc4e0" y="57.991214"/>
     <use style="fill:#1f77b4;stroke:#1f77b4;" x="225.766826" xlink:href="#mea49ddc4e0" y="57.991214"/>
     <use style="fill:#1f77b4;stroke:#1f77b4;" x="232.432819" xlink:href="#mea49ddc4e0" y="57.991214"/>
     <use style="fill:#1f77b4;stroke:#1f77b4;" x="239.09894" xlink:href="#mea49ddc4e0" y="56.516748"/>
     <use style="fill:#1f77b4;stroke:#1f77b4;" x="245.764954" xlink:href="#mea49ddc4e0" y="60.940144"/>
     <use style="fill:#1f77b4;stroke:#1f77b4;" x="252.431051" xlink:href="#mea49ddc4e0" y="68.312469"/>
     <use style="fill:#1f77b4;stroke:#1f77b4;" x="259.097108" xlink:href="#mea49ddc4e0" y="72.735865"/>
     <use style="fill:#1f77b4;stroke:#1f77b4;" x="265.763141" xlink:href="#mea49ddc4e0" y="83.05712"/>
     <use style="fill:#1f77b4;stroke:#1f77b4;" x="272.429199" xlink:href="#mea49ddc4e0" y="97.801771"/>
     <use style="fill:#1f77b4;stroke:#1f77b4;" x="279.095298" xlink:href="#mea49ddc4e0" y="127.291073"/>
     <use style="fill:#1f77b4;stroke:#1f77b4;" x="285.761349" xlink:href="#mea49ddc4e0" y="152.35698"/>
     <use style="fill:#1f77b4;stroke:#1f77b4;" x="292.427418" xlink:href="#mea49ddc4e0" y="180.371817"/>
     <use style="fill:#1f77b4;stroke:#1f77b4;" x="299.09348" xlink:href="#mea49ddc4e0" y="196.590933"/>
     <use style="fill:#1f77b4;stroke:#1f77b4;" x="305.759552" xlink:href="#mea49ddc4e0" y="212.810049"/>
     <use style="fill:#1f77b4;stroke:#1f77b4;" x="312.425606" xlink:href="#mea49ddc4e0" y="223.131304"/>
     <use style="fill:#1f77b4;stroke:#1f77b4;" x="319.091672" xlink:href="#mea49ddc4e0" y="234.927025"/>
     <use style="fill:#1f77b4;stroke:#1f77b4;" x="325.757731" xlink:href="#mea49ddc4e0" y="239.35042"/>
     <use style="fill:#1f77b4;stroke:#1f77b4;" x="332.423798" xlink:href="#mea49ddc4e0" y="246.722746"/>
     <use style="fill:#1f77b4;stroke:#1f77b4;" x="339.089865" xlink:href="#mea49ddc4e0" y="252.620606"/>
     <use style="fill:#1f77b4;stroke:#1f77b4;" x="345.755945" xlink:href="#mea49ddc4e0" y="258.518467"/>
     <use style="fill:#1f77b4;stroke:#1f77b4;" x="352.422004" xlink:href="#mea49ddc4e0" y="264.416327"/>
     <use style="fill:#1f77b4;stroke:#1f77b4;" x="359.088071" xlink:href="#mea49ddc4e0" y="268.839722"/>
     <use style="fill:#1f77b4;stroke:#1f77b4;" x="365.754147" xlink:href="#mea49ddc4e0" y="273.263118"/>
     <use style="fill:#1f77b4;stroke:#1f77b4;" x="372.420213" xlink:href="#mea49ddc4e0" y="276.212048"/>
     <use style="fill:#1f77b4;stroke:#1f77b4;" x="379.086273" xlink:href="#mea49ddc4e0" y="280.635443"/>
     <use style="fill:#1f77b4;stroke:#1f77b4;" x="385.752341" xlink:href="#mea49ddc4e0" y="282.109908"/>
     <use style="fill:#1f77b4;stroke:#1f77b4;" x="392.418418" xlink:href="#mea49ddc4e0" y="285.058838"/>
     <use style="fill:#1f77b4;stroke:#1f77b4;" x="399.08448" xlink:href="#mea49ddc4e0" y="286.533304"/>
     <use style="fill:#1f77b4;stroke:#1f77b4;" x="405.750549" xlink:href="#mea49ddc4e0" y="288.007769"/>
     <use style="fill:#1f77b4;stroke:#1f77b4;" x="412.416621" xlink:href="#mea49ddc4e0" y="290.956699"/>
     <use style="fill:#1f77b4;stroke:#1f77b4;" x="419.082691" xlink:href="#mea49ddc4e0" y="290.956699"/>
     <use style="fill:#1f77b4;stroke:#1f77b4;" x="425.748757" xlink:href="#mea49ddc4e0" y="292.431164"/>
     <use style="fill:#1f77b4;stroke:#1f77b4;" x="432.414827" xlink:href="#mea49ddc4e0" y="295.380094"/>
     <use style="fill:#1f77b4;stroke:#1f77b4;" x="439.080896" xlink:href="#mea49ddc4e0" y="296.854559"/>
     <use style="fill:#1f77b4;stroke:#1f77b4;" x="445.746965" xlink:href="#mea49ddc4e0" y="296.854559"/>
     <use style="fill:#1f77b4;stroke:#1f77b4;" x="452.413034" xlink:href="#mea49ddc4e0" y="298.329024"/>
     <use style="fill:#1f77b4;stroke:#1f77b4;" x="459.079102" xlink:href="#mea49ddc4e0" y="298.329024"/>
     <use style="fill:#1f77b4;stroke:#1f77b4;" x="465.745171" xlink:href="#mea49ddc4e0" y="299.803489"/>
     <use style="fill:#1f77b4;stroke:#1f77b4;" x="472.411238" xlink:href="#mea49ddc4e0" y="299.803489"/>
     <use style="fill:#1f77b4;stroke:#1f77b4;" x="479.077307" xlink:href="#mea49ddc4e0" y="299.803489"/>
     <use style="fill:#1f77b4;stroke:#1f77b4;" x="485.743376" xlink:href="#mea49ddc4e0" y="301.277955"/>
     <use style="fill:#1f77b4;stroke:#1f77b4;" x="492.409445" xlink:href="#mea49ddc4e0" y="301.277955"/>
     <use style="fill:#1f77b4;stroke:#1f77b4;" x="499.075515" xlink:href="#mea49ddc4e0" y="301.277955"/>
     <use style="fill:#1f77b4;stroke:#1f77b4;" x="505.741584" xlink:href="#mea49ddc4e0" y="301.277955"/>
     <use style="fill:#1f77b4;stroke:#1f77b4;" x="512.407652" xlink:href="#mea49ddc4e0" y="301.277955"/>
     <use style="fill:#1f77b4;stroke:#1f77b4;" x="519.073721" xlink:href="#mea49ddc4e0" y="301.277955"/>
     <use style="fill:#1f77b4;stroke:#1f77b4;" x="525.739791" xlink:href="#mea49ddc4e0" y="302.75242"/>
     <use style="fill:#1f77b4;stroke:#1f77b4;" x="532.405858" xlink:href="#mea49ddc4e0" y="302.75242"/>
     <use style="fill:#1f77b4;stroke:#1f77b4;" x="539.071927" xlink:href="#mea49ddc4e0" y="302.75242"/>
     <use style="fill:#1f77b4;stroke:#1f77b4;" x="545.737996" xlink:href="#mea49ddc4e0" y="302.75242"/>
     <use style="fill:#1f77b4;stroke:#1f77b4;" x="552.404066" xlink:href="#mea49ddc4e0" y="302.75242"/>
     <use style="fill:#1f77b4;stroke:#1f77b4;" x="559.070134" xlink:href="#mea49ddc4e0" y="302.75242"/>
     <use style="fill:#1f77b4;stroke:#1f77b4;" x="565.736204" xlink:href="#mea49ddc4e0" y="302.75242"/>
     <use style="fill:#1f77b4;stroke:#1f77b4;" x="572.402273" xlink:href="#mea49ddc4e0" y="302.75242"/>
    </g>
   </g>
   <g id="line2d_37">
    <defs>
     <path d="M 0 3 
C 0.795609 3 1.55874 2.683901 2.12132 2.12132 
C 2.683901 1.55874 3 0.795609 3 0 
C 3 -0.795609 2.683901 -1.55874 2.12132 -2.12132 
C 1.55874 -2.683901 0.795609 -3 0 -3 
C -0.795609 -3 -1.55874 -2.683901 -2.12132 -2.12132 
C -2.683901 -1.55874 -3 -0.795609 -3 0 
C -3 0.795609 -2.683901 1.55874 -2.12132 2.12132 
C -1.55874 2.683901 -0.795609 3 0 3 
z
" id="m0c9ea33c33" style="stroke:#ff7f0e;"/>
    </defs>
    <g clip-path="url(#pcddf649632)">
     <use style="fill:#ff7f0e;stroke:#ff7f0e;" x="72.447727" xlink:href="#m0c9ea33c33" y="63.889074"/>
     <use style="fill:#ff7f0e;stroke:#ff7f0e;" x="79.113796" xlink:href="#m0c9ea33c33" y="87.480515"/>
     <use style="fill:#ff7f0e;stroke:#ff7f0e;" x="85.779865" xlink:href="#m0c9ea33c33" y="119.918748"/>
     <use style="fill:#ff7f0e;stroke:#ff7f0e;" x="92.445934" xlink:href="#m0c9ea33c33" y="133.188933"/>
     <use style="fill:#ff7f0e;stroke:#ff7f0e;" x="99.111685" xlink:href="#m0c9ea33c33" y="142.035724"/>
     <use style="fill:#ff7f0e;stroke:#ff7f0e;" x="105.777927" xlink:href="#m0c9ea33c33" y="147.933584"/>
     <use style="fill:#ff7f0e;stroke:#ff7f0e;" x="112.444102" xlink:href="#m0c9ea33c33" y="147.933584"/>
     <use style="fill:#ff7f0e;stroke:#ff7f0e;" x="119.109836" xlink:href="#m0c9ea33c33" y="146.459119"/>
     <use style="fill:#ff7f0e;stroke:#ff7f0e;" x="125.775774" xlink:href="#m0c9ea33c33" y="144.984654"/>
     <use style="fill:#ff7f0e;stroke:#ff7f0e;" x="132.441922" xlink:href="#m0c9ea33c33" y="142.035724"/>
     <use style="fill:#ff7f0e;stroke:#ff7f0e;" x="139.108171" xlink:href="#m0c9ea33c33" y="140.561259"/>
     <use style="fill:#ff7f0e;stroke:#ff7f0e;" x="145.77424" xlink:href="#m0c9ea33c33" y="139.086794"/>
     <use style="fill:#ff7f0e;stroke:#ff7f0e;" x="152.44022" xlink:href="#m0c9ea33c33" y="137.612329"/>
     <use style="fill:#ff7f0e;stroke:#ff7f0e;" x="159.106262" xlink:href="#m0c9ea33c33" y="136.137864"/>
     <use style="fill:#ff7f0e;stroke:#ff7f0e;" x="165.772355" xlink:href="#m0c9ea33c33" y="134.663399"/>
     <use style="fill:#ff7f0e;stroke:#ff7f0e;" x="172.438402" xlink:href="#m0c9ea33c33" y="133.188933"/>
     <use style="fill:#ff7f0e;stroke:#ff7f0e;" x="179.10443" xlink:href="#m0c9ea33c33" y="133.188933"/>
     <use style="fill:#ff7f0e;stroke:#ff7f0e;" x="185.770481" xlink:href="#m0c9ea33c33" y="131.714468"/>
     <use style="fill:#ff7f0e;stroke:#ff7f0e;" x="192.436499" xlink:href="#m0c9ea33c33" y="130.240003"/>
     <use style="fill:#ff7f0e;stroke:#ff7f0e;" x="199.102553" xlink:href="#m0c9ea33c33" y="130.240003"/>
     <use style="fill:#ff7f0e;stroke:#ff7f0e;" x="205.768622" xlink:href="#m0c9ea33c33" y="128.765538"/>
     <use style="fill:#ff7f0e;stroke:#ff7f0e;" x="212.434704" xlink:href="#m0c9ea33c33" y="128.765538"/>
     <use style="fill:#ff7f0e;stroke:#ff7f0e;" x="219.100715" xlink:href="#m0c9ea33c33" y="128.765538"/>
     <use style="fill:#ff7f0e;stroke:#ff7f0e;" x="225.766826" xlink:href="#m0c9ea33c33" y="127.291073"/>
     <use style="fill:#ff7f0e;stroke:#ff7f0e;" x="232.432819" xlink:href="#m0c9ea33c33" y="127.291073"/>
     <use style="fill:#ff7f0e;stroke:#ff7f0e;" x="239.09894" xlink:href="#m0c9ea33c33" y="127.291073"/>
     <use style="fill:#ff7f0e;stroke:#ff7f0e;" x="245.764954" xlink:href="#m0c9ea33c33" y="128.765538"/>
     <use style="fill:#ff7f0e;stroke:#ff7f0e;" x="252.431051" xlink:href="#m0c9ea33c33" y="133.188933"/>
     <use style="fill:#ff7f0e;stroke:#ff7f0e;" x="259.097108" xlink:href="#m0c9ea33c33" y="137.612329"/>
     <use style="fill:#ff7f0e;stroke:#ff7f0e;" x="265.763141" xlink:href="#m0c9ea33c33" y="142.035724"/>
     <use style="fill:#ff7f0e;stroke:#ff7f0e;" x="272.429199" xlink:href="#m0c9ea33c33" y="150.882515"/>
     <use style="fill:#ff7f0e;stroke:#ff7f0e;" x="279.095298" xlink:href="#m0c9ea33c33" y="170.050561"/>
     <use style="fill:#ff7f0e;stroke:#ff7f0e;" x="285.761349" xlink:href="#m0c9ea33c33" y="192.167537"/>
     <use style="fill:#ff7f0e;stroke:#ff7f0e;" x="292.427418" xlink:href="#m0c9ea33c33" y="209.861119"/>
     <use style="fill:#ff7f0e;stroke:#ff7f0e;" x="299.09348" xlink:href="#m0c9ea33c33" y="224.60577"/>
     <use style="fill:#ff7f0e;stroke:#ff7f0e;" x="305.759552" xlink:href="#m0c9ea33c33" y="236.40149"/>
     <use style="fill:#ff7f0e;stroke:#ff7f0e;" x="312.425606" xlink:href="#m0c9ea33c33" y="245.248281"/>
     <use style="fill:#ff7f0e;stroke:#ff7f0e;" x="319.091672" xlink:href="#m0c9ea33c33" y="255.569537"/>
     <use style="fill:#ff7f0e;stroke:#ff7f0e;" x="325.757731" xlink:href="#m0c9ea33c33" y="264.416327"/>
     <use style="fill:#ff7f0e;stroke:#ff7f0e;" x="332.423798" xlink:href="#m0c9ea33c33" y="271.788653"/>
     <use style="fill:#ff7f0e;stroke:#ff7f0e;" x="339.089865" xlink:href="#m0c9ea33c33" y="280.635443"/>
     <use style="fill:#ff7f0e;stroke:#ff7f0e;" x="345.755945" xlink:href="#m0c9ea33c33" y="288.007769"/>
     <use style="fill:#ff7f0e;stroke:#ff7f0e;" x="352.422004" xlink:href="#m0c9ea33c33" y="293.905629"/>
     <use style="fill:#ff7f0e;stroke:#ff7f0e;" x="359.088071" xlink:href="#m0c9ea33c33" y="299.803489"/>
     <use style="fill:#ff7f0e;stroke:#ff7f0e;" x="365.754147" xlink:href="#m0c9ea33c33" y="304.226885"/>
     <use style="fill:#ff7f0e;stroke:#ff7f0e;" x="372.420213" xlink:href="#m0c9ea33c33" y="308.65028"/>
     <use style="fill:#ff7f0e;stroke:#ff7f0e;" x="379.086273" xlink:href="#m0c9ea33c33" y="311.59921"/>
     <use style="fill:#ff7f0e;stroke:#ff7f0e;" x="385.752341" xlink:href="#m0c9ea33c33" y="314.54814"/>
     <use style="fill:#ff7f0e;stroke:#ff7f0e;" x="392.418418" xlink:href="#m0c9ea33c33" y="317.497071"/>
     <use style="fill:#ff7f0e;stroke:#ff7f0e;" x="399.08448" xlink:href="#m0c9ea33c33" y="318.971536"/>
     <use style="fill:#ff7f0e;stroke:#ff7f0e;" x="405.750549" xlink:href="#m0c9ea33c33" y="321.920466"/>
     <use style="fill:#ff7f0e;stroke:#ff7f0e;" x="412.416621" xlink:href="#m0c9ea33c33" y="323.394931"/>
     <use style="fill:#ff7f0e;stroke:#ff7f0e;" x="419.082691" xlink:href="#m0c9ea33c33" y="324.869396"/>
     <use style="fill:#ff7f0e;stroke:#ff7f0e;" x="425.748757" xlink:href="#m0c9ea33c33" y="327.818326"/>
     <use style="fill:#ff7f0e;stroke:#ff7f0e;" x="432.414827" xlink:href="#m0c9ea33c33" y="329.292791"/>
     <use style="fill:#ff7f0e;stroke:#ff7f0e;" x="439.080896" xlink:href="#m0c9ea33c33" y="329.292791"/>
     <use style="fill:#ff7f0e;stroke:#ff7f0e;" x="445.746965" xlink:href="#m0c9ea33c33" y="330.767257"/>
     <use style="fill:#ff7f0e;stroke:#ff7f0e;" x="452.413034" xlink:href="#m0c9ea33c33" y="332.241722"/>
     <use style="fill:#ff7f0e;stroke:#ff7f0e;" x="459.079102" xlink:href="#m0c9ea33c33" y="333.716187"/>
     <use style="fill:#ff7f0e;stroke:#ff7f0e;" x="465.745171" xlink:href="#m0c9ea33c33" y="333.716187"/>
     <use style="fill:#ff7f0e;stroke:#ff7f0e;" x="472.411238" xlink:href="#m0c9ea33c33" y="335.190652"/>
     <use style="fill:#ff7f0e;stroke:#ff7f0e;" x="479.077307" xlink:href="#m0c9ea33c33" y="335.190652"/>
     <use style="fill:#ff7f0e;stroke:#ff7f0e;" x="485.743376" xlink:href="#m0c9ea33c33" y="336.665117"/>
     <use style="fill:#ff7f0e;stroke:#ff7f0e;" x="492.409445" xlink:href="#m0c9ea33c33" y="336.665117"/>
     <use style="fill:#ff7f0e;stroke:#ff7f0e;" x="499.075515" xlink:href="#m0c9ea33c33" y="338.139582"/>
     <use style="fill:#ff7f0e;stroke:#ff7f0e;" x="505.741584" xlink:href="#m0c9ea33c33" y="338.139582"/>
     <use style="fill:#ff7f0e;stroke:#ff7f0e;" x="512.407652" xlink:href="#m0c9ea33c33" y="338.139582"/>
     <use style="fill:#ff7f0e;stroke:#ff7f0e;" x="519.073721" xlink:href="#m0c9ea33c33" y="338.139582"/>
     <use style="fill:#ff7f0e;stroke:#ff7f0e;" x="525.739791" xlink:href="#m0c9ea33c33" y="339.614047"/>
     <use style="fill:#ff7f0e;stroke:#ff7f0e;" x="532.405858" xlink:href="#m0c9ea33c33" y="339.614047"/>
     <use style="fill:#ff7f0e;stroke:#ff7f0e;" x="539.071927" xlink:href="#m0c9ea33c33" y="339.614047"/>
     <use style="fill:#ff7f0e;stroke:#ff7f0e;" x="545.737996" xlink:href="#m0c9ea33c33" y="339.614047"/>
     <use style="fill:#ff7f0e;stroke:#ff7f0e;" x="552.404066" xlink:href="#m0c9ea33c33" y="339.614047"/>
     <use style="fill:#ff7f0e;stroke:#ff7f0e;" x="559.070134" xlink:href="#m0c9ea33c33" y="339.614047"/>
     <use style="fill:#ff7f0e;stroke:#ff7f0e;" x="565.736204" xlink:href="#m0c9ea33c33" y="339.614047"/>
     <use style="fill:#ff7f0e;stroke:#ff7f0e;" x="572.402273" xlink:href="#m0c9ea33c33" y="339.614047"/>
    </g>
   </g>
   <g id="line2d_38">
    <defs>
     <path d="M 0 3 
C 0.795609 3 1.55874 2.683901 2.12132 2.12132 
C 2.683901 1.55874 3 0.795609 3 0 
C 3 -0.795609 2.683901 -1.55874 2.12132 -2.12132 
C 1.55874 -2.683901 0.795609 -3 0 -3 
C -0.795609 -3 -1.55874 -2.683901 -2.12132 -2.12132 
C -2.683901 -1.55874 -3 -0.795609 -3 0 
C -3 0.795609 -2.683901 1.55874 -2.12132 2.12132 
C -1.55874 2.683901 -0.795609 3 0 3 
z
" id="m7bb16f3a81" style="stroke:#2ca02c;"/>
    </defs>
    <g clip-path="url(#pcddf649632)">
     <use style="fill:#2ca02c;stroke:#2ca02c;" x="72.447727" xlink:href="#m7bb16f3a81" y="56.516748"/>
     <use style="fill:#2ca02c;stroke:#2ca02c;" x="79.113796" xlink:href="#m7bb16f3a81" y="81.582655"/>
     <use style="fill:#2ca02c;stroke:#2ca02c;" x="85.779865" xlink:href="#m7bb16f3a81" y="109.597492"/>
     <use style="fill:#2ca02c;stroke:#2ca02c;" x="92.445934" xlink:href="#m7bb16f3a81" y="122.867678"/>
     <use style="fill:#2ca02c;stroke:#2ca02c;" x="99.111685" xlink:href="#m7bb16f3a81" y="131.714468"/>
     <use style="fill:#2ca02c;stroke:#2ca02c;" x="105.777927" xlink:href="#m7bb16f3a81" y="137.612329"/>
     <use style="fill:#2ca02c;stroke:#2ca02c;" x="112.444102" xlink:href="#m7bb16f3a81" y="139.086794"/>
     <use style="fill:#2ca02c;stroke:#2ca02c;" x="119.109836" xlink:href="#m7bb16f3a81" y="137.612329"/>
     <use style="fill:#2ca02c;stroke:#2ca02c;" x="125.775774" xlink:href="#m7bb16f3a81" y="134.663399"/>
     <use style="fill:#2ca02c;stroke:#2ca02c;" x="132.441922" xlink:href="#m7bb16f3a81" y="133.188933"/>
     <use style="fill:#2ca02c;stroke:#2ca02c;" x="139.108171" xlink:href="#m7bb16f3a81" y="131.714468"/>
     <use style="fill:#2ca02c;stroke:#2ca02c;" x="145.77424" xlink:href="#m7bb16f3a81" y="128.765538"/>
     <use style="fill:#2ca02c;stroke:#2ca02c;" x="152.44022" xlink:href="#m7bb16f3a81" y="127.291073"/>
     <use style="fill:#2ca02c;stroke:#2ca02c;" x="159.106262" xlink:href="#m7bb16f3a81" y="125.816608"/>
     <use style="fill:#2ca02c;stroke:#2ca02c;" x="165.772355" xlink:href="#m7bb16f3a81" y="124.342143"/>
     <use style="fill:#2ca02c;stroke:#2ca02c;" x="172.438402" xlink:href="#m7bb16f3a81" y="124.342143"/>
     <use style="fill:#2ca02c;stroke:#2ca02c;" x="179.10443" xlink:href="#m7bb16f3a81" y="122.867678"/>
     <use style="fill:#2ca02c;stroke:#2ca02c;" x="185.770481" xlink:href="#m7bb16f3a81" y="121.393213"/>
     <use style="fill:#2ca02c;stroke:#2ca02c;" x="192.436499" xlink:href="#m7bb16f3a81" y="119.918748"/>
     <use style="fill:#2ca02c;stroke:#2ca02c;" x="199.102553" xlink:href="#m7bb16f3a81" y="119.918748"/>
     <use style="fill:#2ca02c;stroke:#2ca02c;" x="205.768622" xlink:href="#m7bb16f3a81" y="119.918748"/>
     <use style="fill:#2ca02c;stroke:#2ca02c;" x="212.434704" xlink:href="#m7bb16f3a81" y="118.444283"/>
     <use style="fill:#2ca02c;stroke:#2ca02c;" x="219.100715" xlink:href="#m7bb16f3a81" y="118.444283"/>
     <use style="fill:#2ca02c;stroke:#2ca02c;" x="225.766826" xlink:href="#m7bb16f3a81" y="116.969817"/>
     <use style="fill:#2ca02c;stroke:#2ca02c;" x="232.432819" xlink:href="#m7bb16f3a81" y="116.969817"/>
     <use style="fill:#2ca02c;stroke:#2ca02c;" x="239.09894" xlink:href="#m7bb16f3a81" y="116.969817"/>
     <use style="fill:#2ca02c;stroke:#2ca02c;" x="245.764954" xlink:href="#m7bb16f3a81" y="118.444283"/>
     <use style="fill:#2ca02c;stroke:#2ca02c;" x="252.431051" xlink:href="#m7bb16f3a81" y="122.867678"/>
     <use style="fill:#2ca02c;stroke:#2ca02c;" x="259.097108" xlink:href="#m7bb16f3a81" y="124.342143"/>
     <use style="fill:#2ca02c;stroke:#2ca02c;" x="265.763141" xlink:href="#m7bb16f3a81" y="134.663399"/>
     <use style="fill:#2ca02c;stroke:#2ca02c;" x="272.429199" xlink:href="#m7bb16f3a81" y="143.510189"/>
     <use style="fill:#2ca02c;stroke:#2ca02c;" x="279.095298" xlink:href="#m7bb16f3a81" y="159.729305"/>
     <use style="fill:#2ca02c;stroke:#2ca02c;" x="285.761349" xlink:href="#m7bb16f3a81" y="178.897352"/>
     <use style="fill:#2ca02c;stroke:#2ca02c;" x="292.427418" xlink:href="#m7bb16f3a81" y="199.539863"/>
     <use style="fill:#2ca02c;stroke:#2ca02c;" x="299.09348" xlink:href="#m7bb16f3a81" y="214.284514"/>
     <use style="fill:#2ca02c;stroke:#2ca02c;" x="305.759552" xlink:href="#m7bb16f3a81" y="227.5547"/>
     <use style="fill:#2ca02c;stroke:#2ca02c;" x="312.425606" xlink:href="#m7bb16f3a81" y="236.40149"/>
     <use style="fill:#2ca02c;stroke:#2ca02c;" x="319.091672" xlink:href="#m7bb16f3a81" y="246.722746"/>
     <use style="fill:#2ca02c;stroke:#2ca02c;" x="325.757731" xlink:href="#m7bb16f3a81" y="254.095071"/>
     <use style="fill:#2ca02c;stroke:#2ca02c;" x="332.423798" xlink:href="#m7bb16f3a81" y="259.992932"/>
     <use style="fill:#2ca02c;stroke:#2ca02c;" x="339.089865" xlink:href="#m7bb16f3a81" y="267.365257"/>
     <use style="fill:#2ca02c;stroke:#2ca02c;" x="345.755945" xlink:href="#m7bb16f3a81" y="273.263118"/>
     <use style="fill:#2ca02c;stroke:#2ca02c;" x="352.422004" xlink:href="#m7bb16f3a81" y="279.160978"/>
     <use style="fill:#2ca02c;stroke:#2ca02c;" x="359.088071" xlink:href="#m7bb16f3a81" y="283.584373"/>
     <use style="fill:#2ca02c;stroke:#2ca02c;" x="365.754147" xlink:href="#m7bb16f3a81" y="289.482234"/>
     <use style="fill:#2ca02c;stroke:#2ca02c;" x="372.420213" xlink:href="#m7bb16f3a81" y="292.431164"/>
     <use style="fill:#2ca02c;stroke:#2ca02c;" x="379.086273" xlink:href="#m7bb16f3a81" y="295.380094"/>
     <use style="fill:#2ca02c;stroke:#2ca02c;" x="385.752341" xlink:href="#m7bb16f3a81" y="298.329024"/>
     <use style="fill:#2ca02c;stroke:#2ca02c;" x="392.418418" xlink:href="#m7bb16f3a81" y="301.277955"/>
     <use style="fill:#2ca02c;stroke:#2ca02c;" x="399.08448" xlink:href="#m7bb16f3a81" y="302.75242"/>
     <use style="fill:#2ca02c;stroke:#2ca02c;" x="405.750549" xlink:href="#m7bb16f3a81" y="305.70135"/>
     <use style="fill:#2ca02c;stroke:#2ca02c;" x="412.416621" xlink:href="#m7bb16f3a81" y="307.175815"/>
     <use style="fill:#2ca02c;stroke:#2ca02c;" x="419.082691" xlink:href="#m7bb16f3a81" y="307.175815"/>
     <use style="fill:#2ca02c;stroke:#2ca02c;" x="425.748757" xlink:href="#m7bb16f3a81" y="308.65028"/>
     <use style="fill:#2ca02c;stroke:#2ca02c;" x="432.414827" xlink:href="#m7bb16f3a81" y="311.59921"/>
     <use style="fill:#2ca02c;stroke:#2ca02c;" x="439.080896" xlink:href="#m7bb16f3a81" y="311.59921"/>
     <use style="fill:#2ca02c;stroke:#2ca02c;" x="445.746965" xlink:href="#m7bb16f3a81" y="313.073675"/>
     <use style="fill:#2ca02c;stroke:#2ca02c;" x="452.413034" xlink:href="#m7bb16f3a81" y="314.54814"/>
     <use style="fill:#2ca02c;stroke:#2ca02c;" x="459.079102" xlink:href="#m7bb16f3a81" y="316.022606"/>
     <use style="fill:#2ca02c;stroke:#2ca02c;" x="465.745171" xlink:href="#m7bb16f3a81" y="316.022606"/>
     <use style="fill:#2ca02c;stroke:#2ca02c;" x="472.411238" xlink:href="#m7bb16f3a81" y="316.022606"/>
     <use style="fill:#2ca02c;stroke:#2ca02c;" x="479.077307" xlink:href="#m7bb16f3a81" y="316.022606"/>
     <use style="fill:#2ca02c;stroke:#2ca02c;" x="485.743376" xlink:href="#m7bb16f3a81" y="317.497071"/>
     <use style="fill:#2ca02c;stroke:#2ca02c;" x="492.409445" xlink:href="#m7bb16f3a81" y="317.497071"/>
     <use style="fill:#2ca02c;stroke:#2ca02c;" x="499.075515" xlink:href="#m7bb16f3a81" y="318.971536"/>
     <use style="fill:#2ca02c;stroke:#2ca02c;" x="505.741584" xlink:href="#m7bb16f3a81" y="318.971536"/>
     <use style="fill:#2ca02c;stroke:#2ca02c;" x="512.407652" xlink:href="#m7bb16f3a81" y="318.971536"/>
     <use style="fill:#2ca02c;stroke:#2ca02c;" x="519.073721" xlink:href="#m7bb16f3a81" y="318.971536"/>
     <use style="fill:#2ca02c;stroke:#2ca02c;" x="525.739791" xlink:href="#m7bb16f3a81" y="318.971536"/>
     <use style="fill:#2ca02c;stroke:#2ca02c;" x="532.405858" xlink:href="#m7bb16f3a81" y="318.971536"/>
     <use style="fill:#2ca02c;stroke:#2ca02c;" x="539.071927" xlink:href="#m7bb16f3a81" y="318.971536"/>
     <use style="fill:#2ca02c;stroke:#2ca02c;" x="545.737996" xlink:href="#m7bb16f3a81" y="318.971536"/>
     <use style="fill:#2ca02c;stroke:#2ca02c;" x="552.404066" xlink:href="#m7bb16f3a81" y="318.971536"/>
     <use style="fill:#2ca02c;stroke:#2ca02c;" x="559.070134" xlink:href="#m7bb16f3a81" y="318.971536"/>
     <use style="fill:#2ca02c;stroke:#2ca02c;" x="565.736204" xlink:href="#m7bb16f3a81" y="318.971536"/>
     <use style="fill:#2ca02c;stroke:#2ca02c;" x="572.402273" xlink:href="#m7bb16f3a81" y="318.971536"/>
    </g>
   </g>
   <g id="patch_4">
    <path d="M 47.45 383.848 
L 47.45 26.88 
" style="fill:none;stroke:#000000;stroke-linecap:square;stroke-linejoin:miter;stroke-width:0.8;"/>
   </g>
   <g id="patch_5">
    <path d="M 597.4 383.848 
L 597.4 26.88 
" style="fill:none;stroke:#000000;stroke-linecap:square;stroke-linejoin:miter;stroke-width:0.8;"/>
   </g>
   <g id="patch_6">
    <path d="M 47.45 383.848 
L 597.4 383.848 
" style="fill:none;stroke:#000000;stroke-linecap:square;stroke-linejoin:miter;stroke-width:0.8;"/>
   </g>
   <g id="patch_7">
    <path d="M 47.45 26.88 
L 597.4 26.88 
" style="fill:none;stroke:#000000;stroke-linecap:square;stroke-linejoin:miter;stroke-width:0.8;"/>
   </g>
   <g id="text_11">
    <!-- L3 -->
    <defs>
     <path d="M 9.8125 72.90625 
L 19.671875 72.90625 
L 19.671875 8.296875 
L 55.171875 8.296875 
L 55.171875 0 
L 9.8125 0 
z
" id="DejaVuSans-76"/>
    </defs>
    <g transform="translate(162.216937 361.731024)scale(0.2 -0.2)">
     <use xlink:href="#DejaVuSans-76"/>
     <use x="55.712891" xlink:href="#DejaVuSans-51"/>
    </g>
   </g>
   <g id="text_12">
    <!-- RAM -->
    <defs>
     <path d="M 34.1875 63.1875 
L 20.796875 26.90625 
L 47.609375 26.90625 
z
M 28.609375 72.90625 
L 39.796875 72.90625 
L 67.578125 0 
L 57.328125 0 
L 50.6875 18.703125 
L 17.828125 18.703125 
L 11.1875 0 
L 0.78125 0 
z
" id="DejaVuSans-65"/>
     <path d="M 9.8125 72.90625 
L 24.515625 72.90625 
L 43.109375 23.296875 
L 61.8125 72.90625 
L 76.515625 72.90625 
L 76.515625 0 
L 66.890625 0 
L 66.890625 64.015625 
L 48.09375 14.015625 
L 38.1875 14.015625 
L 19.390625 64.015625 
L 19.390625 0 
L 9.8125 0 
z
" id="DejaVuSans-77"/>
    </defs>
    <g transform="translate(419.327365 361.731024)scale(0.2 -0.2)">
     <use xlink:href="#DejaVuSans-82"/>
     <use x="65.482422" xlink:href="#DejaVuSans-65"/>
     <use x="133.890625" xlink:href="#DejaVuSans-77"/>
    </g>
   </g>
   <g id="text_13">
    <!-- Fill Performance : Uncore Tracker Writes -->
    <defs>
     <path d="M 19.671875 64.796875 
L 19.671875 37.40625 
L 32.078125 37.40625 
Q 38.96875 37.40625 42.71875 40.96875 
Q 46.484375 44.53125 46.484375 51.125 
Q 46.484375 57.671875 42.71875 61.234375 
Q 38.96875 64.796875 32.078125 64.796875 
z
M 9.8125 72.90625 
L 32.078125 72.90625 
Q 44.34375 72.90625 50.609375 67.359375 
Q 56.890625 61.8125 56.890625 51.125 
Q 56.890625 40.328125 50.609375 34.8125 
Q 44.34375 29.296875 32.078125 29.296875 
L 19.671875 29.296875 
L 19.671875 0 
L 9.8125 0 
z
" id="DejaVuSans-80"/>
     <path d="M 41.109375 46.296875 
Q 39.59375 47.171875 37.8125 47.578125 
Q 36.03125 48 33.890625 48 
Q 26.265625 48 22.1875 43.046875 
Q 18.109375 38.09375 18.109375 28.8125 
L 18.109375 0 
L 9.078125 0 
L 9.078125 54.6875 
L 18.109375 54.6875 
L 18.109375 46.1875 
Q 20.953125 51.171875 25.484375 53.578125 
Q 30.03125 56 36.53125 56 
Q 37.453125 56 38.578125 55.875 
Q 39.703125 55.765625 41.0625 55.515625 
z
" id="DejaVuSans-114"/>
     <path d="M 37.109375 75.984375 
L 37.109375 68.5 
L 28.515625 68.5 
Q 23.6875 68.5 21.796875 66.546875 
Q 19.921875 64.59375 19.921875 59.515625 
L 19.921875 54.6875 
L 34.71875 54.6875 
L 34.71875 47.703125 
L 19.921875 47.703125 
L 19.921875 0 
L 10.890625 0 
L 10.890625 47.703125 
L 2.296875 47.703125 
L 2.296875 54.6875 
L 10.890625 54.6875 
L 10.890625 58.5 
Q 10.890625 67.625 15.140625 71.796875 
Q 19.390625 75.984375 28.609375 75.984375 
z
" id="DejaVuSans-102"/>
     <path d="M 52 44.1875 
Q 55.375 50.25 60.0625 53.125 
Q 64.75 56 71.09375 56 
Q 79.640625 56 84.28125 50.015625 
Q 88.921875 44.046875 88.921875 33.015625 
L 88.921875 0 
L 79.890625 0 
L 79.890625 32.71875 
Q 79.890625 40.578125 77.09375 44.375 
Q 74.3125 48.1875 68.609375 48.1875 
Q 61.625 48.1875 57.5625 43.546875 
Q 53.515625 38.921875 53.515625 30.90625 
L 53.515625 0 
L 44.484375 0 
L 44.484375 32.71875 
Q 44.484375 40.625 41.703125 44.40625 
Q 38.921875 48.1875 33.109375 48.1875 
Q 26.21875 48.1875 22.15625 43.53125 
Q 18.109375 38.875 18.109375 30.90625 
L 18.109375 0 
L 9.078125 0 
L 9.078125 54.6875 
L 18.109375 54.6875 
L 18.109375 46.1875 
Q 21.1875 51.21875 25.484375 53.609375 
Q 29.78125 56 35.6875 56 
Q 41.65625 56 45.828125 52.96875 
Q 50 49.953125 52 44.1875 
z
" id="DejaVuSans-109"/>
     <path d="M 34.28125 27.484375 
Q 23.390625 27.484375 19.1875 25 
Q 14.984375 22.515625 14.984375 16.5 
Q 14.984375 11.71875 18.140625 8.90625 
Q 21.296875 6.109375 26.703125 6.109375 
Q 34.1875 6.109375 38.703125 11.40625 
Q 43.21875 16.703125 43.21875 25.484375 
L 43.21875 27.484375 
z
M 52.203125 31.203125 
L 52.203125 0 
L 43.21875 0 
L 43.21875 8.296875 
Q 40.140625 3.328125 35.546875 0.953125 
Q 30.953125 -1.421875 24.3125 -1.421875 
Q 15.921875 -1.421875 10.953125 3.296875 
Q 6 8.015625 6 15.921875 
Q 6 25.140625 12.171875 29.828125 
Q 18.359375 34.515625 30.609375 34.515625 
L 43.21875 34.515625 
L 43.21875 35.40625 
Q 43.21875 41.609375 39.140625 45 
Q 35.0625 48.390625 27.6875 48.390625 
Q 23 48.390625 18.546875 47.265625 
Q 14.109375 46.140625 10.015625 43.890625 
L 10.015625 52.203125 
Q 14.9375 54.109375 19.578125 55.046875 
Q 24.21875 56 28.609375 56 
Q 40.484375 56 46.34375 49.84375 
Q 52.203125 43.703125 52.203125 31.203125 
z
" id="DejaVuSans-97"/>
     <path d="M 48.78125 52.59375 
L 48.78125 44.1875 
Q 44.96875 46.296875 41.140625 47.34375 
Q 37.3125 48.390625 33.40625 48.390625 
Q 24.65625 48.390625 19.8125 42.84375 
Q 14.984375 37.3125 14.984375 27.296875 
Q 14.984375 17.28125 19.8125 11.734375 
Q 24.65625 6.203125 33.40625 6.203125 
Q 37.3125 6.203125 41.140625 7.25 
Q 44.96875 8.296875 48.78125 10.40625 
L 48.78125 2.09375 
Q 45.015625 0.34375 40.984375 -0.53125 
Q 36.96875 -1.421875 32.421875 -1.421875 
Q 20.0625 -1.421875 12.78125 6.34375 
Q 5.515625 14.109375 5.515625 27.296875 
Q 5.515625 40.671875 12.859375 48.328125 
Q 20.21875 56 33.015625 56 
Q 37.15625 56 41.109375 55.140625 
Q 45.0625 54.296875 48.78125 52.59375 
z
" id="DejaVuSans-99"/>
     <path d="M 11.71875 12.40625 
L 22.015625 12.40625 
L 22.015625 0 
L 11.71875 0 
z
M 11.71875 51.703125 
L 22.015625 51.703125 
L 22.015625 39.3125 
L 11.71875 39.3125 
z
" id="DejaVuSans-58"/>
     <path d="M 8.6875 72.90625 
L 18.609375 72.90625 
L 18.609375 28.609375 
Q 18.609375 16.890625 22.84375 11.734375 
Q 27.09375 6.59375 36.625 6.59375 
Q 46.09375 6.59375 50.34375 11.734375 
Q 54.59375 16.890625 54.59375 28.609375 
L 54.59375 72.90625 
L 64.5 72.90625 
L 64.5 27.390625 
Q 64.5 13.140625 57.4375 5.859375 
Q 50.390625 -1.421875 36.625 -1.421875 
Q 22.796875 -1.421875 15.734375 5.859375 
Q 8.6875 13.140625 8.6875 27.390625 
z
" id="DejaVuSans-85"/>
     <path d="M -0.296875 72.90625 
L 61.375 72.90625 
L 61.375 64.59375 
L 35.5 64.59375 
L 35.5 0 
L 25.59375 0 
L 25.59375 64.59375 
L -0.296875 64.59375 
z
" id="DejaVuSans-84"/>
     <path d="M 9.078125 75.984375 
L 18.109375 75.984375 
L 18.109375 31.109375 
L 44.921875 54.6875 
L 56.390625 54.6875 
L 27.390625 29.109375 
L 57.625 0 
L 45.90625 0 
L 18.109375 26.703125 
L 18.109375 0 
L 9.078125 0 
z
" id="DejaVuSans-107"/>
     <path d="M 3.328125 72.90625 
L 13.28125 72.90625 
L 28.609375 11.28125 
L 43.890625 72.90625 
L 54.984375 72.90625 
L 70.3125 11.28125 
L 85.59375 72.90625 
L 95.609375 72.90625 
L 77.296875 0 
L 64.890625 0 
L 49.515625 63.28125 
L 33.984375 0 
L 21.578125 0 
z
" id="DejaVuSans-87"/>
    </defs>
    <g transform="translate(203.04375 20.88)scale(0.12 -0.12)">
     <use xlink:href="#DejaVuSans-70"/>
     <use x="50.269531" xlink:href="#DejaVuSans-105"/>
     <use x="78.052734" xlink:href="#DejaVuSans-108"/>
     <use x="105.835938" xlink:href="#DejaVuSans-108"/>
     <use x="133.619141" xlink:href="#DejaVuSans-32"/>
     <use x="165.40625" xlink:href="#DejaVuSans-80"/>
     <use x="222.083984" xlink:href="#DejaVuSans-101"/>
     <use x="283.607422" xlink:href="#DejaVuSans-114"/>
     <use x="324.720703" xlink:href="#DejaVuSans-102"/>
     <use x="359.925781" xlink:href="#DejaVuSans-111"/>
     <use x="421.107422" xlink:href="#DejaVuSans-114"/>
     <use x="460.470703" xlink:href="#DejaVuSans-109"/>
     <use x="557.882812" xlink:href="#DejaVuSans-97"/>
     <use x="619.162109" xlink:href="#DejaVuSans-110"/>
     <use x="682.541016" xlink:href="#DejaVuSans-99"/>
     <use x="737.521484" xlink:href="#DejaVuSans-101"/>
     <use x="799.044922" xlink:href="#DejaVuSans-32"/>
     <use x="830.832031" xlink:href="#DejaVuSans-58"/>
     <use x="864.523438" xlink:href="#DejaVuSans-32"/>
     <use x="896.310547" xlink:href="#DejaVuSans-85"/>
     <use x="969.503906" xlink:href="#DejaVuSans-110"/>
     <use x="1032.882812" xlink:href="#DejaVuSans-99"/>
     <use x="1087.863281" xlink:href="#DejaVuSans-111"/>
     <use x="1149.044922" xlink:href="#DejaVuSans-114"/>
     <use x="1187.908203" xlink:href="#DejaVuSans-101"/>
     <use x="1249.431641" xlink:href="#DejaVuSans-32"/>
     <use x="1281.21875" xlink:href="#DejaVuSans-84"/>
     <use x="1327.552734" xlink:href="#DejaVuSans-114"/>
     <use x="1368.666016" xlink:href="#DejaVuSans-97"/>
     <use x="1429.945312" xlink:href="#DejaVuSans-99"/>
     <use x="1484.925781" xlink:href="#DejaVuSans-107"/>
     <use x="1539.210938" xlink:href="#DejaVuSans-101"/>
     <use x="1600.734375" xlink:href="#DejaVuSans-114"/>
     <use x="1641.847656" xlink:href="#DejaVuSans-32"/>
     <use x="1673.634766" xlink:href="#DejaVuSans-87"/>
     <use x="1768.011719" xlink:href="#DejaVuSans-114"/>
     <use x="1809.125" xlink:href="#DejaVuSans-105"/>
     <use x="1836.908203" xlink:href="#DejaVuSans-116"/>
     <use x="1876.117188" xlink:href="#DejaVuSans-101"/>
     <use x="1937.640625" xlink:href="#DejaVuSans-115"/>
    </g>
   </g>
   <g id="legend_1">
    <g id="patch_8">
     <path d="M 54.45 228.881188 
L 112.001563 228.881188 
Q 114.001563 228.881188 114.001563 226.881188 
L 114.001563 183.846812 
Q 114.001563 181.846812 112.001563 181.846812 
L 54.45 181.846812 
Q 52.45 181.846812 52.45 183.846812 
L 52.45 226.881188 
Q 52.45 228.881188 54.45 228.881188 
z
" style="fill:#ffffff;opacity:0.8;stroke:#cccccc;stroke-linejoin:miter;"/>
    </g>
    <g id="line2d_39"/>
    <g id="line2d_40">
     <g>
      <use style="fill:#1f77b4;stroke:#1f77b4;" x="66.45" xlink:href="#mea49ddc4e0" y="189.94525"/>
     </g>
    </g>
    <g id="text_14">
     <!-- fill0 -->
     <g transform="translate(84.45 193.44525)scale(0.1 -0.1)">
      <use xlink:href="#DejaVuSans-102"/>
      <use x="35.205078" xlink:href="#DejaVuSans-105"/>
      <use x="62.988281" xlink:href="#DejaVuSans-108"/>
      <use x="90.771484" xlink:href="#DejaVuSans-108"/>
      <use x="118.554688" xlink:href="#DejaVuSans-48"/>
     </g>
    </g>
    <g id="line2d_41"/>
    <g id="line2d_42">
     <g>
      <use style="fill:#ff7f0e;stroke:#ff7f0e;" x="66.45" xlink:href="#m0c9ea33c33" y="204.623375"/>
     </g>
    </g>
    <g id="text_15">
     <!-- fill1 -->
     <g transform="translate(84.45 208.123375)scale(0.1 -0.1)">
      <use xlink:href="#DejaVuSans-102"/>
      <use x="35.205078" xlink:href="#DejaVuSans-105"/>
      <use x="62.988281" xlink:href="#DejaVuSans-108"/>
      <use x="90.771484" xlink:href="#DejaVuSans-108"/>
      <use x="118.554688" xlink:href="#DejaVuSans-49"/>
     </g>
    </g>
    <g id="line2d_43"/>
    <g id="line2d_44">
     <g>
      <use style="fill:#2ca02c;stroke:#2ca02c;" x="66.45" xlink:href="#m7bb16f3a81" y="219.3015"/>
     </g>
    </g>
    <g id="text_16">
     <!-- alt01 -->
     <g transform="translate(84.45 222.8015)scale(0.1 -0.1)">
      <use xlink:href="#DejaVuSans-97"/>
      <use x="61.279297" xlink:href="#DejaVuSans-108"/>
      <use x="89.0625" xlink:href="#DejaVuSans-116"/>
      <use x="128.271484" xlink:href="#DejaVuSans-48"/>
      <use x="191.894531" xlink:href="#DejaVuSans-49"/>
     </g>
    </g>
   </g>
  </g>
  <g id="axes_2">
   <g id="matplotlib.axis_3">
    <g id="ytick_6">
     <g id="line2d_45">
      <defs>
       <path d="M 0 0 
L 3.5 0 
" id="m7123d79510" style="stroke:#000000;stroke-width:0.8;"/>
      </defs>
      <g>
       <use style="stroke:#000000;stroke-width:0.8;" x="597.4" xlink:href="#m7123d79510" y="367.622182"/>
      </g>
     </g>
     <g id="text_17">
      <!-- 0.0 -->
      <defs>
       <path d="M 10.6875 12.40625 
L 21 12.40625 
L 21 0 
L 10.6875 0 
z
" id="DejaVuSans-46"/>
      </defs>
      <g transform="translate(604.4 371.421401)scale(0.1 -0.1)">
       <use xlink:href="#DejaVuSans-48"/>
       <use x="63.623047" xlink:href="#DejaVuSans-46"/>
       <use x="95.410156" xlink:href="#DejaVuSans-48"/>
      </g>
     </g>
    </g>
    <g id="ytick_7">
     <g id="line2d_46">
      <g>
       <use style="stroke:#000000;stroke-width:0.8;" x="597.4" xlink:href="#m7123d79510" y="302.06332"/>
      </g>
     </g>
     <g id="text_18">
      <!-- 0.2 -->
      <g transform="translate(604.4 305.862539)scale(0.1 -0.1)">
       <use xlink:href="#DejaVuSans-48"/>
       <use x="63.623047" xlink:href="#DejaVuSans-46"/>
       <use x="95.410156" xlink:href="#DejaVuSans-50"/>
      </g>
     </g>
    </g>
    <g id="ytick_8">
     <g id="line2d_47">
      <g>
       <use style="stroke:#000000;stroke-width:0.8;" x="597.4" xlink:href="#m7123d79510" y="236.504459"/>
      </g>
     </g>
     <g id="text_19">
      <!-- 0.4 -->
      <defs>
       <path d="M 37.796875 64.3125 
L 12.890625 25.390625 
L 37.796875 25.390625 
z
M 35.203125 72.90625 
L 47.609375 72.90625 
L 47.609375 25.390625 
L 58.015625 25.390625 
L 58.015625 17.1875 
L 47.609375 17.1875 
L 47.609375 0 
L 37.796875 0 
L 37.796875 17.1875 
L 4.890625 17.1875 
L 4.890625 26.703125 
z
" id="DejaVuSans-52"/>
      </defs>
      <g transform="translate(604.4 240.303678)scale(0.1 -0.1)">
       <use xlink:href="#DejaVuSans-48"/>
       <use x="63.623047" xlink:href="#DejaVuSans-46"/>
       <use x="95.410156" xlink:href="#DejaVuSans-52"/>
      </g>
     </g>
    </g>
    <g id="ytick_9">
     <g id="line2d_48">
      <g>
       <use style="stroke:#000000;stroke-width:0.8;" x="597.4" xlink:href="#m7123d79510" y="170.945598"/>
      </g>
     </g>
     <g id="text_20">
      <!-- 0.6 -->
      <g transform="translate(604.4 174.744817)scale(0.1 -0.1)">
       <use xlink:href="#DejaVuSans-48"/>
       <use x="63.623047" xlink:href="#DejaVuSans-46"/>
       <use x="95.410156" xlink:href="#DejaVuSans-54"/>
      </g>
     </g>
    </g>
    <g id="ytick_10">
     <g id="line2d_49">
      <g>
       <use style="stroke:#000000;stroke-width:0.8;" x="597.4" xlink:href="#m7123d79510" y="105.386736"/>
      </g>
     </g>
     <g id="text_21">
      <!-- 0.8 -->
      <g transform="translate(604.4 109.185955)scale(0.1 -0.1)">
       <use xlink:href="#DejaVuSans-48"/>
       <use x="63.623047" xlink:href="#DejaVuSans-46"/>
       <use x="95.410156" xlink:href="#DejaVuSans-56"/>
      </g>
     </g>
    </g>
    <g id="ytick_11">
     <g id="line2d_50">
      <g>
       <use style="stroke:#000000;stroke-width:0.8;" x="597.4" xlink:href="#m7123d79510" y="39.827875"/>
      </g>
     </g>
     <g id="text_22">
      <!-- 1.0 -->
      <g transform="translate(604.4 43.627094)scale(0.1 -0.1)">
       <use xlink:href="#DejaVuSans-49"/>
       <use x="63.623047" xlink:href="#DejaVuSans-46"/>
       <use x="95.410156" xlink:href="#DejaVuSans-48"/>
      </g>
     </g>
    </g>
    <g id="text_23">
     <!-- Events / Cacheline -->
     <defs>
      <path d="M 9.8125 72.90625 
L 55.90625 72.90625 
L 55.90625 64.59375 
L 19.671875 64.59375 
L 19.671875 43.015625 
L 54.390625 43.015625 
L 54.390625 34.71875 
L 19.671875 34.71875 
L 19.671875 8.296875 
L 56.78125 8.296875 
L 56.78125 0 
L 9.8125 0 
z
" id="DejaVuSans-69"/>
      <path d="M 2.984375 54.6875 
L 12.5 54.6875 
L 29.59375 8.796875 
L 46.6875 54.6875 
L 56.203125 54.6875 
L 35.6875 0 
L 23.484375 0 
z
" id="DejaVuSans-118"/>
      <path d="M 64.40625 67.28125 
L 64.40625 56.890625 
Q 59.421875 61.53125 53.78125 63.8125 
Q 48.140625 66.109375 41.796875 66.109375 
Q 29.296875 66.109375 22.65625 58.46875 
Q 16.015625 50.828125 16.015625 36.375 
Q 16.015625 21.96875 22.65625 14.328125 
Q 29.296875 6.6875 41.796875 6.6875 
Q 48.140625 6.6875 53.78125 8.984375 
Q 59.421875 11.28125 64.40625 15.921875 
L 64.40625 5.609375 
Q 59.234375 2.09375 53.4375 0.328125 
Q 47.65625 -1.421875 41.21875 -1.421875 
Q 24.65625 -1.421875 15.125 8.703125 
Q 5.609375 18.84375 5.609375 36.375 
Q 5.609375 53.953125 15.125 64.078125 
Q 24.65625 74.21875 41.21875 74.21875 
Q 47.75 74.21875 53.53125 72.484375 
Q 59.328125 70.75 64.40625 67.28125 
z
" id="DejaVuSans-67"/>
      <path d="M 54.890625 33.015625 
L 54.890625 0 
L 45.90625 0 
L 45.90625 32.71875 
Q 45.90625 40.484375 42.875 44.328125 
Q 39.84375 48.1875 33.796875 48.1875 
Q 26.515625 48.1875 22.3125 43.546875 
Q 18.109375 38.921875 18.109375 30.90625 
L 18.109375 0 
L 9.078125 0 
L 9.078125 75.984375 
L 18.109375 75.984375 
L 18.109375 46.1875 
Q 21.34375 51.125 25.703125 53.5625 
Q 30.078125 56 35.796875 56 
Q 45.21875 56 50.046875 50.171875 
Q 54.890625 44.34375 54.890625 33.015625 
z
" id="DejaVuSans-104"/>
     </defs>
     <g transform="translate(633.42125 261.001813)rotate(-90)scale(0.12 -0.12)">
      <use xlink:href="#DejaVuSans-69"/>
      <use x="63.183594" xlink:href="#DejaVuSans-118"/>
      <use x="122.363281" xlink:href="#DejaVuSans-101"/>
      <use x="183.886719" xlink:href="#DejaVuSans-110"/>
      <use x="247.265625" xlink:href="#DejaVuSans-116"/>
      <use x="286.474609" xlink:href="#DejaVuSans-115"/>
      <use x="338.574219" xlink:href="#DejaVuSans-32"/>
      <use x="370.361328" xlink:href="#DejaVuSans-47"/>
      <use x="404.052734" xlink:href="#DejaVuSans-32"/>
      <use x="435.839844" xlink:href="#DejaVuSans-67"/>
      <use x="505.664062" xlink:href="#DejaVuSans-97"/>
      <use x="566.943359" xlink:href="#DejaVuSans-99"/>
      <use x="621.923828" xlink:href="#DejaVuSans-104"/>
      <use x="685.302734" xlink:href="#DejaVuSans-101"/>
      <use x="746.826172" xlink:href="#DejaVuSans-108"/>
      <use x="774.609375" xlink:href="#DejaVuSans-105"/>
      <use x="802.392578" xlink:href="#DejaVuSans-110"/>
      <use x="865.771484" xlink:href="#DejaVuSans-101"/>
     </g>
    </g>
   </g>
   <g id="line2d_51">
    <path clip-path="url(#pcddf649632)" d="M 72.447727 367.622182 
L 79.113796 367.622182 
L 85.779865 367.622182 
L 92.445934 367.622182 
L 99.111685 367.622182 
L 105.777927 367.622182 
L 112.444102 367.622182 
L 119.109836 367.622182 
L 125.775774 367.622182 
L 132.441922 367.622182 
L 139.108171 367.622182 
L 145.77424 367.622182 
L 152.44022 367.622182 
L 159.106262 367.622182 
L 165.772355 367.622182 
L 172.438402 367.622182 
L 179.10443 367.622182 
L 185.770481 367.622182 
L 192.436499 367.622182 
L 199.102553 367.622182 
L 205.768622 367.622182 
L 212.434704 367.622182 
L 219.100715 367.622182 
L 225.766826 367.622182 
L 232.432819 367.622182 
L 239.09894 367.622182 
L 245.764954 367.622182 
L 252.431051 364.344239 
L 259.097108 364.344239 
L 265.763141 361.066296 
L 272.429199 357.788353 
L 279.095298 347.954523 
L 285.761349 338.120694 
L 292.427418 321.730979 
L 299.09348 311.89715 
L 305.759552 298.785377 
L 312.425606 292.229491 
L 319.091672 282.395662 
L 325.757731 275.839776 
L 332.423798 272.561833 
L 339.089865 266.005947 
L 345.755945 259.450061 
L 352.422004 256.172118 
L 359.088071 249.616231 
L 365.754147 246.338288 
L 372.420213 243.060345 
L 379.086273 239.782402 
L 385.752341 236.504459 
L 392.418418 233.226516 
L 399.08448 229.948573 
L 405.750549 226.67063 
L 412.416621 226.67063 
L 419.082691 223.392687 
L 425.748757 223.392687 
L 432.414827 220.114744 
L 439.080896 220.114744 
L 445.746965 220.114744 
L 452.413034 216.836801 
L 459.079102 216.836801 
L 465.745171 216.836801 
L 472.411238 216.836801 
L 479.077307 213.558858 
L 485.743376 213.558858 
L 492.409445 213.558858 
L 499.075515 213.558858 
L 505.741584 213.558858 
L 512.407652 213.558858 
L 519.073721 213.558858 
L 525.739791 213.558858 
L 532.405858 210.280915 
L 539.071927 210.280915 
L 545.737996 210.280915 
L 552.404066 210.280915 
L 559.070134 210.280915 
L 565.736204 210.280915 
L 572.402273 210.280915 
" style="fill:none;stroke:#d62728;stroke-linecap:square;stroke-width:1.5;"/>
   </g>
   <g id="line2d_52">
    <path clip-path="url(#pcddf649632)" d="M 72.447727 367.622182 
L 79.113796 367.622182 
L 85.779865 367.622182 
L 92.445934 367.622182 
L 99.111685 367.622182 
L 105.777927 367.622182 
L 112.444102 367.622182 
L 119.109836 367.622182 
L 125.775774 367.622182 
L 132.441922 367.622182 
L 139.108171 367.622182 
L 145.77424 367.622182 
L 152.44022 367.622182 
L 159.106262 367.622182 
L 165.772355 367.622182 
L 172.438402 367.622182 
L 179.10443 367.622182 
L 185.770481 367.622182 
L 192.436499 367.622182 
L 199.102553 367.622182 
L 205.768622 367.622182 
L 212.434704 367.622182 
L 219.100715 367.622182 
L 225.766826 367.622182 
L 232.432819 367.622182 
L 239.09894 367.622182 
L 245.764954 367.622182 
L 252.431051 361.066296 
L 259.097108 361.066296 
L 265.763141 354.51041 
L 272.429199 344.67658 
L 279.095298 328.286865 
L 285.761349 305.341264 
L 292.427418 282.395662 
L 299.09348 262.728004 
L 305.759552 243.060345 
L 312.425606 223.392687 
L 319.091672 207.002972 
L 325.757731 193.891199 
L 332.423798 180.779427 
L 339.089865 167.667655 
L 345.755945 154.555882 
L 352.422004 141.44411 
L 359.088071 131.610281 
L 365.754147 121.776452 
L 372.420213 115.220566 
L 379.086273 105.386736 
L 385.752341 102.108793 
L 392.418418 95.552907 
L 399.08448 88.997021 
L 405.750549 85.719078 
L 412.416621 79.163192 
L 419.082691 75.885249 
L 425.748757 72.607306 
L 432.414827 69.329363 
L 439.080896 66.05142 
L 445.746965 66.05142 
L 452.413034 62.773477 
L 459.079102 59.495534 
L 465.745171 59.495534 
L 472.411238 56.21759 
L 479.077307 56.21759 
L 485.743376 52.939647 
L 492.409445 52.939647 
L 499.075515 49.661704 
L 505.741584 49.661704 
L 512.407652 49.661704 
L 519.073721 49.661704 
L 525.739791 46.383761 
L 532.405858 46.383761 
L 539.071927 46.383761 
L 545.737996 46.383761 
L 552.404066 46.383761 
L 559.070134 43.105818 
L 565.736204 43.105818 
L 572.402273 43.105818 
" style="fill:none;stroke:#9467bd;stroke-linecap:square;stroke-width:1.5;"/>
   </g>
   <g id="line2d_53">
    <path clip-path="url(#pcddf649632)" d="M 72.447727 367.622182 
L 79.113796 367.622182 
L 85.779865 367.622182 
L 92.445934 367.622182 
L 99.111685 367.622182 
L 105.777927 367.622182 
L 112.444102 367.622182 
L 119.109836 367.622182 
L 125.775774 367.622182 
L 132.441922 367.622182 
L 139.108171 367.622182 
L 145.77424 367.622182 
L 152.44022 367.622182 
L 159.106262 367.622182 
L 165.772355 367.622182 
L 172.438402 367.622182 
L 179.10443 367.622182 
L 185.770481 367.622182 
L 192.436499 367.622182 
L 199.102553 367.622182 
L 205.768622 367.622182 
L 212.434704 367.622182 
L 219.100715 367.622182 
L 225.766826 367.622182 
L 232.432819 367.622182 
L 239.09894 367.622182 
L 245.764954 367.622182 
L 252.431051 364.344239 
L 259.097108 361.066296 
L 265.763141 357.788353 
L 272.429199 351.232466 
L 279.095298 338.120694 
L 285.761349 321.730979 
L 292.427418 302.06332 
L 299.09348 288.951548 
L 305.759552 269.28389 
L 312.425606 252.894174 
L 319.091672 243.060345 
L 325.757731 233.226516 
L 332.423798 223.392687 
L 339.089865 213.558858 
L 345.755945 203.725028 
L 352.422004 197.169142 
L 359.088071 187.335313 
L 365.754147 180.779427 
L 372.420213 174.223541 
L 379.086273 167.667655 
L 385.752341 164.389712 
L 392.418418 161.111769 
L 399.08448 157.833826 
L 405.750549 151.277939 
L 412.416621 147.999996 
L 419.082691 147.999996 
L 425.748757 144.722053 
L 432.414827 141.44411 
L 439.080896 138.166167 
L 445.746965 138.166167 
L 452.413034 134.888224 
L 459.079102 134.888224 
L 465.745171 131.610281 
L 472.411238 131.610281 
L 479.077307 131.610281 
L 485.743376 128.332338 
L 492.409445 128.332338 
L 499.075515 128.332338 
L 505.741584 125.054395 
L 512.407652 125.054395 
L 519.073721 125.054395 
L 525.739791 125.054395 
L 532.405858 125.054395 
L 539.071927 121.776452 
L 545.737996 121.776452 
L 552.404066 121.776452 
L 559.070134 121.776452 
L 565.736204 121.776452 
L 572.402273 121.776452 
" style="fill:none;stroke:#8c564b;stroke-linecap:square;stroke-width:1.5;"/>
   </g>
   <g id="patch_9">
    <path d="M 47.45 383.848 
L 47.45 26.88 
" style="fill:none;stroke:#000000;stroke-linecap:square;stroke-linejoin:miter;stroke-width:0.8;"/>
   </g>
   <g id="patch_10">
    <path d="M 597.4 383.848 
L 597.4 26.88 
" style="fill:none;stroke:#000000;stroke-linecap:square;stroke-linejoin:miter;stroke-width:0.8;"/>
   </g>
   <g id="patch_11">
    <path d="M 47.45 383.848 
L 597.4 383.848 
" style="fill:none;stroke:#000000;stroke-linecap:square;stroke-linejoin:miter;stroke-width:0.8;"/>
   </g>
   <g id="patch_12">
    <path d="M 47.45 26.88 
L 597.4 26.88 
" style="fill:none;stroke:#000000;stroke-linecap:square;stroke-linejoin:miter;stroke-width:0.8;"/>
   </g>
   <g id="legend_2">
    <g id="patch_13">
     <path d="M 495.0625 193.184388 
L 590.4 193.184388 
Q 592.4 193.184388 592.4 191.184388 
L 592.4 148.150013 
Q 592.4 146.150013 590.4 146.150013 
L 495.0625 146.150013 
Q 493.0625 146.150013 493.0625 148.150013 
L 493.0625 191.184388 
Q 493.0625 193.184388 495.0625 193.184388 
z
" style="fill:#ffffff;opacity:0.8;stroke:#cccccc;stroke-linejoin:miter;"/>
    </g>
    <g id="line2d_54">
     <path d="M 497.0625 154.24845 
L 517.0625 154.24845 
" style="fill:none;stroke:#d62728;stroke-linecap:square;stroke-width:1.5;"/>
    </g>
    <g id="line2d_55"/>
    <g id="text_24">
     <!-- fill0 : uncW -->
     <defs>
      <path d="M 8.5 21.578125 
L 8.5 54.6875 
L 17.484375 54.6875 
L 17.484375 21.921875 
Q 17.484375 14.15625 20.5 10.265625 
Q 23.53125 6.390625 29.59375 6.390625 
Q 36.859375 6.390625 41.078125 11.03125 
Q 45.3125 15.671875 45.3125 23.6875 
L 45.3125 54.6875 
L 54.296875 54.6875 
L 54.296875 0 
L 45.3125 0 
L 45.3125 8.40625 
Q 42.046875 3.421875 37.71875 1 
Q 33.40625 -1.421875 27.6875 -1.421875 
Q 18.265625 -1.421875 13.375 4.4375 
Q 8.5 10.296875 8.5 21.578125 
z
M 31.109375 56 
z
" id="DejaVuSans-117"/>
     </defs>
     <g transform="translate(525.0625 157.74845)scale(0.1 -0.1)">
      <use xlink:href="#DejaVuSans-102"/>
      <use x="35.205078" xlink:href="#DejaVuSans-105"/>
      <use x="62.988281" xlink:href="#DejaVuSans-108"/>
      <use x="90.771484" xlink:href="#DejaVuSans-108"/>
      <use x="118.554688" xlink:href="#DejaVuSans-48"/>
      <use x="182.177734" xlink:href="#DejaVuSans-32"/>
      <use x="213.964844" xlink:href="#DejaVuSans-58"/>
      <use x="247.65625" xlink:href="#DejaVuSans-32"/>
      <use x="279.443359" xlink:href="#DejaVuSans-117"/>
      <use x="342.822266" xlink:href="#DejaVuSans-110"/>
      <use x="406.201172" xlink:href="#DejaVuSans-99"/>
      <use x="461.181641" xlink:href="#DejaVuSans-87"/>
     </g>
    </g>
    <g id="line2d_56">
     <path d="M 497.0625 168.926575 
L 517.0625 168.926575 
" style="fill:none;stroke:#9467bd;stroke-linecap:square;stroke-width:1.5;"/>
    </g>
    <g id="line2d_57"/>
    <g id="text_25">
     <!-- fill1 : uncW -->
     <g transform="translate(525.0625 172.426575)scale(0.1 -0.1)">
      <use xlink:href="#DejaVuSans-102"/>
      <use x="35.205078" xlink:href="#DejaVuSans-105"/>
      <use x="62.988281" xlink:href="#DejaVuSans-108"/>
      <use x="90.771484" xlink:href="#DejaVuSans-108"/>
      <use x="118.554688" xlink:href="#DejaVuSans-49"/>
      <use x="182.177734" xlink:href="#DejaVuSans-32"/>
      <use x="213.964844" xlink:href="#DejaVuSans-58"/>
      <use x="247.65625" xlink:href="#DejaVuSans-32"/>
      <use x="279.443359" xlink:href="#DejaVuSans-117"/>
      <use x="342.822266" xlink:href="#DejaVuSans-110"/>
      <use x="406.201172" xlink:href="#DejaVuSans-99"/>
      <use x="461.181641" xlink:href="#DejaVuSans-87"/>
     </g>
    </g>
    <g id="line2d_58">
     <path d="M 497.0625 183.6047 
L 517.0625 183.6047 
" style="fill:none;stroke:#8c564b;stroke-linecap:square;stroke-width:1.5;"/>
    </g>
    <g id="line2d_59"/>
    <g id="text_26">
     <!-- alt01 : uncW -->
     <g transform="translate(525.0625 187.1047)scale(0.1 -0.1)">
      <use xlink:href="#DejaVuSans-97"/>
      <use x="61.279297" xlink:href="#DejaVuSans-108"/>
      <use x="89.0625" xlink:href="#DejaVuSans-116"/>
      <use x="128.271484" xlink:href="#DejaVuSans-48"/>
      <use x="191.894531" xlink:href="#DejaVuSans-49"/>
      <use x="255.517578" xlink:href="#DejaVuSans-32"/>
      <use x="287.304688" xlink:href="#DejaVuSans-58"/>
      <use x="320.996094" xlink:href="#DejaVuSans-32"/>
      <use x="352.783203" xlink:href="#DejaVuSans-117"/>
      <use x="416.162109" xlink:href="#DejaVuSans-110"/>
      <use x="479.541016" xlink:href="#DejaVuSans-99"/>
      <use x="534.521484" xlink:href="#DejaVuSans-87"/>
     </g>
    </g>
   </g>
  </g>
 </g>
 <defs>
  <clipPath id="pcddf649632">
   <rect height="356.968" width="549.95" x="47.45" y="26.88"/>
  </clipPath>
 </defs>
</svg>
