<?xml version="1.0" encoding="utf-8" standalone="no"?>
<!DOCTYPE svg PUBLIC "-//W3C//DTD SVG 1.1//EN"
  "http://www.w3.org/Graphics/SVG/1.1/DTD/svg11.dtd">
<!-- Created with matplotlib (https://matplotlib.org/) -->
<svg height="504pt" version="1.1" viewBox="0 0 720 504" width="720pt" xmlns="http://www.w3.org/2000/svg" xmlns:xlink="http://www.w3.org/1999/xlink">
 <defs>
  <style type="text/css">
*{stroke-linecap:butt;stroke-linejoin:round;}
  </style>
 </defs>
 <g id="figure_1">
  <g id="patch_1">
   <path d="M 0 504 
L 720 504 
L 720 0 
L 0 0 
z
" style="fill:#ffffff;"/>
  </g>
  <g id="axes_1">
   <g id="patch_2">
    <path d="M 57.17 462.04 
L 653.29 462.04 
L 653.29 26.88 
L 57.17 26.88 
z
" style="fill:#ffffff;"/>
   </g>
   <g id="matplotlib.axis_1">
    <g id="xtick_1">
     <g id="line2d_1">
      <path clip-path="url(#p92ea44939f)" d="M 94.4275 462.04 
L 94.4275 26.88 
" style="fill:none;stroke:#b0b0b0;stroke-linecap:square;stroke-width:0.8;"/>
     </g>
     <g id="line2d_2">
      <defs>
       <path d="M 0 0 
L 0 3.5 
" id="mfc518bbc66" style="stroke:#000000;stroke-width:0.8;"/>
      </defs>
      <g>
       <use style="stroke:#000000;stroke-width:0.8;" x="94.4275" xlink:href="#mfc518bbc66" y="462.04"/>
      </g>
     </g>
     <g id="text_1">
      <!-- 15000 -->
      <defs>
       <path d="M 12.40625 8.296875 
L 28.515625 8.296875 
L 28.515625 63.921875 
L 10.984375 60.40625 
L 10.984375 69.390625 
L 28.421875 72.90625 
L 38.28125 72.90625 
L 38.28125 8.296875 
L 54.390625 8.296875 
L 54.390625 0 
L 12.40625 0 
z
" id="DejaVuSans-49"/>
       <path d="M 10.796875 72.90625 
L 49.515625 72.90625 
L 49.515625 64.59375 
L 19.828125 64.59375 
L 19.828125 46.734375 
Q 21.96875 47.46875 24.109375 47.828125 
Q 26.265625 48.1875 28.421875 48.1875 
Q 40.625 48.1875 47.75 41.5 
Q 54.890625 34.8125 54.890625 23.390625 
Q 54.890625 11.625 47.5625 5.09375 
Q 40.234375 -1.421875 26.90625 -1.421875 
Q 22.3125 -1.421875 17.546875 -0.640625 
Q 12.796875 0.140625 7.71875 1.703125 
L 7.71875 11.625 
Q 12.109375 9.234375 16.796875 8.0625 
Q 21.484375 6.890625 26.703125 6.890625 
Q 35.15625 6.890625 40.078125 11.328125 
Q 45.015625 15.765625 45.015625 23.390625 
Q 45.015625 31 40.078125 35.4375 
Q 35.15625 39.890625 26.703125 39.890625 
Q 22.75 39.890625 18.8125 39.015625 
Q 14.890625 38.140625 10.796875 36.28125 
z
" id="DejaVuSans-53"/>
       <path d="M 31.78125 66.40625 
Q 24.171875 66.40625 20.328125 58.90625 
Q 16.5 51.421875 16.5 36.375 
Q 16.5 21.390625 20.328125 13.890625 
Q 24.171875 6.390625 31.78125 6.390625 
Q 39.453125 6.390625 43.28125 13.890625 
Q 47.125 21.390625 47.125 36.375 
Q 47.125 51.421875 43.28125 58.90625 
Q 39.453125 66.40625 31.78125 66.40625 
z
M 31.78125 74.21875 
Q 44.046875 74.21875 50.515625 64.515625 
Q 56.984375 54.828125 56.984375 36.375 
Q 56.984375 17.96875 50.515625 8.265625 
Q 44.046875 -1.421875 31.78125 -1.421875 
Q 19.53125 -1.421875 13.0625 8.265625 
Q 6.59375 17.96875 6.59375 36.375 
Q 6.59375 54.828125 13.0625 64.515625 
Q 19.53125 74.21875 31.78125 74.21875 
z
" id="DejaVuSans-48"/>
      </defs>
      <g transform="translate(78.52125 476.638438)scale(0.1 -0.1)">
       <use xlink:href="#DejaVuSans-49"/>
       <use x="63.623047" xlink:href="#DejaVuSans-53"/>
       <use x="127.246094" xlink:href="#DejaVuSans-48"/>
       <use x="190.869141" xlink:href="#DejaVuSans-48"/>
       <use x="254.492188" xlink:href="#DejaVuSans-48"/>
      </g>
     </g>
    </g>
    <g id="xtick_2">
     <g id="line2d_3">
      <path clip-path="url(#p92ea44939f)" d="M 168.9425 462.04 
L 168.9425 26.88 
" style="fill:none;stroke:#b0b0b0;stroke-linecap:square;stroke-width:0.8;"/>
     </g>
     <g id="line2d_4">
      <g>
       <use style="stroke:#000000;stroke-width:0.8;" x="168.9425" xlink:href="#mfc518bbc66" y="462.04"/>
      </g>
     </g>
     <g id="text_2">
      <!-- 15020 -->
      <defs>
       <path d="M 19.1875 8.296875 
L 53.609375 8.296875 
L 53.609375 0 
L 7.328125 0 
L 7.328125 8.296875 
Q 12.9375 14.109375 22.625 23.890625 
Q 32.328125 33.6875 34.8125 36.53125 
Q 39.546875 41.84375 41.421875 45.53125 
Q 43.3125 49.21875 43.3125 52.78125 
Q 43.3125 58.59375 39.234375 62.25 
Q 35.15625 65.921875 28.609375 65.921875 
Q 23.96875 65.921875 18.8125 64.3125 
Q 13.671875 62.703125 7.8125 59.421875 
L 7.8125 69.390625 
Q 13.765625 71.78125 18.9375 73 
Q 24.125 74.21875 28.421875 74.21875 
Q 39.75 74.21875 46.484375 68.546875 
Q 53.21875 62.890625 53.21875 53.421875 
Q 53.21875 48.921875 51.53125 44.890625 
Q 49.859375 40.875 45.40625 35.40625 
Q 44.1875 33.984375 37.640625 27.21875 
Q 31.109375 20.453125 19.1875 8.296875 
z
" id="DejaVuSans-50"/>
      </defs>
      <g transform="translate(153.03625 476.638438)scale(0.1 -0.1)">
       <use xlink:href="#DejaVuSans-49"/>
       <use x="63.623047" xlink:href="#DejaVuSans-53"/>
       <use x="127.246094" xlink:href="#DejaVuSans-48"/>
       <use x="190.869141" xlink:href="#DejaVuSans-50"/>
       <use x="254.492188" xlink:href="#DejaVuSans-48"/>
      </g>
     </g>
    </g>
    <g id="xtick_3">
     <g id="line2d_5">
      <path clip-path="url(#p92ea44939f)" d="M 243.4575 462.04 
L 243.4575 26.88 
" style="fill:none;stroke:#b0b0b0;stroke-linecap:square;stroke-width:0.8;"/>
     </g>
     <g id="line2d_6">
      <g>
       <use style="stroke:#000000;stroke-width:0.8;" x="243.4575" xlink:href="#mfc518bbc66" y="462.04"/>
      </g>
     </g>
     <g id="text_3">
      <!-- 15040 -->
      <defs>
       <path d="M 37.796875 64.3125 
L 12.890625 25.390625 
L 37.796875 25.390625 
z
M 35.203125 72.90625 
L 47.609375 72.90625 
L 47.609375 25.390625 
L 58.015625 25.390625 
L 58.015625 17.1875 
L 47.609375 17.1875 
L 47.609375 0 
L 37.796875 0 
L 37.796875 17.1875 
L 4.890625 17.1875 
L 4.890625 26.703125 
z
" id="DejaVuSans-52"/>
      </defs>
      <g transform="translate(227.55125 476.638438)scale(0.1 -0.1)">
       <use xlink:href="#DejaVuSans-49"/>
       <use x="63.623047" xlink:href="#DejaVuSans-53"/>
       <use x="127.246094" xlink:href="#DejaVuSans-48"/>
       <use x="190.869141" xlink:href="#DejaVuSans-52"/>
       <use x="254.492188" xlink:href="#DejaVuSans-48"/>
      </g>
     </g>
    </g>
    <g id="xtick_4">
     <g id="line2d_7">
      <path clip-path="url(#p92ea44939f)" d="M 317.9725 462.04 
L 317.9725 26.88 
" style="fill:none;stroke:#b0b0b0;stroke-linecap:square;stroke-width:0.8;"/>
     </g>
     <g id="line2d_8">
      <g>
       <use style="stroke:#000000;stroke-width:0.8;" x="317.9725" xlink:href="#mfc518bbc66" y="462.04"/>
      </g>
     </g>
     <g id="text_4">
      <!-- 15060 -->
      <defs>
       <path d="M 33.015625 40.375 
Q 26.375 40.375 22.484375 35.828125 
Q 18.609375 31.296875 18.609375 23.390625 
Q 18.609375 15.53125 22.484375 10.953125 
Q 26.375 6.390625 33.015625 6.390625 
Q 39.65625 6.390625 43.53125 10.953125 
Q 47.40625 15.53125 47.40625 23.390625 
Q 47.40625 31.296875 43.53125 35.828125 
Q 39.65625 40.375 33.015625 40.375 
z
M 52.59375 71.296875 
L 52.59375 62.3125 
Q 48.875 64.0625 45.09375 64.984375 
Q 41.3125 65.921875 37.59375 65.921875 
Q 27.828125 65.921875 22.671875 59.328125 
Q 17.53125 52.734375 16.796875 39.40625 
Q 19.671875 43.65625 24.015625 45.921875 
Q 28.375 48.1875 33.59375 48.1875 
Q 44.578125 48.1875 50.953125 41.515625 
Q 57.328125 34.859375 57.328125 23.390625 
Q 57.328125 12.15625 50.6875 5.359375 
Q 44.046875 -1.421875 33.015625 -1.421875 
Q 20.359375 -1.421875 13.671875 8.265625 
Q 6.984375 17.96875 6.984375 36.375 
Q 6.984375 53.65625 15.1875 63.9375 
Q 23.390625 74.21875 37.203125 74.21875 
Q 40.921875 74.21875 44.703125 73.484375 
Q 48.484375 72.75 52.59375 71.296875 
z
" id="DejaVuSans-54"/>
      </defs>
      <g transform="translate(302.06625 476.638438)scale(0.1 -0.1)">
       <use xlink:href="#DejaVuSans-49"/>
       <use x="63.623047" xlink:href="#DejaVuSans-53"/>
       <use x="127.246094" xlink:href="#DejaVuSans-48"/>
       <use x="190.869141" xlink:href="#DejaVuSans-54"/>
       <use x="254.492188" xlink:href="#DejaVuSans-48"/>
      </g>
     </g>
    </g>
    <g id="xtick_5">
     <g id="line2d_9">
      <path clip-path="url(#p92ea44939f)" d="M 392.4875 462.04 
L 392.4875 26.88 
" style="fill:none;stroke:#b0b0b0;stroke-linecap:square;stroke-width:0.8;"/>
     </g>
     <g id="line2d_10">
      <g>
       <use style="stroke:#000000;stroke-width:0.8;" x="392.4875" xlink:href="#mfc518bbc66" y="462.04"/>
      </g>
     </g>
     <g id="text_5">
      <!-- 15080 -->
      <defs>
       <path d="M 31.78125 34.625 
Q 24.75 34.625 20.71875 30.859375 
Q 16.703125 27.09375 16.703125 20.515625 
Q 16.703125 13.921875 20.71875 10.15625 
Q 24.75 6.390625 31.78125 6.390625 
Q 38.8125 6.390625 42.859375 10.171875 
Q 46.921875 13.96875 46.921875 20.515625 
Q 46.921875 27.09375 42.890625 30.859375 
Q 38.875 34.625 31.78125 34.625 
z
M 21.921875 38.8125 
Q 15.578125 40.375 12.03125 44.71875 
Q 8.5 49.078125 8.5 55.328125 
Q 8.5 64.0625 14.71875 69.140625 
Q 20.953125 74.21875 31.78125 74.21875 
Q 42.671875 74.21875 48.875 69.140625 
Q 55.078125 64.0625 55.078125 55.328125 
Q 55.078125 49.078125 51.53125 44.71875 
Q 48 40.375 41.703125 38.8125 
Q 48.828125 37.15625 52.796875 32.3125 
Q 56.78125 27.484375 56.78125 20.515625 
Q 56.78125 9.90625 50.3125 4.234375 
Q 43.84375 -1.421875 31.78125 -1.421875 
Q 19.734375 -1.421875 13.25 4.234375 
Q 6.78125 9.90625 6.78125 20.515625 
Q 6.78125 27.484375 10.78125 32.3125 
Q 14.796875 37.15625 21.921875 38.8125 
z
M 18.3125 54.390625 
Q 18.3125 48.734375 21.84375 45.5625 
Q 25.390625 42.390625 31.78125 42.390625 
Q 38.140625 42.390625 41.71875 45.5625 
Q 45.3125 48.734375 45.3125 54.390625 
Q 45.3125 60.0625 41.71875 63.234375 
Q 38.140625 66.40625 31.78125 66.40625 
Q 25.390625 66.40625 21.84375 63.234375 
Q 18.3125 60.0625 18.3125 54.390625 
z
" id="DejaVuSans-56"/>
      </defs>
      <g transform="translate(376.58125 476.638438)scale(0.1 -0.1)">
       <use xlink:href="#DejaVuSans-49"/>
       <use x="63.623047" xlink:href="#DejaVuSans-53"/>
       <use x="127.246094" xlink:href="#DejaVuSans-48"/>
       <use x="190.869141" xlink:href="#DejaVuSans-56"/>
       <use x="254.492188" xlink:href="#DejaVuSans-48"/>
      </g>
     </g>
    </g>
    <g id="xtick_6">
     <g id="line2d_11">
      <path clip-path="url(#p92ea44939f)" d="M 467.0025 462.04 
L 467.0025 26.88 
" style="fill:none;stroke:#b0b0b0;stroke-linecap:square;stroke-width:0.8;"/>
     </g>
     <g id="line2d_12">
      <g>
       <use style="stroke:#000000;stroke-width:0.8;" x="467.0025" xlink:href="#mfc518bbc66" y="462.04"/>
      </g>
     </g>
     <g id="text_6">
      <!-- 15100 -->
      <g transform="translate(451.09625 476.638438)scale(0.1 -0.1)">
       <use xlink:href="#DejaVuSans-49"/>
       <use x="63.623047" xlink:href="#DejaVuSans-53"/>
       <use x="127.246094" xlink:href="#DejaVuSans-49"/>
       <use x="190.869141" xlink:href="#DejaVuSans-48"/>
       <use x="254.492188" xlink:href="#DejaVuSans-48"/>
      </g>
     </g>
    </g>
    <g id="xtick_7">
     <g id="line2d_13">
      <path clip-path="url(#p92ea44939f)" d="M 541.5175 462.04 
L 541.5175 26.88 
" style="fill:none;stroke:#b0b0b0;stroke-linecap:square;stroke-width:0.8;"/>
     </g>
     <g id="line2d_14">
      <g>
       <use style="stroke:#000000;stroke-width:0.8;" x="541.5175" xlink:href="#mfc518bbc66" y="462.04"/>
      </g>
     </g>
     <g id="text_7">
      <!-- 15120 -->
      <g transform="translate(525.61125 476.638438)scale(0.1 -0.1)">
       <use xlink:href="#DejaVuSans-49"/>
       <use x="63.623047" xlink:href="#DejaVuSans-53"/>
       <use x="127.246094" xlink:href="#DejaVuSans-49"/>
       <use x="190.869141" xlink:href="#DejaVuSans-50"/>
       <use x="254.492188" xlink:href="#DejaVuSans-48"/>
      </g>
     </g>
    </g>
    <g id="xtick_8">
     <g id="line2d_15">
      <path clip-path="url(#p92ea44939f)" d="M 616.0325 462.04 
L 616.0325 26.88 
" style="fill:none;stroke:#b0b0b0;stroke-linecap:square;stroke-width:0.8;"/>
     </g>
     <g id="line2d_16">
      <g>
       <use style="stroke:#000000;stroke-width:0.8;" x="616.0325" xlink:href="#mfc518bbc66" y="462.04"/>
      </g>
     </g>
     <g id="text_8">
      <!-- 15140 -->
      <g transform="translate(600.12625 476.638438)scale(0.1 -0.1)">
       <use xlink:href="#DejaVuSans-49"/>
       <use x="63.623047" xlink:href="#DejaVuSans-53"/>
       <use x="127.246094" xlink:href="#DejaVuSans-49"/>
       <use x="190.869141" xlink:href="#DejaVuSans-52"/>
       <use x="254.492188" xlink:href="#DejaVuSans-48"/>
      </g>
     </g>
    </g>
    <g id="text_9">
     <!-- Time (us) -->
     <defs>
      <path d="M -0.296875 72.90625 
L 61.375 72.90625 
L 61.375 64.59375 
L 35.5 64.59375 
L 35.5 0 
L 25.59375 0 
L 25.59375 64.59375 
L -0.296875 64.59375 
z
" id="DejaVuSans-84"/>
      <path d="M 9.421875 54.6875 
L 18.40625 54.6875 
L 18.40625 0 
L 9.421875 0 
z
M 9.421875 75.984375 
L 18.40625 75.984375 
L 18.40625 64.59375 
L 9.421875 64.59375 
z
" id="DejaVuSans-105"/>
      <path d="M 52 44.1875 
Q 55.375 50.25 60.0625 53.125 
Q 64.75 56 71.09375 56 
Q 79.640625 56 84.28125 50.015625 
Q 88.921875 44.046875 88.921875 33.015625 
L 88.921875 0 
L 79.890625 0 
L 79.890625 32.71875 
Q 79.890625 40.578125 77.09375 44.375 
Q 74.3125 48.1875 68.609375 48.1875 
Q 61.625 48.1875 57.5625 43.546875 
Q 53.515625 38.921875 53.515625 30.90625 
L 53.515625 0 
L 44.484375 0 
L 44.484375 32.71875 
Q 44.484375 40.625 41.703125 44.40625 
Q 38.921875 48.1875 33.109375 48.1875 
Q 26.21875 48.1875 22.15625 43.53125 
Q 18.109375 38.875 18.109375 30.90625 
L 18.109375 0 
L 9.078125 0 
L 9.078125 54.6875 
L 18.109375 54.6875 
L 18.109375 46.1875 
Q 21.1875 51.21875 25.484375 53.609375 
Q 29.78125 56 35.6875 56 
Q 41.65625 56 45.828125 52.96875 
Q 50 49.953125 52 44.1875 
z
" id="DejaVuSans-109"/>
      <path d="M 56.203125 29.59375 
L 56.203125 25.203125 
L 14.890625 25.203125 
Q 15.484375 15.921875 20.484375 11.0625 
Q 25.484375 6.203125 34.421875 6.203125 
Q 39.59375 6.203125 44.453125 7.46875 
Q 49.3125 8.734375 54.109375 11.28125 
L 54.109375 2.78125 
Q 49.265625 0.734375 44.1875 -0.34375 
Q 39.109375 -1.421875 33.890625 -1.421875 
Q 20.796875 -1.421875 13.15625 6.1875 
Q 5.515625 13.8125 5.515625 26.8125 
Q 5.515625 40.234375 12.765625 48.109375 
Q 20.015625 56 32.328125 56 
Q 43.359375 56 49.78125 48.890625 
Q 56.203125 41.796875 56.203125 29.59375 
z
M 47.21875 32.234375 
Q 47.125 39.59375 43.09375 43.984375 
Q 39.0625 48.390625 32.421875 48.390625 
Q 24.90625 48.390625 20.390625 44.140625 
Q 15.875 39.890625 15.1875 32.171875 
z
" id="DejaVuSans-101"/>
      <path id="DejaVuSans-32"/>
      <path d="M 31 75.875 
Q 24.46875 64.65625 21.28125 53.65625 
Q 18.109375 42.671875 18.109375 31.390625 
Q 18.109375 20.125 21.3125 9.0625 
Q 24.515625 -2 31 -13.1875 
L 23.1875 -13.1875 
Q 15.875 -1.703125 12.234375 9.375 
Q 8.59375 20.453125 8.59375 31.390625 
Q 8.59375 42.28125 12.203125 53.3125 
Q 15.828125 64.359375 23.1875 75.875 
z
" id="DejaVuSans-40"/>
      <path d="M 8.5 21.578125 
L 8.5 54.6875 
L 17.484375 54.6875 
L 17.484375 21.921875 
Q 17.484375 14.15625 20.5 10.265625 
Q 23.53125 6.390625 29.59375 6.390625 
Q 36.859375 6.390625 41.078125 11.03125 
Q 45.3125 15.671875 45.3125 23.6875 
L 45.3125 54.6875 
L 54.296875 54.6875 
L 54.296875 0 
L 45.3125 0 
L 45.3125 8.40625 
Q 42.046875 3.421875 37.71875 1 
Q 33.40625 -1.421875 27.6875 -1.421875 
Q 18.265625 -1.421875 13.375 4.4375 
Q 8.5 10.296875 8.5 21.578125 
z
M 31.109375 56 
z
" id="DejaVuSans-117"/>
      <path d="M 44.28125 53.078125 
L 44.28125 44.578125 
Q 40.484375 46.53125 36.375 47.5 
Q 32.28125 48.484375 27.875 48.484375 
Q 21.1875 48.484375 17.84375 46.4375 
Q 14.5 44.390625 14.5 40.28125 
Q 14.5 37.15625 16.890625 35.375 
Q 19.28125 33.59375 26.515625 31.984375 
L 29.59375 31.296875 
Q 39.15625 29.25 43.1875 25.515625 
Q 47.21875 21.78125 47.21875 15.09375 
Q 47.21875 7.46875 41.1875 3.015625 
Q 35.15625 -1.421875 24.609375 -1.421875 
Q 20.21875 -1.421875 15.453125 -0.5625 
Q 10.6875 0.296875 5.421875 2 
L 5.421875 11.28125 
Q 10.40625 8.6875 15.234375 7.390625 
Q 20.0625 6.109375 24.8125 6.109375 
Q 31.15625 6.109375 34.5625 8.28125 
Q 37.984375 10.453125 37.984375 14.40625 
Q 37.984375 18.0625 35.515625 20.015625 
Q 33.0625 21.96875 24.703125 23.78125 
L 21.578125 24.515625 
Q 13.234375 26.265625 9.515625 29.90625 
Q 5.8125 33.546875 5.8125 39.890625 
Q 5.8125 47.609375 11.28125 51.796875 
Q 16.75 56 26.8125 56 
Q 31.78125 56 36.171875 55.265625 
Q 40.578125 54.546875 44.28125 53.078125 
z
" id="DejaVuSans-115"/>
      <path d="M 8.015625 75.875 
L 15.828125 75.875 
Q 23.140625 64.359375 26.78125 53.3125 
Q 30.421875 42.28125 30.421875 31.390625 
Q 30.421875 20.453125 26.78125 9.375 
Q 23.140625 -1.703125 15.828125 -13.1875 
L 8.015625 -13.1875 
Q 14.5 -2 17.703125 9.0625 
Q 20.90625 20.125 20.90625 31.390625 
Q 20.90625 42.671875 17.703125 53.65625 
Q 14.5 64.65625 8.015625 75.875 
z
" id="DejaVuSans-41"/>
     </defs>
     <g transform="translate(331.578438 490.316563)scale(0.1 -0.1)">
      <use xlink:href="#DejaVuSans-84"/>
      <use x="61.037109" xlink:href="#DejaVuSans-105"/>
      <use x="88.820312" xlink:href="#DejaVuSans-109"/>
      <use x="186.232422" xlink:href="#DejaVuSans-101"/>
      <use x="247.755859" xlink:href="#DejaVuSans-32"/>
      <use x="279.542969" xlink:href="#DejaVuSans-40"/>
      <use x="318.556641" xlink:href="#DejaVuSans-117"/>
      <use x="381.935547" xlink:href="#DejaVuSans-115"/>
      <use x="434.035156" xlink:href="#DejaVuSans-41"/>
     </g>
    </g>
   </g>
   <g id="matplotlib.axis_2">
    <g id="ytick_1">
     <g id="line2d_17">
      <path clip-path="url(#p92ea44939f)" d="M 57.17 442.26 
L 653.29 442.26 
" style="fill:none;stroke:#b0b0b0;stroke-linecap:square;stroke-width:0.8;"/>
     </g>
     <g id="line2d_18">
      <defs>
       <path d="M 0 0 
L -3.5 0 
" id="m3a24eacd0e" style="stroke:#000000;stroke-width:0.8;"/>
      </defs>
      <g>
       <use style="stroke:#000000;stroke-width:0.8;" x="57.17" xlink:href="#m3a24eacd0e" y="442.26"/>
      </g>
     </g>
     <g id="text_10">
      <!-- 0 -->
      <g transform="translate(43.8075 446.059219)scale(0.1 -0.1)">
       <use xlink:href="#DejaVuSans-48"/>
      </g>
     </g>
    </g>
    <g id="ytick_2">
     <g id="line2d_19">
      <path clip-path="url(#p92ea44939f)" d="M 57.17 353.877516 
L 653.29 353.877516 
" style="fill:none;stroke:#b0b0b0;stroke-linecap:square;stroke-width:0.8;"/>
     </g>
     <g id="line2d_20">
      <g>
       <use style="stroke:#000000;stroke-width:0.8;" x="57.17" xlink:href="#m3a24eacd0e" y="353.877516"/>
      </g>
     </g>
     <g id="text_11">
      <!-- 1000 -->
      <g transform="translate(24.72 357.676734)scale(0.1 -0.1)">
       <use xlink:href="#DejaVuSans-49"/>
       <use x="63.623047" xlink:href="#DejaVuSans-48"/>
       <use x="127.246094" xlink:href="#DejaVuSans-48"/>
       <use x="190.869141" xlink:href="#DejaVuSans-48"/>
      </g>
     </g>
    </g>
    <g id="ytick_3">
     <g id="line2d_21">
      <path clip-path="url(#p92ea44939f)" d="M 57.17 265.495031 
L 653.29 265.495031 
" style="fill:none;stroke:#b0b0b0;stroke-linecap:square;stroke-width:0.8;"/>
     </g>
     <g id="line2d_22">
      <g>
       <use style="stroke:#000000;stroke-width:0.8;" x="57.17" xlink:href="#m3a24eacd0e" y="265.495031"/>
      </g>
     </g>
     <g id="text_12">
      <!-- 2000 -->
      <g transform="translate(24.72 269.29425)scale(0.1 -0.1)">
       <use xlink:href="#DejaVuSans-50"/>
       <use x="63.623047" xlink:href="#DejaVuSans-48"/>
       <use x="127.246094" xlink:href="#DejaVuSans-48"/>
       <use x="190.869141" xlink:href="#DejaVuSans-48"/>
      </g>
     </g>
    </g>
    <g id="ytick_4">
     <g id="line2d_23">
      <path clip-path="url(#p92ea44939f)" d="M 57.17 177.112547 
L 653.29 177.112547 
" style="fill:none;stroke:#b0b0b0;stroke-linecap:square;stroke-width:0.8;"/>
     </g>
     <g id="line2d_24">
      <g>
       <use style="stroke:#000000;stroke-width:0.8;" x="57.17" xlink:href="#m3a24eacd0e" y="177.112547"/>
      </g>
     </g>
     <g id="text_13">
      <!-- 3000 -->
      <defs>
       <path d="M 40.578125 39.3125 
Q 47.65625 37.796875 51.625 33 
Q 55.609375 28.21875 55.609375 21.1875 
Q 55.609375 10.40625 48.1875 4.484375 
Q 40.765625 -1.421875 27.09375 -1.421875 
Q 22.515625 -1.421875 17.65625 -0.515625 
Q 12.796875 0.390625 7.625 2.203125 
L 7.625 11.71875 
Q 11.71875 9.328125 16.59375 8.109375 
Q 21.484375 6.890625 26.8125 6.890625 
Q 36.078125 6.890625 40.9375 10.546875 
Q 45.796875 14.203125 45.796875 21.1875 
Q 45.796875 27.640625 41.28125 31.265625 
Q 36.765625 34.90625 28.71875 34.90625 
L 20.21875 34.90625 
L 20.21875 43.015625 
L 29.109375 43.015625 
Q 36.375 43.015625 40.234375 45.921875 
Q 44.09375 48.828125 44.09375 54.296875 
Q 44.09375 59.90625 40.109375 62.90625 
Q 36.140625 65.921875 28.71875 65.921875 
Q 24.65625 65.921875 20.015625 65.03125 
Q 15.375 64.15625 9.8125 62.3125 
L 9.8125 71.09375 
Q 15.4375 72.65625 20.34375 73.4375 
Q 25.25 74.21875 29.59375 74.21875 
Q 40.828125 74.21875 47.359375 69.109375 
Q 53.90625 64.015625 53.90625 55.328125 
Q 53.90625 49.265625 50.4375 45.09375 
Q 46.96875 40.921875 40.578125 39.3125 
z
" id="DejaVuSans-51"/>
      </defs>
      <g transform="translate(24.72 180.911766)scale(0.1 -0.1)">
       <use xlink:href="#DejaVuSans-51"/>
       <use x="63.623047" xlink:href="#DejaVuSans-48"/>
       <use x="127.246094" xlink:href="#DejaVuSans-48"/>
       <use x="190.869141" xlink:href="#DejaVuSans-48"/>
      </g>
     </g>
    </g>
    <g id="ytick_5">
     <g id="line2d_25">
      <path clip-path="url(#p92ea44939f)" d="M 57.17 88.730063 
L 653.29 88.730063 
" style="fill:none;stroke:#b0b0b0;stroke-linecap:square;stroke-width:0.8;"/>
     </g>
     <g id="line2d_26">
      <g>
       <use style="stroke:#000000;stroke-width:0.8;" x="57.17" xlink:href="#m3a24eacd0e" y="88.730063"/>
      </g>
     </g>
     <g id="text_14">
      <!-- 4000 -->
      <g transform="translate(24.72 92.529281)scale(0.1 -0.1)">
       <use xlink:href="#DejaVuSans-52"/>
       <use x="63.623047" xlink:href="#DejaVuSans-48"/>
       <use x="127.246094" xlink:href="#DejaVuSans-48"/>
       <use x="190.869141" xlink:href="#DejaVuSans-48"/>
      </g>
     </g>
    </g>
    <g id="text_15">
     <!-- Payload Time (cycles) -->
     <defs>
      <path d="M 19.671875 64.796875 
L 19.671875 37.40625 
L 32.078125 37.40625 
Q 38.96875 37.40625 42.71875 40.96875 
Q 46.484375 44.53125 46.484375 51.125 
Q 46.484375 57.671875 42.71875 61.234375 
Q 38.96875 64.796875 32.078125 64.796875 
z
M 9.8125 72.90625 
L 32.078125 72.90625 
Q 44.34375 72.90625 50.609375 67.359375 
Q 56.890625 61.8125 56.890625 51.125 
Q 56.890625 40.328125 50.609375 34.8125 
Q 44.34375 29.296875 32.078125 29.296875 
L 19.671875 29.296875 
L 19.671875 0 
L 9.8125 0 
z
" id="DejaVuSans-80"/>
      <path d="M 34.28125 27.484375 
Q 23.390625 27.484375 19.1875 25 
Q 14.984375 22.515625 14.984375 16.5 
Q 14.984375 11.71875 18.140625 8.90625 
Q 21.296875 6.109375 26.703125 6.109375 
Q 34.1875 6.109375 38.703125 11.40625 
Q 43.21875 16.703125 43.21875 25.484375 
L 43.21875 27.484375 
z
M 52.203125 31.203125 
L 52.203125 0 
L 43.21875 0 
L 43.21875 8.296875 
Q 40.140625 3.328125 35.546875 0.953125 
Q 30.953125 -1.421875 24.3125 -1.421875 
Q 15.921875 -1.421875 10.953125 3.296875 
Q 6 8.015625 6 15.921875 
Q 6 25.140625 12.171875 29.828125 
Q 18.359375 34.515625 30.609375 34.515625 
L 43.21875 34.515625 
L 43.21875 35.40625 
Q 43.21875 41.609375 39.140625 45 
Q 35.0625 48.390625 27.6875 48.390625 
Q 23 48.390625 18.546875 47.265625 
Q 14.109375 46.140625 10.015625 43.890625 
L 10.015625 52.203125 
Q 14.9375 54.109375 19.578125 55.046875 
Q 24.21875 56 28.609375 56 
Q 40.484375 56 46.34375 49.84375 
Q 52.203125 43.703125 52.203125 31.203125 
z
" id="DejaVuSans-97"/>
      <path d="M 32.171875 -5.078125 
Q 28.375 -14.84375 24.75 -17.8125 
Q 21.140625 -20.796875 15.09375 -20.796875 
L 7.90625 -20.796875 
L 7.90625 -13.28125 
L 13.1875 -13.28125 
Q 16.890625 -13.28125 18.9375 -11.515625 
Q 21 -9.765625 23.484375 -3.21875 
L 25.09375 0.875 
L 2.984375 54.6875 
L 12.5 54.6875 
L 29.59375 11.921875 
L 46.6875 54.6875 
L 56.203125 54.6875 
z
" id="DejaVuSans-121"/>
      <path d="M 9.421875 75.984375 
L 18.40625 75.984375 
L 18.40625 0 
L 9.421875 0 
z
" id="DejaVuSans-108"/>
      <path d="M 30.609375 48.390625 
Q 23.390625 48.390625 19.1875 42.75 
Q 14.984375 37.109375 14.984375 27.296875 
Q 14.984375 17.484375 19.15625 11.84375 
Q 23.34375 6.203125 30.609375 6.203125 
Q 37.796875 6.203125 41.984375 11.859375 
Q 46.1875 17.53125 46.1875 27.296875 
Q 46.1875 37.015625 41.984375 42.703125 
Q 37.796875 48.390625 30.609375 48.390625 
z
M 30.609375 56 
Q 42.328125 56 49.015625 48.375 
Q 55.71875 40.765625 55.71875 27.296875 
Q 55.71875 13.875 49.015625 6.21875 
Q 42.328125 -1.421875 30.609375 -1.421875 
Q 18.84375 -1.421875 12.171875 6.21875 
Q 5.515625 13.875 5.515625 27.296875 
Q 5.515625 40.765625 12.171875 48.375 
Q 18.84375 56 30.609375 56 
z
" id="DejaVuSans-111"/>
      <path d="M 45.40625 46.390625 
L 45.40625 75.984375 
L 54.390625 75.984375 
L 54.390625 0 
L 45.40625 0 
L 45.40625 8.203125 
Q 42.578125 3.328125 38.25 0.953125 
Q 33.9375 -1.421875 27.875 -1.421875 
Q 17.96875 -1.421875 11.734375 6.484375 
Q 5.515625 14.40625 5.515625 27.296875 
Q 5.515625 40.1875 11.734375 48.09375 
Q 17.96875 56 27.875 56 
Q 33.9375 56 38.25 53.625 
Q 42.578125 51.265625 45.40625 46.390625 
z
M 14.796875 27.296875 
Q 14.796875 17.390625 18.875 11.75 
Q 22.953125 6.109375 30.078125 6.109375 
Q 37.203125 6.109375 41.296875 11.75 
Q 45.40625 17.390625 45.40625 27.296875 
Q 45.40625 37.203125 41.296875 42.84375 
Q 37.203125 48.484375 30.078125 48.484375 
Q 22.953125 48.484375 18.875 42.84375 
Q 14.796875 37.203125 14.796875 27.296875 
z
" id="DejaVuSans-100"/>
      <path d="M 48.78125 52.59375 
L 48.78125 44.1875 
Q 44.96875 46.296875 41.140625 47.34375 
Q 37.3125 48.390625 33.40625 48.390625 
Q 24.65625 48.390625 19.8125 42.84375 
Q 14.984375 37.3125 14.984375 27.296875 
Q 14.984375 17.28125 19.8125 11.734375 
Q 24.65625 6.203125 33.40625 6.203125 
Q 37.3125 6.203125 41.140625 7.25 
Q 44.96875 8.296875 48.78125 10.40625 
L 48.78125 2.09375 
Q 45.015625 0.34375 40.984375 -0.53125 
Q 36.96875 -1.421875 32.421875 -1.421875 
Q 20.0625 -1.421875 12.78125 6.34375 
Q 5.515625 14.109375 5.515625 27.296875 
Q 5.515625 40.671875 12.859375 48.328125 
Q 20.21875 56 33.015625 56 
Q 37.15625 56 41.109375 55.140625 
Q 45.0625 54.296875 48.78125 52.59375 
z
" id="DejaVuSans-99"/>
     </defs>
     <g transform="translate(18.640312 299.177187)rotate(-90)scale(0.1 -0.1)">
      <use xlink:href="#DejaVuSans-80"/>
      <use x="60.240234" xlink:href="#DejaVuSans-97"/>
      <use x="121.519531" xlink:href="#DejaVuSans-121"/>
      <use x="180.699219" xlink:href="#DejaVuSans-108"/>
      <use x="208.482422" xlink:href="#DejaVuSans-111"/>
      <use x="269.664062" xlink:href="#DejaVuSans-97"/>
      <use x="330.943359" xlink:href="#DejaVuSans-100"/>
      <use x="394.419922" xlink:href="#DejaVuSans-32"/>
      <use x="426.207031" xlink:href="#DejaVuSans-84"/>
      <use x="487.244141" xlink:href="#DejaVuSans-105"/>
      <use x="515.027344" xlink:href="#DejaVuSans-109"/>
      <use x="612.439453" xlink:href="#DejaVuSans-101"/>
      <use x="673.962891" xlink:href="#DejaVuSans-32"/>
      <use x="705.75" xlink:href="#DejaVuSans-40"/>
      <use x="744.763672" xlink:href="#DejaVuSans-99"/>
      <use x="799.744141" xlink:href="#DejaVuSans-121"/>
      <use x="858.923828" xlink:href="#DejaVuSans-99"/>
      <use x="913.904297" xlink:href="#DejaVuSans-108"/>
      <use x="941.6875" xlink:href="#DejaVuSans-101"/>
      <use x="1003.210938" xlink:href="#DejaVuSans-115"/>
      <use x="1055.310547" xlink:href="#DejaVuSans-41"/>
     </g>
    </g>
   </g>
   <g id="line2d_27">
    <path clip-path="url(#p92ea44939f)" d="M 49.722226 442.26 
L 57.237064 442.26 
L 64.6215 442.26 
L 72.102806 442.26 
L 79.561758 442.26 
L 86.990903 442.26 
L 94.438677 442.26 
L 106.502656 51.255889 
L 118.626246 63.629437 
L 131.189475 62.922377 
L 153.335333 342.211028 
L 160.414258 354.76134 
L 167.917919 354.76134 
L 174.963312 354.938105 
L 182.496779 354.938105 
L 189.586881 354.407811 
L 197.097993 354.938105 
L 204.65754 354.76134 
L 212.649273 354.584576 
L 219.73565 354.938105 
L 226.810849 354.584576 
L 234.389025 354.76134 
L 241.94112 354.76134 
L 249.504392 354.231046 
L 256.575866 354.584576 
L 266.203204 342.387793 
L 275.804462 342.387793 
L 282.879661 354.76134 
L 292.011474 342.387793 
L 300.059094 354.407811 
L 307.596286 354.938105 
L 314.66776 355.11487 
L 325.230261 342.564558 
L 332.331541 354.407811 
L 339.403014 354.76134 
L 346.474488 354.584576 
L 353.549687 354.231046 
L 361.086879 354.76134 
L 368.165804 354.76134 
L 388.087389 342.387793 
L 395.61713 354.584576 
L 402.681152 354.76134 
L 410.236973 354.76134 
L 417.315898 354.938105 
L 424.420903 354.938105 
L 431.946918 355.11487 
L 439.051924 354.76134 
L 447.513102 354.584576 
L 454.58085 354.584576 
L 461.659775 354.76134 
L 469.208144 354.938105 
L 475.392889 442.26 
L 481.58136 442.26 
L 487.281757 442.26 
L 493.451599 442.26 
L 501.011146 442.26 
L 508.086345 442.26 
L 515.120561 442.26 
L 520.75017 442.26 
L 526.383504 442.26 
L 532.97063 442.26 
L 538.600238 442.26 
L 545.157558 442.26 
L 552.184322 442.26 
L 557.799028 442.26 
L 565.716246 442.26 
L 571.342129 442.26 
L 576.968011 442.26 
L 582.590168 442.26 
L 588.223502 442.26 
L 593.85311 442.26 
L 599.493896 442.26 
L 605.589223 442.26 
L 611.215105 442.26 
L 616.833536 442.26 
L 634.106113 442.26 
L 639.75435 442.26 
L 645.372781 442.26 
L 651.44948 442.26 
L 657.108894 442.26 
" style="fill:none;stroke:#1f77b4;stroke-linecap:square;stroke-width:1.5;"/>
    <defs>
     <path d="M 0 1.5 
C 0.397805 1.5 0.77937 1.341951 1.06066 1.06066 
C 1.341951 0.77937 1.5 0.397805 1.5 0 
C 1.5 -0.397805 1.341951 -0.77937 1.06066 -1.06066 
C 0.77937 -1.341951 0.397805 -1.5 0 -1.5 
C -0.397805 -1.5 -0.77937 -1.341951 -1.06066 -1.06066 
C -1.341951 -0.77937 -1.5 -0.397805 -1.5 0 
C -1.5 0.397805 -1.341951 0.77937 -1.06066 1.06066 
C -0.77937 1.341951 -0.397805 1.5 0 1.5 
z
" id="mfd23d3c377" style="stroke:#1f77b4;"/>
    </defs>
    <g clip-path="url(#p92ea44939f)">
     <use style="fill:#1f77b4;stroke:#1f77b4;" x="49.722226" xlink:href="#mfd23d3c377" y="442.26"/>
     <use style="fill:#1f77b4;stroke:#1f77b4;" x="57.237064" xlink:href="#mfd23d3c377" y="442.26"/>
     <use style="fill:#1f77b4;stroke:#1f77b4;" x="64.6215" xlink:href="#mfd23d3c377" y="442.26"/>
     <use style="fill:#1f77b4;stroke:#1f77b4;" x="72.102806" xlink:href="#mfd23d3c377" y="442.26"/>
     <use style="fill:#1f77b4;stroke:#1f77b4;" x="79.561758" xlink:href="#mfd23d3c377" y="442.26"/>
     <use style="fill:#1f77b4;stroke:#1f77b4;" x="86.990903" xlink:href="#mfd23d3c377" y="442.26"/>
     <use style="fill:#1f77b4;stroke:#1f77b4;" x="94.438677" xlink:href="#mfd23d3c377" y="442.26"/>
     <use style="fill:#1f77b4;stroke:#1f77b4;" x="106.502656" xlink:href="#mfd23d3c377" y="51.255889"/>
     <use style="fill:#1f77b4;stroke:#1f77b4;" x="118.626246" xlink:href="#mfd23d3c377" y="63.629437"/>
     <use style="fill:#1f77b4;stroke:#1f77b4;" x="131.189475" xlink:href="#mfd23d3c377" y="62.922377"/>
     <use style="fill:#1f77b4;stroke:#1f77b4;" x="153.335333" xlink:href="#mfd23d3c377" y="342.211028"/>
     <use style="fill:#1f77b4;stroke:#1f77b4;" x="160.414258" xlink:href="#mfd23d3c377" y="354.76134"/>
     <use style="fill:#1f77b4;stroke:#1f77b4;" x="167.917919" xlink:href="#mfd23d3c377" y="354.76134"/>
     <use style="fill:#1f77b4;stroke:#1f77b4;" x="174.963312" xlink:href="#mfd23d3c377" y="354.938105"/>
     <use style="fill:#1f77b4;stroke:#1f77b4;" x="182.496779" xlink:href="#mfd23d3c377" y="354.938105"/>
     <use style="fill:#1f77b4;stroke:#1f77b4;" x="189.586881" xlink:href="#mfd23d3c377" y="354.407811"/>
     <use style="fill:#1f77b4;stroke:#1f77b4;" x="197.097993" xlink:href="#mfd23d3c377" y="354.938105"/>
     <use style="fill:#1f77b4;stroke:#1f77b4;" x="204.65754" xlink:href="#mfd23d3c377" y="354.76134"/>
     <use style="fill:#1f77b4;stroke:#1f77b4;" x="212.649273" xlink:href="#mfd23d3c377" y="354.584576"/>
     <use style="fill:#1f77b4;stroke:#1f77b4;" x="219.73565" xlink:href="#mfd23d3c377" y="354.938105"/>
     <use style="fill:#1f77b4;stroke:#1f77b4;" x="226.810849" xlink:href="#mfd23d3c377" y="354.584576"/>
     <use style="fill:#1f77b4;stroke:#1f77b4;" x="234.389025" xlink:href="#mfd23d3c377" y="354.76134"/>
     <use style="fill:#1f77b4;stroke:#1f77b4;" x="241.94112" xlink:href="#mfd23d3c377" y="354.76134"/>
     <use style="fill:#1f77b4;stroke:#1f77b4;" x="249.504392" xlink:href="#mfd23d3c377" y="354.231046"/>
     <use style="fill:#1f77b4;stroke:#1f77b4;" x="256.575866" xlink:href="#mfd23d3c377" y="354.584576"/>
     <use style="fill:#1f77b4;stroke:#1f77b4;" x="266.203204" xlink:href="#mfd23d3c377" y="342.387793"/>
     <use style="fill:#1f77b4;stroke:#1f77b4;" x="275.804462" xlink:href="#mfd23d3c377" y="342.387793"/>
     <use style="fill:#1f77b4;stroke:#1f77b4;" x="282.879661" xlink:href="#mfd23d3c377" y="354.76134"/>
     <use style="fill:#1f77b4;stroke:#1f77b4;" x="292.011474" xlink:href="#mfd23d3c377" y="342.387793"/>
     <use style="fill:#1f77b4;stroke:#1f77b4;" x="300.059094" xlink:href="#mfd23d3c377" y="354.407811"/>
     <use style="fill:#1f77b4;stroke:#1f77b4;" x="307.596286" xlink:href="#mfd23d3c377" y="354.938105"/>
     <use style="fill:#1f77b4;stroke:#1f77b4;" x="314.66776" xlink:href="#mfd23d3c377" y="355.11487"/>
     <use style="fill:#1f77b4;stroke:#1f77b4;" x="325.230261" xlink:href="#mfd23d3c377" y="342.564558"/>
     <use style="fill:#1f77b4;stroke:#1f77b4;" x="332.331541" xlink:href="#mfd23d3c377" y="354.407811"/>
     <use style="fill:#1f77b4;stroke:#1f77b4;" x="339.403014" xlink:href="#mfd23d3c377" y="354.76134"/>
     <use style="fill:#1f77b4;stroke:#1f77b4;" x="346.474488" xlink:href="#mfd23d3c377" y="354.584576"/>
     <use style="fill:#1f77b4;stroke:#1f77b4;" x="353.549687" xlink:href="#mfd23d3c377" y="354.231046"/>
     <use style="fill:#1f77b4;stroke:#1f77b4;" x="361.086879" xlink:href="#mfd23d3c377" y="354.76134"/>
     <use style="fill:#1f77b4;stroke:#1f77b4;" x="368.165804" xlink:href="#mfd23d3c377" y="354.76134"/>
     <use style="fill:#1f77b4;stroke:#1f77b4;" x="388.087389" xlink:href="#mfd23d3c377" y="342.387793"/>
     <use style="fill:#1f77b4;stroke:#1f77b4;" x="395.61713" xlink:href="#mfd23d3c377" y="354.584576"/>
     <use style="fill:#1f77b4;stroke:#1f77b4;" x="402.681152" xlink:href="#mfd23d3c377" y="354.76134"/>
     <use style="fill:#1f77b4;stroke:#1f77b4;" x="410.236973" xlink:href="#mfd23d3c377" y="354.76134"/>
     <use style="fill:#1f77b4;stroke:#1f77b4;" x="417.315898" xlink:href="#mfd23d3c377" y="354.938105"/>
     <use style="fill:#1f77b4;stroke:#1f77b4;" x="424.420903" xlink:href="#mfd23d3c377" y="354.938105"/>
     <use style="fill:#1f77b4;stroke:#1f77b4;" x="431.946918" xlink:href="#mfd23d3c377" y="355.11487"/>
     <use style="fill:#1f77b4;stroke:#1f77b4;" x="439.051924" xlink:href="#mfd23d3c377" y="354.76134"/>
     <use style="fill:#1f77b4;stroke:#1f77b4;" x="447.513102" xlink:href="#mfd23d3c377" y="354.584576"/>
     <use style="fill:#1f77b4;stroke:#1f77b4;" x="454.58085" xlink:href="#mfd23d3c377" y="354.584576"/>
     <use style="fill:#1f77b4;stroke:#1f77b4;" x="461.659775" xlink:href="#mfd23d3c377" y="354.76134"/>
     <use style="fill:#1f77b4;stroke:#1f77b4;" x="469.208144" xlink:href="#mfd23d3c377" y="354.938105"/>
     <use style="fill:#1f77b4;stroke:#1f77b4;" x="475.392889" xlink:href="#mfd23d3c377" y="442.26"/>
     <use style="fill:#1f77b4;stroke:#1f77b4;" x="481.58136" xlink:href="#mfd23d3c377" y="442.26"/>
     <use style="fill:#1f77b4;stroke:#1f77b4;" x="487.281757" xlink:href="#mfd23d3c377" y="442.26"/>
     <use style="fill:#1f77b4;stroke:#1f77b4;" x="493.451599" xlink:href="#mfd23d3c377" y="442.26"/>
     <use style="fill:#1f77b4;stroke:#1f77b4;" x="501.011146" xlink:href="#mfd23d3c377" y="442.26"/>
     <use style="fill:#1f77b4;stroke:#1f77b4;" x="508.086345" xlink:href="#mfd23d3c377" y="442.26"/>
     <use style="fill:#1f77b4;stroke:#1f77b4;" x="515.120561" xlink:href="#mfd23d3c377" y="442.26"/>
     <use style="fill:#1f77b4;stroke:#1f77b4;" x="520.75017" xlink:href="#mfd23d3c377" y="442.26"/>
     <use style="fill:#1f77b4;stroke:#1f77b4;" x="526.383504" xlink:href="#mfd23d3c377" y="442.26"/>
     <use style="fill:#1f77b4;stroke:#1f77b4;" x="532.97063" xlink:href="#mfd23d3c377" y="442.26"/>
     <use style="fill:#1f77b4;stroke:#1f77b4;" x="538.600238" xlink:href="#mfd23d3c377" y="442.26"/>
     <use style="fill:#1f77b4;stroke:#1f77b4;" x="545.157558" xlink:href="#mfd23d3c377" y="442.26"/>
     <use style="fill:#1f77b4;stroke:#1f77b4;" x="552.184322" xlink:href="#mfd23d3c377" y="442.26"/>
     <use style="fill:#1f77b4;stroke:#1f77b4;" x="557.799028" xlink:href="#mfd23d3c377" y="442.26"/>
     <use style="fill:#1f77b4;stroke:#1f77b4;" x="565.716246" xlink:href="#mfd23d3c377" y="442.26"/>
     <use style="fill:#1f77b4;stroke:#1f77b4;" x="571.342129" xlink:href="#mfd23d3c377" y="442.26"/>
     <use style="fill:#1f77b4;stroke:#1f77b4;" x="576.968011" xlink:href="#mfd23d3c377" y="442.26"/>
     <use style="fill:#1f77b4;stroke:#1f77b4;" x="582.590168" xlink:href="#mfd23d3c377" y="442.26"/>
     <use style="fill:#1f77b4;stroke:#1f77b4;" x="588.223502" xlink:href="#mfd23d3c377" y="442.26"/>
     <use style="fill:#1f77b4;stroke:#1f77b4;" x="593.85311" xlink:href="#mfd23d3c377" y="442.26"/>
     <use style="fill:#1f77b4;stroke:#1f77b4;" x="599.493896" xlink:href="#mfd23d3c377" y="442.26"/>
     <use style="fill:#1f77b4;stroke:#1f77b4;" x="605.589223" xlink:href="#mfd23d3c377" y="442.26"/>
     <use style="fill:#1f77b4;stroke:#1f77b4;" x="611.215105" xlink:href="#mfd23d3c377" y="442.26"/>
     <use style="fill:#1f77b4;stroke:#1f77b4;" x="616.833536" xlink:href="#mfd23d3c377" y="442.26"/>
     <use style="fill:#1f77b4;stroke:#1f77b4;" x="634.106113" xlink:href="#mfd23d3c377" y="442.26"/>
     <use style="fill:#1f77b4;stroke:#1f77b4;" x="639.75435" xlink:href="#mfd23d3c377" y="442.26"/>
     <use style="fill:#1f77b4;stroke:#1f77b4;" x="645.372781" xlink:href="#mfd23d3c377" y="442.26"/>
     <use style="fill:#1f77b4;stroke:#1f77b4;" x="651.44948" xlink:href="#mfd23d3c377" y="442.26"/>
     <use style="fill:#1f77b4;stroke:#1f77b4;" x="657.108894" xlink:href="#mfd23d3c377" y="442.26"/>
    </g>
   </g>
   <g id="patch_3">
    <path d="M 57.17 462.04 
L 57.17 26.88 
" style="fill:none;stroke:#000000;stroke-linecap:square;stroke-linejoin:miter;stroke-width:0.8;"/>
   </g>
   <g id="patch_4">
    <path d="M 653.29 462.04 
L 653.29 26.88 
" style="fill:none;stroke:#000000;stroke-linecap:square;stroke-linejoin:miter;stroke-width:0.8;"/>
   </g>
   <g id="patch_5">
    <path d="M 57.17 462.04 
L 653.29 462.04 
" style="fill:none;stroke:#000000;stroke-linecap:square;stroke-linejoin:miter;stroke-width:0.8;"/>
   </g>
   <g id="patch_6">
    <path d="M 57.17 26.88 
L 653.29 26.88 
" style="fill:none;stroke:#000000;stroke-linecap:square;stroke-linejoin:miter;stroke-width:0.8;"/>
   </g>
   <g id="text_16">
    <!-- Voltage in Type 1 Throttling -->
    <defs>
     <path d="M 28.609375 0 
L 0.78125 72.90625 
L 11.078125 72.90625 
L 34.1875 11.53125 
L 57.328125 72.90625 
L 67.578125 72.90625 
L 39.796875 0 
z
" id="DejaVuSans-86"/>
     <path d="M 18.3125 70.21875 
L 18.3125 54.6875 
L 36.8125 54.6875 
L 36.8125 47.703125 
L 18.3125 47.703125 
L 18.3125 18.015625 
Q 18.3125 11.328125 20.140625 9.421875 
Q 21.96875 7.515625 27.59375 7.515625 
L 36.8125 7.515625 
L 36.8125 0 
L 27.59375 0 
Q 17.1875 0 13.234375 3.875 
Q 9.28125 7.765625 9.28125 18.015625 
L 9.28125 47.703125 
L 2.6875 47.703125 
L 2.6875 54.6875 
L 9.28125 54.6875 
L 9.28125 70.21875 
z
" id="DejaVuSans-116"/>
     <path d="M 45.40625 27.984375 
Q 45.40625 37.75 41.375 43.109375 
Q 37.359375 48.484375 30.078125 48.484375 
Q 22.859375 48.484375 18.828125 43.109375 
Q 14.796875 37.75 14.796875 27.984375 
Q 14.796875 18.265625 18.828125 12.890625 
Q 22.859375 7.515625 30.078125 7.515625 
Q 37.359375 7.515625 41.375 12.890625 
Q 45.40625 18.265625 45.40625 27.984375 
z
M 54.390625 6.78125 
Q 54.390625 -7.171875 48.1875 -13.984375 
Q 42 -20.796875 29.203125 -20.796875 
Q 24.46875 -20.796875 20.265625 -20.09375 
Q 16.0625 -19.390625 12.109375 -17.921875 
L 12.109375 -9.1875 
Q 16.0625 -11.328125 19.921875 -12.34375 
Q 23.78125 -13.375 27.78125 -13.375 
Q 36.625 -13.375 41.015625 -8.765625 
Q 45.40625 -4.15625 45.40625 5.171875 
L 45.40625 9.625 
Q 42.625 4.78125 38.28125 2.390625 
Q 33.9375 0 27.875 0 
Q 17.828125 0 11.671875 7.65625 
Q 5.515625 15.328125 5.515625 27.984375 
Q 5.515625 40.671875 11.671875 48.328125 
Q 17.828125 56 27.875 56 
Q 33.9375 56 38.28125 53.609375 
Q 42.625 51.21875 45.40625 46.390625 
L 45.40625 54.6875 
L 54.390625 54.6875 
z
" id="DejaVuSans-103"/>
     <path d="M 54.890625 33.015625 
L 54.890625 0 
L 45.90625 0 
L 45.90625 32.71875 
Q 45.90625 40.484375 42.875 44.328125 
Q 39.84375 48.1875 33.796875 48.1875 
Q 26.515625 48.1875 22.3125 43.546875 
Q 18.109375 38.921875 18.109375 30.90625 
L 18.109375 0 
L 9.078125 0 
L 9.078125 54.6875 
L 18.109375 54.6875 
L 18.109375 46.1875 
Q 21.34375 51.125 25.703125 53.5625 
Q 30.078125 56 35.796875 56 
Q 45.21875 56 50.046875 50.171875 
Q 54.890625 44.34375 54.890625 33.015625 
z
" id="DejaVuSans-110"/>
     <path d="M 18.109375 8.203125 
L 18.109375 -20.796875 
L 9.078125 -20.796875 
L 9.078125 54.6875 
L 18.109375 54.6875 
L 18.109375 46.390625 
Q 20.953125 51.265625 25.265625 53.625 
Q 29.59375 56 35.59375 56 
Q 45.5625 56 51.78125 48.09375 
Q 58.015625 40.1875 58.015625 27.296875 
Q 58.015625 14.40625 51.78125 6.484375 
Q 45.5625 -1.421875 35.59375 -1.421875 
Q 29.59375 -1.421875 25.265625 0.953125 
Q 20.953125 3.328125 18.109375 8.203125 
z
M 48.6875 27.296875 
Q 48.6875 37.203125 44.609375 42.84375 
Q 40.53125 48.484375 33.40625 48.484375 
Q 26.265625 48.484375 22.1875 42.84375 
Q 18.109375 37.203125 18.109375 27.296875 
Q 18.109375 17.390625 22.1875 11.75 
Q 26.265625 6.109375 33.40625 6.109375 
Q 40.53125 6.109375 44.609375 11.75 
Q 48.6875 17.390625 48.6875 27.296875 
z
" id="DejaVuSans-112"/>
     <path d="M 54.890625 33.015625 
L 54.890625 0 
L 45.90625 0 
L 45.90625 32.71875 
Q 45.90625 40.484375 42.875 44.328125 
Q 39.84375 48.1875 33.796875 48.1875 
Q 26.515625 48.1875 22.3125 43.546875 
Q 18.109375 38.921875 18.109375 30.90625 
L 18.109375 0 
L 9.078125 0 
L 9.078125 75.984375 
L 18.109375 75.984375 
L 18.109375 46.1875 
Q 21.34375 51.125 25.703125 53.5625 
Q 30.078125 56 35.796875 56 
Q 45.21875 56 50.046875 50.171875 
Q 54.890625 44.34375 54.890625 33.015625 
z
" id="DejaVuSans-104"/>
     <path d="M 41.109375 46.296875 
Q 39.59375 47.171875 37.8125 47.578125 
Q 36.03125 48 33.890625 48 
Q 26.265625 48 22.1875 43.046875 
Q 18.109375 38.09375 18.109375 28.8125 
L 18.109375 0 
L 9.078125 0 
L 9.078125 54.6875 
L 18.109375 54.6875 
L 18.109375 46.1875 
Q 20.953125 51.171875 25.484375 53.578125 
Q 30.03125 56 36.53125 56 
Q 37.453125 56 38.578125 55.875 
Q 39.703125 55.765625 41.0625 55.515625 
z
" id="DejaVuSans-114"/>
    </defs>
    <g transform="translate(271.394063 20.88)scale(0.12 -0.12)">
     <use xlink:href="#DejaVuSans-86"/>
     <use x="68.298828" xlink:href="#DejaVuSans-111"/>
     <use x="129.480469" xlink:href="#DejaVuSans-108"/>
     <use x="157.263672" xlink:href="#DejaVuSans-116"/>
     <use x="196.472656" xlink:href="#DejaVuSans-97"/>
     <use x="257.751953" xlink:href="#DejaVuSans-103"/>
     <use x="321.228516" xlink:href="#DejaVuSans-101"/>
     <use x="382.751953" xlink:href="#DejaVuSans-32"/>
     <use x="414.539062" xlink:href="#DejaVuSans-105"/>
     <use x="442.322266" xlink:href="#DejaVuSans-110"/>
     <use x="505.701172" xlink:href="#DejaVuSans-32"/>
     <use x="537.488281" xlink:href="#DejaVuSans-84"/>
     <use x="598.337891" xlink:href="#DejaVuSans-121"/>
     <use x="657.517578" xlink:href="#DejaVuSans-112"/>
     <use x="720.994141" xlink:href="#DejaVuSans-101"/>
     <use x="782.517578" xlink:href="#DejaVuSans-32"/>
     <use x="814.304688" xlink:href="#DejaVuSans-49"/>
     <use x="877.927734" xlink:href="#DejaVuSans-32"/>
     <use x="909.714844" xlink:href="#DejaVuSans-84"/>
     <use x="970.798828" xlink:href="#DejaVuSans-104"/>
     <use x="1034.177734" xlink:href="#DejaVuSans-114"/>
     <use x="1075.259766" xlink:href="#DejaVuSans-111"/>
     <use x="1136.441406" xlink:href="#DejaVuSans-116"/>
     <use x="1175.650391" xlink:href="#DejaVuSans-116"/>
     <use x="1214.859375" xlink:href="#DejaVuSans-108"/>
     <use x="1242.642578" xlink:href="#DejaVuSans-105"/>
     <use x="1270.425781" xlink:href="#DejaVuSans-110"/>
     <use x="1333.804688" xlink:href="#DejaVuSans-103"/>
    </g>
   </g>
  </g>
  <g id="axes_2">
   <g id="matplotlib.axis_3">
    <g id="ytick_6">
     <g id="line2d_28">
      <defs>
       <path d="M 0 0 
L 3.5 0 
" id="mb351d7cc89" style="stroke:#000000;stroke-width:0.8;"/>
      </defs>
      <g>
       <use style="stroke:#000000;stroke-width:0.8;" x="653.29" xlink:href="#mb351d7cc89" y="462.04"/>
      </g>
     </g>
     <g id="text_17">
      <!-- 0.9500 -->
      <defs>
       <path d="M 10.6875 12.40625 
L 21 12.40625 
L 21 0 
L 10.6875 0 
z
" id="DejaVuSans-46"/>
       <path d="M 10.984375 1.515625 
L 10.984375 10.5 
Q 14.703125 8.734375 18.5 7.8125 
Q 22.3125 6.890625 25.984375 6.890625 
Q 35.75 6.890625 40.890625 13.453125 
Q 46.046875 20.015625 46.78125 33.40625 
Q 43.953125 29.203125 39.59375 26.953125 
Q 35.25 24.703125 29.984375 24.703125 
Q 19.046875 24.703125 12.671875 31.3125 
Q 6.296875 37.9375 6.296875 49.421875 
Q 6.296875 60.640625 12.9375 67.421875 
Q 19.578125 74.21875 30.609375 74.21875 
Q 43.265625 74.21875 49.921875 64.515625 
Q 56.59375 54.828125 56.59375 36.375 
Q 56.59375 19.140625 48.40625 8.859375 
Q 40.234375 -1.421875 26.421875 -1.421875 
Q 22.703125 -1.421875 18.890625 -0.6875 
Q 15.09375 0.046875 10.984375 1.515625 
z
M 30.609375 32.421875 
Q 37.25 32.421875 41.125 36.953125 
Q 45.015625 41.5 45.015625 49.421875 
Q 45.015625 57.28125 41.125 61.84375 
Q 37.25 66.40625 30.609375 66.40625 
Q 23.96875 66.40625 20.09375 61.84375 
Q 16.21875 57.28125 16.21875 49.421875 
Q 16.21875 41.5 20.09375 36.953125 
Q 23.96875 32.421875 30.609375 32.421875 
z
" id="DejaVuSans-57"/>
      </defs>
      <g transform="translate(660.29 465.839219)scale(0.1 -0.1)">
       <use xlink:href="#DejaVuSans-48"/>
       <use x="63.623047" xlink:href="#DejaVuSans-46"/>
       <use x="95.410156" xlink:href="#DejaVuSans-57"/>
       <use x="159.033203" xlink:href="#DejaVuSans-53"/>
       <use x="222.65625" xlink:href="#DejaVuSans-48"/>
       <use x="286.279297" xlink:href="#DejaVuSans-48"/>
      </g>
     </g>
    </g>
    <g id="ytick_7">
     <g id="line2d_29">
      <g>
       <use style="stroke:#000000;stroke-width:0.8;" x="653.29" xlink:href="#mb351d7cc89" y="407.645"/>
      </g>
     </g>
     <g id="text_18">
      <!-- 0.9525 -->
      <g transform="translate(660.29 411.444219)scale(0.1 -0.1)">
       <use xlink:href="#DejaVuSans-48"/>
       <use x="63.623047" xlink:href="#DejaVuSans-46"/>
       <use x="95.410156" xlink:href="#DejaVuSans-57"/>
       <use x="159.033203" xlink:href="#DejaVuSans-53"/>
       <use x="222.65625" xlink:href="#DejaVuSans-50"/>
       <use x="286.279297" xlink:href="#DejaVuSans-53"/>
      </g>
     </g>
    </g>
    <g id="ytick_8">
     <g id="line2d_30">
      <g>
       <use style="stroke:#000000;stroke-width:0.8;" x="653.29" xlink:href="#mb351d7cc89" y="353.25"/>
      </g>
     </g>
     <g id="text_19">
      <!-- 0.9550 -->
      <g transform="translate(660.29 357.049219)scale(0.1 -0.1)">
       <use xlink:href="#DejaVuSans-48"/>
       <use x="63.623047" xlink:href="#DejaVuSans-46"/>
       <use x="95.410156" xlink:href="#DejaVuSans-57"/>
       <use x="159.033203" xlink:href="#DejaVuSans-53"/>
       <use x="222.65625" xlink:href="#DejaVuSans-53"/>
       <use x="286.279297" xlink:href="#DejaVuSans-48"/>
      </g>
     </g>
    </g>
    <g id="ytick_9">
     <g id="line2d_31">
      <g>
       <use style="stroke:#000000;stroke-width:0.8;" x="653.29" xlink:href="#mb351d7cc89" y="298.855"/>
      </g>
     </g>
     <g id="text_20">
      <!-- 0.9575 -->
      <defs>
       <path d="M 8.203125 72.90625 
L 55.078125 72.90625 
L 55.078125 68.703125 
L 28.609375 0 
L 18.3125 0 
L 43.21875 64.59375 
L 8.203125 64.59375 
z
" id="DejaVuSans-55"/>
      </defs>
      <g transform="translate(660.29 302.654219)scale(0.1 -0.1)">
       <use xlink:href="#DejaVuSans-48"/>
       <use x="63.623047" xlink:href="#DejaVuSans-46"/>
       <use x="95.410156" xlink:href="#DejaVuSans-57"/>
       <use x="159.033203" xlink:href="#DejaVuSans-53"/>
       <use x="222.65625" xlink:href="#DejaVuSans-55"/>
       <use x="286.279297" xlink:href="#DejaVuSans-53"/>
      </g>
     </g>
    </g>
    <g id="ytick_10">
     <g id="line2d_32">
      <g>
       <use style="stroke:#000000;stroke-width:0.8;" x="653.29" xlink:href="#mb351d7cc89" y="244.46"/>
      </g>
     </g>
     <g id="text_21">
      <!-- 0.9600 -->
      <g transform="translate(660.29 248.259219)scale(0.1 -0.1)">
       <use xlink:href="#DejaVuSans-48"/>
       <use x="63.623047" xlink:href="#DejaVuSans-46"/>
       <use x="95.410156" xlink:href="#DejaVuSans-57"/>
       <use x="159.033203" xlink:href="#DejaVuSans-54"/>
       <use x="222.65625" xlink:href="#DejaVuSans-48"/>
       <use x="286.279297" xlink:href="#DejaVuSans-48"/>
      </g>
     </g>
    </g>
    <g id="ytick_11">
     <g id="line2d_33">
      <g>
       <use style="stroke:#000000;stroke-width:0.8;" x="653.29" xlink:href="#mb351d7cc89" y="190.065"/>
      </g>
     </g>
     <g id="text_22">
      <!-- 0.9625 -->
      <g transform="translate(660.29 193.864219)scale(0.1 -0.1)">
       <use xlink:href="#DejaVuSans-48"/>
       <use x="63.623047" xlink:href="#DejaVuSans-46"/>
       <use x="95.410156" xlink:href="#DejaVuSans-57"/>
       <use x="159.033203" xlink:href="#DejaVuSans-54"/>
       <use x="222.65625" xlink:href="#DejaVuSans-50"/>
       <use x="286.279297" xlink:href="#DejaVuSans-53"/>
      </g>
     </g>
    </g>
    <g id="ytick_12">
     <g id="line2d_34">
      <g>
       <use style="stroke:#000000;stroke-width:0.8;" x="653.29" xlink:href="#mb351d7cc89" y="135.67"/>
      </g>
     </g>
     <g id="text_23">
      <!-- 0.9650 -->
      <g transform="translate(660.29 139.469219)scale(0.1 -0.1)">
       <use xlink:href="#DejaVuSans-48"/>
       <use x="63.623047" xlink:href="#DejaVuSans-46"/>
       <use x="95.410156" xlink:href="#DejaVuSans-57"/>
       <use x="159.033203" xlink:href="#DejaVuSans-54"/>
       <use x="222.65625" xlink:href="#DejaVuSans-53"/>
       <use x="286.279297" xlink:href="#DejaVuSans-48"/>
      </g>
     </g>
    </g>
    <g id="ytick_13">
     <g id="line2d_35">
      <g>
       <use style="stroke:#000000;stroke-width:0.8;" x="653.29" xlink:href="#mb351d7cc89" y="81.275"/>
      </g>
     </g>
     <g id="text_24">
      <!-- 0.9675 -->
      <g transform="translate(660.29 85.074219)scale(0.1 -0.1)">
       <use xlink:href="#DejaVuSans-48"/>
       <use x="63.623047" xlink:href="#DejaVuSans-46"/>
       <use x="95.410156" xlink:href="#DejaVuSans-57"/>
       <use x="159.033203" xlink:href="#DejaVuSans-54"/>
       <use x="222.65625" xlink:href="#DejaVuSans-55"/>
       <use x="286.279297" xlink:href="#DejaVuSans-53"/>
      </g>
     </g>
    </g>
    <g id="ytick_14">
     <g id="line2d_36">
      <g>
       <use style="stroke:#000000;stroke-width:0.8;" x="653.29" xlink:href="#mb351d7cc89" y="26.88"/>
      </g>
     </g>
     <g id="text_25">
      <!-- 0.9700 -->
      <g transform="translate(660.29 30.679219)scale(0.1 -0.1)">
       <use xlink:href="#DejaVuSans-48"/>
       <use x="63.623047" xlink:href="#DejaVuSans-46"/>
       <use x="95.410156" xlink:href="#DejaVuSans-57"/>
       <use x="159.033203" xlink:href="#DejaVuSans-55"/>
       <use x="222.65625" xlink:href="#DejaVuSans-48"/>
       <use x="286.279297" xlink:href="#DejaVuSans-48"/>
      </g>
     </g>
    </g>
    <g id="text_26">
     <!-- Volts (V) -->
     <g transform="translate(706.879063 265.799062)rotate(-90)scale(0.1 -0.1)">
      <use xlink:href="#DejaVuSans-86"/>
      <use x="68.298828" xlink:href="#DejaVuSans-111"/>
      <use x="129.480469" xlink:href="#DejaVuSans-108"/>
      <use x="157.263672" xlink:href="#DejaVuSans-116"/>
      <use x="196.472656" xlink:href="#DejaVuSans-115"/>
      <use x="248.572266" xlink:href="#DejaVuSans-32"/>
      <use x="280.359375" xlink:href="#DejaVuSans-40"/>
      <use x="319.373047" xlink:href="#DejaVuSans-86"/>
      <use x="387.78125" xlink:href="#DejaVuSans-41"/>
     </g>
    </g>
   </g>
   <g id="line2d_37">
    <path clip-path="url(#p92ea44939f)" d="M 49.722226 418.524 
L 57.237064 418.524 
L 64.6215 418.524 
L 72.102806 396.766 
L 79.561758 396.766 
L 86.990903 396.766 
L 94.438677 396.766 
L 106.502656 396.766 
L 118.626246 396.766 
L 131.189475 287.976 
L 153.335333 287.976 
L 160.414258 287.976 
L 167.917919 287.976 
L 174.963312 287.976 
L 182.496779 287.976 
L 189.586881 287.976 
L 197.097993 287.976 
L 204.65754 287.976 
L 212.649273 287.976 
L 219.73565 287.976 
L 226.810849 287.976 
L 234.389025 287.976 
L 241.94112 287.976 
L 249.504392 287.976 
L 256.575866 287.976 
L 266.203204 287.976 
L 275.804462 287.976 
L 282.879661 287.976 
L 292.011474 287.976 
L 300.059094 287.976 
L 307.596286 287.976 
L 314.66776 287.976 
L 325.230261 287.976 
L 332.331541 287.976 
L 339.403014 287.976 
L 346.474488 287.976 
L 353.549687 287.976 
L 361.086879 287.976 
L 368.165804 287.976 
L 388.087389 287.976 
L 395.61713 287.976 
L 402.681152 287.976 
L 410.236973 287.976 
L 417.315898 287.976 
L 424.420903 287.976 
L 431.946918 287.976 
L 439.051924 287.976 
L 447.513102 287.976 
L 454.58085 287.976 
L 461.659775 287.976 
L 469.208144 287.976 
L 475.392889 287.976 
L 481.58136 287.976 
L 487.281757 287.976 
L 493.451599 287.976 
L 501.011146 287.976 
L 508.086345 287.976 
L 515.120561 287.976 
L 520.75017 287.976 
L 526.383504 287.976 
L 532.97063 287.976 
L 538.600238 287.976 
L 545.157558 287.976 
L 552.184322 287.976 
L 557.799028 287.976 
L 565.716246 287.976 
L 571.342129 287.976 
L 576.968011 287.976 
L 582.590168 287.976 
L 588.223502 287.976 
L 593.85311 287.976 
L 599.493896 287.976 
L 605.589223 287.976 
L 611.215105 287.976 
L 616.833536 287.976 
L 634.106113 287.976 
L 639.75435 287.976 
L 645.372781 287.976 
L 651.44948 287.976 
L 657.108894 287.976 
" style="fill:none;stroke:#ff7f0e;stroke-linecap:square;stroke-width:1.5;"/>
    <defs>
     <path d="M 0 1.5 
C 0.397805 1.5 0.77937 1.341951 1.06066 1.06066 
C 1.341951 0.77937 1.5 0.397805 1.5 0 
C 1.5 -0.397805 1.341951 -0.77937 1.06066 -1.06066 
C 0.77937 -1.341951 0.397805 -1.5 0 -1.5 
C -0.397805 -1.5 -0.77937 -1.341951 -1.06066 -1.06066 
C -1.341951 -0.77937 -1.5 -0.397805 -1.5 0 
C -1.5 0.397805 -1.341951 0.77937 -1.06066 1.06066 
C -0.77937 1.341951 -0.397805 1.5 0 1.5 
z
" id="mf7b048cd89" style="stroke:#ff7f0e;"/>
    </defs>
    <g clip-path="url(#p92ea44939f)">
     <use style="fill:#ff7f0e;stroke:#ff7f0e;" x="49.722226" xlink:href="#mf7b048cd89" y="418.524"/>
     <use style="fill:#ff7f0e;stroke:#ff7f0e;" x="57.237064" xlink:href="#mf7b048cd89" y="418.524"/>
     <use style="fill:#ff7f0e;stroke:#ff7f0e;" x="64.6215" xlink:href="#mf7b048cd89" y="418.524"/>
     <use style="fill:#ff7f0e;stroke:#ff7f0e;" x="72.102806" xlink:href="#mf7b048cd89" y="396.766"/>
     <use style="fill:#ff7f0e;stroke:#ff7f0e;" x="79.561758" xlink:href="#mf7b048cd89" y="396.766"/>
     <use style="fill:#ff7f0e;stroke:#ff7f0e;" x="86.990903" xlink:href="#mf7b048cd89" y="396.766"/>
     <use style="fill:#ff7f0e;stroke:#ff7f0e;" x="94.438677" xlink:href="#mf7b048cd89" y="396.766"/>
     <use style="fill:#ff7f0e;stroke:#ff7f0e;" x="106.502656" xlink:href="#mf7b048cd89" y="396.766"/>
     <use style="fill:#ff7f0e;stroke:#ff7f0e;" x="118.626246" xlink:href="#mf7b048cd89" y="396.766"/>
     <use style="fill:#ff7f0e;stroke:#ff7f0e;" x="131.189475" xlink:href="#mf7b048cd89" y="287.976"/>
     <use style="fill:#ff7f0e;stroke:#ff7f0e;" x="153.335333" xlink:href="#mf7b048cd89" y="287.976"/>
     <use style="fill:#ff7f0e;stroke:#ff7f0e;" x="160.414258" xlink:href="#mf7b048cd89" y="287.976"/>
     <use style="fill:#ff7f0e;stroke:#ff7f0e;" x="167.917919" xlink:href="#mf7b048cd89" y="287.976"/>
     <use style="fill:#ff7f0e;stroke:#ff7f0e;" x="174.963312" xlink:href="#mf7b048cd89" y="287.976"/>
     <use style="fill:#ff7f0e;stroke:#ff7f0e;" x="182.496779" xlink:href="#mf7b048cd89" y="287.976"/>
     <use style="fill:#ff7f0e;stroke:#ff7f0e;" x="189.586881" xlink:href="#mf7b048cd89" y="287.976"/>
     <use style="fill:#ff7f0e;stroke:#ff7f0e;" x="197.097993" xlink:href="#mf7b048cd89" y="287.976"/>
     <use style="fill:#ff7f0e;stroke:#ff7f0e;" x="204.65754" xlink:href="#mf7b048cd89" y="287.976"/>
     <use style="fill:#ff7f0e;stroke:#ff7f0e;" x="212.649273" xlink:href="#mf7b048cd89" y="287.976"/>
     <use style="fill:#ff7f0e;stroke:#ff7f0e;" x="219.73565" xlink:href="#mf7b048cd89" y="287.976"/>
     <use style="fill:#ff7f0e;stroke:#ff7f0e;" x="226.810849" xlink:href="#mf7b048cd89" y="287.976"/>
     <use style="fill:#ff7f0e;stroke:#ff7f0e;" x="234.389025" xlink:href="#mf7b048cd89" y="287.976"/>
     <use style="fill:#ff7f0e;stroke:#ff7f0e;" x="241.94112" xlink:href="#mf7b048cd89" y="287.976"/>
     <use style="fill:#ff7f0e;stroke:#ff7f0e;" x="249.504392" xlink:href="#mf7b048cd89" y="287.976"/>
     <use style="fill:#ff7f0e;stroke:#ff7f0e;" x="256.575866" xlink:href="#mf7b048cd89" y="287.976"/>
     <use style="fill:#ff7f0e;stroke:#ff7f0e;" x="266.203204" xlink:href="#mf7b048cd89" y="287.976"/>
     <use style="fill:#ff7f0e;stroke:#ff7f0e;" x="275.804462" xlink:href="#mf7b048cd89" y="287.976"/>
     <use style="fill:#ff7f0e;stroke:#ff7f0e;" x="282.879661" xlink:href="#mf7b048cd89" y="287.976"/>
     <use style="fill:#ff7f0e;stroke:#ff7f0e;" x="292.011474" xlink:href="#mf7b048cd89" y="287.976"/>
     <use style="fill:#ff7f0e;stroke:#ff7f0e;" x="300.059094" xlink:href="#mf7b048cd89" y="287.976"/>
     <use style="fill:#ff7f0e;stroke:#ff7f0e;" x="307.596286" xlink:href="#mf7b048cd89" y="287.976"/>
     <use style="fill:#ff7f0e;stroke:#ff7f0e;" x="314.66776" xlink:href="#mf7b048cd89" y="287.976"/>
     <use style="fill:#ff7f0e;stroke:#ff7f0e;" x="325.230261" xlink:href="#mf7b048cd89" y="287.976"/>
     <use style="fill:#ff7f0e;stroke:#ff7f0e;" x="332.331541" xlink:href="#mf7b048cd89" y="287.976"/>
     <use style="fill:#ff7f0e;stroke:#ff7f0e;" x="339.403014" xlink:href="#mf7b048cd89" y="287.976"/>
     <use style="fill:#ff7f0e;stroke:#ff7f0e;" x="346.474488" xlink:href="#mf7b048cd89" y="287.976"/>
     <use style="fill:#ff7f0e;stroke:#ff7f0e;" x="353.549687" xlink:href="#mf7b048cd89" y="287.976"/>
     <use style="fill:#ff7f0e;stroke:#ff7f0e;" x="361.086879" xlink:href="#mf7b048cd89" y="287.976"/>
     <use style="fill:#ff7f0e;stroke:#ff7f0e;" x="368.165804" xlink:href="#mf7b048cd89" y="287.976"/>
     <use style="fill:#ff7f0e;stroke:#ff7f0e;" x="388.087389" xlink:href="#mf7b048cd89" y="287.976"/>
     <use style="fill:#ff7f0e;stroke:#ff7f0e;" x="395.61713" xlink:href="#mf7b048cd89" y="287.976"/>
     <use style="fill:#ff7f0e;stroke:#ff7f0e;" x="402.681152" xlink:href="#mf7b048cd89" y="287.976"/>
     <use style="fill:#ff7f0e;stroke:#ff7f0e;" x="410.236973" xlink:href="#mf7b048cd89" y="287.976"/>
     <use style="fill:#ff7f0e;stroke:#ff7f0e;" x="417.315898" xlink:href="#mf7b048cd89" y="287.976"/>
     <use style="fill:#ff7f0e;stroke:#ff7f0e;" x="424.420903" xlink:href="#mf7b048cd89" y="287.976"/>
     <use style="fill:#ff7f0e;stroke:#ff7f0e;" x="431.946918" xlink:href="#mf7b048cd89" y="287.976"/>
     <use style="fill:#ff7f0e;stroke:#ff7f0e;" x="439.051924" xlink:href="#mf7b048cd89" y="287.976"/>
     <use style="fill:#ff7f0e;stroke:#ff7f0e;" x="447.513102" xlink:href="#mf7b048cd89" y="287.976"/>
     <use style="fill:#ff7f0e;stroke:#ff7f0e;" x="454.58085" xlink:href="#mf7b048cd89" y="287.976"/>
     <use style="fill:#ff7f0e;stroke:#ff7f0e;" x="461.659775" xlink:href="#mf7b048cd89" y="287.976"/>
     <use style="fill:#ff7f0e;stroke:#ff7f0e;" x="469.208144" xlink:href="#mf7b048cd89" y="287.976"/>
     <use style="fill:#ff7f0e;stroke:#ff7f0e;" x="475.392889" xlink:href="#mf7b048cd89" y="287.976"/>
     <use style="fill:#ff7f0e;stroke:#ff7f0e;" x="481.58136" xlink:href="#mf7b048cd89" y="287.976"/>
     <use style="fill:#ff7f0e;stroke:#ff7f0e;" x="487.281757" xlink:href="#mf7b048cd89" y="287.976"/>
     <use style="fill:#ff7f0e;stroke:#ff7f0e;" x="493.451599" xlink:href="#mf7b048cd89" y="287.976"/>
     <use style="fill:#ff7f0e;stroke:#ff7f0e;" x="501.011146" xlink:href="#mf7b048cd89" y="287.976"/>
     <use style="fill:#ff7f0e;stroke:#ff7f0e;" x="508.086345" xlink:href="#mf7b048cd89" y="287.976"/>
     <use style="fill:#ff7f0e;stroke:#ff7f0e;" x="515.120561" xlink:href="#mf7b048cd89" y="287.976"/>
     <use style="fill:#ff7f0e;stroke:#ff7f0e;" x="520.75017" xlink:href="#mf7b048cd89" y="287.976"/>
     <use style="fill:#ff7f0e;stroke:#ff7f0e;" x="526.383504" xlink:href="#mf7b048cd89" y="287.976"/>
     <use style="fill:#ff7f0e;stroke:#ff7f0e;" x="532.97063" xlink:href="#mf7b048cd89" y="287.976"/>
     <use style="fill:#ff7f0e;stroke:#ff7f0e;" x="538.600238" xlink:href="#mf7b048cd89" y="287.976"/>
     <use style="fill:#ff7f0e;stroke:#ff7f0e;" x="545.157558" xlink:href="#mf7b048cd89" y="287.976"/>
     <use style="fill:#ff7f0e;stroke:#ff7f0e;" x="552.184322" xlink:href="#mf7b048cd89" y="287.976"/>
     <use style="fill:#ff7f0e;stroke:#ff7f0e;" x="557.799028" xlink:href="#mf7b048cd89" y="287.976"/>
     <use style="fill:#ff7f0e;stroke:#ff7f0e;" x="565.716246" xlink:href="#mf7b048cd89" y="287.976"/>
     <use style="fill:#ff7f0e;stroke:#ff7f0e;" x="571.342129" xlink:href="#mf7b048cd89" y="287.976"/>
     <use style="fill:#ff7f0e;stroke:#ff7f0e;" x="576.968011" xlink:href="#mf7b048cd89" y="287.976"/>
     <use style="fill:#ff7f0e;stroke:#ff7f0e;" x="582.590168" xlink:href="#mf7b048cd89" y="287.976"/>
     <use style="fill:#ff7f0e;stroke:#ff7f0e;" x="588.223502" xlink:href="#mf7b048cd89" y="287.976"/>
     <use style="fill:#ff7f0e;stroke:#ff7f0e;" x="593.85311" xlink:href="#mf7b048cd89" y="287.976"/>
     <use style="fill:#ff7f0e;stroke:#ff7f0e;" x="599.493896" xlink:href="#mf7b048cd89" y="287.976"/>
     <use style="fill:#ff7f0e;stroke:#ff7f0e;" x="605.589223" xlink:href="#mf7b048cd89" y="287.976"/>
     <use style="fill:#ff7f0e;stroke:#ff7f0e;" x="611.215105" xlink:href="#mf7b048cd89" y="287.976"/>
     <use style="fill:#ff7f0e;stroke:#ff7f0e;" x="616.833536" xlink:href="#mf7b048cd89" y="287.976"/>
     <use style="fill:#ff7f0e;stroke:#ff7f0e;" x="634.106113" xlink:href="#mf7b048cd89" y="287.976"/>
     <use style="fill:#ff7f0e;stroke:#ff7f0e;" x="639.75435" xlink:href="#mf7b048cd89" y="287.976"/>
     <use style="fill:#ff7f0e;stroke:#ff7f0e;" x="645.372781" xlink:href="#mf7b048cd89" y="287.976"/>
     <use style="fill:#ff7f0e;stroke:#ff7f0e;" x="651.44948" xlink:href="#mf7b048cd89" y="287.976"/>
     <use style="fill:#ff7f0e;stroke:#ff7f0e;" x="657.108894" xlink:href="#mf7b048cd89" y="287.976"/>
    </g>
   </g>
   <g id="patch_7">
    <path d="M 57.17 462.04 
L 57.17 26.88 
" style="fill:none;stroke:#000000;stroke-linecap:square;stroke-linejoin:miter;stroke-width:0.8;"/>
   </g>
   <g id="patch_8">
    <path d="M 653.29 462.04 
L 653.29 26.88 
" style="fill:none;stroke:#000000;stroke-linecap:square;stroke-linejoin:miter;stroke-width:0.8;"/>
   </g>
   <g id="patch_9">
    <path d="M 57.17 462.04 
L 653.29 462.04 
" style="fill:none;stroke:#000000;stroke-linecap:square;stroke-linejoin:miter;stroke-width:0.8;"/>
   </g>
   <g id="patch_10">
    <path d="M 57.17 26.88 
L 653.29 26.88 
" style="fill:none;stroke:#000000;stroke-linecap:square;stroke-linejoin:miter;stroke-width:0.8;"/>
   </g>
  </g>
  <g id="legend_1">
   <g id="patch_11">
    <path d="M 573.3025 64.23625 
L 646.29 64.23625 
Q 648.29 64.23625 648.29 62.23625 
L 648.29 33.88 
Q 648.29 31.88 646.29 31.88 
L 573.3025 31.88 
Q 571.3025 31.88 571.3025 33.88 
L 571.3025 62.23625 
Q 571.3025 64.23625 573.3025 64.23625 
z
" style="fill:#ffffff;opacity:0.8;stroke:#cccccc;stroke-linejoin:miter;"/>
   </g>
   <g id="line2d_38">
    <path d="M 575.3025 39.978437 
L 595.3025 39.978437 
" style="fill:none;stroke:#1f77b4;stroke-linecap:square;stroke-width:1.5;"/>
   </g>
   <g id="line2d_39">
    <g>
     <use style="fill:#1f77b4;stroke:#1f77b4;" x="585.3025" xlink:href="#mfd23d3c377" y="39.978437"/>
    </g>
   </g>
   <g id="text_27">
    <!-- paytime -->
    <g transform="translate(603.3025 43.478437)scale(0.1 -0.1)">
     <use xlink:href="#DejaVuSans-112"/>
     <use x="63.476562" xlink:href="#DejaVuSans-97"/>
     <use x="124.755859" xlink:href="#DejaVuSans-121"/>
     <use x="183.935547" xlink:href="#DejaVuSans-116"/>
     <use x="223.144531" xlink:href="#DejaVuSans-105"/>
     <use x="250.927734" xlink:href="#DejaVuSans-109"/>
     <use x="348.339844" xlink:href="#DejaVuSans-101"/>
    </g>
   </g>
   <g id="line2d_40">
    <path d="M 575.3025 54.656562 
L 595.3025 54.656562 
" style="fill:none;stroke:#ff7f0e;stroke-linecap:square;stroke-width:1.5;"/>
   </g>
   <g id="line2d_41">
    <g>
     <use style="fill:#ff7f0e;stroke:#ff7f0e;" x="585.3025" xlink:href="#mf7b048cd89" y="54.656562"/>
    </g>
   </g>
   <g id="text_28">
    <!-- volts -->
    <defs>
     <path d="M 2.984375 54.6875 
L 12.5 54.6875 
L 29.59375 8.796875 
L 46.6875 54.6875 
L 56.203125 54.6875 
L 35.6875 0 
L 23.484375 0 
z
" id="DejaVuSans-118"/>
    </defs>
    <g transform="translate(603.3025 58.156562)scale(0.1 -0.1)">
     <use xlink:href="#DejaVuSans-118"/>
     <use x="59.179688" xlink:href="#DejaVuSans-111"/>
     <use x="120.361328" xlink:href="#DejaVuSans-108"/>
     <use x="148.144531" xlink:href="#DejaVuSans-116"/>
     <use x="187.353516" xlink:href="#DejaVuSans-115"/>
    </g>
   </g>
  </g>
 </g>
 <defs>
  <clipPath id="p92ea44939f">
   <rect height="435.16" width="596.12" x="57.17" y="26.88"/>
  </clipPath>
 </defs>
</svg>
