<?xml version="1.0" encoding="UTF-8" standalone="no"?>
<svg xmlns="http://www.w3.org/2000/svg" xmlns:sodipodi="http://sodipodi.sourceforge.net/DTD/sodipodi-0.dtd" xmlns:inkscape="http://www.inkscape.org/namespaces/inkscape" width="2710" height="3250" version="1.0">
 <metadata id="metadata1384"/>
 <g id="g10806" transform="translate(-891.88772,1776.7297)">
  <g id="g3264" transform="matrix(0.190476,0,0,0.190476,725.7986,703.1369)">
   <path inkscape:connector-curvature="0" d="m 15073.23,3131.0006 c 0,489.3 -396.638,885.938 -885.938,885.938 l -12403.1376,0 c -489.2913,0 -885.93835,-396.638 -885.93835,-885.938 l 0,-15238.1406 c 0,-489.291 396.64705,-885.938 885.93835,-885.938 l 12403.1376,0 c 489.3,0 885.938,396.647 885.938,885.938 l 0,15238.1406 z" id="path11" fill="#ffffff" stroke="#000000" stroke-width="52.5"/>
   <path inkscape:connector-curvature="0" d="m 1784.1545,3780.6884 c -358.24,0 -649.6882,-291.441 -649.6882,-649.688 l 0,-15238.1404 c 0,-358.24 291.4482,-649.688 649.6882,-649.688 l 12403.1375,0 c 358.247,0 649.688,291.448 649.688,649.688 l 0,15238.1404 c 0,358.247 -291.441,649.688 -649.688,649.688 l -12403.1375,0 z" id="path13"/>
   <path inkscape:connector-curvature="0" d="m 1784.1544,3426.3128 c -162.8355,0 -295.3128,-132.497 -295.3128,-295.312 l 0,-15238.1408 c 0,-162.835 132.4773,-295.313 295.3128,-295.313 l 12403.1376,0 c 162.815,0 295.312,132.478 295.312,295.313 l 0,15238.1408 c 0,162.815 -132.497,295.312 -295.312,295.312 l -12403.1376,0 z" id="path15" fill="#ffffff"/>
   <path inkscape:connector-curvature="0" d="m 12769.462,-10352.877 c -107.625,-58.019 -231.788,-91.186 -355.95,-91.186 l -358.444,0 0,1516.9894 358.444,0 c 124.162,0 240.056,-33.1669 339.412,-91.1926 248.326,-132.6282 364.22,-348.1541 364.22,-671.4428 0,-315 -115.894,-530.526 -347.682,-663.168 z m 198.713,1707.6368 c -165.572,91.186 -364.285,140.9298 -554.663,140.9298 l -788.945,0 0,-2362.5156 788.945,0 c 198.647,0 389.091,49.737 562.931,149.218 364.22,207.231 562.932,563.687 562.932,1027.899 0,472.4939 -198.712,837.2314 -571.2,1044.4688 z" id="path17"/>
   <path inkscape:connector-curvature="0" d="m 7135.8129,-8504.3104 0,-2362.5156 1730.2705,0 0,422.763 -1297.67,0 0,439.354 707.0444,0 0,431.0448 -707.0444,0 0,646.5906 1339.2763,0 0,422.7632 -1771.8768,0 z" id="path19"/>
   <path inkscape:connector-curvature="0" d="m 9380.1902,-8504.3104 0,-2362.5156 1730.2708,0 0,422.763 -1297.6704,0 0,439.354 707.0444,0 0,431.0448 -707.0444,0 0,646.5906 1339.2764,0 0,422.7632 -1771.8768,0 z" id="path21"/>
   <path inkscape:connector-curvature="0" d="m 5963.6902,-10444.063 -713.4692,0 0,588.5588 713.4692,0 c 207.1258,0 347.9572,-116.0579 347.9572,-290.1348 0,-182.359 -140.8314,-298.424 -347.9572,-298.424 z m 405.9566,920.1491 c -132.5495,74.6157 -240.2599,91.1729 -422.5335,91.1729 l -696.8923,0 0,928.4306 -430.8351,0 0,-2362.5156 1127.7274,0 c 182.2736,0 289.984,24.866 422.5335,99.481 223.7159,124.34 364.5473,356.449 364.5473,621.706 0,248.6926 -140.8314,497.3787 -364.5473,621.7251 z" id="path23"/>
   <path inkscape:connector-curvature="0" d="m 3312.8838,-9564.4636 c -105.1511,-29.0325 -369.5741,-92.4985 -458.798,-144.8083 -177.8373,-104.2716 -313.7731,-274.7721 -313.7731,-527.5471 0,-389.602 333.0013,-654.872 815.8639,-654.872 349.657,0 641.0454,116.058 882.48,364.737 l -316.3653,281.854 c -149.8483,-157.514 -341.3291,-232.11 -566.1147,-232.11 -241.4346,0 -382.9616,91.18 -382.9616,240.391 0,132.629 83.2585,190.661 374.6338,256.975 316.3588,66.3141 524.5018,132.6282 657.6944,198.9555 208.1431,107.7563 341.3357,331.5903 341.3357,588.5584 0,240.3912 -108.2223,422.7632 -333.0078,555.398 -166.4974,99.4745 -382.9551,157.4871 -599.4063,157.4871 -407.9451,0 -715.9826,-149.2052 -982.3941,-455.917 l 341.3357,-265.2697 c 174.8383,207.2505 366.3191,298.4431 632.724,298.4431 299.7032,0 516.1609,-132.6479 516.1609,-306.7184 0,-221.7405 -241.1918,-253.9362 -609.4075,-355.5566 z" id="path25"/>
   <path inkscape:connector-curvature="0" d="m 5835.2751,-4960.5697 0,-2362.4764 425.2373,0 0,2362.4764 -425.2373,0 z" id="path27"/>
   <path inkscape:connector-curvature="0" d="m 9710.9405,-4960.5697 0,-2362.4764 425.2505,0 0,2362.4764 -425.2505,0 z" id="path29"/>
   <path inkscape:connector-curvature="0" d="m 3661.7466,-4960.5697 0,-2362.4764 424.253,0 0,1997.7323 1347.6238,0 0,364.7441 -1771.8768,0 z" id="path31"/>
   <path inkscape:connector-curvature="0" d="m 8680.6275,-4960.5697 0,-1442.3736 -699.0387,1442.3736 -690.7364,-1442.3736 0,1442.3736 -416.0892,0 0,-2362.4895 416.0892,0 690.7364,1400.9508 699.0387,-1400.9508 416.0629,0 0,2362.4895 -416.0629,0 z" id="path33"/>
   <path inkscape:connector-curvature="0" d="m 11630.736,-6908.571 0,1948.0013 -413.963,0 0,-1948.0013 -678.957,0 0,-414.4682 1771.877,0 0,414.4682 -678.957,0 z" id="path35"/>
   <path inkscape:connector-curvature="0" d="m 5021.0583,1990.2402 c -779.2451,0 -1478.559,-198.975 -2197.8622,-636.629 L 3362.667,498.12324 c 499.5183,298.397 1078.9548,457.538 1658.3913,457.538 859.1634,0 1378.6645,-378 1378.6645,-1014.629997 0,-298.397003 -139.8601,-596.794003 -359.645,-775.885003 -199.8087,-159.141 -499.5315,-238.74304 -919.1185,-238.74304 -379.641,0 -679.3375,59.719 -1098.9376,218.85904 l -1019.0129,-258.62904 179.8324,-2665.9517 3796.3116,0 -19.9829,994.7442 -2817.2578,0 -59.9288,815.7196 c 459.5395,-99.4876 739.2664,-139.2559 1098.9245,-139.2559 1298.7332,0 2237.8213,875.3728 2237.8213,2049.141843 0,1193.719957 -999.0235,2049.208957 -2397.6708,2049.208957 z" id="path37"/>
   <path inkscape:connector-curvature="0" d="m 12131.324,-954.22576 c 0,-1193.71974 -498.488,-1909.88554 -1355.945,-1909.88554 -1016.926,0 -1375.8294,1054.3974 -1375.8294,1890.00154 0,1253.373 518.438,1949.721 1375.8294,1949.721 837.507,0 1355.945,-775.886 1355.945,-1949.721 l 0,19.884 z M 10775.379,1990.2402 c -1694.8985,0 -2392.7555,-1452.34896 -2392.7555,-2944.46596 0,-1492.11644 717.807,-2924.51474 2392.7555,-2924.51474 1694.898,0 2372.871,1472.1666 2372.871,2904.63074 0,1452.349 -658.023,2964.34996 -2372.871,2964.34996 z" id="path39"/>
  </g>
 </g>
</svg>
