<?xml version="1.0" encoding="utf-8" standalone="no"?>
<!DOCTYPE svg PUBLIC "-//W3C//DTD SVG 1.1//EN"
  "http://www.w3.org/Graphics/SVG/1.1/DTD/svg11.dtd">
<!-- Created with matplotlib (https://matplotlib.org/) -->
<svg height="432pt" version="1.1" viewBox="0 0 648 432" width="648pt" xmlns="http://www.w3.org/2000/svg" xmlns:xlink="http://www.w3.org/1999/xlink">
 <defs>
  <style type="text/css">
*{stroke-linecap:butt;stroke-linejoin:round;}
  </style>
 </defs>
 <g id="figure_1">
  <g id="patch_1">
   <path d="M 0 432 
L 648 432 
L 648 0 
L 0 0 
z
" style="fill:#ffffff;"/>
  </g>
  <g id="axes_1">
   <g id="patch_2">
    <path d="M 48.62 383.38 
L 632.16 383.38 
L 632.16 25.49625 
L 48.62 25.49625 
z
" style="fill:#eaeaf2;"/>
   </g>
   <g id="matplotlib.axis_1">
    <g id="xtick_1">
     <g id="line2d_1">
      <path clip-path="url(#p5a4d69ea09)" d="M 48.62 383.38 
L 48.62 25.49625 
" style="fill:none;stroke:#ffffff;stroke-linecap:round;"/>
     </g>
     <g id="line2d_2"/>
     <g id="text_1">
      <!-- 80 -->
      <defs>
       <path d="M 17.671875 38.8125 
Q 12.203125 40.828125 9.5625 44.53125 
Q 6.9375 48.25 6.9375 53.421875 
Q 6.9375 61.234375 12.546875 66.546875 
Q 18.171875 71.875 27.484375 71.875 
Q 36.859375 71.875 42.578125 66.421875 
Q 48.296875 60.984375 48.296875 53.171875 
Q 48.296875 48.1875 45.671875 44.5 
Q 43.0625 40.828125 37.75 38.8125 
Q 44.34375 36.671875 47.78125 31.875 
Q 51.21875 27.09375 51.21875 20.453125 
Q 51.21875 11.28125 44.71875 5.03125 
Q 38.234375 -1.21875 27.640625 -1.21875 
Q 17.046875 -1.21875 10.546875 5.046875 
Q 4.046875 11.328125 4.046875 20.703125 
Q 4.046875 27.6875 7.59375 32.390625 
Q 11.140625 37.109375 17.671875 38.8125 
z
M 15.921875 53.71875 
Q 15.921875 48.640625 19.1875 45.40625 
Q 22.46875 42.1875 27.6875 42.1875 
Q 32.765625 42.1875 36.015625 45.375 
Q 39.265625 48.578125 39.265625 53.21875 
Q 39.265625 58.0625 35.90625 61.359375 
Q 32.5625 64.65625 27.59375 64.65625 
Q 22.5625 64.65625 19.234375 61.421875 
Q 15.921875 58.203125 15.921875 53.71875 
z
M 13.09375 20.65625 
Q 13.09375 16.890625 14.875 13.375 
Q 16.65625 9.859375 20.171875 7.921875 
Q 23.6875 6 27.734375 6 
Q 34.03125 6 38.125 10.046875 
Q 42.234375 14.109375 42.234375 20.359375 
Q 42.234375 26.703125 38.015625 30.859375 
Q 33.796875 35.015625 27.4375 35.015625 
Q 21.234375 35.015625 17.15625 30.90625 
Q 13.09375 26.8125 13.09375 20.65625 
z
" id="ArialMT-56"/>
       <path d="M 4.15625 35.296875 
Q 4.15625 48 6.765625 55.734375 
Q 9.375 63.484375 14.515625 67.671875 
Q 19.671875 71.875 27.484375 71.875 
Q 33.25 71.875 37.59375 69.546875 
Q 41.9375 67.234375 44.765625 62.859375 
Q 47.609375 58.5 49.21875 52.21875 
Q 50.828125 45.953125 50.828125 35.296875 
Q 50.828125 22.703125 48.234375 14.96875 
Q 45.65625 7.234375 40.5 3 
Q 35.359375 -1.21875 27.484375 -1.21875 
Q 17.140625 -1.21875 11.234375 6.203125 
Q 4.15625 15.140625 4.15625 35.296875 
z
M 13.1875 35.296875 
Q 13.1875 17.671875 17.3125 11.828125 
Q 21.4375 6 27.484375 6 
Q 33.546875 6 37.671875 11.859375 
Q 41.796875 17.71875 41.796875 35.296875 
Q 41.796875 52.984375 37.671875 58.78125 
Q 33.546875 64.59375 27.390625 64.59375 
Q 21.34375 64.59375 17.71875 59.46875 
Q 13.1875 52.9375 13.1875 35.296875 
z
" id="ArialMT-48"/>
      </defs>
      <g style="fill:#262626;" transform="translate(51.205156 401.501875)rotate(-90)scale(0.1 -0.1)">
       <use xlink:href="#ArialMT-56"/>
       <use x="55.615234" xlink:href="#ArialMT-48"/>
      </g>
     </g>
    </g>
    <g id="xtick_2">
     <g id="line2d_3">
      <path clip-path="url(#p5a4d69ea09)" d="M 65.292571 383.38 
L 65.292571 25.49625 
" style="fill:none;stroke:#ffffff;stroke-linecap:round;"/>
     </g>
     <g id="line2d_4"/>
     <g id="text_2">
      <!-- 84 -->
      <defs>
       <path d="M 32.328125 0 
L 32.328125 17.140625 
L 1.265625 17.140625 
L 1.265625 25.203125 
L 33.9375 71.578125 
L 41.109375 71.578125 
L 41.109375 25.203125 
L 50.78125 25.203125 
L 50.78125 17.140625 
L 41.109375 17.140625 
L 41.109375 0 
z
M 32.328125 25.203125 
L 32.328125 57.46875 
L 9.90625 25.203125 
z
" id="ArialMT-52"/>
      </defs>
      <g style="fill:#262626;" transform="translate(67.877728 401.501875)rotate(-90)scale(0.1 -0.1)">
       <use xlink:href="#ArialMT-56"/>
       <use x="55.615234" xlink:href="#ArialMT-52"/>
      </g>
     </g>
    </g>
    <g id="xtick_3">
     <g id="line2d_5">
      <path clip-path="url(#p5a4d69ea09)" d="M 81.965143 383.38 
L 81.965143 25.49625 
" style="fill:none;stroke:#ffffff;stroke-linecap:round;"/>
     </g>
     <g id="line2d_6"/>
     <g id="text_3">
      <!-- 88 -->
      <g style="fill:#262626;" transform="translate(84.550299 401.501875)rotate(-90)scale(0.1 -0.1)">
       <use xlink:href="#ArialMT-56"/>
       <use x="55.615234" xlink:href="#ArialMT-56"/>
      </g>
     </g>
    </g>
    <g id="xtick_4">
     <g id="line2d_7">
      <path clip-path="url(#p5a4d69ea09)" d="M 98.637714 383.38 
L 98.637714 25.49625 
" style="fill:none;stroke:#ffffff;stroke-linecap:round;"/>
     </g>
     <g id="line2d_8"/>
     <g id="text_4">
      <!-- 92 -->
      <defs>
       <path d="M 5.46875 16.546875 
L 13.921875 17.328125 
Q 14.984375 11.375 18.015625 8.6875 
Q 21.046875 6 25.78125 6 
Q 29.828125 6 32.875 7.859375 
Q 35.9375 9.71875 37.890625 12.8125 
Q 39.84375 15.921875 41.15625 21.1875 
Q 42.484375 26.46875 42.484375 31.9375 
Q 42.484375 32.515625 42.4375 33.6875 
Q 39.796875 29.5 35.234375 26.875 
Q 30.671875 24.265625 25.34375 24.265625 
Q 16.453125 24.265625 10.296875 30.703125 
Q 4.15625 37.15625 4.15625 47.703125 
Q 4.15625 58.59375 10.578125 65.234375 
Q 17 71.875 26.65625 71.875 
Q 33.640625 71.875 39.421875 68.109375 
Q 45.21875 64.359375 48.21875 57.390625 
Q 51.21875 50.4375 51.21875 37.25 
Q 51.21875 23.53125 48.234375 15.40625 
Q 45.265625 7.28125 39.375 3.03125 
Q 33.5 -1.21875 25.59375 -1.21875 
Q 17.1875 -1.21875 11.859375 3.4375 
Q 6.546875 8.109375 5.46875 16.546875 
z
M 41.453125 48.140625 
Q 41.453125 55.71875 37.421875 60.15625 
Q 33.40625 64.59375 27.734375 64.59375 
Q 21.875 64.59375 17.53125 59.8125 
Q 13.1875 55.03125 13.1875 47.40625 
Q 13.1875 40.578125 17.3125 36.296875 
Q 21.4375 32.03125 27.484375 32.03125 
Q 33.59375 32.03125 37.515625 36.296875 
Q 41.453125 40.578125 41.453125 48.140625 
z
" id="ArialMT-57"/>
       <path d="M 50.34375 8.453125 
L 50.34375 0 
L 3.03125 0 
Q 2.9375 3.171875 4.046875 6.109375 
Q 5.859375 10.9375 9.828125 15.625 
Q 13.8125 20.3125 21.34375 26.46875 
Q 33.015625 36.03125 37.109375 41.625 
Q 41.21875 47.21875 41.21875 52.203125 
Q 41.21875 57.421875 37.46875 61 
Q 33.734375 64.59375 27.734375 64.59375 
Q 21.390625 64.59375 17.578125 60.78125 
Q 13.765625 56.984375 13.71875 50.25 
L 4.6875 51.171875 
Q 5.609375 61.28125 11.65625 66.578125 
Q 17.71875 71.875 27.9375 71.875 
Q 38.234375 71.875 44.234375 66.15625 
Q 50.25 60.453125 50.25 52 
Q 50.25 47.703125 48.484375 43.546875 
Q 46.734375 39.40625 42.65625 34.8125 
Q 38.578125 30.21875 29.109375 22.21875 
Q 21.1875 15.578125 18.9375 13.203125 
Q 16.703125 10.84375 15.234375 8.453125 
z
" id="ArialMT-50"/>
      </defs>
      <g style="fill:#262626;" transform="translate(101.222871 401.501875)rotate(-90)scale(0.1 -0.1)">
       <use xlink:href="#ArialMT-57"/>
       <use x="55.615234" xlink:href="#ArialMT-50"/>
      </g>
     </g>
    </g>
    <g id="xtick_5">
     <g id="line2d_9">
      <path clip-path="url(#p5a4d69ea09)" d="M 115.310286 383.38 
L 115.310286 25.49625 
" style="fill:none;stroke:#ffffff;stroke-linecap:round;"/>
     </g>
     <g id="line2d_10"/>
     <g id="text_5">
      <!-- 96 -->
      <defs>
       <path d="M 49.75 54.046875 
L 41.015625 53.375 
Q 39.84375 58.546875 37.703125 60.890625 
Q 34.125 64.65625 28.90625 64.65625 
Q 24.703125 64.65625 21.53125 62.3125 
Q 17.390625 59.28125 14.984375 53.46875 
Q 12.59375 47.65625 12.5 36.921875 
Q 15.671875 41.75 20.265625 44.09375 
Q 24.859375 46.4375 29.890625 46.4375 
Q 38.671875 46.4375 44.84375 39.96875 
Q 51.03125 33.5 51.03125 23.25 
Q 51.03125 16.5 48.125 10.71875 
Q 45.21875 4.9375 40.140625 1.859375 
Q 35.0625 -1.21875 28.609375 -1.21875 
Q 17.625 -1.21875 10.6875 6.859375 
Q 3.765625 14.9375 3.765625 33.5 
Q 3.765625 54.25 11.421875 63.671875 
Q 18.109375 71.875 29.4375 71.875 
Q 37.890625 71.875 43.28125 67.140625 
Q 48.6875 62.40625 49.75 54.046875 
z
M 13.875 23.1875 
Q 13.875 18.65625 15.796875 14.5 
Q 17.71875 10.359375 21.1875 8.171875 
Q 24.65625 6 28.46875 6 
Q 34.03125 6 38.03125 10.484375 
Q 42.046875 14.984375 42.046875 22.703125 
Q 42.046875 30.125 38.078125 34.390625 
Q 34.125 38.671875 28.125 38.671875 
Q 22.171875 38.671875 18.015625 34.390625 
Q 13.875 30.125 13.875 23.1875 
z
" id="ArialMT-54"/>
      </defs>
      <g style="fill:#262626;" transform="translate(117.895442 401.501875)rotate(-90)scale(0.1 -0.1)">
       <use xlink:href="#ArialMT-57"/>
       <use x="55.615234" xlink:href="#ArialMT-54"/>
      </g>
     </g>
    </g>
    <g id="xtick_6">
     <g id="line2d_11">
      <path clip-path="url(#p5a4d69ea09)" d="M 131.982857 383.38 
L 131.982857 25.49625 
" style="fill:none;stroke:#ffffff;stroke-linecap:round;"/>
     </g>
     <g id="line2d_12"/>
     <g id="text_6">
      <!-- 100 -->
      <defs>
       <path d="M 37.25 0 
L 28.46875 0 
L 28.46875 56 
Q 25.296875 52.984375 20.140625 49.953125 
Q 14.984375 46.921875 10.890625 45.40625 
L 10.890625 53.90625 
Q 18.265625 57.375 23.78125 62.296875 
Q 29.296875 67.234375 31.59375 71.875 
L 37.25 71.875 
z
" id="ArialMT-49"/>
      </defs>
      <g style="fill:#262626;" transform="translate(134.568013 407.062813)rotate(-90)scale(0.1 -0.1)">
       <use xlink:href="#ArialMT-49"/>
       <use x="55.615234" xlink:href="#ArialMT-48"/>
       <use x="111.230469" xlink:href="#ArialMT-48"/>
      </g>
     </g>
    </g>
    <g id="xtick_7">
     <g id="line2d_13">
      <path clip-path="url(#p5a4d69ea09)" d="M 148.655429 383.38 
L 148.655429 25.49625 
" style="fill:none;stroke:#ffffff;stroke-linecap:round;"/>
     </g>
     <g id="line2d_14"/>
     <g id="text_7">
      <!-- 104 -->
      <g style="fill:#262626;" transform="translate(151.240585 407.062813)rotate(-90)scale(0.1 -0.1)">
       <use xlink:href="#ArialMT-49"/>
       <use x="55.615234" xlink:href="#ArialMT-48"/>
       <use x="111.230469" xlink:href="#ArialMT-52"/>
      </g>
     </g>
    </g>
    <g id="xtick_8">
     <g id="line2d_15">
      <path clip-path="url(#p5a4d69ea09)" d="M 165.328 383.38 
L 165.328 25.49625 
" style="fill:none;stroke:#ffffff;stroke-linecap:round;"/>
     </g>
     <g id="line2d_16"/>
     <g id="text_8">
      <!-- 108 -->
      <g style="fill:#262626;" transform="translate(167.913156 407.062813)rotate(-90)scale(0.1 -0.1)">
       <use xlink:href="#ArialMT-49"/>
       <use x="55.615234" xlink:href="#ArialMT-48"/>
       <use x="111.230469" xlink:href="#ArialMT-56"/>
      </g>
     </g>
    </g>
    <g id="xtick_9">
     <g id="line2d_17">
      <path clip-path="url(#p5a4d69ea09)" d="M 182.000571 383.38 
L 182.000571 25.49625 
" style="fill:none;stroke:#ffffff;stroke-linecap:round;"/>
     </g>
     <g id="line2d_18"/>
     <g id="text_9">
      <!-- 112 -->
      <g style="fill:#262626;" transform="translate(184.585728 406.325312)rotate(-90)scale(0.1 -0.1)">
       <use xlink:href="#ArialMT-49"/>
       <use x="48.240234" xlink:href="#ArialMT-49"/>
       <use x="103.855469" xlink:href="#ArialMT-50"/>
      </g>
     </g>
    </g>
    <g id="xtick_10">
     <g id="line2d_19">
      <path clip-path="url(#p5a4d69ea09)" d="M 198.673143 383.38 
L 198.673143 25.49625 
" style="fill:none;stroke:#ffffff;stroke-linecap:round;"/>
     </g>
     <g id="line2d_20"/>
     <g id="text_10">
      <!-- 116 -->
      <g style="fill:#262626;" transform="translate(201.258299 406.325312)rotate(-90)scale(0.1 -0.1)">
       <use xlink:href="#ArialMT-49"/>
       <use x="48.240234" xlink:href="#ArialMT-49"/>
       <use x="103.855469" xlink:href="#ArialMT-54"/>
      </g>
     </g>
    </g>
    <g id="xtick_11">
     <g id="line2d_21">
      <path clip-path="url(#p5a4d69ea09)" d="M 215.345714 383.38 
L 215.345714 25.49625 
" style="fill:none;stroke:#ffffff;stroke-linecap:round;"/>
     </g>
     <g id="line2d_22"/>
     <g id="text_11">
      <!-- 120 -->
      <g style="fill:#262626;" transform="translate(217.930871 407.062813)rotate(-90)scale(0.1 -0.1)">
       <use xlink:href="#ArialMT-49"/>
       <use x="55.615234" xlink:href="#ArialMT-50"/>
       <use x="111.230469" xlink:href="#ArialMT-48"/>
      </g>
     </g>
    </g>
    <g id="xtick_12">
     <g id="line2d_23">
      <path clip-path="url(#p5a4d69ea09)" d="M 232.018286 383.38 
L 232.018286 25.49625 
" style="fill:none;stroke:#ffffff;stroke-linecap:round;"/>
     </g>
     <g id="line2d_24"/>
     <g id="text_12">
      <!-- 124 -->
      <g style="fill:#262626;" transform="translate(234.603442 407.062813)rotate(-90)scale(0.1 -0.1)">
       <use xlink:href="#ArialMT-49"/>
       <use x="55.615234" xlink:href="#ArialMT-50"/>
       <use x="111.230469" xlink:href="#ArialMT-52"/>
      </g>
     </g>
    </g>
    <g id="xtick_13">
     <g id="line2d_25">
      <path clip-path="url(#p5a4d69ea09)" d="M 248.690857 383.38 
L 248.690857 25.49625 
" style="fill:none;stroke:#ffffff;stroke-linecap:round;"/>
     </g>
     <g id="line2d_26"/>
     <g id="text_13">
      <!-- 128 -->
      <g style="fill:#262626;" transform="translate(251.276013 407.062813)rotate(-90)scale(0.1 -0.1)">
       <use xlink:href="#ArialMT-49"/>
       <use x="55.615234" xlink:href="#ArialMT-50"/>
       <use x="111.230469" xlink:href="#ArialMT-56"/>
      </g>
     </g>
    </g>
    <g id="xtick_14">
     <g id="line2d_27">
      <path clip-path="url(#p5a4d69ea09)" d="M 265.363429 383.38 
L 265.363429 25.49625 
" style="fill:none;stroke:#ffffff;stroke-linecap:round;"/>
     </g>
     <g id="line2d_28"/>
     <g id="text_14">
      <!-- 132 -->
      <defs>
       <path d="M 4.203125 18.890625 
L 12.984375 20.0625 
Q 14.5 12.59375 18.140625 9.296875 
Q 21.78125 6 27 6 
Q 33.203125 6 37.46875 10.296875 
Q 41.75 14.59375 41.75 20.953125 
Q 41.75 27 37.796875 30.921875 
Q 33.84375 34.859375 27.734375 34.859375 
Q 25.25 34.859375 21.53125 33.890625 
L 22.515625 41.609375 
Q 23.390625 41.5 23.921875 41.5 
Q 29.546875 41.5 34.03125 44.421875 
Q 38.53125 47.359375 38.53125 53.46875 
Q 38.53125 58.296875 35.25 61.46875 
Q 31.984375 64.65625 26.8125 64.65625 
Q 21.6875 64.65625 18.265625 61.421875 
Q 14.84375 58.203125 13.875 51.765625 
L 5.078125 53.328125 
Q 6.6875 62.15625 12.390625 67.015625 
Q 18.109375 71.875 26.609375 71.875 
Q 32.46875 71.875 37.390625 69.359375 
Q 42.328125 66.84375 44.9375 62.5 
Q 47.5625 58.15625 47.5625 53.265625 
Q 47.5625 48.640625 45.0625 44.828125 
Q 42.578125 41.015625 37.703125 38.765625 
Q 44.046875 37.3125 47.5625 32.6875 
Q 51.078125 28.078125 51.078125 21.140625 
Q 51.078125 11.765625 44.234375 5.25 
Q 37.40625 -1.265625 26.953125 -1.265625 
Q 17.53125 -1.265625 11.296875 4.34375 
Q 5.078125 9.96875 4.203125 18.890625 
z
" id="ArialMT-51"/>
      </defs>
      <g style="fill:#262626;" transform="translate(267.948585 407.062813)rotate(-90)scale(0.1 -0.1)">
       <use xlink:href="#ArialMT-49"/>
       <use x="55.615234" xlink:href="#ArialMT-51"/>
       <use x="111.230469" xlink:href="#ArialMT-50"/>
      </g>
     </g>
    </g>
    <g id="xtick_15">
     <g id="line2d_29">
      <path clip-path="url(#p5a4d69ea09)" d="M 282.036 383.38 
L 282.036 25.49625 
" style="fill:none;stroke:#ffffff;stroke-linecap:round;"/>
     </g>
     <g id="line2d_30"/>
     <g id="text_15">
      <!-- 136 -->
      <g style="fill:#262626;" transform="translate(284.621156 407.062813)rotate(-90)scale(0.1 -0.1)">
       <use xlink:href="#ArialMT-49"/>
       <use x="55.615234" xlink:href="#ArialMT-51"/>
       <use x="111.230469" xlink:href="#ArialMT-54"/>
      </g>
     </g>
    </g>
    <g id="xtick_16">
     <g id="line2d_31">
      <path clip-path="url(#p5a4d69ea09)" d="M 298.708571 383.38 
L 298.708571 25.49625 
" style="fill:none;stroke:#ffffff;stroke-linecap:round;"/>
     </g>
     <g id="line2d_32"/>
     <g id="text_16">
      <!-- 140 -->
      <g style="fill:#262626;" transform="translate(301.293728 407.062813)rotate(-90)scale(0.1 -0.1)">
       <use xlink:href="#ArialMT-49"/>
       <use x="55.615234" xlink:href="#ArialMT-52"/>
       <use x="111.230469" xlink:href="#ArialMT-48"/>
      </g>
     </g>
    </g>
    <g id="xtick_17">
     <g id="line2d_33">
      <path clip-path="url(#p5a4d69ea09)" d="M 315.381143 383.38 
L 315.381143 25.49625 
" style="fill:none;stroke:#ffffff;stroke-linecap:round;"/>
     </g>
     <g id="line2d_34"/>
     <g id="text_17">
      <!-- 144 -->
      <g style="fill:#262626;" transform="translate(317.966299 407.062813)rotate(-90)scale(0.1 -0.1)">
       <use xlink:href="#ArialMT-49"/>
       <use x="55.615234" xlink:href="#ArialMT-52"/>
       <use x="111.230469" xlink:href="#ArialMT-52"/>
      </g>
     </g>
    </g>
    <g id="xtick_18">
     <g id="line2d_35">
      <path clip-path="url(#p5a4d69ea09)" d="M 332.053714 383.38 
L 332.053714 25.49625 
" style="fill:none;stroke:#ffffff;stroke-linecap:round;"/>
     </g>
     <g id="line2d_36"/>
     <g id="text_18">
      <!-- 148 -->
      <g style="fill:#262626;" transform="translate(334.638871 407.062813)rotate(-90)scale(0.1 -0.1)">
       <use xlink:href="#ArialMT-49"/>
       <use x="55.615234" xlink:href="#ArialMT-52"/>
       <use x="111.230469" xlink:href="#ArialMT-56"/>
      </g>
     </g>
    </g>
    <g id="xtick_19">
     <g id="line2d_37">
      <path clip-path="url(#p5a4d69ea09)" d="M 348.726286 383.38 
L 348.726286 25.49625 
" style="fill:none;stroke:#ffffff;stroke-linecap:round;"/>
     </g>
     <g id="line2d_38"/>
     <g id="text_19">
      <!-- 152 -->
      <defs>
       <path d="M 4.15625 18.75 
L 13.375 19.53125 
Q 14.40625 12.796875 18.140625 9.390625 
Q 21.875 6 27.15625 6 
Q 33.5 6 37.890625 10.78125 
Q 42.28125 15.578125 42.28125 23.484375 
Q 42.28125 31 38.0625 35.34375 
Q 33.84375 39.703125 27 39.703125 
Q 22.75 39.703125 19.328125 37.765625 
Q 15.921875 35.84375 13.96875 32.765625 
L 5.71875 33.84375 
L 12.640625 70.609375 
L 48.25 70.609375 
L 48.25 62.203125 
L 19.671875 62.203125 
L 15.828125 42.96875 
Q 22.265625 47.46875 29.34375 47.46875 
Q 38.71875 47.46875 45.15625 40.96875 
Q 51.609375 34.46875 51.609375 24.265625 
Q 51.609375 14.546875 45.953125 7.46875 
Q 39.0625 -1.21875 27.15625 -1.21875 
Q 17.390625 -1.21875 11.203125 4.25 
Q 5.03125 9.71875 4.15625 18.75 
z
" id="ArialMT-53"/>
      </defs>
      <g style="fill:#262626;" transform="translate(351.311442 407.062813)rotate(-90)scale(0.1 -0.1)">
       <use xlink:href="#ArialMT-49"/>
       <use x="55.615234" xlink:href="#ArialMT-53"/>
       <use x="111.230469" xlink:href="#ArialMT-50"/>
      </g>
     </g>
    </g>
    <g id="xtick_20">
     <g id="line2d_39">
      <path clip-path="url(#p5a4d69ea09)" d="M 365.398857 383.38 
L 365.398857 25.49625 
" style="fill:none;stroke:#ffffff;stroke-linecap:round;"/>
     </g>
     <g id="line2d_40"/>
     <g id="text_20">
      <!-- 156 -->
      <g style="fill:#262626;" transform="translate(367.984013 407.062813)rotate(-90)scale(0.1 -0.1)">
       <use xlink:href="#ArialMT-49"/>
       <use x="55.615234" xlink:href="#ArialMT-53"/>
       <use x="111.230469" xlink:href="#ArialMT-54"/>
      </g>
     </g>
    </g>
    <g id="xtick_21">
     <g id="line2d_41">
      <path clip-path="url(#p5a4d69ea09)" d="M 382.071429 383.38 
L 382.071429 25.49625 
" style="fill:none;stroke:#ffffff;stroke-linecap:round;"/>
     </g>
     <g id="line2d_42"/>
     <g id="text_21">
      <!-- 160 -->
      <g style="fill:#262626;" transform="translate(384.656585 407.062813)rotate(-90)scale(0.1 -0.1)">
       <use xlink:href="#ArialMT-49"/>
       <use x="55.615234" xlink:href="#ArialMT-54"/>
       <use x="111.230469" xlink:href="#ArialMT-48"/>
      </g>
     </g>
    </g>
    <g id="xtick_22">
     <g id="line2d_43">
      <path clip-path="url(#p5a4d69ea09)" d="M 398.744 383.38 
L 398.744 25.49625 
" style="fill:none;stroke:#ffffff;stroke-linecap:round;"/>
     </g>
     <g id="line2d_44"/>
     <g id="text_22">
      <!-- 164 -->
      <g style="fill:#262626;" transform="translate(401.329156 407.062813)rotate(-90)scale(0.1 -0.1)">
       <use xlink:href="#ArialMT-49"/>
       <use x="55.615234" xlink:href="#ArialMT-54"/>
       <use x="111.230469" xlink:href="#ArialMT-52"/>
      </g>
     </g>
    </g>
    <g id="xtick_23">
     <g id="line2d_45">
      <path clip-path="url(#p5a4d69ea09)" d="M 415.416571 383.38 
L 415.416571 25.49625 
" style="fill:none;stroke:#ffffff;stroke-linecap:round;"/>
     </g>
     <g id="line2d_46"/>
     <g id="text_23">
      <!-- 168 -->
      <g style="fill:#262626;" transform="translate(418.001728 407.062813)rotate(-90)scale(0.1 -0.1)">
       <use xlink:href="#ArialMT-49"/>
       <use x="55.615234" xlink:href="#ArialMT-54"/>
       <use x="111.230469" xlink:href="#ArialMT-56"/>
      </g>
     </g>
    </g>
    <g id="xtick_24">
     <g id="line2d_47">
      <path clip-path="url(#p5a4d69ea09)" d="M 432.089143 383.38 
L 432.089143 25.49625 
" style="fill:none;stroke:#ffffff;stroke-linecap:round;"/>
     </g>
     <g id="line2d_48"/>
     <g id="text_24">
      <!-- 172 -->
      <defs>
       <path d="M 4.734375 62.203125 
L 4.734375 70.65625 
L 51.078125 70.65625 
L 51.078125 63.8125 
Q 44.234375 56.546875 37.515625 44.484375 
Q 30.8125 32.421875 27.15625 19.671875 
Q 24.515625 10.6875 23.78125 0 
L 14.75 0 
Q 14.890625 8.453125 18.0625 20.40625 
Q 21.234375 32.375 27.171875 43.484375 
Q 33.109375 54.59375 39.796875 62.203125 
z
" id="ArialMT-55"/>
      </defs>
      <g style="fill:#262626;" transform="translate(434.674299 407.062813)rotate(-90)scale(0.1 -0.1)">
       <use xlink:href="#ArialMT-49"/>
       <use x="55.615234" xlink:href="#ArialMT-55"/>
       <use x="111.230469" xlink:href="#ArialMT-50"/>
      </g>
     </g>
    </g>
    <g id="xtick_25">
     <g id="line2d_49">
      <path clip-path="url(#p5a4d69ea09)" d="M 448.761714 383.38 
L 448.761714 25.49625 
" style="fill:none;stroke:#ffffff;stroke-linecap:round;"/>
     </g>
     <g id="line2d_50"/>
     <g id="text_25">
      <!-- 176 -->
      <g style="fill:#262626;" transform="translate(451.346871 407.062813)rotate(-90)scale(0.1 -0.1)">
       <use xlink:href="#ArialMT-49"/>
       <use x="55.615234" xlink:href="#ArialMT-55"/>
       <use x="111.230469" xlink:href="#ArialMT-54"/>
      </g>
     </g>
    </g>
    <g id="xtick_26">
     <g id="line2d_51">
      <path clip-path="url(#p5a4d69ea09)" d="M 465.434286 383.38 
L 465.434286 25.49625 
" style="fill:none;stroke:#ffffff;stroke-linecap:round;"/>
     </g>
     <g id="line2d_52"/>
     <g id="text_26">
      <!-- 180 -->
      <g style="fill:#262626;" transform="translate(468.019442 407.062813)rotate(-90)scale(0.1 -0.1)">
       <use xlink:href="#ArialMT-49"/>
       <use x="55.615234" xlink:href="#ArialMT-56"/>
       <use x="111.230469" xlink:href="#ArialMT-48"/>
      </g>
     </g>
    </g>
    <g id="xtick_27">
     <g id="line2d_53">
      <path clip-path="url(#p5a4d69ea09)" d="M 482.106857 383.38 
L 482.106857 25.49625 
" style="fill:none;stroke:#ffffff;stroke-linecap:round;"/>
     </g>
     <g id="line2d_54"/>
     <g id="text_27">
      <!-- 184 -->
      <g style="fill:#262626;" transform="translate(484.692013 407.062813)rotate(-90)scale(0.1 -0.1)">
       <use xlink:href="#ArialMT-49"/>
       <use x="55.615234" xlink:href="#ArialMT-56"/>
       <use x="111.230469" xlink:href="#ArialMT-52"/>
      </g>
     </g>
    </g>
    <g id="xtick_28">
     <g id="line2d_55">
      <path clip-path="url(#p5a4d69ea09)" d="M 498.779429 383.38 
L 498.779429 25.49625 
" style="fill:none;stroke:#ffffff;stroke-linecap:round;"/>
     </g>
     <g id="line2d_56"/>
     <g id="text_28">
      <!-- 188 -->
      <g style="fill:#262626;" transform="translate(501.364585 407.062813)rotate(-90)scale(0.1 -0.1)">
       <use xlink:href="#ArialMT-49"/>
       <use x="55.615234" xlink:href="#ArialMT-56"/>
       <use x="111.230469" xlink:href="#ArialMT-56"/>
      </g>
     </g>
    </g>
    <g id="xtick_29">
     <g id="line2d_57">
      <path clip-path="url(#p5a4d69ea09)" d="M 515.452 383.38 
L 515.452 25.49625 
" style="fill:none;stroke:#ffffff;stroke-linecap:round;"/>
     </g>
     <g id="line2d_58"/>
     <g id="text_29">
      <!-- 192 -->
      <g style="fill:#262626;" transform="translate(518.037156 407.062813)rotate(-90)scale(0.1 -0.1)">
       <use xlink:href="#ArialMT-49"/>
       <use x="55.615234" xlink:href="#ArialMT-57"/>
       <use x="111.230469" xlink:href="#ArialMT-50"/>
      </g>
     </g>
    </g>
    <g id="xtick_30">
     <g id="line2d_59">
      <path clip-path="url(#p5a4d69ea09)" d="M 532.124571 383.38 
L 532.124571 25.49625 
" style="fill:none;stroke:#ffffff;stroke-linecap:round;"/>
     </g>
     <g id="line2d_60"/>
     <g id="text_30">
      <!-- 196 -->
      <g style="fill:#262626;" transform="translate(534.709728 407.062813)rotate(-90)scale(0.1 -0.1)">
       <use xlink:href="#ArialMT-49"/>
       <use x="55.615234" xlink:href="#ArialMT-57"/>
       <use x="111.230469" xlink:href="#ArialMT-54"/>
      </g>
     </g>
    </g>
    <g id="xtick_31">
     <g id="line2d_61">
      <path clip-path="url(#p5a4d69ea09)" d="M 548.797143 383.38 
L 548.797143 25.49625 
" style="fill:none;stroke:#ffffff;stroke-linecap:round;"/>
     </g>
     <g id="line2d_62"/>
     <g id="text_31">
      <!-- 200 -->
      <g style="fill:#262626;" transform="translate(551.382299 407.062813)rotate(-90)scale(0.1 -0.1)">
       <use xlink:href="#ArialMT-50"/>
       <use x="55.615234" xlink:href="#ArialMT-48"/>
       <use x="111.230469" xlink:href="#ArialMT-48"/>
      </g>
     </g>
    </g>
    <g id="xtick_32">
     <g id="line2d_63">
      <path clip-path="url(#p5a4d69ea09)" d="M 565.469714 383.38 
L 565.469714 25.49625 
" style="fill:none;stroke:#ffffff;stroke-linecap:round;"/>
     </g>
     <g id="line2d_64"/>
     <g id="text_32">
      <!-- 204 -->
      <g style="fill:#262626;" transform="translate(568.054871 407.062813)rotate(-90)scale(0.1 -0.1)">
       <use xlink:href="#ArialMT-50"/>
       <use x="55.615234" xlink:href="#ArialMT-48"/>
       <use x="111.230469" xlink:href="#ArialMT-52"/>
      </g>
     </g>
    </g>
    <g id="xtick_33">
     <g id="line2d_65">
      <path clip-path="url(#p5a4d69ea09)" d="M 582.142286 383.38 
L 582.142286 25.49625 
" style="fill:none;stroke:#ffffff;stroke-linecap:round;"/>
     </g>
     <g id="line2d_66"/>
     <g id="text_33">
      <!-- 208 -->
      <g style="fill:#262626;" transform="translate(584.727442 407.062813)rotate(-90)scale(0.1 -0.1)">
       <use xlink:href="#ArialMT-50"/>
       <use x="55.615234" xlink:href="#ArialMT-48"/>
       <use x="111.230469" xlink:href="#ArialMT-56"/>
      </g>
     </g>
    </g>
    <g id="xtick_34">
     <g id="line2d_67">
      <path clip-path="url(#p5a4d69ea09)" d="M 598.814857 383.38 
L 598.814857 25.49625 
" style="fill:none;stroke:#ffffff;stroke-linecap:round;"/>
     </g>
     <g id="line2d_68"/>
     <g id="text_34">
      <!-- 212 -->
      <g style="fill:#262626;" transform="translate(601.400013 407.062813)rotate(-90)scale(0.1 -0.1)">
       <use xlink:href="#ArialMT-50"/>
       <use x="55.615234" xlink:href="#ArialMT-49"/>
       <use x="111.230469" xlink:href="#ArialMT-50"/>
      </g>
     </g>
    </g>
    <g id="xtick_35">
     <g id="line2d_69">
      <path clip-path="url(#p5a4d69ea09)" d="M 615.487429 383.38 
L 615.487429 25.49625 
" style="fill:none;stroke:#ffffff;stroke-linecap:round;"/>
     </g>
     <g id="line2d_70"/>
     <g id="text_35">
      <!-- 216 -->
      <g style="fill:#262626;" transform="translate(618.072585 407.062813)rotate(-90)scale(0.1 -0.1)">
       <use xlink:href="#ArialMT-50"/>
       <use x="55.615234" xlink:href="#ArialMT-49"/>
       <use x="111.230469" xlink:href="#ArialMT-54"/>
      </g>
     </g>
    </g>
    <g id="xtick_36">
     <g id="line2d_71">
      <path clip-path="url(#p5a4d69ea09)" d="M 632.16 383.38 
L 632.16 25.49625 
" style="fill:none;stroke:#ffffff;stroke-linecap:round;"/>
     </g>
     <g id="line2d_72"/>
     <g id="text_36">
      <!-- 220 -->
      <g style="fill:#262626;" transform="translate(634.745156 407.062813)rotate(-90)scale(0.1 -0.1)">
       <use xlink:href="#ArialMT-50"/>
       <use x="55.615234" xlink:href="#ArialMT-50"/>
       <use x="111.230469" xlink:href="#ArialMT-48"/>
      </g>
     </g>
    </g>
    <g id="text_37">
     <!-- Filler Instructions -->
     <defs>
      <path d="M 8.203125 0 
L 8.203125 71.578125 
L 56.5 71.578125 
L 56.5 63.140625 
L 17.671875 63.140625 
L 17.671875 40.96875 
L 51.265625 40.96875 
L 51.265625 32.515625 
L 17.671875 32.515625 
L 17.671875 0 
z
" id="ArialMT-70"/>
      <path d="M 6.640625 61.46875 
L 6.640625 71.578125 
L 15.4375 71.578125 
L 15.4375 61.46875 
z
M 6.640625 0 
L 6.640625 51.859375 
L 15.4375 51.859375 
L 15.4375 0 
z
" id="ArialMT-105"/>
      <path d="M 6.390625 0 
L 6.390625 71.578125 
L 15.1875 71.578125 
L 15.1875 0 
z
" id="ArialMT-108"/>
      <path d="M 42.09375 16.703125 
L 51.171875 15.578125 
Q 49.03125 7.625 43.21875 3.21875 
Q 37.40625 -1.171875 28.375 -1.171875 
Q 17 -1.171875 10.328125 5.828125 
Q 3.65625 12.84375 3.65625 25.484375 
Q 3.65625 38.578125 10.390625 45.796875 
Q 17.140625 53.03125 27.875 53.03125 
Q 38.28125 53.03125 44.875 45.953125 
Q 51.46875 38.875 51.46875 26.03125 
Q 51.46875 25.25 51.421875 23.6875 
L 12.75 23.6875 
Q 13.234375 15.140625 17.578125 10.59375 
Q 21.921875 6.0625 28.421875 6.0625 
Q 33.25 6.0625 36.671875 8.59375 
Q 40.09375 11.140625 42.09375 16.703125 
z
M 13.234375 30.90625 
L 42.1875 30.90625 
Q 41.609375 37.453125 38.875 40.71875 
Q 34.671875 45.796875 27.984375 45.796875 
Q 21.921875 45.796875 17.796875 41.75 
Q 13.671875 37.703125 13.234375 30.90625 
z
" id="ArialMT-101"/>
      <path d="M 6.5 0 
L 6.5 51.859375 
L 14.40625 51.859375 
L 14.40625 44 
Q 17.4375 49.515625 20 51.265625 
Q 22.5625 53.03125 25.640625 53.03125 
Q 30.078125 53.03125 34.671875 50.203125 
L 31.640625 42.046875 
Q 28.421875 43.953125 25.203125 43.953125 
Q 22.3125 43.953125 20.015625 42.21875 
Q 17.71875 40.484375 16.75 37.40625 
Q 15.28125 32.71875 15.28125 27.15625 
L 15.28125 0 
z
" id="ArialMT-114"/>
      <path id="ArialMT-32"/>
      <path d="M 9.328125 0 
L 9.328125 71.578125 
L 18.796875 71.578125 
L 18.796875 0 
z
" id="ArialMT-73"/>
      <path d="M 6.59375 0 
L 6.59375 51.859375 
L 14.5 51.859375 
L 14.5 44.484375 
Q 20.21875 53.03125 31 53.03125 
Q 35.6875 53.03125 39.625 51.34375 
Q 43.5625 49.65625 45.515625 46.921875 
Q 47.46875 44.1875 48.25 40.4375 
Q 48.734375 37.984375 48.734375 31.890625 
L 48.734375 0 
L 39.9375 0 
L 39.9375 31.546875 
Q 39.9375 36.921875 38.90625 39.578125 
Q 37.890625 42.234375 35.28125 43.8125 
Q 32.671875 45.40625 29.15625 45.40625 
Q 23.53125 45.40625 19.453125 41.84375 
Q 15.375 38.28125 15.375 28.328125 
L 15.375 0 
z
" id="ArialMT-110"/>
      <path d="M 3.078125 15.484375 
L 11.765625 16.84375 
Q 12.5 11.625 15.84375 8.84375 
Q 19.1875 6.0625 25.203125 6.0625 
Q 31.25 6.0625 34.171875 8.515625 
Q 37.109375 10.984375 37.109375 14.3125 
Q 37.109375 17.28125 34.515625 19 
Q 32.71875 20.171875 25.53125 21.96875 
Q 15.875 24.421875 12.140625 26.203125 
Q 8.40625 27.984375 6.46875 31.125 
Q 4.546875 34.28125 4.546875 38.09375 
Q 4.546875 41.546875 6.125 44.5 
Q 7.71875 47.46875 10.453125 49.421875 
Q 12.5 50.921875 16.03125 51.96875 
Q 19.578125 53.03125 23.640625 53.03125 
Q 29.734375 53.03125 34.34375 51.265625 
Q 38.96875 49.515625 41.15625 46.5 
Q 43.359375 43.5 44.1875 38.484375 
L 35.59375 37.3125 
Q 35.015625 41.3125 32.203125 43.546875 
Q 29.390625 45.796875 24.265625 45.796875 
Q 18.21875 45.796875 15.625 43.796875 
Q 13.03125 41.796875 13.03125 39.109375 
Q 13.03125 37.40625 14.109375 36.03125 
Q 15.1875 34.625 17.484375 33.6875 
Q 18.796875 33.203125 25.25 31.453125 
Q 34.578125 28.953125 38.25 27.359375 
Q 41.9375 25.78125 44.03125 22.75 
Q 46.140625 19.734375 46.140625 15.234375 
Q 46.140625 10.84375 43.578125 6.953125 
Q 41.015625 3.078125 36.171875 0.953125 
Q 31.34375 -1.171875 25.25 -1.171875 
Q 15.140625 -1.171875 9.84375 3.03125 
Q 4.546875 7.234375 3.078125 15.484375 
z
" id="ArialMT-115"/>
      <path d="M 25.78125 7.859375 
L 27.046875 0.09375 
Q 23.34375 -0.6875 20.40625 -0.6875 
Q 15.625 -0.6875 12.984375 0.828125 
Q 10.359375 2.34375 9.28125 4.8125 
Q 8.203125 7.28125 8.203125 15.1875 
L 8.203125 45.015625 
L 1.765625 45.015625 
L 1.765625 51.859375 
L 8.203125 51.859375 
L 8.203125 64.703125 
L 16.9375 69.96875 
L 16.9375 51.859375 
L 25.78125 51.859375 
L 25.78125 45.015625 
L 16.9375 45.015625 
L 16.9375 14.703125 
Q 16.9375 10.9375 17.40625 9.859375 
Q 17.875 8.796875 18.921875 8.15625 
Q 19.96875 7.515625 21.921875 7.515625 
Q 23.390625 7.515625 25.78125 7.859375 
z
" id="ArialMT-116"/>
      <path d="M 40.578125 0 
L 40.578125 7.625 
Q 34.515625 -1.171875 24.125 -1.171875 
Q 19.53125 -1.171875 15.546875 0.578125 
Q 11.578125 2.34375 9.640625 5 
Q 7.71875 7.671875 6.9375 11.53125 
Q 6.390625 14.109375 6.390625 19.734375 
L 6.390625 51.859375 
L 15.1875 51.859375 
L 15.1875 23.09375 
Q 15.1875 16.21875 15.71875 13.8125 
Q 16.546875 10.359375 19.234375 8.375 
Q 21.921875 6.390625 25.875 6.390625 
Q 29.828125 6.390625 33.296875 8.421875 
Q 36.765625 10.453125 38.203125 13.9375 
Q 39.65625 17.4375 39.65625 24.078125 
L 39.65625 51.859375 
L 48.4375 51.859375 
L 48.4375 0 
z
" id="ArialMT-117"/>
      <path d="M 40.4375 19 
L 49.078125 17.875 
Q 47.65625 8.9375 41.8125 3.875 
Q 35.984375 -1.171875 27.484375 -1.171875 
Q 16.84375 -1.171875 10.375 5.78125 
Q 3.90625 12.75 3.90625 25.734375 
Q 3.90625 34.125 6.6875 40.421875 
Q 9.46875 46.734375 15.15625 49.875 
Q 20.84375 53.03125 27.546875 53.03125 
Q 35.984375 53.03125 41.359375 48.75 
Q 46.734375 44.484375 48.25 36.625 
L 39.703125 35.296875 
Q 38.484375 40.53125 35.375 43.15625 
Q 32.28125 45.796875 27.875 45.796875 
Q 21.234375 45.796875 17.078125 41.03125 
Q 12.9375 36.28125 12.9375 25.984375 
Q 12.9375 15.53125 16.9375 10.796875 
Q 20.953125 6.0625 27.390625 6.0625 
Q 32.5625 6.0625 36.03125 9.234375 
Q 39.5 12.40625 40.4375 19 
z
" id="ArialMT-99"/>
      <path d="M 3.328125 25.921875 
Q 3.328125 40.328125 11.328125 47.265625 
Q 18.015625 53.03125 27.640625 53.03125 
Q 38.328125 53.03125 45.109375 46.015625 
Q 51.90625 39.015625 51.90625 26.65625 
Q 51.90625 16.65625 48.90625 10.90625 
Q 45.90625 5.171875 40.15625 2 
Q 34.421875 -1.171875 27.640625 -1.171875 
Q 16.75 -1.171875 10.03125 5.8125 
Q 3.328125 12.796875 3.328125 25.921875 
z
M 12.359375 25.921875 
Q 12.359375 15.96875 16.703125 11.015625 
Q 21.046875 6.0625 27.640625 6.0625 
Q 34.1875 6.0625 38.53125 11.03125 
Q 42.875 16.015625 42.875 26.21875 
Q 42.875 35.84375 38.5 40.796875 
Q 34.125 45.75 27.640625 45.75 
Q 21.046875 45.75 16.703125 40.8125 
Q 12.359375 35.890625 12.359375 25.921875 
z
" id="ArialMT-111"/>
     </defs>
     <g style="fill:#262626;" transform="translate(298.825469 418.936406)scale(0.11 -0.11)">
      <use xlink:href="#ArialMT-70"/>
      <use x="61.083984" xlink:href="#ArialMT-105"/>
      <use x="83.300781" xlink:href="#ArialMT-108"/>
      <use x="105.517578" xlink:href="#ArialMT-108"/>
      <use x="127.734375" xlink:href="#ArialMT-101"/>
      <use x="183.349609" xlink:href="#ArialMT-114"/>
      <use x="216.650391" xlink:href="#ArialMT-32"/>
      <use x="244.433594" xlink:href="#ArialMT-73"/>
      <use x="272.216797" xlink:href="#ArialMT-110"/>
      <use x="327.832031" xlink:href="#ArialMT-115"/>
      <use x="377.832031" xlink:href="#ArialMT-116"/>
      <use x="405.615234" xlink:href="#ArialMT-114"/>
      <use x="438.916016" xlink:href="#ArialMT-117"/>
      <use x="494.53125" xlink:href="#ArialMT-99"/>
      <use x="544.53125" xlink:href="#ArialMT-116"/>
      <use x="572.314453" xlink:href="#ArialMT-105"/>
      <use x="594.53125" xlink:href="#ArialMT-111"/>
      <use x="650.146484" xlink:href="#ArialMT-110"/>
      <use x="705.761719" xlink:href="#ArialMT-115"/>
     </g>
    </g>
   </g>
   <g id="matplotlib.axis_2">
    <g id="ytick_1">
     <g id="line2d_73">
      <path clip-path="url(#p5a4d69ea09)" d="M 48.62 373.03099 
L 632.16 373.03099 
" style="fill:none;stroke:#ffffff;stroke-linecap:round;"/>
     </g>
     <g id="line2d_74"/>
     <g id="text_38">
      <!-- 180 -->
      <g style="fill:#262626;" transform="translate(24.937188 376.609896)scale(0.1 -0.1)">
       <use xlink:href="#ArialMT-49"/>
       <use x="55.615234" xlink:href="#ArialMT-56"/>
       <use x="111.230469" xlink:href="#ArialMT-48"/>
      </g>
     </g>
    </g>
    <g id="ytick_2">
     <g id="line2d_75">
      <path clip-path="url(#p5a4d69ea09)" d="M 48.62 331.787552 
L 632.16 331.787552 
" style="fill:none;stroke:#ffffff;stroke-linecap:round;"/>
     </g>
     <g id="line2d_76"/>
     <g id="text_39">
      <!-- 200 -->
      <g style="fill:#262626;" transform="translate(24.937188 335.366458)scale(0.1 -0.1)">
       <use xlink:href="#ArialMT-50"/>
       <use x="55.615234" xlink:href="#ArialMT-48"/>
       <use x="111.230469" xlink:href="#ArialMT-48"/>
      </g>
     </g>
    </g>
    <g id="ytick_3">
     <g id="line2d_77">
      <path clip-path="url(#p5a4d69ea09)" d="M 48.62 290.544113 
L 632.16 290.544113 
" style="fill:none;stroke:#ffffff;stroke-linecap:round;"/>
     </g>
     <g id="line2d_78"/>
     <g id="text_40">
      <!-- 220 -->
      <g style="fill:#262626;" transform="translate(24.937188 294.12302)scale(0.1 -0.1)">
       <use xlink:href="#ArialMT-50"/>
       <use x="55.615234" xlink:href="#ArialMT-50"/>
       <use x="111.230469" xlink:href="#ArialMT-48"/>
      </g>
     </g>
    </g>
    <g id="ytick_4">
     <g id="line2d_79">
      <path clip-path="url(#p5a4d69ea09)" d="M 48.62 249.300675 
L 632.16 249.300675 
" style="fill:none;stroke:#ffffff;stroke-linecap:round;"/>
     </g>
     <g id="line2d_80"/>
     <g id="text_41">
      <!-- 240 -->
      <g style="fill:#262626;" transform="translate(24.937188 252.879581)scale(0.1 -0.1)">
       <use xlink:href="#ArialMT-50"/>
       <use x="55.615234" xlink:href="#ArialMT-52"/>
       <use x="111.230469" xlink:href="#ArialMT-48"/>
      </g>
     </g>
    </g>
    <g id="ytick_5">
     <g id="line2d_81">
      <path clip-path="url(#p5a4d69ea09)" d="M 48.62 208.057237 
L 632.16 208.057237 
" style="fill:none;stroke:#ffffff;stroke-linecap:round;"/>
     </g>
     <g id="line2d_82"/>
     <g id="text_42">
      <!-- 260 -->
      <g style="fill:#262626;" transform="translate(24.937188 211.636143)scale(0.1 -0.1)">
       <use xlink:href="#ArialMT-50"/>
       <use x="55.615234" xlink:href="#ArialMT-54"/>
       <use x="111.230469" xlink:href="#ArialMT-48"/>
      </g>
     </g>
    </g>
    <g id="ytick_6">
     <g id="line2d_83">
      <path clip-path="url(#p5a4d69ea09)" d="M 48.62 166.813798 
L 632.16 166.813798 
" style="fill:none;stroke:#ffffff;stroke-linecap:round;"/>
     </g>
     <g id="line2d_84"/>
     <g id="text_43">
      <!-- 280 -->
      <g style="fill:#262626;" transform="translate(24.937188 170.392705)scale(0.1 -0.1)">
       <use xlink:href="#ArialMT-50"/>
       <use x="55.615234" xlink:href="#ArialMT-56"/>
       <use x="111.230469" xlink:href="#ArialMT-48"/>
      </g>
     </g>
    </g>
    <g id="ytick_7">
     <g id="line2d_85">
      <path clip-path="url(#p5a4d69ea09)" d="M 48.62 125.57036 
L 632.16 125.57036 
" style="fill:none;stroke:#ffffff;stroke-linecap:round;"/>
     </g>
     <g id="line2d_86"/>
     <g id="text_44">
      <!-- 300 -->
      <g style="fill:#262626;" transform="translate(24.937188 129.149266)scale(0.1 -0.1)">
       <use xlink:href="#ArialMT-51"/>
       <use x="55.615234" xlink:href="#ArialMT-48"/>
       <use x="111.230469" xlink:href="#ArialMT-48"/>
      </g>
     </g>
    </g>
    <g id="ytick_8">
     <g id="line2d_87">
      <path clip-path="url(#p5a4d69ea09)" d="M 48.62 84.326922 
L 632.16 84.326922 
" style="fill:none;stroke:#ffffff;stroke-linecap:round;"/>
     </g>
     <g id="line2d_88"/>
     <g id="text_45">
      <!-- 320 -->
      <g style="fill:#262626;" transform="translate(24.937188 87.905828)scale(0.1 -0.1)">
       <use xlink:href="#ArialMT-51"/>
       <use x="55.615234" xlink:href="#ArialMT-50"/>
       <use x="111.230469" xlink:href="#ArialMT-48"/>
      </g>
     </g>
    </g>
    <g id="ytick_9">
     <g id="line2d_89">
      <path clip-path="url(#p5a4d69ea09)" d="M 48.62 43.083483 
L 632.16 43.083483 
" style="fill:none;stroke:#ffffff;stroke-linecap:round;"/>
     </g>
     <g id="line2d_90"/>
     <g id="text_46">
      <!-- 340 -->
      <g style="fill:#262626;" transform="translate(24.937188 46.662389)scale(0.1 -0.1)">
       <use xlink:href="#ArialMT-51"/>
       <use x="55.615234" xlink:href="#ArialMT-52"/>
       <use x="111.230469" xlink:href="#ArialMT-48"/>
      </g>
     </g>
    </g>
    <g id="text_47">
     <!-- Cycles -->
     <defs>
      <path d="M 58.796875 25.09375 
L 68.265625 22.703125 
Q 65.28125 11.03125 57.546875 4.90625 
Q 49.8125 -1.21875 38.625 -1.21875 
Q 27.046875 -1.21875 19.796875 3.484375 
Q 12.546875 8.203125 8.765625 17.140625 
Q 4.984375 26.078125 4.984375 36.328125 
Q 4.984375 47.515625 9.25 55.828125 
Q 13.53125 64.15625 21.40625 68.46875 
Q 29.296875 72.796875 38.765625 72.796875 
Q 49.515625 72.796875 56.828125 67.328125 
Q 64.15625 61.859375 67.046875 51.953125 
L 57.71875 49.75 
Q 55.21875 57.5625 50.484375 61.125 
Q 45.75 64.703125 38.578125 64.703125 
Q 30.328125 64.703125 24.78125 60.734375 
Q 19.234375 56.78125 16.984375 50.109375 
Q 14.75 43.453125 14.75 36.375 
Q 14.75 27.25 17.40625 20.4375 
Q 20.0625 13.625 25.671875 10.25 
Q 31.296875 6.890625 37.84375 6.890625 
Q 45.796875 6.890625 51.3125 11.46875 
Q 56.84375 16.0625 58.796875 25.09375 
z
" id="ArialMT-67"/>
      <path d="M 6.203125 -19.96875 
L 5.21875 -11.71875 
Q 8.109375 -12.5 10.25 -12.5 
Q 13.1875 -12.5 14.9375 -11.515625 
Q 16.703125 -10.546875 17.828125 -8.796875 
Q 18.65625 -7.46875 20.515625 -2.25 
Q 20.75 -1.515625 21.296875 -0.09375 
L 1.609375 51.859375 
L 11.078125 51.859375 
L 21.875 21.828125 
Q 23.96875 16.109375 25.640625 9.8125 
Q 27.15625 15.875 29.25 21.625 
L 40.328125 51.859375 
L 49.125 51.859375 
L 29.390625 -0.875 
Q 26.21875 -9.421875 24.46875 -12.640625 
Q 22.125 -17 19.09375 -19.015625 
Q 16.0625 -21.046875 11.859375 -21.046875 
Q 9.328125 -21.046875 6.203125 -19.96875 
z
" id="ArialMT-121"/>
     </defs>
     <g style="fill:#262626;" transform="translate(18.622031 220.940703)rotate(-90)scale(0.11 -0.11)">
      <use xlink:href="#ArialMT-67"/>
      <use x="72.216797" xlink:href="#ArialMT-121"/>
      <use x="122.216797" xlink:href="#ArialMT-99"/>
      <use x="172.216797" xlink:href="#ArialMT-108"/>
      <use x="194.433594" xlink:href="#ArialMT-101"/>
      <use x="250.048828" xlink:href="#ArialMT-115"/>
     </g>
    </g>
   </g>
   <g id="line2d_91">
    <path clip-path="url(#p5a4d69ea09)" d="M -1 359.812468 
L 2.770429 359.812468 
L 6.938571 360.121794 
L 11.106714 360.142416 
L 15.274857 359.874333 
L 23.611143 359.70936 
L 27.779286 359.317547 
L 36.115571 358.925734 
L 40.283714 359.008221 
L 44.451857 358.946356 
L 48.62 358.492678 
L 52.788143 358.348326 
L 56.956286 358.080244 
L 61.124429 358.183352 
L 65.292571 357.812161 
L 69.460714 356.430506 
L 77.797 356.554237 
L 81.965143 356.224289 
L 86.133286 357.090401 
L 90.301429 357.090401 
L 94.469571 357.234753 
L 98.637714 356.636723 
L 102.805857 353.316627 
L 111.142143 353.213518 
L 115.310286 352.862949 
L 119.478429 353.131031 
L 123.646571 354.574552 
L 127.814714 353.151653 
L 131.982857 352.574245 
L 136.151 350.800777 
L 140.319143 350.800777 
L 144.487286 350.924507 
L 148.655429 350.264612 
L 152.823571 350.84202 
L 161.159857 350.821399 
L 165.328 350.450208 
L 173.664286 350.243991 
L 177.832429 348.9242 
L 182.000571 348.20244 
L 186.168714 347.769384 
L 190.336857 347.501302 
L 194.505 349.047931 
L 198.673143 348.779848 
L 207.009429 348.594253 
L 211.177571 348.346792 
L 215.345714 347.769384 
L 219.513857 347.418815 
L 227.850143 347.253841 
L 232.018286 345.191669 
L 236.186429 342.737685 
L 240.354571 343.459445 
L 244.522714 343.933744 
L 248.690857 343.727527 
L 257.027143 344.11934 
L 261.195286 344.181205 
L 265.363429 343.418201 
L 269.531571 343.150119 
L 273.699714 343.273849 
L 277.867857 343.150119 
L 286.204143 342.552089 
L 290.372286 343.005767 
L 294.540429 343.273849 
L 298.708571 342.737685 
L 307.044857 342.469602 
L 311.213 342.098411 
L 315.381143 341.60349 
L 319.549286 341.376651 
L 323.717429 341.438516 
L 336.221857 340.489917 
L 340.39 340.428052 
L 352.894429 339.644427 
L 361.230714 339.479453 
L 365.398857 338.819558 
L 369.567 338.468989 
L 377.903286 338.36588 
L 386.239571 337.685364 
L 390.407714 337.747229 
L 394.575857 337.52039 
L 398.744 337.025469 
L 402.912143 336.736764 
L 407.080286 336.757386 
L 415.416571 335.994383 
L 419.584714 335.416974 
L 427.921 335.252001 
L 432.089143 335.066405 
L 436.257286 334.736458 
L 440.425429 334.695214 
L 444.593571 334.365267 
L 448.761714 333.767237 
L 452.929857 333.416668 
L 457.098 333.437289 
L 461.266143 333.231072 
L 465.434286 332.715529 
L 469.602429 332.36496 
L 473.770571 332.385582 
L 482.106857 331.746308 
L 490.443143 331.560713 
L 494.611286 331.931904 
L 498.779429 330.777088 
L 502.947571 328.28186 
L 511.283857 328.261238 
L 519.620143 327.312639 
L 523.788286 327.230152 
L 527.956429 326.920826 
L 532.124571 326.48777 
L 536.292714 326.343418 
L 540.460857 326.384661 
L 544.629 326.116579 
L 548.797143 325.992849 
L 552.965286 325.456684 
L 561.301571 325.312332 
L 565.469714 325.16798 
L 569.637857 301.700464 
L 573.806 293.61675 
L 577.974143 212.367176 
L 582.142286 192.529082 
L 586.310429 114.53774 
L 590.478571 108.083142 
L 594.646714 67.478977 
L 598.814857 59.828319 
L 602.983 59.457128 
L 611.319286 59.539615 
L 619.655571 58.714746 
L 627.991857 57.085631 
L 632.16 56.322627 
L 636.328143 56.425736 
L 640.496286 52.115796 
L 644.664429 51.888957 
L 649 51.274841 
L 649 51.274841 
" style="fill:none;stroke:#4c72b0;stroke-linecap:round;stroke-width:1.75;"/>
    <defs>
     <path d="M 0 1.75 
C 0.464105 1.75 0.909265 1.565609 1.237437 1.237437 
C 1.565609 0.909265 1.75 0.464105 1.75 0 
C 1.75 -0.464105 1.565609 -0.909265 1.237437 -1.237437 
C 0.909265 -1.565609 0.464105 -1.75 0 -1.75 
C -0.464105 -1.75 -0.909265 -1.565609 -1.237437 -1.237437 
C -1.565609 -0.909265 -1.75 -0.464105 -1.75 0 
C -1.75 0.464105 -1.565609 0.909265 -1.237437 1.237437 
C -0.909265 1.565609 -0.464105 1.75 0 1.75 
z
" id="m51008ee19b"/>
    </defs>
    <g clip-path="url(#p5a4d69ea09)">
     <use style="fill:#4c72b0;" x="-1" xlink:href="#m51008ee19b" y="359.812468"/>
     <use style="fill:#4c72b0;" x="2.770429" xlink:href="#m51008ee19b" y="359.812468"/>
     <use style="fill:#4c72b0;" x="6.938571" xlink:href="#m51008ee19b" y="360.121794"/>
     <use style="fill:#4c72b0;" x="11.106714" xlink:href="#m51008ee19b" y="360.142416"/>
     <use style="fill:#4c72b0;" x="15.274857" xlink:href="#m51008ee19b" y="359.874333"/>
     <use style="fill:#4c72b0;" x="19.443" xlink:href="#m51008ee19b" y="359.750603"/>
     <use style="fill:#4c72b0;" x="23.611143" xlink:href="#m51008ee19b" y="359.70936"/>
     <use style="fill:#4c72b0;" x="27.779286" xlink:href="#m51008ee19b" y="359.317547"/>
     <use style="fill:#4c72b0;" x="31.947429" xlink:href="#m51008ee19b" y="359.070086"/>
     <use style="fill:#4c72b0;" x="36.115571" xlink:href="#m51008ee19b" y="358.925734"/>
     <use style="fill:#4c72b0;" x="40.283714" xlink:href="#m51008ee19b" y="359.008221"/>
     <use style="fill:#4c72b0;" x="44.451857" xlink:href="#m51008ee19b" y="358.946356"/>
     <use style="fill:#4c72b0;" x="48.62" xlink:href="#m51008ee19b" y="358.492678"/>
     <use style="fill:#4c72b0;" x="52.788143" xlink:href="#m51008ee19b" y="358.348326"/>
     <use style="fill:#4c72b0;" x="56.956286" xlink:href="#m51008ee19b" y="358.080244"/>
     <use style="fill:#4c72b0;" x="61.124429" xlink:href="#m51008ee19b" y="358.183352"/>
     <use style="fill:#4c72b0;" x="65.292571" xlink:href="#m51008ee19b" y="357.812161"/>
     <use style="fill:#4c72b0;" x="69.460714" xlink:href="#m51008ee19b" y="356.430506"/>
     <use style="fill:#4c72b0;" x="73.628857" xlink:href="#m51008ee19b" y="356.512993"/>
     <use style="fill:#4c72b0;" x="77.797" xlink:href="#m51008ee19b" y="356.554237"/>
     <use style="fill:#4c72b0;" x="81.965143" xlink:href="#m51008ee19b" y="356.224289"/>
     <use style="fill:#4c72b0;" x="86.133286" xlink:href="#m51008ee19b" y="357.090401"/>
     <use style="fill:#4c72b0;" x="90.301429" xlink:href="#m51008ee19b" y="357.090401"/>
     <use style="fill:#4c72b0;" x="94.469571" xlink:href="#m51008ee19b" y="357.234753"/>
     <use style="fill:#4c72b0;" x="98.637714" xlink:href="#m51008ee19b" y="356.636723"/>
     <use style="fill:#4c72b0;" x="102.805857" xlink:href="#m51008ee19b" y="353.316627"/>
     <use style="fill:#4c72b0;" x="106.974" xlink:href="#m51008ee19b" y="353.275383"/>
     <use style="fill:#4c72b0;" x="111.142143" xlink:href="#m51008ee19b" y="353.213518"/>
     <use style="fill:#4c72b0;" x="115.310286" xlink:href="#m51008ee19b" y="352.862949"/>
     <use style="fill:#4c72b0;" x="119.478429" xlink:href="#m51008ee19b" y="353.131031"/>
     <use style="fill:#4c72b0;" x="123.646571" xlink:href="#m51008ee19b" y="354.574552"/>
     <use style="fill:#4c72b0;" x="127.814714" xlink:href="#m51008ee19b" y="353.151653"/>
     <use style="fill:#4c72b0;" x="131.982857" xlink:href="#m51008ee19b" y="352.574245"/>
     <use style="fill:#4c72b0;" x="136.151" xlink:href="#m51008ee19b" y="350.800777"/>
     <use style="fill:#4c72b0;" x="140.319143" xlink:href="#m51008ee19b" y="350.800777"/>
     <use style="fill:#4c72b0;" x="144.487286" xlink:href="#m51008ee19b" y="350.924507"/>
     <use style="fill:#4c72b0;" x="148.655429" xlink:href="#m51008ee19b" y="350.264612"/>
     <use style="fill:#4c72b0;" x="152.823571" xlink:href="#m51008ee19b" y="350.84202"/>
     <use style="fill:#4c72b0;" x="156.991714" xlink:href="#m51008ee19b" y="350.883264"/>
     <use style="fill:#4c72b0;" x="161.159857" xlink:href="#m51008ee19b" y="350.821399"/>
     <use style="fill:#4c72b0;" x="165.328" xlink:href="#m51008ee19b" y="350.450208"/>
     <use style="fill:#4c72b0;" x="169.496143" xlink:href="#m51008ee19b" y="350.347099"/>
     <use style="fill:#4c72b0;" x="173.664286" xlink:href="#m51008ee19b" y="350.243991"/>
     <use style="fill:#4c72b0;" x="177.832429" xlink:href="#m51008ee19b" y="348.9242"/>
     <use style="fill:#4c72b0;" x="182.000571" xlink:href="#m51008ee19b" y="348.20244"/>
     <use style="fill:#4c72b0;" x="186.168714" xlink:href="#m51008ee19b" y="347.769384"/>
     <use style="fill:#4c72b0;" x="190.336857" xlink:href="#m51008ee19b" y="347.501302"/>
     <use style="fill:#4c72b0;" x="194.505" xlink:href="#m51008ee19b" y="349.047931"/>
     <use style="fill:#4c72b0;" x="198.673143" xlink:href="#m51008ee19b" y="348.779848"/>
     <use style="fill:#4c72b0;" x="202.841286" xlink:href="#m51008ee19b" y="348.717983"/>
     <use style="fill:#4c72b0;" x="207.009429" xlink:href="#m51008ee19b" y="348.594253"/>
     <use style="fill:#4c72b0;" x="211.177571" xlink:href="#m51008ee19b" y="348.346792"/>
     <use style="fill:#4c72b0;" x="215.345714" xlink:href="#m51008ee19b" y="347.769384"/>
     <use style="fill:#4c72b0;" x="219.513857" xlink:href="#m51008ee19b" y="347.418815"/>
     <use style="fill:#4c72b0;" x="223.682" xlink:href="#m51008ee19b" y="347.295085"/>
     <use style="fill:#4c72b0;" x="227.850143" xlink:href="#m51008ee19b" y="347.253841"/>
     <use style="fill:#4c72b0;" x="232.018286" xlink:href="#m51008ee19b" y="345.191669"/>
     <use style="fill:#4c72b0;" x="236.186429" xlink:href="#m51008ee19b" y="342.737685"/>
     <use style="fill:#4c72b0;" x="240.354571" xlink:href="#m51008ee19b" y="343.459445"/>
     <use style="fill:#4c72b0;" x="244.522714" xlink:href="#m51008ee19b" y="343.933744"/>
     <use style="fill:#4c72b0;" x="248.690857" xlink:href="#m51008ee19b" y="343.727527"/>
     <use style="fill:#4c72b0;" x="252.859" xlink:href="#m51008ee19b" y="343.933744"/>
     <use style="fill:#4c72b0;" x="257.027143" xlink:href="#m51008ee19b" y="344.11934"/>
     <use style="fill:#4c72b0;" x="261.195286" xlink:href="#m51008ee19b" y="344.181205"/>
     <use style="fill:#4c72b0;" x="265.363429" xlink:href="#m51008ee19b" y="343.418201"/>
     <use style="fill:#4c72b0;" x="269.531571" xlink:href="#m51008ee19b" y="343.150119"/>
     <use style="fill:#4c72b0;" x="273.699714" xlink:href="#m51008ee19b" y="343.273849"/>
     <use style="fill:#4c72b0;" x="277.867857" xlink:href="#m51008ee19b" y="343.150119"/>
     <use style="fill:#4c72b0;" x="282.036" xlink:href="#m51008ee19b" y="342.882037"/>
     <use style="fill:#4c72b0;" x="286.204143" xlink:href="#m51008ee19b" y="342.552089"/>
     <use style="fill:#4c72b0;" x="290.372286" xlink:href="#m51008ee19b" y="343.005767"/>
     <use style="fill:#4c72b0;" x="294.540429" xlink:href="#m51008ee19b" y="343.273849"/>
     <use style="fill:#4c72b0;" x="298.708571" xlink:href="#m51008ee19b" y="342.737685"/>
     <use style="fill:#4c72b0;" x="302.876714" xlink:href="#m51008ee19b" y="342.572711"/>
     <use style="fill:#4c72b0;" x="307.044857" xlink:href="#m51008ee19b" y="342.469602"/>
     <use style="fill:#4c72b0;" x="311.213" xlink:href="#m51008ee19b" y="342.098411"/>
     <use style="fill:#4c72b0;" x="315.381143" xlink:href="#m51008ee19b" y="341.60349"/>
     <use style="fill:#4c72b0;" x="319.549286" xlink:href="#m51008ee19b" y="341.376651"/>
     <use style="fill:#4c72b0;" x="323.717429" xlink:href="#m51008ee19b" y="341.438516"/>
     <use style="fill:#4c72b0;" x="327.885571" xlink:href="#m51008ee19b" y="341.087947"/>
     <use style="fill:#4c72b0;" x="332.053714" xlink:href="#m51008ee19b" y="340.716756"/>
     <use style="fill:#4c72b0;" x="336.221857" xlink:href="#m51008ee19b" y="340.489917"/>
     <use style="fill:#4c72b0;" x="340.39" xlink:href="#m51008ee19b" y="340.428052"/>
     <use style="fill:#4c72b0;" x="344.558143" xlink:href="#m51008ee19b" y="340.15997"/>
     <use style="fill:#4c72b0;" x="348.726286" xlink:href="#m51008ee19b" y="339.850644"/>
     <use style="fill:#4c72b0;" x="352.894429" xlink:href="#m51008ee19b" y="339.644427"/>
     <use style="fill:#4c72b0;" x="357.062571" xlink:href="#m51008ee19b" y="339.520697"/>
     <use style="fill:#4c72b0;" x="361.230714" xlink:href="#m51008ee19b" y="339.479453"/>
     <use style="fill:#4c72b0;" x="365.398857" xlink:href="#m51008ee19b" y="338.819558"/>
     <use style="fill:#4c72b0;" x="369.567" xlink:href="#m51008ee19b" y="338.468989"/>
     <use style="fill:#4c72b0;" x="373.735143" xlink:href="#m51008ee19b" y="338.36588"/>
     <use style="fill:#4c72b0;" x="377.903286" xlink:href="#m51008ee19b" y="338.36588"/>
     <use style="fill:#4c72b0;" x="382.071429" xlink:href="#m51008ee19b" y="338.015311"/>
     <use style="fill:#4c72b0;" x="386.239571" xlink:href="#m51008ee19b" y="337.685364"/>
     <use style="fill:#4c72b0;" x="390.407714" xlink:href="#m51008ee19b" y="337.747229"/>
     <use style="fill:#4c72b0;" x="394.575857" xlink:href="#m51008ee19b" y="337.52039"/>
     <use style="fill:#4c72b0;" x="398.744" xlink:href="#m51008ee19b" y="337.025469"/>
     <use style="fill:#4c72b0;" x="402.912143" xlink:href="#m51008ee19b" y="336.736764"/>
     <use style="fill:#4c72b0;" x="407.080286" xlink:href="#m51008ee19b" y="336.757386"/>
     <use style="fill:#4c72b0;" x="411.248429" xlink:href="#m51008ee19b" y="336.427439"/>
     <use style="fill:#4c72b0;" x="415.416571" xlink:href="#m51008ee19b" y="335.994383"/>
     <use style="fill:#4c72b0;" x="419.584714" xlink:href="#m51008ee19b" y="335.416974"/>
     <use style="fill:#4c72b0;" x="423.752857" xlink:href="#m51008ee19b" y="335.355109"/>
     <use style="fill:#4c72b0;" x="427.921" xlink:href="#m51008ee19b" y="335.252001"/>
     <use style="fill:#4c72b0;" x="432.089143" xlink:href="#m51008ee19b" y="335.066405"/>
     <use style="fill:#4c72b0;" x="436.257286" xlink:href="#m51008ee19b" y="334.736458"/>
     <use style="fill:#4c72b0;" x="440.425429" xlink:href="#m51008ee19b" y="334.695214"/>
     <use style="fill:#4c72b0;" x="444.593571" xlink:href="#m51008ee19b" y="334.365267"/>
     <use style="fill:#4c72b0;" x="448.761714" xlink:href="#m51008ee19b" y="333.767237"/>
     <use style="fill:#4c72b0;" x="452.929857" xlink:href="#m51008ee19b" y="333.416668"/>
     <use style="fill:#4c72b0;" x="457.098" xlink:href="#m51008ee19b" y="333.437289"/>
     <use style="fill:#4c72b0;" x="461.266143" xlink:href="#m51008ee19b" y="333.231072"/>
     <use style="fill:#4c72b0;" x="465.434286" xlink:href="#m51008ee19b" y="332.715529"/>
     <use style="fill:#4c72b0;" x="469.602429" xlink:href="#m51008ee19b" y="332.36496"/>
     <use style="fill:#4c72b0;" x="473.770571" xlink:href="#m51008ee19b" y="332.385582"/>
     <use style="fill:#4c72b0;" x="477.938714" xlink:href="#m51008ee19b" y="332.055634"/>
     <use style="fill:#4c72b0;" x="482.106857" xlink:href="#m51008ee19b" y="331.746308"/>
     <use style="fill:#4c72b0;" x="486.275" xlink:href="#m51008ee19b" y="331.705065"/>
     <use style="fill:#4c72b0;" x="490.443143" xlink:href="#m51008ee19b" y="331.560713"/>
     <use style="fill:#4c72b0;" x="494.611286" xlink:href="#m51008ee19b" y="331.931904"/>
     <use style="fill:#4c72b0;" x="498.779429" xlink:href="#m51008ee19b" y="330.777088"/>
     <use style="fill:#4c72b0;" x="502.947571" xlink:href="#m51008ee19b" y="328.28186"/>
     <use style="fill:#4c72b0;" x="507.115714" xlink:href="#m51008ee19b" y="328.261238"/>
     <use style="fill:#4c72b0;" x="511.283857" xlink:href="#m51008ee19b" y="328.261238"/>
     <use style="fill:#4c72b0;" x="515.452" xlink:href="#m51008ee19b" y="327.786938"/>
     <use style="fill:#4c72b0;" x="519.620143" xlink:href="#m51008ee19b" y="327.312639"/>
     <use style="fill:#4c72b0;" x="523.788286" xlink:href="#m51008ee19b" y="327.230152"/>
     <use style="fill:#4c72b0;" x="527.956429" xlink:href="#m51008ee19b" y="326.920826"/>
     <use style="fill:#4c72b0;" x="532.124571" xlink:href="#m51008ee19b" y="326.48777"/>
     <use style="fill:#4c72b0;" x="536.292714" xlink:href="#m51008ee19b" y="326.343418"/>
     <use style="fill:#4c72b0;" x="540.460857" xlink:href="#m51008ee19b" y="326.384661"/>
     <use style="fill:#4c72b0;" x="544.629" xlink:href="#m51008ee19b" y="326.116579"/>
     <use style="fill:#4c72b0;" x="548.797143" xlink:href="#m51008ee19b" y="325.992849"/>
     <use style="fill:#4c72b0;" x="552.965286" xlink:href="#m51008ee19b" y="325.456684"/>
     <use style="fill:#4c72b0;" x="557.133429" xlink:href="#m51008ee19b" y="325.436062"/>
     <use style="fill:#4c72b0;" x="561.301571" xlink:href="#m51008ee19b" y="325.312332"/>
     <use style="fill:#4c72b0;" x="565.469714" xlink:href="#m51008ee19b" y="325.16798"/>
     <use style="fill:#4c72b0;" x="569.637857" xlink:href="#m51008ee19b" y="301.700464"/>
     <use style="fill:#4c72b0;" x="573.806" xlink:href="#m51008ee19b" y="293.61675"/>
     <use style="fill:#4c72b0;" x="577.974143" xlink:href="#m51008ee19b" y="212.367176"/>
     <use style="fill:#4c72b0;" x="582.142286" xlink:href="#m51008ee19b" y="192.529082"/>
     <use style="fill:#4c72b0;" x="586.310429" xlink:href="#m51008ee19b" y="114.53774"/>
     <use style="fill:#4c72b0;" x="590.478571" xlink:href="#m51008ee19b" y="108.083142"/>
     <use style="fill:#4c72b0;" x="594.646714" xlink:href="#m51008ee19b" y="67.478977"/>
     <use style="fill:#4c72b0;" x="598.814857" xlink:href="#m51008ee19b" y="59.828319"/>
     <use style="fill:#4c72b0;" x="602.983" xlink:href="#m51008ee19b" y="59.457128"/>
     <use style="fill:#4c72b0;" x="607.151143" xlink:href="#m51008ee19b" y="59.457128"/>
     <use style="fill:#4c72b0;" x="611.319286" xlink:href="#m51008ee19b" y="59.539615"/>
     <use style="fill:#4c72b0;" x="615.487429" xlink:href="#m51008ee19b" y="59.168424"/>
     <use style="fill:#4c72b0;" x="619.655571" xlink:href="#m51008ee19b" y="58.714746"/>
     <use style="fill:#4c72b0;" x="623.823714" xlink:href="#m51008ee19b" y="57.869256"/>
     <use style="fill:#4c72b0;" x="627.991857" xlink:href="#m51008ee19b" y="57.085631"/>
     <use style="fill:#4c72b0;" x="632.16" xlink:href="#m51008ee19b" y="56.322627"/>
     <use style="fill:#4c72b0;" x="636.328143" xlink:href="#m51008ee19b" y="56.425736"/>
     <use style="fill:#4c72b0;" x="640.496286" xlink:href="#m51008ee19b" y="52.115796"/>
     <use style="fill:#4c72b0;" x="644.664429" xlink:href="#m51008ee19b" y="51.888957"/>
     <use style="fill:#4c72b0;" x="648.832571" xlink:href="#m51008ee19b" y="51.373414"/>
     <use style="fill:#4c72b0;" x="653.000714" xlink:href="#m51008ee19b" y="48.91943"/>
     <use style="fill:#4c72b0;" x="657.168857" xlink:href="#m51008ee19b" y="48.383265"/>
     <use style="fill:#4c72b0;" x="661.337" xlink:href="#m51008ee19b" y="48.733834"/>
     <use style="fill:#4c72b0;" x="665.505143" xlink:href="#m51008ee19b" y="48.115183"/>
     <use style="fill:#4c72b0;" x="669.673286" xlink:href="#m51008ee19b" y="48.589482"/>
     <use style="fill:#4c72b0;" x="673.841429" xlink:href="#m51008ee19b" y="48.115183"/>
     <use style="fill:#4c72b0;" x="678.009571" xlink:href="#m51008ee19b" y="48.465752"/>
     <use style="fill:#4c72b0;" x="682.177714" xlink:href="#m51008ee19b" y="48.032696"/>
     <use style="fill:#4c72b0;" x="686.345857" xlink:href="#m51008ee19b" y="47.970831"/>
     <use style="fill:#4c72b0;" x="690.514" xlink:href="#m51008ee19b" y="47.331557"/>
     <use style="fill:#4c72b0;" x="694.682143" xlink:href="#m51008ee19b" y="47.187205"/>
     <use style="fill:#4c72b0;" x="698.850286" xlink:href="#m51008ee19b" y="47.063475"/>
     <use style="fill:#4c72b0;" x="703.018429" xlink:href="#m51008ee19b" y="46.816014"/>
     <use style="fill:#4c72b0;" x="707.186571" xlink:href="#m51008ee19b" y="46.27985"/>
     <use style="fill:#4c72b0;" x="711.354714" xlink:href="#m51008ee19b" y="45.970524"/>
     <use style="fill:#4c72b0;" x="715.522857" xlink:href="#m51008ee19b" y="47.661505"/>
     <use style="fill:#4c72b0;" x="719.691" xlink:href="#m51008ee19b" y="48.713213"/>
     <use style="fill:#4c72b0;" x="723.859143" xlink:href="#m51008ee19b" y="48.177048"/>
     <use style="fill:#4c72b0;" x="728.027286" xlink:href="#m51008ee19b" y="49.04316"/>
     <use style="fill:#4c72b0;" x="732.195429" xlink:href="#m51008ee19b" y="49.888651"/>
     <use style="fill:#4c72b0;" x="736.363571" xlink:href="#m51008ee19b" y="51.146575"/>
     <use style="fill:#4c72b0;" x="740.531714" xlink:href="#m51008ee19b" y="50.83725"/>
     <use style="fill:#4c72b0;" x="744.699857" xlink:href="#m51008ee19b" y="50.857871"/>
     <use style="fill:#4c72b0;" x="748.868" xlink:href="#m51008ee19b" y="50.734141"/>
     <use style="fill:#4c72b0;" x="753.036143" xlink:href="#m51008ee19b" y="48.073939"/>
     <use style="fill:#4c72b0;" x="757.204286" xlink:href="#m51008ee19b" y="46.712906"/>
     <use style="fill:#4c72b0;" x="761.372429" xlink:href="#m51008ee19b" y="46.857258"/>
     <use style="fill:#4c72b0;" x="765.540571" xlink:href="#m51008ee19b" y="45.846794"/>
     <use style="fill:#4c72b0;" x="769.708714" xlink:href="#m51008ee19b" y="46.156119"/>
     <use style="fill:#4c72b0;" x="773.876857" xlink:href="#m51008ee19b" y="45.537468"/>
     <use style="fill:#4c72b0;" x="778.045" xlink:href="#m51008ee19b" y="45.145655"/>
     <use style="fill:#4c72b0;" x="782.213143" xlink:href="#m51008ee19b" y="41.763693"/>
    </g>
   </g>
   <g id="patch_3">
    <path d="M 48.62 383.38 
L 48.62 25.49625 
" style="fill:none;"/>
   </g>
   <g id="patch_4">
    <path d="M 632.16 383.38 
L 632.16 25.49625 
" style="fill:none;"/>
   </g>
   <g id="patch_5">
    <path d="M 48.62 383.38 
L 632.16 383.38 
" style="fill:none;"/>
   </g>
   <g id="patch_6">
    <path d="M 48.62 25.49625 
L 632.16 25.49625 
" style="fill:none;"/>
   </g>
   <g id="text_48">
    <!-- Test 40: Alternating MMX and Scalar -->
    <defs>
     <path d="M 25.921875 0 
L 25.921875 63.140625 
L 2.34375 63.140625 
L 2.34375 71.578125 
L 59.078125 71.578125 
L 59.078125 63.140625 
L 35.40625 63.140625 
L 35.40625 0 
z
" id="ArialMT-84"/>
     <path d="M 9.03125 41.84375 
L 9.03125 51.859375 
L 19.046875 51.859375 
L 19.046875 41.84375 
z
M 9.03125 0 
L 9.03125 10.015625 
L 19.046875 10.015625 
L 19.046875 0 
z
" id="ArialMT-58"/>
     <path d="M -0.140625 0 
L 27.34375 71.578125 
L 37.546875 71.578125 
L 66.84375 0 
L 56.0625 0 
L 47.703125 21.6875 
L 17.78125 21.6875 
L 9.90625 0 
z
M 20.515625 29.390625 
L 44.78125 29.390625 
L 37.3125 49.21875 
Q 33.890625 58.25 32.234375 64.0625 
Q 30.859375 57.171875 28.375 50.390625 
z
" id="ArialMT-65"/>
     <path d="M 40.4375 6.390625 
Q 35.546875 2.25 31.03125 0.53125 
Q 26.515625 -1.171875 21.34375 -1.171875 
Q 12.796875 -1.171875 8.203125 3 
Q 3.609375 7.171875 3.609375 13.671875 
Q 3.609375 17.484375 5.34375 20.625 
Q 7.078125 23.78125 9.890625 25.6875 
Q 12.703125 27.59375 16.21875 28.5625 
Q 18.796875 29.25 24.03125 29.890625 
Q 34.671875 31.15625 39.703125 32.90625 
Q 39.75 34.71875 39.75 35.203125 
Q 39.75 40.578125 37.25 42.78125 
Q 33.890625 45.75 27.25 45.75 
Q 21.046875 45.75 18.09375 43.578125 
Q 15.140625 41.40625 13.71875 35.890625 
L 5.125 37.0625 
Q 6.296875 42.578125 8.984375 45.96875 
Q 11.671875 49.359375 16.75 51.1875 
Q 21.828125 53.03125 28.515625 53.03125 
Q 35.15625 53.03125 39.296875 51.46875 
Q 43.453125 49.90625 45.40625 47.53125 
Q 47.359375 45.171875 48.140625 41.546875 
Q 48.578125 39.3125 48.578125 33.453125 
L 48.578125 21.734375 
Q 48.578125 9.46875 49.140625 6.21875 
Q 49.703125 2.984375 51.375 0 
L 42.1875 0 
Q 40.828125 2.734375 40.4375 6.390625 
z
M 39.703125 26.03125 
Q 34.90625 24.078125 25.34375 22.703125 
Q 19.921875 21.921875 17.671875 20.9375 
Q 15.4375 19.96875 14.203125 18.09375 
Q 12.984375 16.21875 12.984375 13.921875 
Q 12.984375 10.40625 15.640625 8.0625 
Q 18.3125 5.71875 23.4375 5.71875 
Q 28.515625 5.71875 32.46875 7.9375 
Q 36.421875 10.15625 38.28125 14.015625 
Q 39.703125 17 39.703125 22.796875 
z
" id="ArialMT-97"/>
     <path d="M 4.984375 -4.296875 
L 13.53125 -5.5625 
Q 14.0625 -9.515625 16.5 -11.328125 
Q 19.78125 -13.765625 25.4375 -13.765625 
Q 31.546875 -13.765625 34.859375 -11.328125 
Q 38.1875 -8.890625 39.359375 -4.5 
Q 40.046875 -1.8125 39.984375 6.78125 
Q 34.234375 0 25.640625 0 
Q 14.9375 0 9.078125 7.71875 
Q 3.21875 15.4375 3.21875 26.21875 
Q 3.21875 33.640625 5.90625 39.90625 
Q 8.59375 46.1875 13.6875 49.609375 
Q 18.796875 53.03125 25.6875 53.03125 
Q 34.859375 53.03125 40.828125 45.609375 
L 40.828125 51.859375 
L 48.921875 51.859375 
L 48.921875 7.03125 
Q 48.921875 -5.078125 46.453125 -10.125 
Q 44 -15.1875 38.640625 -18.109375 
Q 33.296875 -21.046875 25.484375 -21.046875 
Q 16.21875 -21.046875 10.5 -16.875 
Q 4.78125 -12.703125 4.984375 -4.296875 
z
M 12.25 26.859375 
Q 12.25 16.65625 16.296875 11.96875 
Q 20.359375 7.28125 26.46875 7.28125 
Q 32.515625 7.28125 36.609375 11.9375 
Q 40.71875 16.609375 40.71875 26.5625 
Q 40.71875 36.078125 36.5 40.90625 
Q 32.28125 45.75 26.3125 45.75 
Q 20.453125 45.75 16.34375 40.984375 
Q 12.25 36.234375 12.25 26.859375 
z
" id="ArialMT-103"/>
     <path d="M 7.421875 0 
L 7.421875 71.578125 
L 21.6875 71.578125 
L 38.625 20.90625 
Q 40.96875 13.8125 42.046875 10.296875 
Q 43.265625 14.203125 45.84375 21.78125 
L 62.984375 71.578125 
L 75.734375 71.578125 
L 75.734375 0 
L 66.609375 0 
L 66.609375 59.90625 
L 45.796875 0 
L 37.25 0 
L 16.546875 60.9375 
L 16.546875 0 
z
" id="ArialMT-77"/>
     <path d="M 0.4375 0 
L 28.125 37.3125 
L 3.71875 71.578125 
L 14.984375 71.578125 
L 27.984375 53.21875 
Q 32.03125 47.515625 33.734375 44.4375 
Q 36.140625 48.34375 39.40625 52.59375 
L 53.8125 71.578125 
L 64.109375 71.578125 
L 38.96875 37.84375 
L 66.0625 0 
L 54.34375 0 
L 36.328125 25.53125 
Q 34.8125 27.734375 33.203125 30.328125 
Q 30.8125 26.421875 29.78125 24.953125 
L 11.8125 0 
z
" id="ArialMT-88"/>
     <path d="M 40.234375 0 
L 40.234375 6.546875 
Q 35.296875 -1.171875 25.734375 -1.171875 
Q 19.53125 -1.171875 14.328125 2.25 
Q 9.125 5.671875 6.265625 11.796875 
Q 3.421875 17.921875 3.421875 25.875 
Q 3.421875 33.640625 6 39.96875 
Q 8.59375 46.296875 13.765625 49.65625 
Q 18.953125 53.03125 25.34375 53.03125 
Q 30.03125 53.03125 33.6875 51.046875 
Q 37.359375 49.078125 39.65625 45.90625 
L 39.65625 71.578125 
L 48.390625 71.578125 
L 48.390625 0 
z
M 12.453125 25.875 
Q 12.453125 15.921875 16.640625 10.984375 
Q 20.84375 6.0625 26.5625 6.0625 
Q 32.328125 6.0625 36.34375 10.765625 
Q 40.375 15.484375 40.375 25.140625 
Q 40.375 35.796875 36.265625 40.765625 
Q 32.171875 45.75 26.171875 45.75 
Q 20.3125 45.75 16.375 40.96875 
Q 12.453125 36.1875 12.453125 25.875 
z
" id="ArialMT-100"/>
     <path d="M 4.5 23 
L 13.421875 23.78125 
Q 14.0625 18.40625 16.375 14.96875 
Q 18.703125 11.53125 23.578125 9.40625 
Q 28.46875 7.28125 34.578125 7.28125 
Q 39.984375 7.28125 44.140625 8.890625 
Q 48.296875 10.5 50.3125 13.296875 
Q 52.34375 16.109375 52.34375 19.4375 
Q 52.34375 22.796875 50.390625 25.3125 
Q 48.4375 27.828125 43.953125 29.546875 
Q 41.0625 30.671875 31.203125 33.03125 
Q 21.34375 35.40625 17.390625 37.5 
Q 12.25 40.1875 9.734375 44.15625 
Q 7.234375 48.140625 7.234375 53.078125 
Q 7.234375 58.5 10.296875 63.203125 
Q 13.375 67.921875 19.28125 70.359375 
Q 25.203125 72.796875 32.421875 72.796875 
Q 40.375 72.796875 46.453125 70.234375 
Q 52.546875 67.671875 55.8125 62.6875 
Q 59.078125 57.71875 59.328125 51.421875 
L 50.25 50.734375 
Q 49.515625 57.515625 45.28125 60.984375 
Q 41.0625 64.453125 32.8125 64.453125 
Q 24.21875 64.453125 20.28125 61.296875 
Q 16.359375 58.15625 16.359375 53.71875 
Q 16.359375 49.859375 19.140625 47.359375 
Q 21.875 44.875 33.421875 42.265625 
Q 44.96875 39.65625 49.265625 37.703125 
Q 55.515625 34.8125 58.484375 30.390625 
Q 61.46875 25.984375 61.46875 20.21875 
Q 61.46875 14.5 58.203125 9.4375 
Q 54.9375 4.390625 48.796875 1.578125 
Q 42.671875 -1.21875 35.015625 -1.21875 
Q 25.296875 -1.21875 18.71875 1.609375 
Q 12.15625 4.4375 8.421875 10.125 
Q 4.6875 15.828125 4.5 23 
z
" id="ArialMT-83"/>
    </defs>
    <g style="fill:#262626;" transform="translate(243.348438 19.49625)scale(0.12 -0.12)">
     <use xlink:href="#ArialMT-84"/>
     <use x="49.958984" xlink:href="#ArialMT-101"/>
     <use x="105.574219" xlink:href="#ArialMT-115"/>
     <use x="155.574219" xlink:href="#ArialMT-116"/>
     <use x="183.357422" xlink:href="#ArialMT-32"/>
     <use x="211.140625" xlink:href="#ArialMT-52"/>
     <use x="266.755859" xlink:href="#ArialMT-48"/>
     <use x="322.371094" xlink:href="#ArialMT-58"/>
     <use x="350.154297" xlink:href="#ArialMT-32"/>
     <use x="372.4375" xlink:href="#ArialMT-65"/>
     <use x="439.136719" xlink:href="#ArialMT-108"/>
     <use x="461.353516" xlink:href="#ArialMT-116"/>
     <use x="489.136719" xlink:href="#ArialMT-101"/>
     <use x="544.751953" xlink:href="#ArialMT-114"/>
     <use x="578.052734" xlink:href="#ArialMT-110"/>
     <use x="633.667969" xlink:href="#ArialMT-97"/>
     <use x="689.283203" xlink:href="#ArialMT-116"/>
     <use x="717.066406" xlink:href="#ArialMT-105"/>
     <use x="739.283203" xlink:href="#ArialMT-110"/>
     <use x="794.898438" xlink:href="#ArialMT-103"/>
     <use x="850.513672" xlink:href="#ArialMT-32"/>
     <use x="878.296875" xlink:href="#ArialMT-77"/>
     <use x="961.597656" xlink:href="#ArialMT-77"/>
     <use x="1044.898438" xlink:href="#ArialMT-88"/>
     <use x="1111.597656" xlink:href="#ArialMT-32"/>
     <use x="1139.380859" xlink:href="#ArialMT-97"/>
     <use x="1194.996094" xlink:href="#ArialMT-110"/>
     <use x="1250.611328" xlink:href="#ArialMT-100"/>
     <use x="1306.226562" xlink:href="#ArialMT-32"/>
     <use x="1334.009766" xlink:href="#ArialMT-83"/>
     <use x="1400.708984" xlink:href="#ArialMT-99"/>
     <use x="1450.708984" xlink:href="#ArialMT-97"/>
     <use x="1506.324219" xlink:href="#ArialMT-108"/>
     <use x="1528.541016" xlink:href="#ArialMT-97"/>
     <use x="1584.15625" xlink:href="#ArialMT-114"/>
    </g>
   </g>
   <g id="legend_1">
    <g id="line2d_92">
     <path d="M 558.09125 38.154062 
L 578.09125 38.154062 
" style="fill:none;stroke:#4c72b0;stroke-linecap:round;stroke-width:1.75;"/>
    </g>
    <g id="line2d_93">
     <g>
      <use style="fill:#4c72b0;" x="568.09125" xlink:href="#m51008ee19b" y="38.154062"/>
     </g>
    </g>
    <g id="text_49">
     <!-- Average -->
     <defs>
      <path d="M 21 0 
L 1.265625 51.859375 
L 10.546875 51.859375 
L 21.6875 20.796875 
Q 23.484375 15.765625 25 10.359375 
Q 26.171875 14.453125 28.265625 20.21875 
L 39.796875 51.859375 
L 48.828125 51.859375 
L 29.203125 0 
z
" id="ArialMT-118"/>
     </defs>
     <g style="fill:#262626;" transform="translate(586.09125 41.654062)scale(0.1 -0.1)">
      <use xlink:href="#ArialMT-65"/>
      <use x="64.949219" xlink:href="#ArialMT-118"/>
      <use x="114.949219" xlink:href="#ArialMT-101"/>
      <use x="170.564453" xlink:href="#ArialMT-114"/>
      <use x="203.865234" xlink:href="#ArialMT-97"/>
      <use x="259.480469" xlink:href="#ArialMT-103"/>
      <use x="315.095703" xlink:href="#ArialMT-101"/>
     </g>
    </g>
   </g>
  </g>
 </g>
 <defs>
  <clipPath id="p5a4d69ea09">
   <rect height="357.88375" width="583.54" x="48.62" y="25.49625"/>
  </clipPath>
 </defs>
</svg>
