<?xml version="1.0" encoding="utf-8" standalone="no"?>
<!DOCTYPE svg PUBLIC "-//W3C//DTD SVG 1.1//EN"
  "http://www.w3.org/Graphics/SVG/1.1/DTD/svg11.dtd">
<!-- Created with matplotlib (https://matplotlib.org/) -->
<svg height="432pt" version="1.1" viewBox="0 0 648 432" width="648pt" xmlns="http://www.w3.org/2000/svg" xmlns:xlink="http://www.w3.org/1999/xlink">
 <defs>
  <style type="text/css">
*{stroke-linecap:butt;stroke-linejoin:round;}
  </style>
 </defs>
 <g id="figure_1">
  <g id="patch_1">
   <path d="M 0 432 
L 648 432 
L 648 0 
L 0 0 
z
" style="fill:#ffffff;"/>
  </g>
  <g id="axes_1">
   <g id="patch_2">
    <path d="M 47.45 383.848 
L 597.4 383.848 
L 597.4 26.88 
L 47.45 26.88 
z
" style="fill:#ffffff;"/>
   </g>
   <g id="patch_3">
    <path clip-path="url(#p393b8ef0be)" d="M 286.992104 383.848 
L 532.93185 383.848 
L 532.93185 26.88 
L 286.992104 26.88 
z
" style="fill:#f5f5f5;stroke:#f5f5f5;stroke-linejoin:miter;"/>
   </g>
   <g id="matplotlib.axis_1">
    <g id="xtick_1">
     <g id="line2d_1">
      <defs>
       <path d="M 0 0 
L 0 3.5 
" id="mfc518bbc66" style="stroke:#000000;stroke-width:0.8;"/>
      </defs>
      <g>
       <use style="stroke:#000000;stroke-width:0.8;" x="123.005894" xlink:href="#mfc518bbc66" y="383.848"/>
      </g>
     </g>
     <g id="text_1">
      <!-- $\mathdefault{10^{5}}$ -->
      <defs>
       <path d="M 12.40625 8.296875 
L 28.515625 8.296875 
L 28.515625 63.921875 
L 10.984375 60.40625 
L 10.984375 69.390625 
L 28.421875 72.90625 
L 38.28125 72.90625 
L 38.28125 8.296875 
L 54.390625 8.296875 
L 54.390625 0 
L 12.40625 0 
z
" id="DejaVuSans-49"/>
       <path d="M 31.78125 66.40625 
Q 24.171875 66.40625 20.328125 58.90625 
Q 16.5 51.421875 16.5 36.375 
Q 16.5 21.390625 20.328125 13.890625 
Q 24.171875 6.390625 31.78125 6.390625 
Q 39.453125 6.390625 43.28125 13.890625 
Q 47.125 21.390625 47.125 36.375 
Q 47.125 51.421875 43.28125 58.90625 
Q 39.453125 66.40625 31.78125 66.40625 
z
M 31.78125 74.21875 
Q 44.046875 74.21875 50.515625 64.515625 
Q 56.984375 54.828125 56.984375 36.375 
Q 56.984375 17.96875 50.515625 8.265625 
Q 44.046875 -1.421875 31.78125 -1.421875 
Q 19.53125 -1.421875 13.0625 8.265625 
Q 6.59375 17.96875 6.59375 36.375 
Q 6.59375 54.828125 13.0625 64.515625 
Q 19.53125 74.21875 31.78125 74.21875 
z
" id="DejaVuSans-48"/>
       <path d="M 10.796875 72.90625 
L 49.515625 72.90625 
L 49.515625 64.59375 
L 19.828125 64.59375 
L 19.828125 46.734375 
Q 21.96875 47.46875 24.109375 47.828125 
Q 26.265625 48.1875 28.421875 48.1875 
Q 40.625 48.1875 47.75 41.5 
Q 54.890625 34.8125 54.890625 23.390625 
Q 54.890625 11.625 47.5625 5.09375 
Q 40.234375 -1.421875 26.90625 -1.421875 
Q 22.3125 -1.421875 17.546875 -0.640625 
Q 12.796875 0.140625 7.71875 1.703125 
L 7.71875 11.625 
Q 12.109375 9.234375 16.796875 8.0625 
Q 21.484375 6.890625 26.703125 6.890625 
Q 35.15625 6.890625 40.078125 11.328125 
Q 45.015625 15.765625 45.015625 23.390625 
Q 45.015625 31 40.078125 35.4375 
Q 35.15625 39.890625 26.703125 39.890625 
Q 22.75 39.890625 18.8125 39.015625 
Q 14.890625 38.140625 10.796875 36.28125 
z
" id="DejaVuSans-53"/>
      </defs>
      <g transform="translate(114.205894 398.446438)scale(0.1 -0.1)">
       <use transform="translate(0 0.684375)" xlink:href="#DejaVuSans-49"/>
       <use transform="translate(63.623047 0.684375)" xlink:href="#DejaVuSans-48"/>
       <use transform="translate(128.203125 38.965625)scale(0.7)" xlink:href="#DejaVuSans-53"/>
      </g>
     </g>
    </g>
    <g id="xtick_2">
     <g id="line2d_2">
      <g>
       <use style="stroke:#000000;stroke-width:0.8;" x="350.900649" xlink:href="#mfc518bbc66" y="383.848"/>
      </g>
     </g>
     <g id="text_2">
      <!-- $\mathdefault{10^{6}}$ -->
      <defs>
       <path d="M 33.015625 40.375 
Q 26.375 40.375 22.484375 35.828125 
Q 18.609375 31.296875 18.609375 23.390625 
Q 18.609375 15.53125 22.484375 10.953125 
Q 26.375 6.390625 33.015625 6.390625 
Q 39.65625 6.390625 43.53125 10.953125 
Q 47.40625 15.53125 47.40625 23.390625 
Q 47.40625 31.296875 43.53125 35.828125 
Q 39.65625 40.375 33.015625 40.375 
z
M 52.59375 71.296875 
L 52.59375 62.3125 
Q 48.875 64.0625 45.09375 64.984375 
Q 41.3125 65.921875 37.59375 65.921875 
Q 27.828125 65.921875 22.671875 59.328125 
Q 17.53125 52.734375 16.796875 39.40625 
Q 19.671875 43.65625 24.015625 45.921875 
Q 28.375 48.1875 33.59375 48.1875 
Q 44.578125 48.1875 50.953125 41.515625 
Q 57.328125 34.859375 57.328125 23.390625 
Q 57.328125 12.15625 50.6875 5.359375 
Q 44.046875 -1.421875 33.015625 -1.421875 
Q 20.359375 -1.421875 13.671875 8.265625 
Q 6.984375 17.96875 6.984375 36.375 
Q 6.984375 53.65625 15.1875 63.9375 
Q 23.390625 74.21875 37.203125 74.21875 
Q 40.921875 74.21875 44.703125 73.484375 
Q 48.484375 72.75 52.59375 71.296875 
z
" id="DejaVuSans-54"/>
      </defs>
      <g transform="translate(342.100649 398.446438)scale(0.1 -0.1)">
       <use transform="translate(0 0.765625)" xlink:href="#DejaVuSans-49"/>
       <use transform="translate(63.623047 0.765625)" xlink:href="#DejaVuSans-48"/>
       <use transform="translate(128.203125 39.046875)scale(0.7)" xlink:href="#DejaVuSans-54"/>
      </g>
     </g>
    </g>
    <g id="xtick_3">
     <g id="line2d_3">
      <g>
       <use style="stroke:#000000;stroke-width:0.8;" x="578.795404" xlink:href="#mfc518bbc66" y="383.848"/>
      </g>
     </g>
     <g id="text_3">
      <!-- $\mathdefault{10^{7}}$ -->
      <defs>
       <path d="M 8.203125 72.90625 
L 55.078125 72.90625 
L 55.078125 68.703125 
L 28.609375 0 
L 18.3125 0 
L 43.21875 64.59375 
L 8.203125 64.59375 
z
" id="DejaVuSans-55"/>
      </defs>
      <g transform="translate(569.995404 398.446438)scale(0.1 -0.1)">
       <use transform="translate(0 0.684375)" xlink:href="#DejaVuSans-49"/>
       <use transform="translate(63.623047 0.684375)" xlink:href="#DejaVuSans-48"/>
       <use transform="translate(128.203125 38.965625)scale(0.7)" xlink:href="#DejaVuSans-55"/>
      </g>
     </g>
    </g>
    <g id="xtick_4">
     <g id="line2d_4">
      <defs>
       <path d="M 0 0 
L 0 2 
" id="md8d6988bf2" style="stroke:#000000;stroke-width:0.6;"/>
      </defs>
      <g>
       <use style="stroke:#000000;stroke-width:0.6;" x="54.402737" xlink:href="#md8d6988bf2" y="383.848"/>
      </g>
     </g>
    </g>
    <g id="xtick_5">
     <g id="line2d_5">
      <g>
       <use style="stroke:#000000;stroke-width:0.6;" x="72.447727" xlink:href="#md8d6988bf2" y="383.848"/>
      </g>
     </g>
    </g>
    <g id="xtick_6">
     <g id="line2d_6">
      <g>
       <use style="stroke:#000000;stroke-width:0.6;" x="87.70455" xlink:href="#md8d6988bf2" y="383.848"/>
      </g>
     </g>
    </g>
    <g id="xtick_7">
     <g id="line2d_7">
      <g>
       <use style="stroke:#000000;stroke-width:0.6;" x="100.92061" xlink:href="#md8d6988bf2" y="383.848"/>
      </g>
     </g>
    </g>
    <g id="xtick_8">
     <g id="line2d_8">
      <g>
       <use style="stroke:#000000;stroke-width:0.6;" x="112.578002" xlink:href="#md8d6988bf2" y="383.848"/>
      </g>
     </g>
    </g>
    <g id="xtick_9">
     <g id="line2d_9">
      <g>
       <use style="stroke:#000000;stroke-width:0.6;" x="191.609051" xlink:href="#md8d6988bf2" y="383.848"/>
      </g>
     </g>
    </g>
    <g id="xtick_10">
     <g id="line2d_10">
      <g>
       <use style="stroke:#000000;stroke-width:0.6;" x="231.739325" xlink:href="#md8d6988bf2" y="383.848"/>
      </g>
     </g>
    </g>
    <g id="xtick_11">
     <g id="line2d_11">
      <g>
       <use style="stroke:#000000;stroke-width:0.6;" x="260.212208" xlink:href="#md8d6988bf2" y="383.848"/>
      </g>
     </g>
    </g>
    <g id="xtick_12">
     <g id="line2d_12">
      <g>
       <use style="stroke:#000000;stroke-width:0.6;" x="282.297492" xlink:href="#md8d6988bf2" y="383.848"/>
      </g>
     </g>
    </g>
    <g id="xtick_13">
     <g id="line2d_13">
      <g>
       <use style="stroke:#000000;stroke-width:0.6;" x="300.342482" xlink:href="#md8d6988bf2" y="383.848"/>
      </g>
     </g>
    </g>
    <g id="xtick_14">
     <g id="line2d_14">
      <g>
       <use style="stroke:#000000;stroke-width:0.6;" x="315.599305" xlink:href="#md8d6988bf2" y="383.848"/>
      </g>
     </g>
    </g>
    <g id="xtick_15">
     <g id="line2d_15">
      <g>
       <use style="stroke:#000000;stroke-width:0.6;" x="328.815365" xlink:href="#md8d6988bf2" y="383.848"/>
      </g>
     </g>
    </g>
    <g id="xtick_16">
     <g id="line2d_16">
      <g>
       <use style="stroke:#000000;stroke-width:0.6;" x="340.472757" xlink:href="#md8d6988bf2" y="383.848"/>
      </g>
     </g>
    </g>
    <g id="xtick_17">
     <g id="line2d_17">
      <g>
       <use style="stroke:#000000;stroke-width:0.6;" x="419.503806" xlink:href="#md8d6988bf2" y="383.848"/>
      </g>
     </g>
    </g>
    <g id="xtick_18">
     <g id="line2d_18">
      <g>
       <use style="stroke:#000000;stroke-width:0.6;" x="459.63408" xlink:href="#md8d6988bf2" y="383.848"/>
      </g>
     </g>
    </g>
    <g id="xtick_19">
     <g id="line2d_19">
      <g>
       <use style="stroke:#000000;stroke-width:0.6;" x="488.106963" xlink:href="#md8d6988bf2" y="383.848"/>
      </g>
     </g>
    </g>
    <g id="xtick_20">
     <g id="line2d_20">
      <g>
       <use style="stroke:#000000;stroke-width:0.6;" x="510.192247" xlink:href="#md8d6988bf2" y="383.848"/>
      </g>
     </g>
    </g>
    <g id="xtick_21">
     <g id="line2d_21">
      <g>
       <use style="stroke:#000000;stroke-width:0.6;" x="528.237237" xlink:href="#md8d6988bf2" y="383.848"/>
      </g>
     </g>
    </g>
    <g id="xtick_22">
     <g id="line2d_22">
      <g>
       <use style="stroke:#000000;stroke-width:0.6;" x="543.49406" xlink:href="#md8d6988bf2" y="383.848"/>
      </g>
     </g>
    </g>
    <g id="xtick_23">
     <g id="line2d_23">
      <g>
       <use style="stroke:#000000;stroke-width:0.6;" x="556.71012" xlink:href="#md8d6988bf2" y="383.848"/>
      </g>
     </g>
    </g>
    <g id="xtick_24">
     <g id="line2d_24">
      <g>
       <use style="stroke:#000000;stroke-width:0.6;" x="568.367512" xlink:href="#md8d6988bf2" y="383.848"/>
      </g>
     </g>
    </g>
    <g id="text_4">
     <!-- Region Size (bytes) -->
     <defs>
      <path d="M 44.390625 34.1875 
Q 47.5625 33.109375 50.5625 29.59375 
Q 53.5625 26.078125 56.59375 19.921875 
L 66.609375 0 
L 56 0 
L 46.6875 18.703125 
Q 43.0625 26.03125 39.671875 28.421875 
Q 36.28125 30.8125 30.421875 30.8125 
L 19.671875 30.8125 
L 19.671875 0 
L 9.8125 0 
L 9.8125 72.90625 
L 32.078125 72.90625 
Q 44.578125 72.90625 50.734375 67.671875 
Q 56.890625 62.453125 56.890625 51.90625 
Q 56.890625 45.015625 53.6875 40.46875 
Q 50.484375 35.9375 44.390625 34.1875 
z
M 19.671875 64.796875 
L 19.671875 38.921875 
L 32.078125 38.921875 
Q 39.203125 38.921875 42.84375 42.21875 
Q 46.484375 45.515625 46.484375 51.90625 
Q 46.484375 58.296875 42.84375 61.546875 
Q 39.203125 64.796875 32.078125 64.796875 
z
" id="DejaVuSans-82"/>
      <path d="M 56.203125 29.59375 
L 56.203125 25.203125 
L 14.890625 25.203125 
Q 15.484375 15.921875 20.484375 11.0625 
Q 25.484375 6.203125 34.421875 6.203125 
Q 39.59375 6.203125 44.453125 7.46875 
Q 49.3125 8.734375 54.109375 11.28125 
L 54.109375 2.78125 
Q 49.265625 0.734375 44.1875 -0.34375 
Q 39.109375 -1.421875 33.890625 -1.421875 
Q 20.796875 -1.421875 13.15625 6.1875 
Q 5.515625 13.8125 5.515625 26.8125 
Q 5.515625 40.234375 12.765625 48.109375 
Q 20.015625 56 32.328125 56 
Q 43.359375 56 49.78125 48.890625 
Q 56.203125 41.796875 56.203125 29.59375 
z
M 47.21875 32.234375 
Q 47.125 39.59375 43.09375 43.984375 
Q 39.0625 48.390625 32.421875 48.390625 
Q 24.90625 48.390625 20.390625 44.140625 
Q 15.875 39.890625 15.1875 32.171875 
z
" id="DejaVuSans-101"/>
      <path d="M 45.40625 27.984375 
Q 45.40625 37.75 41.375 43.109375 
Q 37.359375 48.484375 30.078125 48.484375 
Q 22.859375 48.484375 18.828125 43.109375 
Q 14.796875 37.75 14.796875 27.984375 
Q 14.796875 18.265625 18.828125 12.890625 
Q 22.859375 7.515625 30.078125 7.515625 
Q 37.359375 7.515625 41.375 12.890625 
Q 45.40625 18.265625 45.40625 27.984375 
z
M 54.390625 6.78125 
Q 54.390625 -7.171875 48.1875 -13.984375 
Q 42 -20.796875 29.203125 -20.796875 
Q 24.46875 -20.796875 20.265625 -20.09375 
Q 16.0625 -19.390625 12.109375 -17.921875 
L 12.109375 -9.1875 
Q 16.0625 -11.328125 19.921875 -12.34375 
Q 23.78125 -13.375 27.78125 -13.375 
Q 36.625 -13.375 41.015625 -8.765625 
Q 45.40625 -4.15625 45.40625 5.171875 
L 45.40625 9.625 
Q 42.625 4.78125 38.28125 2.390625 
Q 33.9375 0 27.875 0 
Q 17.828125 0 11.671875 7.65625 
Q 5.515625 15.328125 5.515625 27.984375 
Q 5.515625 40.671875 11.671875 48.328125 
Q 17.828125 56 27.875 56 
Q 33.9375 56 38.28125 53.609375 
Q 42.625 51.21875 45.40625 46.390625 
L 45.40625 54.6875 
L 54.390625 54.6875 
z
" id="DejaVuSans-103"/>
      <path d="M 9.421875 54.6875 
L 18.40625 54.6875 
L 18.40625 0 
L 9.421875 0 
z
M 9.421875 75.984375 
L 18.40625 75.984375 
L 18.40625 64.59375 
L 9.421875 64.59375 
z
" id="DejaVuSans-105"/>
      <path d="M 30.609375 48.390625 
Q 23.390625 48.390625 19.1875 42.75 
Q 14.984375 37.109375 14.984375 27.296875 
Q 14.984375 17.484375 19.15625 11.84375 
Q 23.34375 6.203125 30.609375 6.203125 
Q 37.796875 6.203125 41.984375 11.859375 
Q 46.1875 17.53125 46.1875 27.296875 
Q 46.1875 37.015625 41.984375 42.703125 
Q 37.796875 48.390625 30.609375 48.390625 
z
M 30.609375 56 
Q 42.328125 56 49.015625 48.375 
Q 55.71875 40.765625 55.71875 27.296875 
Q 55.71875 13.875 49.015625 6.21875 
Q 42.328125 -1.421875 30.609375 -1.421875 
Q 18.84375 -1.421875 12.171875 6.21875 
Q 5.515625 13.875 5.515625 27.296875 
Q 5.515625 40.765625 12.171875 48.375 
Q 18.84375 56 30.609375 56 
z
" id="DejaVuSans-111"/>
      <path d="M 54.890625 33.015625 
L 54.890625 0 
L 45.90625 0 
L 45.90625 32.71875 
Q 45.90625 40.484375 42.875 44.328125 
Q 39.84375 48.1875 33.796875 48.1875 
Q 26.515625 48.1875 22.3125 43.546875 
Q 18.109375 38.921875 18.109375 30.90625 
L 18.109375 0 
L 9.078125 0 
L 9.078125 54.6875 
L 18.109375 54.6875 
L 18.109375 46.1875 
Q 21.34375 51.125 25.703125 53.5625 
Q 30.078125 56 35.796875 56 
Q 45.21875 56 50.046875 50.171875 
Q 54.890625 44.34375 54.890625 33.015625 
z
" id="DejaVuSans-110"/>
      <path id="DejaVuSans-32"/>
      <path d="M 53.515625 70.515625 
L 53.515625 60.890625 
Q 47.90625 63.578125 42.921875 64.890625 
Q 37.9375 66.21875 33.296875 66.21875 
Q 25.25 66.21875 20.875 63.09375 
Q 16.5 59.96875 16.5 54.203125 
Q 16.5 49.359375 19.40625 46.890625 
Q 22.3125 44.4375 30.421875 42.921875 
L 36.375 41.703125 
Q 47.40625 39.59375 52.65625 34.296875 
Q 57.90625 29 57.90625 20.125 
Q 57.90625 9.515625 50.796875 4.046875 
Q 43.703125 -1.421875 29.984375 -1.421875 
Q 24.8125 -1.421875 18.96875 -0.25 
Q 13.140625 0.921875 6.890625 3.21875 
L 6.890625 13.375 
Q 12.890625 10.015625 18.65625 8.296875 
Q 24.421875 6.59375 29.984375 6.59375 
Q 38.421875 6.59375 43.015625 9.90625 
Q 47.609375 13.234375 47.609375 19.390625 
Q 47.609375 24.75 44.3125 27.78125 
Q 41.015625 30.8125 33.5 32.328125 
L 27.484375 33.5 
Q 16.453125 35.6875 11.515625 40.375 
Q 6.59375 45.0625 6.59375 53.421875 
Q 6.59375 63.09375 13.40625 68.65625 
Q 20.21875 74.21875 32.171875 74.21875 
Q 37.3125 74.21875 42.625 73.28125 
Q 47.953125 72.359375 53.515625 70.515625 
z
" id="DejaVuSans-83"/>
      <path d="M 5.515625 54.6875 
L 48.1875 54.6875 
L 48.1875 46.484375 
L 14.40625 7.171875 
L 48.1875 7.171875 
L 48.1875 0 
L 4.296875 0 
L 4.296875 8.203125 
L 38.09375 47.515625 
L 5.515625 47.515625 
z
" id="DejaVuSans-122"/>
      <path d="M 31 75.875 
Q 24.46875 64.65625 21.28125 53.65625 
Q 18.109375 42.671875 18.109375 31.390625 
Q 18.109375 20.125 21.3125 9.0625 
Q 24.515625 -2 31 -13.1875 
L 23.1875 -13.1875 
Q 15.875 -1.703125 12.234375 9.375 
Q 8.59375 20.453125 8.59375 31.390625 
Q 8.59375 42.28125 12.203125 53.3125 
Q 15.828125 64.359375 23.1875 75.875 
z
" id="DejaVuSans-40"/>
      <path d="M 48.6875 27.296875 
Q 48.6875 37.203125 44.609375 42.84375 
Q 40.53125 48.484375 33.40625 48.484375 
Q 26.265625 48.484375 22.1875 42.84375 
Q 18.109375 37.203125 18.109375 27.296875 
Q 18.109375 17.390625 22.1875 11.75 
Q 26.265625 6.109375 33.40625 6.109375 
Q 40.53125 6.109375 44.609375 11.75 
Q 48.6875 17.390625 48.6875 27.296875 
z
M 18.109375 46.390625 
Q 20.953125 51.265625 25.265625 53.625 
Q 29.59375 56 35.59375 56 
Q 45.5625 56 51.78125 48.09375 
Q 58.015625 40.1875 58.015625 27.296875 
Q 58.015625 14.40625 51.78125 6.484375 
Q 45.5625 -1.421875 35.59375 -1.421875 
Q 29.59375 -1.421875 25.265625 0.953125 
Q 20.953125 3.328125 18.109375 8.203125 
L 18.109375 0 
L 9.078125 0 
L 9.078125 75.984375 
L 18.109375 75.984375 
z
" id="DejaVuSans-98"/>
      <path d="M 32.171875 -5.078125 
Q 28.375 -14.84375 24.75 -17.8125 
Q 21.140625 -20.796875 15.09375 -20.796875 
L 7.90625 -20.796875 
L 7.90625 -13.28125 
L 13.1875 -13.28125 
Q 16.890625 -13.28125 18.9375 -11.515625 
Q 21 -9.765625 23.484375 -3.21875 
L 25.09375 0.875 
L 2.984375 54.6875 
L 12.5 54.6875 
L 29.59375 11.921875 
L 46.6875 54.6875 
L 56.203125 54.6875 
z
" id="DejaVuSans-121"/>
      <path d="M 18.3125 70.21875 
L 18.3125 54.6875 
L 36.8125 54.6875 
L 36.8125 47.703125 
L 18.3125 47.703125 
L 18.3125 18.015625 
Q 18.3125 11.328125 20.140625 9.421875 
Q 21.96875 7.515625 27.59375 7.515625 
L 36.8125 7.515625 
L 36.8125 0 
L 27.59375 0 
Q 17.1875 0 13.234375 3.875 
Q 9.28125 7.765625 9.28125 18.015625 
L 9.28125 47.703125 
L 2.6875 47.703125 
L 2.6875 54.6875 
L 9.28125 54.6875 
L 9.28125 70.21875 
z
" id="DejaVuSans-116"/>
      <path d="M 44.28125 53.078125 
L 44.28125 44.578125 
Q 40.484375 46.53125 36.375 47.5 
Q 32.28125 48.484375 27.875 48.484375 
Q 21.1875 48.484375 17.84375 46.4375 
Q 14.5 44.390625 14.5 40.28125 
Q 14.5 37.15625 16.890625 35.375 
Q 19.28125 33.59375 26.515625 31.984375 
L 29.59375 31.296875 
Q 39.15625 29.25 43.1875 25.515625 
Q 47.21875 21.78125 47.21875 15.09375 
Q 47.21875 7.46875 41.1875 3.015625 
Q 35.15625 -1.421875 24.609375 -1.421875 
Q 20.21875 -1.421875 15.453125 -0.5625 
Q 10.6875 0.296875 5.421875 2 
L 5.421875 11.28125 
Q 10.40625 8.6875 15.234375 7.390625 
Q 20.0625 6.109375 24.8125 6.109375 
Q 31.15625 6.109375 34.5625 8.28125 
Q 37.984375 10.453125 37.984375 14.40625 
Q 37.984375 18.0625 35.515625 20.015625 
Q 33.0625 21.96875 24.703125 23.78125 
L 21.578125 24.515625 
Q 13.234375 26.265625 9.515625 29.90625 
Q 5.8125 33.546875 5.8125 39.890625 
Q 5.8125 47.609375 11.28125 51.796875 
Q 16.75 56 26.8125 56 
Q 31.78125 56 36.171875 55.265625 
Q 40.578125 54.546875 44.28125 53.078125 
z
" id="DejaVuSans-115"/>
      <path d="M 8.015625 75.875 
L 15.828125 75.875 
Q 23.140625 64.359375 26.78125 53.3125 
Q 30.421875 42.28125 30.421875 31.390625 
Q 30.421875 20.453125 26.78125 9.375 
Q 23.140625 -1.703125 15.828125 -13.1875 
L 8.015625 -13.1875 
Q 14.5 -2 17.703125 9.0625 
Q 20.90625 20.125 20.90625 31.390625 
Q 20.90625 42.671875 17.703125 53.65625 
Q 14.5 64.65625 8.015625 75.875 
z
" id="DejaVuSans-41"/>
     </defs>
     <g transform="translate(264.541875 413.64425)scale(0.12 -0.12)">
      <use xlink:href="#DejaVuSans-82"/>
      <use x="64.982422" xlink:href="#DejaVuSans-101"/>
      <use x="126.505859" xlink:href="#DejaVuSans-103"/>
      <use x="189.982422" xlink:href="#DejaVuSans-105"/>
      <use x="217.765625" xlink:href="#DejaVuSans-111"/>
      <use x="278.947266" xlink:href="#DejaVuSans-110"/>
      <use x="342.326172" xlink:href="#DejaVuSans-32"/>
      <use x="374.113281" xlink:href="#DejaVuSans-83"/>
      <use x="437.589844" xlink:href="#DejaVuSans-105"/>
      <use x="465.373047" xlink:href="#DejaVuSans-122"/>
      <use x="517.863281" xlink:href="#DejaVuSans-101"/>
      <use x="579.386719" xlink:href="#DejaVuSans-32"/>
      <use x="611.173828" xlink:href="#DejaVuSans-40"/>
      <use x="650.1875" xlink:href="#DejaVuSans-98"/>
      <use x="713.664062" xlink:href="#DejaVuSans-121"/>
      <use x="772.84375" xlink:href="#DejaVuSans-116"/>
      <use x="812.052734" xlink:href="#DejaVuSans-101"/>
      <use x="873.576172" xlink:href="#DejaVuSans-115"/>
      <use x="925.675781" xlink:href="#DejaVuSans-41"/>
     </g>
    </g>
   </g>
   <g id="matplotlib.axis_2">
    <g id="ytick_1">
     <g id="line2d_25">
      <defs>
       <path d="M 0 0 
L -3.5 0 
" id="m3a24eacd0e" style="stroke:#000000;stroke-width:0.8;"/>
      </defs>
      <g>
       <use style="stroke:#000000;stroke-width:0.8;" x="47.45" xlink:href="#m3a24eacd0e" y="383.848"/>
      </g>
     </g>
     <g id="text_5">
      <!-- 0 -->
      <g transform="translate(34.0875 387.647219)scale(0.1 -0.1)">
       <use xlink:href="#DejaVuSans-48"/>
      </g>
     </g>
    </g>
    <g id="ytick_2">
     <g id="line2d_26">
      <g>
       <use style="stroke:#000000;stroke-width:0.8;" x="47.45" xlink:href="#m3a24eacd0e" y="337.63855"/>
      </g>
     </g>
     <g id="text_6">
      <!-- 10 -->
      <g transform="translate(27.725 341.437769)scale(0.1 -0.1)">
       <use xlink:href="#DejaVuSans-49"/>
       <use x="63.623047" xlink:href="#DejaVuSans-48"/>
      </g>
     </g>
    </g>
    <g id="ytick_3">
     <g id="line2d_27">
      <g>
       <use style="stroke:#000000;stroke-width:0.8;" x="47.45" xlink:href="#m3a24eacd0e" y="291.4291"/>
      </g>
     </g>
     <g id="text_7">
      <!-- 20 -->
      <defs>
       <path d="M 19.1875 8.296875 
L 53.609375 8.296875 
L 53.609375 0 
L 7.328125 0 
L 7.328125 8.296875 
Q 12.9375 14.109375 22.625 23.890625 
Q 32.328125 33.6875 34.8125 36.53125 
Q 39.546875 41.84375 41.421875 45.53125 
Q 43.3125 49.21875 43.3125 52.78125 
Q 43.3125 58.59375 39.234375 62.25 
Q 35.15625 65.921875 28.609375 65.921875 
Q 23.96875 65.921875 18.8125 64.3125 
Q 13.671875 62.703125 7.8125 59.421875 
L 7.8125 69.390625 
Q 13.765625 71.78125 18.9375 73 
Q 24.125 74.21875 28.421875 74.21875 
Q 39.75 74.21875 46.484375 68.546875 
Q 53.21875 62.890625 53.21875 53.421875 
Q 53.21875 48.921875 51.53125 44.890625 
Q 49.859375 40.875 45.40625 35.40625 
Q 44.1875 33.984375 37.640625 27.21875 
Q 31.109375 20.453125 19.1875 8.296875 
z
" id="DejaVuSans-50"/>
      </defs>
      <g transform="translate(27.725 295.228319)scale(0.1 -0.1)">
       <use xlink:href="#DejaVuSans-50"/>
       <use x="63.623047" xlink:href="#DejaVuSans-48"/>
      </g>
     </g>
    </g>
    <g id="ytick_4">
     <g id="line2d_28">
      <g>
       <use style="stroke:#000000;stroke-width:0.8;" x="47.45" xlink:href="#m3a24eacd0e" y="245.21965"/>
      </g>
     </g>
     <g id="text_8">
      <!-- 30 -->
      <defs>
       <path d="M 40.578125 39.3125 
Q 47.65625 37.796875 51.625 33 
Q 55.609375 28.21875 55.609375 21.1875 
Q 55.609375 10.40625 48.1875 4.484375 
Q 40.765625 -1.421875 27.09375 -1.421875 
Q 22.515625 -1.421875 17.65625 -0.515625 
Q 12.796875 0.390625 7.625 2.203125 
L 7.625 11.71875 
Q 11.71875 9.328125 16.59375 8.109375 
Q 21.484375 6.890625 26.8125 6.890625 
Q 36.078125 6.890625 40.9375 10.546875 
Q 45.796875 14.203125 45.796875 21.1875 
Q 45.796875 27.640625 41.28125 31.265625 
Q 36.765625 34.90625 28.71875 34.90625 
L 20.21875 34.90625 
L 20.21875 43.015625 
L 29.109375 43.015625 
Q 36.375 43.015625 40.234375 45.921875 
Q 44.09375 48.828125 44.09375 54.296875 
Q 44.09375 59.90625 40.109375 62.90625 
Q 36.140625 65.921875 28.71875 65.921875 
Q 24.65625 65.921875 20.015625 65.03125 
Q 15.375 64.15625 9.8125 62.3125 
L 9.8125 71.09375 
Q 15.4375 72.65625 20.34375 73.4375 
Q 25.25 74.21875 29.59375 74.21875 
Q 40.828125 74.21875 47.359375 69.109375 
Q 53.90625 64.015625 53.90625 55.328125 
Q 53.90625 49.265625 50.4375 45.09375 
Q 46.96875 40.921875 40.578125 39.3125 
z
" id="DejaVuSans-51"/>
      </defs>
      <g transform="translate(27.725 249.018869)scale(0.1 -0.1)">
       <use xlink:href="#DejaVuSans-51"/>
       <use x="63.623047" xlink:href="#DejaVuSans-48"/>
      </g>
     </g>
    </g>
    <g id="ytick_5">
     <g id="line2d_29">
      <g>
       <use style="stroke:#000000;stroke-width:0.8;" x="47.45" xlink:href="#m3a24eacd0e" y="199.010201"/>
      </g>
     </g>
     <g id="text_9">
      <!-- 40 -->
      <defs>
       <path d="M 37.796875 64.3125 
L 12.890625 25.390625 
L 37.796875 25.390625 
z
M 35.203125 72.90625 
L 47.609375 72.90625 
L 47.609375 25.390625 
L 58.015625 25.390625 
L 58.015625 17.1875 
L 47.609375 17.1875 
L 47.609375 0 
L 37.796875 0 
L 37.796875 17.1875 
L 4.890625 17.1875 
L 4.890625 26.703125 
z
" id="DejaVuSans-52"/>
      </defs>
      <g transform="translate(27.725 202.809419)scale(0.1 -0.1)">
       <use xlink:href="#DejaVuSans-52"/>
       <use x="63.623047" xlink:href="#DejaVuSans-48"/>
      </g>
     </g>
    </g>
    <g id="ytick_6">
     <g id="line2d_30">
      <g>
       <use style="stroke:#000000;stroke-width:0.8;" x="47.45" xlink:href="#m3a24eacd0e" y="152.800751"/>
      </g>
     </g>
     <g id="text_10">
      <!-- 50 -->
      <g transform="translate(27.725 156.59997)scale(0.1 -0.1)">
       <use xlink:href="#DejaVuSans-53"/>
       <use x="63.623047" xlink:href="#DejaVuSans-48"/>
      </g>
     </g>
    </g>
    <g id="ytick_7">
     <g id="line2d_31">
      <g>
       <use style="stroke:#000000;stroke-width:0.8;" x="47.45" xlink:href="#m3a24eacd0e" y="106.591301"/>
      </g>
     </g>
     <g id="text_11">
      <!-- 60 -->
      <g transform="translate(27.725 110.39052)scale(0.1 -0.1)">
       <use xlink:href="#DejaVuSans-54"/>
       <use x="63.623047" xlink:href="#DejaVuSans-48"/>
      </g>
     </g>
    </g>
    <g id="ytick_8">
     <g id="line2d_32">
      <g>
       <use style="stroke:#000000;stroke-width:0.8;" x="47.45" xlink:href="#m3a24eacd0e" y="60.381851"/>
      </g>
     </g>
     <g id="text_12">
      <!-- 70 -->
      <g transform="translate(27.725 64.18107)scale(0.1 -0.1)">
       <use xlink:href="#DejaVuSans-55"/>
       <use x="63.623047" xlink:href="#DejaVuSans-48"/>
      </g>
     </g>
    </g>
    <g id="text_13">
     <!-- Fill Speed (GB/s) -->
     <defs>
      <path d="M 9.8125 72.90625 
L 51.703125 72.90625 
L 51.703125 64.59375 
L 19.671875 64.59375 
L 19.671875 43.109375 
L 48.578125 43.109375 
L 48.578125 34.8125 
L 19.671875 34.8125 
L 19.671875 0 
L 9.8125 0 
z
" id="DejaVuSans-70"/>
      <path d="M 9.421875 75.984375 
L 18.40625 75.984375 
L 18.40625 0 
L 9.421875 0 
z
" id="DejaVuSans-108"/>
      <path d="M 18.109375 8.203125 
L 18.109375 -20.796875 
L 9.078125 -20.796875 
L 9.078125 54.6875 
L 18.109375 54.6875 
L 18.109375 46.390625 
Q 20.953125 51.265625 25.265625 53.625 
Q 29.59375 56 35.59375 56 
Q 45.5625 56 51.78125 48.09375 
Q 58.015625 40.1875 58.015625 27.296875 
Q 58.015625 14.40625 51.78125 6.484375 
Q 45.5625 -1.421875 35.59375 -1.421875 
Q 29.59375 -1.421875 25.265625 0.953125 
Q 20.953125 3.328125 18.109375 8.203125 
z
M 48.6875 27.296875 
Q 48.6875 37.203125 44.609375 42.84375 
Q 40.53125 48.484375 33.40625 48.484375 
Q 26.265625 48.484375 22.1875 42.84375 
Q 18.109375 37.203125 18.109375 27.296875 
Q 18.109375 17.390625 22.1875 11.75 
Q 26.265625 6.109375 33.40625 6.109375 
Q 40.53125 6.109375 44.609375 11.75 
Q 48.6875 17.390625 48.6875 27.296875 
z
" id="DejaVuSans-112"/>
      <path d="M 45.40625 46.390625 
L 45.40625 75.984375 
L 54.390625 75.984375 
L 54.390625 0 
L 45.40625 0 
L 45.40625 8.203125 
Q 42.578125 3.328125 38.25 0.953125 
Q 33.9375 -1.421875 27.875 -1.421875 
Q 17.96875 -1.421875 11.734375 6.484375 
Q 5.515625 14.40625 5.515625 27.296875 
Q 5.515625 40.1875 11.734375 48.09375 
Q 17.96875 56 27.875 56 
Q 33.9375 56 38.25 53.625 
Q 42.578125 51.265625 45.40625 46.390625 
z
M 14.796875 27.296875 
Q 14.796875 17.390625 18.875 11.75 
Q 22.953125 6.109375 30.078125 6.109375 
Q 37.203125 6.109375 41.296875 11.75 
Q 45.40625 17.390625 45.40625 27.296875 
Q 45.40625 37.203125 41.296875 42.84375 
Q 37.203125 48.484375 30.078125 48.484375 
Q 22.953125 48.484375 18.875 42.84375 
Q 14.796875 37.203125 14.796875 27.296875 
z
" id="DejaVuSans-100"/>
      <path d="M 59.515625 10.40625 
L 59.515625 29.984375 
L 43.40625 29.984375 
L 43.40625 38.09375 
L 69.28125 38.09375 
L 69.28125 6.78125 
Q 63.578125 2.734375 56.6875 0.65625 
Q 49.8125 -1.421875 42 -1.421875 
Q 24.90625 -1.421875 15.25 8.5625 
Q 5.609375 18.5625 5.609375 36.375 
Q 5.609375 54.25 15.25 64.234375 
Q 24.90625 74.21875 42 74.21875 
Q 49.125 74.21875 55.546875 72.453125 
Q 61.96875 70.703125 67.390625 67.28125 
L 67.390625 56.78125 
Q 61.921875 61.421875 55.765625 63.765625 
Q 49.609375 66.109375 42.828125 66.109375 
Q 29.4375 66.109375 22.71875 58.640625 
Q 16.015625 51.171875 16.015625 36.375 
Q 16.015625 21.625 22.71875 14.15625 
Q 29.4375 6.6875 42.828125 6.6875 
Q 48.046875 6.6875 52.140625 7.59375 
Q 56.25 8.5 59.515625 10.40625 
z
" id="DejaVuSans-71"/>
      <path d="M 19.671875 34.8125 
L 19.671875 8.109375 
L 35.5 8.109375 
Q 43.453125 8.109375 47.28125 11.40625 
Q 51.125 14.703125 51.125 21.484375 
Q 51.125 28.328125 47.28125 31.5625 
Q 43.453125 34.8125 35.5 34.8125 
z
M 19.671875 64.796875 
L 19.671875 42.828125 
L 34.28125 42.828125 
Q 41.5 42.828125 45.03125 45.53125 
Q 48.578125 48.25 48.578125 53.8125 
Q 48.578125 59.328125 45.03125 62.0625 
Q 41.5 64.796875 34.28125 64.796875 
z
M 9.8125 72.90625 
L 35.015625 72.90625 
Q 46.296875 72.90625 52.390625 68.21875 
Q 58.5 63.53125 58.5 54.890625 
Q 58.5 48.1875 55.375 44.234375 
Q 52.25 40.28125 46.1875 39.3125 
Q 53.46875 37.75 57.5 32.78125 
Q 61.53125 27.828125 61.53125 20.40625 
Q 61.53125 10.640625 54.890625 5.3125 
Q 48.25 0 35.984375 0 
L 9.8125 0 
z
" id="DejaVuSans-66"/>
      <path d="M 25.390625 72.90625 
L 33.6875 72.90625 
L 8.296875 -9.28125 
L 0 -9.28125 
z
" id="DejaVuSans-47"/>
     </defs>
     <g transform="translate(21.229375 254.599625)rotate(-90)scale(0.12 -0.12)">
      <use xlink:href="#DejaVuSans-70"/>
      <use x="50.269531" xlink:href="#DejaVuSans-105"/>
      <use x="78.052734" xlink:href="#DejaVuSans-108"/>
      <use x="105.835938" xlink:href="#DejaVuSans-108"/>
      <use x="133.619141" xlink:href="#DejaVuSans-32"/>
      <use x="165.40625" xlink:href="#DejaVuSans-83"/>
      <use x="228.882812" xlink:href="#DejaVuSans-112"/>
      <use x="292.359375" xlink:href="#DejaVuSans-101"/>
      <use x="353.882812" xlink:href="#DejaVuSans-101"/>
      <use x="415.40625" xlink:href="#DejaVuSans-100"/>
      <use x="478.882812" xlink:href="#DejaVuSans-32"/>
      <use x="510.669922" xlink:href="#DejaVuSans-40"/>
      <use x="549.683594" xlink:href="#DejaVuSans-71"/>
      <use x="627.173828" xlink:href="#DejaVuSans-66"/>
      <use x="695.777344" xlink:href="#DejaVuSans-47"/>
      <use x="729.46875" xlink:href="#DejaVuSans-115"/>
      <use x="781.568359" xlink:href="#DejaVuSans-41"/>
     </g>
    </g>
   </g>
   <g id="line2d_33">
    <defs>
     <path d="M 0 4.5 
C 1.193414 4.5 2.338109 4.025852 3.181981 3.181981 
C 4.025852 2.338109 4.5 1.193414 4.5 0 
C 4.5 -1.193414 4.025852 -2.338109 3.181981 -3.181981 
C 2.338109 -4.025852 1.193414 -4.5 0 -4.5 
C -1.193414 -4.5 -2.338109 -4.025852 -3.181981 -3.181981 
C -4.025852 -2.338109 -4.5 -1.193414 -4.5 0 
C -4.5 1.193414 -4.025852 2.338109 -3.181981 3.181981 
C -2.338109 4.025852 -1.193414 4.5 0 4.5 
z
" id="m28e4334184"/>
    </defs>
    <g clip-path="url(#p393b8ef0be)">
     <use style="fill:#1f77b4;" x="72.447727" xlink:href="#m28e4334184" y="93.652655"/>
     <use style="fill:#1f77b4;" x="81.880903" xlink:href="#m28e4334184" y="93.652655"/>
     <use style="fill:#1f77b4;" x="91.314079" xlink:href="#m28e4334184" y="113.060624"/>
     <use style="fill:#1f77b4;" x="100.747255" xlink:href="#m28e4334184" y="89.493805"/>
     <use style="fill:#1f77b4;" x="110.178177" xlink:href="#m28e4334184" y="91.804277"/>
     <use style="fill:#1f77b4;" x="119.610943" xlink:href="#m28e4334184" y="93.652655"/>
     <use style="fill:#1f77b4;" x="129.045237" xlink:href="#m28e4334184" y="79.78982"/>
     <use style="fill:#1f77b4;" x="138.477397" xlink:href="#m28e4334184" y="81.176104"/>
     <use style="fill:#1f77b4;" x="147.910573" xlink:href="#m28e4334184" y="69.161647"/>
     <use style="fill:#1f77b4;" x="157.342909" xlink:href="#m28e4334184" y="83.486576"/>
     <use style="fill:#1f77b4;" x="166.776594" xlink:href="#m28e4334184" y="74.244686"/>
     <use style="fill:#1f77b4;" x="176.210926" xlink:href="#m28e4334184" y="71.472119"/>
     <use style="fill:#1f77b4;" x="185.64284" xlink:href="#m28e4334184" y="70.085836"/>
     <use style="fill:#1f77b4;" x="195.076972" xlink:href="#m28e4334184" y="69.623741"/>
     <use style="fill:#1f77b4;" x="204.509626" xlink:href="#m28e4334184" y="65.464891"/>
     <use style="fill:#1f77b4;" x="213.942644" xlink:href="#m28e4334184" y="65.464891"/>
     <use style="fill:#1f77b4;" x="223.374815" xlink:href="#m28e4334184" y="62.692324"/>
     <use style="fill:#1f77b4;" x="232.809035" xlink:href="#m28e4334184" y="60.843946"/>
     <use style="fill:#1f77b4;" x="242.241617" xlink:href="#m28e4334184" y="59.919757"/>
     <use style="fill:#1f77b4;" x="251.675225" xlink:href="#m28e4334184" y="65.002796"/>
     <use style="fill:#1f77b4;" x="261.107812" xlink:href="#m28e4334184" y="62.692324"/>
     <use style="fill:#1f77b4;" x="270.541077" xlink:href="#m28e4334184" y="61.768135"/>
     <use style="fill:#1f77b4;" x="279.974253" xlink:href="#m28e4334184" y="56.685095"/>
     <use style="fill:#1f77b4;" x="289.407429" xlink:href="#m28e4334184" y="39.125504"/>
     <use style="fill:#1f77b4;" x="298.840605" xlink:href="#m28e4334184" y="66.38908"/>
     <use style="fill:#1f77b4;" x="308.27372" xlink:href="#m28e4334184" y="87.645427"/>
     <use style="fill:#1f77b4;" x="317.706619" xlink:href="#m28e4334184" y="95.963128"/>
     <use style="fill:#1f77b4;" x="327.139996" xlink:href="#m28e4334184" y="106.591301"/>
     <use style="fill:#1f77b4;" x="336.573034" xlink:href="#m28e4334184" y="109.825962"/>
     <use style="fill:#1f77b4;" x="346.006335" xlink:href="#m28e4334184" y="110.288057"/>
     <use style="fill:#1f77b4;" x="355.439587" xlink:href="#m28e4334184" y="110.288057"/>
     <use style="fill:#1f77b4;" x="364.872694" xlink:href="#m28e4334184" y="110.750151"/>
     <use style="fill:#1f77b4;" x="374.305713" xlink:href="#m28e4334184" y="110.750151"/>
     <use style="fill:#1f77b4;" x="383.739031" xlink:href="#m28e4334184" y="110.750151"/>
     <use style="fill:#1f77b4;" x="393.172078" xlink:href="#m28e4334184" y="110.750151"/>
     <use style="fill:#1f77b4;" x="402.60523" xlink:href="#m28e4334184" y="110.288057"/>
     <use style="fill:#1f77b4;" x="412.038385" xlink:href="#m28e4334184" y="110.288057"/>
     <use style="fill:#1f77b4;" x="421.471502" xlink:href="#m28e4334184" y="110.288057"/>
     <use style="fill:#1f77b4;" x="430.904678" xlink:href="#m28e4334184" y="109.825962"/>
     <use style="fill:#1f77b4;" x="440.33795" xlink:href="#m28e4334184" y="109.825962"/>
     <use style="fill:#1f77b4;" x="449.770995" xlink:href="#m28e4334184" y="109.825962"/>
     <use style="fill:#1f77b4;" x="459.204264" xlink:href="#m28e4334184" y="110.288057"/>
     <use style="fill:#1f77b4;" x="468.637439" xlink:href="#m28e4334184" y="109.825962"/>
     <use style="fill:#1f77b4;" x="478.07056" xlink:href="#m28e4334184" y="121.378325"/>
     <use style="fill:#1f77b4;" x="487.503766" xlink:href="#m28e4334184" y="123.226703"/>
     <use style="fill:#1f77b4;" x="496.936906" xlink:href="#m28e4334184" y="133.392782"/>
     <use style="fill:#1f77b4;" x="506.370115" xlink:href="#m28e4334184" y="148.6419"/>
     <use style="fill:#1f77b4;" x="515.803231" xlink:href="#m28e4334184" y="163.428924"/>
     <use style="fill:#1f77b4;" x="525.236461" xlink:href="#m28e4334184" y="181.45061"/>
     <use style="fill:#1f77b4;" x="534.669612" xlink:href="#m28e4334184" y="205.479524"/>
     <use style="fill:#1f77b4;" x="544.102765" xlink:href="#m28e4334184" y="228.122154"/>
     <use style="fill:#1f77b4;" x="553.535962" xlink:href="#m28e4334184" y="247.068028"/>
     <use style="fill:#1f77b4;" x="562.96911" xlink:href="#m28e4334184" y="262.317147"/>
     <use style="fill:#1f77b4;" x="572.402273" xlink:href="#m28e4334184" y="274.793698"/>
    </g>
   </g>
   <g id="line2d_34">
    <defs>
     <path d="M 0 4.5 
C 1.193414 4.5 2.338109 4.025852 3.181981 3.181981 
C 4.025852 2.338109 4.5 1.193414 4.5 0 
C 4.5 -1.193414 4.025852 -2.338109 3.181981 -3.181981 
C 2.338109 -4.025852 1.193414 -4.5 0 -4.5 
C -1.193414 -4.5 -2.338109 -4.025852 -3.181981 -3.181981 
C -4.025852 -2.338109 -4.5 -1.193414 -4.5 0 
C -4.5 1.193414 -4.025852 2.338109 -3.181981 3.181981 
C -2.338109 4.025852 -1.193414 4.5 0 4.5 
z
" id="m370d512405"/>
    </defs>
    <g clip-path="url(#p393b8ef0be)">
     <use style="fill:#ff7f0e;" x="72.447727" xlink:href="#m370d512405" y="100.584072"/>
     <use style="fill:#ff7f0e;" x="81.880903" xlink:href="#m370d512405" y="101.970356"/>
     <use style="fill:#ff7f0e;" x="91.314079" xlink:href="#m370d512405" y="102.43245"/>
     <use style="fill:#ff7f0e;" x="100.747255" xlink:href="#m370d512405" y="98.735694"/>
     <use style="fill:#ff7f0e;" x="110.178177" xlink:href="#m370d512405" y="99.659883"/>
     <use style="fill:#ff7f0e;" x="119.610943" xlink:href="#m370d512405" y="96.887317"/>
     <use style="fill:#ff7f0e;" x="129.045237" xlink:href="#m370d512405" y="95.501033"/>
     <use style="fill:#ff7f0e;" x="138.477397" xlink:href="#m370d512405" y="97.349411"/>
     <use style="fill:#ff7f0e;" x="147.910573" xlink:href="#m370d512405" y="98.735694"/>
     <use style="fill:#ff7f0e;" x="157.342909" xlink:href="#m370d512405" y="90.417994"/>
     <use style="fill:#ff7f0e;" x="166.776594" xlink:href="#m370d512405" y="95.501033"/>
     <use style="fill:#ff7f0e;" x="176.210926" xlink:href="#m370d512405" y="95.038939"/>
     <use style="fill:#ff7f0e;" x="185.64284" xlink:href="#m370d512405" y="98.2736"/>
     <use style="fill:#ff7f0e;" x="195.076972" xlink:href="#m370d512405" y="95.501033"/>
     <use style="fill:#ff7f0e;" x="204.509626" xlink:href="#m370d512405" y="95.038939"/>
     <use style="fill:#ff7f0e;" x="213.942644" xlink:href="#m370d512405" y="94.576844"/>
     <use style="fill:#ff7f0e;" x="223.374815" xlink:href="#m370d512405" y="88.569616"/>
     <use style="fill:#ff7f0e;" x="232.809035" xlink:href="#m370d512405" y="97.811506"/>
     <use style="fill:#ff7f0e;" x="242.241617" xlink:href="#m370d512405" y="91.804277"/>
     <use style="fill:#ff7f0e;" x="251.675225" xlink:href="#m370d512405" y="90.417994"/>
     <use style="fill:#ff7f0e;" x="261.107812" xlink:href="#m370d512405" y="87.183332"/>
     <use style="fill:#ff7f0e;" x="270.541077" xlink:href="#m370d512405" y="95.038939"/>
     <use style="fill:#ff7f0e;" x="279.974253" xlink:href="#m370d512405" y="93.190561"/>
     <use style="fill:#ff7f0e;" x="289.407429" xlink:href="#m370d512405" y="85.334954"/>
     <use style="fill:#ff7f0e;" x="298.840605" xlink:href="#m370d512405" y="136.627443"/>
     <use style="fill:#ff7f0e;" x="308.27372" xlink:href="#m370d512405" y="143.096766"/>
     <use style="fill:#ff7f0e;" x="317.706619" xlink:href="#m370d512405" y="162.504735"/>
     <use style="fill:#ff7f0e;" x="327.139996" xlink:href="#m370d512405" y="166.201491"/>
     <use style="fill:#ff7f0e;" x="336.573034" xlink:href="#m370d512405" y="159.270074"/>
     <use style="fill:#ff7f0e;" x="346.006335" xlink:href="#m370d512405" y="165.739397"/>
     <use style="fill:#ff7f0e;" x="355.439587" xlink:href="#m370d512405" y="168.049869"/>
     <use style="fill:#ff7f0e;" x="364.872694" xlink:href="#m370d512405" y="163.428924"/>
     <use style="fill:#ff7f0e;" x="374.305713" xlink:href="#m370d512405" y="165.739397"/>
     <use style="fill:#ff7f0e;" x="383.739031" xlink:href="#m370d512405" y="170.822436"/>
     <use style="fill:#ff7f0e;" x="393.172078" xlink:href="#m370d512405" y="167.12568"/>
     <use style="fill:#ff7f0e;" x="402.60523" xlink:href="#m370d512405" y="164.353113"/>
     <use style="fill:#ff7f0e;" x="412.038385" xlink:href="#m370d512405" y="161.580546"/>
     <use style="fill:#ff7f0e;" x="421.471502" xlink:href="#m370d512405" y="167.12568"/>
     <use style="fill:#ff7f0e;" x="430.904678" xlink:href="#m370d512405" y="163.891019"/>
     <use style="fill:#ff7f0e;" x="440.33795" xlink:href="#m370d512405" y="159.732168"/>
     <use style="fill:#ff7f0e;" x="449.770995" xlink:href="#m370d512405" y="166.201491"/>
     <use style="fill:#ff7f0e;" x="459.204264" xlink:href="#m370d512405" y="162.042641"/>
     <use style="fill:#ff7f0e;" x="468.637439" xlink:href="#m370d512405" y="160.656357"/>
     <use style="fill:#ff7f0e;" x="478.07056" xlink:href="#m370d512405" y="172.670814"/>
     <use style="fill:#ff7f0e;" x="487.503766" xlink:href="#m370d512405" y="176.36757"/>
     <use style="fill:#ff7f0e;" x="496.936906" xlink:href="#m370d512405" y="179.140137"/>
     <use style="fill:#ff7f0e;" x="506.370115" xlink:href="#m370d512405" y="186.071555"/>
     <use style="fill:#ff7f0e;" x="515.803231" xlink:href="#m370d512405" y="197.161823"/>
     <use style="fill:#ff7f0e;" x="525.236461" xlink:href="#m370d512405" y="210.100469"/>
     <use style="fill:#ff7f0e;" x="534.669612" xlink:href="#m370d512405" y="226.273776"/>
     <use style="fill:#ff7f0e;" x="544.102765" xlink:href="#m370d512405" y="243.833367"/>
     <use style="fill:#ff7f0e;" x="553.535962" xlink:href="#m370d512405" y="259.54458"/>
     <use style="fill:#ff7f0e;" x="562.96911" xlink:href="#m370d512405" y="272.94532"/>
     <use style="fill:#ff7f0e;" x="572.402273" xlink:href="#m370d512405" y="284.035588"/>
    </g>
   </g>
   <g id="patch_4">
    <path d="M 47.45 383.848 
L 47.45 26.88 
" style="fill:none;stroke:#000000;stroke-linecap:square;stroke-linejoin:miter;stroke-width:0.8;"/>
   </g>
   <g id="patch_5">
    <path d="M 597.4 383.848 
L 597.4 26.88 
" style="fill:none;stroke:#000000;stroke-linecap:square;stroke-linejoin:miter;stroke-width:0.8;"/>
   </g>
   <g id="patch_6">
    <path d="M 47.45 383.848 
L 597.4 383.848 
" style="fill:none;stroke:#000000;stroke-linecap:square;stroke-linejoin:miter;stroke-width:0.8;"/>
   </g>
   <g id="patch_7">
    <path d="M 47.45 26.88 
L 597.4 26.88 
" style="fill:none;stroke:#000000;stroke-linecap:square;stroke-linejoin:miter;stroke-width:0.8;"/>
   </g>
   <g id="text_14">
    <!-- L2 -->
    <defs>
     <path d="M 9.8125 72.90625 
L 19.671875 72.90625 
L 19.671875 8.296875 
L 55.171875 8.296875 
L 55.171875 0 
L 9.8125 0 
z
" id="DejaVuSans-76"/>
    </defs>
    <g transform="translate(157.916552 349.653007)scale(0.2 -0.2)">
     <use xlink:href="#DejaVuSans-76"/>
     <use x="55.712891" xlink:href="#DejaVuSans-50"/>
    </g>
   </g>
   <g id="text_15">
    <!-- L3 -->
    <g transform="translate(398.027602 349.653007)scale(0.2 -0.2)">
     <use xlink:href="#DejaVuSans-76"/>
     <use x="55.712891" xlink:href="#DejaVuSans-51"/>
    </g>
   </g>
   <g id="text_16">
    <!-- RAM -->
    <defs>
     <path d="M 34.1875 63.1875 
L 20.796875 26.90625 
L 47.609375 26.90625 
z
M 28.609375 72.90625 
L 39.796875 72.90625 
L 67.578125 0 
L 57.328125 0 
L 50.6875 18.703125 
L 17.828125 18.703125 
L 11.1875 0 
L 0.78125 0 
z
" id="DejaVuSans-65"/>
     <path d="M 9.8125 72.90625 
L 24.515625 72.90625 
L 43.109375 23.296875 
L 61.8125 72.90625 
L 76.515625 72.90625 
L 76.515625 0 
L 66.890625 0 
L 66.890625 64.015625 
L 48.09375 14.015625 
L 38.1875 14.015625 
L 19.390625 64.015625 
L 19.390625 0 
L 9.8125 0 
z
" id="DejaVuSans-77"/>
    </defs>
    <g transform="translate(543.148737 349.653007)scale(0.2 -0.2)">
     <use xlink:href="#DejaVuSans-82"/>
     <use x="65.482422" xlink:href="#DejaVuSans-65"/>
     <use x="133.890625" xlink:href="#DejaVuSans-77"/>
    </g>
   </g>
   <g id="text_17">
    <!-- Ice Lake Fill : 256 vs 512 L2 Lines Out -->
    <defs>
     <path d="M 9.8125 72.90625 
L 19.671875 72.90625 
L 19.671875 0 
L 9.8125 0 
z
" id="DejaVuSans-73"/>
     <path d="M 48.78125 52.59375 
L 48.78125 44.1875 
Q 44.96875 46.296875 41.140625 47.34375 
Q 37.3125 48.390625 33.40625 48.390625 
Q 24.65625 48.390625 19.8125 42.84375 
Q 14.984375 37.3125 14.984375 27.296875 
Q 14.984375 17.28125 19.8125 11.734375 
Q 24.65625 6.203125 33.40625 6.203125 
Q 37.3125 6.203125 41.140625 7.25 
Q 44.96875 8.296875 48.78125 10.40625 
L 48.78125 2.09375 
Q 45.015625 0.34375 40.984375 -0.53125 
Q 36.96875 -1.421875 32.421875 -1.421875 
Q 20.0625 -1.421875 12.78125 6.34375 
Q 5.515625 14.109375 5.515625 27.296875 
Q 5.515625 40.671875 12.859375 48.328125 
Q 20.21875 56 33.015625 56 
Q 37.15625 56 41.109375 55.140625 
Q 45.0625 54.296875 48.78125 52.59375 
z
" id="DejaVuSans-99"/>
     <path d="M 34.28125 27.484375 
Q 23.390625 27.484375 19.1875 25 
Q 14.984375 22.515625 14.984375 16.5 
Q 14.984375 11.71875 18.140625 8.90625 
Q 21.296875 6.109375 26.703125 6.109375 
Q 34.1875 6.109375 38.703125 11.40625 
Q 43.21875 16.703125 43.21875 25.484375 
L 43.21875 27.484375 
z
M 52.203125 31.203125 
L 52.203125 0 
L 43.21875 0 
L 43.21875 8.296875 
Q 40.140625 3.328125 35.546875 0.953125 
Q 30.953125 -1.421875 24.3125 -1.421875 
Q 15.921875 -1.421875 10.953125 3.296875 
Q 6 8.015625 6 15.921875 
Q 6 25.140625 12.171875 29.828125 
Q 18.359375 34.515625 30.609375 34.515625 
L 43.21875 34.515625 
L 43.21875 35.40625 
Q 43.21875 41.609375 39.140625 45 
Q 35.0625 48.390625 27.6875 48.390625 
Q 23 48.390625 18.546875 47.265625 
Q 14.109375 46.140625 10.015625 43.890625 
L 10.015625 52.203125 
Q 14.9375 54.109375 19.578125 55.046875 
Q 24.21875 56 28.609375 56 
Q 40.484375 56 46.34375 49.84375 
Q 52.203125 43.703125 52.203125 31.203125 
z
" id="DejaVuSans-97"/>
     <path d="M 9.078125 75.984375 
L 18.109375 75.984375 
L 18.109375 31.109375 
L 44.921875 54.6875 
L 56.390625 54.6875 
L 27.390625 29.109375 
L 57.625 0 
L 45.90625 0 
L 18.109375 26.703125 
L 18.109375 0 
L 9.078125 0 
z
" id="DejaVuSans-107"/>
     <path d="M 11.71875 12.40625 
L 22.015625 12.40625 
L 22.015625 0 
L 11.71875 0 
z
M 11.71875 51.703125 
L 22.015625 51.703125 
L 22.015625 39.3125 
L 11.71875 39.3125 
z
" id="DejaVuSans-58"/>
     <path d="M 2.984375 54.6875 
L 12.5 54.6875 
L 29.59375 8.796875 
L 46.6875 54.6875 
L 56.203125 54.6875 
L 35.6875 0 
L 23.484375 0 
z
" id="DejaVuSans-118"/>
     <path d="M 39.40625 66.21875 
Q 28.65625 66.21875 22.328125 58.203125 
Q 16.015625 50.203125 16.015625 36.375 
Q 16.015625 22.609375 22.328125 14.59375 
Q 28.65625 6.59375 39.40625 6.59375 
Q 50.140625 6.59375 56.421875 14.59375 
Q 62.703125 22.609375 62.703125 36.375 
Q 62.703125 50.203125 56.421875 58.203125 
Q 50.140625 66.21875 39.40625 66.21875 
z
M 39.40625 74.21875 
Q 54.734375 74.21875 63.90625 63.9375 
Q 73.09375 53.65625 73.09375 36.375 
Q 73.09375 19.140625 63.90625 8.859375 
Q 54.734375 -1.421875 39.40625 -1.421875 
Q 24.03125 -1.421875 14.8125 8.828125 
Q 5.609375 19.09375 5.609375 36.375 
Q 5.609375 53.65625 14.8125 63.9375 
Q 24.03125 74.21875 39.40625 74.21875 
z
" id="DejaVuSans-79"/>
     <path d="M 8.5 21.578125 
L 8.5 54.6875 
L 17.484375 54.6875 
L 17.484375 21.921875 
Q 17.484375 14.15625 20.5 10.265625 
Q 23.53125 6.390625 29.59375 6.390625 
Q 36.859375 6.390625 41.078125 11.03125 
Q 45.3125 15.671875 45.3125 23.6875 
L 45.3125 54.6875 
L 54.296875 54.6875 
L 54.296875 0 
L 45.3125 0 
L 45.3125 8.40625 
Q 42.046875 3.421875 37.71875 1 
Q 33.40625 -1.421875 27.6875 -1.421875 
Q 18.265625 -1.421875 13.375 4.4375 
Q 8.5 10.296875 8.5 21.578125 
z
M 31.109375 56 
z
" id="DejaVuSans-117"/>
    </defs>
    <g transform="translate(209.245312 20.88)scale(0.12 -0.12)">
     <use xlink:href="#DejaVuSans-73"/>
     <use x="29.492188" xlink:href="#DejaVuSans-99"/>
     <use x="84.472656" xlink:href="#DejaVuSans-101"/>
     <use x="145.996094" xlink:href="#DejaVuSans-32"/>
     <use x="177.783203" xlink:href="#DejaVuSans-76"/>
     <use x="233.496094" xlink:href="#DejaVuSans-97"/>
     <use x="294.775391" xlink:href="#DejaVuSans-107"/>
     <use x="349.060547" xlink:href="#DejaVuSans-101"/>
     <use x="410.583984" xlink:href="#DejaVuSans-32"/>
     <use x="442.371094" xlink:href="#DejaVuSans-70"/>
     <use x="492.640625" xlink:href="#DejaVuSans-105"/>
     <use x="520.423828" xlink:href="#DejaVuSans-108"/>
     <use x="548.207031" xlink:href="#DejaVuSans-108"/>
     <use x="575.990234" xlink:href="#DejaVuSans-32"/>
     <use x="607.777344" xlink:href="#DejaVuSans-58"/>
     <use x="641.46875" xlink:href="#DejaVuSans-32"/>
     <use x="673.255859" xlink:href="#DejaVuSans-50"/>
     <use x="736.878906" xlink:href="#DejaVuSans-53"/>
     <use x="800.501953" xlink:href="#DejaVuSans-54"/>
     <use x="864.125" xlink:href="#DejaVuSans-32"/>
     <use x="895.912109" xlink:href="#DejaVuSans-118"/>
     <use x="955.091797" xlink:href="#DejaVuSans-115"/>
     <use x="1007.191406" xlink:href="#DejaVuSans-32"/>
     <use x="1038.978516" xlink:href="#DejaVuSans-53"/>
     <use x="1102.601562" xlink:href="#DejaVuSans-49"/>
     <use x="1166.224609" xlink:href="#DejaVuSans-50"/>
     <use x="1229.847656" xlink:href="#DejaVuSans-32"/>
     <use x="1261.634766" xlink:href="#DejaVuSans-76"/>
     <use x="1317.347656" xlink:href="#DejaVuSans-50"/>
     <use x="1380.970703" xlink:href="#DejaVuSans-32"/>
     <use x="1412.757812" xlink:href="#DejaVuSans-76"/>
     <use x="1468.470703" xlink:href="#DejaVuSans-105"/>
     <use x="1496.253906" xlink:href="#DejaVuSans-110"/>
     <use x="1559.632812" xlink:href="#DejaVuSans-101"/>
     <use x="1621.15625" xlink:href="#DejaVuSans-115"/>
     <use x="1673.255859" xlink:href="#DejaVuSans-32"/>
     <use x="1705.042969" xlink:href="#DejaVuSans-79"/>
     <use x="1783.753906" xlink:href="#DejaVuSans-117"/>
     <use x="1847.132812" xlink:href="#DejaVuSans-116"/>
    </g>
   </g>
   <g id="legend_1">
    <g id="patch_8">
     <path d="M 54.45 221.82025 
L 128.754688 221.82025 
Q 130.754688 221.82025 130.754688 219.82025 
L 130.754688 190.90775 
Q 130.754688 188.90775 128.754688 188.90775 
L 54.45 188.90775 
Q 52.45 188.90775 52.45 190.90775 
L 52.45 219.82025 
Q 52.45 221.82025 54.45 221.82025 
z
" style="fill:#ffffff;opacity:0.8;stroke:#cccccc;stroke-linejoin:miter;"/>
    </g>
    <g id="line2d_35"/>
    <g id="line2d_36">
     <g>
      <use style="fill:#1f77b4;" x="66.45" xlink:href="#m28e4334184" y="197.006188"/>
     </g>
    </g>
    <g id="text_18">
     <!-- fill256_0 -->
     <defs>
      <path d="M 37.109375 75.984375 
L 37.109375 68.5 
L 28.515625 68.5 
Q 23.6875 68.5 21.796875 66.546875 
Q 19.921875 64.59375 19.921875 59.515625 
L 19.921875 54.6875 
L 34.71875 54.6875 
L 34.71875 47.703125 
L 19.921875 47.703125 
L 19.921875 0 
L 10.890625 0 
L 10.890625 47.703125 
L 2.296875 47.703125 
L 2.296875 54.6875 
L 10.890625 54.6875 
L 10.890625 58.5 
Q 10.890625 67.625 15.140625 71.796875 
Q 19.390625 75.984375 28.609375 75.984375 
z
" id="DejaVuSans-102"/>
      <path d="M 50.984375 -16.609375 
L 50.984375 -23.578125 
L -0.984375 -23.578125 
L -0.984375 -16.609375 
z
" id="DejaVuSans-95"/>
     </defs>
     <g transform="translate(84.45 200.506188)scale(0.1 -0.1)">
      <use xlink:href="#DejaVuSans-102"/>
      <use x="35.205078" xlink:href="#DejaVuSans-105"/>
      <use x="62.988281" xlink:href="#DejaVuSans-108"/>
      <use x="90.771484" xlink:href="#DejaVuSans-108"/>
      <use x="118.554688" xlink:href="#DejaVuSans-50"/>
      <use x="182.177734" xlink:href="#DejaVuSans-53"/>
      <use x="245.800781" xlink:href="#DejaVuSans-54"/>
      <use x="309.423828" xlink:href="#DejaVuSans-95"/>
      <use x="359.423828" xlink:href="#DejaVuSans-48"/>
     </g>
    </g>
    <g id="line2d_37"/>
    <g id="line2d_38">
     <g>
      <use style="fill:#ff7f0e;" x="66.45" xlink:href="#m370d512405" y="211.962438"/>
     </g>
    </g>
    <g id="text_19">
     <!-- fill512_0 -->
     <g transform="translate(84.45 215.462438)scale(0.1 -0.1)">
      <use xlink:href="#DejaVuSans-102"/>
      <use x="35.205078" xlink:href="#DejaVuSans-105"/>
      <use x="62.988281" xlink:href="#DejaVuSans-108"/>
      <use x="90.771484" xlink:href="#DejaVuSans-108"/>
      <use x="118.554688" xlink:href="#DejaVuSans-53"/>
      <use x="182.177734" xlink:href="#DejaVuSans-49"/>
      <use x="245.800781" xlink:href="#DejaVuSans-50"/>
      <use x="309.423828" xlink:href="#DejaVuSans-95"/>
      <use x="359.423828" xlink:href="#DejaVuSans-48"/>
     </g>
    </g>
   </g>
  </g>
  <g id="axes_2">
   <g id="matplotlib.axis_3">
    <g id="ytick_9">
     <g id="line2d_39">
      <defs>
       <path d="M 0 0 
L 3.5 0 
" id="mb351d7cc89" style="stroke:#000000;stroke-width:0.8;"/>
      </defs>
      <g>
       <use style="stroke:#000000;stroke-width:0.8;" x="597.4" xlink:href="#mb351d7cc89" y="367.622182"/>
      </g>
     </g>
     <g id="text_20">
      <!-- 0.0 -->
      <defs>
       <path d="M 10.6875 12.40625 
L 21 12.40625 
L 21 0 
L 10.6875 0 
z
" id="DejaVuSans-46"/>
      </defs>
      <g transform="translate(604.4 371.421401)scale(0.1 -0.1)">
       <use xlink:href="#DejaVuSans-48"/>
       <use x="63.623047" xlink:href="#DejaVuSans-46"/>
       <use x="95.410156" xlink:href="#DejaVuSans-48"/>
      </g>
     </g>
    </g>
    <g id="ytick_10">
     <g id="line2d_40">
      <g>
       <use style="stroke:#000000;stroke-width:0.8;" x="597.4" xlink:href="#mb351d7cc89" y="300.014606"/>
      </g>
     </g>
     <g id="text_21">
      <!-- 0.2 -->
      <g transform="translate(604.4 303.813825)scale(0.1 -0.1)">
       <use xlink:href="#DejaVuSans-48"/>
       <use x="63.623047" xlink:href="#DejaVuSans-46"/>
       <use x="95.410156" xlink:href="#DejaVuSans-50"/>
      </g>
     </g>
    </g>
    <g id="ytick_11">
     <g id="line2d_41">
      <g>
       <use style="stroke:#000000;stroke-width:0.8;" x="597.4" xlink:href="#mb351d7cc89" y="232.40703"/>
      </g>
     </g>
     <g id="text_22">
      <!-- 0.4 -->
      <g transform="translate(604.4 236.206249)scale(0.1 -0.1)">
       <use xlink:href="#DejaVuSans-48"/>
       <use x="63.623047" xlink:href="#DejaVuSans-46"/>
       <use x="95.410156" xlink:href="#DejaVuSans-52"/>
      </g>
     </g>
    </g>
    <g id="ytick_12">
     <g id="line2d_42">
      <g>
       <use style="stroke:#000000;stroke-width:0.8;" x="597.4" xlink:href="#mb351d7cc89" y="164.799455"/>
      </g>
     </g>
     <g id="text_23">
      <!-- 0.6 -->
      <g transform="translate(604.4 168.598673)scale(0.1 -0.1)">
       <use xlink:href="#DejaVuSans-48"/>
       <use x="63.623047" xlink:href="#DejaVuSans-46"/>
       <use x="95.410156" xlink:href="#DejaVuSans-54"/>
      </g>
     </g>
    </g>
    <g id="ytick_13">
     <g id="line2d_43">
      <g>
       <use style="stroke:#000000;stroke-width:0.8;" x="597.4" xlink:href="#mb351d7cc89" y="97.191879"/>
      </g>
     </g>
     <g id="text_24">
      <!-- 0.8 -->
      <defs>
       <path d="M 31.78125 34.625 
Q 24.75 34.625 20.71875 30.859375 
Q 16.703125 27.09375 16.703125 20.515625 
Q 16.703125 13.921875 20.71875 10.15625 
Q 24.75 6.390625 31.78125 6.390625 
Q 38.8125 6.390625 42.859375 10.171875 
Q 46.921875 13.96875 46.921875 20.515625 
Q 46.921875 27.09375 42.890625 30.859375 
Q 38.875 34.625 31.78125 34.625 
z
M 21.921875 38.8125 
Q 15.578125 40.375 12.03125 44.71875 
Q 8.5 49.078125 8.5 55.328125 
Q 8.5 64.0625 14.71875 69.140625 
Q 20.953125 74.21875 31.78125 74.21875 
Q 42.671875 74.21875 48.875 69.140625 
Q 55.078125 64.0625 55.078125 55.328125 
Q 55.078125 49.078125 51.53125 44.71875 
Q 48 40.375 41.703125 38.8125 
Q 48.828125 37.15625 52.796875 32.3125 
Q 56.78125 27.484375 56.78125 20.515625 
Q 56.78125 9.90625 50.3125 4.234375 
Q 43.84375 -1.421875 31.78125 -1.421875 
Q 19.734375 -1.421875 13.25 4.234375 
Q 6.78125 9.90625 6.78125 20.515625 
Q 6.78125 27.484375 10.78125 32.3125 
Q 14.796875 37.15625 21.921875 38.8125 
z
M 18.3125 54.390625 
Q 18.3125 48.734375 21.84375 45.5625 
Q 25.390625 42.390625 31.78125 42.390625 
Q 38.140625 42.390625 41.71875 45.5625 
Q 45.3125 48.734375 45.3125 54.390625 
Q 45.3125 60.0625 41.71875 63.234375 
Q 38.140625 66.40625 31.78125 66.40625 
Q 25.390625 66.40625 21.84375 63.234375 
Q 18.3125 60.0625 18.3125 54.390625 
z
" id="DejaVuSans-56"/>
      </defs>
      <g transform="translate(604.4 100.991098)scale(0.1 -0.1)">
       <use xlink:href="#DejaVuSans-48"/>
       <use x="63.623047" xlink:href="#DejaVuSans-46"/>
       <use x="95.410156" xlink:href="#DejaVuSans-56"/>
      </g>
     </g>
    </g>
    <g id="ytick_14">
     <g id="line2d_44">
      <g>
       <use style="stroke:#000000;stroke-width:0.8;" x="597.4" xlink:href="#mb351d7cc89" y="29.584303"/>
      </g>
     </g>
     <g id="text_25">
      <!-- 1.0 -->
      <g transform="translate(604.4 33.383522)scale(0.1 -0.1)">
       <use xlink:href="#DejaVuSans-49"/>
       <use x="63.623047" xlink:href="#DejaVuSans-46"/>
       <use x="95.410156" xlink:href="#DejaVuSans-48"/>
      </g>
     </g>
    </g>
    <g id="text_26">
     <!-- Events / Cacheline -->
     <defs>
      <path d="M 9.8125 72.90625 
L 55.90625 72.90625 
L 55.90625 64.59375 
L 19.671875 64.59375 
L 19.671875 43.015625 
L 54.390625 43.015625 
L 54.390625 34.71875 
L 19.671875 34.71875 
L 19.671875 8.296875 
L 56.78125 8.296875 
L 56.78125 0 
L 9.8125 0 
z
" id="DejaVuSans-69"/>
      <path d="M 64.40625 67.28125 
L 64.40625 56.890625 
Q 59.421875 61.53125 53.78125 63.8125 
Q 48.140625 66.109375 41.796875 66.109375 
Q 29.296875 66.109375 22.65625 58.46875 
Q 16.015625 50.828125 16.015625 36.375 
Q 16.015625 21.96875 22.65625 14.328125 
Q 29.296875 6.6875 41.796875 6.6875 
Q 48.140625 6.6875 53.78125 8.984375 
Q 59.421875 11.28125 64.40625 15.921875 
L 64.40625 5.609375 
Q 59.234375 2.09375 53.4375 0.328125 
Q 47.65625 -1.421875 41.21875 -1.421875 
Q 24.65625 -1.421875 15.125 8.703125 
Q 5.609375 18.84375 5.609375 36.375 
Q 5.609375 53.953125 15.125 64.078125 
Q 24.65625 74.21875 41.21875 74.21875 
Q 47.75 74.21875 53.53125 72.484375 
Q 59.328125 70.75 64.40625 67.28125 
z
" id="DejaVuSans-67"/>
      <path d="M 54.890625 33.015625 
L 54.890625 0 
L 45.90625 0 
L 45.90625 32.71875 
Q 45.90625 40.484375 42.875 44.328125 
Q 39.84375 48.1875 33.796875 48.1875 
Q 26.515625 48.1875 22.3125 43.546875 
Q 18.109375 38.921875 18.109375 30.90625 
L 18.109375 0 
L 9.078125 0 
L 9.078125 75.984375 
L 18.109375 75.984375 
L 18.109375 46.1875 
Q 21.34375 51.125 25.703125 53.5625 
Q 30.078125 56 35.796875 56 
Q 45.21875 56 50.046875 50.171875 
Q 54.890625 44.34375 54.890625 33.015625 
z
" id="DejaVuSans-104"/>
     </defs>
     <g transform="translate(633.42125 261.001813)rotate(-90)scale(0.12 -0.12)">
      <use xlink:href="#DejaVuSans-69"/>
      <use x="63.183594" xlink:href="#DejaVuSans-118"/>
      <use x="122.363281" xlink:href="#DejaVuSans-101"/>
      <use x="183.886719" xlink:href="#DejaVuSans-110"/>
      <use x="247.265625" xlink:href="#DejaVuSans-116"/>
      <use x="286.474609" xlink:href="#DejaVuSans-115"/>
      <use x="338.574219" xlink:href="#DejaVuSans-32"/>
      <use x="370.361328" xlink:href="#DejaVuSans-47"/>
      <use x="404.052734" xlink:href="#DejaVuSans-32"/>
      <use x="435.839844" xlink:href="#DejaVuSans-67"/>
      <use x="505.664062" xlink:href="#DejaVuSans-97"/>
      <use x="566.943359" xlink:href="#DejaVuSans-99"/>
      <use x="621.923828" xlink:href="#DejaVuSans-104"/>
      <use x="685.302734" xlink:href="#DejaVuSans-101"/>
      <use x="746.826172" xlink:href="#DejaVuSans-108"/>
      <use x="774.609375" xlink:href="#DejaVuSans-105"/>
      <use x="802.392578" xlink:href="#DejaVuSans-110"/>
      <use x="865.771484" xlink:href="#DejaVuSans-101"/>
     </g>
    </g>
   </g>
   <g id="line2d_45">
    <path clip-path="url(#p393b8ef0be)" d="M 72.447727 367.622182 
L 81.880903 367.622182 
L 91.314079 367.622182 
L 100.747255 367.622182 
L 110.178177 367.622182 
L 119.610943 367.622182 
L 129.045237 367.622182 
L 138.477397 367.622182 
L 147.910573 367.622182 
L 157.342909 367.622182 
L 166.776594 367.622182 
L 176.210926 367.622182 
L 185.64284 367.622182 
L 195.076972 367.622182 
L 204.509626 367.622182 
L 213.942644 367.622182 
L 223.374815 367.622182 
L 232.809035 367.622182 
L 242.241617 367.622182 
L 251.675225 367.622182 
L 261.107812 367.622182 
L 270.541077 367.622182 
L 279.974253 367.622182 
L 289.407429 327.057636 
L 298.840605 212.124758 
L 308.27372 141.136803 
L 317.706619 93.8115 
L 327.139996 63.388091 
L 336.573034 53.246955 
L 346.006335 49.866576 
L 355.439587 46.486197 
L 364.872694 43.105818 
L 374.305713 43.105818 
L 383.739031 43.105818 
L 393.172078 43.105818 
L 402.60523 43.105818 
L 412.038385 43.105818 
L 421.471502 43.105818 
L 430.904678 43.105818 
L 440.33795 43.105818 
L 449.770995 43.105818 
L 459.204264 43.105818 
L 468.637439 43.105818 
L 478.07056 49.866576 
L 487.503766 49.866576 
L 496.936906 53.246955 
L 506.370115 63.388091 
L 515.803231 73.529227 
L 525.236461 83.670364 
L 534.669612 107.333015 
L 544.102765 130.995667 
L 553.535962 154.658318 
L 562.96911 178.32097 
L 572.402273 201.983621 
" style="fill:none;stroke:#2ca02c;stroke-linecap:square;stroke-width:1.5;"/>
   </g>
   <g id="line2d_46">
    <path clip-path="url(#p393b8ef0be)" d="M 72.447727 367.622182 
L 81.880903 367.622182 
L 91.314079 367.622182 
L 100.747255 367.622182 
L 110.178177 367.622182 
L 119.610943 367.622182 
L 129.045237 367.622182 
L 138.477397 367.622182 
L 147.910573 367.622182 
L 157.342909 367.622182 
L 166.776594 367.622182 
L 176.210926 367.622182 
L 185.64284 367.622182 
L 195.076972 367.622182 
L 204.509626 367.622182 
L 213.942644 367.622182 
L 223.374815 367.622182 
L 232.809035 367.622182 
L 242.241617 367.622182 
L 251.675225 367.622182 
L 261.107812 367.622182 
L 270.541077 367.622182 
L 279.974253 367.622182 
L 289.407429 343.95953 
L 298.840605 296.634227 
L 308.27372 256.069682 
L 317.706619 212.124758 
L 327.139996 188.462106 
L 336.573034 191.842485 
L 346.006335 191.842485 
L 355.439587 178.32097 
L 364.872694 174.940591 
L 374.305713 185.081727 
L 383.739031 181.701348 
L 393.172078 178.32097 
L 402.60523 181.701348 
L 412.038385 178.32097 
L 421.471502 185.081727 
L 430.904678 178.32097 
L 440.33795 174.940591 
L 449.770995 178.32097 
L 459.204264 174.940591 
L 468.637439 171.560212 
L 478.07056 178.32097 
L 487.503766 181.701348 
L 496.936906 181.701348 
L 506.370115 185.081727 
L 515.803231 188.462106 
L 525.236461 195.222864 
L 534.669612 208.744379 
L 544.102765 222.265894 
L 553.535962 235.787409 
L 562.96911 249.308924 
L 572.402273 262.830439 
" style="fill:none;stroke:#d62728;stroke-linecap:square;stroke-width:1.5;"/>
   </g>
   <g id="patch_9">
    <path d="M 47.45 383.848 
L 47.45 26.88 
" style="fill:none;stroke:#000000;stroke-linecap:square;stroke-linejoin:miter;stroke-width:0.8;"/>
   </g>
   <g id="patch_10">
    <path d="M 597.4 383.848 
L 597.4 26.88 
" style="fill:none;stroke:#000000;stroke-linecap:square;stroke-linejoin:miter;stroke-width:0.8;"/>
   </g>
   <g id="patch_11">
    <path d="M 47.45 383.848 
L 597.4 383.848 
" style="fill:none;stroke:#000000;stroke-linecap:square;stroke-linejoin:miter;stroke-width:0.8;"/>
   </g>
   <g id="patch_12">
    <path d="M 47.45 26.88 
L 597.4 26.88 
" style="fill:none;stroke:#000000;stroke-linecap:square;stroke-linejoin:miter;stroke-width:0.8;"/>
   </g>
   <g id="legend_2">
    <g id="patch_13">
     <path d="M 352.952187 293.21385 
L 480.41 293.21385 
Q 482.41 293.21385 482.41 291.21385 
L 482.41 262.30135 
Q 482.41 260.30135 480.41 260.30135 
L 352.952187 260.30135 
Q 350.952187 260.30135 350.952187 262.30135 
L 350.952187 291.21385 
Q 350.952187 293.21385 352.952187 293.21385 
z
" style="fill:#ffffff;opacity:0.8;stroke:#cccccc;stroke-linejoin:miter;"/>
    </g>
    <g id="line2d_47">
     <path d="M 354.952187 268.399788 
L 374.952187 268.399788 
" style="fill:none;stroke:#2ca02c;stroke-linecap:square;stroke-width:1.5;"/>
    </g>
    <g id="line2d_48"/>
    <g id="text_27">
     <!-- fill256_0 : L2 Silent -->
     <g transform="translate(382.952187 271.899788)scale(0.1 -0.1)">
      <use xlink:href="#DejaVuSans-102"/>
      <use x="35.205078" xlink:href="#DejaVuSans-105"/>
      <use x="62.988281" xlink:href="#DejaVuSans-108"/>
      <use x="90.771484" xlink:href="#DejaVuSans-108"/>
      <use x="118.554688" xlink:href="#DejaVuSans-50"/>
      <use x="182.177734" xlink:href="#DejaVuSans-53"/>
      <use x="245.800781" xlink:href="#DejaVuSans-54"/>
      <use x="309.423828" xlink:href="#DejaVuSans-95"/>
      <use x="359.423828" xlink:href="#DejaVuSans-48"/>
      <use x="423.046875" xlink:href="#DejaVuSans-32"/>
      <use x="454.833984" xlink:href="#DejaVuSans-58"/>
      <use x="488.525391" xlink:href="#DejaVuSans-32"/>
      <use x="520.3125" xlink:href="#DejaVuSans-76"/>
      <use x="576.025391" xlink:href="#DejaVuSans-50"/>
      <use x="639.648438" xlink:href="#DejaVuSans-32"/>
      <use x="671.435547" xlink:href="#DejaVuSans-83"/>
      <use x="734.912109" xlink:href="#DejaVuSans-105"/>
      <use x="762.695312" xlink:href="#DejaVuSans-108"/>
      <use x="790.478516" xlink:href="#DejaVuSans-101"/>
      <use x="852.001953" xlink:href="#DejaVuSans-110"/>
      <use x="915.380859" xlink:href="#DejaVuSans-116"/>
     </g>
    </g>
    <g id="line2d_49">
     <path d="M 354.952187 283.356038 
L 374.952187 283.356038 
" style="fill:none;stroke:#d62728;stroke-linecap:square;stroke-width:1.5;"/>
    </g>
    <g id="line2d_50"/>
    <g id="text_28">
     <!-- fill512_0 : L2 Silent -->
     <g transform="translate(382.952187 286.856038)scale(0.1 -0.1)">
      <use xlink:href="#DejaVuSans-102"/>
      <use x="35.205078" xlink:href="#DejaVuSans-105"/>
      <use x="62.988281" xlink:href="#DejaVuSans-108"/>
      <use x="90.771484" xlink:href="#DejaVuSans-108"/>
      <use x="118.554688" xlink:href="#DejaVuSans-53"/>
      <use x="182.177734" xlink:href="#DejaVuSans-49"/>
      <use x="245.800781" xlink:href="#DejaVuSans-50"/>
      <use x="309.423828" xlink:href="#DejaVuSans-95"/>
      <use x="359.423828" xlink:href="#DejaVuSans-48"/>
      <use x="423.046875" xlink:href="#DejaVuSans-32"/>
      <use x="454.833984" xlink:href="#DejaVuSans-58"/>
      <use x="488.525391" xlink:href="#DejaVuSans-32"/>
      <use x="520.3125" xlink:href="#DejaVuSans-76"/>
      <use x="576.025391" xlink:href="#DejaVuSans-50"/>
      <use x="639.648438" xlink:href="#DejaVuSans-32"/>
      <use x="671.435547" xlink:href="#DejaVuSans-83"/>
      <use x="734.912109" xlink:href="#DejaVuSans-105"/>
      <use x="762.695312" xlink:href="#DejaVuSans-108"/>
      <use x="790.478516" xlink:href="#DejaVuSans-101"/>
      <use x="852.001953" xlink:href="#DejaVuSans-110"/>
      <use x="915.380859" xlink:href="#DejaVuSans-116"/>
     </g>
    </g>
   </g>
  </g>
 </g>
 <defs>
  <clipPath id="p393b8ef0be">
   <rect height="356.968" width="549.95" x="47.45" y="26.88"/>
  </clipPath>
 </defs>
</svg>
