<svg height="768" viewBox="0 0 864 576" width="1152" xmlns="http://www.w3.org/2000/svg" xmlns:xlink="http://www.w3.org/1999/xlink"><defs><style>*{stroke-linecap:butt;stroke-linejoin:round}</style></defs><g id="figure_1"><path d="M 0 576 L 864 576 L 864 0 L 0 0 z" fill="#fff" id="patch_1"/><g id="axes_1"><path d="M 50.87 525.04 L 848.16 525.04 L 848.16 26.88 L 50.87 26.88 z" fill="#fff" id="patch_2"/><g id="matplotlib.axis_1"><g id="xtick_1"><path clip-path="url(#p94fa6ca0f6)" d="M 50.87 525.04 L 50.87 26.88" fill="none" stroke="#b0b0b0" stroke-linecap="square" stroke-width=".8" id="line2d_1"/><g id="line2d_2"><defs><path d="M 0 0 L 0 3.5" id="mfc518bbc66" stroke="#000" stroke-width=".8"/></defs><use x="50.87" xlink:href="#mfc518bbc66" y="525.04" stroke="#000" stroke-width=".8"/></g><g id="text_1"><defs><path d="M 12.40625 8.296875 L 28.515625 8.296875 L 28.515625 63.921875 L 10.984375 60.40625 L 10.984375 69.390625 L 28.421875 72.90625 L 38.28125 72.90625 L 38.28125 8.296875 L 54.390625 8.296875 L 54.390625 0 L 12.40625 0 z" id="DejaVuSans-49"/><path d="M 19.1875 8.296875 L 53.609375 8.296875 L 53.609375 0 L 7.328125 0 L 7.328125 8.296875 Q 12.9375 14.109375 22.625 23.890625 Q 32.328125 33.6875 34.8125 36.53125 Q 39.546875 41.84375 41.421875 45.53125 Q 43.3125 49.21875 43.3125 52.78125 Q 43.3125 58.59375 39.234375 62.25 Q 35.15625 65.921875 28.609375 65.921875 Q 23.96875 65.921875 18.8125 64.3125 Q 13.671875 62.703125 7.8125 59.421875 L 7.8125 69.390625 Q 13.765625 71.78125 18.9375 73 Q 24.125 74.21875 28.421875 74.21875 Q 39.75 74.21875 46.484375 68.546875 Q 53.21875 62.890625 53.21875 53.421875 Q 53.21875 48.921875 51.53125 44.890625 Q 49.859375 40.875 45.40625 35.40625 Q 44.1875 33.984375 37.640625 27.21875 Q 31.109375 20.453125 19.1875 8.296875 z" id="DejaVuSans-50"/><path d="M 37.796875 64.3125 L 12.890625 25.390625 L 37.796875 25.390625 z M 35.203125 72.90625 L 47.609375 72.90625 L 47.609375 25.390625 L 58.015625 25.390625 L 58.015625 17.1875 L 47.609375 17.1875 L 47.609375 0 L 37.796875 0 L 37.796875 17.1875 L 4.890625 17.1875 L 4.890625 26.703125 z" id="DejaVuSans-52"/></defs><g transform="matrix(0 -.1 -.1 0 53.63 551.128)"><use xlink:href="#DejaVuSans-49"/><use x="63.623" xlink:href="#DejaVuSans-50"/><use x="127.246" xlink:href="#DejaVuSans-52"/></g></g></g><g id="xtick_2"><path clip-path="url(#p94fa6ca0f6)" d="M 100.700625 525.04 L 100.700625 26.88" fill="none" stroke="#b0b0b0" stroke-linecap="square" stroke-width=".8" id="line2d_3"/><use x="100.701" xlink:href="#mfc518bbc66" y="525.04" stroke="#000" stroke-width=".8" id="line2d_4"/><g id="text_2"><defs><path d="M 10.796875 72.90625 L 49.515625 72.90625 L 49.515625 64.59375 L 19.828125 64.59375 L 19.828125 46.734375 Q 21.96875 47.46875 24.109375 47.828125 Q 26.265625 48.1875 28.421875 48.1875 Q 40.625 48.1875 47.75 41.5 Q 54.890625 34.8125 54.890625 23.390625 Q 54.890625 11.625 47.5625 5.09375 Q 40.234375 -1.421875 26.90625 -1.421875 Q 22.3125 -1.421875 17.546875 -0.640625 Q 12.796875 0.140625 7.71875 1.703125 L 7.71875 11.625 Q 12.109375 9.234375 16.796875 8.0625 Q 21.484375 6.890625 26.703125 6.890625 Q 35.15625 6.890625 40.078125 11.328125 Q 45.015625 15.765625 45.015625 23.390625 Q 45.015625 31 40.078125 35.4375 Q 35.15625 39.890625 26.703125 39.890625 Q 22.75 39.890625 18.8125 39.015625 Q 14.890625 38.140625 10.796875 36.28125 z" id="DejaVuSans-53"/></defs><g transform="matrix(0 -.1 -.1 0 103.46 551.128)"><use xlink:href="#DejaVuSans-49"/><use x="63.623" xlink:href="#DejaVuSans-50"/><use x="127.246" xlink:href="#DejaVuSans-53"/></g></g></g><g id="xtick_3"><path clip-path="url(#p94fa6ca0f6)" d="M 150.53125 525.04 L 150.53125 26.88" fill="none" stroke="#b0b0b0" stroke-linecap="square" stroke-width=".8" id="line2d_5"/><use x="150.531" xlink:href="#mfc518bbc66" y="525.04" stroke="#000" stroke-width=".8" id="line2d_6"/><g id="text_3"><defs><path d="M 33.015625 40.375 Q 26.375 40.375 22.484375 35.828125 Q 18.609375 31.296875 18.609375 23.390625 Q 18.609375 15.53125 22.484375 10.953125 Q 26.375 6.390625 33.015625 6.390625 Q 39.65625 6.390625 43.53125 10.953125 Q 47.40625 15.53125 47.40625 23.390625 Q 47.40625 31.296875 43.53125 35.828125 Q 39.65625 40.375 33.015625 40.375 z M 52.59375 71.296875 L 52.59375 62.3125 Q 48.875 64.0625 45.09375 64.984375 Q 41.3125 65.921875 37.59375 65.921875 Q 27.828125 65.921875 22.671875 59.328125 Q 17.53125 52.734375 16.796875 39.40625 Q 19.671875 43.65625 24.015625 45.921875 Q 28.375 48.1875 33.59375 48.1875 Q 44.578125 48.1875 50.953125 41.515625 Q 57.328125 34.859375 57.328125 23.390625 Q 57.328125 12.15625 50.6875 5.359375 Q 44.046875 -1.421875 33.015625 -1.421875 Q 20.359375 -1.421875 13.671875 8.265625 Q 6.984375 17.96875 6.984375 36.375 Q 6.984375 53.65625 15.1875 63.9375 Q 23.390625 74.21875 37.203125 74.21875 Q 40.921875 74.21875 44.703125 73.484375 Q 48.484375 72.75 52.59375 71.296875 z" id="DejaVuSans-54"/></defs><g transform="matrix(0 -.1 -.1 0 153.29 551.128)"><use xlink:href="#DejaVuSans-49"/><use x="63.623" xlink:href="#DejaVuSans-50"/><use x="127.246" xlink:href="#DejaVuSans-54"/></g></g></g><g id="xtick_4"><path clip-path="url(#p94fa6ca0f6)" d="M 200.361875 525.04 L 200.361875 26.88" fill="none" stroke="#b0b0b0" stroke-linecap="square" stroke-width=".8" id="line2d_7"/><use x="200.362" xlink:href="#mfc518bbc66" y="525.04" stroke="#000" stroke-width=".8" id="line2d_8"/><g id="text_4"><defs><path d="M 8.203125 72.90625 L 55.078125 72.90625 L 55.078125 68.703125 L 28.609375 0 L 18.3125 0 L 43.21875 64.59375 L 8.203125 64.59375 z" id="DejaVuSans-55"/></defs><g transform="matrix(0 -.1 -.1 0 203.121 551.128)"><use xlink:href="#DejaVuSans-49"/><use x="63.623" xlink:href="#DejaVuSans-50"/><use x="127.246" xlink:href="#DejaVuSans-55"/></g></g></g><g id="xtick_5"><path clip-path="url(#p94fa6ca0f6)" d="M 250.1925 525.04 L 250.1925 26.88" fill="none" stroke="#b0b0b0" stroke-linecap="square" stroke-width=".8" id="line2d_9"/><use x="250.192" xlink:href="#mfc518bbc66" y="525.04" stroke="#000" stroke-width=".8" id="line2d_10"/><g id="text_5"><defs><path d="M 31.78125 34.625 Q 24.75 34.625 20.71875 30.859375 Q 16.703125 27.09375 16.703125 20.515625 Q 16.703125 13.921875 20.71875 10.15625 Q 24.75 6.390625 31.78125 6.390625 Q 38.8125 6.390625 42.859375 10.171875 Q 46.921875 13.96875 46.921875 20.515625 Q 46.921875 27.09375 42.890625 30.859375 Q 38.875 34.625 31.78125 34.625 z M 21.921875 38.8125 Q 15.578125 40.375 12.03125 44.71875 Q 8.5 49.078125 8.5 55.328125 Q 8.5 64.0625 14.71875 69.140625 Q 20.953125 74.21875 31.78125 74.21875 Q 42.671875 74.21875 48.875 69.140625 Q 55.078125 64.0625 55.078125 55.328125 Q 55.078125 49.078125 51.53125 44.71875 Q 48 40.375 41.703125 38.8125 Q 48.828125 37.15625 52.796875 32.3125 Q 56.78125 27.484375 56.78125 20.515625 Q 56.78125 9.90625 50.3125 4.234375 Q 43.84375 -1.421875 31.78125 -1.421875 Q 19.734375 -1.421875 13.25 4.234375 Q 6.78125 9.90625 6.78125 20.515625 Q 6.78125 27.484375 10.78125 32.3125 Q 14.796875 37.15625 21.921875 38.8125 z M 18.3125 54.390625 Q 18.3125 48.734375 21.84375 45.5625 Q 25.390625 42.390625 31.78125 42.390625 Q 38.140625 42.390625 41.71875 45.5625 Q 45.3125 48.734375 45.3125 54.390625 Q 45.3125 60.0625 41.71875 63.234375 Q 38.140625 66.40625 31.78125 66.40625 Q 25.390625 66.40625 21.84375 63.234375 Q 18.3125 60.0625 18.3125 54.390625 z" id="DejaVuSans-56"/></defs><g transform="matrix(0 -.1 -.1 0 252.952 551.128)"><use xlink:href="#DejaVuSans-49"/><use x="63.623" xlink:href="#DejaVuSans-50"/><use x="127.246" xlink:href="#DejaVuSans-56"/></g></g></g><g id="xtick_6"><path clip-path="url(#p94fa6ca0f6)" d="M 300.023125 525.04 L 300.023125 26.88" fill="none" stroke="#b0b0b0" stroke-linecap="square" stroke-width=".8" id="line2d_11"/><use x="300.023" xlink:href="#mfc518bbc66" y="525.04" stroke="#000" stroke-width=".8" id="line2d_12"/><g id="text_6"><defs><path d="M 10.984375 1.515625 L 10.984375 10.5 Q 14.703125 8.734375 18.5 7.8125 Q 22.3125 6.890625 25.984375 6.890625 Q 35.75 6.890625 40.890625 13.453125 Q 46.046875 20.015625 46.78125 33.40625 Q 43.953125 29.203125 39.59375 26.953125 Q 35.25 24.703125 29.984375 24.703125 Q 19.046875 24.703125 12.671875 31.3125 Q 6.296875 37.9375 6.296875 49.421875 Q 6.296875 60.640625 12.9375 67.421875 Q 19.578125 74.21875 30.609375 74.21875 Q 43.265625 74.21875 49.921875 64.515625 Q 56.59375 54.828125 56.59375 36.375 Q 56.59375 19.140625 48.40625 8.859375 Q 40.234375 -1.421875 26.421875 -1.421875 Q 22.703125 -1.421875 18.890625 -0.6875 Q 15.09375 0.046875 10.984375 1.515625 z M 30.609375 32.421875 Q 37.25 32.421875 41.125 36.953125 Q 45.015625 41.5 45.015625 49.421875 Q 45.015625 57.28125 41.125 61.84375 Q 37.25 66.40625 30.609375 66.40625 Q 23.96875 66.40625 20.09375 61.84375 Q 16.21875 57.28125 16.21875 49.421875 Q 16.21875 41.5 20.09375 36.953125 Q 23.96875 32.421875 30.609375 32.421875 z" id="DejaVuSans-57"/></defs><g transform="matrix(0 -.1 -.1 0 302.783 551.128)"><use xlink:href="#DejaVuSans-49"/><use x="63.623" xlink:href="#DejaVuSans-50"/><use x="127.246" xlink:href="#DejaVuSans-57"/></g></g></g><g id="xtick_7"><path clip-path="url(#p94fa6ca0f6)" d="M 349.85375 525.04 L 349.85375 26.88" fill="none" stroke="#b0b0b0" stroke-linecap="square" stroke-width=".8" id="line2d_13"/><use x="349.854" xlink:href="#mfc518bbc66" y="525.04" stroke="#000" stroke-width=".8" id="line2d_14"/><g id="text_7"><defs><path d="M 40.578125 39.3125 Q 47.65625 37.796875 51.625 33 Q 55.609375 28.21875 55.609375 21.1875 Q 55.609375 10.40625 48.1875 4.484375 Q 40.765625 -1.421875 27.09375 -1.421875 Q 22.515625 -1.421875 17.65625 -0.515625 Q 12.796875 0.390625 7.625 2.203125 L 7.625 11.71875 Q 11.71875 9.328125 16.59375 8.109375 Q 21.484375 6.890625 26.8125 6.890625 Q 36.078125 6.890625 40.9375 10.546875 Q 45.796875 14.203125 45.796875 21.1875 Q 45.796875 27.640625 41.28125 31.265625 Q 36.765625 34.90625 28.71875 34.90625 L 20.21875 34.90625 L 20.21875 43.015625 L 29.109375 43.015625 Q 36.375 43.015625 40.234375 45.921875 Q 44.09375 48.828125 44.09375 54.296875 Q 44.09375 59.90625 40.109375 62.90625 Q 36.140625 65.921875 28.71875 65.921875 Q 24.65625 65.921875 20.015625 65.03125 Q 15.375 64.15625 9.8125 62.3125 L 9.8125 71.09375 Q 15.4375 72.65625 20.34375 73.4375 Q 25.25 74.21875 29.59375 74.21875 Q 40.828125 74.21875 47.359375 69.109375 Q 53.90625 64.015625 53.90625 55.328125 Q 53.90625 49.265625 50.4375 45.09375 Q 46.96875 40.921875 40.578125 39.3125 z" id="DejaVuSans-51"/><path d="M 31.78125 66.40625 Q 24.171875 66.40625 20.328125 58.90625 Q 16.5 51.421875 16.5 36.375 Q 16.5 21.390625 20.328125 13.890625 Q 24.171875 6.390625 31.78125 6.390625 Q 39.453125 6.390625 43.28125 13.890625 Q 47.125 21.390625 47.125 36.375 Q 47.125 51.421875 43.28125 58.90625 Q 39.453125 66.40625 31.78125 66.40625 z M 31.78125 74.21875 Q 44.046875 74.21875 50.515625 64.515625 Q 56.984375 54.828125 56.984375 36.375 Q 56.984375 17.96875 50.515625 8.265625 Q 44.046875 -1.421875 31.78125 -1.421875 Q 19.53125 -1.421875 13.0625 8.265625 Q 6.59375 17.96875 6.59375 36.375 Q 6.59375 54.828125 13.0625 64.515625 Q 19.53125 74.21875 31.78125 74.21875 z" id="DejaVuSans-48"/></defs><g transform="matrix(0 -.1 -.1 0 352.613 551.128)"><use xlink:href="#DejaVuSans-49"/><use x="63.623" xlink:href="#DejaVuSans-51"/><use x="127.246" xlink:href="#DejaVuSans-48"/></g></g></g><g id="xtick_8"><path clip-path="url(#p94fa6ca0f6)" d="M 399.684375 525.04 L 399.684375 26.88" fill="none" stroke="#b0b0b0" stroke-linecap="square" stroke-width=".8" id="line2d_15"/><use x="399.684" xlink:href="#mfc518bbc66" y="525.04" stroke="#000" stroke-width=".8" id="line2d_16"/><g transform="matrix(0 -.1 -.1 0 402.444 551.128)" id="text_8"><use xlink:href="#DejaVuSans-49"/><use x="63.623" xlink:href="#DejaVuSans-51"/><use x="127.246" xlink:href="#DejaVuSans-49"/></g></g><g id="xtick_9"><path clip-path="url(#p94fa6ca0f6)" d="M 449.515 525.04 L 449.515 26.88" fill="none" stroke="#b0b0b0" stroke-linecap="square" stroke-width=".8" id="line2d_17"/><use x="449.515" xlink:href="#mfc518bbc66" y="525.04" stroke="#000" stroke-width=".8" id="line2d_18"/><g transform="matrix(0 -.1 -.1 0 452.274 551.128)" id="text_9"><use xlink:href="#DejaVuSans-49"/><use x="63.623" xlink:href="#DejaVuSans-51"/><use x="127.246" xlink:href="#DejaVuSans-50"/></g></g><g id="xtick_10"><path clip-path="url(#p94fa6ca0f6)" d="M 499.345625 525.04 L 499.345625 26.88" fill="none" stroke="#b0b0b0" stroke-linecap="square" stroke-width=".8" id="line2d_19"/><use x="499.346" xlink:href="#mfc518bbc66" y="525.04" stroke="#000" stroke-width=".8" id="line2d_20"/><g transform="matrix(0 -.1 -.1 0 502.105 551.128)" id="text_10"><use xlink:href="#DejaVuSans-49"/><use x="63.623" xlink:href="#DejaVuSans-51"/><use x="127.246" xlink:href="#DejaVuSans-51"/></g></g><g id="xtick_11"><path clip-path="url(#p94fa6ca0f6)" d="M 549.17625 525.04 L 549.17625 26.88" fill="none" stroke="#b0b0b0" stroke-linecap="square" stroke-width=".8" id="line2d_21"/><use x="549.176" xlink:href="#mfc518bbc66" y="525.04" stroke="#000" stroke-width=".8" id="line2d_22"/><g transform="matrix(0 -.1 -.1 0 551.936 551.128)" id="text_11"><use xlink:href="#DejaVuSans-49"/><use x="63.623" xlink:href="#DejaVuSans-51"/><use x="127.246" xlink:href="#DejaVuSans-52"/></g></g><g id="xtick_12"><path clip-path="url(#p94fa6ca0f6)" d="M 599.006875 525.04 L 599.006875 26.88" fill="none" stroke="#b0b0b0" stroke-linecap="square" stroke-width=".8" id="line2d_23"/><use x="599.007" xlink:href="#mfc518bbc66" y="525.04" stroke="#000" stroke-width=".8" id="line2d_24"/><g transform="matrix(0 -.1 -.1 0 601.766 551.128)" id="text_12"><use xlink:href="#DejaVuSans-49"/><use x="63.623" xlink:href="#DejaVuSans-51"/><use x="127.246" xlink:href="#DejaVuSans-53"/></g></g><g id="xtick_13"><path clip-path="url(#p94fa6ca0f6)" d="M 648.8375 525.04 L 648.8375 26.88" fill="none" stroke="#b0b0b0" stroke-linecap="square" stroke-width=".8" id="line2d_25"/><use x="648.837" xlink:href="#mfc518bbc66" y="525.04" stroke="#000" stroke-width=".8" id="line2d_26"/><g transform="matrix(0 -.1 -.1 0 651.597 551.128)" id="text_13"><use xlink:href="#DejaVuSans-49"/><use x="63.623" xlink:href="#DejaVuSans-51"/><use x="127.246" xlink:href="#DejaVuSans-54"/></g></g><g id="xtick_14"><path clip-path="url(#p94fa6ca0f6)" d="M 698.668125 525.04 L 698.668125 26.88" fill="none" stroke="#b0b0b0" stroke-linecap="square" stroke-width=".8" id="line2d_27"/><use x="698.668" xlink:href="#mfc518bbc66" y="525.04" stroke="#000" stroke-width=".8" id="line2d_28"/><g transform="matrix(0 -.1 -.1 0 701.428 551.128)" id="text_14"><use xlink:href="#DejaVuSans-49"/><use x="63.623" xlink:href="#DejaVuSans-51"/><use x="127.246" xlink:href="#DejaVuSans-55"/></g></g><g id="xtick_15"><path clip-path="url(#p94fa6ca0f6)" d="M 748.49875 525.04 L 748.49875 26.88" fill="none" stroke="#b0b0b0" stroke-linecap="square" stroke-width=".8" id="line2d_29"/><use x="748.499" xlink:href="#mfc518bbc66" y="525.04" stroke="#000" stroke-width=".8" id="line2d_30"/><g transform="matrix(0 -.1 -.1 0 751.258 551.128)" id="text_15"><use xlink:href="#DejaVuSans-49"/><use x="63.623" xlink:href="#DejaVuSans-51"/><use x="127.246" xlink:href="#DejaVuSans-56"/></g></g><g id="xtick_16"><path clip-path="url(#p94fa6ca0f6)" d="M 798.329375 525.04 L 798.329375 26.88" fill="none" stroke="#b0b0b0" stroke-linecap="square" stroke-width=".8" id="line2d_31"/><use x="798.329" xlink:href="#mfc518bbc66" y="525.04" stroke="#000" stroke-width=".8" id="line2d_32"/><g transform="matrix(0 -.1 -.1 0 801.089 551.128)" id="text_16"><use xlink:href="#DejaVuSans-49"/><use x="63.623" xlink:href="#DejaVuSans-51"/><use x="127.246" xlink:href="#DejaVuSans-57"/></g></g><g id="xtick_17"><path clip-path="url(#p94fa6ca0f6)" d="M 848.16 525.04 L 848.16 26.88" fill="none" stroke="#b0b0b0" stroke-linecap="square" stroke-width=".8" id="line2d_33"/><use x="848.16" xlink:href="#mfc518bbc66" y="525.04" stroke="#000" stroke-width=".8" id="line2d_34"/><g transform="matrix(0 -.1 -.1 0 850.92 551.128)" id="text_17"><use xlink:href="#DejaVuSans-49"/><use x="63.623" xlink:href="#DejaVuSans-52"/><use x="127.246" xlink:href="#DejaVuSans-48"/></g></g><g id="text_18"><defs><path d="M 54.890625 33.015625 L 54.890625 0 L 45.90625 0 L 45.90625 32.71875 Q 45.90625 40.484375 42.875 44.328125 Q 39.84375 48.1875 33.796875 48.1875 Q 26.515625 48.1875 22.3125 43.546875 Q 18.109375 38.921875 18.109375 30.90625 L 18.109375 0 L 9.078125 0 L 9.078125 54.6875 L 18.109375 54.6875 L 18.109375 46.1875 Q 21.34375 51.125 25.703125 53.5625 Q 30.078125 56 35.796875 56 Q 45.21875 56 50.046875 50.171875 Q 54.890625 44.34375 54.890625 33.015625 z" id="DejaVuSans-110"/><path d="M 9.8125 72.90625 L 51.703125 72.90625 L 51.703125 64.59375 L 19.671875 64.59375 L 19.671875 43.109375 L 48.578125 43.109375 L 48.578125 34.8125 L 19.671875 34.8125 L 19.671875 0 L 9.8125 0 z" id="DejaVuSans-70"/><path d="M 9.421875 75.984375 L 18.40625 75.984375 L 18.40625 0 L 9.421875 0 z" id="DejaVuSans-108"/><path d="M 56.203125 29.59375 L 56.203125 25.203125 L 14.890625 25.203125 Q 15.484375 15.921875 20.484375 11.0625 Q 25.484375 6.203125 34.421875 6.203125 Q 39.59375 6.203125 44.453125 7.46875 Q 49.3125 8.734375 54.109375 11.28125 L 54.109375 2.78125 Q 49.265625 0.734375 44.1875 -0.34375 Q 39.109375 -1.421875 33.890625 -1.421875 Q 20.796875 -1.421875 13.15625 6.1875 Q 5.515625 13.8125 5.515625 26.8125 Q 5.515625 40.234375 12.765625 48.109375 Q 20.015625 56 32.328125 56 Q 43.359375 56 49.78125 48.890625 Q 56.203125 41.796875 56.203125 29.59375 z M 47.21875 32.234375 Q 47.125 39.59375 43.09375 43.984375 Q 39.0625 48.390625 32.421875 48.390625 Q 24.90625 48.390625 20.390625 44.140625 Q 15.875 39.890625 15.1875 32.171875 z" id="DejaVuSans-101"/><path d="M 41.109375 46.296875 Q 39.59375 47.171875 37.8125 47.578125 Q 36.03125 48 33.890625 48 Q 26.265625 48 22.1875 43.046875 Q 18.109375 38.09375 18.109375 28.8125 L 18.109375 0 L 9.078125 0 L 9.078125 54.6875 L 18.109375 54.6875 L 18.109375 46.1875 Q 20.953125 51.171875 25.484375 53.578125 Q 30.03125 56 36.53125 56 Q 37.453125 56 38.578125 55.875 Q 39.703125 55.765625 41.0625 55.515625 z" id="DejaVuSans-114"/><path d="M 9.8125 72.90625 L 19.671875 72.90625 L 19.671875 0 L 9.8125 0 z" id="DejaVuSans-73"/><path d="M 9.421875 54.6875 L 18.40625 54.6875 L 18.40625 0 L 9.421875 0 z M 9.421875 75.984375 L 18.40625 75.984375 L 18.40625 64.59375 L 9.421875 64.59375 z" id="DejaVuSans-105"/><path d="M 44.28125 53.078125 L 44.28125 44.578125 Q 40.484375 46.53125 36.375 47.5 Q 32.28125 48.484375 27.875 48.484375 Q 21.1875 48.484375 17.84375 46.4375 Q 14.5 44.390625 14.5 40.28125 Q 14.5 37.15625 16.890625 35.375 Q 19.28125 33.59375 26.515625 31.984375 L 29.59375 31.296875 Q 39.15625 29.25 43.1875 25.515625 Q 47.21875 21.78125 47.21875 15.09375 Q 47.21875 7.46875 41.1875 3.015625 Q 35.15625 -1.421875 24.609375 -1.421875 Q 20.21875 -1.421875 15.453125 -0.5625 Q 10.6875 0.296875 5.421875 2 L 5.421875 11.28125 Q 10.40625 8.6875 15.234375 7.390625 Q 20.0625 6.109375 24.8125 6.109375 Q 31.15625 6.109375 34.5625 8.28125 Q 37.984375 10.453125 37.984375 14.40625 Q 37.984375 18.0625 35.515625 20.015625 Q 33.0625 21.96875 24.703125 23.78125 L 21.578125 24.515625 Q 13.234375 26.265625 9.515625 29.90625 Q 5.8125 33.546875 5.8125 39.890625 Q 5.8125 47.609375 11.28125 51.796875 Q 16.75 56 26.8125 56 Q 31.78125 56 36.171875 55.265625 Q 40.578125 54.546875 44.28125 53.078125 z" id="DejaVuSans-115"/><path d="M 18.3125 70.21875 L 18.3125 54.6875 L 36.8125 54.6875 L 36.8125 47.703125 L 18.3125 47.703125 L 18.3125 18.015625 Q 18.3125 11.328125 20.140625 9.421875 Q 21.96875 7.515625 27.59375 7.515625 L 36.8125 7.515625 L 36.8125 0 L 27.59375 0 Q 17.1875 0 13.234375 3.875 Q 9.28125 7.765625 9.28125 18.015625 L 9.28125 47.703125 L 2.6875 47.703125 L 2.6875 54.6875 L 9.28125 54.6875 L 9.28125 70.21875 z" id="DejaVuSans-116"/><path d="M 8.5 21.578125 L 8.5 54.6875 L 17.484375 54.6875 L 17.484375 21.921875 Q 17.484375 14.15625 20.5 10.265625 Q 23.53125 6.390625 29.59375 6.390625 Q 36.859375 6.390625 41.078125 11.03125 Q 45.3125 15.671875 45.3125 23.6875 L 45.3125 54.6875 L 54.296875 54.6875 L 54.296875 0 L 45.3125 0 L 45.3125 8.40625 Q 42.046875 3.421875 37.71875 1 Q 33.40625 -1.421875 27.6875 -1.421875 Q 18.265625 -1.421875 13.375 4.4375 Q 8.5 10.296875 8.5 21.578125 z M 31.109375 56 z" id="DejaVuSans-117"/><path d="M 48.78125 52.59375 L 48.78125 44.1875 Q 44.96875 46.296875 41.140625 47.34375 Q 37.3125 48.390625 33.40625 48.390625 Q 24.65625 48.390625 19.8125 42.84375 Q 14.984375 37.3125 14.984375 27.296875 Q 14.984375 17.28125 19.8125 11.734375 Q 24.65625 6.203125 33.40625 6.203125 Q 37.3125 6.203125 41.140625 7.25 Q 44.96875 8.296875 48.78125 10.40625 L 48.78125 2.09375 Q 45.015625 0.34375 40.984375 -0.53125 Q 36.96875 -1.421875 32.421875 -1.421875 Q 20.0625 -1.421875 12.78125 6.34375 Q 5.515625 14.109375 5.515625 27.296875 Q 5.515625 40.671875 12.859375 48.328125 Q 20.21875 56 33.015625 56 Q 37.15625 56 41.109375 55.140625 Q 45.0625 54.296875 48.78125 52.59375 z" id="DejaVuSans-99"/><path d="M 30.609375 48.390625 Q 23.390625 48.390625 19.1875 42.75 Q 14.984375 37.109375 14.984375 27.296875 Q 14.984375 17.484375 19.15625 11.84375 Q 23.34375 6.203125 30.609375 6.203125 Q 37.796875 6.203125 41.984375 11.859375 Q 46.1875 17.53125 46.1875 27.296875 Q 46.1875 37.015625 41.984375 42.703125 Q 37.796875 48.390625 30.609375 48.390625 z M 30.609375 56 Q 42.328125 56 49.015625 48.375 Q 55.71875 40.765625 55.71875 27.296875 Q 55.71875 13.875 49.015625 6.21875 Q 42.328125 -1.421875 30.609375 -1.421875 Q 18.84375 -1.421875 12.171875 6.21875 Q 5.515625 13.875 5.515625 27.296875 Q 5.515625 40.765625 12.171875 48.375 Q 18.84375 56 30.609375 56 z" id="DejaVuSans-111"/></defs><g transform="matrix(.1 0 0 -.1 406.392 562.726)"><use xlink:href="#DejaVuSans-70"/><use x="57.41" xlink:href="#DejaVuSans-105"/><use x="85.193" xlink:href="#DejaVuSans-108"/><use x="112.977" xlink:href="#DejaVuSans-108"/><use x="140.76" xlink:href="#DejaVuSans-101"/><use x="202.283" xlink:href="#DejaVuSans-114"/><use x="243.396" xlink:href="#DejaVuSans-32"/><use x="275.184" xlink:href="#DejaVuSans-73"/><use x="304.676" xlink:href="#DejaVuSans-110"/><use x="368.055" xlink:href="#DejaVuSans-115"/><use x="420.154" xlink:href="#DejaVuSans-116"/><use x="459.363" xlink:href="#DejaVuSans-114"/><use x="500.477" xlink:href="#DejaVuSans-117"/><use x="563.855" xlink:href="#DejaVuSans-99"/><use x="618.836" xlink:href="#DejaVuSans-116"/><use x="658.045" xlink:href="#DejaVuSans-105"/><use x="685.828" xlink:href="#DejaVuSans-111"/><use x="747.01" xlink:href="#DejaVuSans-110"/><use x="810.389" xlink:href="#DejaVuSans-115"/></g></g></g><g id="matplotlib.axis_2"><g id="ytick_1"><path clip-path="url(#p94fa6ca0f6)" d="M 50.87 516.332414 L 848.16 516.332414" fill="none" stroke="#b0b0b0" stroke-linecap="square" stroke-width=".8" id="line2d_35"/><g id="line2d_36"><defs><path d="M 0 0 L -3.5 0" id="m3a24eacd0e" stroke="#000" stroke-width=".8"/></defs><use x="50.87" xlink:href="#m3a24eacd0e" y="516.332" stroke="#000" stroke-width=".8"/></g><g transform="matrix(.1 0 0 -.1 24.782 520.132)" id="text_19"><use xlink:href="#DejaVuSans-49"/><use x="63.623" xlink:href="#DejaVuSans-55"/><use x="127.246" xlink:href="#DejaVuSans-53"/></g></g><g id="ytick_2"><path clip-path="url(#p94fa6ca0f6)" d="M 50.87 455.209387 L 848.16 455.209387" fill="none" stroke="#b0b0b0" stroke-linecap="square" stroke-width=".8" id="line2d_37"/><use x="50.87" xlink:href="#m3a24eacd0e" y="455.209" stroke="#000" stroke-width=".8" id="line2d_38"/><g transform="matrix(.1 0 0 -.1 24.782 459.009)" id="text_20"><use xlink:href="#DejaVuSans-50"/><use x="63.623" xlink:href="#DejaVuSans-48"/><use x="127.246" xlink:href="#DejaVuSans-48"/></g></g><g id="ytick_3"><path clip-path="url(#p94fa6ca0f6)" d="M 50.87 394.086361 L 848.16 394.086361" fill="none" stroke="#b0b0b0" stroke-linecap="square" stroke-width=".8" id="line2d_39"/><use x="50.87" xlink:href="#m3a24eacd0e" y="394.086" stroke="#000" stroke-width=".8" id="line2d_40"/><g transform="matrix(.1 0 0 -.1 24.782 397.886)" id="text_21"><use xlink:href="#DejaVuSans-50"/><use x="63.623" xlink:href="#DejaVuSans-50"/><use x="127.246" xlink:href="#DejaVuSans-53"/></g></g><g id="ytick_4"><path clip-path="url(#p94fa6ca0f6)" d="M 50.87 332.963334 L 848.16 332.963334" fill="none" stroke="#b0b0b0" stroke-linecap="square" stroke-width=".8" id="line2d_41"/><use x="50.87" xlink:href="#m3a24eacd0e" y="332.963" stroke="#000" stroke-width=".8" id="line2d_42"/><g transform="matrix(.1 0 0 -.1 24.782 336.763)" id="text_22"><use xlink:href="#DejaVuSans-50"/><use x="63.623" xlink:href="#DejaVuSans-53"/><use x="127.246" xlink:href="#DejaVuSans-48"/></g></g><g id="ytick_5"><path clip-path="url(#p94fa6ca0f6)" d="M 50.87 271.840308 L 848.16 271.840308" fill="none" stroke="#b0b0b0" stroke-linecap="square" stroke-width=".8" id="line2d_43"/><use x="50.87" xlink:href="#m3a24eacd0e" y="271.84" stroke="#000" stroke-width=".8" id="line2d_44"/><g transform="matrix(.1 0 0 -.1 24.782 275.64)" id="text_23"><use xlink:href="#DejaVuSans-50"/><use x="63.623" xlink:href="#DejaVuSans-55"/><use x="127.246" xlink:href="#DejaVuSans-53"/></g></g><g id="ytick_6"><path clip-path="url(#p94fa6ca0f6)" d="M 50.87 210.717282 L 848.16 210.717282" fill="none" stroke="#b0b0b0" stroke-linecap="square" stroke-width=".8" id="line2d_45"/><use x="50.87" xlink:href="#m3a24eacd0e" y="210.717" stroke="#000" stroke-width=".8" id="line2d_46"/><g transform="matrix(.1 0 0 -.1 24.782 214.517)" id="text_24"><use xlink:href="#DejaVuSans-51"/><use x="63.623" xlink:href="#DejaVuSans-48"/><use x="127.246" xlink:href="#DejaVuSans-48"/></g></g><g id="ytick_7"><path clip-path="url(#p94fa6ca0f6)" d="M 50.87 149.594255 L 848.16 149.594255" fill="none" stroke="#b0b0b0" stroke-linecap="square" stroke-width=".8" id="line2d_47"/><use x="50.87" xlink:href="#m3a24eacd0e" y="149.594" stroke="#000" stroke-width=".8" id="line2d_48"/><g transform="matrix(.1 0 0 -.1 24.782 153.393)" id="text_25"><use xlink:href="#DejaVuSans-51"/><use x="63.623" xlink:href="#DejaVuSans-50"/><use x="127.246" xlink:href="#DejaVuSans-53"/></g></g><g id="ytick_8"><path clip-path="url(#p94fa6ca0f6)" d="M 50.87 88.471229 L 848.16 88.471229" fill="none" stroke="#b0b0b0" stroke-linecap="square" stroke-width=".8" id="line2d_49"/><use x="50.87" xlink:href="#m3a24eacd0e" y="88.471" stroke="#000" stroke-width=".8" id="line2d_50"/><g transform="matrix(.1 0 0 -.1 24.782 92.27)" id="text_26"><use xlink:href="#DejaVuSans-51"/><use x="63.623" xlink:href="#DejaVuSans-53"/><use x="127.246" xlink:href="#DejaVuSans-48"/></g></g><g id="ytick_9"><path clip-path="url(#p94fa6ca0f6)" d="M 50.87 27.348202 L 848.16 27.348202" fill="none" stroke="#b0b0b0" stroke-linecap="square" stroke-width=".8" id="line2d_51"/><use x="50.87" xlink:href="#m3a24eacd0e" y="27.348" stroke="#000" stroke-width=".8" id="line2d_52"/><g transform="matrix(.1 0 0 -.1 24.782 31.147)" id="text_27"><use xlink:href="#DejaVuSans-51"/><use x="63.623" xlink:href="#DejaVuSans-55"/><use x="127.246" xlink:href="#DejaVuSans-53"/></g></g><g id="text_28"><defs><path d="M 64.40625 67.28125 L 64.40625 56.890625 Q 59.421875 61.53125 53.78125 63.8125 Q 48.140625 66.109375 41.796875 66.109375 Q 29.296875 66.109375 22.65625 58.46875 Q 16.015625 50.828125 16.015625 36.375 Q 16.015625 21.96875 22.65625 14.328125 Q 29.296875 6.6875 41.796875 6.6875 Q 48.140625 6.6875 53.78125 8.984375 Q 59.421875 11.28125 64.40625 15.921875 L 64.40625 5.609375 Q 59.234375 2.09375 53.4375 0.328125 Q 47.65625 -1.421875 41.21875 -1.421875 Q 24.65625 -1.421875 15.125 8.703125 Q 5.609375 18.84375 5.609375 36.375 Q 5.609375 53.953125 15.125 64.078125 Q 24.65625 74.21875 41.21875 74.21875 Q 47.75 74.21875 53.53125 72.484375 Q 59.328125 70.75 64.40625 67.28125 z" id="DejaVuSans-67"/><path d="M 32.171875 -5.078125 Q 28.375 -14.84375 24.75 -17.8125 Q 21.140625 -20.796875 15.09375 -20.796875 L 7.90625 -20.796875 L 7.90625 -13.28125 L 13.1875 -13.28125 Q 16.890625 -13.28125 18.9375 -11.515625 Q 21 -9.765625 23.484375 -3.21875 L 25.09375 0.875 L 2.984375 54.6875 L 12.5 54.6875 L 29.59375 11.921875 L 46.6875 54.6875 L 56.203125 54.6875 z" id="DejaVuSans-121"/></defs><g transform="matrix(0 -.1 -.1 0 18.703 292.23)"><use xlink:href="#DejaVuSans-67"/><use x="69.824" xlink:href="#DejaVuSans-121"/><use x="129.004" xlink:href="#DejaVuSans-99"/><use x="183.984" xlink:href="#DejaVuSans-108"/><use x="211.768" xlink:href="#DejaVuSans-101"/><use x="273.291" xlink:href="#DejaVuSans-115"/></g></g></g><g id="line2d_53"><path clip-path="url(#p94fa6ca0f6)" d="M -1 447.241643 L 1.039375 447.165597 L 50.87 447.752378 L 150.53125 445.20966 L 200.361875 443.05813 L 250.1925 443.375969 L 300.023125 442.398001 L 349.85375 419.269048 L 399.684375 407.851266 L 449.515 359.808568 L 499.345625 315.43325 L 549.17625 218.932216 L 599.006875 149.44756 L 648.8375 149.838747 L 698.668125 148.934127 L 748.49875 147.613869 L 798.329375 147.124885 L 848.16 147.467174 L 865 147.252349 L 865 147.252349" fill="none" stroke="#1f77b4" stroke-linecap="square" stroke-width="1.5"/><defs><path d="M 0 1.5 C 0.397805 1.5 0.77937 1.341951 1.06066 1.06066 C 1.341951 0.77937 1.5 0.397805 1.5 0 C 1.5 -0.397805 1.341951 -0.77937 1.06066 -1.06066 C 0.77937 -1.341951 0.397805 -1.5 0 -1.5 C -0.397805 -1.5 -0.77937 -1.341951 -1.06066 -1.06066 C -1.341951 -0.77937 -1.5 -0.397805 -1.5 0 C -1.5 0.397805 -1.341951 0.77937 -1.06066 1.06066 C -0.77937 1.341951 -0.397805 1.5 0 1.5 z" id="mfd23d3c377" stroke="#1f77b4"/></defs><g clip-path="url(#p94fa6ca0f6)" fill="#1f77b4" stroke="#1f77b4"><use x="-1" xlink:href="#mfd23d3c377" y="447.242"/><use x="1.039" xlink:href="#mfd23d3c377" y="447.166"/><use x="50.87" xlink:href="#mfd23d3c377" y="447.752"/><use x="100.701" xlink:href="#mfd23d3c377" y="446.53"/><use x="150.531" xlink:href="#mfd23d3c377" y="445.21"/><use x="200.362" xlink:href="#mfd23d3c377" y="443.058"/><use x="250.192" xlink:href="#mfd23d3c377" y="443.376"/><use x="300.023" xlink:href="#mfd23d3c377" y="442.398"/><use x="349.854" xlink:href="#mfd23d3c377" y="419.269"/><use x="399.684" xlink:href="#mfd23d3c377" y="407.851"/><use x="449.515" xlink:href="#mfd23d3c377" y="359.809"/><use x="499.346" xlink:href="#mfd23d3c377" y="315.433"/><use x="549.176" xlink:href="#mfd23d3c377" y="218.932"/><use x="599.007" xlink:href="#mfd23d3c377" y="149.448"/><use x="648.837" xlink:href="#mfd23d3c377" y="149.839"/><use x="698.668" xlink:href="#mfd23d3c377" y="148.934"/><use x="748.499" xlink:href="#mfd23d3c377" y="147.614"/><use x="798.329" xlink:href="#mfd23d3c377" y="147.125"/><use x="848.16" xlink:href="#mfd23d3c377" y="147.467"/><use x="897.991" xlink:href="#mfd23d3c377" y="146.831"/><use x="947.821" xlink:href="#mfd23d3c377" y="146.978"/><use x="997.652" xlink:href="#mfd23d3c377" y="142.504"/><use x="1047.483" xlink:href="#mfd23d3c377" y="142.137"/><use x="1097.313" xlink:href="#mfd23d3c377" y="142.504"/><use x="1147.144" xlink:href="#mfd23d3c377" y="141.428"/><use x="1196.974" xlink:href="#mfd23d3c377" y="141.355"/><use x="1246.805" xlink:href="#mfd23d3c377" y="141.135"/><use x="1296.636" xlink:href="#mfd23d3c377" y="141.233"/><use x="1346.466" xlink:href="#mfd23d3c377" y="140.401"/><use x="1396.297" xlink:href="#mfd23d3c377" y="137.59"/><use x="1446.128" xlink:href="#mfd23d3c377" y="137.125"/><use x="1495.958" xlink:href="#mfd23d3c377" y="137.394"/><use x="1545.789" xlink:href="#mfd23d3c377" y="136.221"/><use x="1595.619" xlink:href="#mfd23d3c377" y="135.903"/><use x="1645.45" xlink:href="#mfd23d3c377" y="135.536"/><use x="1695.281" xlink:href="#mfd23d3c377" y="136.074"/><use x="1745.111" xlink:href="#mfd23d3c377" y="135.145"/><use x="1794.942" xlink:href="#mfd23d3c377" y="134.9"/><use x="1844.773" xlink:href="#mfd23d3c377" y="134.607"/><use x="1894.603" xlink:href="#mfd23d3c377" y="128.617"/><use x="1944.434" xlink:href="#mfd23d3c377" y="131.208"/><use x="1994.264" xlink:href="#mfd23d3c377" y="130.94"/><use x="2044.095" xlink:href="#mfd23d3c377" y="130.768"/><use x="2093.926" xlink:href="#mfd23d3c377" y="127.712"/><use x="2143.756" xlink:href="#mfd23d3c377" y="124.045"/><use x="2193.587" xlink:href="#mfd23d3c377" y="127.003"/><use x="2243.418" xlink:href="#mfd23d3c377" y="126.221"/><use x="2293.248" xlink:href="#mfd23d3c377" y="126.783"/><use x="2343.079" xlink:href="#mfd23d3c377" y="125.903"/><use x="2392.909" xlink:href="#mfd23d3c377" y="126.759"/><use x="2442.74" xlink:href="#mfd23d3c377" y="127.639"/><use x="2492.571" xlink:href="#mfd23d3c377" y="128.543"/><use x="2542.401" xlink:href="#mfd23d3c377" y="127.908"/><use x="2592.232" xlink:href="#mfd23d3c377" y="127.541"/><use x="2642.063" xlink:href="#mfd23d3c377" y="127.101"/><use x="2691.893" xlink:href="#mfd23d3c377" y="127.052"/><use x="2741.724" xlink:href="#mfd23d3c377" y="129.057"/><use x="2791.554" xlink:href="#mfd23d3c377" y="129.986"/><use x="2841.385" xlink:href="#mfd23d3c377" y="128.372"/><use x="2891.216" xlink:href="#mfd23d3c377" y="128.812"/><use x="2941.046" xlink:href="#mfd23d3c377" y="117.859"/><use x="2990.877" xlink:href="#mfd23d3c377" y="119.84"/><use x="3040.707" xlink:href="#mfd23d3c377" y="119.424"/><use x="3090.538" xlink:href="#mfd23d3c377" y="119.791"/><use x="3140.369" xlink:href="#mfd23d3c377" y="119.448"/><use x="3190.199" xlink:href="#mfd23d3c377" y="118.104"/><use x="3240.03" xlink:href="#mfd23d3c377" y="121.575"/><use x="3289.861" xlink:href="#mfd23d3c377" y="121.453"/><use x="3339.691" xlink:href="#mfd23d3c377" y="118.495"/><use x="3389.522" xlink:href="#mfd23d3c377" y="114.73"/><use x="3439.352" xlink:href="#mfd23d3c377" y="114.95"/><use x="3489.183" xlink:href="#mfd23d3c377" y="117.248"/><use x="3539.014" xlink:href="#mfd23d3c377" y="117.321"/><use x="3588.844" xlink:href="#mfd23d3c377" y="116.563"/><use x="3638.675" xlink:href="#mfd23d3c377" y="116.588"/><use x="3688.506" xlink:href="#mfd23d3c377" y="116.221"/><use x="3738.336" xlink:href="#mfd23d3c377" y="115.757"/><use x="3788.167" xlink:href="#mfd23d3c377" y="116.808"/><use x="3837.997" xlink:href="#mfd23d3c377" y="117.224"/><use x="3887.828" xlink:href="#mfd23d3c377" y="117.052"/><use x="3937.659" xlink:href="#mfd23d3c377" y="116.661"/><use x="3987.489" xlink:href="#mfd23d3c377" y="115.854"/><use x="4037.32" xlink:href="#mfd23d3c377" y="117.297"/><use x="4087.151" xlink:href="#mfd23d3c377" y="116.857"/><use x="4136.981" xlink:href="#mfd23d3c377" y="116.148"/><use x="4186.812" xlink:href="#mfd23d3c377" y="114.754"/><use x="4236.642" xlink:href="#mfd23d3c377" y="113.018"/><use x="4286.473" xlink:href="#mfd23d3c377" y="111.771"/><use x="4336.304" xlink:href="#mfd23d3c377" y="110.084"/><use x="4386.134" xlink:href="#mfd23d3c377" y="107.737"/><use x="4435.965" xlink:href="#mfd23d3c377" y="108.617"/><use x="4485.796" xlink:href="#mfd23d3c377" y="107.248"/><use x="4535.626" xlink:href="#mfd23d3c377" y="107.102"/><use x="4585.457" xlink:href="#mfd23d3c377" y="106.588"/><use x="4635.288" xlink:href="#mfd23d3c377" y="106.124"/><use x="4685.118" xlink:href="#mfd23d3c377" y="104.021"/><use x="4734.949" xlink:href="#mfd23d3c377" y="103.801"/><use x="4784.779" xlink:href="#mfd23d3c377" y="104.168"/><use x="4834.61" xlink:href="#mfd23d3c377" y="100.5"/><use x="4884.441" xlink:href="#mfd23d3c377" y="97.542"/><use x="4934.271" xlink:href="#mfd23d3c377" y="96.075"/><use x="4984.102" xlink:href="#mfd23d3c377" y="95.024"/><use x="5033.932" xlink:href="#mfd23d3c377" y="91.014"/><use x="5083.763" xlink:href="#mfd23d3c377" y="89.865"/><use x="5133.594" xlink:href="#mfd23d3c377" y="88.349"/><use x="5183.424" xlink:href="#mfd23d3c377" y="87.591"/><use x="5233.255" xlink:href="#mfd23d3c377" y="86.344"/><use x="5283.086" xlink:href="#mfd23d3c377" y="85.464"/><use x="5332.916" xlink:href="#mfd23d3c377" y="85.219"/><use x="5382.747" xlink:href="#mfd23d3c377" y="82.139"/><use x="5432.578" xlink:href="#mfd23d3c377" y="82.701"/><use x="5482.408" xlink:href="#mfd23d3c377" y="81.748"/><use x="5532.239" xlink:href="#mfd23d3c377" y="81.308"/><use x="5582.069" xlink:href="#mfd23d3c377" y="80.476"/><use x="5631.9" xlink:href="#mfd23d3c377" y="78.447"/><use x="5681.731" xlink:href="#mfd23d3c377" y="76.785"/><use x="5731.561" xlink:href="#mfd23d3c377" y="70.672"/><use x="5781.392" xlink:href="#mfd23d3c377" y="67.127"/><use x="5831.222" xlink:href="#mfd23d3c377" y="67.934"/><use x="5881.053" xlink:href="#mfd23d3c377" y="66.663"/><use x="5930.884" xlink:href="#mfd23d3c377" y="64.804"/><use x="5980.714" xlink:href="#mfd23d3c377" y="57.763"/><use x="6030.545" xlink:href="#mfd23d3c377" y="61.113"/><use x="6080.376" xlink:href="#mfd23d3c377" y="60.135"/><use x="6130.206" xlink:href="#mfd23d3c377" y="58.228"/><use x="6180.037" xlink:href="#mfd23d3c377" y="56.027"/><use x="6229.868" xlink:href="#mfd23d3c377" y="55.954"/><use x="6279.698" xlink:href="#mfd23d3c377" y="58.301"/><use x="6329.529" xlink:href="#mfd23d3c377" y="57.127"/><use x="6379.359" xlink:href="#mfd23d3c377" y="56.296"/><use x="6429.19" xlink:href="#mfd23d3c377" y="54.12"/><use x="6479.021" xlink:href="#mfd23d3c377" y="53.387"/><use x="6528.851" xlink:href="#mfd23d3c377" y="52.678"/><use x="6578.682" xlink:href="#mfd23d3c377" y="50.966"/></g></g><g id="line2d_54"><path clip-path="url(#p94fa6ca0f6)" d="M -1 445.85104 L 1.039375 445.771992 L 50.87 446.309875 L 100.700625 445.160762 L 150.53125 443.742707 L 200.361875 442.813637 L 250.1925 442.006814 L 300.023125 440.979947 L 349.85375 417.850994 L 399.684375 405.357447 L 449.515 356.263432 L 499.345625 305.409074 L 549.17625 216.438397 L 599.006875 148.029506 L 648.8375 148.396244 L 698.668125 147.711666 L 748.49875 146.513655 L 798.329375 145.877975 L 848.16 146.073569 L 865 145.858744 L 865 145.858744" fill="none" stroke="#ff7f0e" stroke-linecap="square" stroke-width="1.5"/><defs><path d="M 0 1.5 C 0.397805 1.5 0.77937 1.341951 1.06066 1.06066 C 1.341951 0.77937 1.5 0.397805 1.5 0 C 1.5 -0.397805 1.341951 -0.77937 1.06066 -1.06066 C 0.77937 -1.341951 0.397805 -1.5 0 -1.5 C -0.397805 -1.5 -0.77937 -1.341951 -1.06066 -1.06066 C -1.341951 -0.77937 -1.5 -0.397805 -1.5 0 C -1.5 0.397805 -1.341951 0.77937 -1.06066 1.06066 C -0.77937 1.341951 -0.397805 1.5 0 1.5 z" id="mf7b048cd89" stroke="#ff7f0e"/></defs><g clip-path="url(#p94fa6ca0f6)" fill="#ff7f0e" stroke="#ff7f0e"><use x="-1" xlink:href="#mf7b048cd89" y="445.851"/><use x="1.039" xlink:href="#mf7b048cd89" y="445.772"/><use x="50.87" xlink:href="#mf7b048cd89" y="446.31"/><use x="100.701" xlink:href="#mf7b048cd89" y="445.161"/><use x="150.531" xlink:href="#mf7b048cd89" y="443.743"/><use x="200.362" xlink:href="#mf7b048cd89" y="442.814"/><use x="250.192" xlink:href="#mf7b048cd89" y="442.007"/><use x="300.023" xlink:href="#mf7b048cd89" y="440.98"/><use x="349.854" xlink:href="#mf7b048cd89" y="417.851"/><use x="399.684" xlink:href="#mf7b048cd89" y="405.357"/><use x="449.515" xlink:href="#mf7b048cd89" y="356.263"/><use x="499.346" xlink:href="#mf7b048cd89" y="305.409"/><use x="549.176" xlink:href="#mf7b048cd89" y="216.438"/><use x="599.007" xlink:href="#mf7b048cd89" y="148.03"/><use x="648.837" xlink:href="#mf7b048cd89" y="148.396"/><use x="698.668" xlink:href="#mf7b048cd89" y="147.712"/><use x="748.499" xlink:href="#mf7b048cd89" y="146.514"/><use x="798.329" xlink:href="#mf7b048cd89" y="145.878"/><use x="848.16" xlink:href="#mf7b048cd89" y="146.074"/><use x="897.991" xlink:href="#mf7b048cd89" y="145.438"/><use x="947.821" xlink:href="#mf7b048cd89" y="144.656"/><use x="997.652" xlink:href="#mf7b048cd89" y="141.11"/><use x="1047.483" xlink:href="#mf7b048cd89" y="141.037"/><use x="1097.313" xlink:href="#mf7b048cd89" y="140.964"/><use x="1147.144" xlink:href="#mf7b048cd89" y="140.255"/><use x="1196.974" xlink:href="#mf7b048cd89" y="140.132"/><use x="1246.805" xlink:href="#mf7b048cd89" y="139.79"/><use x="1296.636" xlink:href="#mf7b048cd89" y="140.01"/><use x="1346.466" xlink:href="#mf7b048cd89" y="137.321"/><use x="1396.297" xlink:href="#mf7b048cd89" y="136.954"/><use x="1446.128" xlink:href="#mf7b048cd89" y="135.903"/><use x="1495.958" xlink:href="#mf7b048cd89" y="136.025"/><use x="1545.789" xlink:href="#mf7b048cd89" y="135.071"/><use x="1595.619" xlink:href="#mf7b048cd89" y="134.68"/><use x="1645.45" xlink:href="#mf7b048cd89" y="134.289"/><use x="1695.281" xlink:href="#mf7b048cd89" y="134.68"/><use x="1745.111" xlink:href="#mf7b048cd89" y="133.873"/><use x="1794.942" xlink:href="#mf7b048cd89" y="133.727"/><use x="1844.773" xlink:href="#mf7b048cd89" y="130.451"/><use x="1894.603" xlink:href="#mf7b048cd89" y="126.099"/><use x="1944.434" xlink:href="#mf7b048cd89" y="128.886"/><use x="1994.264" xlink:href="#mf7b048cd89" y="129.717"/><use x="2044.095" xlink:href="#mf7b048cd89" y="127.908"/><use x="2093.926" xlink:href="#mf7b048cd89" y="125.561"/><use x="2143.756" xlink:href="#mf7b048cd89" y="122.749"/><use x="2193.587" xlink:href="#mf7b048cd89" y="124.02"/><use x="2243.418" xlink:href="#mf7b048cd89" y="125.047"/><use x="2293.248" xlink:href="#mf7b048cd89" y="125.512"/><use x="2343.079" xlink:href="#mf7b048cd89" y="124.754"/><use x="2392.909" xlink:href="#mf7b048cd89" y="125.292"/><use x="2442.74" xlink:href="#mf7b048cd89" y="124.289"/><use x="2492.571" xlink:href="#mf7b048cd89" y="127.297"/><use x="2542.401" xlink:href="#mf7b048cd89" y="126.465"/><use x="2592.232" xlink:href="#mf7b048cd89" y="126.343"/><use x="2642.063" xlink:href="#mf7b048cd89" y="125.707"/><use x="2691.893" xlink:href="#mf7b048cd89" y="125.707"/><use x="2741.724" xlink:href="#mf7b048cd89" y="127.614"/><use x="2791.554" xlink:href="#mf7b048cd89" y="128.666"/><use x="2841.385" xlink:href="#mf7b048cd89" y="127.028"/><use x="2891.216" xlink:href="#mf7b048cd89" y="116.563"/><use x="2941.046" xlink:href="#mf7b048cd89" y="116.466"/><use x="2990.877" xlink:href="#mf7b048cd89" y="117.81"/><use x="3040.707" xlink:href="#mf7b048cd89" y="118.201"/><use x="3090.538" xlink:href="#mf7b048cd89" y="118.544"/><use x="3140.369" xlink:href="#mf7b048cd89" y="118.153"/><use x="3190.199" xlink:href="#mf7b048cd89" y="116.783"/><use x="3240.03" xlink:href="#mf7b048cd89" y="118.666"/><use x="3289.861" xlink:href="#mf7b048cd89" y="120.28"/><use x="3339.691" xlink:href="#mf7b048cd89" y="116.319"/><use x="3389.522" xlink:href="#mf7b048cd89" y="112.48"/><use x="3439.352" xlink:href="#mf7b048cd89" y="113.532"/><use x="3489.183" xlink:href="#mf7b048cd89" y="113.947"/><use x="3539.014" xlink:href="#mf7b048cd89" y="115.977"/><use x="3588.844" xlink:href="#mf7b048cd89" y="115.292"/><use x="3638.675" xlink:href="#mf7b048cd89" y="115.414"/><use x="3688.506" xlink:href="#mf7b048cd89" y="114.827"/><use x="3738.336" xlink:href="#mf7b048cd89" y="114.656"/><use x="3788.167" xlink:href="#mf7b048cd89" y="114.559"/><use x="3837.997" xlink:href="#mf7b048cd89" y="115.903"/><use x="3887.828" xlink:href="#mf7b048cd89" y="115.805"/><use x="3937.659" xlink:href="#mf7b048cd89" y="115.341"/><use x="3987.489" xlink:href="#mf7b048cd89" y="114.583"/><use x="4037.32" xlink:href="#mf7b048cd89" y="115.805"/><use x="4087.151" xlink:href="#mf7b048cd89" y="115.659"/><use x="4136.981" xlink:href="#mf7b048cd89" y="114.974"/><use x="4186.812" xlink:href="#mf7b048cd89" y="112.529"/><use x="4236.642" xlink:href="#mf7b048cd89" y="110.109"/><use x="4286.473" xlink:href="#mf7b048cd89" y="109.033"/><use x="4336.304" xlink:href="#mf7b048cd89" y="108.837"/><use x="4386.134" xlink:href="#mf7b048cd89" y="106.441"/><use x="4435.965" xlink:href="#mf7b048cd89" y="106.955"/><use x="4485.796" xlink:href="#mf7b048cd89" y="105.806"/><use x="4535.626" xlink:href="#mf7b048cd89" y="105.146"/><use x="4585.457" xlink:href="#mf7b048cd89" y="105.146"/><use x="4635.288" xlink:href="#mf7b048cd89" y="104.632"/><use x="4685.118" xlink:href="#mf7b048cd89" y="102.725"/><use x="4734.949" xlink:href="#mf7b048cd89" y="102.358"/><use x="4784.779" xlink:href="#mf7b048cd89" y="102.065"/><use x="4834.61" xlink:href="#mf7b048cd89" y="98.667"/><use x="4884.441" xlink:href="#mf7b048cd89" y="96.148"/><use x="4934.271" xlink:href="#mf7b048cd89" y="94.657"/><use x="4984.102" xlink:href="#mf7b048cd89" y="89.62"/><use x="5033.932" xlink:href="#mf7b048cd89" y="88.202"/><use x="5083.763" xlink:href="#mf7b048cd89" y="88.593"/><use x="5133.594" xlink:href="#mf7b048cd89" y="87.053"/><use x="5183.424" xlink:href="#mf7b048cd89" y="86.295"/><use x="5233.255" xlink:href="#mf7b048cd89" y="84.999"/><use x="5283.086" xlink:href="#mf7b048cd89" y="83.801"/><use x="5332.916" xlink:href="#mf7b048cd89" y="83.801"/><use x="5382.747" xlink:href="#mf7b048cd89" y="80.745"/><use x="5432.578" xlink:href="#mf7b048cd89" y="81.283"/><use x="5482.408" xlink:href="#mf7b048cd89" y="80.256"/><use x="5532.239" xlink:href="#mf7b048cd89" y="79.107"/><use x="5582.069" xlink:href="#mf7b048cd89" y="79.132"/><use x="5631.9" xlink:href="#mf7b048cd89" y="77.005"/><use x="5681.731" xlink:href="#mf7b048cd89" y="72.457"/><use x="5731.561" xlink:href="#mf7b048cd89" y="69.303"/><use x="5781.392" xlink:href="#mf7b048cd89" y="64.755"/><use x="5831.222" xlink:href="#mf7b048cd89" y="66.32"/><use x="5881.053" xlink:href="#mf7b048cd89" y="65.244"/><use x="5930.884" xlink:href="#mf7b048cd89" y="59.523"/><use x="5980.714" xlink:href="#mf7b048cd89" y="55.807"/><use x="6030.545" xlink:href="#mf7b048cd89" y="57.372"/><use x="6080.376" xlink:href="#mf7b048cd89" y="58.717"/><use x="6130.206" xlink:href="#mf7b048cd89" y="56.834"/><use x="6180.037" xlink:href="#mf7b048cd89" y="54.658"/><use x="6229.868" xlink:href="#mf7b048cd89" y="54.585"/><use x="6279.698" xlink:href="#mf7b048cd89" y="55.318"/><use x="6329.529" xlink:href="#mf7b048cd89" y="55.538"/><use x="6379.359" xlink:href="#mf7b048cd89" y="54.78"/><use x="6429.19" xlink:href="#mf7b048cd89" y="52.604"/><use x="6479.021" xlink:href="#mf7b048cd89" y="51.822"/><use x="6528.851" xlink:href="#mf7b048cd89" y="51.015"/><use x="6578.682" xlink:href="#mf7b048cd89" y="49.524"/></g></g><path d="M 50.87 525.04 L 50.87 26.88" fill="none" stroke="#000" stroke-linecap="square" stroke-width=".8" id="patch_3"/><path d="M 848.16 525.04 L 848.16 26.88" fill="none" stroke="#000" stroke-linecap="square" stroke-width=".8" id="patch_4"/><path d="M 50.87 525.04 L 848.16 525.04" fill="none" stroke="#000" stroke-linecap="square" stroke-width=".8" id="patch_5"/><path d="M 50.87 26.88 L 848.16 26.88" fill="none" stroke="#000" stroke-linecap="square" stroke-width=".8" id="patch_6"/><g id="text_29"><defs><path d="M -0.296875 72.90625 L 61.375 72.90625 L 61.375 64.59375 L 35.5 64.59375 L 35.5 0 L 25.59375 0 L 25.59375 64.59375 L -0.296875 64.59375 z" id="DejaVuSans-84"/><path d="M 11.71875 12.40625 L 22.015625 12.40625 L 22.015625 0 L 11.71875 0 z M 11.71875 51.703125 L 22.015625 51.703125 L 22.015625 39.3125 L 11.71875 39.3125 z" id="DejaVuSans-58"/><path d="M 5.609375 72.90625 L 62.890625 72.90625 L 62.890625 65.375 L 16.796875 8.296875 L 64.015625 8.296875 L 64.015625 0 L 4.5 0 L 4.5 7.515625 L 50.59375 64.59375 L 5.609375 64.59375 z" id="DejaVuSans-90"/><path d="M 52 44.1875 Q 55.375 50.25 60.0625 53.125 Q 64.75 56 71.09375 56 Q 79.640625 56 84.28125 50.015625 Q 88.921875 44.046875 88.921875 33.015625 L 88.921875 0 L 79.890625 0 L 79.890625 32.71875 Q 79.890625 40.578125 77.09375 44.375 Q 74.3125 48.1875 68.609375 48.1875 Q 61.625 48.1875 57.5625 43.546875 Q 53.515625 38.921875 53.515625 30.90625 L 53.515625 0 L 44.484375 0 L 44.484375 32.71875 Q 44.484375 40.625 41.703125 44.40625 Q 38.921875 48.1875 33.109375 48.1875 Q 26.21875 48.1875 22.15625 43.53125 Q 18.109375 38.875 18.109375 30.90625 L 18.109375 0 L 9.078125 0 L 9.078125 54.6875 L 18.109375 54.6875 L 18.109375 46.1875 Q 21.1875 51.21875 25.484375 53.609375 Q 29.78125 56 35.6875 56 Q 41.65625 56 45.828125 52.96875 Q 50 49.953125 52 44.1875 z" id="DejaVuSans-109"/><path d="M 45.40625 46.390625 L 45.40625 75.984375 L 54.390625 75.984375 L 54.390625 0 L 45.40625 0 L 45.40625 8.203125 Q 42.578125 3.328125 38.25 0.953125 Q 33.9375 -1.421875 27.875 -1.421875 Q 17.96875 -1.421875 11.734375 6.484375 Q 5.515625 14.40625 5.515625 27.296875 Q 5.515625 40.1875 11.734375 48.09375 Q 17.96875 56 27.875 56 Q 33.9375 56 38.25 53.625 Q 42.578125 51.265625 45.40625 46.390625 z M 14.796875 27.296875 Q 14.796875 17.390625 18.875 11.75 Q 22.953125 6.109375 30.078125 6.109375 Q 37.203125 6.109375 41.296875 11.75 Q 45.40625 17.390625 45.40625 27.296875 Q 45.40625 37.203125 41.296875 42.84375 Q 37.203125 48.484375 30.078125 48.484375 Q 22.953125 48.484375 18.875 42.84375 Q 14.796875 37.203125 14.796875 27.296875 z" id="DejaVuSans-100"/><path d="M 31 75.875 Q 24.46875 64.65625 21.28125 53.65625 Q 18.109375 42.671875 18.109375 31.390625 Q 18.109375 20.125 21.3125 9.0625 Q 24.515625 -2 31 -13.1875 L 23.1875 -13.1875 Q 15.875 -1.703125 12.234375 9.375 Q 8.59375 20.453125 8.59375 31.390625 Q 8.59375 42.28125 12.203125 53.3125 Q 15.828125 64.359375 23.1875 75.875 z" id="DejaVuSans-40"/><path d="M 53.515625 70.515625 L 53.515625 60.890625 Q 47.90625 63.578125 42.921875 64.890625 Q 37.9375 66.21875 33.296875 66.21875 Q 25.25 66.21875 20.875 63.09375 Q 16.5 59.96875 16.5 54.203125 Q 16.5 49.359375 19.40625 46.890625 Q 22.3125 44.4375 30.421875 42.921875 L 36.375 41.703125 Q 47.40625 39.59375 52.65625 34.296875 Q 57.90625 29 57.90625 20.125 Q 57.90625 9.515625 50.796875 4.046875 Q 43.703125 -1.421875 29.984375 -1.421875 Q 24.8125 -1.421875 18.96875 -0.25 Q 13.140625 0.921875 6.890625 3.21875 L 6.890625 13.375 Q 12.890625 10.015625 18.65625 8.296875 Q 24.421875 6.59375 29.984375 6.59375 Q 38.421875 6.59375 43.015625 9.90625 Q 47.609375 13.234375 47.609375 19.390625 Q 47.609375 24.75 44.3125 27.78125 Q 41.015625 30.8125 33.5 32.328125 L 27.484375 33.5 Q 16.453125 35.6875 11.515625 40.375 Q 6.59375 45.0625 6.59375 53.421875 Q 6.59375 63.09375 13.40625 68.65625 Q 20.21875 74.21875 32.171875 74.21875 Q 37.3125 74.21875 42.625 73.28125 Q 47.953125 72.359375 53.515625 70.515625 z" id="DejaVuSans-83"/><path d="M 9.8125 72.90625 L 19.671875 72.90625 L 19.671875 42.09375 L 52.390625 72.90625 L 65.09375 72.90625 L 28.90625 38.921875 L 67.671875 0 L 54.6875 0 L 19.671875 35.109375 L 19.671875 0 L 9.8125 0 z" id="DejaVuSans-75"/><path d="M 6.296875 72.90625 L 16.890625 72.90625 L 35.015625 45.796875 L 53.21875 72.90625 L 63.8125 72.90625 L 40.375 37.890625 L 65.375 0 L 54.78125 0 L 34.28125 31 L 13.625 0 L 2.984375 0 L 29 38.921875 z" id="DejaVuSans-88"/><path d="M 8.015625 75.875 L 15.828125 75.875 Q 23.140625 64.359375 26.78125 53.3125 Q 30.421875 42.28125 30.421875 31.390625 Q 30.421875 20.453125 26.78125 9.375 Q 23.140625 -1.703125 15.828125 -13.1875 L 8.015625 -13.1875 Q 14.5 -2 17.703125 9.0625 Q 20.90625 20.125 20.90625 31.390625 Q 20.90625 42.671875 17.703125 53.65625 Q 14.5 64.65625 8.015625 75.875 z" id="DejaVuSans-41"/></defs><g transform="matrix(.12 0 0 -.12 379.986 20.88)"><use xlink:href="#DejaVuSans-84"/><use x="60.818" xlink:href="#DejaVuSans-101"/><use x="122.342" xlink:href="#DejaVuSans-115"/><use x="174.441" xlink:href="#DejaVuSans-116"/><use x="213.65" xlink:href="#DejaVuSans-32"/><use x="245.438" xlink:href="#DejaVuSans-50"/><use x="309.061" xlink:href="#DejaVuSans-55"/><use x="372.684" xlink:href="#DejaVuSans-58"/><use x="406.375" xlink:href="#DejaVuSans-32"/><use x="438.162" xlink:href="#DejaVuSans-90"/><use x="506.668" xlink:href="#DejaVuSans-111"/><use x="567.85" xlink:href="#DejaVuSans-111"/><use x="629.031" xlink:href="#DejaVuSans-109"/><use x="726.443" xlink:href="#DejaVuSans-101"/><use x="787.967" xlink:href="#DejaVuSans-100"/><use x="851.443" xlink:href="#DejaVuSans-32"/><use x="883.23" xlink:href="#DejaVuSans-40"/><use x="922.244" xlink:href="#DejaVuSans-83"/><use x="985.721" xlink:href="#DejaVuSans-75"/><use x="1051.297" xlink:href="#DejaVuSans-88"/><use x="1119.803" xlink:href="#DejaVuSans-41"/></g></g><g id="legend_1"><path d="M 787.739687 64.23625 L 841.16 64.23625 Q 843.16 64.23625 843.16 62.23625 L 843.16 33.88 Q 843.16 31.88 841.16 31.88 L 787.739687 31.88 Q 785.739687 31.88 785.739687 33.88 L 785.739687 62.23625 Q 785.739687 64.23625 787.739687 64.23625 z" fill="#fff" opacity=".8" stroke="#ccc" id="patch_7"/><path d="M 789.739687 39.978437 L 809.739687 39.978437" fill="none" stroke="#1f77b4" stroke-linecap="square" stroke-width="1.5" id="line2d_55"/><use x="799.74" xlink:href="#mfd23d3c377" y="39.978" fill="#1f77b4" stroke="#1f77b4" id="line2d_56"/><g id="text_30"><defs><path d="M 9.8125 72.90625 L 24.515625 72.90625 L 43.109375 23.296875 L 61.8125 72.90625 L 76.515625 72.90625 L 76.515625 0 L 66.890625 0 L 66.890625 64.015625 L 48.09375 14.015625 L 38.1875 14.015625 L 19.390625 64.015625 L 19.390625 0 L 9.8125 0 z" id="DejaVuSans-77"/><path d="M 9.8125 72.90625 L 23.09375 72.90625 L 55.421875 11.921875 L 55.421875 72.90625 L 64.984375 72.90625 L 64.984375 0 L 51.703125 0 L 19.390625 60.984375 L 19.390625 0 L 9.8125 0 z" id="DejaVuSans-78"/></defs><g transform="matrix(.1 0 0 -.1 817.74 43.478)"><use xlink:href="#DejaVuSans-77"/><use x="86.279" xlink:href="#DejaVuSans-73"/><use x="115.771" xlink:href="#DejaVuSans-78"/></g></g><path d="M 789.739687 54.656562 L 809.739687 54.656562" fill="none" stroke="#ff7f0e" stroke-linecap="square" stroke-width="1.5" id="line2d_57"/><use x="799.74" xlink:href="#mf7b048cd89" y="54.657" fill="#ff7f0e" stroke="#ff7f0e" id="line2d_58"/><g id="text_31"><defs><path d="M 34.1875 63.1875 L 20.796875 26.90625 L 47.609375 26.90625 z M 28.609375 72.90625 L 39.796875 72.90625 L 67.578125 0 L 57.328125 0 L 50.6875 18.703125 L 17.828125 18.703125 L 11.1875 0 L 0.78125 0 z" id="DejaVuSans-65"/><path d="M 28.609375 0 L 0.78125 72.90625 L 11.078125 72.90625 L 34.1875 11.53125 L 57.328125 72.90625 L 67.578125 72.90625 L 39.796875 0 z" id="DejaVuSans-86"/><path d="M 59.515625 10.40625 L 59.515625 29.984375 L 43.40625 29.984375 L 43.40625 38.09375 L 69.28125 38.09375 L 69.28125 6.78125 Q 63.578125 2.734375 56.6875 0.65625 Q 49.8125 -1.421875 42 -1.421875 Q 24.90625 -1.421875 15.25 8.5625 Q 5.609375 18.5625 5.609375 36.375 Q 5.609375 54.25 15.25 64.234375 Q 24.90625 74.21875 42 74.21875 Q 49.125 74.21875 55.546875 72.453125 Q 61.96875 70.703125 67.390625 67.28125 L 67.390625 56.78125 Q 61.921875 61.421875 55.765625 63.765625 Q 49.609375 66.109375 42.828125 66.109375 Q 29.4375 66.109375 22.71875 58.640625 Q 16.015625 51.171875 16.015625 36.375 Q 16.015625 21.625 22.71875 14.15625 Q 29.4375 6.6875 42.828125 6.6875 Q 48.046875 6.6875 52.140625 7.59375 Q 56.25 8.5 59.515625 10.40625 z" id="DejaVuSans-71"/></defs><g transform="matrix(.1 0 0 -.1 817.74 58.157)"><use xlink:href="#DejaVuSans-65"/><use x="68.314" xlink:href="#DejaVuSans-86"/><use x="136.723" xlink:href="#DejaVuSans-71"/></g></g></g></g></g><defs><clipPath id="p94fa6ca0f6"><path d="M50.87 26.88H848.16V525.0400000000001H50.87z"/></clipPath></defs></svg>