<svg height="768" viewBox="0 0 864 576" width="1152" xmlns="http://www.w3.org/2000/svg" xmlns:xlink="http://www.w3.org/1999/xlink"><defs><style>*{stroke-linecap:butt;stroke-linejoin:round}</style></defs><g id="figure_1"><path d="M 0 576 L 864 576 L 864 0 L 0 0 z" fill="#fff" id="patch_1"/><g id="axes_1"><path d="M 50.87 524.95 L 850.68 524.95 L 850.68 26.88 L 50.87 26.88 z" fill="#fff" id="patch_2"/><g id="matplotlib.axis_1"><g id="xtick_1"><path clip-path="url(#p74d9dedb55)" d="M 50.87 524.95 L 50.87 26.88" fill="none" stroke="#b0b0b0" stroke-linecap="square" stroke-width=".8" id="line2d_1"/><g id="line2d_2"><defs><path d="M 0 0 L 0 3.5" id="mfc518bbc66" stroke="#000" stroke-width=".8"/></defs><use x="50.87" xlink:href="#mfc518bbc66" y="524.95" stroke="#000" stroke-width=".8"/></g><g id="text_1"><defs><path d="M 12.40625 8.296875 L 28.515625 8.296875 L 28.515625 63.921875 L 10.984375 60.40625 L 10.984375 69.390625 L 28.421875 72.90625 L 38.28125 72.90625 L 38.28125 8.296875 L 54.390625 8.296875 L 54.390625 0 L 12.40625 0 z" id="DejaVuSans-49"/><path d="M 33.015625 40.375 Q 26.375 40.375 22.484375 35.828125 Q 18.609375 31.296875 18.609375 23.390625 Q 18.609375 15.53125 22.484375 10.953125 Q 26.375 6.390625 33.015625 6.390625 Q 39.65625 6.390625 43.53125 10.953125 Q 47.40625 15.53125 47.40625 23.390625 Q 47.40625 31.296875 43.53125 35.828125 Q 39.65625 40.375 33.015625 40.375 z M 52.59375 71.296875 L 52.59375 62.3125 Q 48.875 64.0625 45.09375 64.984375 Q 41.3125 65.921875 37.59375 65.921875 Q 27.828125 65.921875 22.671875 59.328125 Q 17.53125 52.734375 16.796875 39.40625 Q 19.671875 43.65625 24.015625 45.921875 Q 28.375 48.1875 33.59375 48.1875 Q 44.578125 48.1875 50.953125 41.515625 Q 57.328125 34.859375 57.328125 23.390625 Q 57.328125 12.15625 50.6875 5.359375 Q 44.046875 -1.421875 33.015625 -1.421875 Q 20.359375 -1.421875 13.671875 8.265625 Q 6.984375 17.96875 6.984375 36.375 Q 6.984375 53.65625 15.1875 63.9375 Q 23.390625 74.21875 37.203125 74.21875 Q 40.921875 74.21875 44.703125 73.484375 Q 48.484375 72.75 52.59375 71.296875 z" id="DejaVuSans-54"/></defs><g transform="matrix(0 -.1 -.1 0 53.63 544.675)"><use xlink:href="#DejaVuSans-49"/><use x="63.623" xlink:href="#DejaVuSans-54"/></g></g></g><g id="xtick_2"><path clip-path="url(#p74d9dedb55)" d="M 64.255941 524.95 L 64.255941 26.88" fill="none" stroke="#b0b0b0" stroke-linecap="square" stroke-width=".8" id="line2d_3"/><use x="64.256" xlink:href="#mfc518bbc66" y="524.95" stroke="#000" stroke-width=".8" id="line2d_4"/><g id="text_2"><defs><path d="M 19.1875 8.296875 L 53.609375 8.296875 L 53.609375 0 L 7.328125 0 L 7.328125 8.296875 Q 12.9375 14.109375 22.625 23.890625 Q 32.328125 33.6875 34.8125 36.53125 Q 39.546875 41.84375 41.421875 45.53125 Q 43.3125 49.21875 43.3125 52.78125 Q 43.3125 58.59375 39.234375 62.25 Q 35.15625 65.921875 28.609375 65.921875 Q 23.96875 65.921875 18.8125 64.3125 Q 13.671875 62.703125 7.8125 59.421875 L 7.8125 69.390625 Q 13.765625 71.78125 18.9375 73 Q 24.125 74.21875 28.421875 74.21875 Q 39.75 74.21875 46.484375 68.546875 Q 53.21875 62.890625 53.21875 53.421875 Q 53.21875 48.921875 51.53125 44.890625 Q 49.859375 40.875 45.40625 35.40625 Q 44.1875 33.984375 37.640625 27.21875 Q 31.109375 20.453125 19.1875 8.296875 z" id="DejaVuSans-50"/><path d="M 31.78125 66.40625 Q 24.171875 66.40625 20.328125 58.90625 Q 16.5 51.421875 16.5 36.375 Q 16.5 21.390625 20.328125 13.890625 Q 24.171875 6.390625 31.78125 6.390625 Q 39.453125 6.390625 43.28125 13.890625 Q 47.125 21.390625 47.125 36.375 Q 47.125 51.421875 43.28125 58.90625 Q 39.453125 66.40625 31.78125 66.40625 z M 31.78125 74.21875 Q 44.046875 74.21875 50.515625 64.515625 Q 56.984375 54.828125 56.984375 36.375 Q 56.984375 17.96875 50.515625 8.265625 Q 44.046875 -1.421875 31.78125 -1.421875 Q 19.53125 -1.421875 13.0625 8.265625 Q 6.59375 17.96875 6.59375 36.375 Q 6.59375 54.828125 13.0625 64.515625 Q 19.53125 74.21875 31.78125 74.21875 z" id="DejaVuSans-48"/></defs><g transform="matrix(0 -.1 -.1 0 67.015 544.675)"><use xlink:href="#DejaVuSans-50"/><use x="63.623" xlink:href="#DejaVuSans-48"/></g></g></g><g id="xtick_3"><path clip-path="url(#p74d9dedb55)" d="M 77.641883 524.95 L 77.641883 26.88" fill="none" stroke="#b0b0b0" stroke-linecap="square" stroke-width=".8" id="line2d_5"/><use x="77.642" xlink:href="#mfc518bbc66" y="524.95" stroke="#000" stroke-width=".8" id="line2d_6"/><g id="text_3"><defs><path d="M 37.796875 64.3125 L 12.890625 25.390625 L 37.796875 25.390625 z M 35.203125 72.90625 L 47.609375 72.90625 L 47.609375 25.390625 L 58.015625 25.390625 L 58.015625 17.1875 L 47.609375 17.1875 L 47.609375 0 L 37.796875 0 L 37.796875 17.1875 L 4.890625 17.1875 L 4.890625 26.703125 z" id="DejaVuSans-52"/></defs><g transform="matrix(0 -.1 -.1 0 80.401 544.675)"><use xlink:href="#DejaVuSans-50"/><use x="63.623" xlink:href="#DejaVuSans-52"/></g></g></g><g id="xtick_4"><path clip-path="url(#p74d9dedb55)" d="M 91.027824 524.95 L 91.027824 26.88" fill="none" stroke="#b0b0b0" stroke-linecap="square" stroke-width=".8" id="line2d_7"/><use x="91.028" xlink:href="#mfc518bbc66" y="524.95" stroke="#000" stroke-width=".8" id="line2d_8"/><g id="text_4"><defs><path d="M 31.78125 34.625 Q 24.75 34.625 20.71875 30.859375 Q 16.703125 27.09375 16.703125 20.515625 Q 16.703125 13.921875 20.71875 10.15625 Q 24.75 6.390625 31.78125 6.390625 Q 38.8125 6.390625 42.859375 10.171875 Q 46.921875 13.96875 46.921875 20.515625 Q 46.921875 27.09375 42.890625 30.859375 Q 38.875 34.625 31.78125 34.625 z M 21.921875 38.8125 Q 15.578125 40.375 12.03125 44.71875 Q 8.5 49.078125 8.5 55.328125 Q 8.5 64.0625 14.71875 69.140625 Q 20.953125 74.21875 31.78125 74.21875 Q 42.671875 74.21875 48.875 69.140625 Q 55.078125 64.0625 55.078125 55.328125 Q 55.078125 49.078125 51.53125 44.71875 Q 48 40.375 41.703125 38.8125 Q 48.828125 37.15625 52.796875 32.3125 Q 56.78125 27.484375 56.78125 20.515625 Q 56.78125 9.90625 50.3125 4.234375 Q 43.84375 -1.421875 31.78125 -1.421875 Q 19.734375 -1.421875 13.25 4.234375 Q 6.78125 9.90625 6.78125 20.515625 Q 6.78125 27.484375 10.78125 32.3125 Q 14.796875 37.15625 21.921875 38.8125 z M 18.3125 54.390625 Q 18.3125 48.734375 21.84375 45.5625 Q 25.390625 42.390625 31.78125 42.390625 Q 38.140625 42.390625 41.71875 45.5625 Q 45.3125 48.734375 45.3125 54.390625 Q 45.3125 60.0625 41.71875 63.234375 Q 38.140625 66.40625 31.78125 66.40625 Q 25.390625 66.40625 21.84375 63.234375 Q 18.3125 60.0625 18.3125 54.390625 z" id="DejaVuSans-56"/></defs><g transform="matrix(0 -.1 -.1 0 93.787 544.675)"><use xlink:href="#DejaVuSans-50"/><use x="63.623" xlink:href="#DejaVuSans-56"/></g></g></g><g id="xtick_5"><path clip-path="url(#p74d9dedb55)" d="M 104.413766 524.95 L 104.413766 26.88" fill="none" stroke="#b0b0b0" stroke-linecap="square" stroke-width=".8" id="line2d_9"/><use x="104.414" xlink:href="#mfc518bbc66" y="524.95" stroke="#000" stroke-width=".8" id="line2d_10"/><g id="text_5"><defs><path d="M 40.578125 39.3125 Q 47.65625 37.796875 51.625 33 Q 55.609375 28.21875 55.609375 21.1875 Q 55.609375 10.40625 48.1875 4.484375 Q 40.765625 -1.421875 27.09375 -1.421875 Q 22.515625 -1.421875 17.65625 -0.515625 Q 12.796875 0.390625 7.625 2.203125 L 7.625 11.71875 Q 11.71875 9.328125 16.59375 8.109375 Q 21.484375 6.890625 26.8125 6.890625 Q 36.078125 6.890625 40.9375 10.546875 Q 45.796875 14.203125 45.796875 21.1875 Q 45.796875 27.640625 41.28125 31.265625 Q 36.765625 34.90625 28.71875 34.90625 L 20.21875 34.90625 L 20.21875 43.015625 L 29.109375 43.015625 Q 36.375 43.015625 40.234375 45.921875 Q 44.09375 48.828125 44.09375 54.296875 Q 44.09375 59.90625 40.109375 62.90625 Q 36.140625 65.921875 28.71875 65.921875 Q 24.65625 65.921875 20.015625 65.03125 Q 15.375 64.15625 9.8125 62.3125 L 9.8125 71.09375 Q 15.4375 72.65625 20.34375 73.4375 Q 25.25 74.21875 29.59375 74.21875 Q 40.828125 74.21875 47.359375 69.109375 Q 53.90625 64.015625 53.90625 55.328125 Q 53.90625 49.265625 50.4375 45.09375 Q 46.96875 40.921875 40.578125 39.3125 z" id="DejaVuSans-51"/></defs><g transform="matrix(0 -.1 -.1 0 107.173 544.675)"><use xlink:href="#DejaVuSans-51"/><use x="63.623" xlink:href="#DejaVuSans-50"/></g></g></g><g id="xtick_6"><path clip-path="url(#p74d9dedb55)" d="M 117.799707 524.95 L 117.799707 26.88" fill="none" stroke="#b0b0b0" stroke-linecap="square" stroke-width=".8" id="line2d_11"/><use x="117.8" xlink:href="#mfc518bbc66" y="524.95" stroke="#000" stroke-width=".8" id="line2d_12"/><g transform="matrix(0 -.1 -.1 0 120.56 544.675)" id="text_6"><use xlink:href="#DejaVuSans-51"/><use x="63.623" xlink:href="#DejaVuSans-54"/></g></g><g id="xtick_7"><path clip-path="url(#p74d9dedb55)" d="M 131.185649 524.95 L 131.185649 26.88" fill="none" stroke="#b0b0b0" stroke-linecap="square" stroke-width=".8" id="line2d_13"/><use x="131.186" xlink:href="#mfc518bbc66" y="524.95" stroke="#000" stroke-width=".8" id="line2d_14"/><g transform="matrix(0 -.1 -.1 0 133.945 544.675)" id="text_7"><use xlink:href="#DejaVuSans-52"/><use x="63.623" xlink:href="#DejaVuSans-48"/></g></g><g id="xtick_8"><path clip-path="url(#p74d9dedb55)" d="M 144.57159 524.95 L 144.57159 26.88" fill="none" stroke="#b0b0b0" stroke-linecap="square" stroke-width=".8" id="line2d_15"/><use x="144.572" xlink:href="#mfc518bbc66" y="524.95" stroke="#000" stroke-width=".8" id="line2d_16"/><g transform="matrix(0 -.1 -.1 0 147.331 544.675)" id="text_8"><use xlink:href="#DejaVuSans-52"/><use x="63.623" xlink:href="#DejaVuSans-52"/></g></g><g id="xtick_9"><path clip-path="url(#p74d9dedb55)" d="M 157.957531 524.95 L 157.957531 26.88" fill="none" stroke="#b0b0b0" stroke-linecap="square" stroke-width=".8" id="line2d_17"/><use x="157.958" xlink:href="#mfc518bbc66" y="524.95" stroke="#000" stroke-width=".8" id="line2d_18"/><g transform="matrix(0 -.1 -.1 0 160.717 544.675)" id="text_9"><use xlink:href="#DejaVuSans-52"/><use x="63.623" xlink:href="#DejaVuSans-56"/></g></g><g id="xtick_10"><path clip-path="url(#p74d9dedb55)" d="M 171.343473 524.95 L 171.343473 26.88" fill="none" stroke="#b0b0b0" stroke-linecap="square" stroke-width=".8" id="line2d_19"/><use x="171.343" xlink:href="#mfc518bbc66" y="524.95" stroke="#000" stroke-width=".8" id="line2d_20"/><g id="text_10"><defs><path d="M 10.796875 72.90625 L 49.515625 72.90625 L 49.515625 64.59375 L 19.828125 64.59375 L 19.828125 46.734375 Q 21.96875 47.46875 24.109375 47.828125 Q 26.265625 48.1875 28.421875 48.1875 Q 40.625 48.1875 47.75 41.5 Q 54.890625 34.8125 54.890625 23.390625 Q 54.890625 11.625 47.5625 5.09375 Q 40.234375 -1.421875 26.90625 -1.421875 Q 22.3125 -1.421875 17.546875 -0.640625 Q 12.796875 0.140625 7.71875 1.703125 L 7.71875 11.625 Q 12.109375 9.234375 16.796875 8.0625 Q 21.484375 6.890625 26.703125 6.890625 Q 35.15625 6.890625 40.078125 11.328125 Q 45.015625 15.765625 45.015625 23.390625 Q 45.015625 31 40.078125 35.4375 Q 35.15625 39.890625 26.703125 39.890625 Q 22.75 39.890625 18.8125 39.015625 Q 14.890625 38.140625 10.796875 36.28125 z" id="DejaVuSans-53"/></defs><g transform="matrix(0 -.1 -.1 0 174.103 544.675)"><use xlink:href="#DejaVuSans-53"/><use x="63.623" xlink:href="#DejaVuSans-50"/></g></g></g><g id="xtick_11"><path clip-path="url(#p74d9dedb55)" d="M 184.729414 524.95 L 184.729414 26.88" fill="none" stroke="#b0b0b0" stroke-linecap="square" stroke-width=".8" id="line2d_21"/><use x="184.729" xlink:href="#mfc518bbc66" y="524.95" stroke="#000" stroke-width=".8" id="line2d_22"/><g transform="matrix(0 -.1 -.1 0 187.489 544.675)" id="text_11"><use xlink:href="#DejaVuSans-53"/><use x="63.623" xlink:href="#DejaVuSans-54"/></g></g><g id="xtick_12"><path clip-path="url(#p74d9dedb55)" d="M 198.115356 524.95 L 198.115356 26.88" fill="none" stroke="#b0b0b0" stroke-linecap="square" stroke-width=".8" id="line2d_23"/><use x="198.115" xlink:href="#mfc518bbc66" y="524.95" stroke="#000" stroke-width=".8" id="line2d_24"/><g transform="matrix(0 -.1 -.1 0 200.875 544.675)" id="text_12"><use xlink:href="#DejaVuSans-54"/><use x="63.623" xlink:href="#DejaVuSans-48"/></g></g><g id="xtick_13"><path clip-path="url(#p74d9dedb55)" d="M 211.501297 524.95 L 211.501297 26.88" fill="none" stroke="#b0b0b0" stroke-linecap="square" stroke-width=".8" id="line2d_25"/><use x="211.501" xlink:href="#mfc518bbc66" y="524.95" stroke="#000" stroke-width=".8" id="line2d_26"/><g transform="matrix(0 -.1 -.1 0 214.26 544.675)" id="text_13"><use xlink:href="#DejaVuSans-54"/><use x="63.623" xlink:href="#DejaVuSans-52"/></g></g><g id="xtick_14"><path clip-path="url(#p74d9dedb55)" d="M 224.887238 524.95 L 224.887238 26.88" fill="none" stroke="#b0b0b0" stroke-linecap="square" stroke-width=".8" id="line2d_27"/><use x="224.887" xlink:href="#mfc518bbc66" y="524.95" stroke="#000" stroke-width=".8" id="line2d_28"/><g transform="matrix(0 -.1 -.1 0 227.647 544.675)" id="text_14"><use xlink:href="#DejaVuSans-54"/><use x="63.623" xlink:href="#DejaVuSans-56"/></g></g><g id="xtick_15"><path clip-path="url(#p74d9dedb55)" d="M 238.27318 524.95 L 238.27318 26.88" fill="none" stroke="#b0b0b0" stroke-linecap="square" stroke-width=".8" id="line2d_29"/><use x="238.273" xlink:href="#mfc518bbc66" y="524.95" stroke="#000" stroke-width=".8" id="line2d_30"/><g id="text_15"><defs><path d="M 8.203125 72.90625 L 55.078125 72.90625 L 55.078125 68.703125 L 28.609375 0 L 18.3125 0 L 43.21875 64.59375 L 8.203125 64.59375 z" id="DejaVuSans-55"/></defs><g transform="matrix(0 -.1 -.1 0 241.033 544.675)"><use xlink:href="#DejaVuSans-55"/><use x="63.623" xlink:href="#DejaVuSans-50"/></g></g></g><g id="xtick_16"><path clip-path="url(#p74d9dedb55)" d="M 251.659121 524.95 L 251.659121 26.88" fill="none" stroke="#b0b0b0" stroke-linecap="square" stroke-width=".8" id="line2d_31"/><use x="251.659" xlink:href="#mfc518bbc66" y="524.95" stroke="#000" stroke-width=".8" id="line2d_32"/><g transform="matrix(0 -.1 -.1 0 254.418 544.675)" id="text_16"><use xlink:href="#DejaVuSans-55"/><use x="63.623" xlink:href="#DejaVuSans-54"/></g></g><g id="xtick_17"><path clip-path="url(#p74d9dedb55)" d="M 265.045063 524.95 L 265.045063 26.88" fill="none" stroke="#b0b0b0" stroke-linecap="square" stroke-width=".8" id="line2d_33"/><use x="265.045" xlink:href="#mfc518bbc66" y="524.95" stroke="#000" stroke-width=".8" id="line2d_34"/><g transform="matrix(0 -.1 -.1 0 267.804 544.675)" id="text_17"><use xlink:href="#DejaVuSans-56"/><use x="63.623" xlink:href="#DejaVuSans-48"/></g></g><g id="xtick_18"><path clip-path="url(#p74d9dedb55)" d="M 278.431004 524.95 L 278.431004 26.88" fill="none" stroke="#b0b0b0" stroke-linecap="square" stroke-width=".8" id="line2d_35"/><use x="278.431" xlink:href="#mfc518bbc66" y="524.95" stroke="#000" stroke-width=".8" id="line2d_36"/><g transform="matrix(0 -.1 -.1 0 281.19 544.675)" id="text_18"><use xlink:href="#DejaVuSans-56"/><use x="63.623" xlink:href="#DejaVuSans-52"/></g></g><g id="xtick_19"><path clip-path="url(#p74d9dedb55)" d="M 291.816946 524.95 L 291.816946 26.88" fill="none" stroke="#b0b0b0" stroke-linecap="square" stroke-width=".8" id="line2d_37"/><use x="291.817" xlink:href="#mfc518bbc66" y="524.95" stroke="#000" stroke-width=".8" id="line2d_38"/><g transform="matrix(0 -.1 -.1 0 294.576 544.675)" id="text_19"><use xlink:href="#DejaVuSans-56"/><use x="63.623" xlink:href="#DejaVuSans-56"/></g></g><g id="xtick_20"><path clip-path="url(#p74d9dedb55)" d="M 305.202887 524.95 L 305.202887 26.88" fill="none" stroke="#b0b0b0" stroke-linecap="square" stroke-width=".8" id="line2d_39"/><use x="305.203" xlink:href="#mfc518bbc66" y="524.95" stroke="#000" stroke-width=".8" id="line2d_40"/><g id="text_20"><defs><path d="M 10.984375 1.515625 L 10.984375 10.5 Q 14.703125 8.734375 18.5 7.8125 Q 22.3125 6.890625 25.984375 6.890625 Q 35.75 6.890625 40.890625 13.453125 Q 46.046875 20.015625 46.78125 33.40625 Q 43.953125 29.203125 39.59375 26.953125 Q 35.25 24.703125 29.984375 24.703125 Q 19.046875 24.703125 12.671875 31.3125 Q 6.296875 37.9375 6.296875 49.421875 Q 6.296875 60.640625 12.9375 67.421875 Q 19.578125 74.21875 30.609375 74.21875 Q 43.265625 74.21875 49.921875 64.515625 Q 56.59375 54.828125 56.59375 36.375 Q 56.59375 19.140625 48.40625 8.859375 Q 40.234375 -1.421875 26.421875 -1.421875 Q 22.703125 -1.421875 18.890625 -0.6875 Q 15.09375 0.046875 10.984375 1.515625 z M 30.609375 32.421875 Q 37.25 32.421875 41.125 36.953125 Q 45.015625 41.5 45.015625 49.421875 Q 45.015625 57.28125 41.125 61.84375 Q 37.25 66.40625 30.609375 66.40625 Q 23.96875 66.40625 20.09375 61.84375 Q 16.21875 57.28125 16.21875 49.421875 Q 16.21875 41.5 20.09375 36.953125 Q 23.96875 32.421875 30.609375 32.421875 z" id="DejaVuSans-57"/></defs><g transform="matrix(0 -.1 -.1 0 307.962 544.675)"><use xlink:href="#DejaVuSans-57"/><use x="63.623" xlink:href="#DejaVuSans-50"/></g></g></g><g id="xtick_21"><path clip-path="url(#p74d9dedb55)" d="M 318.588828 524.95 L 318.588828 26.88" fill="none" stroke="#b0b0b0" stroke-linecap="square" stroke-width=".8" id="line2d_41"/><use x="318.589" xlink:href="#mfc518bbc66" y="524.95" stroke="#000" stroke-width=".8" id="line2d_42"/><g transform="matrix(0 -.1 -.1 0 321.348 544.675)" id="text_21"><use xlink:href="#DejaVuSans-57"/><use x="63.623" xlink:href="#DejaVuSans-54"/></g></g><g id="xtick_22"><path clip-path="url(#p74d9dedb55)" d="M 331.97477 524.95 L 331.97477 26.88" fill="none" stroke="#b0b0b0" stroke-linecap="square" stroke-width=".8" id="line2d_43"/><use x="331.975" xlink:href="#mfc518bbc66" y="524.95" stroke="#000" stroke-width=".8" id="line2d_44"/><g transform="matrix(0 -.1 -.1 0 334.734 551.038)" id="text_22"><use xlink:href="#DejaVuSans-49"/><use x="63.623" xlink:href="#DejaVuSans-48"/><use x="127.246" xlink:href="#DejaVuSans-48"/></g></g><g id="xtick_23"><path clip-path="url(#p74d9dedb55)" d="M 345.360711 524.95 L 345.360711 26.88" fill="none" stroke="#b0b0b0" stroke-linecap="square" stroke-width=".8" id="line2d_45"/><use x="345.361" xlink:href="#mfc518bbc66" y="524.95" stroke="#000" stroke-width=".8" id="line2d_46"/><g transform="matrix(0 -.1 -.1 0 348.12 551.038)" id="text_23"><use xlink:href="#DejaVuSans-49"/><use x="63.623" xlink:href="#DejaVuSans-48"/><use x="127.246" xlink:href="#DejaVuSans-52"/></g></g><g id="xtick_24"><path clip-path="url(#p74d9dedb55)" d="M 358.746653 524.95 L 358.746653 26.88" fill="none" stroke="#b0b0b0" stroke-linecap="square" stroke-width=".8" id="line2d_47"/><use x="358.747" xlink:href="#mfc518bbc66" y="524.95" stroke="#000" stroke-width=".8" id="line2d_48"/><g transform="matrix(0 -.1 -.1 0 361.506 551.038)" id="text_24"><use xlink:href="#DejaVuSans-49"/><use x="63.623" xlink:href="#DejaVuSans-48"/><use x="127.246" xlink:href="#DejaVuSans-56"/></g></g><g id="xtick_25"><path clip-path="url(#p74d9dedb55)" d="M 372.132594 524.95 L 372.132594 26.88" fill="none" stroke="#b0b0b0" stroke-linecap="square" stroke-width=".8" id="line2d_49"/><use x="372.133" xlink:href="#mfc518bbc66" y="524.95" stroke="#000" stroke-width=".8" id="line2d_50"/><g transform="matrix(0 -.1 -.1 0 374.892 551.038)" id="text_25"><use xlink:href="#DejaVuSans-49"/><use x="63.623" xlink:href="#DejaVuSans-49"/><use x="127.246" xlink:href="#DejaVuSans-50"/></g></g><g id="xtick_26"><path clip-path="url(#p74d9dedb55)" d="M 385.518536 524.95 L 385.518536 26.88" fill="none" stroke="#b0b0b0" stroke-linecap="square" stroke-width=".8" id="line2d_51"/><use x="385.519" xlink:href="#mfc518bbc66" y="524.95" stroke="#000" stroke-width=".8" id="line2d_52"/><g transform="matrix(0 -.1 -.1 0 388.278 551.038)" id="text_26"><use xlink:href="#DejaVuSans-49"/><use x="63.623" xlink:href="#DejaVuSans-49"/><use x="127.246" xlink:href="#DejaVuSans-54"/></g></g><g id="xtick_27"><path clip-path="url(#p74d9dedb55)" d="M 398.904477 524.95 L 398.904477 26.88" fill="none" stroke="#b0b0b0" stroke-linecap="square" stroke-width=".8" id="line2d_53"/><use x="398.904" xlink:href="#mfc518bbc66" y="524.95" stroke="#000" stroke-width=".8" id="line2d_54"/><g transform="matrix(0 -.1 -.1 0 401.664 551.038)" id="text_27"><use xlink:href="#DejaVuSans-49"/><use x="63.623" xlink:href="#DejaVuSans-50"/><use x="127.246" xlink:href="#DejaVuSans-48"/></g></g><g id="xtick_28"><path clip-path="url(#p74d9dedb55)" d="M 412.290418 524.95 L 412.290418 26.88" fill="none" stroke="#b0b0b0" stroke-linecap="square" stroke-width=".8" id="line2d_55"/><use x="412.29" xlink:href="#mfc518bbc66" y="524.95" stroke="#000" stroke-width=".8" id="line2d_56"/><g transform="matrix(0 -.1 -.1 0 415.05 551.038)" id="text_28"><use xlink:href="#DejaVuSans-49"/><use x="63.623" xlink:href="#DejaVuSans-50"/><use x="127.246" xlink:href="#DejaVuSans-52"/></g></g><g id="xtick_29"><path clip-path="url(#p74d9dedb55)" d="M 425.67636 524.95 L 425.67636 26.88" fill="none" stroke="#b0b0b0" stroke-linecap="square" stroke-width=".8" id="line2d_57"/><use x="425.676" xlink:href="#mfc518bbc66" y="524.95" stroke="#000" stroke-width=".8" id="line2d_58"/><g transform="matrix(0 -.1 -.1 0 428.436 551.038)" id="text_29"><use xlink:href="#DejaVuSans-49"/><use x="63.623" xlink:href="#DejaVuSans-50"/><use x="127.246" xlink:href="#DejaVuSans-56"/></g></g><g id="xtick_30"><path clip-path="url(#p74d9dedb55)" d="M 439.062301 524.95 L 439.062301 26.88" fill="none" stroke="#b0b0b0" stroke-linecap="square" stroke-width=".8" id="line2d_59"/><use x="439.062" xlink:href="#mfc518bbc66" y="524.95" stroke="#000" stroke-width=".8" id="line2d_60"/><g transform="matrix(0 -.1 -.1 0 441.822 551.038)" id="text_30"><use xlink:href="#DejaVuSans-49"/><use x="63.623" xlink:href="#DejaVuSans-51"/><use x="127.246" xlink:href="#DejaVuSans-50"/></g></g><g id="xtick_31"><path clip-path="url(#p74d9dedb55)" d="M 452.448243 524.95 L 452.448243 26.88" fill="none" stroke="#b0b0b0" stroke-linecap="square" stroke-width=".8" id="line2d_61"/><use x="452.448" xlink:href="#mfc518bbc66" y="524.95" stroke="#000" stroke-width=".8" id="line2d_62"/><g transform="matrix(0 -.1 -.1 0 455.208 551.038)" id="text_31"><use xlink:href="#DejaVuSans-49"/><use x="63.623" xlink:href="#DejaVuSans-51"/><use x="127.246" xlink:href="#DejaVuSans-54"/></g></g><g id="xtick_32"><path clip-path="url(#p74d9dedb55)" d="M 465.834184 524.95 L 465.834184 26.88" fill="none" stroke="#b0b0b0" stroke-linecap="square" stroke-width=".8" id="line2d_63"/><use x="465.834" xlink:href="#mfc518bbc66" y="524.95" stroke="#000" stroke-width=".8" id="line2d_64"/><g transform="matrix(0 -.1 -.1 0 468.594 551.038)" id="text_32"><use xlink:href="#DejaVuSans-49"/><use x="63.623" xlink:href="#DejaVuSans-52"/><use x="127.246" xlink:href="#DejaVuSans-48"/></g></g><g id="xtick_33"><path clip-path="url(#p74d9dedb55)" d="M 479.220126 524.95 L 479.220126 26.88" fill="none" stroke="#b0b0b0" stroke-linecap="square" stroke-width=".8" id="line2d_65"/><use x="479.22" xlink:href="#mfc518bbc66" y="524.95" stroke="#000" stroke-width=".8" id="line2d_66"/><g transform="matrix(0 -.1 -.1 0 481.98 551.038)" id="text_33"><use xlink:href="#DejaVuSans-49"/><use x="63.623" xlink:href="#DejaVuSans-52"/><use x="127.246" xlink:href="#DejaVuSans-52"/></g></g><g id="xtick_34"><path clip-path="url(#p74d9dedb55)" d="M 492.606067 524.95 L 492.606067 26.88" fill="none" stroke="#b0b0b0" stroke-linecap="square" stroke-width=".8" id="line2d_67"/><use x="492.606" xlink:href="#mfc518bbc66" y="524.95" stroke="#000" stroke-width=".8" id="line2d_68"/><g transform="matrix(0 -.1 -.1 0 495.365 551.038)" id="text_34"><use xlink:href="#DejaVuSans-49"/><use x="63.623" xlink:href="#DejaVuSans-52"/><use x="127.246" xlink:href="#DejaVuSans-56"/></g></g><g id="xtick_35"><path clip-path="url(#p74d9dedb55)" d="M 505.992008 524.95 L 505.992008 26.88" fill="none" stroke="#b0b0b0" stroke-linecap="square" stroke-width=".8" id="line2d_69"/><use x="505.992" xlink:href="#mfc518bbc66" y="524.95" stroke="#000" stroke-width=".8" id="line2d_70"/><g transform="matrix(0 -.1 -.1 0 508.751 551.038)" id="text_35"><use xlink:href="#DejaVuSans-49"/><use x="63.623" xlink:href="#DejaVuSans-53"/><use x="127.246" xlink:href="#DejaVuSans-50"/></g></g><g id="xtick_36"><path clip-path="url(#p74d9dedb55)" d="M 519.37795 524.95 L 519.37795 26.88" fill="none" stroke="#b0b0b0" stroke-linecap="square" stroke-width=".8" id="line2d_71"/><use x="519.378" xlink:href="#mfc518bbc66" y="524.95" stroke="#000" stroke-width=".8" id="line2d_72"/><g transform="matrix(0 -.1 -.1 0 522.137 551.038)" id="text_36"><use xlink:href="#DejaVuSans-49"/><use x="63.623" xlink:href="#DejaVuSans-53"/><use x="127.246" xlink:href="#DejaVuSans-54"/></g></g><g id="xtick_37"><path clip-path="url(#p74d9dedb55)" d="M 532.763891 524.95 L 532.763891 26.88" fill="none" stroke="#b0b0b0" stroke-linecap="square" stroke-width=".8" id="line2d_73"/><use x="532.764" xlink:href="#mfc518bbc66" y="524.95" stroke="#000" stroke-width=".8" id="line2d_74"/><g transform="matrix(0 -.1 -.1 0 535.523 551.038)" id="text_37"><use xlink:href="#DejaVuSans-49"/><use x="63.623" xlink:href="#DejaVuSans-54"/><use x="127.246" xlink:href="#DejaVuSans-48"/></g></g><g id="xtick_38"><path clip-path="url(#p74d9dedb55)" d="M 546.149833 524.95 L 546.149833 26.88" fill="none" stroke="#b0b0b0" stroke-linecap="square" stroke-width=".8" id="line2d_75"/><use x="546.15" xlink:href="#mfc518bbc66" y="524.95" stroke="#000" stroke-width=".8" id="line2d_76"/><g transform="matrix(0 -.1 -.1 0 548.91 551.038)" id="text_38"><use xlink:href="#DejaVuSans-49"/><use x="63.623" xlink:href="#DejaVuSans-54"/><use x="127.246" xlink:href="#DejaVuSans-52"/></g></g><g id="xtick_39"><path clip-path="url(#p74d9dedb55)" d="M 559.535774 524.95 L 559.535774 26.88" fill="none" stroke="#b0b0b0" stroke-linecap="square" stroke-width=".8" id="line2d_77"/><use x="559.536" xlink:href="#mfc518bbc66" y="524.95" stroke="#000" stroke-width=".8" id="line2d_78"/><g transform="matrix(0 -.1 -.1 0 562.295 551.038)" id="text_39"><use xlink:href="#DejaVuSans-49"/><use x="63.623" xlink:href="#DejaVuSans-54"/><use x="127.246" xlink:href="#DejaVuSans-56"/></g></g><g id="xtick_40"><path clip-path="url(#p74d9dedb55)" d="M 572.921715 524.95 L 572.921715 26.88" fill="none" stroke="#b0b0b0" stroke-linecap="square" stroke-width=".8" id="line2d_79"/><use x="572.922" xlink:href="#mfc518bbc66" y="524.95" stroke="#000" stroke-width=".8" id="line2d_80"/><g transform="matrix(0 -.1 -.1 0 575.681 551.038)" id="text_40"><use xlink:href="#DejaVuSans-49"/><use x="63.623" xlink:href="#DejaVuSans-55"/><use x="127.246" xlink:href="#DejaVuSans-50"/></g></g><g id="xtick_41"><path clip-path="url(#p74d9dedb55)" d="M 586.307657 524.95 L 586.307657 26.88" fill="none" stroke="#b0b0b0" stroke-linecap="square" stroke-width=".8" id="line2d_81"/><use x="586.308" xlink:href="#mfc518bbc66" y="524.95" stroke="#000" stroke-width=".8" id="line2d_82"/><g transform="matrix(0 -.1 -.1 0 589.067 551.038)" id="text_41"><use xlink:href="#DejaVuSans-49"/><use x="63.623" xlink:href="#DejaVuSans-55"/><use x="127.246" xlink:href="#DejaVuSans-54"/></g></g><g id="xtick_42"><path clip-path="url(#p74d9dedb55)" d="M 599.693598 524.95 L 599.693598 26.88" fill="none" stroke="#b0b0b0" stroke-linecap="square" stroke-width=".8" id="line2d_83"/><use x="599.694" xlink:href="#mfc518bbc66" y="524.95" stroke="#000" stroke-width=".8" id="line2d_84"/><g transform="matrix(0 -.1 -.1 0 602.453 551.038)" id="text_42"><use xlink:href="#DejaVuSans-49"/><use x="63.623" xlink:href="#DejaVuSans-56"/><use x="127.246" xlink:href="#DejaVuSans-48"/></g></g><g id="xtick_43"><path clip-path="url(#p74d9dedb55)" d="M 613.07954 524.95 L 613.07954 26.88" fill="none" stroke="#b0b0b0" stroke-linecap="square" stroke-width=".8" id="line2d_85"/><use x="613.08" xlink:href="#mfc518bbc66" y="524.95" stroke="#000" stroke-width=".8" id="line2d_86"/><g transform="matrix(0 -.1 -.1 0 615.839 551.038)" id="text_43"><use xlink:href="#DejaVuSans-49"/><use x="63.623" xlink:href="#DejaVuSans-56"/><use x="127.246" xlink:href="#DejaVuSans-52"/></g></g><g id="xtick_44"><path clip-path="url(#p74d9dedb55)" d="M 626.465481 524.95 L 626.465481 26.88" fill="none" stroke="#b0b0b0" stroke-linecap="square" stroke-width=".8" id="line2d_87"/><use x="626.465" xlink:href="#mfc518bbc66" y="524.95" stroke="#000" stroke-width=".8" id="line2d_88"/><g transform="matrix(0 -.1 -.1 0 629.225 551.038)" id="text_44"><use xlink:href="#DejaVuSans-49"/><use x="63.623" xlink:href="#DejaVuSans-56"/><use x="127.246" xlink:href="#DejaVuSans-56"/></g></g><g id="xtick_45"><path clip-path="url(#p74d9dedb55)" d="M 639.851423 524.95 L 639.851423 26.88" fill="none" stroke="#b0b0b0" stroke-linecap="square" stroke-width=".8" id="line2d_89"/><use x="639.851" xlink:href="#mfc518bbc66" y="524.95" stroke="#000" stroke-width=".8" id="line2d_90"/><g transform="matrix(0 -.1 -.1 0 642.61 551.038)" id="text_45"><use xlink:href="#DejaVuSans-49"/><use x="63.623" xlink:href="#DejaVuSans-57"/><use x="127.246" xlink:href="#DejaVuSans-50"/></g></g><g id="xtick_46"><path clip-path="url(#p74d9dedb55)" d="M 653.237364 524.95 L 653.237364 26.88" fill="none" stroke="#b0b0b0" stroke-linecap="square" stroke-width=".8" id="line2d_91"/><use x="653.237" xlink:href="#mfc518bbc66" y="524.95" stroke="#000" stroke-width=".8" id="line2d_92"/><g transform="matrix(0 -.1 -.1 0 655.997 551.038)" id="text_46"><use xlink:href="#DejaVuSans-49"/><use x="63.623" xlink:href="#DejaVuSans-57"/><use x="127.246" xlink:href="#DejaVuSans-54"/></g></g><g id="xtick_47"><path clip-path="url(#p74d9dedb55)" d="M 666.623305 524.95 L 666.623305 26.88" fill="none" stroke="#b0b0b0" stroke-linecap="square" stroke-width=".8" id="line2d_93"/><use x="666.623" xlink:href="#mfc518bbc66" y="524.95" stroke="#000" stroke-width=".8" id="line2d_94"/><g transform="matrix(0 -.1 -.1 0 669.383 551.038)" id="text_47"><use xlink:href="#DejaVuSans-50"/><use x="63.623" xlink:href="#DejaVuSans-48"/><use x="127.246" xlink:href="#DejaVuSans-48"/></g></g><g id="xtick_48"><path clip-path="url(#p74d9dedb55)" d="M 680.009247 524.95 L 680.009247 26.88" fill="none" stroke="#b0b0b0" stroke-linecap="square" stroke-width=".8" id="line2d_95"/><use x="680.009" xlink:href="#mfc518bbc66" y="524.95" stroke="#000" stroke-width=".8" id="line2d_96"/><g transform="matrix(0 -.1 -.1 0 682.769 551.038)" id="text_48"><use xlink:href="#DejaVuSans-50"/><use x="63.623" xlink:href="#DejaVuSans-48"/><use x="127.246" xlink:href="#DejaVuSans-52"/></g></g><g id="xtick_49"><path clip-path="url(#p74d9dedb55)" d="M 693.395188 524.95 L 693.395188 26.88" fill="none" stroke="#b0b0b0" stroke-linecap="square" stroke-width=".8" id="line2d_97"/><use x="693.395" xlink:href="#mfc518bbc66" y="524.95" stroke="#000" stroke-width=".8" id="line2d_98"/><g transform="matrix(0 -.1 -.1 0 696.155 551.038)" id="text_49"><use xlink:href="#DejaVuSans-50"/><use x="63.623" xlink:href="#DejaVuSans-48"/><use x="127.246" xlink:href="#DejaVuSans-56"/></g></g><g id="xtick_50"><path clip-path="url(#p74d9dedb55)" d="M 706.78113 524.95 L 706.78113 26.88" fill="none" stroke="#b0b0b0" stroke-linecap="square" stroke-width=".8" id="line2d_99"/><use x="706.781" xlink:href="#mfc518bbc66" y="524.95" stroke="#000" stroke-width=".8" id="line2d_100"/><g transform="matrix(0 -.1 -.1 0 709.54 551.038)" id="text_50"><use xlink:href="#DejaVuSans-50"/><use x="63.623" xlink:href="#DejaVuSans-49"/><use x="127.246" xlink:href="#DejaVuSans-50"/></g></g><g id="xtick_51"><path clip-path="url(#p74d9dedb55)" d="M 720.167071 524.95 L 720.167071 26.88" fill="none" stroke="#b0b0b0" stroke-linecap="square" stroke-width=".8" id="line2d_101"/><use x="720.167" xlink:href="#mfc518bbc66" y="524.95" stroke="#000" stroke-width=".8" id="line2d_102"/><g transform="matrix(0 -.1 -.1 0 722.926 551.038)" id="text_51"><use xlink:href="#DejaVuSans-50"/><use x="63.623" xlink:href="#DejaVuSans-49"/><use x="127.246" xlink:href="#DejaVuSans-54"/></g></g><g id="xtick_52"><path clip-path="url(#p74d9dedb55)" d="M 733.553013 524.95 L 733.553013 26.88" fill="none" stroke="#b0b0b0" stroke-linecap="square" stroke-width=".8" id="line2d_103"/><use x="733.553" xlink:href="#mfc518bbc66" y="524.95" stroke="#000" stroke-width=".8" id="line2d_104"/><g transform="matrix(0 -.1 -.1 0 736.312 551.038)" id="text_52"><use xlink:href="#DejaVuSans-50"/><use x="63.623" xlink:href="#DejaVuSans-50"/><use x="127.246" xlink:href="#DejaVuSans-48"/></g></g><g id="xtick_53"><path clip-path="url(#p74d9dedb55)" d="M 746.938954 524.95 L 746.938954 26.88" fill="none" stroke="#b0b0b0" stroke-linecap="square" stroke-width=".8" id="line2d_105"/><use x="746.939" xlink:href="#mfc518bbc66" y="524.95" stroke="#000" stroke-width=".8" id="line2d_106"/><g transform="matrix(0 -.1 -.1 0 749.698 551.038)" id="text_53"><use xlink:href="#DejaVuSans-50"/><use x="63.623" xlink:href="#DejaVuSans-50"/><use x="127.246" xlink:href="#DejaVuSans-52"/></g></g><g id="xtick_54"><path clip-path="url(#p74d9dedb55)" d="M 760.324895 524.95 L 760.324895 26.88" fill="none" stroke="#b0b0b0" stroke-linecap="square" stroke-width=".8" id="line2d_107"/><use x="760.325" xlink:href="#mfc518bbc66" y="524.95" stroke="#000" stroke-width=".8" id="line2d_108"/><g transform="matrix(0 -.1 -.1 0 763.084 551.038)" id="text_54"><use xlink:href="#DejaVuSans-50"/><use x="63.623" xlink:href="#DejaVuSans-50"/><use x="127.246" xlink:href="#DejaVuSans-56"/></g></g><g id="xtick_55"><path clip-path="url(#p74d9dedb55)" d="M 773.710837 524.95 L 773.710837 26.88" fill="none" stroke="#b0b0b0" stroke-linecap="square" stroke-width=".8" id="line2d_109"/><use x="773.711" xlink:href="#mfc518bbc66" y="524.95" stroke="#000" stroke-width=".8" id="line2d_110"/><g transform="matrix(0 -.1 -.1 0 776.47 551.038)" id="text_55"><use xlink:href="#DejaVuSans-50"/><use x="63.623" xlink:href="#DejaVuSans-51"/><use x="127.246" xlink:href="#DejaVuSans-50"/></g></g><g id="xtick_56"><path clip-path="url(#p74d9dedb55)" d="M 787.096778 524.95 L 787.096778 26.88" fill="none" stroke="#b0b0b0" stroke-linecap="square" stroke-width=".8" id="line2d_111"/><use x="787.097" xlink:href="#mfc518bbc66" y="524.95" stroke="#000" stroke-width=".8" id="line2d_112"/><g transform="matrix(0 -.1 -.1 0 789.856 551.038)" id="text_56"><use xlink:href="#DejaVuSans-50"/><use x="63.623" xlink:href="#DejaVuSans-51"/><use x="127.246" xlink:href="#DejaVuSans-54"/></g></g><g id="xtick_57"><path clip-path="url(#p74d9dedb55)" d="M 800.48272 524.95 L 800.48272 26.88" fill="none" stroke="#b0b0b0" stroke-linecap="square" stroke-width=".8" id="line2d_113"/><use x="800.483" xlink:href="#mfc518bbc66" y="524.95" stroke="#000" stroke-width=".8" id="line2d_114"/><g transform="matrix(0 -.1 -.1 0 803.242 551.038)" id="text_57"><use xlink:href="#DejaVuSans-50"/><use x="63.623" xlink:href="#DejaVuSans-52"/><use x="127.246" xlink:href="#DejaVuSans-48"/></g></g><g id="xtick_58"><path clip-path="url(#p74d9dedb55)" d="M 813.868661 524.95 L 813.868661 26.88" fill="none" stroke="#b0b0b0" stroke-linecap="square" stroke-width=".8" id="line2d_115"/><use x="813.869" xlink:href="#mfc518bbc66" y="524.95" stroke="#000" stroke-width=".8" id="line2d_116"/><g transform="matrix(0 -.1 -.1 0 816.628 551.038)" id="text_58"><use xlink:href="#DejaVuSans-50"/><use x="63.623" xlink:href="#DejaVuSans-52"/><use x="127.246" xlink:href="#DejaVuSans-52"/></g></g><g id="xtick_59"><path clip-path="url(#p74d9dedb55)" d="M 827.254603 524.95 L 827.254603 26.88" fill="none" stroke="#b0b0b0" stroke-linecap="square" stroke-width=".8" id="line2d_117"/><use x="827.255" xlink:href="#mfc518bbc66" y="524.95" stroke="#000" stroke-width=".8" id="line2d_118"/><g transform="matrix(0 -.1 -.1 0 830.014 551.038)" id="text_59"><use xlink:href="#DejaVuSans-50"/><use x="63.623" xlink:href="#DejaVuSans-52"/><use x="127.246" xlink:href="#DejaVuSans-56"/></g></g><g id="xtick_60"><path clip-path="url(#p74d9dedb55)" d="M 840.640544 524.95 L 840.640544 26.88" fill="none" stroke="#b0b0b0" stroke-linecap="square" stroke-width=".8" id="line2d_119"/><use x="840.641" xlink:href="#mfc518bbc66" y="524.95" stroke="#000" stroke-width=".8" id="line2d_120"/><g transform="matrix(0 -.1 -.1 0 843.4 551.038)" id="text_60"><use xlink:href="#DejaVuSans-50"/><use x="63.623" xlink:href="#DejaVuSans-53"/><use x="127.246" xlink:href="#DejaVuSans-50"/></g></g><g id="text_61"><defs><path d="M 54.890625 33.015625 L 54.890625 0 L 45.90625 0 L 45.90625 32.71875 Q 45.90625 40.484375 42.875 44.328125 Q 39.84375 48.1875 33.796875 48.1875 Q 26.515625 48.1875 22.3125 43.546875 Q 18.109375 38.921875 18.109375 30.90625 L 18.109375 0 L 9.078125 0 L 9.078125 54.6875 L 18.109375 54.6875 L 18.109375 46.1875 Q 21.34375 51.125 25.703125 53.5625 Q 30.078125 56 35.796875 56 Q 45.21875 56 50.046875 50.171875 Q 54.890625 44.34375 54.890625 33.015625 z" id="DejaVuSans-110"/><path d="M 9.8125 72.90625 L 51.703125 72.90625 L 51.703125 64.59375 L 19.671875 64.59375 L 19.671875 43.109375 L 48.578125 43.109375 L 48.578125 34.8125 L 19.671875 34.8125 L 19.671875 0 L 9.8125 0 z" id="DejaVuSans-70"/><path d="M 9.421875 75.984375 L 18.40625 75.984375 L 18.40625 0 L 9.421875 0 z" id="DejaVuSans-108"/><path d="M 56.203125 29.59375 L 56.203125 25.203125 L 14.890625 25.203125 Q 15.484375 15.921875 20.484375 11.0625 Q 25.484375 6.203125 34.421875 6.203125 Q 39.59375 6.203125 44.453125 7.46875 Q 49.3125 8.734375 54.109375 11.28125 L 54.109375 2.78125 Q 49.265625 0.734375 44.1875 -0.34375 Q 39.109375 -1.421875 33.890625 -1.421875 Q 20.796875 -1.421875 13.15625 6.1875 Q 5.515625 13.8125 5.515625 26.8125 Q 5.515625 40.234375 12.765625 48.109375 Q 20.015625 56 32.328125 56 Q 43.359375 56 49.78125 48.890625 Q 56.203125 41.796875 56.203125 29.59375 z M 47.21875 32.234375 Q 47.125 39.59375 43.09375 43.984375 Q 39.0625 48.390625 32.421875 48.390625 Q 24.90625 48.390625 20.390625 44.140625 Q 15.875 39.890625 15.1875 32.171875 z" id="DejaVuSans-101"/><path d="M 41.109375 46.296875 Q 39.59375 47.171875 37.8125 47.578125 Q 36.03125 48 33.890625 48 Q 26.265625 48 22.1875 43.046875 Q 18.109375 38.09375 18.109375 28.8125 L 18.109375 0 L 9.078125 0 L 9.078125 54.6875 L 18.109375 54.6875 L 18.109375 46.1875 Q 20.953125 51.171875 25.484375 53.578125 Q 30.03125 56 36.53125 56 Q 37.453125 56 38.578125 55.875 Q 39.703125 55.765625 41.0625 55.515625 z" id="DejaVuSans-114"/><path d="M 9.8125 72.90625 L 19.671875 72.90625 L 19.671875 0 L 9.8125 0 z" id="DejaVuSans-73"/><path d="M 9.421875 54.6875 L 18.40625 54.6875 L 18.40625 0 L 9.421875 0 z M 9.421875 75.984375 L 18.40625 75.984375 L 18.40625 64.59375 L 9.421875 64.59375 z" id="DejaVuSans-105"/><path d="M 44.28125 53.078125 L 44.28125 44.578125 Q 40.484375 46.53125 36.375 47.5 Q 32.28125 48.484375 27.875 48.484375 Q 21.1875 48.484375 17.84375 46.4375 Q 14.5 44.390625 14.5 40.28125 Q 14.5 37.15625 16.890625 35.375 Q 19.28125 33.59375 26.515625 31.984375 L 29.59375 31.296875 Q 39.15625 29.25 43.1875 25.515625 Q 47.21875 21.78125 47.21875 15.09375 Q 47.21875 7.46875 41.1875 3.015625 Q 35.15625 -1.421875 24.609375 -1.421875 Q 20.21875 -1.421875 15.453125 -0.5625 Q 10.6875 0.296875 5.421875 2 L 5.421875 11.28125 Q 10.40625 8.6875 15.234375 7.390625 Q 20.0625 6.109375 24.8125 6.109375 Q 31.15625 6.109375 34.5625 8.28125 Q 37.984375 10.453125 37.984375 14.40625 Q 37.984375 18.0625 35.515625 20.015625 Q 33.0625 21.96875 24.703125 23.78125 L 21.578125 24.515625 Q 13.234375 26.265625 9.515625 29.90625 Q 5.8125 33.546875 5.8125 39.890625 Q 5.8125 47.609375 11.28125 51.796875 Q 16.75 56 26.8125 56 Q 31.78125 56 36.171875 55.265625 Q 40.578125 54.546875 44.28125 53.078125 z" id="DejaVuSans-115"/><path d="M 18.3125 70.21875 L 18.3125 54.6875 L 36.8125 54.6875 L 36.8125 47.703125 L 18.3125 47.703125 L 18.3125 18.015625 Q 18.3125 11.328125 20.140625 9.421875 Q 21.96875 7.515625 27.59375 7.515625 L 36.8125 7.515625 L 36.8125 0 L 27.59375 0 Q 17.1875 0 13.234375 3.875 Q 9.28125 7.765625 9.28125 18.015625 L 9.28125 47.703125 L 2.6875 47.703125 L 2.6875 54.6875 L 9.28125 54.6875 L 9.28125 70.21875 z" id="DejaVuSans-116"/><path d="M 8.5 21.578125 L 8.5 54.6875 L 17.484375 54.6875 L 17.484375 21.921875 Q 17.484375 14.15625 20.5 10.265625 Q 23.53125 6.390625 29.59375 6.390625 Q 36.859375 6.390625 41.078125 11.03125 Q 45.3125 15.671875 45.3125 23.6875 L 45.3125 54.6875 L 54.296875 54.6875 L 54.296875 0 L 45.3125 0 L 45.3125 8.40625 Q 42.046875 3.421875 37.71875 1 Q 33.40625 -1.421875 27.6875 -1.421875 Q 18.265625 -1.421875 13.375 4.4375 Q 8.5 10.296875 8.5 21.578125 z M 31.109375 56 z" id="DejaVuSans-117"/><path d="M 48.78125 52.59375 L 48.78125 44.1875 Q 44.96875 46.296875 41.140625 47.34375 Q 37.3125 48.390625 33.40625 48.390625 Q 24.65625 48.390625 19.8125 42.84375 Q 14.984375 37.3125 14.984375 27.296875 Q 14.984375 17.28125 19.8125 11.734375 Q 24.65625 6.203125 33.40625 6.203125 Q 37.3125 6.203125 41.140625 7.25 Q 44.96875 8.296875 48.78125 10.40625 L 48.78125 2.09375 Q 45.015625 0.34375 40.984375 -0.53125 Q 36.96875 -1.421875 32.421875 -1.421875 Q 20.0625 -1.421875 12.78125 6.34375 Q 5.515625 14.109375 5.515625 27.296875 Q 5.515625 40.671875 12.859375 48.328125 Q 20.21875 56 33.015625 56 Q 37.15625 56 41.109375 55.140625 Q 45.0625 54.296875 48.78125 52.59375 z" id="DejaVuSans-99"/><path d="M 30.609375 48.390625 Q 23.390625 48.390625 19.1875 42.75 Q 14.984375 37.109375 14.984375 27.296875 Q 14.984375 17.484375 19.15625 11.84375 Q 23.34375 6.203125 30.609375 6.203125 Q 37.796875 6.203125 41.984375 11.859375 Q 46.1875 17.53125 46.1875 27.296875 Q 46.1875 37.015625 41.984375 42.703125 Q 37.796875 48.390625 30.609375 48.390625 z M 30.609375 56 Q 42.328125 56 49.015625 48.375 Q 55.71875 40.765625 55.71875 27.296875 Q 55.71875 13.875 49.015625 6.21875 Q 42.328125 -1.421875 30.609375 -1.421875 Q 18.84375 -1.421875 12.171875 6.21875 Q 5.515625 13.875 5.515625 27.296875 Q 5.515625 40.765625 12.171875 48.375 Q 18.84375 56 30.609375 56 z" id="DejaVuSans-111"/></defs><g transform="matrix(.1 0 0 -.1 407.652 562.636)"><use xlink:href="#DejaVuSans-70"/><use x="57.41" xlink:href="#DejaVuSans-105"/><use x="85.193" xlink:href="#DejaVuSans-108"/><use x="112.977" xlink:href="#DejaVuSans-108"/><use x="140.76" xlink:href="#DejaVuSans-101"/><use x="202.283" xlink:href="#DejaVuSans-114"/><use x="243.396" xlink:href="#DejaVuSans-32"/><use x="275.184" xlink:href="#DejaVuSans-73"/><use x="304.676" xlink:href="#DejaVuSans-110"/><use x="368.055" xlink:href="#DejaVuSans-115"/><use x="420.154" xlink:href="#DejaVuSans-116"/><use x="459.363" xlink:href="#DejaVuSans-114"/><use x="500.477" xlink:href="#DejaVuSans-117"/><use x="563.855" xlink:href="#DejaVuSans-99"/><use x="618.836" xlink:href="#DejaVuSans-116"/><use x="658.045" xlink:href="#DejaVuSans-105"/><use x="685.828" xlink:href="#DejaVuSans-111"/><use x="747.01" xlink:href="#DejaVuSans-110"/><use x="810.389" xlink:href="#DejaVuSans-115"/></g></g></g><g id="matplotlib.axis_2"><g id="ytick_1"><path clip-path="url(#p74d9dedb55)" d="M 50.87 518.588494 L 850.68 518.588494" fill="none" stroke="#b0b0b0" stroke-linecap="square" stroke-width=".8" id="line2d_121"/><g id="line2d_122"><defs><path d="M 0 0 L -3.5 0" id="m3a24eacd0e" stroke="#000" stroke-width=".8"/></defs><use x="50.87" xlink:href="#m3a24eacd0e" y="518.588" stroke="#000" stroke-width=".8"/></g><g transform="matrix(.1 0 0 -.1 24.782 522.388)" id="text_62"><use xlink:href="#DejaVuSans-49"/><use x="63.623" xlink:href="#DejaVuSans-53"/><use x="127.246" xlink:href="#DejaVuSans-48"/></g></g><g id="ytick_2"><path clip-path="url(#p74d9dedb55)" d="M 50.87 459.17959 L 850.68 459.17959" fill="none" stroke="#b0b0b0" stroke-linecap="square" stroke-width=".8" id="line2d_123"/><use x="50.87" xlink:href="#m3a24eacd0e" y="459.18" stroke="#000" stroke-width=".8" id="line2d_124"/><g transform="matrix(.1 0 0 -.1 24.782 462.979)" id="text_63"><use xlink:href="#DejaVuSans-49"/><use x="63.623" xlink:href="#DejaVuSans-55"/><use x="127.246" xlink:href="#DejaVuSans-53"/></g></g><g id="ytick_3"><path clip-path="url(#p74d9dedb55)" d="M 50.87 399.770685 L 850.68 399.770685" fill="none" stroke="#b0b0b0" stroke-linecap="square" stroke-width=".8" id="line2d_125"/><use x="50.87" xlink:href="#m3a24eacd0e" y="399.771" stroke="#000" stroke-width=".8" id="line2d_126"/><g transform="matrix(.1 0 0 -.1 24.782 403.57)" id="text_64"><use xlink:href="#DejaVuSans-50"/><use x="63.623" xlink:href="#DejaVuSans-48"/><use x="127.246" xlink:href="#DejaVuSans-48"/></g></g><g id="ytick_4"><path clip-path="url(#p74d9dedb55)" d="M 50.87 340.36178 L 850.68 340.36178" fill="none" stroke="#b0b0b0" stroke-linecap="square" stroke-width=".8" id="line2d_127"/><use x="50.87" xlink:href="#m3a24eacd0e" y="340.362" stroke="#000" stroke-width=".8" id="line2d_128"/><g transform="matrix(.1 0 0 -.1 24.782 344.161)" id="text_65"><use xlink:href="#DejaVuSans-50"/><use x="63.623" xlink:href="#DejaVuSans-50"/><use x="127.246" xlink:href="#DejaVuSans-53"/></g></g><g id="ytick_5"><path clip-path="url(#p74d9dedb55)" d="M 50.87 280.952875 L 850.68 280.952875" fill="none" stroke="#b0b0b0" stroke-linecap="square" stroke-width=".8" id="line2d_129"/><use x="50.87" xlink:href="#m3a24eacd0e" y="280.953" stroke="#000" stroke-width=".8" id="line2d_130"/><g transform="matrix(.1 0 0 -.1 24.782 284.752)" id="text_66"><use xlink:href="#DejaVuSans-50"/><use x="63.623" xlink:href="#DejaVuSans-53"/><use x="127.246" xlink:href="#DejaVuSans-48"/></g></g><g id="ytick_6"><path clip-path="url(#p74d9dedb55)" d="M 50.87 221.54397 L 850.68 221.54397" fill="none" stroke="#b0b0b0" stroke-linecap="square" stroke-width=".8" id="line2d_131"/><use x="50.87" xlink:href="#m3a24eacd0e" y="221.544" stroke="#000" stroke-width=".8" id="line2d_132"/><g transform="matrix(.1 0 0 -.1 24.782 225.343)" id="text_67"><use xlink:href="#DejaVuSans-50"/><use x="63.623" xlink:href="#DejaVuSans-55"/><use x="127.246" xlink:href="#DejaVuSans-53"/></g></g><g id="ytick_7"><path clip-path="url(#p74d9dedb55)" d="M 50.87 162.135065 L 850.68 162.135065" fill="none" stroke="#b0b0b0" stroke-linecap="square" stroke-width=".8" id="line2d_133"/><use x="50.87" xlink:href="#m3a24eacd0e" y="162.135" stroke="#000" stroke-width=".8" id="line2d_134"/><g transform="matrix(.1 0 0 -.1 24.782 165.934)" id="text_68"><use xlink:href="#DejaVuSans-51"/><use x="63.623" xlink:href="#DejaVuSans-48"/><use x="127.246" xlink:href="#DejaVuSans-48"/></g></g><g id="ytick_8"><path clip-path="url(#p74d9dedb55)" d="M 50.87 102.726161 L 850.68 102.726161" fill="none" stroke="#b0b0b0" stroke-linecap="square" stroke-width=".8" id="line2d_135"/><use x="50.87" xlink:href="#m3a24eacd0e" y="102.726" stroke="#000" stroke-width=".8" id="line2d_136"/><g transform="matrix(.1 0 0 -.1 24.782 106.525)" id="text_69"><use xlink:href="#DejaVuSans-51"/><use x="63.623" xlink:href="#DejaVuSans-50"/><use x="127.246" xlink:href="#DejaVuSans-53"/></g></g><g id="ytick_9"><path clip-path="url(#p74d9dedb55)" d="M 50.87 43.317256 L 850.68 43.317256" fill="none" stroke="#b0b0b0" stroke-linecap="square" stroke-width=".8" id="line2d_137"/><use x="50.87" xlink:href="#m3a24eacd0e" y="43.317" stroke="#000" stroke-width=".8" id="line2d_138"/><g transform="matrix(.1 0 0 -.1 24.782 47.116)" id="text_70"><use xlink:href="#DejaVuSans-51"/><use x="63.623" xlink:href="#DejaVuSans-53"/><use x="127.246" xlink:href="#DejaVuSans-48"/></g></g><g id="text_71"><defs><path d="M 64.40625 67.28125 L 64.40625 56.890625 Q 59.421875 61.53125 53.78125 63.8125 Q 48.140625 66.109375 41.796875 66.109375 Q 29.296875 66.109375 22.65625 58.46875 Q 16.015625 50.828125 16.015625 36.375 Q 16.015625 21.96875 22.65625 14.328125 Q 29.296875 6.6875 41.796875 6.6875 Q 48.140625 6.6875 53.78125 8.984375 Q 59.421875 11.28125 64.40625 15.921875 L 64.40625 5.609375 Q 59.234375 2.09375 53.4375 0.328125 Q 47.65625 -1.421875 41.21875 -1.421875 Q 24.65625 -1.421875 15.125 8.703125 Q 5.609375 18.84375 5.609375 36.375 Q 5.609375 53.953125 15.125 64.078125 Q 24.65625 74.21875 41.21875 74.21875 Q 47.75 74.21875 53.53125 72.484375 Q 59.328125 70.75 64.40625 67.28125 z" id="DejaVuSans-67"/><path d="M 32.171875 -5.078125 Q 28.375 -14.84375 24.75 -17.8125 Q 21.140625 -20.796875 15.09375 -20.796875 L 7.90625 -20.796875 L 7.90625 -13.28125 L 13.1875 -13.28125 Q 16.890625 -13.28125 18.9375 -11.515625 Q 21 -9.765625 23.484375 -3.21875 L 25.09375 0.875 L 2.984375 54.6875 L 12.5 54.6875 L 29.59375 11.921875 L 46.6875 54.6875 L 56.203125 54.6875 z" id="DejaVuSans-121"/></defs><g transform="matrix(0 -.1 -.1 0 18.703 292.185)"><use xlink:href="#DejaVuSans-67"/><use x="69.824" xlink:href="#DejaVuSans-121"/><use x="129.004" xlink:href="#DejaVuSans-99"/><use x="183.984" xlink:href="#DejaVuSans-108"/><use x="211.768" xlink:href="#DejaVuSans-101"/><use x="273.291" xlink:href="#DejaVuSans-115"/></g></g></g><g id="line2d_139"><path clip-path="url(#p74d9dedb55)" d="M 50.87 501.431203 L 54.216485 501.597548 L 60.909456 501.597548 L 64.255941 501.716365 L 67.602427 501.47873 L 77.641883 501.526257 L 84.334854 501.454966 L 87.681339 502.001528 L 94.37431 502.14411 L 97.720795 502.286691 L 101.06728 502.120346 L 107.760251 501.241094 L 124.492678 501.431203 L 127.839163 500.456897 L 134.532134 500.456897 L 137.878619 500.433133 L 141.225105 500.599478 L 144.57159 499.720226 L 147.918075 499.625172 L 151.264561 499.886571 L 154.611046 499.957862 L 157.957531 499.126137 L 161.304017 499.149901 L 164.650502 500.005389 L 178.036444 499.981625 L 184.729414 500.07668 L 194.76887 500.07668 L 198.115356 497.605269 L 201.461841 498.484521 L 204.808326 498.579575 L 214.847782 498.436994 L 218.194268 498.555812 L 224.887238 498.436994 L 228.233724 498.436994 L 231.580209 496.131928 L 234.926695 496.226983 L 238.27318 494.848696 L 241.619665 495.799239 L 244.966151 493.850626 L 248.312636 493.589227 L 251.659121 493.779336 L 255.005607 493.708045 L 258.352092 494.349661 L 271.738033 494.563533 L 275.084519 495.038805 L 278.431004 494.991277 L 281.77749 493.826863 L 285.123975 493.755572 L 295.163431 494.088262 L 305.202887 493.945681 L 308.549372 494.016971 L 311.895858 495.419022 L 315.242343 495.181386 L 318.588828 495.27644 L 321.935314 495.252677 L 325.281799 495.419022 L 328.628285 495.300204 L 331.97477 495.371494 L 335.321255 495.228913 L 345.360711 495.347731 L 348.707197 496.084401 L 355.400167 496.179456 L 358.746653 495.181386 L 362.093138 493.921917 L 365.439623 490.785127 L 368.786109 489.40684 L 372.132594 483.774876 L 375.479079 478.451838 L 382.17205 477.430005 L 385.518536 478.095385 L 388.865021 477.216133 L 392.211506 476.764625 L 395.557992 476.004191 L 398.904477 472.938692 L 408.943933 470.443518 L 412.290418 469.825665 L 415.636904 467.995871 L 418.983389 468.58996 L 422.329874 467.734472 L 425.67636 467.473073 L 429.022845 466.593821 L 435.715816 465.12048 L 445.755272 463.457031 L 452.448243 462.007454 L 455.794728 462.054981 L 462.487699 461.033147 L 465.834184 460.486586 L 469.180669 460.272713 L 472.527155 459.821206 L 475.87364 459.132063 L 479.220126 458.324101 L 485.913096 457.302268 L 489.259582 457.064633 L 492.606067 456.423016 L 495.952552 454.022897 L 499.299038 454.331823 L 502.645523 452.906009 L 516.031464 450.553417 L 519.37795 450.648471 L 522.724435 449.983091 L 526.070921 449.198894 L 532.763891 448.082006 L 536.110377 447.392863 L 539.456862 446.03834 L 542.803347 445.586832 L 549.496318 444.541235 L 552.842803 444.945216 L 556.189289 443.852092 L 562.882259 442.616387 L 566.228745 441.689608 L 569.57523 441.523263 L 572.921715 440.952938 L 579.614686 440.002395 L 582.961172 439.289488 L 586.307657 439.788523 L 589.654142 438.909271 L 599.693598 437.055713 L 603.040084 434.037741 L 606.386569 434.180322 L 609.733054 432.635691 L 613.07954 432.112893 L 616.426025 432.136656 L 619.77251 431.637621 L 633.158452 428.881048 L 636.504937 427.122545 L 646.544393 425.720494 L 649.890879 425.791785 L 653.237364 425.055115 L 656.583849 424.437262 L 659.930335 424.009518 L 669.969791 422.274778 L 690.048703 418.852825 L 693.395188 418.139918 L 696.741674 417.260666 L 703.434644 416.024961 L 706.78113 415.644744 L 710.127615 415.121946 L 713.4741 408.468148 L 716.820586 402.693603 L 720.167071 390.59795 L 723.513556 402.051987 L 726.860042 375.745724 L 730.206527 370.707849 L 733.553013 374.700127 L 736.899498 338.104242 L 740.245983 321.398458 L 743.592469 316.40811 L 746.938954 208.877992 L 750.285439 92.222666 L 753.631925 92.222666 L 756.97841 94.860422 L 760.324895 95.003003 L 763.671381 94.218805 L 767.017866 94.028697 L 770.364351 93.363317 L 773.710837 93.244499 L 777.057322 94.31386 L 783.750293 93.600953 L 787.096778 92.840519 L 790.443264 92.24643 L 793.789749 92.389011 L 797.136234 91.699868 L 800.48272 89.085876 L 803.829205 87.921462 L 807.17569 87.755117 L 810.522176 86.804574 L 813.868661 86.614466 L 817.215146 84.998543 L 820.561632 85.188652 L 823.908117 84.760908 L 827.254603 84.095528 L 830.601088 83.287567 L 833.947573 82.90735 L 837.294059 82.384552 L 840.640544 81.006265 L 843.987029 78.820017 L 847.333515 77.845711 L 850.68 77.394204 L 850.68 77.394204" fill="none" stroke="#1f77b4" stroke-linecap="square" stroke-width="1.5"/><defs><path d="M 0 1.5 C 0.397805 1.5 0.77937 1.341951 1.06066 1.06066 C 1.341951 0.77937 1.5 0.397805 1.5 0 C 1.5 -0.397805 1.341951 -0.77937 1.06066 -1.06066 C 0.77937 -1.341951 0.397805 -1.5 0 -1.5 C -0.397805 -1.5 -0.77937 -1.341951 -1.06066 -1.06066 C -1.341951 -0.77937 -1.5 -0.397805 -1.5 0 C -1.5 0.397805 -1.341951 0.77937 -1.06066 1.06066 C -0.77937 1.341951 -0.397805 1.5 0 1.5 z" id="mfd23d3c377" stroke="#1f77b4"/></defs><g clip-path="url(#p74d9dedb55)" fill="#1f77b4" stroke="#1f77b4"><use x="50.87" xlink:href="#mfd23d3c377" y="501.431"/><use x="54.216" xlink:href="#mfd23d3c377" y="501.598"/><use x="57.563" xlink:href="#mfd23d3c377" y="501.574"/><use x="60.909" xlink:href="#mfd23d3c377" y="501.598"/><use x="64.256" xlink:href="#mfd23d3c377" y="501.716"/><use x="67.602" xlink:href="#mfd23d3c377" y="501.479"/><use x="70.949" xlink:href="#mfd23d3c377" y="501.526"/><use x="74.295" xlink:href="#mfd23d3c377" y="501.55"/><use x="77.642" xlink:href="#mfd23d3c377" y="501.526"/><use x="80.988" xlink:href="#mfd23d3c377" y="501.455"/><use x="84.335" xlink:href="#mfd23d3c377" y="501.455"/><use x="87.681" xlink:href="#mfd23d3c377" y="502.002"/><use x="91.028" xlink:href="#mfd23d3c377" y="502.025"/><use x="94.374" xlink:href="#mfd23d3c377" y="502.144"/><use x="97.721" xlink:href="#mfd23d3c377" y="502.287"/><use x="101.067" xlink:href="#mfd23d3c377" y="502.12"/><use x="104.414" xlink:href="#mfd23d3c377" y="501.669"/><use x="107.76" xlink:href="#mfd23d3c377" y="501.241"/><use x="111.107" xlink:href="#mfd23d3c377" y="501.289"/><use x="114.453" xlink:href="#mfd23d3c377" y="501.336"/><use x="117.8" xlink:href="#mfd23d3c377" y="501.289"/><use x="121.146" xlink:href="#mfd23d3c377" y="501.336"/><use x="124.493" xlink:href="#mfd23d3c377" y="501.431"/><use x="127.839" xlink:href="#mfd23d3c377" y="500.457"/><use x="131.186" xlink:href="#mfd23d3c377" y="500.504"/><use x="134.532" xlink:href="#mfd23d3c377" y="500.457"/><use x="137.879" xlink:href="#mfd23d3c377" y="500.433"/><use x="141.225" xlink:href="#mfd23d3c377" y="500.599"/><use x="144.572" xlink:href="#mfd23d3c377" y="499.72"/><use x="147.918" xlink:href="#mfd23d3c377" y="499.625"/><use x="151.265" xlink:href="#mfd23d3c377" y="499.887"/><use x="154.611" xlink:href="#mfd23d3c377" y="499.958"/><use x="157.958" xlink:href="#mfd23d3c377" y="499.126"/><use x="161.304" xlink:href="#mfd23d3c377" y="499.15"/><use x="164.651" xlink:href="#mfd23d3c377" y="500.005"/><use x="167.997" xlink:href="#mfd23d3c377" y="499.982"/><use x="171.343" xlink:href="#mfd23d3c377" y="500.005"/><use x="174.69" xlink:href="#mfd23d3c377" y="500.005"/><use x="178.036" xlink:href="#mfd23d3c377" y="499.982"/><use x="181.383" xlink:href="#mfd23d3c377" y="500.077"/><use x="184.729" xlink:href="#mfd23d3c377" y="500.077"/><use x="188.076" xlink:href="#mfd23d3c377" y="500.077"/><use x="191.422" xlink:href="#mfd23d3c377" y="500.029"/><use x="194.769" xlink:href="#mfd23d3c377" y="500.077"/><use x="198.115" xlink:href="#mfd23d3c377" y="497.605"/><use x="201.462" xlink:href="#mfd23d3c377" y="498.485"/><use x="204.808" xlink:href="#mfd23d3c377" y="498.58"/><use x="208.155" xlink:href="#mfd23d3c377" y="498.508"/><use x="211.501" xlink:href="#mfd23d3c377" y="498.461"/><use x="214.848" xlink:href="#mfd23d3c377" y="498.437"/><use x="218.194" xlink:href="#mfd23d3c377" y="498.556"/><use x="221.541" xlink:href="#mfd23d3c377" y="498.461"/><use x="224.887" xlink:href="#mfd23d3c377" y="498.437"/><use x="228.234" xlink:href="#mfd23d3c377" y="498.437"/><use x="231.58" xlink:href="#mfd23d3c377" y="496.132"/><use x="234.927" xlink:href="#mfd23d3c377" y="496.227"/><use x="238.273" xlink:href="#mfd23d3c377" y="494.849"/><use x="241.62" xlink:href="#mfd23d3c377" y="495.799"/><use x="244.966" xlink:href="#mfd23d3c377" y="493.851"/><use x="248.313" xlink:href="#mfd23d3c377" y="493.589"/><use x="251.659" xlink:href="#mfd23d3c377" y="493.779"/><use x="255.006" xlink:href="#mfd23d3c377" y="493.708"/><use x="258.352" xlink:href="#mfd23d3c377" y="494.35"/><use x="261.699" xlink:href="#mfd23d3c377" y="494.421"/><use x="265.045" xlink:href="#mfd23d3c377" y="494.421"/><use x="268.392" xlink:href="#mfd23d3c377" y="494.468"/><use x="271.738" xlink:href="#mfd23d3c377" y="494.564"/><use x="275.085" xlink:href="#mfd23d3c377" y="495.039"/><use x="278.431" xlink:href="#mfd23d3c377" y="494.991"/><use x="281.777" xlink:href="#mfd23d3c377" y="493.827"/><use x="285.124" xlink:href="#mfd23d3c377" y="493.756"/><use x="288.47" xlink:href="#mfd23d3c377" y="493.874"/><use x="291.817" xlink:href="#mfd23d3c377" y="493.969"/><use x="295.163" xlink:href="#mfd23d3c377" y="494.088"/><use x="298.51" xlink:href="#mfd23d3c377" y="494.017"/><use x="301.856" xlink:href="#mfd23d3c377" y="493.946"/><use x="305.203" xlink:href="#mfd23d3c377" y="493.946"/><use x="308.549" xlink:href="#mfd23d3c377" y="494.017"/><use x="311.896" xlink:href="#mfd23d3c377" y="495.419"/><use x="315.242" xlink:href="#mfd23d3c377" y="495.181"/><use x="318.589" xlink:href="#mfd23d3c377" y="495.276"/><use x="321.935" xlink:href="#mfd23d3c377" y="495.253"/><use x="325.282" xlink:href="#mfd23d3c377" y="495.419"/><use x="328.628" xlink:href="#mfd23d3c377" y="495.3"/><use x="331.975" xlink:href="#mfd23d3c377" y="495.371"/><use x="335.321" xlink:href="#mfd23d3c377" y="495.229"/><use x="338.668" xlink:href="#mfd23d3c377" y="495.253"/><use x="342.014" xlink:href="#mfd23d3c377" y="495.253"/><use x="345.361" xlink:href="#mfd23d3c377" y="495.348"/><use x="348.707" xlink:href="#mfd23d3c377" y="496.084"/><use x="352.054" xlink:href="#mfd23d3c377" y="496.084"/><use x="355.4" xlink:href="#mfd23d3c377" y="496.179"/><use x="358.747" xlink:href="#mfd23d3c377" y="495.181"/><use x="362.093" xlink:href="#mfd23d3c377" y="493.922"/><use x="365.44" xlink:href="#mfd23d3c377" y="490.785"/><use x="368.786" xlink:href="#mfd23d3c377" y="489.407"/><use x="372.133" xlink:href="#mfd23d3c377" y="483.775"/><use x="375.479" xlink:href="#mfd23d3c377" y="478.452"/><use x="378.826" xlink:href="#mfd23d3c377" y="477.977"/><use x="382.172" xlink:href="#mfd23d3c377" y="477.43"/><use x="385.519" xlink:href="#mfd23d3c377" y="478.095"/><use x="388.865" xlink:href="#mfd23d3c377" y="477.216"/><use x="392.212" xlink:href="#mfd23d3c377" y="476.765"/><use x="395.558" xlink:href="#mfd23d3c377" y="476.004"/><use x="398.904" xlink:href="#mfd23d3c377" y="472.939"/><use x="402.251" xlink:href="#mfd23d3c377" y="472.131"/><use x="405.597" xlink:href="#mfd23d3c377" y="471.394"/><use x="408.944" xlink:href="#mfd23d3c377" y="470.444"/><use x="412.29" xlink:href="#mfd23d3c377" y="469.826"/><use x="415.637" xlink:href="#mfd23d3c377" y="467.996"/><use x="418.983" xlink:href="#mfd23d3c377" y="468.59"/><use x="422.33" xlink:href="#mfd23d3c377" y="467.734"/><use x="425.676" xlink:href="#mfd23d3c377" y="467.473"/><use x="429.023" xlink:href="#mfd23d3c377" y="466.594"/><use x="432.369" xlink:href="#mfd23d3c377" y="465.881"/><use x="435.716" xlink:href="#mfd23d3c377" y="465.12"/><use x="439.062" xlink:href="#mfd23d3c377" y="464.574"/><use x="442.409" xlink:href="#mfd23d3c377" y="464.004"/><use x="445.755" xlink:href="#mfd23d3c377" y="463.457"/><use x="449.102" xlink:href="#mfd23d3c377" y="462.768"/><use x="452.448" xlink:href="#mfd23d3c377" y="462.007"/><use x="455.795" xlink:href="#mfd23d3c377" y="462.055"/><use x="459.141" xlink:href="#mfd23d3c377" y="461.58"/><use x="462.488" xlink:href="#mfd23d3c377" y="461.033"/><use x="465.834" xlink:href="#mfd23d3c377" y="460.487"/><use x="469.181" xlink:href="#mfd23d3c377" y="460.273"/><use x="472.527" xlink:href="#mfd23d3c377" y="459.821"/><use x="475.874" xlink:href="#mfd23d3c377" y="459.132"/><use x="479.22" xlink:href="#mfd23d3c377" y="458.324"/><use x="482.567" xlink:href="#mfd23d3c377" y="457.778"/><use x="485.913" xlink:href="#mfd23d3c377" y="457.302"/><use x="489.26" xlink:href="#mfd23d3c377" y="457.065"/><use x="492.606" xlink:href="#mfd23d3c377" y="456.423"/><use x="495.953" xlink:href="#mfd23d3c377" y="454.023"/><use x="499.299" xlink:href="#mfd23d3c377" y="454.332"/><use x="502.646" xlink:href="#mfd23d3c377" y="452.906"/><use x="505.992" xlink:href="#mfd23d3c377" y="452.312"/><use x="509.338" xlink:href="#mfd23d3c377" y="451.67"/><use x="512.685" xlink:href="#mfd23d3c377" y="451.124"/><use x="516.031" xlink:href="#mfd23d3c377" y="450.553"/><use x="519.378" xlink:href="#mfd23d3c377" y="450.648"/><use x="522.724" xlink:href="#mfd23d3c377" y="449.983"/><use x="526.071" xlink:href="#mfd23d3c377" y="449.199"/><use x="529.417" xlink:href="#mfd23d3c377" y="448.676"/><use x="532.764" xlink:href="#mfd23d3c377" y="448.082"/><use x="536.11" xlink:href="#mfd23d3c377" y="447.393"/><use x="539.457" xlink:href="#mfd23d3c377" y="446.038"/><use x="542.803" xlink:href="#mfd23d3c377" y="445.587"/><use x="546.15" xlink:href="#mfd23d3c377" y="445.017"/><use x="549.496" xlink:href="#mfd23d3c377" y="444.541"/><use x="552.843" xlink:href="#mfd23d3c377" y="444.945"/><use x="556.189" xlink:href="#mfd23d3c377" y="443.852"/><use x="559.536" xlink:href="#mfd23d3c377" y="443.21"/><use x="562.882" xlink:href="#mfd23d3c377" y="442.616"/><use x="566.229" xlink:href="#mfd23d3c377" y="441.69"/><use x="569.575" xlink:href="#mfd23d3c377" y="441.523"/><use x="572.922" xlink:href="#mfd23d3c377" y="440.953"/><use x="576.268" xlink:href="#mfd23d3c377" y="440.525"/><use x="579.615" xlink:href="#mfd23d3c377" y="440.002"/><use x="582.961" xlink:href="#mfd23d3c377" y="439.289"/><use x="586.308" xlink:href="#mfd23d3c377" y="439.789"/><use x="589.654" xlink:href="#mfd23d3c377" y="438.909"/><use x="593.001" xlink:href="#mfd23d3c377" y="438.268"/><use x="596.347" xlink:href="#mfd23d3c377" y="437.697"/><use x="599.694" xlink:href="#mfd23d3c377" y="437.056"/><use x="603.04" xlink:href="#mfd23d3c377" y="434.038"/><use x="606.387" xlink:href="#mfd23d3c377" y="434.18"/><use x="609.733" xlink:href="#mfd23d3c377" y="432.636"/><use x="613.08" xlink:href="#mfd23d3c377" y="432.113"/><use x="616.426" xlink:href="#mfd23d3c377" y="432.137"/><use x="619.773" xlink:href="#mfd23d3c377" y="431.638"/><use x="623.119" xlink:href="#mfd23d3c377" y="430.948"/><use x="626.465" xlink:href="#mfd23d3c377" y="430.164"/><use x="629.812" xlink:href="#mfd23d3c377" y="429.499"/><use x="633.158" xlink:href="#mfd23d3c377" y="428.881"/><use x="636.505" xlink:href="#mfd23d3c377" y="427.123"/><use x="639.851" xlink:href="#mfd23d3c377" y="426.671"/><use x="643.198" xlink:href="#mfd23d3c377" y="426.22"/><use x="646.544" xlink:href="#mfd23d3c377" y="425.72"/><use x="649.891" xlink:href="#mfd23d3c377" y="425.792"/><use x="653.237" xlink:href="#mfd23d3c377" y="425.055"/><use x="656.584" xlink:href="#mfd23d3c377" y="424.437"/><use x="659.93" xlink:href="#mfd23d3c377" y="424.01"/><use x="663.277" xlink:href="#mfd23d3c377" y="423.463"/><use x="666.623" xlink:href="#mfd23d3c377" y="422.845"/><use x="669.97" xlink:href="#mfd23d3c377" y="422.275"/><use x="673.316" xlink:href="#mfd23d3c377" y="421.704"/><use x="676.663" xlink:href="#mfd23d3c377" y="421.087"/><use x="680.009" xlink:href="#mfd23d3c377" y="420.54"/><use x="683.356" xlink:href="#mfd23d3c377" y="420.089"/><use x="686.702" xlink:href="#mfd23d3c377" y="419.471"/><use x="690.049" xlink:href="#mfd23d3c377" y="418.853"/><use x="693.395" xlink:href="#mfd23d3c377" y="418.14"/><use x="696.742" xlink:href="#mfd23d3c377" y="417.261"/><use x="700.088" xlink:href="#mfd23d3c377" y="416.667"/><use x="703.435" xlink:href="#mfd23d3c377" y="416.025"/><use x="706.781" xlink:href="#mfd23d3c377" y="415.645"/><use x="710.128" xlink:href="#mfd23d3c377" y="415.122"/><use x="713.474" xlink:href="#mfd23d3c377" y="408.468"/><use x="716.821" xlink:href="#mfd23d3c377" y="402.694"/><use x="720.167" xlink:href="#mfd23d3c377" y="390.598"/><use x="723.514" xlink:href="#mfd23d3c377" y="402.052"/><use x="726.86" xlink:href="#mfd23d3c377" y="375.746"/><use x="730.207" xlink:href="#mfd23d3c377" y="370.708"/><use x="733.553" xlink:href="#mfd23d3c377" y="374.7"/><use x="736.899" xlink:href="#mfd23d3c377" y="338.104"/><use x="740.246" xlink:href="#mfd23d3c377" y="321.398"/><use x="743.592" xlink:href="#mfd23d3c377" y="316.408"/><use x="746.939" xlink:href="#mfd23d3c377" y="208.878"/><use x="750.285" xlink:href="#mfd23d3c377" y="92.223"/><use x="753.632" xlink:href="#mfd23d3c377" y="92.223"/><use x="756.978" xlink:href="#mfd23d3c377" y="94.86"/><use x="760.325" xlink:href="#mfd23d3c377" y="95.003"/><use x="763.671" xlink:href="#mfd23d3c377" y="94.219"/><use x="767.018" xlink:href="#mfd23d3c377" y="94.029"/><use x="770.364" xlink:href="#mfd23d3c377" y="93.363"/><use x="773.711" xlink:href="#mfd23d3c377" y="93.244"/><use x="777.057" xlink:href="#mfd23d3c377" y="94.314"/><use x="780.404" xlink:href="#mfd23d3c377" y="93.934"/><use x="783.75" xlink:href="#mfd23d3c377" y="93.601"/><use x="787.097" xlink:href="#mfd23d3c377" y="92.841"/><use x="790.443" xlink:href="#mfd23d3c377" y="92.246"/><use x="793.79" xlink:href="#mfd23d3c377" y="92.389"/><use x="797.136" xlink:href="#mfd23d3c377" y="91.7"/><use x="800.483" xlink:href="#mfd23d3c377" y="89.086"/><use x="803.829" xlink:href="#mfd23d3c377" y="87.921"/><use x="807.176" xlink:href="#mfd23d3c377" y="87.755"/><use x="810.522" xlink:href="#mfd23d3c377" y="86.805"/><use x="813.869" xlink:href="#mfd23d3c377" y="86.614"/><use x="817.215" xlink:href="#mfd23d3c377" y="84.999"/><use x="820.562" xlink:href="#mfd23d3c377" y="85.189"/><use x="823.908" xlink:href="#mfd23d3c377" y="84.761"/><use x="827.255" xlink:href="#mfd23d3c377" y="84.096"/><use x="830.601" xlink:href="#mfd23d3c377" y="83.288"/><use x="833.948" xlink:href="#mfd23d3c377" y="82.907"/><use x="837.294" xlink:href="#mfd23d3c377" y="82.385"/><use x="840.641" xlink:href="#mfd23d3c377" y="81.006"/><use x="843.987" xlink:href="#mfd23d3c377" y="78.82"/><use x="847.334" xlink:href="#mfd23d3c377" y="77.846"/><use x="850.68" xlink:href="#mfd23d3c377" y="77.394"/></g></g><g id="line2d_140"><path clip-path="url(#p74d9dedb55)" d="M 50.87 499.767753 L 54.216485 499.862808 L 57.562971 500.742059 L 64.255941 500.575715 L 74.295397 500.623242 L 80.988368 500.48066 L 84.334854 502.096582 L 87.681339 502.025292 L 97.720795 502.167873 L 101.06728 501.88271 L 104.413766 501.930238 L 107.760251 502.2154 L 111.106736 502.310455 L 114.453222 500.029153 L 117.799707 500.052916 L 121.146192 500.266788 L 124.492678 499.981625 L 131.185649 499.981625 L 134.532134 499.981625 L 137.878619 497.367634 L 141.225105 497.177525 L 147.918075 497.201289 L 151.264561 496.512145 L 154.611046 496.488382 L 157.957531 497.961723 L 161.304017 497.842905 L 164.650502 497.961723 L 167.996987 496.654727 L 171.343473 496.583436 L 174.689958 496.67849 L 178.036444 497.842905 L 184.729414 497.961723 L 191.422385 497.866668 L 194.76887 498.769684 L 198.115356 498.650866 L 204.808326 498.74592 L 208.154812 498.603339 L 214.847782 498.555812 L 218.194268 498.436994 L 221.540753 501.027222 L 224.887238 498.223122 L 228.233724 497.724087 L 231.580209 496.226983 L 234.926695 493.517937 L 238.27318 492.87632 L 248.312636 492.733739 L 251.659121 491.688142 L 258.352092 491.688142 L 261.698577 491.902014 L 265.045063 491.997069 L 268.391548 493.113956 L 275.084519 493.20901 L 278.431004 493.232774 L 281.77749 493.066429 L 285.123975 493.13772 L 295.163431 492.995138 L 298.509916 493.113956 L 301.856402 493.090193 L 305.202887 493.969444 L 311.895858 493.850626 L 318.588828 493.850626 L 321.935314 493.898154 L 328.628285 493.779336 L 331.97477 493.826863 L 335.321255 493.708045 L 338.667741 490.7376 L 342.014226 490.975236 L 345.360711 489.359313 L 348.707197 482.824334 L 352.053682 471.607933 L 355.400167 468.898886 L 358.746653 467.758235 L 362.093138 466.926511 L 365.439623 466.498767 L 368.786109 465.667042 L 372.132594 465.595751 L 375.479079 465.12048 L 382.17205 464.597682 L 385.518536 463.504558 L 388.865021 463.148104 L 392.211506 461.959926 L 395.557992 460.058841 L 398.904477 459.607334 L 402.250962 459.726152 L 405.597448 458.157756 L 408.943933 457.51614 L 412.290418 458.324101 L 415.636904 457.991412 L 418.983389 457.159687 L 422.329874 456.755706 L 425.67636 456.541834 L 429.022845 455.828927 L 432.369331 454.498168 L 435.715816 453.999133 L 439.062301 453.904079 L 442.408787 453.452571 L 445.755272 453.595153 L 452.448243 452.145575 L 455.794728 451.812885 L 459.141213 451.004924 L 462.487699 448.581041 L 465.834184 447.274045 L 469.180669 448.889967 L 472.527155 445.634359 L 475.87364 445.230379 L 479.220126 445.135325 L 482.566611 444.3036 L 485.913096 442.97284 L 489.259582 442.830259 L 492.606067 442.545096 L 495.952552 442.402515 L 499.299038 441.333155 L 502.645523 441.047992 L 505.992008 440.572721 L 509.338494 440.358849 L 512.684979 439.313252 L 516.031464 437.222058 L 519.37795 436.580442 L 522.724435 436.604206 L 526.070921 435.439791 L 529.417406 434.940756 L 532.763891 434.322904 L 542.803347 433.871396 L 546.149833 433.039672 L 549.496318 433.087199 L 552.842803 431.16235 L 556.189289 428.263196 L 559.535774 427.075017 L 562.882259 427.28889 L 569.57523 425.530386 L 572.921715 425.649204 L 576.268201 425.506622 L 579.614686 421.110363 L 582.961172 420.896491 L 586.307657 420.231112 L 589.654142 419.993476 L 593.000628 418.734007 L 596.347113 418.472608 L 599.693598 417.94981 L 603.040084 417.973573 L 606.386569 416.333887 L 609.733054 416.191306 L 616.426025 415.335818 L 619.77251 413.648605 L 623.118996 413.315915 L 626.465481 412.222791 L 629.811967 411.74752 L 633.158452 410.321706 L 636.504937 410.179125 L 639.851423 408.729548 L 643.197908 408.682021 L 646.544393 406.685881 L 649.890879 406.804699 L 653.237364 405.331358 L 656.583849 405.14125 L 659.930335 403.002529 L 663.27682 402.598549 L 666.623305 400.364774 L 669.969791 400.127138 L 673.316276 384.39566 L 676.662762 382.447048 L 680.009247 365.194702 L 683.355732 370.826666 L 686.702218 255.906081 L 690.048703 248.254214 L 693.395188 189.391871 L 696.741674 159.853764 L 700.088159 115.225794 L 703.434644 107.407582 L 706.78113 82.978641 L 710.127615 78.629909 L 713.4741 74.685158 L 716.820586 74.043541 L 720.167071 70.930515 L 723.513556 70.740406 L 726.860042 74.328704 L 733.553013 73.996014 L 736.899498 73.710852 L 740.245983 72.570201 L 743.592469 73.021708 L 746.938954 73.354398 L 753.631925 70.455244 L 756.97841 69.979972 L 760.324895 70.740406 L 763.671381 70.003736 L 767.017866 68.482868 L 773.710837 68.530395 L 777.057322 67.579853 L 780.403808 66.914473 L 783.750293 67.223399 L 787.096778 66.605546 L 790.443264 66.344147 L 793.789749 64.989624 L 797.136234 64.680698 L 800.48272 65.084679 L 803.829205 63.801446 L 807.17569 61.021109 L 810.522176 60.831001 L 813.868661 61.068637 L 817.215146 59.737877 L 820.561632 59.215079 L 823.908117 49.519545 L 827.254603 49.638363 L 830.601088 55.294091 L 833.947573 54.581184 L 837.294059 54.48613 L 840.640544 54.200967 L 843.987029 53.678169 L 847.333515 52.228592 L 850.68 51.824611 L 850.68 51.824611" fill="none" stroke="#ff7f0e" stroke-linecap="square" stroke-width="1.5"/><defs><path d="M 0 1.5 C 0.397805 1.5 0.77937 1.341951 1.06066 1.06066 C 1.341951 0.77937 1.5 0.397805 1.5 0 C 1.5 -0.397805 1.341951 -0.77937 1.06066 -1.06066 C 0.77937 -1.341951 0.397805 -1.5 0 -1.5 C -0.397805 -1.5 -0.77937 -1.341951 -1.06066 -1.06066 C -1.341951 -0.77937 -1.5 -0.397805 -1.5 0 C -1.5 0.397805 -1.341951 0.77937 -1.06066 1.06066 C -0.77937 1.341951 -0.397805 1.5 0 1.5 z" id="mf7b048cd89" stroke="#ff7f0e"/></defs><g clip-path="url(#p74d9dedb55)" fill="#ff7f0e" stroke="#ff7f0e"><use x="50.87" xlink:href="#mf7b048cd89" y="499.768"/><use x="54.216" xlink:href="#mf7b048cd89" y="499.863"/><use x="57.563" xlink:href="#mf7b048cd89" y="500.742"/><use x="60.909" xlink:href="#mf7b048cd89" y="500.647"/><use x="64.256" xlink:href="#mf7b048cd89" y="500.576"/><use x="67.602" xlink:href="#mf7b048cd89" y="500.599"/><use x="70.949" xlink:href="#mf7b048cd89" y="500.671"/><use x="74.295" xlink:href="#mf7b048cd89" y="500.623"/><use x="77.642" xlink:href="#mf7b048cd89" y="500.528"/><use x="80.988" xlink:href="#mf7b048cd89" y="500.481"/><use x="84.335" xlink:href="#mf7b048cd89" y="502.097"/><use x="87.681" xlink:href="#mf7b048cd89" y="502.025"/><use x="91.028" xlink:href="#mf7b048cd89" y="502.073"/><use x="94.374" xlink:href="#mf7b048cd89" y="502.192"/><use x="97.721" xlink:href="#mf7b048cd89" y="502.168"/><use x="101.067" xlink:href="#mf7b048cd89" y="501.883"/><use x="104.414" xlink:href="#mf7b048cd89" y="501.93"/><use x="107.76" xlink:href="#mf7b048cd89" y="502.215"/><use x="111.107" xlink:href="#mf7b048cd89" y="502.31"/><use x="114.453" xlink:href="#mf7b048cd89" y="500.029"/><use x="117.8" xlink:href="#mf7b048cd89" y="500.053"/><use x="121.146" xlink:href="#mf7b048cd89" y="500.267"/><use x="124.493" xlink:href="#mf7b048cd89" y="499.982"/><use x="127.839" xlink:href="#mf7b048cd89" y="500.029"/><use x="131.186" xlink:href="#mf7b048cd89" y="499.982"/><use x="134.532" xlink:href="#mf7b048cd89" y="499.982"/><use x="137.879" xlink:href="#mf7b048cd89" y="497.368"/><use x="141.225" xlink:href="#mf7b048cd89" y="497.178"/><use x="144.572" xlink:href="#mf7b048cd89" y="497.154"/><use x="147.918" xlink:href="#mf7b048cd89" y="497.201"/><use x="151.265" xlink:href="#mf7b048cd89" y="496.512"/><use x="154.611" xlink:href="#mf7b048cd89" y="496.488"/><use x="157.958" xlink:href="#mf7b048cd89" y="497.962"/><use x="161.304" xlink:href="#mf7b048cd89" y="497.843"/><use x="164.651" xlink:href="#mf7b048cd89" y="497.962"/><use x="167.997" xlink:href="#mf7b048cd89" y="496.655"/><use x="171.343" xlink:href="#mf7b048cd89" y="496.583"/><use x="174.69" xlink:href="#mf7b048cd89" y="496.678"/><use x="178.036" xlink:href="#mf7b048cd89" y="497.843"/><use x="181.383" xlink:href="#mf7b048cd89" y="497.938"/><use x="184.729" xlink:href="#mf7b048cd89" y="497.962"/><use x="188.076" xlink:href="#mf7b048cd89" y="497.938"/><use x="191.422" xlink:href="#mf7b048cd89" y="497.867"/><use x="194.769" xlink:href="#mf7b048cd89" y="498.77"/><use x="198.115" xlink:href="#mf7b048cd89" y="498.651"/><use x="201.462" xlink:href="#mf7b048cd89" y="498.698"/><use x="204.808" xlink:href="#mf7b048cd89" y="498.746"/><use x="208.155" xlink:href="#mf7b048cd89" y="498.603"/><use x="211.501" xlink:href="#mf7b048cd89" y="498.627"/><use x="214.848" xlink:href="#mf7b048cd89" y="498.556"/><use x="218.194" xlink:href="#mf7b048cd89" y="498.437"/><use x="221.541" xlink:href="#mf7b048cd89" y="501.027"/><use x="224.887" xlink:href="#mf7b048cd89" y="498.223"/><use x="228.234" xlink:href="#mf7b048cd89" y="497.724"/><use x="231.58" xlink:href="#mf7b048cd89" y="496.227"/><use x="234.927" xlink:href="#mf7b048cd89" y="493.518"/><use x="238.273" xlink:href="#mf7b048cd89" y="492.876"/><use x="241.62" xlink:href="#mf7b048cd89" y="492.805"/><use x="244.966" xlink:href="#mf7b048cd89" y="492.829"/><use x="248.313" xlink:href="#mf7b048cd89" y="492.734"/><use x="251.659" xlink:href="#mf7b048cd89" y="491.688"/><use x="255.006" xlink:href="#mf7b048cd89" y="491.688"/><use x="258.352" xlink:href="#mf7b048cd89" y="491.688"/><use x="261.699" xlink:href="#mf7b048cd89" y="491.902"/><use x="265.045" xlink:href="#mf7b048cd89" y="491.997"/><use x="268.392" xlink:href="#mf7b048cd89" y="493.114"/><use x="271.738" xlink:href="#mf7b048cd89" y="493.209"/><use x="275.085" xlink:href="#mf7b048cd89" y="493.209"/><use x="278.431" xlink:href="#mf7b048cd89" y="493.233"/><use x="281.777" xlink:href="#mf7b048cd89" y="493.066"/><use x="285.124" xlink:href="#mf7b048cd89" y="493.138"/><use x="288.47" xlink:href="#mf7b048cd89" y="493.09"/><use x="291.817" xlink:href="#mf7b048cd89" y="493.019"/><use x="295.163" xlink:href="#mf7b048cd89" y="492.995"/><use x="298.51" xlink:href="#mf7b048cd89" y="493.114"/><use x="301.856" xlink:href="#mf7b048cd89" y="493.09"/><use x="305.203" xlink:href="#mf7b048cd89" y="493.969"/><use x="308.549" xlink:href="#mf7b048cd89" y="493.874"/><use x="311.896" xlink:href="#mf7b048cd89" y="493.851"/><use x="315.242" xlink:href="#mf7b048cd89" y="493.827"/><use x="318.589" xlink:href="#mf7b048cd89" y="493.851"/><use x="321.935" xlink:href="#mf7b048cd89" y="493.898"/><use x="325.282" xlink:href="#mf7b048cd89" y="493.827"/><use x="328.628" xlink:href="#mf7b048cd89" y="493.779"/><use x="331.975" xlink:href="#mf7b048cd89" y="493.827"/><use x="335.321" xlink:href="#mf7b048cd89" y="493.708"/><use x="338.668" xlink:href="#mf7b048cd89" y="490.738"/><use x="342.014" xlink:href="#mf7b048cd89" y="490.975"/><use x="345.361" xlink:href="#mf7b048cd89" y="489.359"/><use x="348.707" xlink:href="#mf7b048cd89" y="482.824"/><use x="352.054" xlink:href="#mf7b048cd89" y="471.608"/><use x="355.4" xlink:href="#mf7b048cd89" y="468.899"/><use x="358.747" xlink:href="#mf7b048cd89" y="467.758"/><use x="362.093" xlink:href="#mf7b048cd89" y="466.927"/><use x="365.44" xlink:href="#mf7b048cd89" y="466.499"/><use x="368.786" xlink:href="#mf7b048cd89" y="465.667"/><use x="372.133" xlink:href="#mf7b048cd89" y="465.596"/><use x="375.479" xlink:href="#mf7b048cd89" y="465.12"/><use x="378.826" xlink:href="#mf7b048cd89" y="464.907"/><use x="382.172" xlink:href="#mf7b048cd89" y="464.598"/><use x="385.519" xlink:href="#mf7b048cd89" y="463.505"/><use x="388.865" xlink:href="#mf7b048cd89" y="463.148"/><use x="392.212" xlink:href="#mf7b048cd89" y="461.96"/><use x="395.558" xlink:href="#mf7b048cd89" y="460.059"/><use x="398.904" xlink:href="#mf7b048cd89" y="459.607"/><use x="402.251" xlink:href="#mf7b048cd89" y="459.726"/><use x="405.597" xlink:href="#mf7b048cd89" y="458.158"/><use x="408.944" xlink:href="#mf7b048cd89" y="457.516"/><use x="412.29" xlink:href="#mf7b048cd89" y="458.324"/><use x="415.637" xlink:href="#mf7b048cd89" y="457.991"/><use x="418.983" xlink:href="#mf7b048cd89" y="457.16"/><use x="422.33" xlink:href="#mf7b048cd89" y="456.756"/><use x="425.676" xlink:href="#mf7b048cd89" y="456.542"/><use x="429.023" xlink:href="#mf7b048cd89" y="455.829"/><use x="432.369" xlink:href="#mf7b048cd89" y="454.498"/><use x="435.716" xlink:href="#mf7b048cd89" y="453.999"/><use x="439.062" xlink:href="#mf7b048cd89" y="453.904"/><use x="442.409" xlink:href="#mf7b048cd89" y="453.453"/><use x="445.755" xlink:href="#mf7b048cd89" y="453.595"/><use x="449.102" xlink:href="#mf7b048cd89" y="452.835"/><use x="452.448" xlink:href="#mf7b048cd89" y="452.146"/><use x="455.795" xlink:href="#mf7b048cd89" y="451.813"/><use x="459.141" xlink:href="#mf7b048cd89" y="451.005"/><use x="462.488" xlink:href="#mf7b048cd89" y="448.581"/><use x="465.834" xlink:href="#mf7b048cd89" y="447.274"/><use x="469.181" xlink:href="#mf7b048cd89" y="448.89"/><use x="472.527" xlink:href="#mf7b048cd89" y="445.634"/><use x="475.874" xlink:href="#mf7b048cd89" y="445.23"/><use x="479.22" xlink:href="#mf7b048cd89" y="445.135"/><use x="482.567" xlink:href="#mf7b048cd89" y="444.304"/><use x="485.913" xlink:href="#mf7b048cd89" y="442.973"/><use x="489.26" xlink:href="#mf7b048cd89" y="442.83"/><use x="492.606" xlink:href="#mf7b048cd89" y="442.545"/><use x="495.953" xlink:href="#mf7b048cd89" y="442.403"/><use x="499.299" xlink:href="#mf7b048cd89" y="441.333"/><use x="502.646" xlink:href="#mf7b048cd89" y="441.048"/><use x="505.992" xlink:href="#mf7b048cd89" y="440.573"/><use x="509.338" xlink:href="#mf7b048cd89" y="440.359"/><use x="512.685" xlink:href="#mf7b048cd89" y="439.313"/><use x="516.031" xlink:href="#mf7b048cd89" y="437.222"/><use x="519.378" xlink:href="#mf7b048cd89" y="436.58"/><use x="522.724" xlink:href="#mf7b048cd89" y="436.604"/><use x="526.071" xlink:href="#mf7b048cd89" y="435.44"/><use x="529.417" xlink:href="#mf7b048cd89" y="434.941"/><use x="532.764" xlink:href="#mf7b048cd89" y="434.323"/><use x="536.11" xlink:href="#mf7b048cd89" y="434.204"/><use x="539.457" xlink:href="#mf7b048cd89" y="434.18"/><use x="542.803" xlink:href="#mf7b048cd89" y="433.871"/><use x="546.15" xlink:href="#mf7b048cd89" y="433.04"/><use x="549.496" xlink:href="#mf7b048cd89" y="433.087"/><use x="552.843" xlink:href="#mf7b048cd89" y="431.162"/><use x="556.189" xlink:href="#mf7b048cd89" y="428.263"/><use x="559.536" xlink:href="#mf7b048cd89" y="427.075"/><use x="562.882" xlink:href="#mf7b048cd89" y="427.289"/><use x="566.229" xlink:href="#mf7b048cd89" y="426.362"/><use x="569.575" xlink:href="#mf7b048cd89" y="425.53"/><use x="572.922" xlink:href="#mf7b048cd89" y="425.649"/><use x="576.268" xlink:href="#mf7b048cd89" y="425.507"/><use x="579.615" xlink:href="#mf7b048cd89" y="421.11"/><use x="582.961" xlink:href="#mf7b048cd89" y="420.896"/><use x="586.308" xlink:href="#mf7b048cd89" y="420.231"/><use x="589.654" xlink:href="#mf7b048cd89" y="419.993"/><use x="593.001" xlink:href="#mf7b048cd89" y="418.734"/><use x="596.347" xlink:href="#mf7b048cd89" y="418.473"/><use x="599.694" xlink:href="#mf7b048cd89" y="417.95"/><use x="603.04" xlink:href="#mf7b048cd89" y="417.974"/><use x="606.387" xlink:href="#mf7b048cd89" y="416.334"/><use x="609.733" xlink:href="#mf7b048cd89" y="416.191"/><use x="613.08" xlink:href="#mf7b048cd89" y="415.716"/><use x="616.426" xlink:href="#mf7b048cd89" y="415.336"/><use x="619.773" xlink:href="#mf7b048cd89" y="413.649"/><use x="623.119" xlink:href="#mf7b048cd89" y="413.316"/><use x="626.465" xlink:href="#mf7b048cd89" y="412.223"/><use x="629.812" xlink:href="#mf7b048cd89" y="411.748"/><use x="633.158" xlink:href="#mf7b048cd89" y="410.322"/><use x="636.505" xlink:href="#mf7b048cd89" y="410.179"/><use x="639.851" xlink:href="#mf7b048cd89" y="408.73"/><use x="643.198" xlink:href="#mf7b048cd89" y="408.682"/><use x="646.544" xlink:href="#mf7b048cd89" y="406.686"/><use x="649.891" xlink:href="#mf7b048cd89" y="406.805"/><use x="653.237" xlink:href="#mf7b048cd89" y="405.331"/><use x="656.584" xlink:href="#mf7b048cd89" y="405.141"/><use x="659.93" xlink:href="#mf7b048cd89" y="403.003"/><use x="663.277" xlink:href="#mf7b048cd89" y="402.599"/><use x="666.623" xlink:href="#mf7b048cd89" y="400.365"/><use x="669.97" xlink:href="#mf7b048cd89" y="400.127"/><use x="673.316" xlink:href="#mf7b048cd89" y="384.396"/><use x="676.663" xlink:href="#mf7b048cd89" y="382.447"/><use x="680.009" xlink:href="#mf7b048cd89" y="365.195"/><use x="683.356" xlink:href="#mf7b048cd89" y="370.827"/><use x="686.702" xlink:href="#mf7b048cd89" y="255.906"/><use x="690.049" xlink:href="#mf7b048cd89" y="248.254"/><use x="693.395" xlink:href="#mf7b048cd89" y="189.392"/><use x="696.742" xlink:href="#mf7b048cd89" y="159.854"/><use x="700.088" xlink:href="#mf7b048cd89" y="115.226"/><use x="703.435" xlink:href="#mf7b048cd89" y="107.408"/><use x="706.781" xlink:href="#mf7b048cd89" y="82.979"/><use x="710.128" xlink:href="#mf7b048cd89" y="78.63"/><use x="713.474" xlink:href="#mf7b048cd89" y="74.685"/><use x="716.821" xlink:href="#mf7b048cd89" y="74.044"/><use x="720.167" xlink:href="#mf7b048cd89" y="70.931"/><use x="723.514" xlink:href="#mf7b048cd89" y="70.74"/><use x="726.86" xlink:href="#mf7b048cd89" y="74.329"/><use x="730.207" xlink:href="#mf7b048cd89" y="74.21"/><use x="733.553" xlink:href="#mf7b048cd89" y="73.996"/><use x="736.899" xlink:href="#mf7b048cd89" y="73.711"/><use x="740.246" xlink:href="#mf7b048cd89" y="72.57"/><use x="743.592" xlink:href="#mf7b048cd89" y="73.022"/><use x="746.939" xlink:href="#mf7b048cd89" y="73.354"/><use x="750.285" xlink:href="#mf7b048cd89" y="71.905"/><use x="753.632" xlink:href="#mf7b048cd89" y="70.455"/><use x="756.978" xlink:href="#mf7b048cd89" y="69.98"/><use x="760.325" xlink:href="#mf7b048cd89" y="70.74"/><use x="763.671" xlink:href="#mf7b048cd89" y="70.004"/><use x="767.018" xlink:href="#mf7b048cd89" y="68.483"/><use x="770.364" xlink:href="#mf7b048cd89" y="68.459"/><use x="773.711" xlink:href="#mf7b048cd89" y="68.53"/><use x="777.057" xlink:href="#mf7b048cd89" y="67.58"/><use x="780.404" xlink:href="#mf7b048cd89" y="66.914"/><use x="783.75" xlink:href="#mf7b048cd89" y="67.223"/><use x="787.097" xlink:href="#mf7b048cd89" y="66.606"/><use x="790.443" xlink:href="#mf7b048cd89" y="66.344"/><use x="793.79" xlink:href="#mf7b048cd89" y="64.99"/><use x="797.136" xlink:href="#mf7b048cd89" y="64.681"/><use x="800.483" xlink:href="#mf7b048cd89" y="65.085"/><use x="803.829" xlink:href="#mf7b048cd89" y="63.801"/><use x="807.176" xlink:href="#mf7b048cd89" y="61.021"/><use x="810.522" xlink:href="#mf7b048cd89" y="60.831"/><use x="813.869" xlink:href="#mf7b048cd89" y="61.069"/><use x="817.215" xlink:href="#mf7b048cd89" y="59.738"/><use x="820.562" xlink:href="#mf7b048cd89" y="59.215"/><use x="823.908" xlink:href="#mf7b048cd89" y="49.52"/><use x="827.255" xlink:href="#mf7b048cd89" y="49.638"/><use x="830.601" xlink:href="#mf7b048cd89" y="55.294"/><use x="833.948" xlink:href="#mf7b048cd89" y="54.581"/><use x="837.294" xlink:href="#mf7b048cd89" y="54.486"/><use x="840.641" xlink:href="#mf7b048cd89" y="54.201"/><use x="843.987" xlink:href="#mf7b048cd89" y="53.678"/><use x="847.334" xlink:href="#mf7b048cd89" y="52.229"/><use x="850.68" xlink:href="#mf7b048cd89" y="51.825"/></g></g><path d="M 50.87 524.95 L 50.87 26.88" fill="none" stroke="#000" stroke-linecap="square" stroke-width=".8" id="patch_3"/><path d="M 850.68 524.95 L 850.68 26.88" fill="none" stroke="#000" stroke-linecap="square" stroke-width=".8" id="patch_4"/><path d="M 50.87 524.95 L 850.68 524.95" fill="none" stroke="#000" stroke-linecap="square" stroke-width=".8" id="patch_5"/><path d="M 50.87 26.88 L 850.68 26.88" fill="none" stroke="#000" stroke-linecap="square" stroke-width=".8" id="patch_6"/><g id="text_72"><defs><path d="M -0.296875 72.90625 L 61.375 72.90625 L 61.375 64.59375 L 35.5 64.59375 L 35.5 0 L 25.59375 0 L 25.59375 64.59375 L -0.296875 64.59375 z" id="DejaVuSans-84"/><path d="M 2.984375 54.6875 L 12.5 54.6875 L 29.59375 8.796875 L 46.6875 54.6875 L 56.203125 54.6875 L 35.6875 0 L 23.484375 0 z" id="DejaVuSans-118"/></defs><g transform="matrix(.12 0 0 -.12 414.107 20.88)"><use xlink:href="#DejaVuSans-84"/><use x="60.818" xlink:href="#DejaVuSans-101"/><use x="122.342" xlink:href="#DejaVuSans-115"/><use x="174.441" xlink:href="#DejaVuSans-116"/><use x="213.65" xlink:href="#DejaVuSans-32"/><use x="245.438" xlink:href="#DejaVuSans-52"/><use x="309.061" xlink:href="#DejaVuSans-32"/><use x="340.848" xlink:href="#DejaVuSans-118"/><use x="400.027" xlink:href="#DejaVuSans-115"/><use x="452.127" xlink:href="#DejaVuSans-32"/><use x="483.914" xlink:href="#DejaVuSans-50"/><use x="547.537" xlink:href="#DejaVuSans-57"/></g></g><g id="legend_1"><path d="M 57.87 64.23625 L 127.137188 64.23625 Q 129.137188 64.23625 129.137188 62.23625 L 129.137188 33.88 Q 129.137188 31.88 127.137188 31.88 L 57.87 31.88 Q 55.87 31.88 55.87 33.88 L 55.87 62.23625 Q 55.87 64.23625 57.87 64.23625 z" fill="#fff" opacity=".8" stroke="#ccc" id="patch_7"/><path d="M 59.87 39.978437 L 79.87 39.978437" fill="none" stroke="#1f77b4" stroke-linecap="square" stroke-width="1.5" id="line2d_141"/><use x="69.87" xlink:href="#mfd23d3c377" y="39.978" fill="#1f77b4" stroke="#1f77b4" id="line2d_142"/><g transform="matrix(.1 0 0 -.1 87.87 43.478)" id="text_73"><use xlink:href="#DejaVuSans-84"/><use x="60.818" xlink:href="#DejaVuSans-101"/><use x="122.342" xlink:href="#DejaVuSans-115"/><use x="174.441" xlink:href="#DejaVuSans-116"/><use x="213.65" xlink:href="#DejaVuSans-32"/><use x="245.438" xlink:href="#DejaVuSans-52"/></g><path d="M 59.87 54.656562 L 79.87 54.656562" fill="none" stroke="#ff7f0e" stroke-linecap="square" stroke-width="1.5" id="line2d_143"/><use x="69.87" xlink:href="#mf7b048cd89" y="54.657" fill="#ff7f0e" stroke="#ff7f0e" id="line2d_144"/><g transform="matrix(.1 0 0 -.1 87.87 58.157)" id="text_74"><use xlink:href="#DejaVuSans-84"/><use x="60.818" xlink:href="#DejaVuSans-101"/><use x="122.342" xlink:href="#DejaVuSans-115"/><use x="174.441" xlink:href="#DejaVuSans-116"/><use x="213.65" xlink:href="#DejaVuSans-32"/><use x="245.438" xlink:href="#DejaVuSans-50"/><use x="309.061" xlink:href="#DejaVuSans-57"/></g></g></g></g><defs><clipPath id="p74d9dedb55"><path d="M50.87 26.88H850.68V524.95H50.87z"/></clipPath></defs></svg>