<svg height="768" viewBox="0 0 864 576" width="1152" xmlns="http://www.w3.org/2000/svg" xmlns:xlink="http://www.w3.org/1999/xlink"><defs><style>*{stroke-linecap:butt;stroke-linejoin:round}</style></defs><g id="figure_1"><path d="M 0 576 L 864 576 L 864 0 L 0 0 z" fill="#fff" id="patch_1"/><g id="axes_1"><path d="M 50.87 524.95 L 850.68 524.95 L 850.68 26.88 L 50.87 26.88 z" fill="#fff" id="patch_2"/><g id="matplotlib.axis_1"><g id="xtick_1"><path clip-path="url(#p74d9dedb55)" d="M 50.87 524.95 L 50.87 26.88" fill="none" stroke="#b0b0b0" stroke-linecap="square" stroke-width=".8" id="line2d_1"/><g id="line2d_2"><defs><path d="M 0 0 L 0 3.5" id="mfc518bbc66" stroke="#000" stroke-width=".8"/></defs><use x="50.87" xlink:href="#mfc518bbc66" y="524.95" stroke="#000" stroke-width=".8"/></g><g id="text_1"><defs><path d="M 12.40625 8.296875 L 28.515625 8.296875 L 28.515625 63.921875 L 10.984375 60.40625 L 10.984375 69.390625 L 28.421875 72.90625 L 38.28125 72.90625 L 38.28125 8.296875 L 54.390625 8.296875 L 54.390625 0 L 12.40625 0 z" id="DejaVuSans-49"/><path d="M 33.015625 40.375 Q 26.375 40.375 22.484375 35.828125 Q 18.609375 31.296875 18.609375 23.390625 Q 18.609375 15.53125 22.484375 10.953125 Q 26.375 6.390625 33.015625 6.390625 Q 39.65625 6.390625 43.53125 10.953125 Q 47.40625 15.53125 47.40625 23.390625 Q 47.40625 31.296875 43.53125 35.828125 Q 39.65625 40.375 33.015625 40.375 z M 52.59375 71.296875 L 52.59375 62.3125 Q 48.875 64.0625 45.09375 64.984375 Q 41.3125 65.921875 37.59375 65.921875 Q 27.828125 65.921875 22.671875 59.328125 Q 17.53125 52.734375 16.796875 39.40625 Q 19.671875 43.65625 24.015625 45.921875 Q 28.375 48.1875 33.59375 48.1875 Q 44.578125 48.1875 50.953125 41.515625 Q 57.328125 34.859375 57.328125 23.390625 Q 57.328125 12.15625 50.6875 5.359375 Q 44.046875 -1.421875 33.015625 -1.421875 Q 20.359375 -1.421875 13.671875 8.265625 Q 6.984375 17.96875 6.984375 36.375 Q 6.984375 53.65625 15.1875 63.9375 Q 23.390625 74.21875 37.203125 74.21875 Q 40.921875 74.21875 44.703125 73.484375 Q 48.484375 72.75 52.59375 71.296875 z" id="DejaVuSans-54"/></defs><g transform="matrix(0 -.1 -.1 0 53.63 544.675)"><use xlink:href="#DejaVuSans-49"/><use x="63.623" xlink:href="#DejaVuSans-54"/></g></g></g><g id="xtick_2"><path clip-path="url(#p74d9dedb55)" d="M 64.255941 524.95 L 64.255941 26.88" fill="none" stroke="#b0b0b0" stroke-linecap="square" stroke-width=".8" id="line2d_3"/><use x="64.256" xlink:href="#mfc518bbc66" y="524.95" stroke="#000" stroke-width=".8" id="line2d_4"/><g id="text_2"><defs><path d="M 19.1875 8.296875 L 53.609375 8.296875 L 53.609375 0 L 7.328125 0 L 7.328125 8.296875 Q 12.9375 14.109375 22.625 23.890625 Q 32.328125 33.6875 34.8125 36.53125 Q 39.546875 41.84375 41.421875 45.53125 Q 43.3125 49.21875 43.3125 52.78125 Q 43.3125 58.59375 39.234375 62.25 Q 35.15625 65.921875 28.609375 65.921875 Q 23.96875 65.921875 18.8125 64.3125 Q 13.671875 62.703125 7.8125 59.421875 L 7.8125 69.390625 Q 13.765625 71.78125 18.9375 73 Q 24.125 74.21875 28.421875 74.21875 Q 39.75 74.21875 46.484375 68.546875 Q 53.21875 62.890625 53.21875 53.421875 Q 53.21875 48.921875 51.53125 44.890625 Q 49.859375 40.875 45.40625 35.40625 Q 44.1875 33.984375 37.640625 27.21875 Q 31.109375 20.453125 19.1875 8.296875 z" id="DejaVuSans-50"/><path d="M 31.78125 66.40625 Q 24.171875 66.40625 20.328125 58.90625 Q 16.5 51.421875 16.5 36.375 Q 16.5 21.390625 20.328125 13.890625 Q 24.171875 6.390625 31.78125 6.390625 Q 39.453125 6.390625 43.28125 13.890625 Q 47.125 21.390625 47.125 36.375 Q 47.125 51.421875 43.28125 58.90625 Q 39.453125 66.40625 31.78125 66.40625 z M 31.78125 74.21875 Q 44.046875 74.21875 50.515625 64.515625 Q 56.984375 54.828125 56.984375 36.375 Q 56.984375 17.96875 50.515625 8.265625 Q 44.046875 -1.421875 31.78125 -1.421875 Q 19.53125 -1.421875 13.0625 8.265625 Q 6.59375 17.96875 6.59375 36.375 Q 6.59375 54.828125 13.0625 64.515625 Q 19.53125 74.21875 31.78125 74.21875 z" id="DejaVuSans-48"/></defs><g transform="matrix(0 -.1 -.1 0 67.015 544.675)"><use xlink:href="#DejaVuSans-50"/><use x="63.623" xlink:href="#DejaVuSans-48"/></g></g></g><g id="xtick_3"><path clip-path="url(#p74d9dedb55)" d="M 77.641883 524.95 L 77.641883 26.88" fill="none" stroke="#b0b0b0" stroke-linecap="square" stroke-width=".8" id="line2d_5"/><use x="77.642" xlink:href="#mfc518bbc66" y="524.95" stroke="#000" stroke-width=".8" id="line2d_6"/><g id="text_3"><defs><path d="M 37.796875 64.3125 L 12.890625 25.390625 L 37.796875 25.390625 z M 35.203125 72.90625 L 47.609375 72.90625 L 47.609375 25.390625 L 58.015625 25.390625 L 58.015625 17.1875 L 47.609375 17.1875 L 47.609375 0 L 37.796875 0 L 37.796875 17.1875 L 4.890625 17.1875 L 4.890625 26.703125 z" id="DejaVuSans-52"/></defs><g transform="matrix(0 -.1 -.1 0 80.401 544.675)"><use xlink:href="#DejaVuSans-50"/><use x="63.623" xlink:href="#DejaVuSans-52"/></g></g></g><g id="xtick_4"><path clip-path="url(#p74d9dedb55)" d="M 91.027824 524.95 L 91.027824 26.88" fill="none" stroke="#b0b0b0" stroke-linecap="square" stroke-width=".8" id="line2d_7"/><use x="91.028" xlink:href="#mfc518bbc66" y="524.95" stroke="#000" stroke-width=".8" id="line2d_8"/><g id="text_4"><defs><path d="M 31.78125 34.625 Q 24.75 34.625 20.71875 30.859375 Q 16.703125 27.09375 16.703125 20.515625 Q 16.703125 13.921875 20.71875 10.15625 Q 24.75 6.390625 31.78125 6.390625 Q 38.8125 6.390625 42.859375 10.171875 Q 46.921875 13.96875 46.921875 20.515625 Q 46.921875 27.09375 42.890625 30.859375 Q 38.875 34.625 31.78125 34.625 z M 21.921875 38.8125 Q 15.578125 40.375 12.03125 44.71875 Q 8.5 49.078125 8.5 55.328125 Q 8.5 64.0625 14.71875 69.140625 Q 20.953125 74.21875 31.78125 74.21875 Q 42.671875 74.21875 48.875 69.140625 Q 55.078125 64.0625 55.078125 55.328125 Q 55.078125 49.078125 51.53125 44.71875 Q 48 40.375 41.703125 38.8125 Q 48.828125 37.15625 52.796875 32.3125 Q 56.78125 27.484375 56.78125 20.515625 Q 56.78125 9.90625 50.3125 4.234375 Q 43.84375 -1.421875 31.78125 -1.421875 Q 19.734375 -1.421875 13.25 4.234375 Q 6.78125 9.90625 6.78125 20.515625 Q 6.78125 27.484375 10.78125 32.3125 Q 14.796875 37.15625 21.921875 38.8125 z M 18.3125 54.390625 Q 18.3125 48.734375 21.84375 45.5625 Q 25.390625 42.390625 31.78125 42.390625 Q 38.140625 42.390625 41.71875 45.5625 Q 45.3125 48.734375 45.3125 54.390625 Q 45.3125 60.0625 41.71875 63.234375 Q 38.140625 66.40625 31.78125 66.40625 Q 25.390625 66.40625 21.84375 63.234375 Q 18.3125 60.0625 18.3125 54.390625 z" id="DejaVuSans-56"/></defs><g transform="matrix(0 -.1 -.1 0 93.787 544.675)"><use xlink:href="#DejaVuSans-50"/><use x="63.623" xlink:href="#DejaVuSans-56"/></g></g></g><g id="xtick_5"><path clip-path="url(#p74d9dedb55)" d="M 104.413766 524.95 L 104.413766 26.88" fill="none" stroke="#b0b0b0" stroke-linecap="square" stroke-width=".8" id="line2d_9"/><use x="104.414" xlink:href="#mfc518bbc66" y="524.95" stroke="#000" stroke-width=".8" id="line2d_10"/><g id="text_5"><defs><path d="M 40.578125 39.3125 Q 47.65625 37.796875 51.625 33 Q 55.609375 28.21875 55.609375 21.1875 Q 55.609375 10.40625 48.1875 4.484375 Q 40.765625 -1.421875 27.09375 -1.421875 Q 22.515625 -1.421875 17.65625 -0.515625 Q 12.796875 0.390625 7.625 2.203125 L 7.625 11.71875 Q 11.71875 9.328125 16.59375 8.109375 Q 21.484375 6.890625 26.8125 6.890625 Q 36.078125 6.890625 40.9375 10.546875 Q 45.796875 14.203125 45.796875 21.1875 Q 45.796875 27.640625 41.28125 31.265625 Q 36.765625 34.90625 28.71875 34.90625 L 20.21875 34.90625 L 20.21875 43.015625 L 29.109375 43.015625 Q 36.375 43.015625 40.234375 45.921875 Q 44.09375 48.828125 44.09375 54.296875 Q 44.09375 59.90625 40.109375 62.90625 Q 36.140625 65.921875 28.71875 65.921875 Q 24.65625 65.921875 20.015625 65.03125 Q 15.375 64.15625 9.8125 62.3125 L 9.8125 71.09375 Q 15.4375 72.65625 20.34375 73.4375 Q 25.25 74.21875 29.59375 74.21875 Q 40.828125 74.21875 47.359375 69.109375 Q 53.90625 64.015625 53.90625 55.328125 Q 53.90625 49.265625 50.4375 45.09375 Q 46.96875 40.921875 40.578125 39.3125 z" id="DejaVuSans-51"/></defs><g transform="matrix(0 -.1 -.1 0 107.173 544.675)"><use xlink:href="#DejaVuSans-51"/><use x="63.623" xlink:href="#DejaVuSans-50"/></g></g></g><g id="xtick_6"><path clip-path="url(#p74d9dedb55)" d="M 117.799707 524.95 L 117.799707 26.88" fill="none" stroke="#b0b0b0" stroke-linecap="square" stroke-width=".8" id="line2d_11"/><use x="117.8" xlink:href="#mfc518bbc66" y="524.95" stroke="#000" stroke-width=".8" id="line2d_12"/><g transform="matrix(0 -.1 -.1 0 120.56 544.675)" id="text_6"><use xlink:href="#DejaVuSans-51"/><use x="63.623" xlink:href="#DejaVuSans-54"/></g></g><g id="xtick_7"><path clip-path="url(#p74d9dedb55)" d="M 131.185649 524.95 L 131.185649 26.88" fill="none" stroke="#b0b0b0" stroke-linecap="square" stroke-width=".8" id="line2d_13"/><use x="131.186" xlink:href="#mfc518bbc66" y="524.95" stroke="#000" stroke-width=".8" id="line2d_14"/><g transform="matrix(0 -.1 -.1 0 133.945 544.675)" id="text_7"><use xlink:href="#DejaVuSans-52"/><use x="63.623" xlink:href="#DejaVuSans-48"/></g></g><g id="xtick_8"><path clip-path="url(#p74d9dedb55)" d="M 144.57159 524.95 L 144.57159 26.88" fill="none" stroke="#b0b0b0" stroke-linecap="square" stroke-width=".8" id="line2d_15"/><use x="144.572" xlink:href="#mfc518bbc66" y="524.95" stroke="#000" stroke-width=".8" id="line2d_16"/><g transform="matrix(0 -.1 -.1 0 147.331 544.675)" id="text_8"><use xlink:href="#DejaVuSans-52"/><use x="63.623" xlink:href="#DejaVuSans-52"/></g></g><g id="xtick_9"><path clip-path="url(#p74d9dedb55)" d="M 157.957531 524.95 L 157.957531 26.88" fill="none" stroke="#b0b0b0" stroke-linecap="square" stroke-width=".8" id="line2d_17"/><use x="157.958" xlink:href="#mfc518bbc66" y="524.95" stroke="#000" stroke-width=".8" id="line2d_18"/><g transform="matrix(0 -.1 -.1 0 160.717 544.675)" id="text_9"><use xlink:href="#DejaVuSans-52"/><use x="63.623" xlink:href="#DejaVuSans-56"/></g></g><g id="xtick_10"><path clip-path="url(#p74d9dedb55)" d="M 171.343473 524.95 L 171.343473 26.88" fill="none" stroke="#b0b0b0" stroke-linecap="square" stroke-width=".8" id="line2d_19"/><use x="171.343" xlink:href="#mfc518bbc66" y="524.95" stroke="#000" stroke-width=".8" id="line2d_20"/><g id="text_10"><defs><path d="M 10.796875 72.90625 L 49.515625 72.90625 L 49.515625 64.59375 L 19.828125 64.59375 L 19.828125 46.734375 Q 21.96875 47.46875 24.109375 47.828125 Q 26.265625 48.1875 28.421875 48.1875 Q 40.625 48.1875 47.75 41.5 Q 54.890625 34.8125 54.890625 23.390625 Q 54.890625 11.625 47.5625 5.09375 Q 40.234375 -1.421875 26.90625 -1.421875 Q 22.3125 -1.421875 17.546875 -0.640625 Q 12.796875 0.140625 7.71875 1.703125 L 7.71875 11.625 Q 12.109375 9.234375 16.796875 8.0625 Q 21.484375 6.890625 26.703125 6.890625 Q 35.15625 6.890625 40.078125 11.328125 Q 45.015625 15.765625 45.015625 23.390625 Q 45.015625 31 40.078125 35.4375 Q 35.15625 39.890625 26.703125 39.890625 Q 22.75 39.890625 18.8125 39.015625 Q 14.890625 38.140625 10.796875 36.28125 z" id="DejaVuSans-53"/></defs><g transform="matrix(0 -.1 -.1 0 174.103 544.675)"><use xlink:href="#DejaVuSans-53"/><use x="63.623" xlink:href="#DejaVuSans-50"/></g></g></g><g id="xtick_11"><path clip-path="url(#p74d9dedb55)" d="M 184.729414 524.95 L 184.729414 26.88" fill="none" stroke="#b0b0b0" stroke-linecap="square" stroke-width=".8" id="line2d_21"/><use x="184.729" xlink:href="#mfc518bbc66" y="524.95" stroke="#000" stroke-width=".8" id="line2d_22"/><g transform="matrix(0 -.1 -.1 0 187.489 544.675)" id="text_11"><use xlink:href="#DejaVuSans-53"/><use x="63.623" xlink:href="#DejaVuSans-54"/></g></g><g id="xtick_12"><path clip-path="url(#p74d9dedb55)" d="M 198.115356 524.95 L 198.115356 26.88" fill="none" stroke="#b0b0b0" stroke-linecap="square" stroke-width=".8" id="line2d_23"/><use x="198.115" xlink:href="#mfc518bbc66" y="524.95" stroke="#000" stroke-width=".8" id="line2d_24"/><g transform="matrix(0 -.1 -.1 0 200.875 544.675)" id="text_12"><use xlink:href="#DejaVuSans-54"/><use x="63.623" xlink:href="#DejaVuSans-48"/></g></g><g id="xtick_13"><path clip-path="url(#p74d9dedb55)" d="M 211.501297 524.95 L 211.501297 26.88" fill="none" stroke="#b0b0b0" stroke-linecap="square" stroke-width=".8" id="line2d_25"/><use x="211.501" xlink:href="#mfc518bbc66" y="524.95" stroke="#000" stroke-width=".8" id="line2d_26"/><g transform="matrix(0 -.1 -.1 0 214.26 544.675)" id="text_13"><use xlink:href="#DejaVuSans-54"/><use x="63.623" xlink:href="#DejaVuSans-52"/></g></g><g id="xtick_14"><path clip-path="url(#p74d9dedb55)" d="M 224.887238 524.95 L 224.887238 26.88" fill="none" stroke="#b0b0b0" stroke-linecap="square" stroke-width=".8" id="line2d_27"/><use x="224.887" xlink:href="#mfc518bbc66" y="524.95" stroke="#000" stroke-width=".8" id="line2d_28"/><g transform="matrix(0 -.1 -.1 0 227.647 544.675)" id="text_14"><use xlink:href="#DejaVuSans-54"/><use x="63.623" xlink:href="#DejaVuSans-56"/></g></g><g id="xtick_15"><path clip-path="url(#p74d9dedb55)" d="M 238.27318 524.95 L 238.27318 26.88" fill="none" stroke="#b0b0b0" stroke-linecap="square" stroke-width=".8" id="line2d_29"/><use x="238.273" xlink:href="#mfc518bbc66" y="524.95" stroke="#000" stroke-width=".8" id="line2d_30"/><g id="text_15"><defs><path d="M 8.203125 72.90625 L 55.078125 72.90625 L 55.078125 68.703125 L 28.609375 0 L 18.3125 0 L 43.21875 64.59375 L 8.203125 64.59375 z" id="DejaVuSans-55"/></defs><g transform="matrix(0 -.1 -.1 0 241.033 544.675)"><use xlink:href="#DejaVuSans-55"/><use x="63.623" xlink:href="#DejaVuSans-50"/></g></g></g><g id="xtick_16"><path clip-path="url(#p74d9dedb55)" d="M 251.659121 524.95 L 251.659121 26.88" fill="none" stroke="#b0b0b0" stroke-linecap="square" stroke-width=".8" id="line2d_31"/><use x="251.659" xlink:href="#mfc518bbc66" y="524.95" stroke="#000" stroke-width=".8" id="line2d_32"/><g transform="matrix(0 -.1 -.1 0 254.418 544.675)" id="text_16"><use xlink:href="#DejaVuSans-55"/><use x="63.623" xlink:href="#DejaVuSans-54"/></g></g><g id="xtick_17"><path clip-path="url(#p74d9dedb55)" d="M 265.045063 524.95 L 265.045063 26.88" fill="none" stroke="#b0b0b0" stroke-linecap="square" stroke-width=".8" id="line2d_33"/><use x="265.045" xlink:href="#mfc518bbc66" y="524.95" stroke="#000" stroke-width=".8" id="line2d_34"/><g transform="matrix(0 -.1 -.1 0 267.804 544.675)" id="text_17"><use xlink:href="#DejaVuSans-56"/><use x="63.623" xlink:href="#DejaVuSans-48"/></g></g><g id="xtick_18"><path clip-path="url(#p74d9dedb55)" d="M 278.431004 524.95 L 278.431004 26.88" fill="none" stroke="#b0b0b0" stroke-linecap="square" stroke-width=".8" id="line2d_35"/><use x="278.431" xlink:href="#mfc518bbc66" y="524.95" stroke="#000" stroke-width=".8" id="line2d_36"/><g transform="matrix(0 -.1 -.1 0 281.19 544.675)" id="text_18"><use xlink:href="#DejaVuSans-56"/><use x="63.623" xlink:href="#DejaVuSans-52"/></g></g><g id="xtick_19"><path clip-path="url(#p74d9dedb55)" d="M 291.816946 524.95 L 291.816946 26.88" fill="none" stroke="#b0b0b0" stroke-linecap="square" stroke-width=".8" id="line2d_37"/><use x="291.817" xlink:href="#mfc518bbc66" y="524.95" stroke="#000" stroke-width=".8" id="line2d_38"/><g transform="matrix(0 -.1 -.1 0 294.576 544.675)" id="text_19"><use xlink:href="#DejaVuSans-56"/><use x="63.623" xlink:href="#DejaVuSans-56"/></g></g><g id="xtick_20"><path clip-path="url(#p74d9dedb55)" d="M 305.202887 524.95 L 305.202887 26.88" fill="none" stroke="#b0b0b0" stroke-linecap="square" stroke-width=".8" id="line2d_39"/><use x="305.203" xlink:href="#mfc518bbc66" y="524.95" stroke="#000" stroke-width=".8" id="line2d_40"/><g id="text_20"><defs><path d="M 10.984375 1.515625 L 10.984375 10.5 Q 14.703125 8.734375 18.5 7.8125 Q 22.3125 6.890625 25.984375 6.890625 Q 35.75 6.890625 40.890625 13.453125 Q 46.046875 20.015625 46.78125 33.40625 Q 43.953125 29.203125 39.59375 26.953125 Q 35.25 24.703125 29.984375 24.703125 Q 19.046875 24.703125 12.671875 31.3125 Q 6.296875 37.9375 6.296875 49.421875 Q 6.296875 60.640625 12.9375 67.421875 Q 19.578125 74.21875 30.609375 74.21875 Q 43.265625 74.21875 49.921875 64.515625 Q 56.59375 54.828125 56.59375 36.375 Q 56.59375 19.140625 48.40625 8.859375 Q 40.234375 -1.421875 26.421875 -1.421875 Q 22.703125 -1.421875 18.890625 -0.6875 Q 15.09375 0.046875 10.984375 1.515625 z M 30.609375 32.421875 Q 37.25 32.421875 41.125 36.953125 Q 45.015625 41.5 45.015625 49.421875 Q 45.015625 57.28125 41.125 61.84375 Q 37.25 66.40625 30.609375 66.40625 Q 23.96875 66.40625 20.09375 61.84375 Q 16.21875 57.28125 16.21875 49.421875 Q 16.21875 41.5 20.09375 36.953125 Q 23.96875 32.421875 30.609375 32.421875 z" id="DejaVuSans-57"/></defs><g transform="matrix(0 -.1 -.1 0 307.962 544.675)"><use xlink:href="#DejaVuSans-57"/><use x="63.623" xlink:href="#DejaVuSans-50"/></g></g></g><g id="xtick_21"><path clip-path="url(#p74d9dedb55)" d="M 318.588828 524.95 L 318.588828 26.88" fill="none" stroke="#b0b0b0" stroke-linecap="square" stroke-width=".8" id="line2d_41"/><use x="318.589" xlink:href="#mfc518bbc66" y="524.95" stroke="#000" stroke-width=".8" id="line2d_42"/><g transform="matrix(0 -.1 -.1 0 321.348 544.675)" id="text_21"><use xlink:href="#DejaVuSans-57"/><use x="63.623" xlink:href="#DejaVuSans-54"/></g></g><g id="xtick_22"><path clip-path="url(#p74d9dedb55)" d="M 331.97477 524.95 L 331.97477 26.88" fill="none" stroke="#b0b0b0" stroke-linecap="square" stroke-width=".8" id="line2d_43"/><use x="331.975" xlink:href="#mfc518bbc66" y="524.95" stroke="#000" stroke-width=".8" id="line2d_44"/><g transform="matrix(0 -.1 -.1 0 334.734 551.038)" id="text_22"><use xlink:href="#DejaVuSans-49"/><use x="63.623" xlink:href="#DejaVuSans-48"/><use x="127.246" xlink:href="#DejaVuSans-48"/></g></g><g id="xtick_23"><path clip-path="url(#p74d9dedb55)" d="M 345.360711 524.95 L 345.360711 26.88" fill="none" stroke="#b0b0b0" stroke-linecap="square" stroke-width=".8" id="line2d_45"/><use x="345.361" xlink:href="#mfc518bbc66" y="524.95" stroke="#000" stroke-width=".8" id="line2d_46"/><g transform="matrix(0 -.1 -.1 0 348.12 551.038)" id="text_23"><use xlink:href="#DejaVuSans-49"/><use x="63.623" xlink:href="#DejaVuSans-48"/><use x="127.246" xlink:href="#DejaVuSans-52"/></g></g><g id="xtick_24"><path clip-path="url(#p74d9dedb55)" d="M 358.746653 524.95 L 358.746653 26.88" fill="none" stroke="#b0b0b0" stroke-linecap="square" stroke-width=".8" id="line2d_47"/><use x="358.747" xlink:href="#mfc518bbc66" y="524.95" stroke="#000" stroke-width=".8" id="line2d_48"/><g transform="matrix(0 -.1 -.1 0 361.506 551.038)" id="text_24"><use xlink:href="#DejaVuSans-49"/><use x="63.623" xlink:href="#DejaVuSans-48"/><use x="127.246" xlink:href="#DejaVuSans-56"/></g></g><g id="xtick_25"><path clip-path="url(#p74d9dedb55)" d="M 372.132594 524.95 L 372.132594 26.88" fill="none" stroke="#b0b0b0" stroke-linecap="square" stroke-width=".8" id="line2d_49"/><use x="372.133" xlink:href="#mfc518bbc66" y="524.95" stroke="#000" stroke-width=".8" id="line2d_50"/><g transform="matrix(0 -.1 -.1 0 374.892 551.038)" id="text_25"><use xlink:href="#DejaVuSans-49"/><use x="63.623" xlink:href="#DejaVuSans-49"/><use x="127.246" xlink:href="#DejaVuSans-50"/></g></g><g id="xtick_26"><path clip-path="url(#p74d9dedb55)" d="M 385.518536 524.95 L 385.518536 26.88" fill="none" stroke="#b0b0b0" stroke-linecap="square" stroke-width=".8" id="line2d_51"/><use x="385.519" xlink:href="#mfc518bbc66" y="524.95" stroke="#000" stroke-width=".8" id="line2d_52"/><g transform="matrix(0 -.1 -.1 0 388.278 551.038)" id="text_26"><use xlink:href="#DejaVuSans-49"/><use x="63.623" xlink:href="#DejaVuSans-49"/><use x="127.246" xlink:href="#DejaVuSans-54"/></g></g><g id="xtick_27"><path clip-path="url(#p74d9dedb55)" d="M 398.904477 524.95 L 398.904477 26.88" fill="none" stroke="#b0b0b0" stroke-linecap="square" stroke-width=".8" id="line2d_53"/><use x="398.904" xlink:href="#mfc518bbc66" y="524.95" stroke="#000" stroke-width=".8" id="line2d_54"/><g transform="matrix(0 -.1 -.1 0 401.664 551.038)" id="text_27"><use xlink:href="#DejaVuSans-49"/><use x="63.623" xlink:href="#DejaVuSans-50"/><use x="127.246" xlink:href="#DejaVuSans-48"/></g></g><g id="xtick_28"><path clip-path="url(#p74d9dedb55)" d="M 412.290418 524.95 L 412.290418 26.88" fill="none" stroke="#b0b0b0" stroke-linecap="square" stroke-width=".8" id="line2d_55"/><use x="412.29" xlink:href="#mfc518bbc66" y="524.95" stroke="#000" stroke-width=".8" id="line2d_56"/><g transform="matrix(0 -.1 -.1 0 415.05 551.038)" id="text_28"><use xlink:href="#DejaVuSans-49"/><use x="63.623" xlink:href="#DejaVuSans-50"/><use x="127.246" xlink:href="#DejaVuSans-52"/></g></g><g id="xtick_29"><path clip-path="url(#p74d9dedb55)" d="M 425.67636 524.95 L 425.67636 26.88" fill="none" stroke="#b0b0b0" stroke-linecap="square" stroke-width=".8" id="line2d_57"/><use x="425.676" xlink:href="#mfc518bbc66" y="524.95" stroke="#000" stroke-width=".8" id="line2d_58"/><g transform="matrix(0 -.1 -.1 0 428.436 551.038)" id="text_29"><use xlink:href="#DejaVuSans-49"/><use x="63.623" xlink:href="#DejaVuSans-50"/><use x="127.246" xlink:href="#DejaVuSans-56"/></g></g><g id="xtick_30"><path clip-path="url(#p74d9dedb55)" d="M 439.062301 524.95 L 439.062301 26.88" fill="none" stroke="#b0b0b0" stroke-linecap="square" stroke-width=".8" id="line2d_59"/><use x="439.062" xlink:href="#mfc518bbc66" y="524.95" stroke="#000" stroke-width=".8" id="line2d_60"/><g transform="matrix(0 -.1 -.1 0 441.822 551.038)" id="text_30"><use xlink:href="#DejaVuSans-49"/><use x="63.623" xlink:href="#DejaVuSans-51"/><use x="127.246" xlink:href="#DejaVuSans-50"/></g></g><g id="xtick_31"><path clip-path="url(#p74d9dedb55)" d="M 452.448243 524.95 L 452.448243 26.88" fill="none" stroke="#b0b0b0" stroke-linecap="square" stroke-width=".8" id="line2d_61"/><use x="452.448" xlink:href="#mfc518bbc66" y="524.95" stroke="#000" stroke-width=".8" id="line2d_62"/><g transform="matrix(0 -.1 -.1 0 455.208 551.038)" id="text_31"><use xlink:href="#DejaVuSans-49"/><use x="63.623" xlink:href="#DejaVuSans-51"/><use x="127.246" xlink:href="#DejaVuSans-54"/></g></g><g id="xtick_32"><path clip-path="url(#p74d9dedb55)" d="M 465.834184 524.95 L 465.834184 26.88" fill="none" stroke="#b0b0b0" stroke-linecap="square" stroke-width=".8" id="line2d_63"/><use x="465.834" xlink:href="#mfc518bbc66" y="524.95" stroke="#000" stroke-width=".8" id="line2d_64"/><g transform="matrix(0 -.1 -.1 0 468.594 551.038)" id="text_32"><use xlink:href="#DejaVuSans-49"/><use x="63.623" xlink:href="#DejaVuSans-52"/><use x="127.246" xlink:href="#DejaVuSans-48"/></g></g><g id="xtick_33"><path clip-path="url(#p74d9dedb55)" d="M 479.220126 524.95 L 479.220126 26.88" fill="none" stroke="#b0b0b0" stroke-linecap="square" stroke-width=".8" id="line2d_65"/><use x="479.22" xlink:href="#mfc518bbc66" y="524.95" stroke="#000" stroke-width=".8" id="line2d_66"/><g transform="matrix(0 -.1 -.1 0 481.98 551.038)" id="text_33"><use xlink:href="#DejaVuSans-49"/><use x="63.623" xlink:href="#DejaVuSans-52"/><use x="127.246" xlink:href="#DejaVuSans-52"/></g></g><g id="xtick_34"><path clip-path="url(#p74d9dedb55)" d="M 492.606067 524.95 L 492.606067 26.88" fill="none" stroke="#b0b0b0" stroke-linecap="square" stroke-width=".8" id="line2d_67"/><use x="492.606" xlink:href="#mfc518bbc66" y="524.95" stroke="#000" stroke-width=".8" id="line2d_68"/><g transform="matrix(0 -.1 -.1 0 495.365 551.038)" id="text_34"><use xlink:href="#DejaVuSans-49"/><use x="63.623" xlink:href="#DejaVuSans-52"/><use x="127.246" xlink:href="#DejaVuSans-56"/></g></g><g id="xtick_35"><path clip-path="url(#p74d9dedb55)" d="M 505.992008 524.95 L 505.992008 26.88" fill="none" stroke="#b0b0b0" stroke-linecap="square" stroke-width=".8" id="line2d_69"/><use x="505.992" xlink:href="#mfc518bbc66" y="524.95" stroke="#000" stroke-width=".8" id="line2d_70"/><g transform="matrix(0 -.1 -.1 0 508.751 551.038)" id="text_35"><use xlink:href="#DejaVuSans-49"/><use x="63.623" xlink:href="#DejaVuSans-53"/><use x="127.246" xlink:href="#DejaVuSans-50"/></g></g><g id="xtick_36"><path clip-path="url(#p74d9dedb55)" d="M 519.37795 524.95 L 519.37795 26.88" fill="none" stroke="#b0b0b0" stroke-linecap="square" stroke-width=".8" id="line2d_71"/><use x="519.378" xlink:href="#mfc518bbc66" y="524.95" stroke="#000" stroke-width=".8" id="line2d_72"/><g transform="matrix(0 -.1 -.1 0 522.137 551.038)" id="text_36"><use xlink:href="#DejaVuSans-49"/><use x="63.623" xlink:href="#DejaVuSans-53"/><use x="127.246" xlink:href="#DejaVuSans-54"/></g></g><g id="xtick_37"><path clip-path="url(#p74d9dedb55)" d="M 532.763891 524.95 L 532.763891 26.88" fill="none" stroke="#b0b0b0" stroke-linecap="square" stroke-width=".8" id="line2d_73"/><use x="532.764" xlink:href="#mfc518bbc66" y="524.95" stroke="#000" stroke-width=".8" id="line2d_74"/><g transform="matrix(0 -.1 -.1 0 535.523 551.038)" id="text_37"><use xlink:href="#DejaVuSans-49"/><use x="63.623" xlink:href="#DejaVuSans-54"/><use x="127.246" xlink:href="#DejaVuSans-48"/></g></g><g id="xtick_38"><path clip-path="url(#p74d9dedb55)" d="M 546.149833 524.95 L 546.149833 26.88" fill="none" stroke="#b0b0b0" stroke-linecap="square" stroke-width=".8" id="line2d_75"/><use x="546.15" xlink:href="#mfc518bbc66" y="524.95" stroke="#000" stroke-width=".8" id="line2d_76"/><g transform="matrix(0 -.1 -.1 0 548.91 551.038)" id="text_38"><use xlink:href="#DejaVuSans-49"/><use x="63.623" xlink:href="#DejaVuSans-54"/><use x="127.246" xlink:href="#DejaVuSans-52"/></g></g><g id="xtick_39"><path clip-path="url(#p74d9dedb55)" d="M 559.535774 524.95 L 559.535774 26.88" fill="none" stroke="#b0b0b0" stroke-linecap="square" stroke-width=".8" id="line2d_77"/><use x="559.536" xlink:href="#mfc518bbc66" y="524.95" stroke="#000" stroke-width=".8" id="line2d_78"/><g transform="matrix(0 -.1 -.1 0 562.295 551.038)" id="text_39"><use xlink:href="#DejaVuSans-49"/><use x="63.623" xlink:href="#DejaVuSans-54"/><use x="127.246" xlink:href="#DejaVuSans-56"/></g></g><g id="xtick_40"><path clip-path="url(#p74d9dedb55)" d="M 572.921715 524.95 L 572.921715 26.88" fill="none" stroke="#b0b0b0" stroke-linecap="square" stroke-width=".8" id="line2d_79"/><use x="572.922" xlink:href="#mfc518bbc66" y="524.95" stroke="#000" stroke-width=".8" id="line2d_80"/><g transform="matrix(0 -.1 -.1 0 575.681 551.038)" id="text_40"><use xlink:href="#DejaVuSans-49"/><use x="63.623" xlink:href="#DejaVuSans-55"/><use x="127.246" xlink:href="#DejaVuSans-50"/></g></g><g id="xtick_41"><path clip-path="url(#p74d9dedb55)" d="M 586.307657 524.95 L 586.307657 26.88" fill="none" stroke="#b0b0b0" stroke-linecap="square" stroke-width=".8" id="line2d_81"/><use x="586.308" xlink:href="#mfc518bbc66" y="524.95" stroke="#000" stroke-width=".8" id="line2d_82"/><g transform="matrix(0 -.1 -.1 0 589.067 551.038)" id="text_41"><use xlink:href="#DejaVuSans-49"/><use x="63.623" xlink:href="#DejaVuSans-55"/><use x="127.246" xlink:href="#DejaVuSans-54"/></g></g><g id="xtick_42"><path clip-path="url(#p74d9dedb55)" d="M 599.693598 524.95 L 599.693598 26.88" fill="none" stroke="#b0b0b0" stroke-linecap="square" stroke-width=".8" id="line2d_83"/><use x="599.694" xlink:href="#mfc518bbc66" y="524.95" stroke="#000" stroke-width=".8" id="line2d_84"/><g transform="matrix(0 -.1 -.1 0 602.453 551.038)" id="text_42"><use xlink:href="#DejaVuSans-49"/><use x="63.623" xlink:href="#DejaVuSans-56"/><use x="127.246" xlink:href="#DejaVuSans-48"/></g></g><g id="xtick_43"><path clip-path="url(#p74d9dedb55)" d="M 613.07954 524.95 L 613.07954 26.88" fill="none" stroke="#b0b0b0" stroke-linecap="square" stroke-width=".8" id="line2d_85"/><use x="613.08" xlink:href="#mfc518bbc66" y="524.95" stroke="#000" stroke-width=".8" id="line2d_86"/><g transform="matrix(0 -.1 -.1 0 615.839 551.038)" id="text_43"><use xlink:href="#DejaVuSans-49"/><use x="63.623" xlink:href="#DejaVuSans-56"/><use x="127.246" xlink:href="#DejaVuSans-52"/></g></g><g id="xtick_44"><path clip-path="url(#p74d9dedb55)" d="M 626.465481 524.95 L 626.465481 26.88" fill="none" stroke="#b0b0b0" stroke-linecap="square" stroke-width=".8" id="line2d_87"/><use x="626.465" xlink:href="#mfc518bbc66" y="524.95" stroke="#000" stroke-width=".8" id="line2d_88"/><g transform="matrix(0 -.1 -.1 0 629.225 551.038)" id="text_44"><use xlink:href="#DejaVuSans-49"/><use x="63.623" xlink:href="#DejaVuSans-56"/><use x="127.246" xlink:href="#DejaVuSans-56"/></g></g><g id="xtick_45"><path clip-path="url(#p74d9dedb55)" d="M 639.851423 524.95 L 639.851423 26.88" fill="none" stroke="#b0b0b0" stroke-linecap="square" stroke-width=".8" id="line2d_89"/><use x="639.851" xlink:href="#mfc518bbc66" y="524.95" stroke="#000" stroke-width=".8" id="line2d_90"/><g transform="matrix(0 -.1 -.1 0 642.61 551.038)" id="text_45"><use xlink:href="#DejaVuSans-49"/><use x="63.623" xlink:href="#DejaVuSans-57"/><use x="127.246" xlink:href="#DejaVuSans-50"/></g></g><g id="xtick_46"><path clip-path="url(#p74d9dedb55)" d="M 653.237364 524.95 L 653.237364 26.88" fill="none" stroke="#b0b0b0" stroke-linecap="square" stroke-width=".8" id="line2d_91"/><use x="653.237" xlink:href="#mfc518bbc66" y="524.95" stroke="#000" stroke-width=".8" id="line2d_92"/><g transform="matrix(0 -.1 -.1 0 655.997 551.038)" id="text_46"><use xlink:href="#DejaVuSans-49"/><use x="63.623" xlink:href="#DejaVuSans-57"/><use x="127.246" xlink:href="#DejaVuSans-54"/></g></g><g id="xtick_47"><path clip-path="url(#p74d9dedb55)" d="M 666.623305 524.95 L 666.623305 26.88" fill="none" stroke="#b0b0b0" stroke-linecap="square" stroke-width=".8" id="line2d_93"/><use x="666.623" xlink:href="#mfc518bbc66" y="524.95" stroke="#000" stroke-width=".8" id="line2d_94"/><g transform="matrix(0 -.1 -.1 0 669.383 551.038)" id="text_47"><use xlink:href="#DejaVuSans-50"/><use x="63.623" xlink:href="#DejaVuSans-48"/><use x="127.246" xlink:href="#DejaVuSans-48"/></g></g><g id="xtick_48"><path clip-path="url(#p74d9dedb55)" d="M 680.009247 524.95 L 680.009247 26.88" fill="none" stroke="#b0b0b0" stroke-linecap="square" stroke-width=".8" id="line2d_95"/><use x="680.009" xlink:href="#mfc518bbc66" y="524.95" stroke="#000" stroke-width=".8" id="line2d_96"/><g transform="matrix(0 -.1 -.1 0 682.769 551.038)" id="text_48"><use xlink:href="#DejaVuSans-50"/><use x="63.623" xlink:href="#DejaVuSans-48"/><use x="127.246" xlink:href="#DejaVuSans-52"/></g></g><g id="xtick_49"><path clip-path="url(#p74d9dedb55)" d="M 693.395188 524.95 L 693.395188 26.88" fill="none" stroke="#b0b0b0" stroke-linecap="square" stroke-width=".8" id="line2d_97"/><use x="693.395" xlink:href="#mfc518bbc66" y="524.95" stroke="#000" stroke-width=".8" id="line2d_98"/><g transform="matrix(0 -.1 -.1 0 696.155 551.038)" id="text_49"><use xlink:href="#DejaVuSans-50"/><use x="63.623" xlink:href="#DejaVuSans-48"/><use x="127.246" xlink:href="#DejaVuSans-56"/></g></g><g id="xtick_50"><path clip-path="url(#p74d9dedb55)" d="M 706.78113 524.95 L 706.78113 26.88" fill="none" stroke="#b0b0b0" stroke-linecap="square" stroke-width=".8" id="line2d_99"/><use x="706.781" xlink:href="#mfc518bbc66" y="524.95" stroke="#000" stroke-width=".8" id="line2d_100"/><g transform="matrix(0 -.1 -.1 0 709.54 551.038)" id="text_50"><use xlink:href="#DejaVuSans-50"/><use x="63.623" xlink:href="#DejaVuSans-49"/><use x="127.246" xlink:href="#DejaVuSans-50"/></g></g><g id="xtick_51"><path clip-path="url(#p74d9dedb55)" d="M 720.167071 524.95 L 720.167071 26.88" fill="none" stroke="#b0b0b0" stroke-linecap="square" stroke-width=".8" id="line2d_101"/><use x="720.167" xlink:href="#mfc518bbc66" y="524.95" stroke="#000" stroke-width=".8" id="line2d_102"/><g transform="matrix(0 -.1 -.1 0 722.926 551.038)" id="text_51"><use xlink:href="#DejaVuSans-50"/><use x="63.623" xlink:href="#DejaVuSans-49"/><use x="127.246" xlink:href="#DejaVuSans-54"/></g></g><g id="xtick_52"><path clip-path="url(#p74d9dedb55)" d="M 733.553013 524.95 L 733.553013 26.88" fill="none" stroke="#b0b0b0" stroke-linecap="square" stroke-width=".8" id="line2d_103"/><use x="733.553" xlink:href="#mfc518bbc66" y="524.95" stroke="#000" stroke-width=".8" id="line2d_104"/><g transform="matrix(0 -.1 -.1 0 736.312 551.038)" id="text_52"><use xlink:href="#DejaVuSans-50"/><use x="63.623" xlink:href="#DejaVuSans-50"/><use x="127.246" xlink:href="#DejaVuSans-48"/></g></g><g id="xtick_53"><path clip-path="url(#p74d9dedb55)" d="M 746.938954 524.95 L 746.938954 26.88" fill="none" stroke="#b0b0b0" stroke-linecap="square" stroke-width=".8" id="line2d_105"/><use x="746.939" xlink:href="#mfc518bbc66" y="524.95" stroke="#000" stroke-width=".8" id="line2d_106"/><g transform="matrix(0 -.1 -.1 0 749.698 551.038)" id="text_53"><use xlink:href="#DejaVuSans-50"/><use x="63.623" xlink:href="#DejaVuSans-50"/><use x="127.246" xlink:href="#DejaVuSans-52"/></g></g><g id="xtick_54"><path clip-path="url(#p74d9dedb55)" d="M 760.324895 524.95 L 760.324895 26.88" fill="none" stroke="#b0b0b0" stroke-linecap="square" stroke-width=".8" id="line2d_107"/><use x="760.325" xlink:href="#mfc518bbc66" y="524.95" stroke="#000" stroke-width=".8" id="line2d_108"/><g transform="matrix(0 -.1 -.1 0 763.084 551.038)" id="text_54"><use xlink:href="#DejaVuSans-50"/><use x="63.623" xlink:href="#DejaVuSans-50"/><use x="127.246" xlink:href="#DejaVuSans-56"/></g></g><g id="xtick_55"><path clip-path="url(#p74d9dedb55)" d="M 773.710837 524.95 L 773.710837 26.88" fill="none" stroke="#b0b0b0" stroke-linecap="square" stroke-width=".8" id="line2d_109"/><use x="773.711" xlink:href="#mfc518bbc66" y="524.95" stroke="#000" stroke-width=".8" id="line2d_110"/><g transform="matrix(0 -.1 -.1 0 776.47 551.038)" id="text_55"><use xlink:href="#DejaVuSans-50"/><use x="63.623" xlink:href="#DejaVuSans-51"/><use x="127.246" xlink:href="#DejaVuSans-50"/></g></g><g id="xtick_56"><path clip-path="url(#p74d9dedb55)" d="M 787.096778 524.95 L 787.096778 26.88" fill="none" stroke="#b0b0b0" stroke-linecap="square" stroke-width=".8" id="line2d_111"/><use x="787.097" xlink:href="#mfc518bbc66" y="524.95" stroke="#000" stroke-width=".8" id="line2d_112"/><g transform="matrix(0 -.1 -.1 0 789.856 551.038)" id="text_56"><use xlink:href="#DejaVuSans-50"/><use x="63.623" xlink:href="#DejaVuSans-51"/><use x="127.246" xlink:href="#DejaVuSans-54"/></g></g><g id="xtick_57"><path clip-path="url(#p74d9dedb55)" d="M 800.48272 524.95 L 800.48272 26.88" fill="none" stroke="#b0b0b0" stroke-linecap="square" stroke-width=".8" id="line2d_113"/><use x="800.483" xlink:href="#mfc518bbc66" y="524.95" stroke="#000" stroke-width=".8" id="line2d_114"/><g transform="matrix(0 -.1 -.1 0 803.242 551.038)" id="text_57"><use xlink:href="#DejaVuSans-50"/><use x="63.623" xlink:href="#DejaVuSans-52"/><use x="127.246" xlink:href="#DejaVuSans-48"/></g></g><g id="xtick_58"><path clip-path="url(#p74d9dedb55)" d="M 813.868661 524.95 L 813.868661 26.88" fill="none" stroke="#b0b0b0" stroke-linecap="square" stroke-width=".8" id="line2d_115"/><use x="813.869" xlink:href="#mfc518bbc66" y="524.95" stroke="#000" stroke-width=".8" id="line2d_116"/><g transform="matrix(0 -.1 -.1 0 816.628 551.038)" id="text_58"><use xlink:href="#DejaVuSans-50"/><use x="63.623" xlink:href="#DejaVuSans-52"/><use x="127.246" xlink:href="#DejaVuSans-52"/></g></g><g id="xtick_59"><path clip-path="url(#p74d9dedb55)" d="M 827.254603 524.95 L 827.254603 26.88" fill="none" stroke="#b0b0b0" stroke-linecap="square" stroke-width=".8" id="line2d_117"/><use x="827.255" xlink:href="#mfc518bbc66" y="524.95" stroke="#000" stroke-width=".8" id="line2d_118"/><g transform="matrix(0 -.1 -.1 0 830.014 551.038)" id="text_59"><use xlink:href="#DejaVuSans-50"/><use x="63.623" xlink:href="#DejaVuSans-52"/><use x="127.246" xlink:href="#DejaVuSans-56"/></g></g><g id="xtick_60"><path clip-path="url(#p74d9dedb55)" d="M 840.640544 524.95 L 840.640544 26.88" fill="none" stroke="#b0b0b0" stroke-linecap="square" stroke-width=".8" id="line2d_119"/><use x="840.641" xlink:href="#mfc518bbc66" y="524.95" stroke="#000" stroke-width=".8" id="line2d_120"/><g transform="matrix(0 -.1 -.1 0 843.4 551.038)" id="text_60"><use xlink:href="#DejaVuSans-50"/><use x="63.623" xlink:href="#DejaVuSans-53"/><use x="127.246" xlink:href="#DejaVuSans-50"/></g></g><g id="text_61"><defs><path d="M 54.890625 33.015625 L 54.890625 0 L 45.90625 0 L 45.90625 32.71875 Q 45.90625 40.484375 42.875 44.328125 Q 39.84375 48.1875 33.796875 48.1875 Q 26.515625 48.1875 22.3125 43.546875 Q 18.109375 38.921875 18.109375 30.90625 L 18.109375 0 L 9.078125 0 L 9.078125 54.6875 L 18.109375 54.6875 L 18.109375 46.1875 Q 21.34375 51.125 25.703125 53.5625 Q 30.078125 56 35.796875 56 Q 45.21875 56 50.046875 50.171875 Q 54.890625 44.34375 54.890625 33.015625 z" id="DejaVuSans-110"/><path d="M 9.8125 72.90625 L 51.703125 72.90625 L 51.703125 64.59375 L 19.671875 64.59375 L 19.671875 43.109375 L 48.578125 43.109375 L 48.578125 34.8125 L 19.671875 34.8125 L 19.671875 0 L 9.8125 0 z" id="DejaVuSans-70"/><path d="M 9.421875 75.984375 L 18.40625 75.984375 L 18.40625 0 L 9.421875 0 z" id="DejaVuSans-108"/><path d="M 56.203125 29.59375 L 56.203125 25.203125 L 14.890625 25.203125 Q 15.484375 15.921875 20.484375 11.0625 Q 25.484375 6.203125 34.421875 6.203125 Q 39.59375 6.203125 44.453125 7.46875 Q 49.3125 8.734375 54.109375 11.28125 L 54.109375 2.78125 Q 49.265625 0.734375 44.1875 -0.34375 Q 39.109375 -1.421875 33.890625 -1.421875 Q 20.796875 -1.421875 13.15625 6.1875 Q 5.515625 13.8125 5.515625 26.8125 Q 5.515625 40.234375 12.765625 48.109375 Q 20.015625 56 32.328125 56 Q 43.359375 56 49.78125 48.890625 Q 56.203125 41.796875 56.203125 29.59375 z M 47.21875 32.234375 Q 47.125 39.59375 43.09375 43.984375 Q 39.0625 48.390625 32.421875 48.390625 Q 24.90625 48.390625 20.390625 44.140625 Q 15.875 39.890625 15.1875 32.171875 z" id="DejaVuSans-101"/><path d="M 41.109375 46.296875 Q 39.59375 47.171875 37.8125 47.578125 Q 36.03125 48 33.890625 48 Q 26.265625 48 22.1875 43.046875 Q 18.109375 38.09375 18.109375 28.8125 L 18.109375 0 L 9.078125 0 L 9.078125 54.6875 L 18.109375 54.6875 L 18.109375 46.1875 Q 20.953125 51.171875 25.484375 53.578125 Q 30.03125 56 36.53125 56 Q 37.453125 56 38.578125 55.875 Q 39.703125 55.765625 41.0625 55.515625 z" id="DejaVuSans-114"/><path d="M 9.8125 72.90625 L 19.671875 72.90625 L 19.671875 0 L 9.8125 0 z" id="DejaVuSans-73"/><path d="M 9.421875 54.6875 L 18.40625 54.6875 L 18.40625 0 L 9.421875 0 z M 9.421875 75.984375 L 18.40625 75.984375 L 18.40625 64.59375 L 9.421875 64.59375 z" id="DejaVuSans-105"/><path d="M 44.28125 53.078125 L 44.28125 44.578125 Q 40.484375 46.53125 36.375 47.5 Q 32.28125 48.484375 27.875 48.484375 Q 21.1875 48.484375 17.84375 46.4375 Q 14.5 44.390625 14.5 40.28125 Q 14.5 37.15625 16.890625 35.375 Q 19.28125 33.59375 26.515625 31.984375 L 29.59375 31.296875 Q 39.15625 29.25 43.1875 25.515625 Q 47.21875 21.78125 47.21875 15.09375 Q 47.21875 7.46875 41.1875 3.015625 Q 35.15625 -1.421875 24.609375 -1.421875 Q 20.21875 -1.421875 15.453125 -0.5625 Q 10.6875 0.296875 5.421875 2 L 5.421875 11.28125 Q 10.40625 8.6875 15.234375 7.390625 Q 20.0625 6.109375 24.8125 6.109375 Q 31.15625 6.109375 34.5625 8.28125 Q 37.984375 10.453125 37.984375 14.40625 Q 37.984375 18.0625 35.515625 20.015625 Q 33.0625 21.96875 24.703125 23.78125 L 21.578125 24.515625 Q 13.234375 26.265625 9.515625 29.90625 Q 5.8125 33.546875 5.8125 39.890625 Q 5.8125 47.609375 11.28125 51.796875 Q 16.75 56 26.8125 56 Q 31.78125 56 36.171875 55.265625 Q 40.578125 54.546875 44.28125 53.078125 z" id="DejaVuSans-115"/><path d="M 18.3125 70.21875 L 18.3125 54.6875 L 36.8125 54.6875 L 36.8125 47.703125 L 18.3125 47.703125 L 18.3125 18.015625 Q 18.3125 11.328125 20.140625 9.421875 Q 21.96875 7.515625 27.59375 7.515625 L 36.8125 7.515625 L 36.8125 0 L 27.59375 0 Q 17.1875 0 13.234375 3.875 Q 9.28125 7.765625 9.28125 18.015625 L 9.28125 47.703125 L 2.6875 47.703125 L 2.6875 54.6875 L 9.28125 54.6875 L 9.28125 70.21875 z" id="DejaVuSans-116"/><path d="M 8.5 21.578125 L 8.5 54.6875 L 17.484375 54.6875 L 17.484375 21.921875 Q 17.484375 14.15625 20.5 10.265625 Q 23.53125 6.390625 29.59375 6.390625 Q 36.859375 6.390625 41.078125 11.03125 Q 45.3125 15.671875 45.3125 23.6875 L 45.3125 54.6875 L 54.296875 54.6875 L 54.296875 0 L 45.3125 0 L 45.3125 8.40625 Q 42.046875 3.421875 37.71875 1 Q 33.40625 -1.421875 27.6875 -1.421875 Q 18.265625 -1.421875 13.375 4.4375 Q 8.5 10.296875 8.5 21.578125 z M 31.109375 56 z" id="DejaVuSans-117"/><path d="M 48.78125 52.59375 L 48.78125 44.1875 Q 44.96875 46.296875 41.140625 47.34375 Q 37.3125 48.390625 33.40625 48.390625 Q 24.65625 48.390625 19.8125 42.84375 Q 14.984375 37.3125 14.984375 27.296875 Q 14.984375 17.28125 19.8125 11.734375 Q 24.65625 6.203125 33.40625 6.203125 Q 37.3125 6.203125 41.140625 7.25 Q 44.96875 8.296875 48.78125 10.40625 L 48.78125 2.09375 Q 45.015625 0.34375 40.984375 -0.53125 Q 36.96875 -1.421875 32.421875 -1.421875 Q 20.0625 -1.421875 12.78125 6.34375 Q 5.515625 14.109375 5.515625 27.296875 Q 5.515625 40.671875 12.859375 48.328125 Q 20.21875 56 33.015625 56 Q 37.15625 56 41.109375 55.140625 Q 45.0625 54.296875 48.78125 52.59375 z" id="DejaVuSans-99"/><path d="M 30.609375 48.390625 Q 23.390625 48.390625 19.1875 42.75 Q 14.984375 37.109375 14.984375 27.296875 Q 14.984375 17.484375 19.15625 11.84375 Q 23.34375 6.203125 30.609375 6.203125 Q 37.796875 6.203125 41.984375 11.859375 Q 46.1875 17.53125 46.1875 27.296875 Q 46.1875 37.015625 41.984375 42.703125 Q 37.796875 48.390625 30.609375 48.390625 z M 30.609375 56 Q 42.328125 56 49.015625 48.375 Q 55.71875 40.765625 55.71875 27.296875 Q 55.71875 13.875 49.015625 6.21875 Q 42.328125 -1.421875 30.609375 -1.421875 Q 18.84375 -1.421875 12.171875 6.21875 Q 5.515625 13.875 5.515625 27.296875 Q 5.515625 40.765625 12.171875 48.375 Q 18.84375 56 30.609375 56 z" id="DejaVuSans-111"/></defs><g transform="matrix(.1 0 0 -.1 407.652 562.636)"><use xlink:href="#DejaVuSans-70"/><use x="57.41" xlink:href="#DejaVuSans-105"/><use x="85.193" xlink:href="#DejaVuSans-108"/><use x="112.977" xlink:href="#DejaVuSans-108"/><use x="140.76" xlink:href="#DejaVuSans-101"/><use x="202.283" xlink:href="#DejaVuSans-114"/><use x="243.396" xlink:href="#DejaVuSans-32"/><use x="275.184" xlink:href="#DejaVuSans-73"/><use x="304.676" xlink:href="#DejaVuSans-110"/><use x="368.055" xlink:href="#DejaVuSans-115"/><use x="420.154" xlink:href="#DejaVuSans-116"/><use x="459.363" xlink:href="#DejaVuSans-114"/><use x="500.477" xlink:href="#DejaVuSans-117"/><use x="563.855" xlink:href="#DejaVuSans-99"/><use x="618.836" xlink:href="#DejaVuSans-116"/><use x="658.045" xlink:href="#DejaVuSans-105"/><use x="685.828" xlink:href="#DejaVuSans-111"/><use x="747.01" xlink:href="#DejaVuSans-110"/><use x="810.389" xlink:href="#DejaVuSans-115"/></g></g></g><g id="matplotlib.axis_2"><g id="ytick_1"><path clip-path="url(#p74d9dedb55)" d="M 50.87 517.834197 L 850.68 517.834197" fill="none" stroke="#b0b0b0" stroke-linecap="square" stroke-width=".8" id="line2d_121"/><g id="line2d_122"><defs><path d="M 0 0 L -3.5 0" id="m3a24eacd0e" stroke="#000" stroke-width=".8"/></defs><use x="50.87" xlink:href="#m3a24eacd0e" y="517.834" stroke="#000" stroke-width=".8"/></g><g transform="matrix(.1 0 0 -.1 24.782 521.633)" id="text_62"><use xlink:href="#DejaVuSans-49"/><use x="63.623" xlink:href="#DejaVuSans-53"/><use x="127.246" xlink:href="#DejaVuSans-48"/></g></g><g id="ytick_2"><path clip-path="url(#p74d9dedb55)" d="M 50.87 461.260791 L 850.68 461.260791" fill="none" stroke="#b0b0b0" stroke-linecap="square" stroke-width=".8" id="line2d_123"/><use x="50.87" xlink:href="#m3a24eacd0e" y="461.261" stroke="#000" stroke-width=".8" id="line2d_124"/><g transform="matrix(.1 0 0 -.1 24.782 465.06)" id="text_63"><use xlink:href="#DejaVuSans-49"/><use x="63.623" xlink:href="#DejaVuSans-55"/><use x="127.246" xlink:href="#DejaVuSans-53"/></g></g><g id="ytick_3"><path clip-path="url(#p74d9dedb55)" d="M 50.87 404.687386 L 850.68 404.687386" fill="none" stroke="#b0b0b0" stroke-linecap="square" stroke-width=".8" id="line2d_125"/><use x="50.87" xlink:href="#m3a24eacd0e" y="404.687" stroke="#000" stroke-width=".8" id="line2d_126"/><g transform="matrix(.1 0 0 -.1 24.782 408.487)" id="text_64"><use xlink:href="#DejaVuSans-50"/><use x="63.623" xlink:href="#DejaVuSans-48"/><use x="127.246" xlink:href="#DejaVuSans-48"/></g></g><g id="ytick_4"><path clip-path="url(#p74d9dedb55)" d="M 50.87 348.11398 L 850.68 348.11398" fill="none" stroke="#b0b0b0" stroke-linecap="square" stroke-width=".8" id="line2d_127"/><use x="50.87" xlink:href="#m3a24eacd0e" y="348.114" stroke="#000" stroke-width=".8" id="line2d_128"/><g transform="matrix(.1 0 0 -.1 24.782 351.913)" id="text_65"><use xlink:href="#DejaVuSans-50"/><use x="63.623" xlink:href="#DejaVuSans-50"/><use x="127.246" xlink:href="#DejaVuSans-53"/></g></g><g id="ytick_5"><path clip-path="url(#p74d9dedb55)" d="M 50.87 291.540575 L 850.68 291.540575" fill="none" stroke="#b0b0b0" stroke-linecap="square" stroke-width=".8" id="line2d_129"/><use x="50.87" xlink:href="#m3a24eacd0e" y="291.541" stroke="#000" stroke-width=".8" id="line2d_130"/><g transform="matrix(.1 0 0 -.1 24.782 295.34)" id="text_66"><use xlink:href="#DejaVuSans-50"/><use x="63.623" xlink:href="#DejaVuSans-53"/><use x="127.246" xlink:href="#DejaVuSans-48"/></g></g><g id="ytick_6"><path clip-path="url(#p74d9dedb55)" d="M 50.87 234.967169 L 850.68 234.967169" fill="none" stroke="#b0b0b0" stroke-linecap="square" stroke-width=".8" id="line2d_131"/><use x="50.87" xlink:href="#m3a24eacd0e" y="234.967" stroke="#000" stroke-width=".8" id="line2d_132"/><g transform="matrix(.1 0 0 -.1 24.782 238.766)" id="text_67"><use xlink:href="#DejaVuSans-50"/><use x="63.623" xlink:href="#DejaVuSans-55"/><use x="127.246" xlink:href="#DejaVuSans-53"/></g></g><g id="ytick_7"><path clip-path="url(#p74d9dedb55)" d="M 50.87 178.393763 L 850.68 178.393763" fill="none" stroke="#b0b0b0" stroke-linecap="square" stroke-width=".8" id="line2d_133"/><use x="50.87" xlink:href="#m3a24eacd0e" y="178.394" stroke="#000" stroke-width=".8" id="line2d_134"/><g transform="matrix(.1 0 0 -.1 24.782 182.193)" id="text_68"><use xlink:href="#DejaVuSans-51"/><use x="63.623" xlink:href="#DejaVuSans-48"/><use x="127.246" xlink:href="#DejaVuSans-48"/></g></g><g id="ytick_8"><path clip-path="url(#p74d9dedb55)" d="M 50.87 121.820358 L 850.68 121.820358" fill="none" stroke="#b0b0b0" stroke-linecap="square" stroke-width=".8" id="line2d_135"/><use x="50.87" xlink:href="#m3a24eacd0e" y="121.82" stroke="#000" stroke-width=".8" id="line2d_136"/><g transform="matrix(.1 0 0 -.1 24.782 125.62)" id="text_69"><use xlink:href="#DejaVuSans-51"/><use x="63.623" xlink:href="#DejaVuSans-50"/><use x="127.246" xlink:href="#DejaVuSans-53"/></g></g><g id="ytick_9"><path clip-path="url(#p74d9dedb55)" d="M 50.87 65.246952 L 850.68 65.246952" fill="none" stroke="#b0b0b0" stroke-linecap="square" stroke-width=".8" id="line2d_137"/><use x="50.87" xlink:href="#m3a24eacd0e" y="65.247" stroke="#000" stroke-width=".8" id="line2d_138"/><g transform="matrix(.1 0 0 -.1 24.782 69.046)" id="text_70"><use xlink:href="#DejaVuSans-51"/><use x="63.623" xlink:href="#DejaVuSans-53"/><use x="127.246" xlink:href="#DejaVuSans-48"/></g></g><g id="text_71"><defs><path d="M 64.40625 67.28125 L 64.40625 56.890625 Q 59.421875 61.53125 53.78125 63.8125 Q 48.140625 66.109375 41.796875 66.109375 Q 29.296875 66.109375 22.65625 58.46875 Q 16.015625 50.828125 16.015625 36.375 Q 16.015625 21.96875 22.65625 14.328125 Q 29.296875 6.6875 41.796875 6.6875 Q 48.140625 6.6875 53.78125 8.984375 Q 59.421875 11.28125 64.40625 15.921875 L 64.40625 5.609375 Q 59.234375 2.09375 53.4375 0.328125 Q 47.65625 -1.421875 41.21875 -1.421875 Q 24.65625 -1.421875 15.125 8.703125 Q 5.609375 18.84375 5.609375 36.375 Q 5.609375 53.953125 15.125 64.078125 Q 24.65625 74.21875 41.21875 74.21875 Q 47.75 74.21875 53.53125 72.484375 Q 59.328125 70.75 64.40625 67.28125 z" id="DejaVuSans-67"/><path d="M 32.171875 -5.078125 Q 28.375 -14.84375 24.75 -17.8125 Q 21.140625 -20.796875 15.09375 -20.796875 L 7.90625 -20.796875 L 7.90625 -13.28125 L 13.1875 -13.28125 Q 16.890625 -13.28125 18.9375 -11.515625 Q 21 -9.765625 23.484375 -3.21875 L 25.09375 0.875 L 2.984375 54.6875 L 12.5 54.6875 L 29.59375 11.921875 L 46.6875 54.6875 L 56.203125 54.6875 z" id="DejaVuSans-121"/></defs><g transform="matrix(0 -.1 -.1 0 18.703 292.185)"><use xlink:href="#DejaVuSans-67"/><use x="69.824" xlink:href="#DejaVuSans-121"/><use x="129.004" xlink:href="#DejaVuSans-99"/><use x="183.984" xlink:href="#DejaVuSans-108"/><use x="211.768" xlink:href="#DejaVuSans-101"/><use x="273.291" xlink:href="#DejaVuSans-115"/></g></g></g><g id="line2d_139"><path clip-path="url(#p74d9dedb55)" d="M 50.87 501.495798 L 54.216485 501.654203 L 60.909456 501.654203 L 64.255941 501.76735 L 67.602427 501.541056 L 77.641883 501.586315 L 84.334854 501.518427 L 87.681339 502.038902 L 94.37431 502.174678 L 97.720795 502.310455 L 101.06728 502.152049 L 107.760251 501.314763 L 124.492678 501.495798 L 127.839163 500.567994 L 134.532134 500.567994 L 137.878619 500.545364 L 141.225105 500.70377 L 144.57159 499.866483 L 147.918075 499.775966 L 151.264561 500.024889 L 154.611046 500.092777 L 157.957531 499.300749 L 161.304017 499.323379 L 164.650502 500.138036 L 178.036444 500.115406 L 184.729414 500.205924 L 194.76887 500.205924 L 198.115356 497.85247 L 201.461841 498.689757 L 204.808326 498.780274 L 214.847782 498.644498 L 218.194268 498.757645 L 224.887238 498.644498 L 228.233724 498.644498 L 231.580209 496.44945 L 234.926695 496.539967 L 238.27318 495.227464 L 241.619665 496.132639 L 244.966151 494.277031 L 248.312636 494.028108 L 251.659121 494.209143 L 255.005607 494.141255 L 258.352092 494.752248 L 271.738033 494.955912 L 275.084519 495.408499 L 278.431004 495.36324 L 281.77749 494.254402 L 285.123975 494.186514 L 295.163431 494.503325 L 305.202887 494.367548 L 308.549372 494.435436 L 311.895858 495.770569 L 315.242343 495.544275 L 318.588828 495.634793 L 321.935314 495.612163 L 325.281799 495.770569 L 328.628285 495.657422 L 331.97477 495.72531 L 335.321255 495.589534 L 345.360711 495.702681 L 348.707197 496.404191 L 355.400167 496.494708 L 358.746653 495.544275 L 362.093138 494.344919 L 365.439623 491.357843 L 368.786109 490.04534 L 372.132594 484.682181 L 375.479079 479.613204 L 382.17205 478.640142 L 385.518536 479.273764 L 388.865021 478.436477 L 392.211506 478.006519 L 395.557992 477.28238 L 398.904477 474.363192 L 412.290418 471.398746 L 415.636904 469.656285 L 418.983389 470.222019 L 422.329874 469.407362 L 425.67636 469.158439 L 429.022845 468.321152 L 439.062301 466.397657 L 449.101757 464.677825 L 452.448243 463.953686 L 455.794728 463.998944 L 462.487699 463.025882 L 465.834184 462.505406 L 469.180669 462.301742 L 472.527155 461.871784 L 482.566611 459.925659 L 485.913096 459.473072 L 489.259582 459.246778 L 492.606067 458.635785 L 495.952552 456.35022 L 499.299038 456.644402 L 502.645523 455.28664 L 516.031464 453.046333 L 519.37795 453.13685 L 522.724435 452.503228 L 526.070921 451.756459 L 532.763891 450.692879 L 536.110377 450.036628 L 539.456862 448.746754 L 542.803347 448.316796 L 549.496318 447.321104 L 552.842803 447.705803 L 556.189289 446.664853 L 562.882259 445.488126 L 566.228745 444.605581 L 569.57523 444.447175 L 572.921715 443.904071 L 579.614686 442.998896 L 582.961172 442.320015 L 586.307657 442.795232 L 589.654142 441.957945 L 599.693598 440.192855 L 603.040084 437.318926 L 606.386569 437.454702 L 609.733054 435.983794 L 613.07954 435.485948 L 616.426025 435.508577 L 619.77251 435.033361 L 633.158452 432.408355 L 636.504937 430.733782 L 646.544393 429.398649 L 649.890879 429.466537 L 656.583849 428.176664 L 659.930335 427.769335 L 669.969791 426.117392 L 690.048703 422.858764 L 693.395188 422.179883 L 696.741674 421.342596 L 703.434644 420.16587 L 706.78113 419.8038 L 710.127615 419.305954 L 713.4741 412.969732 L 716.820586 407.470797 L 720.167071 395.952452 L 723.513556 406.859805 L 726.860042 381.809101 L 730.206527 377.011676 L 733.553013 380.813409 L 736.899498 345.964191 L 740.245983 330.055749 L 743.592469 325.303583 L 746.938954 222.905719 L 750.285439 111.81818 L 753.631925 111.81818 L 756.97841 114.330039 L 760.324895 114.465815 L 763.671381 113.719046 L 767.017866 113.538011 L 770.364351 112.904389 L 773.710837 112.791242 L 777.057322 113.809564 L 783.750293 113.130683 L 787.096778 112.406543 L 790.443264 111.840809 L 793.789749 111.976585 L 797.136234 111.320334 L 800.48272 108.831104 L 803.829205 107.722265 L 807.17569 107.56386 L 810.522176 106.658685 L 813.868661 106.47765 L 817.215146 104.938854 L 820.561632 105.119888 L 823.908117 104.71256 L 827.254603 104.078938 L 830.601088 103.30954 L 833.947573 102.94747 L 837.294059 102.449624 L 840.640544 101.137121 L 843.987029 99.055219 L 847.333515 98.127416 L 850.68 97.697458 L 850.68 97.697458" fill="none" stroke="#1f77b4" stroke-linecap="square" stroke-width="1.5"/><defs><path d="M 0 1.5 C 0.397805 1.5 0.77937 1.341951 1.06066 1.06066 C 1.341951 0.77937 1.5 0.397805 1.5 0 C 1.5 -0.397805 1.341951 -0.77937 1.06066 -1.06066 C 0.77937 -1.341951 0.397805 -1.5 0 -1.5 C -0.397805 -1.5 -0.77937 -1.341951 -1.06066 -1.06066 C -1.341951 -0.77937 -1.5 -0.397805 -1.5 0 C -1.5 0.397805 -1.341951 0.77937 -1.06066 1.06066 C -0.77937 1.341951 -0.397805 1.5 0 1.5 z" id="mfd23d3c377" stroke="#1f77b4"/></defs><g clip-path="url(#p74d9dedb55)" fill="#1f77b4" stroke="#1f77b4"><use x="50.87" xlink:href="#mfd23d3c377" y="501.496"/><use x="54.216" xlink:href="#mfd23d3c377" y="501.654"/><use x="57.563" xlink:href="#mfd23d3c377" y="501.632"/><use x="60.909" xlink:href="#mfd23d3c377" y="501.654"/><use x="64.256" xlink:href="#mfd23d3c377" y="501.767"/><use x="67.602" xlink:href="#mfd23d3c377" y="501.541"/><use x="70.949" xlink:href="#mfd23d3c377" y="501.586"/><use x="74.295" xlink:href="#mfd23d3c377" y="501.609"/><use x="77.642" xlink:href="#mfd23d3c377" y="501.586"/><use x="80.988" xlink:href="#mfd23d3c377" y="501.518"/><use x="84.335" xlink:href="#mfd23d3c377" y="501.518"/><use x="87.681" xlink:href="#mfd23d3c377" y="502.039"/><use x="91.028" xlink:href="#mfd23d3c377" y="502.062"/><use x="94.374" xlink:href="#mfd23d3c377" y="502.175"/><use x="97.721" xlink:href="#mfd23d3c377" y="502.31"/><use x="101.067" xlink:href="#mfd23d3c377" y="502.152"/><use x="104.414" xlink:href="#mfd23d3c377" y="501.722"/><use x="107.76" xlink:href="#mfd23d3c377" y="501.315"/><use x="111.107" xlink:href="#mfd23d3c377" y="501.36"/><use x="114.453" xlink:href="#mfd23d3c377" y="501.405"/><use x="117.8" xlink:href="#mfd23d3c377" y="501.36"/><use x="121.146" xlink:href="#mfd23d3c377" y="501.405"/><use x="124.493" xlink:href="#mfd23d3c377" y="501.496"/><use x="127.839" xlink:href="#mfd23d3c377" y="500.568"/><use x="131.186" xlink:href="#mfd23d3c377" y="500.613"/><use x="134.532" xlink:href="#mfd23d3c377" y="500.568"/><use x="137.879" xlink:href="#mfd23d3c377" y="500.545"/><use x="141.225" xlink:href="#mfd23d3c377" y="500.704"/><use x="144.572" xlink:href="#mfd23d3c377" y="499.866"/><use x="147.918" xlink:href="#mfd23d3c377" y="499.776"/><use x="151.265" xlink:href="#mfd23d3c377" y="500.025"/><use x="154.611" xlink:href="#mfd23d3c377" y="500.093"/><use x="157.958" xlink:href="#mfd23d3c377" y="499.301"/><use x="161.304" xlink:href="#mfd23d3c377" y="499.323"/><use x="164.651" xlink:href="#mfd23d3c377" y="500.138"/><use x="167.997" xlink:href="#mfd23d3c377" y="500.115"/><use x="171.343" xlink:href="#mfd23d3c377" y="500.138"/><use x="174.69" xlink:href="#mfd23d3c377" y="500.138"/><use x="178.036" xlink:href="#mfd23d3c377" y="500.115"/><use x="181.383" xlink:href="#mfd23d3c377" y="500.206"/><use x="184.729" xlink:href="#mfd23d3c377" y="500.206"/><use x="188.076" xlink:href="#mfd23d3c377" y="500.206"/><use x="191.422" xlink:href="#mfd23d3c377" y="500.161"/><use x="194.769" xlink:href="#mfd23d3c377" y="500.206"/><use x="198.115" xlink:href="#mfd23d3c377" y="497.852"/><use x="201.462" xlink:href="#mfd23d3c377" y="498.69"/><use x="204.808" xlink:href="#mfd23d3c377" y="498.78"/><use x="208.155" xlink:href="#mfd23d3c377" y="498.712"/><use x="211.501" xlink:href="#mfd23d3c377" y="498.667"/><use x="214.848" xlink:href="#mfd23d3c377" y="498.644"/><use x="218.194" xlink:href="#mfd23d3c377" y="498.758"/><use x="221.541" xlink:href="#mfd23d3c377" y="498.667"/><use x="224.887" xlink:href="#mfd23d3c377" y="498.644"/><use x="228.234" xlink:href="#mfd23d3c377" y="498.644"/><use x="231.58" xlink:href="#mfd23d3c377" y="496.449"/><use x="234.927" xlink:href="#mfd23d3c377" y="496.54"/><use x="238.273" xlink:href="#mfd23d3c377" y="495.227"/><use x="241.62" xlink:href="#mfd23d3c377" y="496.133"/><use x="244.966" xlink:href="#mfd23d3c377" y="494.277"/><use x="248.313" xlink:href="#mfd23d3c377" y="494.028"/><use x="251.659" xlink:href="#mfd23d3c377" y="494.209"/><use x="255.006" xlink:href="#mfd23d3c377" y="494.141"/><use x="258.352" xlink:href="#mfd23d3c377" y="494.752"/><use x="261.699" xlink:href="#mfd23d3c377" y="494.82"/><use x="265.045" xlink:href="#mfd23d3c377" y="494.82"/><use x="268.392" xlink:href="#mfd23d3c377" y="494.865"/><use x="271.738" xlink:href="#mfd23d3c377" y="494.956"/><use x="275.085" xlink:href="#mfd23d3c377" y="495.408"/><use x="278.431" xlink:href="#mfd23d3c377" y="495.363"/><use x="281.777" xlink:href="#mfd23d3c377" y="494.254"/><use x="285.124" xlink:href="#mfd23d3c377" y="494.187"/><use x="288.47" xlink:href="#mfd23d3c377" y="494.3"/><use x="291.817" xlink:href="#mfd23d3c377" y="494.39"/><use x="295.163" xlink:href="#mfd23d3c377" y="494.503"/><use x="298.51" xlink:href="#mfd23d3c377" y="494.435"/><use x="301.856" xlink:href="#mfd23d3c377" y="494.368"/><use x="305.203" xlink:href="#mfd23d3c377" y="494.368"/><use x="308.549" xlink:href="#mfd23d3c377" y="494.435"/><use x="311.896" xlink:href="#mfd23d3c377" y="495.771"/><use x="315.242" xlink:href="#mfd23d3c377" y="495.544"/><use x="318.589" xlink:href="#mfd23d3c377" y="495.635"/><use x="321.935" xlink:href="#mfd23d3c377" y="495.612"/><use x="325.282" xlink:href="#mfd23d3c377" y="495.771"/><use x="328.628" xlink:href="#mfd23d3c377" y="495.657"/><use x="331.975" xlink:href="#mfd23d3c377" y="495.725"/><use x="335.321" xlink:href="#mfd23d3c377" y="495.59"/><use x="338.668" xlink:href="#mfd23d3c377" y="495.612"/><use x="342.014" xlink:href="#mfd23d3c377" y="495.612"/><use x="345.361" xlink:href="#mfd23d3c377" y="495.703"/><use x="348.707" xlink:href="#mfd23d3c377" y="496.404"/><use x="352.054" xlink:href="#mfd23d3c377" y="496.404"/><use x="355.4" xlink:href="#mfd23d3c377" y="496.495"/><use x="358.747" xlink:href="#mfd23d3c377" y="495.544"/><use x="362.093" xlink:href="#mfd23d3c377" y="494.345"/><use x="365.44" xlink:href="#mfd23d3c377" y="491.358"/><use x="368.786" xlink:href="#mfd23d3c377" y="490.045"/><use x="372.133" xlink:href="#mfd23d3c377" y="484.682"/><use x="375.479" xlink:href="#mfd23d3c377" y="479.613"/><use x="378.826" xlink:href="#mfd23d3c377" y="479.161"/><use x="382.172" xlink:href="#mfd23d3c377" y="478.64"/><use x="385.519" xlink:href="#mfd23d3c377" y="479.274"/><use x="388.865" xlink:href="#mfd23d3c377" y="478.436"/><use x="392.212" xlink:href="#mfd23d3c377" y="478.007"/><use x="395.558" xlink:href="#mfd23d3c377" y="477.282"/><use x="398.904" xlink:href="#mfd23d3c377" y="474.363"/><use x="402.251" xlink:href="#mfd23d3c377" y="473.594"/><use x="405.597" xlink:href="#mfd23d3c377" y="472.892"/><use x="408.944" xlink:href="#mfd23d3c377" y="471.987"/><use x="412.29" xlink:href="#mfd23d3c377" y="471.399"/><use x="415.637" xlink:href="#mfd23d3c377" y="469.656"/><use x="418.983" xlink:href="#mfd23d3c377" y="470.222"/><use x="422.33" xlink:href="#mfd23d3c377" y="469.407"/><use x="425.676" xlink:href="#mfd23d3c377" y="469.158"/><use x="429.023" xlink:href="#mfd23d3c377" y="468.321"/><use x="432.369" xlink:href="#mfd23d3c377" y="467.642"/><use x="435.716" xlink:href="#mfd23d3c377" y="466.918"/><use x="439.062" xlink:href="#mfd23d3c377" y="466.398"/><use x="442.409" xlink:href="#mfd23d3c377" y="465.855"/><use x="445.755" xlink:href="#mfd23d3c377" y="465.334"/><use x="449.102" xlink:href="#mfd23d3c377" y="464.678"/><use x="452.448" xlink:href="#mfd23d3c377" y="463.954"/><use x="455.795" xlink:href="#mfd23d3c377" y="463.999"/><use x="459.141" xlink:href="#mfd23d3c377" y="463.546"/><use x="462.488" xlink:href="#mfd23d3c377" y="463.026"/><use x="465.834" xlink:href="#mfd23d3c377" y="462.505"/><use x="469.181" xlink:href="#mfd23d3c377" y="462.302"/><use x="472.527" xlink:href="#mfd23d3c377" y="461.872"/><use x="475.874" xlink:href="#mfd23d3c377" y="461.216"/><use x="479.22" xlink:href="#mfd23d3c377" y="460.446"/><use x="482.567" xlink:href="#mfd23d3c377" y="459.926"/><use x="485.913" xlink:href="#mfd23d3c377" y="459.473"/><use x="489.26" xlink:href="#mfd23d3c377" y="459.247"/><use x="492.606" xlink:href="#mfd23d3c377" y="458.636"/><use x="495.953" xlink:href="#mfd23d3c377" y="456.35"/><use x="499.299" xlink:href="#mfd23d3c377" y="456.644"/><use x="502.646" xlink:href="#mfd23d3c377" y="455.287"/><use x="505.992" xlink:href="#mfd23d3c377" y="454.721"/><use x="509.338" xlink:href="#mfd23d3c377" y="454.11"/><use x="512.685" xlink:href="#mfd23d3c377" y="453.589"/><use x="516.031" xlink:href="#mfd23d3c377" y="453.046"/><use x="519.378" xlink:href="#mfd23d3c377" y="453.137"/><use x="522.724" xlink:href="#mfd23d3c377" y="452.503"/><use x="526.071" xlink:href="#mfd23d3c377" y="451.756"/><use x="529.417" xlink:href="#mfd23d3c377" y="451.259"/><use x="532.764" xlink:href="#mfd23d3c377" y="450.693"/><use x="536.11" xlink:href="#mfd23d3c377" y="450.037"/><use x="539.457" xlink:href="#mfd23d3c377" y="448.747"/><use x="542.803" xlink:href="#mfd23d3c377" y="448.317"/><use x="546.15" xlink:href="#mfd23d3c377" y="447.774"/><use x="549.496" xlink:href="#mfd23d3c377" y="447.321"/><use x="552.843" xlink:href="#mfd23d3c377" y="447.706"/><use x="556.189" xlink:href="#mfd23d3c377" y="446.665"/><use x="559.536" xlink:href="#mfd23d3c377" y="446.054"/><use x="562.882" xlink:href="#mfd23d3c377" y="445.488"/><use x="566.229" xlink:href="#mfd23d3c377" y="444.606"/><use x="569.575" xlink:href="#mfd23d3c377" y="444.447"/><use x="572.922" xlink:href="#mfd23d3c377" y="443.904"/><use x="576.268" xlink:href="#mfd23d3c377" y="443.497"/><use x="579.615" xlink:href="#mfd23d3c377" y="442.999"/><use x="582.961" xlink:href="#mfd23d3c377" y="442.32"/><use x="586.308" xlink:href="#mfd23d3c377" y="442.795"/><use x="589.654" xlink:href="#mfd23d3c377" y="441.958"/><use x="593.001" xlink:href="#mfd23d3c377" y="441.347"/><use x="596.347" xlink:href="#mfd23d3c377" y="440.804"/><use x="599.694" xlink:href="#mfd23d3c377" y="440.193"/><use x="603.04" xlink:href="#mfd23d3c377" y="437.319"/><use x="606.387" xlink:href="#mfd23d3c377" y="437.455"/><use x="609.733" xlink:href="#mfd23d3c377" y="435.984"/><use x="613.08" xlink:href="#mfd23d3c377" y="435.486"/><use x="616.426" xlink:href="#mfd23d3c377" y="435.509"/><use x="619.773" xlink:href="#mfd23d3c377" y="435.033"/><use x="623.119" xlink:href="#mfd23d3c377" y="434.377"/><use x="626.465" xlink:href="#mfd23d3c377" y="433.63"/><use x="629.812" xlink:href="#mfd23d3c377" y="432.997"/><use x="633.158" xlink:href="#mfd23d3c377" y="432.408"/><use x="636.505" xlink:href="#mfd23d3c377" y="430.734"/><use x="639.851" xlink:href="#mfd23d3c377" y="430.304"/><use x="643.198" xlink:href="#mfd23d3c377" y="429.874"/><use x="646.544" xlink:href="#mfd23d3c377" y="429.399"/><use x="649.891" xlink:href="#mfd23d3c377" y="429.467"/><use x="653.237" xlink:href="#mfd23d3c377" y="428.765"/><use x="656.584" xlink:href="#mfd23d3c377" y="428.177"/><use x="659.93" xlink:href="#mfd23d3c377" y="427.769"/><use x="663.277" xlink:href="#mfd23d3c377" y="427.249"/><use x="666.623" xlink:href="#mfd23d3c377" y="426.66"/><use x="669.97" xlink:href="#mfd23d3c377" y="426.117"/><use x="673.316" xlink:href="#mfd23d3c377" y="425.574"/><use x="676.663" xlink:href="#mfd23d3c377" y="424.986"/><use x="680.009" xlink:href="#mfd23d3c377" y="424.465"/><use x="683.356" xlink:href="#mfd23d3c377" y="424.035"/><use x="686.702" xlink:href="#mfd23d3c377" y="423.447"/><use x="690.049" xlink:href="#mfd23d3c377" y="422.859"/><use x="693.395" xlink:href="#mfd23d3c377" y="422.18"/><use x="696.742" xlink:href="#mfd23d3c377" y="421.343"/><use x="700.088" xlink:href="#mfd23d3c377" y="420.777"/><use x="703.435" xlink:href="#mfd23d3c377" y="420.166"/><use x="706.781" xlink:href="#mfd23d3c377" y="419.804"/><use x="710.128" xlink:href="#mfd23d3c377" y="419.306"/><use x="713.474" xlink:href="#mfd23d3c377" y="412.97"/><use x="716.821" xlink:href="#mfd23d3c377" y="407.471"/><use x="720.167" xlink:href="#mfd23d3c377" y="395.952"/><use x="723.514" xlink:href="#mfd23d3c377" y="406.86"/><use x="726.86" xlink:href="#mfd23d3c377" y="381.809"/><use x="730.207" xlink:href="#mfd23d3c377" y="377.012"/><use x="733.553" xlink:href="#mfd23d3c377" y="380.813"/><use x="736.899" xlink:href="#mfd23d3c377" y="345.964"/><use x="740.246" xlink:href="#mfd23d3c377" y="330.056"/><use x="743.592" xlink:href="#mfd23d3c377" y="325.304"/><use x="746.939" xlink:href="#mfd23d3c377" y="222.906"/><use x="750.285" xlink:href="#mfd23d3c377" y="111.818"/><use x="753.632" xlink:href="#mfd23d3c377" y="111.818"/><use x="756.978" xlink:href="#mfd23d3c377" y="114.33"/><use x="760.325" xlink:href="#mfd23d3c377" y="114.466"/><use x="763.671" xlink:href="#mfd23d3c377" y="113.719"/><use x="767.018" xlink:href="#mfd23d3c377" y="113.538"/><use x="770.364" xlink:href="#mfd23d3c377" y="112.904"/><use x="773.711" xlink:href="#mfd23d3c377" y="112.791"/><use x="777.057" xlink:href="#mfd23d3c377" y="113.81"/><use x="780.404" xlink:href="#mfd23d3c377" y="113.447"/><use x="783.75" xlink:href="#mfd23d3c377" y="113.131"/><use x="787.097" xlink:href="#mfd23d3c377" y="112.407"/><use x="790.443" xlink:href="#mfd23d3c377" y="111.841"/><use x="793.79" xlink:href="#mfd23d3c377" y="111.977"/><use x="797.136" xlink:href="#mfd23d3c377" y="111.32"/><use x="800.483" xlink:href="#mfd23d3c377" y="108.831"/><use x="803.829" xlink:href="#mfd23d3c377" y="107.722"/><use x="807.176" xlink:href="#mfd23d3c377" y="107.564"/><use x="810.522" xlink:href="#mfd23d3c377" y="106.659"/><use x="813.869" xlink:href="#mfd23d3c377" y="106.478"/><use x="817.215" xlink:href="#mfd23d3c377" y="104.939"/><use x="820.562" xlink:href="#mfd23d3c377" y="105.12"/><use x="823.908" xlink:href="#mfd23d3c377" y="104.713"/><use x="827.255" xlink:href="#mfd23d3c377" y="104.079"/><use x="830.601" xlink:href="#mfd23d3c377" y="103.31"/><use x="833.948" xlink:href="#mfd23d3c377" y="102.947"/><use x="837.294" xlink:href="#mfd23d3c377" y="102.45"/><use x="840.641" xlink:href="#mfd23d3c377" y="101.137"/><use x="843.987" xlink:href="#mfd23d3c377" y="99.055"/><use x="847.334" xlink:href="#mfd23d3c377" y="98.127"/><use x="850.68" xlink:href="#mfd23d3c377" y="97.697"/></g></g><g id="line2d_140"><path clip-path="url(#p74d9dedb55)" d="M 50.87 489.117536 L 54.216485 491.425731 L 57.562971 491.493619 L 60.909456 491.878319 L 67.602427 491.900948 L 70.948912 491.991465 L 74.295397 491.629396 L 77.641883 490.814739 L 91.027824 490.905256 L 97.720795 491.674654 L 101.06728 489.434347 L 107.760251 489.524865 L 111.106736 487.691887 L 127.839163 487.91818 L 131.185649 488.551802 L 134.532134 488.551802 L 137.878619 488.167103 L 141.225105 488.053956 L 147.918075 488.189733 L 151.264561 488.121844 L 154.611046 486.107831 L 157.957531 486.628307 L 164.650502 486.650936 L 167.996987 487.080894 L 171.343473 486.990376 L 174.689958 486.718824 L 178.036444 486.583048 L 181.382929 486.062572 L 184.729414 486.130461 L 188.0759 486.039943 L 194.76887 486.085202 L 198.115356 486.673565 L 201.461841 486.673565 L 204.808326 488.008698 L 218.194268 487.737145 L 221.540753 487.805033 L 224.887238 487.759775 L 228.233724 487.397705 L 231.580209 483.098126 L 234.926695 482.826574 L 238.27318 482.849203 L 241.619665 483.528084 L 248.312636 483.822266 L 251.659121 483.641231 L 255.005607 483.66386 L 258.352092 482.26084 L 268.391548 482.328728 L 271.738033 482.577651 L 275.084519 483.030238 L 291.816946 482.984979 L 298.509916 482.871832 L 301.856402 484.0033 L 305.202887 482.871832 L 308.549372 482.803944 L 311.895858 483.528084 L 318.588828 483.573343 L 321.935314 483.460196 L 331.97477 483.482825 L 335.321255 483.867524 L 338.667741 483.392308 L 342.014226 483.098126 L 345.360711 476.648758 L 348.707197 467.936453 L 352.053682 461.32868 L 355.400167 457.39117 L 358.746653 456.938583 L 362.093138 456.169185 L 365.439623 455.829745 L 375.479079 453.86099 L 382.17205 453.679955 L 385.518536 452.865298 L 388.865021 452.390081 L 392.211506 451.507536 L 395.557992 451.281243 L 398.904477 450.624991 L 402.250962 450.172404 L 405.597448 449.403006 L 408.943933 447.072181 L 412.290418 447.321104 L 415.636904 446.732741 L 418.983389 446.868517 L 422.329874 446.257524 L 425.67636 445.827566 L 432.369331 444.334028 L 435.715816 443.609889 L 439.062301 443.044155 L 442.408787 442.636826 L 445.755272 442.998896 L 449.101757 442.455791 L 455.794728 440.73596 L 459.141213 440.170226 L 462.487699 437.205779 L 465.834184 435.576465 L 469.180669 434.626032 L 485.913096 432.114173 L 489.259582 431.50318 L 492.606067 431.322145 L 495.952552 428.65188 L 499.299038 427.656189 L 502.645523 427.882482 L 505.992008 427.226231 L 509.338494 427.678818 L 512.684979 427.24886 L 516.031464 426.456832 L 519.37795 425.800581 L 522.724435 424.804889 L 526.070921 424.42019 L 529.417406 424.307043 L 532.763891 423.537645 L 536.110377 423.492386 L 539.456862 423.33398 L 542.803347 421.863072 L 546.149833 421.025785 L 549.496318 420.437422 L 552.842803 420.007464 L 556.189289 418.898625 L 559.535774 416.183102 L 562.882259 415.345815 L 566.228745 414.734823 L 569.57523 414.689564 L 572.921715 411.453565 L 576.268201 410.819943 L 579.614686 409.733734 L 586.307657 408.579636 L 596.347113 407.086098 L 603.040084 406.746658 L 606.386569 405.524672 L 609.733054 405.25312 L 613.07954 404.619498 L 616.426025 404.166911 L 626.465481 401.926604 L 629.811967 401.949233 L 633.158452 401.179835 L 636.504937 400.681989 L 639.851423 399.754185 L 643.197908 398.622717 L 646.544393 397.966465 L 649.890879 397.80806 L 656.583849 395.997711 L 663.27682 394.481543 L 666.623305 393.417963 L 673.316276 392.173349 L 676.662762 390.815587 L 680.009247 386.538637 L 683.355732 381.899618 L 686.702218 375.676543 L 690.048703 361.872632 L 696.741674 269.884275 L 700.088159 196.768806 L 703.434644 167.486411 L 706.78113 109.623132 L 710.127615 67.532518 L 713.4741 64.952771 L 716.820586 67.238336 L 720.167071 67.555147 L 723.513556 66.03898 L 726.860042 72.510977 L 730.206527 69.161832 L 733.553013 69.637048 L 736.899498 68.120881 L 740.245983 68.573468 L 743.592469 70.813775 L 746.938954 67.600406 L 750.285439 63.459233 L 753.631925 68.50558 L 756.97841 68.392434 L 763.671381 66.785749 L 767.017866 66.174756 L 770.364351 65.67691 L 773.710837 64.884882 L 777.057322 65.744798 L 780.403808 65.111176 L 790.443264 63.753414 L 793.789749 63.165051 L 797.136234 61.332073 L 800.48272 60.811597 L 803.829205 57.892409 L 807.17569 52.687656 L 810.522176 54.927963 L 813.868661 54.792187 L 817.215146 53.25339 L 820.561632 50.175797 L 823.908117 49.519545 L 827.254603 52.438733 L 830.601088 51.239377 L 833.947573 51.420412 L 840.640544 50.76416 L 843.987029 51.895628 L 847.333515 51.601447 L 850.68 50.967825 L 850.68 50.967825" fill="none" stroke="#ff7f0e" stroke-linecap="square" stroke-width="1.5"/><defs><path d="M 0 1.5 C 0.397805 1.5 0.77937 1.341951 1.06066 1.06066 C 1.341951 0.77937 1.5 0.397805 1.5 0 C 1.5 -0.397805 1.341951 -0.77937 1.06066 -1.06066 C 0.77937 -1.341951 0.397805 -1.5 0 -1.5 C -0.397805 -1.5 -0.77937 -1.341951 -1.06066 -1.06066 C -1.341951 -0.77937 -1.5 -0.397805 -1.5 0 C -1.5 0.397805 -1.341951 0.77937 -1.06066 1.06066 C -0.77937 1.341951 -0.397805 1.5 0 1.5 z" id="mf7b048cd89" stroke="#ff7f0e"/></defs><g clip-path="url(#p74d9dedb55)" fill="#ff7f0e" stroke="#ff7f0e"><use x="50.87" xlink:href="#mf7b048cd89" y="489.118"/><use x="54.216" xlink:href="#mf7b048cd89" y="491.426"/><use x="57.563" xlink:href="#mf7b048cd89" y="491.494"/><use x="60.909" xlink:href="#mf7b048cd89" y="491.878"/><use x="64.256" xlink:href="#mf7b048cd89" y="491.856"/><use x="67.602" xlink:href="#mf7b048cd89" y="491.901"/><use x="70.949" xlink:href="#mf7b048cd89" y="491.991"/><use x="74.295" xlink:href="#mf7b048cd89" y="491.629"/><use x="77.642" xlink:href="#mf7b048cd89" y="490.815"/><use x="80.988" xlink:href="#mf7b048cd89" y="490.815"/><use x="84.335" xlink:href="#mf7b048cd89" y="490.837"/><use x="87.681" xlink:href="#mf7b048cd89" y="490.883"/><use x="91.028" xlink:href="#mf7b048cd89" y="490.905"/><use x="94.374" xlink:href="#mf7b048cd89" y="491.335"/><use x="97.721" xlink:href="#mf7b048cd89" y="491.675"/><use x="101.067" xlink:href="#mf7b048cd89" y="489.434"/><use x="104.414" xlink:href="#mf7b048cd89" y="489.48"/><use x="107.76" xlink:href="#mf7b048cd89" y="489.525"/><use x="111.107" xlink:href="#mf7b048cd89" y="487.692"/><use x="114.453" xlink:href="#mf7b048cd89" y="487.737"/><use x="117.8" xlink:href="#mf7b048cd89" y="487.828"/><use x="121.146" xlink:href="#mf7b048cd89" y="487.805"/><use x="124.493" xlink:href="#mf7b048cd89" y="487.85"/><use x="127.839" xlink:href="#mf7b048cd89" y="487.918"/><use x="131.186" xlink:href="#mf7b048cd89" y="488.552"/><use x="134.532" xlink:href="#mf7b048cd89" y="488.552"/><use x="137.879" xlink:href="#mf7b048cd89" y="488.167"/><use x="141.225" xlink:href="#mf7b048cd89" y="488.054"/><use x="144.572" xlink:href="#mf7b048cd89" y="488.122"/><use x="147.918" xlink:href="#mf7b048cd89" y="488.19"/><use x="151.265" xlink:href="#mf7b048cd89" y="488.122"/><use x="154.611" xlink:href="#mf7b048cd89" y="486.108"/><use x="157.958" xlink:href="#mf7b048cd89" y="486.628"/><use x="161.304" xlink:href="#mf7b048cd89" y="486.628"/><use x="164.651" xlink:href="#mf7b048cd89" y="486.651"/><use x="167.997" xlink:href="#mf7b048cd89" y="487.081"/><use x="171.343" xlink:href="#mf7b048cd89" y="486.99"/><use x="174.69" xlink:href="#mf7b048cd89" y="486.719"/><use x="178.036" xlink:href="#mf7b048cd89" y="486.583"/><use x="181.383" xlink:href="#mf7b048cd89" y="486.063"/><use x="184.729" xlink:href="#mf7b048cd89" y="486.13"/><use x="188.076" xlink:href="#mf7b048cd89" y="486.04"/><use x="191.422" xlink:href="#mf7b048cd89" y="486.063"/><use x="194.769" xlink:href="#mf7b048cd89" y="486.085"/><use x="198.115" xlink:href="#mf7b048cd89" y="486.674"/><use x="201.462" xlink:href="#mf7b048cd89" y="486.674"/><use x="204.808" xlink:href="#mf7b048cd89" y="488.009"/><use x="208.155" xlink:href="#mf7b048cd89" y="487.941"/><use x="211.501" xlink:href="#mf7b048cd89" y="487.918"/><use x="214.848" xlink:href="#mf7b048cd89" y="487.896"/><use x="218.194" xlink:href="#mf7b048cd89" y="487.737"/><use x="221.541" xlink:href="#mf7b048cd89" y="487.805"/><use x="224.887" xlink:href="#mf7b048cd89" y="487.76"/><use x="228.234" xlink:href="#mf7b048cd89" y="487.398"/><use x="231.58" xlink:href="#mf7b048cd89" y="483.098"/><use x="234.927" xlink:href="#mf7b048cd89" y="482.827"/><use x="238.273" xlink:href="#mf7b048cd89" y="482.849"/><use x="241.62" xlink:href="#mf7b048cd89" y="483.528"/><use x="244.966" xlink:href="#mf7b048cd89" y="483.641"/><use x="248.313" xlink:href="#mf7b048cd89" y="483.822"/><use x="251.659" xlink:href="#mf7b048cd89" y="483.641"/><use x="255.006" xlink:href="#mf7b048cd89" y="483.664"/><use x="258.352" xlink:href="#mf7b048cd89" y="482.261"/><use x="261.699" xlink:href="#mf7b048cd89" y="482.306"/><use x="265.045" xlink:href="#mf7b048cd89" y="482.329"/><use x="268.392" xlink:href="#mf7b048cd89" y="482.329"/><use x="271.738" xlink:href="#mf7b048cd89" y="482.578"/><use x="275.085" xlink:href="#mf7b048cd89" y="483.03"/><use x="278.431" xlink:href="#mf7b048cd89" y="483.03"/><use x="281.777" xlink:href="#mf7b048cd89" y="482.94"/><use x="285.124" xlink:href="#mf7b048cd89" y="482.94"/><use x="288.47" xlink:href="#mf7b048cd89" y="482.962"/><use x="291.817" xlink:href="#mf7b048cd89" y="482.985"/><use x="295.163" xlink:href="#mf7b048cd89" y="482.917"/><use x="298.51" xlink:href="#mf7b048cd89" y="482.872"/><use x="301.856" xlink:href="#mf7b048cd89" y="484.003"/><use x="305.203" xlink:href="#mf7b048cd89" y="482.872"/><use x="308.549" xlink:href="#mf7b048cd89" y="482.804"/><use x="311.896" xlink:href="#mf7b048cd89" y="483.528"/><use x="315.242" xlink:href="#mf7b048cd89" y="483.551"/><use x="318.589" xlink:href="#mf7b048cd89" y="483.573"/><use x="321.935" xlink:href="#mf7b048cd89" y="483.46"/><use x="325.282" xlink:href="#mf7b048cd89" y="483.483"/><use x="328.628" xlink:href="#mf7b048cd89" y="483.483"/><use x="331.975" xlink:href="#mf7b048cd89" y="483.483"/><use x="335.321" xlink:href="#mf7b048cd89" y="483.868"/><use x="338.668" xlink:href="#mf7b048cd89" y="483.392"/><use x="342.014" xlink:href="#mf7b048cd89" y="483.098"/><use x="345.361" xlink:href="#mf7b048cd89" y="476.649"/><use x="348.707" xlink:href="#mf7b048cd89" y="467.936"/><use x="352.054" xlink:href="#mf7b048cd89" y="461.329"/><use x="355.4" xlink:href="#mf7b048cd89" y="457.391"/><use x="358.747" xlink:href="#mf7b048cd89" y="456.939"/><use x="362.093" xlink:href="#mf7b048cd89" y="456.169"/><use x="365.44" xlink:href="#mf7b048cd89" y="455.83"/><use x="368.786" xlink:href="#mf7b048cd89" y="455.173"/><use x="372.133" xlink:href="#mf7b048cd89" y="454.563"/><use x="375.479" xlink:href="#mf7b048cd89" y="453.861"/><use x="378.826" xlink:href="#mf7b048cd89" y="453.793"/><use x="382.172" xlink:href="#mf7b048cd89" y="453.68"/><use x="385.519" xlink:href="#mf7b048cd89" y="452.865"/><use x="388.865" xlink:href="#mf7b048cd89" y="452.39"/><use x="392.212" xlink:href="#mf7b048cd89" y="451.508"/><use x="395.558" xlink:href="#mf7b048cd89" y="451.281"/><use x="398.904" xlink:href="#mf7b048cd89" y="450.625"/><use x="402.251" xlink:href="#mf7b048cd89" y="450.172"/><use x="405.597" xlink:href="#mf7b048cd89" y="449.403"/><use x="408.944" xlink:href="#mf7b048cd89" y="447.072"/><use x="412.29" xlink:href="#mf7b048cd89" y="447.321"/><use x="415.637" xlink:href="#mf7b048cd89" y="446.733"/><use x="418.983" xlink:href="#mf7b048cd89" y="446.869"/><use x="422.33" xlink:href="#mf7b048cd89" y="446.258"/><use x="425.676" xlink:href="#mf7b048cd89" y="445.828"/><use x="429.023" xlink:href="#mf7b048cd89" y="445.036"/><use x="432.369" xlink:href="#mf7b048cd89" y="444.334"/><use x="435.716" xlink:href="#mf7b048cd89" y="443.61"/><use x="439.062" xlink:href="#mf7b048cd89" y="443.044"/><use x="442.409" xlink:href="#mf7b048cd89" y="442.637"/><use x="445.755" xlink:href="#mf7b048cd89" y="442.999"/><use x="449.102" xlink:href="#mf7b048cd89" y="442.456"/><use x="452.448" xlink:href="#mf7b048cd89" y="441.641"/><use x="455.795" xlink:href="#mf7b048cd89" y="440.736"/><use x="459.141" xlink:href="#mf7b048cd89" y="440.17"/><use x="462.488" xlink:href="#mf7b048cd89" y="437.206"/><use x="465.834" xlink:href="#mf7b048cd89" y="435.576"/><use x="469.181" xlink:href="#mf7b048cd89" y="434.626"/><use x="472.527" xlink:href="#mf7b048cd89" y="434.128"/><use x="475.874" xlink:href="#mf7b048cd89" y="433.676"/><use x="479.22" xlink:href="#mf7b048cd89" y="433.087"/><use x="482.567" xlink:href="#mf7b048cd89" y="432.544"/><use x="485.913" xlink:href="#mf7b048cd89" y="432.114"/><use x="489.26" xlink:href="#mf7b048cd89" y="431.503"/><use x="492.606" xlink:href="#mf7b048cd89" y="431.322"/><use x="495.953" xlink:href="#mf7b048cd89" y="428.652"/><use x="499.299" xlink:href="#mf7b048cd89" y="427.656"/><use x="502.646" xlink:href="#mf7b048cd89" y="427.882"/><use x="505.992" xlink:href="#mf7b048cd89" y="427.226"/><use x="509.338" xlink:href="#mf7b048cd89" y="427.679"/><use x="512.685" xlink:href="#mf7b048cd89" y="427.249"/><use x="516.031" xlink:href="#mf7b048cd89" y="426.457"/><use x="519.378" xlink:href="#mf7b048cd89" y="425.801"/><use x="522.724" xlink:href="#mf7b048cd89" y="424.805"/><use x="526.071" xlink:href="#mf7b048cd89" y="424.42"/><use x="529.417" xlink:href="#mf7b048cd89" y="424.307"/><use x="532.764" xlink:href="#mf7b048cd89" y="423.538"/><use x="536.11" xlink:href="#mf7b048cd89" y="423.492"/><use x="539.457" xlink:href="#mf7b048cd89" y="423.334"/><use x="542.803" xlink:href="#mf7b048cd89" y="421.863"/><use x="546.15" xlink:href="#mf7b048cd89" y="421.026"/><use x="549.496" xlink:href="#mf7b048cd89" y="420.437"/><use x="552.843" xlink:href="#mf7b048cd89" y="420.007"/><use x="556.189" xlink:href="#mf7b048cd89" y="418.899"/><use x="559.536" xlink:href="#mf7b048cd89" y="416.183"/><use x="562.882" xlink:href="#mf7b048cd89" y="415.346"/><use x="566.229" xlink:href="#mf7b048cd89" y="414.735"/><use x="569.575" xlink:href="#mf7b048cd89" y="414.69"/><use x="572.922" xlink:href="#mf7b048cd89" y="411.454"/><use x="576.268" xlink:href="#mf7b048cd89" y="410.82"/><use x="579.615" xlink:href="#mf7b048cd89" y="409.734"/><use x="582.961" xlink:href="#mf7b048cd89" y="409.123"/><use x="586.308" xlink:href="#mf7b048cd89" y="408.58"/><use x="589.654" xlink:href="#mf7b048cd89" y="408.059"/><use x="593.001" xlink:href="#mf7b048cd89" y="407.584"/><use x="596.347" xlink:href="#mf7b048cd89" y="407.086"/><use x="599.694" xlink:href="#mf7b048cd89" y="406.928"/><use x="603.04" xlink:href="#mf7b048cd89" y="406.747"/><use x="606.387" xlink:href="#mf7b048cd89" y="405.525"/><use x="609.733" xlink:href="#mf7b048cd89" y="405.253"/><use x="613.08" xlink:href="#mf7b048cd89" y="404.619"/><use x="616.426" xlink:href="#mf7b048cd89" y="404.167"/><use x="619.773" xlink:href="#mf7b048cd89" y="403.398"/><use x="623.119" xlink:href="#mf7b048cd89" y="402.741"/><use x="626.465" xlink:href="#mf7b048cd89" y="401.927"/><use x="629.812" xlink:href="#mf7b048cd89" y="401.949"/><use x="633.158" xlink:href="#mf7b048cd89" y="401.18"/><use x="636.505" xlink:href="#mf7b048cd89" y="400.682"/><use x="639.851" xlink:href="#mf7b048cd89" y="399.754"/><use x="643.198" xlink:href="#mf7b048cd89" y="398.623"/><use x="646.544" xlink:href="#mf7b048cd89" y="397.966"/><use x="649.891" xlink:href="#mf7b048cd89" y="397.808"/><use x="653.237" xlink:href="#mf7b048cd89" y="396.858"/><use x="656.584" xlink:href="#mf7b048cd89" y="395.998"/><use x="659.93" xlink:href="#mf7b048cd89" y="395.251"/><use x="663.277" xlink:href="#mf7b048cd89" y="394.482"/><use x="666.623" xlink:href="#mf7b048cd89" y="393.418"/><use x="669.97" xlink:href="#mf7b048cd89" y="392.784"/><use x="673.316" xlink:href="#mf7b048cd89" y="392.173"/><use x="676.663" xlink:href="#mf7b048cd89" y="390.816"/><use x="680.009" xlink:href="#mf7b048cd89" y="386.539"/><use x="683.356" xlink:href="#mf7b048cd89" y="381.9"/><use x="686.702" xlink:href="#mf7b048cd89" y="375.677"/><use x="690.049" xlink:href="#mf7b048cd89" y="361.873"/><use x="693.395" xlink:href="#mf7b048cd89" y="316.297"/><use x="696.742" xlink:href="#mf7b048cd89" y="269.884"/><use x="700.088" xlink:href="#mf7b048cd89" y="196.769"/><use x="703.435" xlink:href="#mf7b048cd89" y="167.486"/><use x="706.781" xlink:href="#mf7b048cd89" y="109.623"/><use x="710.128" xlink:href="#mf7b048cd89" y="67.533"/><use x="713.474" xlink:href="#mf7b048cd89" y="64.953"/><use x="716.821" xlink:href="#mf7b048cd89" y="67.238"/><use x="720.167" xlink:href="#mf7b048cd89" y="67.555"/><use x="723.514" xlink:href="#mf7b048cd89" y="66.039"/><use x="726.86" xlink:href="#mf7b048cd89" y="72.511"/><use x="730.207" xlink:href="#mf7b048cd89" y="69.162"/><use x="733.553" xlink:href="#mf7b048cd89" y="69.637"/><use x="736.899" xlink:href="#mf7b048cd89" y="68.121"/><use x="740.246" xlink:href="#mf7b048cd89" y="68.573"/><use x="743.592" xlink:href="#mf7b048cd89" y="70.814"/><use x="746.939" xlink:href="#mf7b048cd89" y="67.6"/><use x="750.285" xlink:href="#mf7b048cd89" y="63.459"/><use x="753.632" xlink:href="#mf7b048cd89" y="68.506"/><use x="756.978" xlink:href="#mf7b048cd89" y="68.392"/><use x="760.325" xlink:href="#mf7b048cd89" y="67.555"/><use x="763.671" xlink:href="#mf7b048cd89" y="66.786"/><use x="767.018" xlink:href="#mf7b048cd89" y="66.175"/><use x="770.364" xlink:href="#mf7b048cd89" y="65.677"/><use x="773.711" xlink:href="#mf7b048cd89" y="64.885"/><use x="777.057" xlink:href="#mf7b048cd89" y="65.745"/><use x="780.404" xlink:href="#mf7b048cd89" y="65.111"/><use x="783.75" xlink:href="#mf7b048cd89" y="64.659"/><use x="787.097" xlink:href="#mf7b048cd89" y="64.183"/><use x="790.443" xlink:href="#mf7b048cd89" y="63.753"/><use x="793.79" xlink:href="#mf7b048cd89" y="63.165"/><use x="797.136" xlink:href="#mf7b048cd89" y="61.332"/><use x="800.483" xlink:href="#mf7b048cd89" y="60.812"/><use x="803.829" xlink:href="#mf7b048cd89" y="57.892"/><use x="807.176" xlink:href="#mf7b048cd89" y="52.688"/><use x="810.522" xlink:href="#mf7b048cd89" y="54.928"/><use x="813.869" xlink:href="#mf7b048cd89" y="54.792"/><use x="817.215" xlink:href="#mf7b048cd89" y="53.253"/><use x="820.562" xlink:href="#mf7b048cd89" y="50.176"/><use x="823.908" xlink:href="#mf7b048cd89" y="49.52"/><use x="827.255" xlink:href="#mf7b048cd89" y="52.439"/><use x="830.601" xlink:href="#mf7b048cd89" y="51.239"/><use x="833.948" xlink:href="#mf7b048cd89" y="51.42"/><use x="837.294" xlink:href="#mf7b048cd89" y="51.058"/><use x="840.641" xlink:href="#mf7b048cd89" y="50.764"/><use x="843.987" xlink:href="#mf7b048cd89" y="51.896"/><use x="847.334" xlink:href="#mf7b048cd89" y="51.601"/><use x="850.68" xlink:href="#mf7b048cd89" y="50.968"/></g></g><path d="M 50.87 524.95 L 50.87 26.88" fill="none" stroke="#000" stroke-linecap="square" stroke-width=".8" id="patch_3"/><path d="M 850.68 524.95 L 850.68 26.88" fill="none" stroke="#000" stroke-linecap="square" stroke-width=".8" id="patch_4"/><path d="M 50.87 524.95 L 850.68 524.95" fill="none" stroke="#000" stroke-linecap="square" stroke-width=".8" id="patch_5"/><path d="M 50.87 26.88 L 850.68 26.88" fill="none" stroke="#000" stroke-linecap="square" stroke-width=".8" id="patch_6"/><g id="text_72"><defs><path d="M -0.296875 72.90625 L 61.375 72.90625 L 61.375 64.59375 L 35.5 64.59375 L 35.5 0 L 25.59375 0 L 25.59375 64.59375 L -0.296875 64.59375 z" id="DejaVuSans-84"/><path d="M 2.984375 54.6875 L 12.5 54.6875 L 29.59375 8.796875 L 46.6875 54.6875 L 56.203125 54.6875 L 35.6875 0 L 23.484375 0 z" id="DejaVuSans-118"/></defs><g transform="matrix(.12 0 0 -.12 414.107 20.88)"><use xlink:href="#DejaVuSans-84"/><use x="60.818" xlink:href="#DejaVuSans-101"/><use x="122.342" xlink:href="#DejaVuSans-115"/><use x="174.441" xlink:href="#DejaVuSans-116"/><use x="213.65" xlink:href="#DejaVuSans-32"/><use x="245.438" xlink:href="#DejaVuSans-52"/><use x="309.061" xlink:href="#DejaVuSans-32"/><use x="340.848" xlink:href="#DejaVuSans-118"/><use x="400.027" xlink:href="#DejaVuSans-115"/><use x="452.127" xlink:href="#DejaVuSans-32"/><use x="483.914" xlink:href="#DejaVuSans-50"/><use x="547.537" xlink:href="#DejaVuSans-49"/></g></g><g id="legend_1"><path d="M 57.87 64.23625 L 127.137188 64.23625 Q 129.137188 64.23625 129.137188 62.23625 L 129.137188 33.88 Q 129.137188 31.88 127.137188 31.88 L 57.87 31.88 Q 55.87 31.88 55.87 33.88 L 55.87 62.23625 Q 55.87 64.23625 57.87 64.23625 z" fill="#fff" opacity=".8" stroke="#ccc" id="patch_7"/><path d="M 59.87 39.978437 L 79.87 39.978437" fill="none" stroke="#1f77b4" stroke-linecap="square" stroke-width="1.5" id="line2d_141"/><use x="69.87" xlink:href="#mfd23d3c377" y="39.978" fill="#1f77b4" stroke="#1f77b4" id="line2d_142"/><g transform="matrix(.1 0 0 -.1 87.87 43.478)" id="text_73"><use xlink:href="#DejaVuSans-84"/><use x="60.818" xlink:href="#DejaVuSans-101"/><use x="122.342" xlink:href="#DejaVuSans-115"/><use x="174.441" xlink:href="#DejaVuSans-116"/><use x="213.65" xlink:href="#DejaVuSans-32"/><use x="245.438" xlink:href="#DejaVuSans-52"/></g><path d="M 59.87 54.656562 L 79.87 54.656562" fill="none" stroke="#ff7f0e" stroke-linecap="square" stroke-width="1.5" id="line2d_143"/><use x="69.87" xlink:href="#mf7b048cd89" y="54.657" fill="#ff7f0e" stroke="#ff7f0e" id="line2d_144"/><g transform="matrix(.1 0 0 -.1 87.87 58.157)" id="text_74"><use xlink:href="#DejaVuSans-84"/><use x="60.818" xlink:href="#DejaVuSans-101"/><use x="122.342" xlink:href="#DejaVuSans-115"/><use x="174.441" xlink:href="#DejaVuSans-116"/><use x="213.65" xlink:href="#DejaVuSans-32"/><use x="245.438" xlink:href="#DejaVuSans-50"/><use x="309.061" xlink:href="#DejaVuSans-49"/></g></g></g></g><defs><clipPath id="p74d9dedb55"><path d="M50.87 26.88H850.68V524.95H50.87z"/></clipPath></defs></svg>