<svg height="768" viewBox="0 0 864 576" width="1152" xmlns="http://www.w3.org/2000/svg" xmlns:xlink="http://www.w3.org/1999/xlink"><defs><style>*{stroke-linecap:butt;stroke-linejoin:round}</style></defs><g id="figure_1"><path d="M 0 576 L 864 576 L 864 0 L 0 0 z" fill="#fff" id="patch_1"/><g id="axes_1"><path d="M 50.87 524.95 L 850.68 524.95 L 850.68 26.88 L 50.87 26.88 z" fill="#fff" id="patch_2"/><g id="matplotlib.axis_1"><g id="xtick_1"><path clip-path="url(#p74d9dedb55)" d="M 50.87 524.95 L 50.87 26.88" fill="none" stroke="#b0b0b0" stroke-linecap="square" stroke-width=".8" id="line2d_1"/><g id="line2d_2"><defs><path d="M 0 0 L 0 3.5" id="mfc518bbc66" stroke="#000" stroke-width=".8"/></defs><use x="50.87" xlink:href="#mfc518bbc66" y="524.95" stroke="#000" stroke-width=".8"/></g><g id="text_1"><defs><path d="M 12.40625 8.296875 L 28.515625 8.296875 L 28.515625 63.921875 L 10.984375 60.40625 L 10.984375 69.390625 L 28.421875 72.90625 L 38.28125 72.90625 L 38.28125 8.296875 L 54.390625 8.296875 L 54.390625 0 L 12.40625 0 z" id="DejaVuSans-49"/><path d="M 33.015625 40.375 Q 26.375 40.375 22.484375 35.828125 Q 18.609375 31.296875 18.609375 23.390625 Q 18.609375 15.53125 22.484375 10.953125 Q 26.375 6.390625 33.015625 6.390625 Q 39.65625 6.390625 43.53125 10.953125 Q 47.40625 15.53125 47.40625 23.390625 Q 47.40625 31.296875 43.53125 35.828125 Q 39.65625 40.375 33.015625 40.375 z M 52.59375 71.296875 L 52.59375 62.3125 Q 48.875 64.0625 45.09375 64.984375 Q 41.3125 65.921875 37.59375 65.921875 Q 27.828125 65.921875 22.671875 59.328125 Q 17.53125 52.734375 16.796875 39.40625 Q 19.671875 43.65625 24.015625 45.921875 Q 28.375 48.1875 33.59375 48.1875 Q 44.578125 48.1875 50.953125 41.515625 Q 57.328125 34.859375 57.328125 23.390625 Q 57.328125 12.15625 50.6875 5.359375 Q 44.046875 -1.421875 33.015625 -1.421875 Q 20.359375 -1.421875 13.671875 8.265625 Q 6.984375 17.96875 6.984375 36.375 Q 6.984375 53.65625 15.1875 63.9375 Q 23.390625 74.21875 37.203125 74.21875 Q 40.921875 74.21875 44.703125 73.484375 Q 48.484375 72.75 52.59375 71.296875 z" id="DejaVuSans-54"/></defs><g transform="matrix(0 -.1 -.1 0 53.63 544.675)"><use xlink:href="#DejaVuSans-49"/><use x="63.623" xlink:href="#DejaVuSans-54"/></g></g></g><g id="xtick_2"><path clip-path="url(#p74d9dedb55)" d="M 64.255941 524.95 L 64.255941 26.88" fill="none" stroke="#b0b0b0" stroke-linecap="square" stroke-width=".8" id="line2d_3"/><use x="64.256" xlink:href="#mfc518bbc66" y="524.95" stroke="#000" stroke-width=".8" id="line2d_4"/><g id="text_2"><defs><path d="M 19.1875 8.296875 L 53.609375 8.296875 L 53.609375 0 L 7.328125 0 L 7.328125 8.296875 Q 12.9375 14.109375 22.625 23.890625 Q 32.328125 33.6875 34.8125 36.53125 Q 39.546875 41.84375 41.421875 45.53125 Q 43.3125 49.21875 43.3125 52.78125 Q 43.3125 58.59375 39.234375 62.25 Q 35.15625 65.921875 28.609375 65.921875 Q 23.96875 65.921875 18.8125 64.3125 Q 13.671875 62.703125 7.8125 59.421875 L 7.8125 69.390625 Q 13.765625 71.78125 18.9375 73 Q 24.125 74.21875 28.421875 74.21875 Q 39.75 74.21875 46.484375 68.546875 Q 53.21875 62.890625 53.21875 53.421875 Q 53.21875 48.921875 51.53125 44.890625 Q 49.859375 40.875 45.40625 35.40625 Q 44.1875 33.984375 37.640625 27.21875 Q 31.109375 20.453125 19.1875 8.296875 z" id="DejaVuSans-50"/><path d="M 31.78125 66.40625 Q 24.171875 66.40625 20.328125 58.90625 Q 16.5 51.421875 16.5 36.375 Q 16.5 21.390625 20.328125 13.890625 Q 24.171875 6.390625 31.78125 6.390625 Q 39.453125 6.390625 43.28125 13.890625 Q 47.125 21.390625 47.125 36.375 Q 47.125 51.421875 43.28125 58.90625 Q 39.453125 66.40625 31.78125 66.40625 z M 31.78125 74.21875 Q 44.046875 74.21875 50.515625 64.515625 Q 56.984375 54.828125 56.984375 36.375 Q 56.984375 17.96875 50.515625 8.265625 Q 44.046875 -1.421875 31.78125 -1.421875 Q 19.53125 -1.421875 13.0625 8.265625 Q 6.59375 17.96875 6.59375 36.375 Q 6.59375 54.828125 13.0625 64.515625 Q 19.53125 74.21875 31.78125 74.21875 z" id="DejaVuSans-48"/></defs><g transform="matrix(0 -.1 -.1 0 67.015 544.675)"><use xlink:href="#DejaVuSans-50"/><use x="63.623" xlink:href="#DejaVuSans-48"/></g></g></g><g id="xtick_3"><path clip-path="url(#p74d9dedb55)" d="M 77.641883 524.95 L 77.641883 26.88" fill="none" stroke="#b0b0b0" stroke-linecap="square" stroke-width=".8" id="line2d_5"/><use x="77.642" xlink:href="#mfc518bbc66" y="524.95" stroke="#000" stroke-width=".8" id="line2d_6"/><g id="text_3"><defs><path d="M 37.796875 64.3125 L 12.890625 25.390625 L 37.796875 25.390625 z M 35.203125 72.90625 L 47.609375 72.90625 L 47.609375 25.390625 L 58.015625 25.390625 L 58.015625 17.1875 L 47.609375 17.1875 L 47.609375 0 L 37.796875 0 L 37.796875 17.1875 L 4.890625 17.1875 L 4.890625 26.703125 z" id="DejaVuSans-52"/></defs><g transform="matrix(0 -.1 -.1 0 80.401 544.675)"><use xlink:href="#DejaVuSans-50"/><use x="63.623" xlink:href="#DejaVuSans-52"/></g></g></g><g id="xtick_4"><path clip-path="url(#p74d9dedb55)" d="M 91.027824 524.95 L 91.027824 26.88" fill="none" stroke="#b0b0b0" stroke-linecap="square" stroke-width=".8" id="line2d_7"/><use x="91.028" xlink:href="#mfc518bbc66" y="524.95" stroke="#000" stroke-width=".8" id="line2d_8"/><g id="text_4"><defs><path d="M 31.78125 34.625 Q 24.75 34.625 20.71875 30.859375 Q 16.703125 27.09375 16.703125 20.515625 Q 16.703125 13.921875 20.71875 10.15625 Q 24.75 6.390625 31.78125 6.390625 Q 38.8125 6.390625 42.859375 10.171875 Q 46.921875 13.96875 46.921875 20.515625 Q 46.921875 27.09375 42.890625 30.859375 Q 38.875 34.625 31.78125 34.625 z M 21.921875 38.8125 Q 15.578125 40.375 12.03125 44.71875 Q 8.5 49.078125 8.5 55.328125 Q 8.5 64.0625 14.71875 69.140625 Q 20.953125 74.21875 31.78125 74.21875 Q 42.671875 74.21875 48.875 69.140625 Q 55.078125 64.0625 55.078125 55.328125 Q 55.078125 49.078125 51.53125 44.71875 Q 48 40.375 41.703125 38.8125 Q 48.828125 37.15625 52.796875 32.3125 Q 56.78125 27.484375 56.78125 20.515625 Q 56.78125 9.90625 50.3125 4.234375 Q 43.84375 -1.421875 31.78125 -1.421875 Q 19.734375 -1.421875 13.25 4.234375 Q 6.78125 9.90625 6.78125 20.515625 Q 6.78125 27.484375 10.78125 32.3125 Q 14.796875 37.15625 21.921875 38.8125 z M 18.3125 54.390625 Q 18.3125 48.734375 21.84375 45.5625 Q 25.390625 42.390625 31.78125 42.390625 Q 38.140625 42.390625 41.71875 45.5625 Q 45.3125 48.734375 45.3125 54.390625 Q 45.3125 60.0625 41.71875 63.234375 Q 38.140625 66.40625 31.78125 66.40625 Q 25.390625 66.40625 21.84375 63.234375 Q 18.3125 60.0625 18.3125 54.390625 z" id="DejaVuSans-56"/></defs><g transform="matrix(0 -.1 -.1 0 93.787 544.675)"><use xlink:href="#DejaVuSans-50"/><use x="63.623" xlink:href="#DejaVuSans-56"/></g></g></g><g id="xtick_5"><path clip-path="url(#p74d9dedb55)" d="M 104.413766 524.95 L 104.413766 26.88" fill="none" stroke="#b0b0b0" stroke-linecap="square" stroke-width=".8" id="line2d_9"/><use x="104.414" xlink:href="#mfc518bbc66" y="524.95" stroke="#000" stroke-width=".8" id="line2d_10"/><g id="text_5"><defs><path d="M 40.578125 39.3125 Q 47.65625 37.796875 51.625 33 Q 55.609375 28.21875 55.609375 21.1875 Q 55.609375 10.40625 48.1875 4.484375 Q 40.765625 -1.421875 27.09375 -1.421875 Q 22.515625 -1.421875 17.65625 -0.515625 Q 12.796875 0.390625 7.625 2.203125 L 7.625 11.71875 Q 11.71875 9.328125 16.59375 8.109375 Q 21.484375 6.890625 26.8125 6.890625 Q 36.078125 6.890625 40.9375 10.546875 Q 45.796875 14.203125 45.796875 21.1875 Q 45.796875 27.640625 41.28125 31.265625 Q 36.765625 34.90625 28.71875 34.90625 L 20.21875 34.90625 L 20.21875 43.015625 L 29.109375 43.015625 Q 36.375 43.015625 40.234375 45.921875 Q 44.09375 48.828125 44.09375 54.296875 Q 44.09375 59.90625 40.109375 62.90625 Q 36.140625 65.921875 28.71875 65.921875 Q 24.65625 65.921875 20.015625 65.03125 Q 15.375 64.15625 9.8125 62.3125 L 9.8125 71.09375 Q 15.4375 72.65625 20.34375 73.4375 Q 25.25 74.21875 29.59375 74.21875 Q 40.828125 74.21875 47.359375 69.109375 Q 53.90625 64.015625 53.90625 55.328125 Q 53.90625 49.265625 50.4375 45.09375 Q 46.96875 40.921875 40.578125 39.3125 z" id="DejaVuSans-51"/></defs><g transform="matrix(0 -.1 -.1 0 107.173 544.675)"><use xlink:href="#DejaVuSans-51"/><use x="63.623" xlink:href="#DejaVuSans-50"/></g></g></g><g id="xtick_6"><path clip-path="url(#p74d9dedb55)" d="M 117.799707 524.95 L 117.799707 26.88" fill="none" stroke="#b0b0b0" stroke-linecap="square" stroke-width=".8" id="line2d_11"/><use x="117.8" xlink:href="#mfc518bbc66" y="524.95" stroke="#000" stroke-width=".8" id="line2d_12"/><g transform="matrix(0 -.1 -.1 0 120.56 544.675)" id="text_6"><use xlink:href="#DejaVuSans-51"/><use x="63.623" xlink:href="#DejaVuSans-54"/></g></g><g id="xtick_7"><path clip-path="url(#p74d9dedb55)" d="M 131.185649 524.95 L 131.185649 26.88" fill="none" stroke="#b0b0b0" stroke-linecap="square" stroke-width=".8" id="line2d_13"/><use x="131.186" xlink:href="#mfc518bbc66" y="524.95" stroke="#000" stroke-width=".8" id="line2d_14"/><g transform="matrix(0 -.1 -.1 0 133.945 544.675)" id="text_7"><use xlink:href="#DejaVuSans-52"/><use x="63.623" xlink:href="#DejaVuSans-48"/></g></g><g id="xtick_8"><path clip-path="url(#p74d9dedb55)" d="M 144.57159 524.95 L 144.57159 26.88" fill="none" stroke="#b0b0b0" stroke-linecap="square" stroke-width=".8" id="line2d_15"/><use x="144.572" xlink:href="#mfc518bbc66" y="524.95" stroke="#000" stroke-width=".8" id="line2d_16"/><g transform="matrix(0 -.1 -.1 0 147.331 544.675)" id="text_8"><use xlink:href="#DejaVuSans-52"/><use x="63.623" xlink:href="#DejaVuSans-52"/></g></g><g id="xtick_9"><path clip-path="url(#p74d9dedb55)" d="M 157.957531 524.95 L 157.957531 26.88" fill="none" stroke="#b0b0b0" stroke-linecap="square" stroke-width=".8" id="line2d_17"/><use x="157.958" xlink:href="#mfc518bbc66" y="524.95" stroke="#000" stroke-width=".8" id="line2d_18"/><g transform="matrix(0 -.1 -.1 0 160.717 544.675)" id="text_9"><use xlink:href="#DejaVuSans-52"/><use x="63.623" xlink:href="#DejaVuSans-56"/></g></g><g id="xtick_10"><path clip-path="url(#p74d9dedb55)" d="M 171.343473 524.95 L 171.343473 26.88" fill="none" stroke="#b0b0b0" stroke-linecap="square" stroke-width=".8" id="line2d_19"/><use x="171.343" xlink:href="#mfc518bbc66" y="524.95" stroke="#000" stroke-width=".8" id="line2d_20"/><g id="text_10"><defs><path d="M 10.796875 72.90625 L 49.515625 72.90625 L 49.515625 64.59375 L 19.828125 64.59375 L 19.828125 46.734375 Q 21.96875 47.46875 24.109375 47.828125 Q 26.265625 48.1875 28.421875 48.1875 Q 40.625 48.1875 47.75 41.5 Q 54.890625 34.8125 54.890625 23.390625 Q 54.890625 11.625 47.5625 5.09375 Q 40.234375 -1.421875 26.90625 -1.421875 Q 22.3125 -1.421875 17.546875 -0.640625 Q 12.796875 0.140625 7.71875 1.703125 L 7.71875 11.625 Q 12.109375 9.234375 16.796875 8.0625 Q 21.484375 6.890625 26.703125 6.890625 Q 35.15625 6.890625 40.078125 11.328125 Q 45.015625 15.765625 45.015625 23.390625 Q 45.015625 31 40.078125 35.4375 Q 35.15625 39.890625 26.703125 39.890625 Q 22.75 39.890625 18.8125 39.015625 Q 14.890625 38.140625 10.796875 36.28125 z" id="DejaVuSans-53"/></defs><g transform="matrix(0 -.1 -.1 0 174.103 544.675)"><use xlink:href="#DejaVuSans-53"/><use x="63.623" xlink:href="#DejaVuSans-50"/></g></g></g><g id="xtick_11"><path clip-path="url(#p74d9dedb55)" d="M 184.729414 524.95 L 184.729414 26.88" fill="none" stroke="#b0b0b0" stroke-linecap="square" stroke-width=".8" id="line2d_21"/><use x="184.729" xlink:href="#mfc518bbc66" y="524.95" stroke="#000" stroke-width=".8" id="line2d_22"/><g transform="matrix(0 -.1 -.1 0 187.489 544.675)" id="text_11"><use xlink:href="#DejaVuSans-53"/><use x="63.623" xlink:href="#DejaVuSans-54"/></g></g><g id="xtick_12"><path clip-path="url(#p74d9dedb55)" d="M 198.115356 524.95 L 198.115356 26.88" fill="none" stroke="#b0b0b0" stroke-linecap="square" stroke-width=".8" id="line2d_23"/><use x="198.115" xlink:href="#mfc518bbc66" y="524.95" stroke="#000" stroke-width=".8" id="line2d_24"/><g transform="matrix(0 -.1 -.1 0 200.875 544.675)" id="text_12"><use xlink:href="#DejaVuSans-54"/><use x="63.623" xlink:href="#DejaVuSans-48"/></g></g><g id="xtick_13"><path clip-path="url(#p74d9dedb55)" d="M 211.501297 524.95 L 211.501297 26.88" fill="none" stroke="#b0b0b0" stroke-linecap="square" stroke-width=".8" id="line2d_25"/><use x="211.501" xlink:href="#mfc518bbc66" y="524.95" stroke="#000" stroke-width=".8" id="line2d_26"/><g transform="matrix(0 -.1 -.1 0 214.26 544.675)" id="text_13"><use xlink:href="#DejaVuSans-54"/><use x="63.623" xlink:href="#DejaVuSans-52"/></g></g><g id="xtick_14"><path clip-path="url(#p74d9dedb55)" d="M 224.887238 524.95 L 224.887238 26.88" fill="none" stroke="#b0b0b0" stroke-linecap="square" stroke-width=".8" id="line2d_27"/><use x="224.887" xlink:href="#mfc518bbc66" y="524.95" stroke="#000" stroke-width=".8" id="line2d_28"/><g transform="matrix(0 -.1 -.1 0 227.647 544.675)" id="text_14"><use xlink:href="#DejaVuSans-54"/><use x="63.623" xlink:href="#DejaVuSans-56"/></g></g><g id="xtick_15"><path clip-path="url(#p74d9dedb55)" d="M 238.27318 524.95 L 238.27318 26.88" fill="none" stroke="#b0b0b0" stroke-linecap="square" stroke-width=".8" id="line2d_29"/><use x="238.273" xlink:href="#mfc518bbc66" y="524.95" stroke="#000" stroke-width=".8" id="line2d_30"/><g id="text_15"><defs><path d="M 8.203125 72.90625 L 55.078125 72.90625 L 55.078125 68.703125 L 28.609375 0 L 18.3125 0 L 43.21875 64.59375 L 8.203125 64.59375 z" id="DejaVuSans-55"/></defs><g transform="matrix(0 -.1 -.1 0 241.033 544.675)"><use xlink:href="#DejaVuSans-55"/><use x="63.623" xlink:href="#DejaVuSans-50"/></g></g></g><g id="xtick_16"><path clip-path="url(#p74d9dedb55)" d="M 251.659121 524.95 L 251.659121 26.88" fill="none" stroke="#b0b0b0" stroke-linecap="square" stroke-width=".8" id="line2d_31"/><use x="251.659" xlink:href="#mfc518bbc66" y="524.95" stroke="#000" stroke-width=".8" id="line2d_32"/><g transform="matrix(0 -.1 -.1 0 254.418 544.675)" id="text_16"><use xlink:href="#DejaVuSans-55"/><use x="63.623" xlink:href="#DejaVuSans-54"/></g></g><g id="xtick_17"><path clip-path="url(#p74d9dedb55)" d="M 265.045063 524.95 L 265.045063 26.88" fill="none" stroke="#b0b0b0" stroke-linecap="square" stroke-width=".8" id="line2d_33"/><use x="265.045" xlink:href="#mfc518bbc66" y="524.95" stroke="#000" stroke-width=".8" id="line2d_34"/><g transform="matrix(0 -.1 -.1 0 267.804 544.675)" id="text_17"><use xlink:href="#DejaVuSans-56"/><use x="63.623" xlink:href="#DejaVuSans-48"/></g></g><g id="xtick_18"><path clip-path="url(#p74d9dedb55)" d="M 278.431004 524.95 L 278.431004 26.88" fill="none" stroke="#b0b0b0" stroke-linecap="square" stroke-width=".8" id="line2d_35"/><use x="278.431" xlink:href="#mfc518bbc66" y="524.95" stroke="#000" stroke-width=".8" id="line2d_36"/><g transform="matrix(0 -.1 -.1 0 281.19 544.675)" id="text_18"><use xlink:href="#DejaVuSans-56"/><use x="63.623" xlink:href="#DejaVuSans-52"/></g></g><g id="xtick_19"><path clip-path="url(#p74d9dedb55)" d="M 291.816946 524.95 L 291.816946 26.88" fill="none" stroke="#b0b0b0" stroke-linecap="square" stroke-width=".8" id="line2d_37"/><use x="291.817" xlink:href="#mfc518bbc66" y="524.95" stroke="#000" stroke-width=".8" id="line2d_38"/><g transform="matrix(0 -.1 -.1 0 294.576 544.675)" id="text_19"><use xlink:href="#DejaVuSans-56"/><use x="63.623" xlink:href="#DejaVuSans-56"/></g></g><g id="xtick_20"><path clip-path="url(#p74d9dedb55)" d="M 305.202887 524.95 L 305.202887 26.88" fill="none" stroke="#b0b0b0" stroke-linecap="square" stroke-width=".8" id="line2d_39"/><use x="305.203" xlink:href="#mfc518bbc66" y="524.95" stroke="#000" stroke-width=".8" id="line2d_40"/><g id="text_20"><defs><path d="M 10.984375 1.515625 L 10.984375 10.5 Q 14.703125 8.734375 18.5 7.8125 Q 22.3125 6.890625 25.984375 6.890625 Q 35.75 6.890625 40.890625 13.453125 Q 46.046875 20.015625 46.78125 33.40625 Q 43.953125 29.203125 39.59375 26.953125 Q 35.25 24.703125 29.984375 24.703125 Q 19.046875 24.703125 12.671875 31.3125 Q 6.296875 37.9375 6.296875 49.421875 Q 6.296875 60.640625 12.9375 67.421875 Q 19.578125 74.21875 30.609375 74.21875 Q 43.265625 74.21875 49.921875 64.515625 Q 56.59375 54.828125 56.59375 36.375 Q 56.59375 19.140625 48.40625 8.859375 Q 40.234375 -1.421875 26.421875 -1.421875 Q 22.703125 -1.421875 18.890625 -0.6875 Q 15.09375 0.046875 10.984375 1.515625 z M 30.609375 32.421875 Q 37.25 32.421875 41.125 36.953125 Q 45.015625 41.5 45.015625 49.421875 Q 45.015625 57.28125 41.125 61.84375 Q 37.25 66.40625 30.609375 66.40625 Q 23.96875 66.40625 20.09375 61.84375 Q 16.21875 57.28125 16.21875 49.421875 Q 16.21875 41.5 20.09375 36.953125 Q 23.96875 32.421875 30.609375 32.421875 z" id="DejaVuSans-57"/></defs><g transform="matrix(0 -.1 -.1 0 307.962 544.675)"><use xlink:href="#DejaVuSans-57"/><use x="63.623" xlink:href="#DejaVuSans-50"/></g></g></g><g id="xtick_21"><path clip-path="url(#p74d9dedb55)" d="M 318.588828 524.95 L 318.588828 26.88" fill="none" stroke="#b0b0b0" stroke-linecap="square" stroke-width=".8" id="line2d_41"/><use x="318.589" xlink:href="#mfc518bbc66" y="524.95" stroke="#000" stroke-width=".8" id="line2d_42"/><g transform="matrix(0 -.1 -.1 0 321.348 544.675)" id="text_21"><use xlink:href="#DejaVuSans-57"/><use x="63.623" xlink:href="#DejaVuSans-54"/></g></g><g id="xtick_22"><path clip-path="url(#p74d9dedb55)" d="M 331.97477 524.95 L 331.97477 26.88" fill="none" stroke="#b0b0b0" stroke-linecap="square" stroke-width=".8" id="line2d_43"/><use x="331.975" xlink:href="#mfc518bbc66" y="524.95" stroke="#000" stroke-width=".8" id="line2d_44"/><g transform="matrix(0 -.1 -.1 0 334.734 551.038)" id="text_22"><use xlink:href="#DejaVuSans-49"/><use x="63.623" xlink:href="#DejaVuSans-48"/><use x="127.246" xlink:href="#DejaVuSans-48"/></g></g><g id="xtick_23"><path clip-path="url(#p74d9dedb55)" d="M 345.360711 524.95 L 345.360711 26.88" fill="none" stroke="#b0b0b0" stroke-linecap="square" stroke-width=".8" id="line2d_45"/><use x="345.361" xlink:href="#mfc518bbc66" y="524.95" stroke="#000" stroke-width=".8" id="line2d_46"/><g transform="matrix(0 -.1 -.1 0 348.12 551.038)" id="text_23"><use xlink:href="#DejaVuSans-49"/><use x="63.623" xlink:href="#DejaVuSans-48"/><use x="127.246" xlink:href="#DejaVuSans-52"/></g></g><g id="xtick_24"><path clip-path="url(#p74d9dedb55)" d="M 358.746653 524.95 L 358.746653 26.88" fill="none" stroke="#b0b0b0" stroke-linecap="square" stroke-width=".8" id="line2d_47"/><use x="358.747" xlink:href="#mfc518bbc66" y="524.95" stroke="#000" stroke-width=".8" id="line2d_48"/><g transform="matrix(0 -.1 -.1 0 361.506 551.038)" id="text_24"><use xlink:href="#DejaVuSans-49"/><use x="63.623" xlink:href="#DejaVuSans-48"/><use x="127.246" xlink:href="#DejaVuSans-56"/></g></g><g id="xtick_25"><path clip-path="url(#p74d9dedb55)" d="M 372.132594 524.95 L 372.132594 26.88" fill="none" stroke="#b0b0b0" stroke-linecap="square" stroke-width=".8" id="line2d_49"/><use x="372.133" xlink:href="#mfc518bbc66" y="524.95" stroke="#000" stroke-width=".8" id="line2d_50"/><g transform="matrix(0 -.1 -.1 0 374.892 551.038)" id="text_25"><use xlink:href="#DejaVuSans-49"/><use x="63.623" xlink:href="#DejaVuSans-49"/><use x="127.246" xlink:href="#DejaVuSans-50"/></g></g><g id="xtick_26"><path clip-path="url(#p74d9dedb55)" d="M 385.518536 524.95 L 385.518536 26.88" fill="none" stroke="#b0b0b0" stroke-linecap="square" stroke-width=".8" id="line2d_51"/><use x="385.519" xlink:href="#mfc518bbc66" y="524.95" stroke="#000" stroke-width=".8" id="line2d_52"/><g transform="matrix(0 -.1 -.1 0 388.278 551.038)" id="text_26"><use xlink:href="#DejaVuSans-49"/><use x="63.623" xlink:href="#DejaVuSans-49"/><use x="127.246" xlink:href="#DejaVuSans-54"/></g></g><g id="xtick_27"><path clip-path="url(#p74d9dedb55)" d="M 398.904477 524.95 L 398.904477 26.88" fill="none" stroke="#b0b0b0" stroke-linecap="square" stroke-width=".8" id="line2d_53"/><use x="398.904" xlink:href="#mfc518bbc66" y="524.95" stroke="#000" stroke-width=".8" id="line2d_54"/><g transform="matrix(0 -.1 -.1 0 401.664 551.038)" id="text_27"><use xlink:href="#DejaVuSans-49"/><use x="63.623" xlink:href="#DejaVuSans-50"/><use x="127.246" xlink:href="#DejaVuSans-48"/></g></g><g id="xtick_28"><path clip-path="url(#p74d9dedb55)" d="M 412.290418 524.95 L 412.290418 26.88" fill="none" stroke="#b0b0b0" stroke-linecap="square" stroke-width=".8" id="line2d_55"/><use x="412.29" xlink:href="#mfc518bbc66" y="524.95" stroke="#000" stroke-width=".8" id="line2d_56"/><g transform="matrix(0 -.1 -.1 0 415.05 551.038)" id="text_28"><use xlink:href="#DejaVuSans-49"/><use x="63.623" xlink:href="#DejaVuSans-50"/><use x="127.246" xlink:href="#DejaVuSans-52"/></g></g><g id="xtick_29"><path clip-path="url(#p74d9dedb55)" d="M 425.67636 524.95 L 425.67636 26.88" fill="none" stroke="#b0b0b0" stroke-linecap="square" stroke-width=".8" id="line2d_57"/><use x="425.676" xlink:href="#mfc518bbc66" y="524.95" stroke="#000" stroke-width=".8" id="line2d_58"/><g transform="matrix(0 -.1 -.1 0 428.436 551.038)" id="text_29"><use xlink:href="#DejaVuSans-49"/><use x="63.623" xlink:href="#DejaVuSans-50"/><use x="127.246" xlink:href="#DejaVuSans-56"/></g></g><g id="xtick_30"><path clip-path="url(#p74d9dedb55)" d="M 439.062301 524.95 L 439.062301 26.88" fill="none" stroke="#b0b0b0" stroke-linecap="square" stroke-width=".8" id="line2d_59"/><use x="439.062" xlink:href="#mfc518bbc66" y="524.95" stroke="#000" stroke-width=".8" id="line2d_60"/><g transform="matrix(0 -.1 -.1 0 441.822 551.038)" id="text_30"><use xlink:href="#DejaVuSans-49"/><use x="63.623" xlink:href="#DejaVuSans-51"/><use x="127.246" xlink:href="#DejaVuSans-50"/></g></g><g id="xtick_31"><path clip-path="url(#p74d9dedb55)" d="M 452.448243 524.95 L 452.448243 26.88" fill="none" stroke="#b0b0b0" stroke-linecap="square" stroke-width=".8" id="line2d_61"/><use x="452.448" xlink:href="#mfc518bbc66" y="524.95" stroke="#000" stroke-width=".8" id="line2d_62"/><g transform="matrix(0 -.1 -.1 0 455.208 551.038)" id="text_31"><use xlink:href="#DejaVuSans-49"/><use x="63.623" xlink:href="#DejaVuSans-51"/><use x="127.246" xlink:href="#DejaVuSans-54"/></g></g><g id="xtick_32"><path clip-path="url(#p74d9dedb55)" d="M 465.834184 524.95 L 465.834184 26.88" fill="none" stroke="#b0b0b0" stroke-linecap="square" stroke-width=".8" id="line2d_63"/><use x="465.834" xlink:href="#mfc518bbc66" y="524.95" stroke="#000" stroke-width=".8" id="line2d_64"/><g transform="matrix(0 -.1 -.1 0 468.594 551.038)" id="text_32"><use xlink:href="#DejaVuSans-49"/><use x="63.623" xlink:href="#DejaVuSans-52"/><use x="127.246" xlink:href="#DejaVuSans-48"/></g></g><g id="xtick_33"><path clip-path="url(#p74d9dedb55)" d="M 479.220126 524.95 L 479.220126 26.88" fill="none" stroke="#b0b0b0" stroke-linecap="square" stroke-width=".8" id="line2d_65"/><use x="479.22" xlink:href="#mfc518bbc66" y="524.95" stroke="#000" stroke-width=".8" id="line2d_66"/><g transform="matrix(0 -.1 -.1 0 481.98 551.038)" id="text_33"><use xlink:href="#DejaVuSans-49"/><use x="63.623" xlink:href="#DejaVuSans-52"/><use x="127.246" xlink:href="#DejaVuSans-52"/></g></g><g id="xtick_34"><path clip-path="url(#p74d9dedb55)" d="M 492.606067 524.95 L 492.606067 26.88" fill="none" stroke="#b0b0b0" stroke-linecap="square" stroke-width=".8" id="line2d_67"/><use x="492.606" xlink:href="#mfc518bbc66" y="524.95" stroke="#000" stroke-width=".8" id="line2d_68"/><g transform="matrix(0 -.1 -.1 0 495.365 551.038)" id="text_34"><use xlink:href="#DejaVuSans-49"/><use x="63.623" xlink:href="#DejaVuSans-52"/><use x="127.246" xlink:href="#DejaVuSans-56"/></g></g><g id="xtick_35"><path clip-path="url(#p74d9dedb55)" d="M 505.992008 524.95 L 505.992008 26.88" fill="none" stroke="#b0b0b0" stroke-linecap="square" stroke-width=".8" id="line2d_69"/><use x="505.992" xlink:href="#mfc518bbc66" y="524.95" stroke="#000" stroke-width=".8" id="line2d_70"/><g transform="matrix(0 -.1 -.1 0 508.751 551.038)" id="text_35"><use xlink:href="#DejaVuSans-49"/><use x="63.623" xlink:href="#DejaVuSans-53"/><use x="127.246" xlink:href="#DejaVuSans-50"/></g></g><g id="xtick_36"><path clip-path="url(#p74d9dedb55)" d="M 519.37795 524.95 L 519.37795 26.88" fill="none" stroke="#b0b0b0" stroke-linecap="square" stroke-width=".8" id="line2d_71"/><use x="519.378" xlink:href="#mfc518bbc66" y="524.95" stroke="#000" stroke-width=".8" id="line2d_72"/><g transform="matrix(0 -.1 -.1 0 522.137 551.038)" id="text_36"><use xlink:href="#DejaVuSans-49"/><use x="63.623" xlink:href="#DejaVuSans-53"/><use x="127.246" xlink:href="#DejaVuSans-54"/></g></g><g id="xtick_37"><path clip-path="url(#p74d9dedb55)" d="M 532.763891 524.95 L 532.763891 26.88" fill="none" stroke="#b0b0b0" stroke-linecap="square" stroke-width=".8" id="line2d_73"/><use x="532.764" xlink:href="#mfc518bbc66" y="524.95" stroke="#000" stroke-width=".8" id="line2d_74"/><g transform="matrix(0 -.1 -.1 0 535.523 551.038)" id="text_37"><use xlink:href="#DejaVuSans-49"/><use x="63.623" xlink:href="#DejaVuSans-54"/><use x="127.246" xlink:href="#DejaVuSans-48"/></g></g><g id="xtick_38"><path clip-path="url(#p74d9dedb55)" d="M 546.149833 524.95 L 546.149833 26.88" fill="none" stroke="#b0b0b0" stroke-linecap="square" stroke-width=".8" id="line2d_75"/><use x="546.15" xlink:href="#mfc518bbc66" y="524.95" stroke="#000" stroke-width=".8" id="line2d_76"/><g transform="matrix(0 -.1 -.1 0 548.91 551.038)" id="text_38"><use xlink:href="#DejaVuSans-49"/><use x="63.623" xlink:href="#DejaVuSans-54"/><use x="127.246" xlink:href="#DejaVuSans-52"/></g></g><g id="xtick_39"><path clip-path="url(#p74d9dedb55)" d="M 559.535774 524.95 L 559.535774 26.88" fill="none" stroke="#b0b0b0" stroke-linecap="square" stroke-width=".8" id="line2d_77"/><use x="559.536" xlink:href="#mfc518bbc66" y="524.95" stroke="#000" stroke-width=".8" id="line2d_78"/><g transform="matrix(0 -.1 -.1 0 562.295 551.038)" id="text_39"><use xlink:href="#DejaVuSans-49"/><use x="63.623" xlink:href="#DejaVuSans-54"/><use x="127.246" xlink:href="#DejaVuSans-56"/></g></g><g id="xtick_40"><path clip-path="url(#p74d9dedb55)" d="M 572.921715 524.95 L 572.921715 26.88" fill="none" stroke="#b0b0b0" stroke-linecap="square" stroke-width=".8" id="line2d_79"/><use x="572.922" xlink:href="#mfc518bbc66" y="524.95" stroke="#000" stroke-width=".8" id="line2d_80"/><g transform="matrix(0 -.1 -.1 0 575.681 551.038)" id="text_40"><use xlink:href="#DejaVuSans-49"/><use x="63.623" xlink:href="#DejaVuSans-55"/><use x="127.246" xlink:href="#DejaVuSans-50"/></g></g><g id="xtick_41"><path clip-path="url(#p74d9dedb55)" d="M 586.307657 524.95 L 586.307657 26.88" fill="none" stroke="#b0b0b0" stroke-linecap="square" stroke-width=".8" id="line2d_81"/><use x="586.308" xlink:href="#mfc518bbc66" y="524.95" stroke="#000" stroke-width=".8" id="line2d_82"/><g transform="matrix(0 -.1 -.1 0 589.067 551.038)" id="text_41"><use xlink:href="#DejaVuSans-49"/><use x="63.623" xlink:href="#DejaVuSans-55"/><use x="127.246" xlink:href="#DejaVuSans-54"/></g></g><g id="xtick_42"><path clip-path="url(#p74d9dedb55)" d="M 599.693598 524.95 L 599.693598 26.88" fill="none" stroke="#b0b0b0" stroke-linecap="square" stroke-width=".8" id="line2d_83"/><use x="599.694" xlink:href="#mfc518bbc66" y="524.95" stroke="#000" stroke-width=".8" id="line2d_84"/><g transform="matrix(0 -.1 -.1 0 602.453 551.038)" id="text_42"><use xlink:href="#DejaVuSans-49"/><use x="63.623" xlink:href="#DejaVuSans-56"/><use x="127.246" xlink:href="#DejaVuSans-48"/></g></g><g id="xtick_43"><path clip-path="url(#p74d9dedb55)" d="M 613.07954 524.95 L 613.07954 26.88" fill="none" stroke="#b0b0b0" stroke-linecap="square" stroke-width=".8" id="line2d_85"/><use x="613.08" xlink:href="#mfc518bbc66" y="524.95" stroke="#000" stroke-width=".8" id="line2d_86"/><g transform="matrix(0 -.1 -.1 0 615.839 551.038)" id="text_43"><use xlink:href="#DejaVuSans-49"/><use x="63.623" xlink:href="#DejaVuSans-56"/><use x="127.246" xlink:href="#DejaVuSans-52"/></g></g><g id="xtick_44"><path clip-path="url(#p74d9dedb55)" d="M 626.465481 524.95 L 626.465481 26.88" fill="none" stroke="#b0b0b0" stroke-linecap="square" stroke-width=".8" id="line2d_87"/><use x="626.465" xlink:href="#mfc518bbc66" y="524.95" stroke="#000" stroke-width=".8" id="line2d_88"/><g transform="matrix(0 -.1 -.1 0 629.225 551.038)" id="text_44"><use xlink:href="#DejaVuSans-49"/><use x="63.623" xlink:href="#DejaVuSans-56"/><use x="127.246" xlink:href="#DejaVuSans-56"/></g></g><g id="xtick_45"><path clip-path="url(#p74d9dedb55)" d="M 639.851423 524.95 L 639.851423 26.88" fill="none" stroke="#b0b0b0" stroke-linecap="square" stroke-width=".8" id="line2d_89"/><use x="639.851" xlink:href="#mfc518bbc66" y="524.95" stroke="#000" stroke-width=".8" id="line2d_90"/><g transform="matrix(0 -.1 -.1 0 642.61 551.038)" id="text_45"><use xlink:href="#DejaVuSans-49"/><use x="63.623" xlink:href="#DejaVuSans-57"/><use x="127.246" xlink:href="#DejaVuSans-50"/></g></g><g id="xtick_46"><path clip-path="url(#p74d9dedb55)" d="M 653.237364 524.95 L 653.237364 26.88" fill="none" stroke="#b0b0b0" stroke-linecap="square" stroke-width=".8" id="line2d_91"/><use x="653.237" xlink:href="#mfc518bbc66" y="524.95" stroke="#000" stroke-width=".8" id="line2d_92"/><g transform="matrix(0 -.1 -.1 0 655.997 551.038)" id="text_46"><use xlink:href="#DejaVuSans-49"/><use x="63.623" xlink:href="#DejaVuSans-57"/><use x="127.246" xlink:href="#DejaVuSans-54"/></g></g><g id="xtick_47"><path clip-path="url(#p74d9dedb55)" d="M 666.623305 524.95 L 666.623305 26.88" fill="none" stroke="#b0b0b0" stroke-linecap="square" stroke-width=".8" id="line2d_93"/><use x="666.623" xlink:href="#mfc518bbc66" y="524.95" stroke="#000" stroke-width=".8" id="line2d_94"/><g transform="matrix(0 -.1 -.1 0 669.383 551.038)" id="text_47"><use xlink:href="#DejaVuSans-50"/><use x="63.623" xlink:href="#DejaVuSans-48"/><use x="127.246" xlink:href="#DejaVuSans-48"/></g></g><g id="xtick_48"><path clip-path="url(#p74d9dedb55)" d="M 680.009247 524.95 L 680.009247 26.88" fill="none" stroke="#b0b0b0" stroke-linecap="square" stroke-width=".8" id="line2d_95"/><use x="680.009" xlink:href="#mfc518bbc66" y="524.95" stroke="#000" stroke-width=".8" id="line2d_96"/><g transform="matrix(0 -.1 -.1 0 682.769 551.038)" id="text_48"><use xlink:href="#DejaVuSans-50"/><use x="63.623" xlink:href="#DejaVuSans-48"/><use x="127.246" xlink:href="#DejaVuSans-52"/></g></g><g id="xtick_49"><path clip-path="url(#p74d9dedb55)" d="M 693.395188 524.95 L 693.395188 26.88" fill="none" stroke="#b0b0b0" stroke-linecap="square" stroke-width=".8" id="line2d_97"/><use x="693.395" xlink:href="#mfc518bbc66" y="524.95" stroke="#000" stroke-width=".8" id="line2d_98"/><g transform="matrix(0 -.1 -.1 0 696.155 551.038)" id="text_49"><use xlink:href="#DejaVuSans-50"/><use x="63.623" xlink:href="#DejaVuSans-48"/><use x="127.246" xlink:href="#DejaVuSans-56"/></g></g><g id="xtick_50"><path clip-path="url(#p74d9dedb55)" d="M 706.78113 524.95 L 706.78113 26.88" fill="none" stroke="#b0b0b0" stroke-linecap="square" stroke-width=".8" id="line2d_99"/><use x="706.781" xlink:href="#mfc518bbc66" y="524.95" stroke="#000" stroke-width=".8" id="line2d_100"/><g transform="matrix(0 -.1 -.1 0 709.54 551.038)" id="text_50"><use xlink:href="#DejaVuSans-50"/><use x="63.623" xlink:href="#DejaVuSans-49"/><use x="127.246" xlink:href="#DejaVuSans-50"/></g></g><g id="xtick_51"><path clip-path="url(#p74d9dedb55)" d="M 720.167071 524.95 L 720.167071 26.88" fill="none" stroke="#b0b0b0" stroke-linecap="square" stroke-width=".8" id="line2d_101"/><use x="720.167" xlink:href="#mfc518bbc66" y="524.95" stroke="#000" stroke-width=".8" id="line2d_102"/><g transform="matrix(0 -.1 -.1 0 722.926 551.038)" id="text_51"><use xlink:href="#DejaVuSans-50"/><use x="63.623" xlink:href="#DejaVuSans-49"/><use x="127.246" xlink:href="#DejaVuSans-54"/></g></g><g id="xtick_52"><path clip-path="url(#p74d9dedb55)" d="M 733.553013 524.95 L 733.553013 26.88" fill="none" stroke="#b0b0b0" stroke-linecap="square" stroke-width=".8" id="line2d_103"/><use x="733.553" xlink:href="#mfc518bbc66" y="524.95" stroke="#000" stroke-width=".8" id="line2d_104"/><g transform="matrix(0 -.1 -.1 0 736.312 551.038)" id="text_52"><use xlink:href="#DejaVuSans-50"/><use x="63.623" xlink:href="#DejaVuSans-50"/><use x="127.246" xlink:href="#DejaVuSans-48"/></g></g><g id="xtick_53"><path clip-path="url(#p74d9dedb55)" d="M 746.938954 524.95 L 746.938954 26.88" fill="none" stroke="#b0b0b0" stroke-linecap="square" stroke-width=".8" id="line2d_105"/><use x="746.939" xlink:href="#mfc518bbc66" y="524.95" stroke="#000" stroke-width=".8" id="line2d_106"/><g transform="matrix(0 -.1 -.1 0 749.698 551.038)" id="text_53"><use xlink:href="#DejaVuSans-50"/><use x="63.623" xlink:href="#DejaVuSans-50"/><use x="127.246" xlink:href="#DejaVuSans-52"/></g></g><g id="xtick_54"><path clip-path="url(#p74d9dedb55)" d="M 760.324895 524.95 L 760.324895 26.88" fill="none" stroke="#b0b0b0" stroke-linecap="square" stroke-width=".8" id="line2d_107"/><use x="760.325" xlink:href="#mfc518bbc66" y="524.95" stroke="#000" stroke-width=".8" id="line2d_108"/><g transform="matrix(0 -.1 -.1 0 763.084 551.038)" id="text_54"><use xlink:href="#DejaVuSans-50"/><use x="63.623" xlink:href="#DejaVuSans-50"/><use x="127.246" xlink:href="#DejaVuSans-56"/></g></g><g id="xtick_55"><path clip-path="url(#p74d9dedb55)" d="M 773.710837 524.95 L 773.710837 26.88" fill="none" stroke="#b0b0b0" stroke-linecap="square" stroke-width=".8" id="line2d_109"/><use x="773.711" xlink:href="#mfc518bbc66" y="524.95" stroke="#000" stroke-width=".8" id="line2d_110"/><g transform="matrix(0 -.1 -.1 0 776.47 551.038)" id="text_55"><use xlink:href="#DejaVuSans-50"/><use x="63.623" xlink:href="#DejaVuSans-51"/><use x="127.246" xlink:href="#DejaVuSans-50"/></g></g><g id="xtick_56"><path clip-path="url(#p74d9dedb55)" d="M 787.096778 524.95 L 787.096778 26.88" fill="none" stroke="#b0b0b0" stroke-linecap="square" stroke-width=".8" id="line2d_111"/><use x="787.097" xlink:href="#mfc518bbc66" y="524.95" stroke="#000" stroke-width=".8" id="line2d_112"/><g transform="matrix(0 -.1 -.1 0 789.856 551.038)" id="text_56"><use xlink:href="#DejaVuSans-50"/><use x="63.623" xlink:href="#DejaVuSans-51"/><use x="127.246" xlink:href="#DejaVuSans-54"/></g></g><g id="xtick_57"><path clip-path="url(#p74d9dedb55)" d="M 800.48272 524.95 L 800.48272 26.88" fill="none" stroke="#b0b0b0" stroke-linecap="square" stroke-width=".8" id="line2d_113"/><use x="800.483" xlink:href="#mfc518bbc66" y="524.95" stroke="#000" stroke-width=".8" id="line2d_114"/><g transform="matrix(0 -.1 -.1 0 803.242 551.038)" id="text_57"><use xlink:href="#DejaVuSans-50"/><use x="63.623" xlink:href="#DejaVuSans-52"/><use x="127.246" xlink:href="#DejaVuSans-48"/></g></g><g id="xtick_58"><path clip-path="url(#p74d9dedb55)" d="M 813.868661 524.95 L 813.868661 26.88" fill="none" stroke="#b0b0b0" stroke-linecap="square" stroke-width=".8" id="line2d_115"/><use x="813.869" xlink:href="#mfc518bbc66" y="524.95" stroke="#000" stroke-width=".8" id="line2d_116"/><g transform="matrix(0 -.1 -.1 0 816.628 551.038)" id="text_58"><use xlink:href="#DejaVuSans-50"/><use x="63.623" xlink:href="#DejaVuSans-52"/><use x="127.246" xlink:href="#DejaVuSans-52"/></g></g><g id="xtick_59"><path clip-path="url(#p74d9dedb55)" d="M 827.254603 524.95 L 827.254603 26.88" fill="none" stroke="#b0b0b0" stroke-linecap="square" stroke-width=".8" id="line2d_117"/><use x="827.255" xlink:href="#mfc518bbc66" y="524.95" stroke="#000" stroke-width=".8" id="line2d_118"/><g transform="matrix(0 -.1 -.1 0 830.014 551.038)" id="text_59"><use xlink:href="#DejaVuSans-50"/><use x="63.623" xlink:href="#DejaVuSans-52"/><use x="127.246" xlink:href="#DejaVuSans-56"/></g></g><g id="xtick_60"><path clip-path="url(#p74d9dedb55)" d="M 840.640544 524.95 L 840.640544 26.88" fill="none" stroke="#b0b0b0" stroke-linecap="square" stroke-width=".8" id="line2d_119"/><use x="840.641" xlink:href="#mfc518bbc66" y="524.95" stroke="#000" stroke-width=".8" id="line2d_120"/><g transform="matrix(0 -.1 -.1 0 843.4 551.038)" id="text_60"><use xlink:href="#DejaVuSans-50"/><use x="63.623" xlink:href="#DejaVuSans-53"/><use x="127.246" xlink:href="#DejaVuSans-50"/></g></g><g id="text_61"><defs><path d="M 54.890625 33.015625 L 54.890625 0 L 45.90625 0 L 45.90625 32.71875 Q 45.90625 40.484375 42.875 44.328125 Q 39.84375 48.1875 33.796875 48.1875 Q 26.515625 48.1875 22.3125 43.546875 Q 18.109375 38.921875 18.109375 30.90625 L 18.109375 0 L 9.078125 0 L 9.078125 54.6875 L 18.109375 54.6875 L 18.109375 46.1875 Q 21.34375 51.125 25.703125 53.5625 Q 30.078125 56 35.796875 56 Q 45.21875 56 50.046875 50.171875 Q 54.890625 44.34375 54.890625 33.015625 z" id="DejaVuSans-110"/><path d="M 9.8125 72.90625 L 51.703125 72.90625 L 51.703125 64.59375 L 19.671875 64.59375 L 19.671875 43.109375 L 48.578125 43.109375 L 48.578125 34.8125 L 19.671875 34.8125 L 19.671875 0 L 9.8125 0 z" id="DejaVuSans-70"/><path d="M 9.421875 75.984375 L 18.40625 75.984375 L 18.40625 0 L 9.421875 0 z" id="DejaVuSans-108"/><path d="M 56.203125 29.59375 L 56.203125 25.203125 L 14.890625 25.203125 Q 15.484375 15.921875 20.484375 11.0625 Q 25.484375 6.203125 34.421875 6.203125 Q 39.59375 6.203125 44.453125 7.46875 Q 49.3125 8.734375 54.109375 11.28125 L 54.109375 2.78125 Q 49.265625 0.734375 44.1875 -0.34375 Q 39.109375 -1.421875 33.890625 -1.421875 Q 20.796875 -1.421875 13.15625 6.1875 Q 5.515625 13.8125 5.515625 26.8125 Q 5.515625 40.234375 12.765625 48.109375 Q 20.015625 56 32.328125 56 Q 43.359375 56 49.78125 48.890625 Q 56.203125 41.796875 56.203125 29.59375 z M 47.21875 32.234375 Q 47.125 39.59375 43.09375 43.984375 Q 39.0625 48.390625 32.421875 48.390625 Q 24.90625 48.390625 20.390625 44.140625 Q 15.875 39.890625 15.1875 32.171875 z" id="DejaVuSans-101"/><path d="M 41.109375 46.296875 Q 39.59375 47.171875 37.8125 47.578125 Q 36.03125 48 33.890625 48 Q 26.265625 48 22.1875 43.046875 Q 18.109375 38.09375 18.109375 28.8125 L 18.109375 0 L 9.078125 0 L 9.078125 54.6875 L 18.109375 54.6875 L 18.109375 46.1875 Q 20.953125 51.171875 25.484375 53.578125 Q 30.03125 56 36.53125 56 Q 37.453125 56 38.578125 55.875 Q 39.703125 55.765625 41.0625 55.515625 z" id="DejaVuSans-114"/><path d="M 9.8125 72.90625 L 19.671875 72.90625 L 19.671875 0 L 9.8125 0 z" id="DejaVuSans-73"/><path d="M 9.421875 54.6875 L 18.40625 54.6875 L 18.40625 0 L 9.421875 0 z M 9.421875 75.984375 L 18.40625 75.984375 L 18.40625 64.59375 L 9.421875 64.59375 z" id="DejaVuSans-105"/><path d="M 44.28125 53.078125 L 44.28125 44.578125 Q 40.484375 46.53125 36.375 47.5 Q 32.28125 48.484375 27.875 48.484375 Q 21.1875 48.484375 17.84375 46.4375 Q 14.5 44.390625 14.5 40.28125 Q 14.5 37.15625 16.890625 35.375 Q 19.28125 33.59375 26.515625 31.984375 L 29.59375 31.296875 Q 39.15625 29.25 43.1875 25.515625 Q 47.21875 21.78125 47.21875 15.09375 Q 47.21875 7.46875 41.1875 3.015625 Q 35.15625 -1.421875 24.609375 -1.421875 Q 20.21875 -1.421875 15.453125 -0.5625 Q 10.6875 0.296875 5.421875 2 L 5.421875 11.28125 Q 10.40625 8.6875 15.234375 7.390625 Q 20.0625 6.109375 24.8125 6.109375 Q 31.15625 6.109375 34.5625 8.28125 Q 37.984375 10.453125 37.984375 14.40625 Q 37.984375 18.0625 35.515625 20.015625 Q 33.0625 21.96875 24.703125 23.78125 L 21.578125 24.515625 Q 13.234375 26.265625 9.515625 29.90625 Q 5.8125 33.546875 5.8125 39.890625 Q 5.8125 47.609375 11.28125 51.796875 Q 16.75 56 26.8125 56 Q 31.78125 56 36.171875 55.265625 Q 40.578125 54.546875 44.28125 53.078125 z" id="DejaVuSans-115"/><path d="M 18.3125 70.21875 L 18.3125 54.6875 L 36.8125 54.6875 L 36.8125 47.703125 L 18.3125 47.703125 L 18.3125 18.015625 Q 18.3125 11.328125 20.140625 9.421875 Q 21.96875 7.515625 27.59375 7.515625 L 36.8125 7.515625 L 36.8125 0 L 27.59375 0 Q 17.1875 0 13.234375 3.875 Q 9.28125 7.765625 9.28125 18.015625 L 9.28125 47.703125 L 2.6875 47.703125 L 2.6875 54.6875 L 9.28125 54.6875 L 9.28125 70.21875 z" id="DejaVuSans-116"/><path d="M 8.5 21.578125 L 8.5 54.6875 L 17.484375 54.6875 L 17.484375 21.921875 Q 17.484375 14.15625 20.5 10.265625 Q 23.53125 6.390625 29.59375 6.390625 Q 36.859375 6.390625 41.078125 11.03125 Q 45.3125 15.671875 45.3125 23.6875 L 45.3125 54.6875 L 54.296875 54.6875 L 54.296875 0 L 45.3125 0 L 45.3125 8.40625 Q 42.046875 3.421875 37.71875 1 Q 33.40625 -1.421875 27.6875 -1.421875 Q 18.265625 -1.421875 13.375 4.4375 Q 8.5 10.296875 8.5 21.578125 z M 31.109375 56 z" id="DejaVuSans-117"/><path d="M 48.78125 52.59375 L 48.78125 44.1875 Q 44.96875 46.296875 41.140625 47.34375 Q 37.3125 48.390625 33.40625 48.390625 Q 24.65625 48.390625 19.8125 42.84375 Q 14.984375 37.3125 14.984375 27.296875 Q 14.984375 17.28125 19.8125 11.734375 Q 24.65625 6.203125 33.40625 6.203125 Q 37.3125 6.203125 41.140625 7.25 Q 44.96875 8.296875 48.78125 10.40625 L 48.78125 2.09375 Q 45.015625 0.34375 40.984375 -0.53125 Q 36.96875 -1.421875 32.421875 -1.421875 Q 20.0625 -1.421875 12.78125 6.34375 Q 5.515625 14.109375 5.515625 27.296875 Q 5.515625 40.671875 12.859375 48.328125 Q 20.21875 56 33.015625 56 Q 37.15625 56 41.109375 55.140625 Q 45.0625 54.296875 48.78125 52.59375 z" id="DejaVuSans-99"/><path d="M 30.609375 48.390625 Q 23.390625 48.390625 19.1875 42.75 Q 14.984375 37.109375 14.984375 27.296875 Q 14.984375 17.484375 19.15625 11.84375 Q 23.34375 6.203125 30.609375 6.203125 Q 37.796875 6.203125 41.984375 11.859375 Q 46.1875 17.53125 46.1875 27.296875 Q 46.1875 37.015625 41.984375 42.703125 Q 37.796875 48.390625 30.609375 48.390625 z M 30.609375 56 Q 42.328125 56 49.015625 48.375 Q 55.71875 40.765625 55.71875 27.296875 Q 55.71875 13.875 49.015625 6.21875 Q 42.328125 -1.421875 30.609375 -1.421875 Q 18.84375 -1.421875 12.171875 6.21875 Q 5.515625 13.875 5.515625 27.296875 Q 5.515625 40.765625 12.171875 48.375 Q 18.84375 56 30.609375 56 z" id="DejaVuSans-111"/></defs><g transform="matrix(.1 0 0 -.1 407.652 562.636)"><use xlink:href="#DejaVuSans-70"/><use x="57.41" xlink:href="#DejaVuSans-105"/><use x="85.193" xlink:href="#DejaVuSans-108"/><use x="112.977" xlink:href="#DejaVuSans-108"/><use x="140.76" xlink:href="#DejaVuSans-101"/><use x="202.283" xlink:href="#DejaVuSans-114"/><use x="243.396" xlink:href="#DejaVuSans-32"/><use x="275.184" xlink:href="#DejaVuSans-73"/><use x="304.676" xlink:href="#DejaVuSans-110"/><use x="368.055" xlink:href="#DejaVuSans-115"/><use x="420.154" xlink:href="#DejaVuSans-116"/><use x="459.363" xlink:href="#DejaVuSans-114"/><use x="500.477" xlink:href="#DejaVuSans-117"/><use x="563.855" xlink:href="#DejaVuSans-99"/><use x="618.836" xlink:href="#DejaVuSans-116"/><use x="658.045" xlink:href="#DejaVuSans-105"/><use x="685.828" xlink:href="#DejaVuSans-111"/><use x="747.01" xlink:href="#DejaVuSans-110"/><use x="810.389" xlink:href="#DejaVuSans-115"/></g></g></g><g id="matplotlib.axis_2"><g id="ytick_1"><path clip-path="url(#p74d9dedb55)" d="M 50.87 516.243987 L 850.68 516.243987" fill="none" stroke="#b0b0b0" stroke-linecap="square" stroke-width=".8" id="line2d_121"/><g id="line2d_122"><defs><path d="M 0 0 L -3.5 0" id="m3a24eacd0e" stroke="#000" stroke-width=".8"/></defs><use x="50.87" xlink:href="#m3a24eacd0e" y="516.244" stroke="#000" stroke-width=".8"/></g><g transform="matrix(.1 0 0 -.1 24.782 520.043)" id="text_62"><use xlink:href="#DejaVuSans-49"/><use x="63.623" xlink:href="#DejaVuSans-55"/><use x="127.246" xlink:href="#DejaVuSans-53"/></g></g><g id="ytick_2"><path clip-path="url(#p74d9dedb55)" d="M 50.87 455.132003 L 850.68 455.132003" fill="none" stroke="#b0b0b0" stroke-linecap="square" stroke-width=".8" id="line2d_123"/><use x="50.87" xlink:href="#m3a24eacd0e" y="455.132" stroke="#000" stroke-width=".8" id="line2d_124"/><g transform="matrix(.1 0 0 -.1 24.782 458.931)" id="text_63"><use xlink:href="#DejaVuSans-50"/><use x="63.623" xlink:href="#DejaVuSans-48"/><use x="127.246" xlink:href="#DejaVuSans-48"/></g></g><g id="ytick_3"><path clip-path="url(#p74d9dedb55)" d="M 50.87 394.02002 L 850.68 394.02002" fill="none" stroke="#b0b0b0" stroke-linecap="square" stroke-width=".8" id="line2d_125"/><use x="50.87" xlink:href="#m3a24eacd0e" y="394.02" stroke="#000" stroke-width=".8" id="line2d_126"/><g transform="matrix(.1 0 0 -.1 24.782 397.82)" id="text_64"><use xlink:href="#DejaVuSans-50"/><use x="63.623" xlink:href="#DejaVuSans-50"/><use x="127.246" xlink:href="#DejaVuSans-53"/></g></g><g id="ytick_4"><path clip-path="url(#p74d9dedb55)" d="M 50.87 332.908036 L 850.68 332.908036" fill="none" stroke="#b0b0b0" stroke-linecap="square" stroke-width=".8" id="line2d_127"/><use x="50.87" xlink:href="#m3a24eacd0e" y="332.908" stroke="#000" stroke-width=".8" id="line2d_128"/><g transform="matrix(.1 0 0 -.1 24.782 336.707)" id="text_65"><use xlink:href="#DejaVuSans-50"/><use x="63.623" xlink:href="#DejaVuSans-53"/><use x="127.246" xlink:href="#DejaVuSans-48"/></g></g><g id="ytick_5"><path clip-path="url(#p74d9dedb55)" d="M 50.87 271.796052 L 850.68 271.796052" fill="none" stroke="#b0b0b0" stroke-linecap="square" stroke-width=".8" id="line2d_129"/><use x="50.87" xlink:href="#m3a24eacd0e" y="271.796" stroke="#000" stroke-width=".8" id="line2d_130"/><g transform="matrix(.1 0 0 -.1 24.782 275.595)" id="text_66"><use xlink:href="#DejaVuSans-50"/><use x="63.623" xlink:href="#DejaVuSans-55"/><use x="127.246" xlink:href="#DejaVuSans-53"/></g></g><g id="ytick_6"><path clip-path="url(#p74d9dedb55)" d="M 50.87 210.684069 L 850.68 210.684069" fill="none" stroke="#b0b0b0" stroke-linecap="square" stroke-width=".8" id="line2d_131"/><use x="50.87" xlink:href="#m3a24eacd0e" y="210.684" stroke="#000" stroke-width=".8" id="line2d_132"/><g transform="matrix(.1 0 0 -.1 24.782 214.483)" id="text_67"><use xlink:href="#DejaVuSans-51"/><use x="63.623" xlink:href="#DejaVuSans-48"/><use x="127.246" xlink:href="#DejaVuSans-48"/></g></g><g id="ytick_7"><path clip-path="url(#p74d9dedb55)" d="M 50.87 149.572085 L 850.68 149.572085" fill="none" stroke="#b0b0b0" stroke-linecap="square" stroke-width=".8" id="line2d_133"/><use x="50.87" xlink:href="#m3a24eacd0e" y="149.572" stroke="#000" stroke-width=".8" id="line2d_134"/><g transform="matrix(.1 0 0 -.1 24.782 153.371)" id="text_68"><use xlink:href="#DejaVuSans-51"/><use x="63.623" xlink:href="#DejaVuSans-50"/><use x="127.246" xlink:href="#DejaVuSans-53"/></g></g><g id="ytick_8"><path clip-path="url(#p74d9dedb55)" d="M 50.87 88.460101 L 850.68 88.460101" fill="none" stroke="#b0b0b0" stroke-linecap="square" stroke-width=".8" id="line2d_135"/><use x="50.87" xlink:href="#m3a24eacd0e" y="88.46" stroke="#000" stroke-width=".8" id="line2d_136"/><g transform="matrix(.1 0 0 -.1 24.782 92.26)" id="text_69"><use xlink:href="#DejaVuSans-51"/><use x="63.623" xlink:href="#DejaVuSans-53"/><use x="127.246" xlink:href="#DejaVuSans-48"/></g></g><g id="ytick_9"><path clip-path="url(#p74d9dedb55)" d="M 50.87 27.348118 L 850.68 27.348118" fill="none" stroke="#b0b0b0" stroke-linecap="square" stroke-width=".8" id="line2d_137"/><use x="50.87" xlink:href="#m3a24eacd0e" y="27.348" stroke="#000" stroke-width=".8" id="line2d_138"/><g transform="matrix(.1 0 0 -.1 24.782 31.147)" id="text_70"><use xlink:href="#DejaVuSans-51"/><use x="63.623" xlink:href="#DejaVuSans-55"/><use x="127.246" xlink:href="#DejaVuSans-53"/></g></g><g id="text_71"><defs><path d="M 64.40625 67.28125 L 64.40625 56.890625 Q 59.421875 61.53125 53.78125 63.8125 Q 48.140625 66.109375 41.796875 66.109375 Q 29.296875 66.109375 22.65625 58.46875 Q 16.015625 50.828125 16.015625 36.375 Q 16.015625 21.96875 22.65625 14.328125 Q 29.296875 6.6875 41.796875 6.6875 Q 48.140625 6.6875 53.78125 8.984375 Q 59.421875 11.28125 64.40625 15.921875 L 64.40625 5.609375 Q 59.234375 2.09375 53.4375 0.328125 Q 47.65625 -1.421875 41.21875 -1.421875 Q 24.65625 -1.421875 15.125 8.703125 Q 5.609375 18.84375 5.609375 36.375 Q 5.609375 53.953125 15.125 64.078125 Q 24.65625 74.21875 41.21875 74.21875 Q 47.75 74.21875 53.53125 72.484375 Q 59.328125 70.75 64.40625 67.28125 z" id="DejaVuSans-67"/><path d="M 32.171875 -5.078125 Q 28.375 -14.84375 24.75 -17.8125 Q 21.140625 -20.796875 15.09375 -20.796875 L 7.90625 -20.796875 L 7.90625 -13.28125 L 13.1875 -13.28125 Q 16.890625 -13.28125 18.9375 -11.515625 Q 21 -9.765625 23.484375 -3.21875 L 25.09375 0.875 L 2.984375 54.6875 L 12.5 54.6875 L 29.59375 11.921875 L 46.6875 54.6875 L 56.203125 54.6875 z" id="DejaVuSans-121"/></defs><g transform="matrix(0 -.1 -.1 0 18.703 292.185)"><use xlink:href="#DejaVuSans-67"/><use x="69.824" xlink:href="#DejaVuSans-121"/><use x="129.004" xlink:href="#DejaVuSans-99"/><use x="183.984" xlink:href="#DejaVuSans-108"/><use x="211.768" xlink:href="#DejaVuSans-101"/><use x="273.291" xlink:href="#DejaVuSans-115"/></g></g></g><g id="line2d_139"><path clip-path="url(#p74d9dedb55)" d="M 50.87 502.017117 L 54.216485 502.310455 L 57.562971 501.626 L 64.255941 502.017117 L 67.602427 501.67489 L 70.948912 501.06377 L 77.641883 500.745988 L 84.334854 499.597082 L 87.681339 499.352635 L 94.37431 499.32819 L 97.720795 499.132631 L 101.06728 499.303745 L 104.413766 499.230411 L 107.760251 497.739278 L 111.106736 496.419259 L 114.453222 496.345925 L 117.799707 497.054824 L 121.146192 496.98149 L 124.492678 496.712597 L 127.839163 497.568165 L 131.185649 497.837057 L 134.532134 496.957045 L 137.878619 496.712597 L 141.225105 496.614818 L 144.57159 496.394815 L 147.918075 495.221464 L 151.264561 491.62808 L 154.611046 490.919181 L 157.957531 494.757013 L 161.304017 492.556982 L 164.650502 492.850319 L 167.996987 494.757013 L 171.343473 492.850319 L 174.689958 492.336979 L 178.036444 492.2392 L 181.382929 490.723622 L 188.0759 490.96807 L 191.422385 490.332506 L 194.76887 490.45473 L 198.115356 490.723622 L 201.461841 490.772512 L 204.808326 490.234727 L 208.154812 488.05914 L 211.501297 490.943626 L 214.847782 488.279143 L 218.194268 488.181364 L 221.540753 488.645815 L 224.887238 488.67026 L 231.580209 488.279143 L 234.926695 487.863582 L 241.619665 487.863582 L 244.966151 487.252462 L 248.312636 486.861345 L 251.659121 487.741358 L 255.005607 486.959124 L 258.352092 486.421339 L 261.698577 485.639105 L 265.045063 488.890263 L 268.391548 484.367976 L 271.738033 483.31685 L 275.084519 482.09461 L 278.431004 482.045721 L 281.77749 481.385711 L 288.47046 480.799036 L 291.816946 478.57456 L 295.163431 479.576797 L 298.509916 479.23457 L 301.856402 478.158999 L 305.202887 479.894579 L 308.549372 477.35232 L 311.895858 473.172261 L 315.242343 472.365583 L 318.588828 472.390027 L 321.935314 471.118898 L 325.281799 469.676655 L 328.628285 469.334428 L 331.97477 469.456652 L 335.321255 467.818851 L 342.014226 465.52104 L 345.360711 465.398816 L 352.053682 463.443233 L 355.400167 460.412079 L 358.746653 460.803195 L 362.093138 459.800959 L 365.439623 458.529829 L 368.786109 456.769804 L 372.132594 456.892028 L 375.479079 455.840902 L 378.825565 454.912 L 382.17205 453.567536 L 385.518536 453.714205 L 388.865021 452.663079 L 392.211506 451.465284 L 395.557992 450.854164 L 402.250962 450.267489 L 405.597448 448.94747 L 408.943933 447.089666 L 412.290418 447.676341 L 418.983389 445.134083 L 422.329874 442.982941 L 425.67636 443.300723 L 429.022845 442.322931 L 432.369331 419.198157 L 435.715816 407.782438 L 439.062301 359.748419 L 442.408787 315.381119 L 445.755272 218.897519 L 449.101757 149.425416 L 452.448243 149.816533 L 455.794728 148.912076 L 459.141213 147.592057 L 462.487699 147.103161 L 465.834184 147.445388 L 469.180669 146.809823 L 472.527155 146.956492 L 475.87364 142.483095 L 479.220126 142.116423 L 482.566611 142.483095 L 485.913096 141.407524 L 489.259582 141.33419 L 492.606067 141.114187 L 495.952552 141.211966 L 499.299038 140.380843 L 502.645523 137.569691 L 505.992008 137.10524 L 509.338494 137.374133 L 512.684979 136.200783 L 519.37795 135.516329 L 522.724435 136.054114 L 526.070921 135.125212 L 532.763891 134.587427 L 536.110377 128.598452 L 539.456862 131.1896 L 546.149833 130.749594 L 549.496318 127.693995 L 552.842803 124.027276 L 556.189289 126.985096 L 559.535774 126.202863 L 562.882259 126.765093 L 566.228745 125.88508 L 576.268201 128.525118 L 579.614686 127.889553 L 586.307657 127.082875 L 589.654142 127.033985 L 593.000628 129.038459 L 596.347113 129.967361 L 599.693598 128.354004 L 603.040084 128.794011 L 606.386569 117.842743 L 609.733054 119.822771 L 613.07954 119.40721 L 616.426025 119.773882 L 619.77251 119.431655 L 623.118996 118.087191 L 626.465481 121.558352 L 629.811967 121.436128 L 633.158452 118.478308 L 636.504937 114.71381 L 639.851423 114.933813 L 643.197908 117.231623 L 646.544393 117.304958 L 649.890879 116.547169 L 653.237364 116.571614 L 659.930335 115.740491 L 663.27682 116.791617 L 666.623305 117.207179 L 669.969791 117.036065 L 673.316276 116.644948 L 676.662762 115.83827 L 680.009247 117.280513 L 683.355732 116.840507 L 686.702218 116.131608 L 690.048703 114.738254 L 693.395188 113.002674 L 696.741674 111.75599 L 700.088159 110.069299 L 703.434644 107.722599 L 706.78113 108.602611 L 710.127615 107.233703 L 713.4741 107.087034 L 720.167071 106.109242 L 723.513556 104.00699 L 726.860042 103.786987 L 730.206527 104.153659 L 733.553013 100.48694 L 736.899498 97.52912 L 740.245983 96.062432 L 743.592469 95.011306 L 746.938954 91.00236 L 750.285439 89.853455 L 753.631925 88.337877 L 756.97841 87.580089 L 760.324895 86.333404 L 763.671381 85.453392 L 767.017866 85.208944 L 770.364351 82.1289 L 773.710837 82.69113 L 777.057322 81.737783 L 780.403808 81.297777 L 783.750293 80.466654 L 787.096778 78.437736 L 790.443264 76.77549 L 793.789749 70.664292 L 797.136234 67.119797 L 800.48272 67.926475 L 803.829205 66.655346 L 807.17569 64.797541 L 810.522176 57.757441 L 813.868661 61.106378 L 817.215146 60.128586 L 820.561632 58.221892 L 823.908117 56.021861 L 827.254603 55.948526 L 830.601088 58.295226 L 833.947573 57.121876 L 837.294059 56.290753 L 840.640544 54.115167 L 847.333515 52.672924 L 850.68 50.961788 L 850.68 50.961788" fill="none" stroke="#1f77b4" stroke-linecap="square" stroke-width="1.5"/><defs><path d="M 0 1.5 C 0.397805 1.5 0.77937 1.341951 1.06066 1.06066 C 1.341951 0.77937 1.5 0.397805 1.5 0 C 1.5 -0.397805 1.341951 -0.77937 1.06066 -1.06066 C 0.77937 -1.341951 0.397805 -1.5 0 -1.5 C -0.397805 -1.5 -0.77937 -1.341951 -1.06066 -1.06066 C -1.341951 -0.77937 -1.5 -0.397805 -1.5 0 C -1.5 0.397805 -1.341951 0.77937 -1.06066 1.06066 C -0.77937 1.341951 -0.397805 1.5 0 1.5 z" id="mfd23d3c377" stroke="#1f77b4"/></defs><g clip-path="url(#p74d9dedb55)" fill="#1f77b4" stroke="#1f77b4"><use x="50.87" xlink:href="#mfd23d3c377" y="502.017"/><use x="54.216" xlink:href="#mfd23d3c377" y="502.31"/><use x="57.563" xlink:href="#mfd23d3c377" y="501.626"/><use x="60.909" xlink:href="#mfd23d3c377" y="501.87"/><use x="64.256" xlink:href="#mfd23d3c377" y="502.017"/><use x="67.602" xlink:href="#mfd23d3c377" y="501.675"/><use x="70.949" xlink:href="#mfd23d3c377" y="501.064"/><use x="74.295" xlink:href="#mfd23d3c377" y="500.917"/><use x="77.642" xlink:href="#mfd23d3c377" y="500.746"/><use x="80.988" xlink:href="#mfd23d3c377" y="500.208"/><use x="84.335" xlink:href="#mfd23d3c377" y="499.597"/><use x="87.681" xlink:href="#mfd23d3c377" y="499.353"/><use x="91.028" xlink:href="#mfd23d3c377" y="499.328"/><use x="94.374" xlink:href="#mfd23d3c377" y="499.328"/><use x="97.721" xlink:href="#mfd23d3c377" y="499.133"/><use x="101.067" xlink:href="#mfd23d3c377" y="499.304"/><use x="104.414" xlink:href="#mfd23d3c377" y="499.23"/><use x="107.76" xlink:href="#mfd23d3c377" y="497.739"/><use x="111.107" xlink:href="#mfd23d3c377" y="496.419"/><use x="114.453" xlink:href="#mfd23d3c377" y="496.346"/><use x="117.8" xlink:href="#mfd23d3c377" y="497.055"/><use x="121.146" xlink:href="#mfd23d3c377" y="496.981"/><use x="124.493" xlink:href="#mfd23d3c377" y="496.713"/><use x="127.839" xlink:href="#mfd23d3c377" y="497.568"/><use x="131.186" xlink:href="#mfd23d3c377" y="497.837"/><use x="134.532" xlink:href="#mfd23d3c377" y="496.957"/><use x="137.879" xlink:href="#mfd23d3c377" y="496.713"/><use x="141.225" xlink:href="#mfd23d3c377" y="496.615"/><use x="144.572" xlink:href="#mfd23d3c377" y="496.395"/><use x="147.918" xlink:href="#mfd23d3c377" y="495.221"/><use x="151.265" xlink:href="#mfd23d3c377" y="491.628"/><use x="154.611" xlink:href="#mfd23d3c377" y="490.919"/><use x="157.958" xlink:href="#mfd23d3c377" y="494.757"/><use x="161.304" xlink:href="#mfd23d3c377" y="492.557"/><use x="164.651" xlink:href="#mfd23d3c377" y="492.85"/><use x="167.997" xlink:href="#mfd23d3c377" y="494.757"/><use x="171.343" xlink:href="#mfd23d3c377" y="492.85"/><use x="174.69" xlink:href="#mfd23d3c377" y="492.337"/><use x="178.036" xlink:href="#mfd23d3c377" y="492.239"/><use x="181.383" xlink:href="#mfd23d3c377" y="490.724"/><use x="184.729" xlink:href="#mfd23d3c377" y="490.87"/><use x="188.076" xlink:href="#mfd23d3c377" y="490.968"/><use x="191.422" xlink:href="#mfd23d3c377" y="490.333"/><use x="194.769" xlink:href="#mfd23d3c377" y="490.455"/><use x="198.115" xlink:href="#mfd23d3c377" y="490.724"/><use x="201.462" xlink:href="#mfd23d3c377" y="490.773"/><use x="204.808" xlink:href="#mfd23d3c377" y="490.235"/><use x="208.155" xlink:href="#mfd23d3c377" y="488.059"/><use x="211.501" xlink:href="#mfd23d3c377" y="490.944"/><use x="214.848" xlink:href="#mfd23d3c377" y="488.279"/><use x="218.194" xlink:href="#mfd23d3c377" y="488.181"/><use x="221.541" xlink:href="#mfd23d3c377" y="488.646"/><use x="224.887" xlink:href="#mfd23d3c377" y="488.67"/><use x="228.234" xlink:href="#mfd23d3c377" y="488.499"/><use x="231.58" xlink:href="#mfd23d3c377" y="488.279"/><use x="234.927" xlink:href="#mfd23d3c377" y="487.864"/><use x="238.273" xlink:href="#mfd23d3c377" y="487.888"/><use x="241.62" xlink:href="#mfd23d3c377" y="487.864"/><use x="244.966" xlink:href="#mfd23d3c377" y="487.252"/><use x="248.313" xlink:href="#mfd23d3c377" y="486.861"/><use x="251.659" xlink:href="#mfd23d3c377" y="487.741"/><use x="255.006" xlink:href="#mfd23d3c377" y="486.959"/><use x="258.352" xlink:href="#mfd23d3c377" y="486.421"/><use x="261.699" xlink:href="#mfd23d3c377" y="485.639"/><use x="265.045" xlink:href="#mfd23d3c377" y="488.89"/><use x="268.392" xlink:href="#mfd23d3c377" y="484.368"/><use x="271.738" xlink:href="#mfd23d3c377" y="483.317"/><use x="275.085" xlink:href="#mfd23d3c377" y="482.095"/><use x="278.431" xlink:href="#mfd23d3c377" y="482.046"/><use x="281.777" xlink:href="#mfd23d3c377" y="481.386"/><use x="285.124" xlink:href="#mfd23d3c377" y="481.141"/><use x="288.47" xlink:href="#mfd23d3c377" y="480.799"/><use x="291.817" xlink:href="#mfd23d3c377" y="478.575"/><use x="295.163" xlink:href="#mfd23d3c377" y="479.577"/><use x="298.51" xlink:href="#mfd23d3c377" y="479.235"/><use x="301.856" xlink:href="#mfd23d3c377" y="478.159"/><use x="305.203" xlink:href="#mfd23d3c377" y="479.895"/><use x="308.549" xlink:href="#mfd23d3c377" y="477.352"/><use x="311.896" xlink:href="#mfd23d3c377" y="473.172"/><use x="315.242" xlink:href="#mfd23d3c377" y="472.366"/><use x="318.589" xlink:href="#mfd23d3c377" y="472.39"/><use x="321.935" xlink:href="#mfd23d3c377" y="471.119"/><use x="325.282" xlink:href="#mfd23d3c377" y="469.677"/><use x="328.628" xlink:href="#mfd23d3c377" y="469.334"/><use x="331.975" xlink:href="#mfd23d3c377" y="469.457"/><use x="335.321" xlink:href="#mfd23d3c377" y="467.819"/><use x="338.668" xlink:href="#mfd23d3c377" y="466.621"/><use x="342.014" xlink:href="#mfd23d3c377" y="465.521"/><use x="345.361" xlink:href="#mfd23d3c377" y="465.399"/><use x="348.707" xlink:href="#mfd23d3c377" y="464.445"/><use x="352.054" xlink:href="#mfd23d3c377" y="463.443"/><use x="355.4" xlink:href="#mfd23d3c377" y="460.412"/><use x="358.747" xlink:href="#mfd23d3c377" y="460.803"/><use x="362.093" xlink:href="#mfd23d3c377" y="459.801"/><use x="365.44" xlink:href="#mfd23d3c377" y="458.53"/><use x="368.786" xlink:href="#mfd23d3c377" y="456.77"/><use x="372.133" xlink:href="#mfd23d3c377" y="456.892"/><use x="375.479" xlink:href="#mfd23d3c377" y="455.841"/><use x="378.826" xlink:href="#mfd23d3c377" y="454.912"/><use x="382.172" xlink:href="#mfd23d3c377" y="453.568"/><use x="385.519" xlink:href="#mfd23d3c377" y="453.714"/><use x="388.865" xlink:href="#mfd23d3c377" y="452.663"/><use x="392.212" xlink:href="#mfd23d3c377" y="451.465"/><use x="395.558" xlink:href="#mfd23d3c377" y="450.854"/><use x="398.904" xlink:href="#mfd23d3c377" y="450.61"/><use x="402.251" xlink:href="#mfd23d3c377" y="450.267"/><use x="405.597" xlink:href="#mfd23d3c377" y="448.947"/><use x="408.944" xlink:href="#mfd23d3c377" y="447.09"/><use x="412.29" xlink:href="#mfd23d3c377" y="447.676"/><use x="415.637" xlink:href="#mfd23d3c377" y="446.454"/><use x="418.983" xlink:href="#mfd23d3c377" y="445.134"/><use x="422.33" xlink:href="#mfd23d3c377" y="442.983"/><use x="425.676" xlink:href="#mfd23d3c377" y="443.301"/><use x="429.023" xlink:href="#mfd23d3c377" y="442.323"/><use x="432.369" xlink:href="#mfd23d3c377" y="419.198"/><use x="435.716" xlink:href="#mfd23d3c377" y="407.782"/><use x="439.062" xlink:href="#mfd23d3c377" y="359.748"/><use x="442.409" xlink:href="#mfd23d3c377" y="315.381"/><use x="445.755" xlink:href="#mfd23d3c377" y="218.898"/><use x="449.102" xlink:href="#mfd23d3c377" y="149.425"/><use x="452.448" xlink:href="#mfd23d3c377" y="149.817"/><use x="455.795" xlink:href="#mfd23d3c377" y="148.912"/><use x="459.141" xlink:href="#mfd23d3c377" y="147.592"/><use x="462.488" xlink:href="#mfd23d3c377" y="147.103"/><use x="465.834" xlink:href="#mfd23d3c377" y="147.445"/><use x="469.181" xlink:href="#mfd23d3c377" y="146.81"/><use x="472.527" xlink:href="#mfd23d3c377" y="146.956"/><use x="475.874" xlink:href="#mfd23d3c377" y="142.483"/><use x="479.22" xlink:href="#mfd23d3c377" y="142.116"/><use x="482.567" xlink:href="#mfd23d3c377" y="142.483"/><use x="485.913" xlink:href="#mfd23d3c377" y="141.408"/><use x="489.26" xlink:href="#mfd23d3c377" y="141.334"/><use x="492.606" xlink:href="#mfd23d3c377" y="141.114"/><use x="495.953" xlink:href="#mfd23d3c377" y="141.212"/><use x="499.299" xlink:href="#mfd23d3c377" y="140.381"/><use x="502.646" xlink:href="#mfd23d3c377" y="137.57"/><use x="505.992" xlink:href="#mfd23d3c377" y="137.105"/><use x="509.338" xlink:href="#mfd23d3c377" y="137.374"/><use x="512.685" xlink:href="#mfd23d3c377" y="136.201"/><use x="516.031" xlink:href="#mfd23d3c377" y="135.883"/><use x="519.378" xlink:href="#mfd23d3c377" y="135.516"/><use x="522.724" xlink:href="#mfd23d3c377" y="136.054"/><use x="526.071" xlink:href="#mfd23d3c377" y="135.125"/><use x="529.417" xlink:href="#mfd23d3c377" y="134.881"/><use x="532.764" xlink:href="#mfd23d3c377" y="134.587"/><use x="536.11" xlink:href="#mfd23d3c377" y="128.598"/><use x="539.457" xlink:href="#mfd23d3c377" y="131.19"/><use x="542.803" xlink:href="#mfd23d3c377" y="130.921"/><use x="546.15" xlink:href="#mfd23d3c377" y="130.75"/><use x="549.496" xlink:href="#mfd23d3c377" y="127.694"/><use x="552.843" xlink:href="#mfd23d3c377" y="124.027"/><use x="556.189" xlink:href="#mfd23d3c377" y="126.985"/><use x="559.536" xlink:href="#mfd23d3c377" y="126.203"/><use x="562.882" xlink:href="#mfd23d3c377" y="126.765"/><use x="566.229" xlink:href="#mfd23d3c377" y="125.885"/><use x="569.575" xlink:href="#mfd23d3c377" y="126.741"/><use x="572.922" xlink:href="#mfd23d3c377" y="127.621"/><use x="576.268" xlink:href="#mfd23d3c377" y="128.525"/><use x="579.615" xlink:href="#mfd23d3c377" y="127.89"/><use x="582.961" xlink:href="#mfd23d3c377" y="127.523"/><use x="586.308" xlink:href="#mfd23d3c377" y="127.083"/><use x="589.654" xlink:href="#mfd23d3c377" y="127.034"/><use x="593.001" xlink:href="#mfd23d3c377" y="129.038"/><use x="596.347" xlink:href="#mfd23d3c377" y="129.967"/><use x="599.694" xlink:href="#mfd23d3c377" y="128.354"/><use x="603.04" xlink:href="#mfd23d3c377" y="128.794"/><use x="606.387" xlink:href="#mfd23d3c377" y="117.843"/><use x="609.733" xlink:href="#mfd23d3c377" y="119.823"/><use x="613.08" xlink:href="#mfd23d3c377" y="119.407"/><use x="616.426" xlink:href="#mfd23d3c377" y="119.774"/><use x="619.773" xlink:href="#mfd23d3c377" y="119.432"/><use x="623.119" xlink:href="#mfd23d3c377" y="118.087"/><use x="626.465" xlink:href="#mfd23d3c377" y="121.558"/><use x="629.812" xlink:href="#mfd23d3c377" y="121.436"/><use x="633.158" xlink:href="#mfd23d3c377" y="118.478"/><use x="636.505" xlink:href="#mfd23d3c377" y="114.714"/><use x="639.851" xlink:href="#mfd23d3c377" y="114.934"/><use x="643.198" xlink:href="#mfd23d3c377" y="117.232"/><use x="646.544" xlink:href="#mfd23d3c377" y="117.305"/><use x="649.891" xlink:href="#mfd23d3c377" y="116.547"/><use x="653.237" xlink:href="#mfd23d3c377" y="116.572"/><use x="656.584" xlink:href="#mfd23d3c377" y="116.205"/><use x="659.93" xlink:href="#mfd23d3c377" y="115.74"/><use x="663.277" xlink:href="#mfd23d3c377" y="116.792"/><use x="666.623" xlink:href="#mfd23d3c377" y="117.207"/><use x="669.97" xlink:href="#mfd23d3c377" y="117.036"/><use x="673.316" xlink:href="#mfd23d3c377" y="116.645"/><use x="676.663" xlink:href="#mfd23d3c377" y="115.838"/><use x="680.009" xlink:href="#mfd23d3c377" y="117.281"/><use x="683.356" xlink:href="#mfd23d3c377" y="116.841"/><use x="686.702" xlink:href="#mfd23d3c377" y="116.132"/><use x="690.049" xlink:href="#mfd23d3c377" y="114.738"/><use x="693.395" xlink:href="#mfd23d3c377" y="113.003"/><use x="696.742" xlink:href="#mfd23d3c377" y="111.756"/><use x="700.088" xlink:href="#mfd23d3c377" y="110.069"/><use x="703.435" xlink:href="#mfd23d3c377" y="107.723"/><use x="706.781" xlink:href="#mfd23d3c377" y="108.603"/><use x="710.128" xlink:href="#mfd23d3c377" y="107.234"/><use x="713.474" xlink:href="#mfd23d3c377" y="107.087"/><use x="716.821" xlink:href="#mfd23d3c377" y="106.574"/><use x="720.167" xlink:href="#mfd23d3c377" y="106.109"/><use x="723.514" xlink:href="#mfd23d3c377" y="104.007"/><use x="726.86" xlink:href="#mfd23d3c377" y="103.787"/><use x="730.207" xlink:href="#mfd23d3c377" y="104.154"/><use x="733.553" xlink:href="#mfd23d3c377" y="100.487"/><use x="736.899" xlink:href="#mfd23d3c377" y="97.529"/><use x="740.246" xlink:href="#mfd23d3c377" y="96.062"/><use x="743.592" xlink:href="#mfd23d3c377" y="95.011"/><use x="746.939" xlink:href="#mfd23d3c377" y="91.002"/><use x="750.285" xlink:href="#mfd23d3c377" y="89.853"/><use x="753.632" xlink:href="#mfd23d3c377" y="88.338"/><use x="756.978" xlink:href="#mfd23d3c377" y="87.58"/><use x="760.325" xlink:href="#mfd23d3c377" y="86.333"/><use x="763.671" xlink:href="#mfd23d3c377" y="85.453"/><use x="767.018" xlink:href="#mfd23d3c377" y="85.209"/><use x="770.364" xlink:href="#mfd23d3c377" y="82.129"/><use x="773.711" xlink:href="#mfd23d3c377" y="82.691"/><use x="777.057" xlink:href="#mfd23d3c377" y="81.738"/><use x="780.404" xlink:href="#mfd23d3c377" y="81.298"/><use x="783.75" xlink:href="#mfd23d3c377" y="80.467"/><use x="787.097" xlink:href="#mfd23d3c377" y="78.438"/><use x="790.443" xlink:href="#mfd23d3c377" y="76.775"/><use x="793.79" xlink:href="#mfd23d3c377" y="70.664"/><use x="797.136" xlink:href="#mfd23d3c377" y="67.12"/><use x="800.483" xlink:href="#mfd23d3c377" y="67.926"/><use x="803.829" xlink:href="#mfd23d3c377" y="66.655"/><use x="807.176" xlink:href="#mfd23d3c377" y="64.798"/><use x="810.522" xlink:href="#mfd23d3c377" y="57.757"/><use x="813.869" xlink:href="#mfd23d3c377" y="61.106"/><use x="817.215" xlink:href="#mfd23d3c377" y="60.129"/><use x="820.562" xlink:href="#mfd23d3c377" y="58.222"/><use x="823.908" xlink:href="#mfd23d3c377" y="56.022"/><use x="827.255" xlink:href="#mfd23d3c377" y="55.949"/><use x="830.601" xlink:href="#mfd23d3c377" y="58.295"/><use x="833.948" xlink:href="#mfd23d3c377" y="57.122"/><use x="837.294" xlink:href="#mfd23d3c377" y="56.291"/><use x="840.641" xlink:href="#mfd23d3c377" y="54.115"/><use x="843.987" xlink:href="#mfd23d3c377" y="53.382"/><use x="847.334" xlink:href="#mfd23d3c377" y="52.673"/><use x="850.68" xlink:href="#mfd23d3c377" y="50.962"/></g></g><g id="line2d_140"><path clip-path="url(#p74d9dedb55)" d="M 50.87 499.621527 L 54.216485 501.454887 L 57.562971 500.623764 L 64.255941 500.770433 L 67.602427 500.697098 L 70.948912 500.134868 L 74.295397 499.93931 L 80.988368 499.230411 L 84.334854 498.472622 L 87.681339 498.10595 L 91.027824 498.130395 L 94.37431 498.301508 L 97.720795 497.910392 L 104.413766 498.10595 L 107.760251 496.492594 L 111.106736 495.392578 L 114.453222 495.808139 L 124.492678 495.808139 L 127.839163 496.541483 L 131.185649 496.834821 L 134.532134 495.808139 L 144.57159 495.808139 L 147.918075 494.072559 L 151.264561 490.45473 L 154.611046 490.381395 L 157.957531 491.945862 L 161.304017 491.432521 L 164.650502 491.701414 L 171.343473 491.848083 L 174.689958 491.261408 L 178.036444 491.041405 L 181.382929 489.696941 L 188.0759 489.868055 L 191.422385 489.28138 L 194.76887 489.134711 L 198.115356 489.525828 L 201.461841 489.403604 L 204.808326 488.914708 L 208.154812 486.959124 L 211.501297 489.599162 L 214.847782 487.008014 L 218.194268 487.032459 L 221.540753 487.570244 L 228.233724 487.399131 L 234.926695 486.568008 L 241.619665 486.616897 L 244.966151 485.907998 L 248.312636 485.66355 L 255.005607 485.590216 L 258.352092 485.125765 L 261.698577 485.296878 L 265.045063 486.421339 L 268.391548 483.219071 L 271.738033 482.1435 L 275.084519 480.945705 L 278.431004 480.945705 L 281.77749 480.236806 L 285.123975 479.919024 L 288.47046 479.74791 L 291.816946 477.303431 L 295.163431 478.525671 L 298.509916 478.036775 L 301.856402 476.912314 L 305.202887 476.594532 L 308.549372 475.836743 L 311.895858 471.925576 L 315.242343 471.118898 L 318.588828 471.216677 L 321.935314 469.945548 L 325.281799 468.429971 L 328.628285 468.136633 L 331.97477 468.258857 L 335.321255 466.596611 L 338.667741 465.398816 L 342.014226 464.836586 L 348.707197 463.149895 L 352.053682 461.878766 L 355.400167 459.165394 L 358.746653 459.507621 L 362.093138 458.652053 L 365.439623 457.332035 L 368.786109 455.327562 L 372.132594 455.620899 L 378.825565 453.567536 L 382.17205 452.320852 L 385.518536 452.345297 L 392.211506 450.2186 L 395.557992 448.678578 L 398.904477 449.265253 L 402.250962 448.94747 L 405.597448 447.627452 L 408.943933 445.696313 L 412.290418 446.234098 L 415.636904 445.085193 L 418.983389 443.667395 L 422.329874 442.738493 L 425.67636 441.931815 L 429.022845 440.905133 L 432.369331 417.780359 L 435.715816 405.289069 L 439.062301 356.203924 L 442.408787 305.358754 L 445.755272 216.40415 L 449.101757 148.007618 L 452.448243 148.37429 L 455.794728 147.689836 L 459.141213 146.492041 L 462.487699 145.856476 L 465.834184 146.052035 L 469.180669 145.41647 L 472.527155 144.634237 L 475.87364 141.089742 L 482.566611 140.943073 L 485.913096 140.234174 L 489.259582 140.11195 L 492.606067 139.769723 L 495.952552 139.989726 L 499.299038 137.300799 L 502.645523 136.934127 L 505.992008 135.883001 L 509.338494 136.005225 L 512.684979 135.051878 L 519.37795 134.269644 L 522.724435 134.660761 L 526.070921 133.854083 L 529.417406 133.707414 L 532.763891 130.431812 L 536.110377 126.080639 L 539.456862 128.867345 L 542.803347 129.698468 L 546.149833 127.889553 L 549.496318 125.542853 L 552.842803 122.731702 L 556.189289 124.002831 L 559.535774 125.029512 L 562.882259 125.493963 L 566.228745 124.736175 L 569.57523 125.27396 L 572.921715 124.271724 L 576.268201 127.278433 L 579.614686 126.44731 L 582.961172 126.325086 L 586.307657 125.689522 L 589.654142 125.689522 L 593.000628 127.596216 L 596.347113 128.647342 L 599.693598 127.009541 L 603.040084 116.547169 L 606.386569 116.44939 L 609.733054 117.793854 L 616.426025 118.527197 L 619.77251 118.136081 L 623.118996 116.767172 L 626.465481 118.649421 L 629.811967 120.262778 L 636.504937 112.464889 L 639.851423 113.516015 L 643.197908 113.931576 L 646.544393 115.960494 L 649.890879 115.27604 L 653.237364 115.398264 L 656.583849 114.811589 L 663.27682 114.542696 L 666.623305 115.88716 L 669.969791 115.78938 L 673.316276 115.324929 L 676.662762 114.567141 L 680.009247 115.78938 L 683.355732 115.642712 L 686.702218 114.958258 L 693.395188 110.093744 L 696.741674 109.018173 L 700.088159 108.822614 L 703.434644 106.427025 L 706.78113 106.940365 L 710.127615 105.79146 L 713.4741 105.131451 L 716.820586 105.131451 L 720.167071 104.61811 L 723.513556 102.711416 L 730.206527 102.051407 L 733.553013 98.65358 L 736.899498 96.135767 L 740.245983 94.644634 L 743.592469 89.609007 L 746.938954 88.191209 L 750.285439 88.582325 L 753.631925 87.042303 L 756.97841 86.284515 L 763.671381 83.791146 L 767.017866 83.791146 L 770.364351 80.735547 L 773.710837 81.273332 L 777.057322 80.246651 L 780.403808 79.097746 L 783.750293 79.12219 L 787.096778 76.995493 L 790.443264 72.448762 L 793.789749 69.295383 L 797.136234 64.748652 L 800.48272 66.313119 L 803.829205 65.237548 L 807.17569 59.517466 L 810.522176 55.801857 L 813.868661 57.366324 L 817.215146 58.710788 L 820.561632 56.828539 L 823.908117 54.652952 L 827.254603 54.579618 L 830.601088 55.312962 L 833.947573 55.532965 L 837.294059 54.775176 L 840.640544 52.599589 L 847.333515 51.010678 L 850.68 49.519545 L 850.68 49.519545" fill="none" stroke="#ff7f0e" stroke-linecap="square" stroke-width="1.5"/><defs><path d="M 0 1.5 C 0.397805 1.5 0.77937 1.341951 1.06066 1.06066 C 1.341951 0.77937 1.5 0.397805 1.5 0 C 1.5 -0.397805 1.341951 -0.77937 1.06066 -1.06066 C 0.77937 -1.341951 0.397805 -1.5 0 -1.5 C -0.397805 -1.5 -0.77937 -1.341951 -1.06066 -1.06066 C -1.341951 -0.77937 -1.5 -0.397805 -1.5 0 C -1.5 0.397805 -1.341951 0.77937 -1.06066 1.06066 C -0.77937 1.341951 -0.397805 1.5 0 1.5 z" id="mf7b048cd89" stroke="#ff7f0e"/></defs><g clip-path="url(#p74d9dedb55)" fill="#ff7f0e" stroke="#ff7f0e"><use x="50.87" xlink:href="#mf7b048cd89" y="499.622"/><use x="54.216" xlink:href="#mf7b048cd89" y="501.455"/><use x="57.563" xlink:href="#mf7b048cd89" y="500.624"/><use x="60.909" xlink:href="#mf7b048cd89" y="500.697"/><use x="64.256" xlink:href="#mf7b048cd89" y="500.77"/><use x="67.602" xlink:href="#mf7b048cd89" y="500.697"/><use x="70.949" xlink:href="#mf7b048cd89" y="500.135"/><use x="74.295" xlink:href="#mf7b048cd89" y="499.939"/><use x="77.642" xlink:href="#mf7b048cd89" y="499.597"/><use x="80.988" xlink:href="#mf7b048cd89" y="499.23"/><use x="84.335" xlink:href="#mf7b048cd89" y="498.473"/><use x="87.681" xlink:href="#mf7b048cd89" y="498.106"/><use x="91.028" xlink:href="#mf7b048cd89" y="498.13"/><use x="94.374" xlink:href="#mf7b048cd89" y="498.302"/><use x="97.721" xlink:href="#mf7b048cd89" y="497.91"/><use x="101.067" xlink:href="#mf7b048cd89" y="498.033"/><use x="104.414" xlink:href="#mf7b048cd89" y="498.106"/><use x="107.76" xlink:href="#mf7b048cd89" y="496.493"/><use x="111.107" xlink:href="#mf7b048cd89" y="495.393"/><use x="114.453" xlink:href="#mf7b048cd89" y="495.808"/><use x="117.8" xlink:href="#mf7b048cd89" y="495.833"/><use x="121.146" xlink:href="#mf7b048cd89" y="495.833"/><use x="124.493" xlink:href="#mf7b048cd89" y="495.808"/><use x="127.839" xlink:href="#mf7b048cd89" y="496.541"/><use x="131.186" xlink:href="#mf7b048cd89" y="496.835"/><use x="134.532" xlink:href="#mf7b048cd89" y="495.808"/><use x="137.879" xlink:href="#mf7b048cd89" y="495.808"/><use x="141.225" xlink:href="#mf7b048cd89" y="495.833"/><use x="144.572" xlink:href="#mf7b048cd89" y="495.808"/><use x="147.918" xlink:href="#mf7b048cd89" y="494.073"/><use x="151.265" xlink:href="#mf7b048cd89" y="490.455"/><use x="154.611" xlink:href="#mf7b048cd89" y="490.381"/><use x="157.958" xlink:href="#mf7b048cd89" y="491.946"/><use x="161.304" xlink:href="#mf7b048cd89" y="491.433"/><use x="164.651" xlink:href="#mf7b048cd89" y="491.701"/><use x="167.997" xlink:href="#mf7b048cd89" y="491.824"/><use x="171.343" xlink:href="#mf7b048cd89" y="491.848"/><use x="174.69" xlink:href="#mf7b048cd89" y="491.261"/><use x="178.036" xlink:href="#mf7b048cd89" y="491.041"/><use x="181.383" xlink:href="#mf7b048cd89" y="489.697"/><use x="184.729" xlink:href="#mf7b048cd89" y="489.819"/><use x="188.076" xlink:href="#mf7b048cd89" y="489.868"/><use x="191.422" xlink:href="#mf7b048cd89" y="489.281"/><use x="194.769" xlink:href="#mf7b048cd89" y="489.135"/><use x="198.115" xlink:href="#mf7b048cd89" y="489.526"/><use x="201.462" xlink:href="#mf7b048cd89" y="489.404"/><use x="204.808" xlink:href="#mf7b048cd89" y="488.915"/><use x="208.155" xlink:href="#mf7b048cd89" y="486.959"/><use x="211.501" xlink:href="#mf7b048cd89" y="489.599"/><use x="214.848" xlink:href="#mf7b048cd89" y="487.008"/><use x="218.194" xlink:href="#mf7b048cd89" y="487.032"/><use x="221.541" xlink:href="#mf7b048cd89" y="487.57"/><use x="224.887" xlink:href="#mf7b048cd89" y="487.448"/><use x="228.234" xlink:href="#mf7b048cd89" y="487.399"/><use x="231.58" xlink:href="#mf7b048cd89" y="486.935"/><use x="234.927" xlink:href="#mf7b048cd89" y="486.568"/><use x="238.273" xlink:href="#mf7b048cd89" y="486.568"/><use x="241.62" xlink:href="#mf7b048cd89" y="486.617"/><use x="244.966" xlink:href="#mf7b048cd89" y="485.908"/><use x="248.313" xlink:href="#mf7b048cd89" y="485.664"/><use x="251.659" xlink:href="#mf7b048cd89" y="485.664"/><use x="255.006" xlink:href="#mf7b048cd89" y="485.59"/><use x="258.352" xlink:href="#mf7b048cd89" y="485.126"/><use x="261.699" xlink:href="#mf7b048cd89" y="485.297"/><use x="265.045" xlink:href="#mf7b048cd89" y="486.421"/><use x="268.392" xlink:href="#mf7b048cd89" y="483.219"/><use x="271.738" xlink:href="#mf7b048cd89" y="482.144"/><use x="275.085" xlink:href="#mf7b048cd89" y="480.946"/><use x="278.431" xlink:href="#mf7b048cd89" y="480.946"/><use x="281.777" xlink:href="#mf7b048cd89" y="480.237"/><use x="285.124" xlink:href="#mf7b048cd89" y="479.919"/><use x="288.47" xlink:href="#mf7b048cd89" y="479.748"/><use x="291.817" xlink:href="#mf7b048cd89" y="477.303"/><use x="295.163" xlink:href="#mf7b048cd89" y="478.526"/><use x="298.51" xlink:href="#mf7b048cd89" y="478.037"/><use x="301.856" xlink:href="#mf7b048cd89" y="476.912"/><use x="305.203" xlink:href="#mf7b048cd89" y="476.595"/><use x="308.549" xlink:href="#mf7b048cd89" y="475.837"/><use x="311.896" xlink:href="#mf7b048cd89" y="471.926"/><use x="315.242" xlink:href="#mf7b048cd89" y="471.119"/><use x="318.589" xlink:href="#mf7b048cd89" y="471.217"/><use x="321.935" xlink:href="#mf7b048cd89" y="469.946"/><use x="325.282" xlink:href="#mf7b048cd89" y="468.43"/><use x="328.628" xlink:href="#mf7b048cd89" y="468.137"/><use x="331.975" xlink:href="#mf7b048cd89" y="468.259"/><use x="335.321" xlink:href="#mf7b048cd89" y="466.597"/><use x="338.668" xlink:href="#mf7b048cd89" y="465.399"/><use x="342.014" xlink:href="#mf7b048cd89" y="464.837"/><use x="345.361" xlink:href="#mf7b048cd89" y="464.03"/><use x="348.707" xlink:href="#mf7b048cd89" y="463.15"/><use x="352.054" xlink:href="#mf7b048cd89" y="461.879"/><use x="355.4" xlink:href="#mf7b048cd89" y="459.165"/><use x="358.747" xlink:href="#mf7b048cd89" y="459.508"/><use x="362.093" xlink:href="#mf7b048cd89" y="458.652"/><use x="365.44" xlink:href="#mf7b048cd89" y="457.332"/><use x="368.786" xlink:href="#mf7b048cd89" y="455.328"/><use x="372.133" xlink:href="#mf7b048cd89" y="455.621"/><use x="375.479" xlink:href="#mf7b048cd89" y="454.594"/><use x="378.826" xlink:href="#mf7b048cd89" y="453.568"/><use x="382.172" xlink:href="#mf7b048cd89" y="452.321"/><use x="385.519" xlink:href="#mf7b048cd89" y="452.345"/><use x="388.865" xlink:href="#mf7b048cd89" y="451.294"/><use x="392.212" xlink:href="#mf7b048cd89" y="450.219"/><use x="395.558" xlink:href="#mf7b048cd89" y="448.679"/><use x="398.904" xlink:href="#mf7b048cd89" y="449.265"/><use x="402.251" xlink:href="#mf7b048cd89" y="448.947"/><use x="405.597" xlink:href="#mf7b048cd89" y="447.627"/><use x="408.944" xlink:href="#mf7b048cd89" y="445.696"/><use x="412.29" xlink:href="#mf7b048cd89" y="446.234"/><use x="415.637" xlink:href="#mf7b048cd89" y="445.085"/><use x="418.983" xlink:href="#mf7b048cd89" y="443.667"/><use x="422.33" xlink:href="#mf7b048cd89" y="442.738"/><use x="425.676" xlink:href="#mf7b048cd89" y="441.932"/><use x="429.023" xlink:href="#mf7b048cd89" y="440.905"/><use x="432.369" xlink:href="#mf7b048cd89" y="417.78"/><use x="435.716" xlink:href="#mf7b048cd89" y="405.289"/><use x="439.062" xlink:href="#mf7b048cd89" y="356.204"/><use x="442.409" xlink:href="#mf7b048cd89" y="305.359"/><use x="445.755" xlink:href="#mf7b048cd89" y="216.404"/><use x="449.102" xlink:href="#mf7b048cd89" y="148.008"/><use x="452.448" xlink:href="#mf7b048cd89" y="148.374"/><use x="455.795" xlink:href="#mf7b048cd89" y="147.69"/><use x="459.141" xlink:href="#mf7b048cd89" y="146.492"/><use x="462.488" xlink:href="#mf7b048cd89" y="145.856"/><use x="465.834" xlink:href="#mf7b048cd89" y="146.052"/><use x="469.181" xlink:href="#mf7b048cd89" y="145.416"/><use x="472.527" xlink:href="#mf7b048cd89" y="144.634"/><use x="475.874" xlink:href="#mf7b048cd89" y="141.09"/><use x="479.22" xlink:href="#mf7b048cd89" y="141.016"/><use x="482.567" xlink:href="#mf7b048cd89" y="140.943"/><use x="485.913" xlink:href="#mf7b048cd89" y="140.234"/><use x="489.26" xlink:href="#mf7b048cd89" y="140.112"/><use x="492.606" xlink:href="#mf7b048cd89" y="139.77"/><use x="495.953" xlink:href="#mf7b048cd89" y="139.99"/><use x="499.299" xlink:href="#mf7b048cd89" y="137.301"/><use x="502.646" xlink:href="#mf7b048cd89" y="136.934"/><use x="505.992" xlink:href="#mf7b048cd89" y="135.883"/><use x="509.338" xlink:href="#mf7b048cd89" y="136.005"/><use x="512.685" xlink:href="#mf7b048cd89" y="135.052"/><use x="516.031" xlink:href="#mf7b048cd89" y="134.661"/><use x="519.378" xlink:href="#mf7b048cd89" y="134.27"/><use x="522.724" xlink:href="#mf7b048cd89" y="134.661"/><use x="526.071" xlink:href="#mf7b048cd89" y="133.854"/><use x="529.417" xlink:href="#mf7b048cd89" y="133.707"/><use x="532.764" xlink:href="#mf7b048cd89" y="130.432"/><use x="536.11" xlink:href="#mf7b048cd89" y="126.081"/><use x="539.457" xlink:href="#mf7b048cd89" y="128.867"/><use x="542.803" xlink:href="#mf7b048cd89" y="129.698"/><use x="546.15" xlink:href="#mf7b048cd89" y="127.89"/><use x="549.496" xlink:href="#mf7b048cd89" y="125.543"/><use x="552.843" xlink:href="#mf7b048cd89" y="122.732"/><use x="556.189" xlink:href="#mf7b048cd89" y="124.003"/><use x="559.536" xlink:href="#mf7b048cd89" y="125.03"/><use x="562.882" xlink:href="#mf7b048cd89" y="125.494"/><use x="566.229" xlink:href="#mf7b048cd89" y="124.736"/><use x="569.575" xlink:href="#mf7b048cd89" y="125.274"/><use x="572.922" xlink:href="#mf7b048cd89" y="124.272"/><use x="576.268" xlink:href="#mf7b048cd89" y="127.278"/><use x="579.615" xlink:href="#mf7b048cd89" y="126.447"/><use x="582.961" xlink:href="#mf7b048cd89" y="126.325"/><use x="586.308" xlink:href="#mf7b048cd89" y="125.69"/><use x="589.654" xlink:href="#mf7b048cd89" y="125.69"/><use x="593.001" xlink:href="#mf7b048cd89" y="127.596"/><use x="596.347" xlink:href="#mf7b048cd89" y="128.647"/><use x="599.694" xlink:href="#mf7b048cd89" y="127.01"/><use x="603.04" xlink:href="#mf7b048cd89" y="116.547"/><use x="606.387" xlink:href="#mf7b048cd89" y="116.449"/><use x="609.733" xlink:href="#mf7b048cd89" y="117.794"/><use x="613.08" xlink:href="#mf7b048cd89" y="118.185"/><use x="616.426" xlink:href="#mf7b048cd89" y="118.527"/><use x="619.773" xlink:href="#mf7b048cd89" y="118.136"/><use x="623.119" xlink:href="#mf7b048cd89" y="116.767"/><use x="626.465" xlink:href="#mf7b048cd89" y="118.649"/><use x="629.812" xlink:href="#mf7b048cd89" y="120.263"/><use x="633.158" xlink:href="#mf7b048cd89" y="116.303"/><use x="636.505" xlink:href="#mf7b048cd89" y="112.465"/><use x="639.851" xlink:href="#mf7b048cd89" y="113.516"/><use x="643.198" xlink:href="#mf7b048cd89" y="113.932"/><use x="646.544" xlink:href="#mf7b048cd89" y="115.96"/><use x="649.891" xlink:href="#mf7b048cd89" y="115.276"/><use x="653.237" xlink:href="#mf7b048cd89" y="115.398"/><use x="656.584" xlink:href="#mf7b048cd89" y="114.812"/><use x="659.93" xlink:href="#mf7b048cd89" y="114.64"/><use x="663.277" xlink:href="#mf7b048cd89" y="114.543"/><use x="666.623" xlink:href="#mf7b048cd89" y="115.887"/><use x="669.97" xlink:href="#mf7b048cd89" y="115.789"/><use x="673.316" xlink:href="#mf7b048cd89" y="115.325"/><use x="676.663" xlink:href="#mf7b048cd89" y="114.567"/><use x="680.009" xlink:href="#mf7b048cd89" y="115.789"/><use x="683.356" xlink:href="#mf7b048cd89" y="115.643"/><use x="686.702" xlink:href="#mf7b048cd89" y="114.958"/><use x="690.049" xlink:href="#mf7b048cd89" y="112.514"/><use x="693.395" xlink:href="#mf7b048cd89" y="110.094"/><use x="696.742" xlink:href="#mf7b048cd89" y="109.018"/><use x="700.088" xlink:href="#mf7b048cd89" y="108.823"/><use x="703.435" xlink:href="#mf7b048cd89" y="106.427"/><use x="706.781" xlink:href="#mf7b048cd89" y="106.94"/><use x="710.128" xlink:href="#mf7b048cd89" y="105.791"/><use x="713.474" xlink:href="#mf7b048cd89" y="105.131"/><use x="716.821" xlink:href="#mf7b048cd89" y="105.131"/><use x="720.167" xlink:href="#mf7b048cd89" y="104.618"/><use x="723.514" xlink:href="#mf7b048cd89" y="102.711"/><use x="726.86" xlink:href="#mf7b048cd89" y="102.345"/><use x="730.207" xlink:href="#mf7b048cd89" y="102.051"/><use x="733.553" xlink:href="#mf7b048cd89" y="98.654"/><use x="736.899" xlink:href="#mf7b048cd89" y="96.136"/><use x="740.246" xlink:href="#mf7b048cd89" y="94.645"/><use x="743.592" xlink:href="#mf7b048cd89" y="89.609"/><use x="746.939" xlink:href="#mf7b048cd89" y="88.191"/><use x="750.285" xlink:href="#mf7b048cd89" y="88.582"/><use x="753.632" xlink:href="#mf7b048cd89" y="87.042"/><use x="756.978" xlink:href="#mf7b048cd89" y="86.285"/><use x="760.325" xlink:href="#mf7b048cd89" y="84.989"/><use x="763.671" xlink:href="#mf7b048cd89" y="83.791"/><use x="767.018" xlink:href="#mf7b048cd89" y="83.791"/><use x="770.364" xlink:href="#mf7b048cd89" y="80.736"/><use x="773.711" xlink:href="#mf7b048cd89" y="81.273"/><use x="777.057" xlink:href="#mf7b048cd89" y="80.247"/><use x="780.404" xlink:href="#mf7b048cd89" y="79.098"/><use x="783.75" xlink:href="#mf7b048cd89" y="79.122"/><use x="787.097" xlink:href="#mf7b048cd89" y="76.995"/><use x="790.443" xlink:href="#mf7b048cd89" y="72.449"/><use x="793.79" xlink:href="#mf7b048cd89" y="69.295"/><use x="797.136" xlink:href="#mf7b048cd89" y="64.749"/><use x="800.483" xlink:href="#mf7b048cd89" y="66.313"/><use x="803.829" xlink:href="#mf7b048cd89" y="65.238"/><use x="807.176" xlink:href="#mf7b048cd89" y="59.517"/><use x="810.522" xlink:href="#mf7b048cd89" y="55.802"/><use x="813.869" xlink:href="#mf7b048cd89" y="57.366"/><use x="817.215" xlink:href="#mf7b048cd89" y="58.711"/><use x="820.562" xlink:href="#mf7b048cd89" y="56.829"/><use x="823.908" xlink:href="#mf7b048cd89" y="54.653"/><use x="827.255" xlink:href="#mf7b048cd89" y="54.58"/><use x="830.601" xlink:href="#mf7b048cd89" y="55.313"/><use x="833.948" xlink:href="#mf7b048cd89" y="55.533"/><use x="837.294" xlink:href="#mf7b048cd89" y="54.775"/><use x="840.641" xlink:href="#mf7b048cd89" y="52.6"/><use x="843.987" xlink:href="#mf7b048cd89" y="51.817"/><use x="847.334" xlink:href="#mf7b048cd89" y="51.011"/><use x="850.68" xlink:href="#mf7b048cd89" y="49.52"/></g></g><path d="M 50.87 524.95 L 50.87 26.88" fill="none" stroke="#000" stroke-linecap="square" stroke-width=".8" id="patch_3"/><path d="M 850.68 524.95 L 850.68 26.88" fill="none" stroke="#000" stroke-linecap="square" stroke-width=".8" id="patch_4"/><path d="M 50.87 524.95 L 850.68 524.95" fill="none" stroke="#000" stroke-linecap="square" stroke-width=".8" id="patch_5"/><path d="M 50.87 26.88 L 850.68 26.88" fill="none" stroke="#000" stroke-linecap="square" stroke-width=".8" id="patch_6"/><g id="text_72"><defs><path d="M 19.671875 64.796875 L 19.671875 37.40625 L 32.078125 37.40625 Q 38.96875 37.40625 42.71875 40.96875 Q 46.484375 44.53125 46.484375 51.125 Q 46.484375 57.671875 42.71875 61.234375 Q 38.96875 64.796875 32.078125 64.796875 z M 9.8125 72.90625 L 32.078125 72.90625 Q 44.34375 72.90625 50.609375 67.359375 Q 56.890625 61.8125 56.890625 51.125 Q 56.890625 40.328125 50.609375 34.8125 Q 44.34375 29.296875 32.078125 29.296875 L 19.671875 29.296875 L 19.671875 0 L 9.8125 0 z" id="DejaVuSans-80"/><path d="M -0.296875 72.90625 L 61.375 72.90625 L 61.375 64.59375 L 35.5 64.59375 L 35.5 0 L 25.59375 0 L 25.59375 64.59375 L -0.296875 64.59375 z" id="DejaVuSans-84"/><path d="M 9.8125 72.90625 L 24.515625 72.90625 L 43.109375 23.296875 L 61.8125 72.90625 L 76.515625 72.90625 L 76.515625 0 L 66.890625 0 L 66.890625 64.015625 L 48.09375 14.015625 L 38.1875 14.015625 L 19.390625 64.015625 L 19.390625 0 L 9.8125 0 z" id="DejaVuSans-77"/><path d="M 34.28125 27.484375 Q 23.390625 27.484375 19.1875 25 Q 14.984375 22.515625 14.984375 16.5 Q 14.984375 11.71875 18.140625 8.90625 Q 21.296875 6.109375 26.703125 6.109375 Q 34.1875 6.109375 38.703125 11.40625 Q 43.21875 16.703125 43.21875 25.484375 L 43.21875 27.484375 z M 52.203125 31.203125 L 52.203125 0 L 43.21875 0 L 43.21875 8.296875 Q 40.140625 3.328125 35.546875 0.953125 Q 30.953125 -1.421875 24.3125 -1.421875 Q 15.921875 -1.421875 10.953125 3.296875 Q 6 8.015625 6 15.921875 Q 6 25.140625 12.171875 29.828125 Q 18.359375 34.515625 30.609375 34.515625 L 43.21875 34.515625 L 43.21875 35.40625 Q 43.21875 41.609375 39.140625 45 Q 35.0625 48.390625 27.6875 48.390625 Q 23 48.390625 18.546875 47.265625 Q 14.109375 46.140625 10.015625 43.890625 L 10.015625 52.203125 Q 14.9375 54.109375 19.578125 55.046875 Q 24.21875 56 28.609375 56 Q 40.484375 56 46.34375 49.84375 Q 52.203125 43.703125 52.203125 31.203125 z" id="DejaVuSans-97"/><path d="M 9.078125 75.984375 L 18.109375 75.984375 L 18.109375 31.109375 L 44.921875 54.6875 L 56.390625 54.6875 L 27.390625 29.109375 L 57.625 0 L 45.90625 0 L 18.109375 26.703125 L 18.109375 0 L 9.078125 0 z" id="DejaVuSans-107"/><path d="M 44.390625 34.1875 Q 47.5625 33.109375 50.5625 29.59375 Q 53.5625 26.078125 56.59375 19.921875 L 66.609375 0 L 56 0 L 46.6875 18.703125 Q 43.0625 26.03125 39.671875 28.421875 Q 36.28125 30.8125 30.421875 30.8125 L 19.671875 30.8125 L 19.671875 0 L 9.8125 0 L 9.8125 72.90625 L 32.078125 72.90625 Q 44.578125 72.90625 50.734375 67.671875 Q 56.890625 62.453125 56.890625 51.90625 Q 56.890625 45.015625 53.6875 40.46875 Q 50.484375 35.9375 44.390625 34.1875 z M 19.671875 64.796875 L 19.671875 38.921875 L 32.078125 38.921875 Q 39.203125 38.921875 42.84375 42.21875 Q 46.484375 45.515625 46.484375 51.90625 Q 46.484375 58.296875 42.84375 61.546875 Q 39.203125 64.796875 32.078125 64.796875 z" id="DejaVuSans-82"/><path d="M 45.40625 27.984375 Q 45.40625 37.75 41.375 43.109375 Q 37.359375 48.484375 30.078125 48.484375 Q 22.859375 48.484375 18.828125 43.109375 Q 14.796875 37.75 14.796875 27.984375 Q 14.796875 18.265625 18.828125 12.890625 Q 22.859375 7.515625 30.078125 7.515625 Q 37.359375 7.515625 41.375 12.890625 Q 45.40625 18.265625 45.40625 27.984375 z M 54.390625 6.78125 Q 54.390625 -7.171875 48.1875 -13.984375 Q 42 -20.796875 29.203125 -20.796875 Q 24.46875 -20.796875 20.265625 -20.09375 Q 16.0625 -19.390625 12.109375 -17.921875 L 12.109375 -9.1875 Q 16.0625 -11.328125 19.921875 -12.34375 Q 23.78125 -13.375 27.78125 -13.375 Q 36.625 -13.375 41.015625 -8.765625 Q 45.40625 -4.15625 45.40625 5.171875 L 45.40625 9.625 Q 42.625 4.78125 38.28125 2.390625 Q 33.9375 0 27.875 0 Q 17.828125 0 11.671875 7.65625 Q 5.515625 15.328125 5.515625 27.984375 Q 5.515625 40.671875 11.671875 48.328125 Q 17.828125 56 27.875 56 Q 33.9375 56 38.28125 53.609375 Q 42.625 51.21875 45.40625 46.390625 L 45.40625 54.6875 L 54.390625 54.6875 z" id="DejaVuSans-103"/><path d="M 11.71875 12.40625 L 22.015625 12.40625 L 22.015625 0 L 11.71875 0 z M 11.71875 51.703125 L 22.015625 51.703125 L 22.015625 39.3125 L 11.71875 39.3125 z" id="DejaVuSans-58"/><path d="M 34.1875 63.1875 L 20.796875 26.90625 L 47.609375 26.90625 z M 28.609375 72.90625 L 39.796875 72.90625 L 67.578125 0 L 57.328125 0 L 50.6875 18.703125 L 17.828125 18.703125 L 11.1875 0 L 0.78125 0 z" id="DejaVuSans-65"/><path d="M 31 75.875 Q 24.46875 64.65625 21.28125 53.65625 Q 18.109375 42.671875 18.109375 31.390625 Q 18.109375 20.125 21.3125 9.0625 Q 24.515625 -2 31 -13.1875 L 23.1875 -13.1875 Q 15.875 -1.703125 12.234375 9.375 Q 8.59375 20.453125 8.59375 31.390625 Q 8.59375 42.28125 12.203125 53.3125 Q 15.828125 64.359375 23.1875 75.875 z" id="DejaVuSans-40"/><path d="M 53.515625 70.515625 L 53.515625 60.890625 Q 47.90625 63.578125 42.921875 64.890625 Q 37.9375 66.21875 33.296875 66.21875 Q 25.25 66.21875 20.875 63.09375 Q 16.5 59.96875 16.5 54.203125 Q 16.5 49.359375 19.40625 46.890625 Q 22.3125 44.4375 30.421875 42.921875 L 36.375 41.703125 Q 47.40625 39.59375 52.65625 34.296875 Q 57.90625 29 57.90625 20.125 Q 57.90625 9.515625 50.796875 4.046875 Q 43.703125 -1.421875 29.984375 -1.421875 Q 24.8125 -1.421875 18.96875 -0.25 Q 13.140625 0.921875 6.890625 3.21875 L 6.890625 13.375 Q 12.890625 10.015625 18.65625 8.296875 Q 24.421875 6.59375 29.984375 6.59375 Q 38.421875 6.59375 43.015625 9.90625 Q 47.609375 13.234375 47.609375 19.390625 Q 47.609375 24.75 44.3125 27.78125 Q 41.015625 30.8125 33.5 32.328125 L 27.484375 33.5 Q 16.453125 35.6875 11.515625 40.375 Q 6.59375 45.0625 6.59375 53.421875 Q 6.59375 63.09375 13.40625 68.65625 Q 20.21875 74.21875 32.171875 74.21875 Q 37.3125 74.21875 42.625 73.28125 Q 47.953125 72.359375 53.515625 70.515625 z" id="DejaVuSans-83"/><path d="M 9.8125 72.90625 L 19.671875 72.90625 L 19.671875 42.09375 L 52.390625 72.90625 L 65.09375 72.90625 L 28.90625 38.921875 L 67.671875 0 L 54.6875 0 L 19.671875 35.109375 L 19.671875 0 L 9.8125 0 z" id="DejaVuSans-75"/><path d="M 6.296875 72.90625 L 16.890625 72.90625 L 35.015625 45.796875 L 53.21875 72.90625 L 63.8125 72.90625 L 40.375 37.890625 L 65.375 0 L 54.78125 0 L 34.28125 31 L 13.625 0 L 2.984375 0 L 29 38.921875 z" id="DejaVuSans-88"/><path d="M 8.015625 75.875 L 15.828125 75.875 Q 23.140625 64.359375 26.78125 53.3125 Q 30.421875 42.28125 30.421875 31.390625 Q 30.421875 20.453125 26.78125 9.375 Q 23.140625 -1.703125 15.828125 -13.1875 L 8.015625 -13.1875 Q 14.5 -2 17.703125 9.0625 Q 20.90625 20.125 20.90625 31.390625 Q 20.90625 42.671875 17.703125 53.65625 Q 14.5 64.65625 8.015625 75.875 z" id="DejaVuSans-41"/></defs><g transform="matrix(.12 0 0 -.12 323.942 20.88)"><use xlink:href="#DejaVuSans-84"/><use x="60.818" xlink:href="#DejaVuSans-101"/><use x="122.342" xlink:href="#DejaVuSans-115"/><use x="174.441" xlink:href="#DejaVuSans-116"/><use x="213.65" xlink:href="#DejaVuSans-32"/><use x="245.438" xlink:href="#DejaVuSans-50"/><use x="309.061" xlink:href="#DejaVuSans-55"/><use x="372.684" xlink:href="#DejaVuSans-58"/><use x="406.375" xlink:href="#DejaVuSans-32"/><use x="438.162" xlink:href="#DejaVuSans-77"/><use x="524.441" xlink:href="#DejaVuSans-97"/><use x="585.721" xlink:href="#DejaVuSans-115"/><use x="637.82" xlink:href="#DejaVuSans-107"/><use x="695.73" xlink:href="#DejaVuSans-32"/><use x="727.518" xlink:href="#DejaVuSans-82"/><use x="796.938" xlink:href="#DejaVuSans-101"/><use x="858.461" xlink:href="#DejaVuSans-103"/><use x="921.938" xlink:href="#DejaVuSans-105"/><use x="949.721" xlink:href="#DejaVuSans-115"/><use x="1001.82" xlink:href="#DejaVuSans-116"/><use x="1041.029" xlink:href="#DejaVuSans-101"/><use x="1102.553" xlink:href="#DejaVuSans-114"/><use x="1143.666" xlink:href="#DejaVuSans-32"/><use x="1175.453" xlink:href="#DejaVuSans-80"/><use x="1235.756" xlink:href="#DejaVuSans-82"/><use x="1305.238" xlink:href="#DejaVuSans-70"/><use x="1362.758" xlink:href="#DejaVuSans-32"/><use x="1394.545" xlink:href="#DejaVuSans-65"/><use x="1462.953" xlink:href="#DejaVuSans-110"/><use x="1526.332" xlink:href="#DejaVuSans-97"/><use x="1587.611" xlink:href="#DejaVuSans-108"/><use x="1615.395" xlink:href="#DejaVuSans-121"/><use x="1674.574" xlink:href="#DejaVuSans-115"/><use x="1726.674" xlink:href="#DejaVuSans-105"/><use x="1754.457" xlink:href="#DejaVuSans-115"/><use x="1806.557" xlink:href="#DejaVuSans-32"/><use x="1838.344" xlink:href="#DejaVuSans-40"/><use x="1877.357" xlink:href="#DejaVuSans-83"/><use x="1940.834" xlink:href="#DejaVuSans-75"/><use x="2006.41" xlink:href="#DejaVuSans-88"/><use x="2074.916" xlink:href="#DejaVuSans-41"/></g></g><g id="legend_1"><path d="M 57.87 64.23625 L 111.290312 64.23625 Q 113.290312 64.23625 113.290312 62.23625 L 113.290312 33.88 Q 113.290312 31.88 111.290312 31.88 L 57.87 31.88 Q 55.87 31.88 55.87 33.88 L 55.87 62.23625 Q 55.87 64.23625 57.87 64.23625 z" fill="#fff" opacity=".8" stroke="#ccc" id="patch_7"/><path d="M 59.87 39.978437 L 79.87 39.978437" fill="none" stroke="#1f77b4" stroke-linecap="square" stroke-width="1.5" id="line2d_141"/><use x="69.87" xlink:href="#mfd23d3c377" y="39.978" fill="#1f77b4" stroke="#1f77b4" id="line2d_142"/><g id="text_73"><defs><path d="M 9.8125 72.90625 L 23.09375 72.90625 L 55.421875 11.921875 L 55.421875 72.90625 L 64.984375 72.90625 L 64.984375 0 L 51.703125 0 L 19.390625 60.984375 L 19.390625 0 L 9.8125 0 z" id="DejaVuSans-78"/></defs><g transform="matrix(.1 0 0 -.1 87.87 43.478)"><use xlink:href="#DejaVuSans-77"/><use x="86.279" xlink:href="#DejaVuSans-73"/><use x="115.771" xlink:href="#DejaVuSans-78"/></g></g><path d="M 59.87 54.656562 L 79.87 54.656562" fill="none" stroke="#ff7f0e" stroke-linecap="square" stroke-width="1.5" id="line2d_143"/><use x="69.87" xlink:href="#mf7b048cd89" y="54.657" fill="#ff7f0e" stroke="#ff7f0e" id="line2d_144"/><g id="text_74"><defs><path d="M 28.609375 0 L 0.78125 72.90625 L 11.078125 72.90625 L 34.1875 11.53125 L 57.328125 72.90625 L 67.578125 72.90625 L 39.796875 0 z" id="DejaVuSans-86"/><path d="M 59.515625 10.40625 L 59.515625 29.984375 L 43.40625 29.984375 L 43.40625 38.09375 L 69.28125 38.09375 L 69.28125 6.78125 Q 63.578125 2.734375 56.6875 0.65625 Q 49.8125 -1.421875 42 -1.421875 Q 24.90625 -1.421875 15.25 8.5625 Q 5.609375 18.5625 5.609375 36.375 Q 5.609375 54.25 15.25 64.234375 Q 24.90625 74.21875 42 74.21875 Q 49.125 74.21875 55.546875 72.453125 Q 61.96875 70.703125 67.390625 67.28125 L 67.390625 56.78125 Q 61.921875 61.421875 55.765625 63.765625 Q 49.609375 66.109375 42.828125 66.109375 Q 29.4375 66.109375 22.71875 58.640625 Q 16.015625 51.171875 16.015625 36.375 Q 16.015625 21.625 22.71875 14.15625 Q 29.4375 6.6875 42.828125 6.6875 Q 48.046875 6.6875 52.140625 7.59375 Q 56.25 8.5 59.515625 10.40625 z" id="DejaVuSans-71"/></defs><g transform="matrix(.1 0 0 -.1 87.87 58.157)"><use xlink:href="#DejaVuSans-65"/><use x="68.314" xlink:href="#DejaVuSans-86"/><use x="136.723" xlink:href="#DejaVuSans-71"/></g></g></g></g></g><defs><clipPath id="p74d9dedb55"><path d="M50.87 26.88H850.68V524.95H50.87z"/></clipPath></defs></svg>