<?xml version="1.0" encoding="utf-8" standalone="no"?>
<!DOCTYPE svg PUBLIC "-//W3C//DTD SVG 1.1//EN"
  "http://www.w3.org/Graphics/SVG/1.1/DTD/svg11.dtd">
<!-- Created with matplotlib (https://matplotlib.org/) -->
<svg height="432pt" version="1.1" viewBox="0 0 648 432" width="648pt" xmlns="http://www.w3.org/2000/svg" xmlns:xlink="http://www.w3.org/1999/xlink">
 <defs>
  <style type="text/css">
*{stroke-linecap:butt;stroke-linejoin:round;}
  </style>
 </defs>
 <g id="figure_1">
  <g id="patch_1">
   <path d="M 0 432 
L 648 432 
L 648 0 
L 0 0 
z
" style="fill:#ffffff;"/>
  </g>
  <g id="axes_1">
   <g id="patch_2">
    <path d="M 77.33 389.32 
L 637.2 389.32 
L 637.2 25.44 
L 77.33 25.44 
z
" style="fill:#ffffff;"/>
   </g>
   <g id="patch_3">
    <path clip-path="url(#p2b8a11e210)" d="M 86.661167 389.32 
L 89.771556 389.32 
L 89.771556 389.244914 
L 86.661167 389.244914 
z
" style="fill:#1f77b4;"/>
   </g>
   <g id="patch_4">
    <path clip-path="url(#p2b8a11e210)" d="M 123.985833 389.32 
L 127.096222 389.32 
L 127.096222 389.218999 
L 123.985833 389.218999 
z
" style="fill:#1f77b4;"/>
   </g>
   <g id="patch_5">
    <path clip-path="url(#p2b8a11e210)" d="M 161.3105 389.32 
L 164.420889 389.32 
L 164.420889 389.158542 
L 161.3105 389.158542 
z
" style="fill:#1f77b4;"/>
   </g>
   <g id="patch_6">
    <path clip-path="url(#p2b8a11e210)" d="M 198.635167 389.32 
L 201.745556 389.32 
L 201.745556 389.117939 
L 198.635167 389.117939 
z
" style="fill:#1f77b4;"/>
   </g>
   <g id="patch_7">
    <path clip-path="url(#p2b8a11e210)" d="M 235.959833 389.32 
L 239.070222 389.32 
L 239.070222 389.002547 
L 235.959833 389.002547 
z
" style="fill:#1f77b4;"/>
   </g>
   <g id="patch_8">
    <path clip-path="url(#p2b8a11e210)" d="M 273.2845 389.32 
L 276.394889 389.32 
L 276.394889 388.903099 
L 273.2845 388.903099 
z
" style="fill:#1f77b4;"/>
   </g>
   <g id="patch_9">
    <path clip-path="url(#p2b8a11e210)" d="M 310.609167 389.32 
L 313.719556 389.32 
L 313.719556 388.819146 
L 310.609167 388.819146 
z
" style="fill:#1f77b4;"/>
   </g>
   <g id="patch_10">
    <path clip-path="url(#p2b8a11e210)" d="M 347.933833 389.32 
L 351.044222 389.32 
L 351.044222 388.676825 
L 347.933833 388.676825 
z
" style="fill:#1f77b4;"/>
   </g>
   <g id="patch_11">
    <path clip-path="url(#p2b8a11e210)" d="M 385.2585 389.32 
L 388.368889 389.32 
L 388.368889 388.574958 
L 385.2585 388.574958 
z
" style="fill:#1f77b4;"/>
   </g>
   <g id="patch_12">
    <path clip-path="url(#p2b8a11e210)" d="M 422.583167 389.32 
L 425.693556 389.32 
L 425.693556 388.48784 
L 422.583167 388.48784 
z
" style="fill:#1f77b4;"/>
   </g>
   <g id="patch_13">
    <path clip-path="url(#p2b8a11e210)" d="M 459.907833 389.32 
L 463.018222 389.32 
L 463.018222 388.42786 
L 459.907833 388.42786 
z
" style="fill:#1f77b4;"/>
   </g>
   <g id="patch_14">
    <path clip-path="url(#p2b8a11e210)" d="M 497.2325 389.32 
L 500.342889 389.32 
L 500.342889 388.362686 
L 497.2325 388.362686 
z
" style="fill:#1f77b4;"/>
   </g>
   <g id="patch_15">
    <path clip-path="url(#p2b8a11e210)" d="M 534.557167 389.32 
L 537.667556 389.32 
L 537.667556 388.261536 
L 534.557167 388.261536 
z
" style="fill:#1f77b4;"/>
   </g>
   <g id="patch_16">
    <path clip-path="url(#p2b8a11e210)" d="M 571.881833 389.32 
L 574.992222 389.32 
L 574.992222 388.17603 
L 571.881833 388.17603 
z
" style="fill:#1f77b4;"/>
   </g>
   <g id="patch_17">
    <path clip-path="url(#p2b8a11e210)" d="M 609.2065 389.32 
L 612.316889 389.32 
L 612.316889 388.101093 
L 609.2065 388.101093 
z
" style="fill:#1f77b4;"/>
   </g>
   <g id="patch_18">
    <path clip-path="url(#p2b8a11e210)" d="M 89.771556 389.32 
L 92.881944 389.32 
L 92.881944 389.310834 
L 89.771556 389.310834 
z
" style="fill:#ff7f0e;"/>
   </g>
   <g id="patch_19">
    <path clip-path="url(#p2b8a11e210)" d="M 127.096222 389.32 
L 130.206611 389.32 
L 130.206611 389.294444 
L 127.096222 389.294444 
z
" style="fill:#ff7f0e;"/>
   </g>
   <g id="patch_20">
    <path clip-path="url(#p2b8a11e210)" d="M 164.420889 389.32 
L 167.531278 389.32 
L 167.531278 389.288532 
L 164.420889 389.288532 
z
" style="fill:#ff7f0e;"/>
   </g>
   <g id="patch_21">
    <path clip-path="url(#p2b8a11e210)" d="M 201.745556 389.32 
L 204.855944 389.32 
L 204.855944 389.279755 
L 201.745556 389.279755 
z
" style="fill:#ff7f0e;"/>
   </g>
   <g id="patch_22">
    <path clip-path="url(#p2b8a11e210)" d="M 239.070222 389.32 
L 242.180611 389.32 
L 242.180611 389.243033 
L 239.070222 389.243033 
z
" style="fill:#ff7f0e;"/>
   </g>
   <g id="patch_23">
    <path clip-path="url(#p2b8a11e210)" d="M 276.394889 389.32 
L 279.505278 389.32 
L 279.505278 389.222671 
L 276.394889 389.222671 
z
" style="fill:#ff7f0e;"/>
   </g>
   <g id="patch_24">
    <path clip-path="url(#p2b8a11e210)" d="M 313.719556 389.32 
L 316.829944 389.32 
L 316.829944 389.197533 
L 313.719556 389.197533 
z
" style="fill:#ff7f0e;"/>
   </g>
   <g id="patch_25">
    <path clip-path="url(#p2b8a11e210)" d="M 351.044222 389.32 
L 354.154611 389.32 
L 354.154611 389.22918 
L 351.044222 389.22918 
z
" style="fill:#ff7f0e;"/>
   </g>
   <g id="patch_26">
    <path clip-path="url(#p2b8a11e210)" d="M 388.368889 389.32 
L 391.479278 389.32 
L 391.479278 389.15472 
L 388.368889 389.15472 
z
" style="fill:#ff7f0e;"/>
   </g>
   <g id="patch_27">
    <path clip-path="url(#p2b8a11e210)" d="M 425.693556 389.32 
L 428.803944 389.32 
L 428.803944 389.143256 
L 425.693556 389.143256 
z
" style="fill:#ff7f0e;"/>
   </g>
   <g id="patch_28">
    <path clip-path="url(#p2b8a11e210)" d="M 463.018222 389.32 
L 466.128611 389.32 
L 466.128611 389.078619 
L 463.018222 389.078619 
z
" style="fill:#ff7f0e;"/>
   </g>
   <g id="patch_29">
    <path clip-path="url(#p2b8a11e210)" d="M 500.342889 389.32 
L 503.453278 389.32 
L 503.453278 389.12185 
L 500.342889 389.12185 
z
" style="fill:#ff7f0e;"/>
   </g>
   <g id="patch_30">
    <path clip-path="url(#p2b8a11e210)" d="M 537.667556 389.32 
L 540.777944 389.32 
L 540.777944 389.013952 
L 537.667556 389.013952 
z
" style="fill:#ff7f0e;"/>
   </g>
   <g id="patch_31">
    <path clip-path="url(#p2b8a11e210)" d="M 574.992222 389.32 
L 578.102611 389.32 
L 578.102611 388.969736 
L 574.992222 388.969736 
z
" style="fill:#ff7f0e;"/>
   </g>
   <g id="patch_32">
    <path clip-path="url(#p2b8a11e210)" d="M 612.316889 389.32 
L 615.427278 389.32 
L 615.427278 388.910294 
L 612.316889 388.910294 
z
" style="fill:#ff7f0e;"/>
   </g>
   <g id="patch_33">
    <path clip-path="url(#p2b8a11e210)" d="M 92.881944 389.32 
L 95.992333 389.32 
L 95.992333 389.303639 
L 92.881944 389.303639 
z
" style="fill:#2ca02c;"/>
   </g>
   <g id="patch_34">
    <path clip-path="url(#p2b8a11e210)" d="M 130.206611 389.32 
L 133.317 389.32 
L 133.317 389.277426 
L 130.206611 389.277426 
z
" style="fill:#2ca02c;"/>
   </g>
   <g id="patch_35">
    <path clip-path="url(#p2b8a11e210)" d="M 167.531278 389.32 
L 170.641667 389.32 
L 170.641667 389.267723 
L 167.531278 389.267723 
z
" style="fill:#2ca02c;"/>
   </g>
   <g id="patch_36">
    <path clip-path="url(#p2b8a11e210)" d="M 204.855944 389.32 
L 207.966333 389.32 
L 207.966333 389.251392 
L 204.855944 389.251392 
z
" style="fill:#2ca02c;"/>
   </g>
   <g id="patch_37">
    <path clip-path="url(#p2b8a11e210)" d="M 242.180611 389.32 
L 245.291 389.32 
L 245.291 389.203653 
L 242.180611 389.203653 
z
" style="fill:#2ca02c;"/>
   </g>
   <g id="patch_38">
    <path clip-path="url(#p2b8a11e210)" d="M 279.505278 389.32 
L 282.615667 389.32 
L 282.615667 389.163289 
L 279.505278 389.163289 
z
" style="fill:#2ca02c;"/>
   </g>
   <g id="patch_39">
    <path clip-path="url(#p2b8a11e210)" d="M 316.829944 389.32 
L 319.940333 389.32 
L 319.940333 389.128597 
L 316.829944 389.128597 
z
" style="fill:#2ca02c;"/>
   </g>
   <g id="patch_40">
    <path clip-path="url(#p2b8a11e210)" d="M 354.154611 389.32 
L 357.265 389.32 
L 357.265 389.140659 
L 354.154611 389.140659 
z
" style="fill:#2ca02c;"/>
   </g>
   <g id="patch_41">
    <path clip-path="url(#p2b8a11e210)" d="M 391.479278 389.32 
L 394.589667 389.32 
L 394.589667 389.062915 
L 391.479278 389.062915 
z
" style="fill:#2ca02c;"/>
   </g>
   <g id="patch_42">
    <path clip-path="url(#p2b8a11e210)" d="M 428.803944 389.32 
L 431.914333 389.32 
L 431.914333 388.986545 
L 428.803944 388.986545 
z
" style="fill:#2ca02c;"/>
   </g>
   <g id="patch_43">
    <path clip-path="url(#p2b8a11e210)" d="M 466.128611 389.32 
L 469.239 389.32 
L 469.239 388.929312 
L 466.128611 388.929312 
z
" style="fill:#2ca02c;"/>
   </g>
   <g id="patch_44">
    <path clip-path="url(#p2b8a11e210)" d="M 503.453278 389.32 
L 506.563667 389.32 
L 506.563667 388.933044 
L 503.453278 388.933044 
z
" style="fill:#2ca02c;"/>
   </g>
   <g id="patch_45">
    <path clip-path="url(#p2b8a11e210)" d="M 540.777944 389.32 
L 543.888333 389.32 
L 543.888333 388.838522 
L 540.777944 388.838522 
z
" style="fill:#2ca02c;"/>
   </g>
   <g id="patch_46">
    <path clip-path="url(#p2b8a11e210)" d="M 578.102611 389.32 
L 581.213 389.32 
L 581.213 388.783259 
L 578.102611 388.783259 
z
" style="fill:#2ca02c;"/>
   </g>
   <g id="patch_47">
    <path clip-path="url(#p2b8a11e210)" d="M 615.427278 389.32 
L 618.537667 389.32 
L 618.537667 388.704949 
L 615.427278 388.704949 
z
" style="fill:#2ca02c;"/>
   </g>
   <g id="patch_48">
    <path clip-path="url(#p2b8a11e210)" d="M 95.992333 389.32 
L 99.102722 389.32 
L 99.102722 389.099428 
L 95.992333 389.099428 
z
" style="fill:#d62728;"/>
   </g>
   <g id="patch_49">
    <path clip-path="url(#p2b8a11e210)" d="M 133.317 389.32 
L 136.427389 389.32 
L 136.427389 389.038225 
L 133.317 389.038225 
z
" style="fill:#d62728;"/>
   </g>
   <g id="patch_50">
    <path clip-path="url(#p2b8a11e210)" d="M 170.641667 389.32 
L 173.752056 389.32 
L 173.752056 388.850434 
L 170.641667 388.850434 
z
" style="fill:#d62728;"/>
   </g>
   <g id="patch_51">
    <path clip-path="url(#p2b8a11e210)" d="M 207.966333 389.32 
L 211.076722 389.32 
L 211.076722 388.568718 
L 207.966333 388.568718 
z
" style="fill:#d62728;"/>
   </g>
   <g id="patch_52">
    <path clip-path="url(#p2b8a11e210)" d="M 245.291 389.32 
L 248.401389 389.32 
L 248.401389 388.395438 
L 245.291 388.395438 
z
" style="fill:#d62728;"/>
   </g>
   <g id="patch_53">
    <path clip-path="url(#p2b8a11e210)" d="M 282.615667 389.32 
L 285.726056 389.32 
L 285.726056 388.205527 
L 282.615667 388.205527 
z
" style="fill:#d62728;"/>
   </g>
   <g id="patch_54">
    <path clip-path="url(#p2b8a11e210)" d="M 319.940333 389.32 
L 323.050722 389.32 
L 323.050722 387.959041 
L 319.940333 387.959041 
z
" style="fill:#d62728;"/>
   </g>
   <g id="patch_55">
    <path clip-path="url(#p2b8a11e210)" d="M 357.265 389.32 
L 360.375389 389.32 
L 360.375389 387.85604 
L 357.265 387.85604 
z
" style="fill:#d62728;"/>
   </g>
   <g id="patch_56">
    <path clip-path="url(#p2b8a11e210)" d="M 394.589667 389.32 
L 397.700056 389.32 
L 397.700056 387.703926 
L 394.589667 387.703926 
z
" style="fill:#d62728;"/>
   </g>
   <g id="patch_57">
    <path clip-path="url(#p2b8a11e210)" d="M 431.914333 389.32 
L 435.024722 389.32 
L 435.024722 387.516315 
L 431.914333 387.516315 
z
" style="fill:#d62728;"/>
   </g>
   <g id="patch_58">
    <path clip-path="url(#p2b8a11e210)" d="M 469.239 389.32 
L 472.349389 389.32 
L 472.349389 387.332197 
L 469.239 387.332197 
z
" style="fill:#d62728;"/>
   </g>
   <g id="patch_59">
    <path clip-path="url(#p2b8a11e210)" d="M 506.563667 389.32 
L 509.674056 389.32 
L 509.674056 387.18292 
L 506.563667 387.18292 
z
" style="fill:#d62728;"/>
   </g>
   <g id="patch_60">
    <path clip-path="url(#p2b8a11e210)" d="M 543.888333 389.32 
L 546.998722 389.32 
L 546.998722 387.012415 
L 543.888333 387.012415 
z
" style="fill:#d62728;"/>
   </g>
   <g id="patch_61">
    <path clip-path="url(#p2b8a11e210)" d="M 581.213 389.32 
L 584.323389 389.32 
L 584.323389 386.892874 
L 581.213 386.892874 
z
" style="fill:#d62728;"/>
   </g>
   <g id="patch_62">
    <path clip-path="url(#p2b8a11e210)" d="M 618.537667 389.32 
L 621.648056 389.32 
L 621.648056 386.688783 
L 618.537667 386.688783 
z
" style="fill:#d62728;"/>
   </g>
   <g id="patch_63">
    <path clip-path="url(#p2b8a11e210)" d="M 99.102722 389.32 
L 102.213111 389.32 
L 102.213111 382.09687 
L 99.102722 382.09687 
z
" style="fill:#9467bd;"/>
   </g>
   <g id="patch_64">
    <path clip-path="url(#p2b8a11e210)" d="M 136.427389 389.32 
L 139.537778 389.32 
L 139.537778 367.145696 
L 136.427389 367.145696 
z
" style="fill:#9467bd;"/>
   </g>
   <g id="patch_65">
    <path clip-path="url(#p2b8a11e210)" d="M 173.752056 389.32 
L 176.862444 389.32 
L 176.862444 358.746383 
L 173.752056 358.746383 
z
" style="fill:#9467bd;"/>
   </g>
   <g id="patch_66">
    <path clip-path="url(#p2b8a11e210)" d="M 211.076722 389.32 
L 214.187111 389.32 
L 214.187111 350.951791 
L 211.076722 350.951791 
z
" style="fill:#9467bd;"/>
   </g>
   <g id="patch_67">
    <path clip-path="url(#p2b8a11e210)" d="M 248.401389 389.32 
L 251.511778 389.32 
L 251.511778 335.51684 
L 248.401389 335.51684 
z
" style="fill:#9467bd;"/>
   </g>
   <g id="patch_68">
    <path clip-path="url(#p2b8a11e210)" d="M 285.726056 389.32 
L 288.836444 389.32 
L 288.836444 318.803211 
L 285.726056 318.803211 
z
" style="fill:#9467bd;"/>
   </g>
   <g id="patch_69">
    <path clip-path="url(#p2b8a11e210)" d="M 323.050722 389.32 
L 326.161111 389.32 
L 326.161111 296.891635 
L 323.050722 296.891635 
z
" style="fill:#9467bd;"/>
   </g>
   <g id="patch_70">
    <path clip-path="url(#p2b8a11e210)" d="M 360.375389 389.32 
L 363.485778 389.32 
L 363.485778 275.000361 
L 360.375389 275.000361 
z
" style="fill:#9467bd;"/>
   </g>
   <g id="patch_71">
    <path clip-path="url(#p2b8a11e210)" d="M 397.700056 389.32 
L 400.810444 389.32 
L 400.810444 250.390124 
L 397.700056 250.390124 
z
" style="fill:#9467bd;"/>
   </g>
   <g id="patch_72">
    <path clip-path="url(#p2b8a11e210)" d="M 435.024722 389.32 
L 438.135111 389.32 
L 438.135111 222.721797 
L 435.024722 222.721797 
z
" style="fill:#9467bd;"/>
   </g>
   <g id="patch_73">
    <path clip-path="url(#p2b8a11e210)" d="M 472.349389 389.32 
L 475.459778 389.32 
L 475.459778 190.483114 
L 472.349389 190.483114 
z
" style="fill:#9467bd;"/>
   </g>
   <g id="patch_74">
    <path clip-path="url(#p2b8a11e210)" d="M 509.674056 389.32 
L 512.784444 389.32 
L 512.784444 158.459061 
L 509.674056 158.459061 
z
" style="fill:#9467bd;"/>
   </g>
   <g id="patch_75">
    <path clip-path="url(#p2b8a11e210)" d="M 546.998722 389.32 
L 550.109111 389.32 
L 550.109111 124.226304 
L 546.998722 124.226304 
z
" style="fill:#9467bd;"/>
   </g>
   <g id="patch_76">
    <path clip-path="url(#p2b8a11e210)" d="M 584.323389 389.32 
L 587.433778 389.32 
L 587.433778 85.884607 
L 584.323389 85.884607 
z
" style="fill:#9467bd;"/>
   </g>
   <g id="patch_77">
    <path clip-path="url(#p2b8a11e210)" d="M 621.648056 389.32 
L 624.758444 389.32 
L 624.758444 44.595254 
L 621.648056 44.595254 
z
" style="fill:#9467bd;"/>
   </g>
   <g id="patch_78">
    <path clip-path="url(#p2b8a11e210)" d="M 102.213111 389.32 
L 105.3235 389.32 
L 105.3235 384.426638 
L 102.213111 384.426638 
z
" style="fill:#8c564b;"/>
   </g>
   <g id="patch_79">
    <path clip-path="url(#p2b8a11e210)" d="M 139.537778 389.32 
L 142.648167 389.32 
L 142.648167 378.449494 
L 139.537778 378.449494 
z
" style="fill:#8c564b;"/>
   </g>
   <g id="patch_80">
    <path clip-path="url(#p2b8a11e210)" d="M 176.862444 389.32 
L 179.972833 389.32 
L 179.972833 374.909627 
L 176.862444 374.909627 
z
" style="fill:#8c564b;"/>
   </g>
   <g id="patch_81">
    <path clip-path="url(#p2b8a11e210)" d="M 214.187111 389.32 
L 217.2975 389.32 
L 217.2975 370.755127 
L 214.187111 370.755127 
z
" style="fill:#8c564b;"/>
   </g>
   <g id="patch_82">
    <path clip-path="url(#p2b8a11e210)" d="M 251.511778 389.32 
L 254.622167 389.32 
L 254.622167 366.495654 
L 251.511778 366.495654 
z
" style="fill:#8c564b;"/>
   </g>
   <g id="patch_83">
    <path clip-path="url(#p2b8a11e210)" d="M 288.836444 389.32 
L 291.946833 389.32 
L 291.946833 363.034695 
L 288.836444 363.034695 
z
" style="fill:#8c564b;"/>
   </g>
   <g id="patch_84">
    <path clip-path="url(#p2b8a11e210)" d="M 326.161111 389.32 
L 329.2715 389.32 
L 329.2715 359.464555 
L 326.161111 359.464555 
z
" style="fill:#8c564b;"/>
   </g>
   <g id="patch_85">
    <path clip-path="url(#p2b8a11e210)" d="M 363.485778 389.32 
L 366.596167 389.32 
L 366.596167 354.898736 
L 363.485778 354.898736 
z
" style="fill:#8c564b;"/>
   </g>
   <g id="patch_86">
    <path clip-path="url(#p2b8a11e210)" d="M 400.810444 389.32 
L 403.920833 389.32 
L 403.920833 350.524231 
L 400.810444 350.524231 
z
" style="fill:#8c564b;"/>
   </g>
   <g id="patch_87">
    <path clip-path="url(#p2b8a11e210)" d="M 438.135111 389.32 
L 441.2455 389.32 
L 441.2455 347.091008 
L 438.135111 347.091008 
z
" style="fill:#8c564b;"/>
   </g>
   <g id="patch_88">
    <path clip-path="url(#p2b8a11e210)" d="M 475.459778 389.32 
L 478.570167 389.32 
L 478.570167 342.649866 
L 475.459778 342.649866 
z
" style="fill:#8c564b;"/>
   </g>
   <g id="patch_89">
    <path clip-path="url(#p2b8a11e210)" d="M 512.784444 389.32 
L 515.894833 389.32 
L 515.894833 338.959438 
L 512.784444 338.959438 
z
" style="fill:#8c564b;"/>
   </g>
   <g id="patch_90">
    <path clip-path="url(#p2b8a11e210)" d="M 550.109111 389.32 
L 553.2195 389.32 
L 553.2195 334.525222 
L 550.109111 334.525222 
z
" style="fill:#8c564b;"/>
   </g>
   <g id="patch_91">
    <path clip-path="url(#p2b8a11e210)" d="M 587.433778 389.32 
L 590.544167 389.32 
L 590.544167 330.069421 
L 587.433778 330.069421 
z
" style="fill:#8c564b;"/>
   </g>
   <g id="patch_92">
    <path clip-path="url(#p2b8a11e210)" d="M 624.758444 389.32 
L 627.868833 389.32 
L 627.868833 326.246106 
L 624.758444 326.246106 
z
" style="fill:#8c564b;"/>
   </g>
   <g id="matplotlib.axis_1">
    <g id="xtick_1">
     <g id="line2d_1">
      <defs>
       <path d="M 0 0 
L 0 3.5 
" id="mfc518bbc66" style="stroke:#000000;stroke-width:0.8;"/>
      </defs>
      <g>
       <use style="stroke:#000000;stroke-width:0.8;" x="95.992333" xlink:href="#mfc518bbc66" y="389.32"/>
      </g>
     </g>
     <g id="text_1">
      <!-- 2 -->
      <defs>
       <path d="M 19.1875 8.296875 
L 53.609375 8.296875 
L 53.609375 0 
L 7.328125 0 
L 7.328125 8.296875 
Q 12.9375 14.109375 22.625 23.890625 
Q 32.328125 33.6875 34.8125 36.53125 
Q 39.546875 41.84375 41.421875 45.53125 
Q 43.3125 49.21875 43.3125 52.78125 
Q 43.3125 58.59375 39.234375 62.25 
Q 35.15625 65.921875 28.609375 65.921875 
Q 23.96875 65.921875 18.8125 64.3125 
Q 13.671875 62.703125 7.8125 59.421875 
L 7.8125 69.390625 
Q 13.765625 71.78125 18.9375 73 
Q 24.125 74.21875 28.421875 74.21875 
Q 39.75 74.21875 46.484375 68.546875 
Q 53.21875 62.890625 53.21875 53.421875 
Q 53.21875 48.921875 51.53125 44.890625 
Q 49.859375 40.875 45.40625 35.40625 
Q 44.1875 33.984375 37.640625 27.21875 
Q 31.109375 20.453125 19.1875 8.296875 
z
" id="DejaVuSans-50"/>
      </defs>
      <g transform="translate(92.811083 403.918437)scale(0.1 -0.1)">
       <use xlink:href="#DejaVuSans-50"/>
      </g>
     </g>
    </g>
    <g id="xtick_2">
     <g id="line2d_2">
      <g>
       <use style="stroke:#000000;stroke-width:0.8;" x="133.317" xlink:href="#mfc518bbc66" y="389.32"/>
      </g>
     </g>
     <g id="text_2">
      <!-- 3 -->
      <defs>
       <path d="M 40.578125 39.3125 
Q 47.65625 37.796875 51.625 33 
Q 55.609375 28.21875 55.609375 21.1875 
Q 55.609375 10.40625 48.1875 4.484375 
Q 40.765625 -1.421875 27.09375 -1.421875 
Q 22.515625 -1.421875 17.65625 -0.515625 
Q 12.796875 0.390625 7.625 2.203125 
L 7.625 11.71875 
Q 11.71875 9.328125 16.59375 8.109375 
Q 21.484375 6.890625 26.8125 6.890625 
Q 36.078125 6.890625 40.9375 10.546875 
Q 45.796875 14.203125 45.796875 21.1875 
Q 45.796875 27.640625 41.28125 31.265625 
Q 36.765625 34.90625 28.71875 34.90625 
L 20.21875 34.90625 
L 20.21875 43.015625 
L 29.109375 43.015625 
Q 36.375 43.015625 40.234375 45.921875 
Q 44.09375 48.828125 44.09375 54.296875 
Q 44.09375 59.90625 40.109375 62.90625 
Q 36.140625 65.921875 28.71875 65.921875 
Q 24.65625 65.921875 20.015625 65.03125 
Q 15.375 64.15625 9.8125 62.3125 
L 9.8125 71.09375 
Q 15.4375 72.65625 20.34375 73.4375 
Q 25.25 74.21875 29.59375 74.21875 
Q 40.828125 74.21875 47.359375 69.109375 
Q 53.90625 64.015625 53.90625 55.328125 
Q 53.90625 49.265625 50.4375 45.09375 
Q 46.96875 40.921875 40.578125 39.3125 
z
" id="DejaVuSans-51"/>
      </defs>
      <g transform="translate(130.13575 403.918437)scale(0.1 -0.1)">
       <use xlink:href="#DejaVuSans-51"/>
      </g>
     </g>
    </g>
    <g id="xtick_3">
     <g id="line2d_3">
      <g>
       <use style="stroke:#000000;stroke-width:0.8;" x="170.641667" xlink:href="#mfc518bbc66" y="389.32"/>
      </g>
     </g>
     <g id="text_3">
      <!-- 4 -->
      <defs>
       <path d="M 37.796875 64.3125 
L 12.890625 25.390625 
L 37.796875 25.390625 
z
M 35.203125 72.90625 
L 47.609375 72.90625 
L 47.609375 25.390625 
L 58.015625 25.390625 
L 58.015625 17.1875 
L 47.609375 17.1875 
L 47.609375 0 
L 37.796875 0 
L 37.796875 17.1875 
L 4.890625 17.1875 
L 4.890625 26.703125 
z
" id="DejaVuSans-52"/>
      </defs>
      <g transform="translate(167.460417 403.918437)scale(0.1 -0.1)">
       <use xlink:href="#DejaVuSans-52"/>
      </g>
     </g>
    </g>
    <g id="xtick_4">
     <g id="line2d_4">
      <g>
       <use style="stroke:#000000;stroke-width:0.8;" x="207.966333" xlink:href="#mfc518bbc66" y="389.32"/>
      </g>
     </g>
     <g id="text_4">
      <!-- 5 -->
      <defs>
       <path d="M 10.796875 72.90625 
L 49.515625 72.90625 
L 49.515625 64.59375 
L 19.828125 64.59375 
L 19.828125 46.734375 
Q 21.96875 47.46875 24.109375 47.828125 
Q 26.265625 48.1875 28.421875 48.1875 
Q 40.625 48.1875 47.75 41.5 
Q 54.890625 34.8125 54.890625 23.390625 
Q 54.890625 11.625 47.5625 5.09375 
Q 40.234375 -1.421875 26.90625 -1.421875 
Q 22.3125 -1.421875 17.546875 -0.640625 
Q 12.796875 0.140625 7.71875 1.703125 
L 7.71875 11.625 
Q 12.109375 9.234375 16.796875 8.0625 
Q 21.484375 6.890625 26.703125 6.890625 
Q 35.15625 6.890625 40.078125 11.328125 
Q 45.015625 15.765625 45.015625 23.390625 
Q 45.015625 31 40.078125 35.4375 
Q 35.15625 39.890625 26.703125 39.890625 
Q 22.75 39.890625 18.8125 39.015625 
Q 14.890625 38.140625 10.796875 36.28125 
z
" id="DejaVuSans-53"/>
      </defs>
      <g transform="translate(204.785083 403.918437)scale(0.1 -0.1)">
       <use xlink:href="#DejaVuSans-53"/>
      </g>
     </g>
    </g>
    <g id="xtick_5">
     <g id="line2d_5">
      <g>
       <use style="stroke:#000000;stroke-width:0.8;" x="245.291" xlink:href="#mfc518bbc66" y="389.32"/>
      </g>
     </g>
     <g id="text_5">
      <!-- 6 -->
      <defs>
       <path d="M 33.015625 40.375 
Q 26.375 40.375 22.484375 35.828125 
Q 18.609375 31.296875 18.609375 23.390625 
Q 18.609375 15.53125 22.484375 10.953125 
Q 26.375 6.390625 33.015625 6.390625 
Q 39.65625 6.390625 43.53125 10.953125 
Q 47.40625 15.53125 47.40625 23.390625 
Q 47.40625 31.296875 43.53125 35.828125 
Q 39.65625 40.375 33.015625 40.375 
z
M 52.59375 71.296875 
L 52.59375 62.3125 
Q 48.875 64.0625 45.09375 64.984375 
Q 41.3125 65.921875 37.59375 65.921875 
Q 27.828125 65.921875 22.671875 59.328125 
Q 17.53125 52.734375 16.796875 39.40625 
Q 19.671875 43.65625 24.015625 45.921875 
Q 28.375 48.1875 33.59375 48.1875 
Q 44.578125 48.1875 50.953125 41.515625 
Q 57.328125 34.859375 57.328125 23.390625 
Q 57.328125 12.15625 50.6875 5.359375 
Q 44.046875 -1.421875 33.015625 -1.421875 
Q 20.359375 -1.421875 13.671875 8.265625 
Q 6.984375 17.96875 6.984375 36.375 
Q 6.984375 53.65625 15.1875 63.9375 
Q 23.390625 74.21875 37.203125 74.21875 
Q 40.921875 74.21875 44.703125 73.484375 
Q 48.484375 72.75 52.59375 71.296875 
z
" id="DejaVuSans-54"/>
      </defs>
      <g transform="translate(242.10975 403.918437)scale(0.1 -0.1)">
       <use xlink:href="#DejaVuSans-54"/>
      </g>
     </g>
    </g>
    <g id="xtick_6">
     <g id="line2d_6">
      <g>
       <use style="stroke:#000000;stroke-width:0.8;" x="282.615667" xlink:href="#mfc518bbc66" y="389.32"/>
      </g>
     </g>
     <g id="text_6">
      <!-- 7 -->
      <defs>
       <path d="M 8.203125 72.90625 
L 55.078125 72.90625 
L 55.078125 68.703125 
L 28.609375 0 
L 18.3125 0 
L 43.21875 64.59375 
L 8.203125 64.59375 
z
" id="DejaVuSans-55"/>
      </defs>
      <g transform="translate(279.434417 403.918437)scale(0.1 -0.1)">
       <use xlink:href="#DejaVuSans-55"/>
      </g>
     </g>
    </g>
    <g id="xtick_7">
     <g id="line2d_7">
      <g>
       <use style="stroke:#000000;stroke-width:0.8;" x="319.940333" xlink:href="#mfc518bbc66" y="389.32"/>
      </g>
     </g>
     <g id="text_7">
      <!-- 8 -->
      <defs>
       <path d="M 31.78125 34.625 
Q 24.75 34.625 20.71875 30.859375 
Q 16.703125 27.09375 16.703125 20.515625 
Q 16.703125 13.921875 20.71875 10.15625 
Q 24.75 6.390625 31.78125 6.390625 
Q 38.8125 6.390625 42.859375 10.171875 
Q 46.921875 13.96875 46.921875 20.515625 
Q 46.921875 27.09375 42.890625 30.859375 
Q 38.875 34.625 31.78125 34.625 
z
M 21.921875 38.8125 
Q 15.578125 40.375 12.03125 44.71875 
Q 8.5 49.078125 8.5 55.328125 
Q 8.5 64.0625 14.71875 69.140625 
Q 20.953125 74.21875 31.78125 74.21875 
Q 42.671875 74.21875 48.875 69.140625 
Q 55.078125 64.0625 55.078125 55.328125 
Q 55.078125 49.078125 51.53125 44.71875 
Q 48 40.375 41.703125 38.8125 
Q 48.828125 37.15625 52.796875 32.3125 
Q 56.78125 27.484375 56.78125 20.515625 
Q 56.78125 9.90625 50.3125 4.234375 
Q 43.84375 -1.421875 31.78125 -1.421875 
Q 19.734375 -1.421875 13.25 4.234375 
Q 6.78125 9.90625 6.78125 20.515625 
Q 6.78125 27.484375 10.78125 32.3125 
Q 14.796875 37.15625 21.921875 38.8125 
z
M 18.3125 54.390625 
Q 18.3125 48.734375 21.84375 45.5625 
Q 25.390625 42.390625 31.78125 42.390625 
Q 38.140625 42.390625 41.71875 45.5625 
Q 45.3125 48.734375 45.3125 54.390625 
Q 45.3125 60.0625 41.71875 63.234375 
Q 38.140625 66.40625 31.78125 66.40625 
Q 25.390625 66.40625 21.84375 63.234375 
Q 18.3125 60.0625 18.3125 54.390625 
z
" id="DejaVuSans-56"/>
      </defs>
      <g transform="translate(316.759083 403.918437)scale(0.1 -0.1)">
       <use xlink:href="#DejaVuSans-56"/>
      </g>
     </g>
    </g>
    <g id="xtick_8">
     <g id="line2d_8">
      <g>
       <use style="stroke:#000000;stroke-width:0.8;" x="357.265" xlink:href="#mfc518bbc66" y="389.32"/>
      </g>
     </g>
     <g id="text_8">
      <!-- 9 -->
      <defs>
       <path d="M 10.984375 1.515625 
L 10.984375 10.5 
Q 14.703125 8.734375 18.5 7.8125 
Q 22.3125 6.890625 25.984375 6.890625 
Q 35.75 6.890625 40.890625 13.453125 
Q 46.046875 20.015625 46.78125 33.40625 
Q 43.953125 29.203125 39.59375 26.953125 
Q 35.25 24.703125 29.984375 24.703125 
Q 19.046875 24.703125 12.671875 31.3125 
Q 6.296875 37.9375 6.296875 49.421875 
Q 6.296875 60.640625 12.9375 67.421875 
Q 19.578125 74.21875 30.609375 74.21875 
Q 43.265625 74.21875 49.921875 64.515625 
Q 56.59375 54.828125 56.59375 36.375 
Q 56.59375 19.140625 48.40625 8.859375 
Q 40.234375 -1.421875 26.421875 -1.421875 
Q 22.703125 -1.421875 18.890625 -0.6875 
Q 15.09375 0.046875 10.984375 1.515625 
z
M 30.609375 32.421875 
Q 37.25 32.421875 41.125 36.953125 
Q 45.015625 41.5 45.015625 49.421875 
Q 45.015625 57.28125 41.125 61.84375 
Q 37.25 66.40625 30.609375 66.40625 
Q 23.96875 66.40625 20.09375 61.84375 
Q 16.21875 57.28125 16.21875 49.421875 
Q 16.21875 41.5 20.09375 36.953125 
Q 23.96875 32.421875 30.609375 32.421875 
z
" id="DejaVuSans-57"/>
      </defs>
      <g transform="translate(354.08375 403.918437)scale(0.1 -0.1)">
       <use xlink:href="#DejaVuSans-57"/>
      </g>
     </g>
    </g>
    <g id="xtick_9">
     <g id="line2d_9">
      <g>
       <use style="stroke:#000000;stroke-width:0.8;" x="394.589667" xlink:href="#mfc518bbc66" y="389.32"/>
      </g>
     </g>
     <g id="text_9">
      <!-- 10 -->
      <defs>
       <path d="M 12.40625 8.296875 
L 28.515625 8.296875 
L 28.515625 63.921875 
L 10.984375 60.40625 
L 10.984375 69.390625 
L 28.421875 72.90625 
L 38.28125 72.90625 
L 38.28125 8.296875 
L 54.390625 8.296875 
L 54.390625 0 
L 12.40625 0 
z
" id="DejaVuSans-49"/>
       <path d="M 31.78125 66.40625 
Q 24.171875 66.40625 20.328125 58.90625 
Q 16.5 51.421875 16.5 36.375 
Q 16.5 21.390625 20.328125 13.890625 
Q 24.171875 6.390625 31.78125 6.390625 
Q 39.453125 6.390625 43.28125 13.890625 
Q 47.125 21.390625 47.125 36.375 
Q 47.125 51.421875 43.28125 58.90625 
Q 39.453125 66.40625 31.78125 66.40625 
z
M 31.78125 74.21875 
Q 44.046875 74.21875 50.515625 64.515625 
Q 56.984375 54.828125 56.984375 36.375 
Q 56.984375 17.96875 50.515625 8.265625 
Q 44.046875 -1.421875 31.78125 -1.421875 
Q 19.53125 -1.421875 13.0625 8.265625 
Q 6.59375 17.96875 6.59375 36.375 
Q 6.59375 54.828125 13.0625 64.515625 
Q 19.53125 74.21875 31.78125 74.21875 
z
" id="DejaVuSans-48"/>
      </defs>
      <g transform="translate(388.227167 403.918437)scale(0.1 -0.1)">
       <use xlink:href="#DejaVuSans-49"/>
       <use x="63.623047" xlink:href="#DejaVuSans-48"/>
      </g>
     </g>
    </g>
    <g id="xtick_10">
     <g id="line2d_10">
      <g>
       <use style="stroke:#000000;stroke-width:0.8;" x="431.914333" xlink:href="#mfc518bbc66" y="389.32"/>
      </g>
     </g>
     <g id="text_10">
      <!-- 11 -->
      <g transform="translate(425.551833 403.918437)scale(0.1 -0.1)">
       <use xlink:href="#DejaVuSans-49"/>
       <use x="63.623047" xlink:href="#DejaVuSans-49"/>
      </g>
     </g>
    </g>
    <g id="xtick_11">
     <g id="line2d_11">
      <g>
       <use style="stroke:#000000;stroke-width:0.8;" x="469.239" xlink:href="#mfc518bbc66" y="389.32"/>
      </g>
     </g>
     <g id="text_11">
      <!-- 12 -->
      <g transform="translate(462.8765 403.918437)scale(0.1 -0.1)">
       <use xlink:href="#DejaVuSans-49"/>
       <use x="63.623047" xlink:href="#DejaVuSans-50"/>
      </g>
     </g>
    </g>
    <g id="xtick_12">
     <g id="line2d_12">
      <g>
       <use style="stroke:#000000;stroke-width:0.8;" x="506.563667" xlink:href="#mfc518bbc66" y="389.32"/>
      </g>
     </g>
     <g id="text_12">
      <!-- 13 -->
      <g transform="translate(500.201167 403.918437)scale(0.1 -0.1)">
       <use xlink:href="#DejaVuSans-49"/>
       <use x="63.623047" xlink:href="#DejaVuSans-51"/>
      </g>
     </g>
    </g>
    <g id="xtick_13">
     <g id="line2d_13">
      <g>
       <use style="stroke:#000000;stroke-width:0.8;" x="543.888333" xlink:href="#mfc518bbc66" y="389.32"/>
      </g>
     </g>
     <g id="text_13">
      <!-- 14 -->
      <g transform="translate(537.525833 403.918437)scale(0.1 -0.1)">
       <use xlink:href="#DejaVuSans-49"/>
       <use x="63.623047" xlink:href="#DejaVuSans-52"/>
      </g>
     </g>
    </g>
    <g id="xtick_14">
     <g id="line2d_14">
      <g>
       <use style="stroke:#000000;stroke-width:0.8;" x="581.213" xlink:href="#mfc518bbc66" y="389.32"/>
      </g>
     </g>
     <g id="text_14">
      <!-- 15 -->
      <g transform="translate(574.8505 403.918437)scale(0.1 -0.1)">
       <use xlink:href="#DejaVuSans-49"/>
       <use x="63.623047" xlink:href="#DejaVuSans-53"/>
      </g>
     </g>
    </g>
    <g id="xtick_15">
     <g id="line2d_15">
      <g>
       <use style="stroke:#000000;stroke-width:0.8;" x="618.537667" xlink:href="#mfc518bbc66" y="389.32"/>
      </g>
     </g>
     <g id="text_15">
      <!-- 16 -->
      <g transform="translate(612.175167 403.918437)scale(0.1 -0.1)">
       <use xlink:href="#DejaVuSans-49"/>
       <use x="63.623047" xlink:href="#DejaVuSans-54"/>
      </g>
     </g>
    </g>
    <g id="text_16">
     <!-- Active Cores -->
     <defs>
      <path d="M 34.1875 63.1875 
L 20.796875 26.90625 
L 47.609375 26.90625 
z
M 28.609375 72.90625 
L 39.796875 72.90625 
L 67.578125 0 
L 57.328125 0 
L 50.6875 18.703125 
L 17.828125 18.703125 
L 11.1875 0 
L 0.78125 0 
z
" id="DejaVuSans-65"/>
      <path d="M 48.78125 52.59375 
L 48.78125 44.1875 
Q 44.96875 46.296875 41.140625 47.34375 
Q 37.3125 48.390625 33.40625 48.390625 
Q 24.65625 48.390625 19.8125 42.84375 
Q 14.984375 37.3125 14.984375 27.296875 
Q 14.984375 17.28125 19.8125 11.734375 
Q 24.65625 6.203125 33.40625 6.203125 
Q 37.3125 6.203125 41.140625 7.25 
Q 44.96875 8.296875 48.78125 10.40625 
L 48.78125 2.09375 
Q 45.015625 0.34375 40.984375 -0.53125 
Q 36.96875 -1.421875 32.421875 -1.421875 
Q 20.0625 -1.421875 12.78125 6.34375 
Q 5.515625 14.109375 5.515625 27.296875 
Q 5.515625 40.671875 12.859375 48.328125 
Q 20.21875 56 33.015625 56 
Q 37.15625 56 41.109375 55.140625 
Q 45.0625 54.296875 48.78125 52.59375 
z
" id="DejaVuSans-99"/>
      <path d="M 18.3125 70.21875 
L 18.3125 54.6875 
L 36.8125 54.6875 
L 36.8125 47.703125 
L 18.3125 47.703125 
L 18.3125 18.015625 
Q 18.3125 11.328125 20.140625 9.421875 
Q 21.96875 7.515625 27.59375 7.515625 
L 36.8125 7.515625 
L 36.8125 0 
L 27.59375 0 
Q 17.1875 0 13.234375 3.875 
Q 9.28125 7.765625 9.28125 18.015625 
L 9.28125 47.703125 
L 2.6875 47.703125 
L 2.6875 54.6875 
L 9.28125 54.6875 
L 9.28125 70.21875 
z
" id="DejaVuSans-116"/>
      <path d="M 9.421875 54.6875 
L 18.40625 54.6875 
L 18.40625 0 
L 9.421875 0 
z
M 9.421875 75.984375 
L 18.40625 75.984375 
L 18.40625 64.59375 
L 9.421875 64.59375 
z
" id="DejaVuSans-105"/>
      <path d="M 2.984375 54.6875 
L 12.5 54.6875 
L 29.59375 8.796875 
L 46.6875 54.6875 
L 56.203125 54.6875 
L 35.6875 0 
L 23.484375 0 
z
" id="DejaVuSans-118"/>
      <path d="M 56.203125 29.59375 
L 56.203125 25.203125 
L 14.890625 25.203125 
Q 15.484375 15.921875 20.484375 11.0625 
Q 25.484375 6.203125 34.421875 6.203125 
Q 39.59375 6.203125 44.453125 7.46875 
Q 49.3125 8.734375 54.109375 11.28125 
L 54.109375 2.78125 
Q 49.265625 0.734375 44.1875 -0.34375 
Q 39.109375 -1.421875 33.890625 -1.421875 
Q 20.796875 -1.421875 13.15625 6.1875 
Q 5.515625 13.8125 5.515625 26.8125 
Q 5.515625 40.234375 12.765625 48.109375 
Q 20.015625 56 32.328125 56 
Q 43.359375 56 49.78125 48.890625 
Q 56.203125 41.796875 56.203125 29.59375 
z
M 47.21875 32.234375 
Q 47.125 39.59375 43.09375 43.984375 
Q 39.0625 48.390625 32.421875 48.390625 
Q 24.90625 48.390625 20.390625 44.140625 
Q 15.875 39.890625 15.1875 32.171875 
z
" id="DejaVuSans-101"/>
      <path id="DejaVuSans-32"/>
      <path d="M 64.40625 67.28125 
L 64.40625 56.890625 
Q 59.421875 61.53125 53.78125 63.8125 
Q 48.140625 66.109375 41.796875 66.109375 
Q 29.296875 66.109375 22.65625 58.46875 
Q 16.015625 50.828125 16.015625 36.375 
Q 16.015625 21.96875 22.65625 14.328125 
Q 29.296875 6.6875 41.796875 6.6875 
Q 48.140625 6.6875 53.78125 8.984375 
Q 59.421875 11.28125 64.40625 15.921875 
L 64.40625 5.609375 
Q 59.234375 2.09375 53.4375 0.328125 
Q 47.65625 -1.421875 41.21875 -1.421875 
Q 24.65625 -1.421875 15.125 8.703125 
Q 5.609375 18.84375 5.609375 36.375 
Q 5.609375 53.953125 15.125 64.078125 
Q 24.65625 74.21875 41.21875 74.21875 
Q 47.75 74.21875 53.53125 72.484375 
Q 59.328125 70.75 64.40625 67.28125 
z
" id="DejaVuSans-67"/>
      <path d="M 30.609375 48.390625 
Q 23.390625 48.390625 19.1875 42.75 
Q 14.984375 37.109375 14.984375 27.296875 
Q 14.984375 17.484375 19.15625 11.84375 
Q 23.34375 6.203125 30.609375 6.203125 
Q 37.796875 6.203125 41.984375 11.859375 
Q 46.1875 17.53125 46.1875 27.296875 
Q 46.1875 37.015625 41.984375 42.703125 
Q 37.796875 48.390625 30.609375 48.390625 
z
M 30.609375 56 
Q 42.328125 56 49.015625 48.375 
Q 55.71875 40.765625 55.71875 27.296875 
Q 55.71875 13.875 49.015625 6.21875 
Q 42.328125 -1.421875 30.609375 -1.421875 
Q 18.84375 -1.421875 12.171875 6.21875 
Q 5.515625 13.875 5.515625 27.296875 
Q 5.515625 40.765625 12.171875 48.375 
Q 18.84375 56 30.609375 56 
z
" id="DejaVuSans-111"/>
      <path d="M 41.109375 46.296875 
Q 39.59375 47.171875 37.8125 47.578125 
Q 36.03125 48 33.890625 48 
Q 26.265625 48 22.1875 43.046875 
Q 18.109375 38.09375 18.109375 28.8125 
L 18.109375 0 
L 9.078125 0 
L 9.078125 54.6875 
L 18.109375 54.6875 
L 18.109375 46.1875 
Q 20.953125 51.171875 25.484375 53.578125 
Q 30.03125 56 36.53125 56 
Q 37.453125 56 38.578125 55.875 
Q 39.703125 55.765625 41.0625 55.515625 
z
" id="DejaVuSans-114"/>
      <path d="M 44.28125 53.078125 
L 44.28125 44.578125 
Q 40.484375 46.53125 36.375 47.5 
Q 32.28125 48.484375 27.875 48.484375 
Q 21.1875 48.484375 17.84375 46.4375 
Q 14.5 44.390625 14.5 40.28125 
Q 14.5 37.15625 16.890625 35.375 
Q 19.28125 33.59375 26.515625 31.984375 
L 29.59375 31.296875 
Q 39.15625 29.25 43.1875 25.515625 
Q 47.21875 21.78125 47.21875 15.09375 
Q 47.21875 7.46875 41.1875 3.015625 
Q 35.15625 -1.421875 24.609375 -1.421875 
Q 20.21875 -1.421875 15.453125 -0.5625 
Q 10.6875 0.296875 5.421875 2 
L 5.421875 11.28125 
Q 10.40625 8.6875 15.234375 7.390625 
Q 20.0625 6.109375 24.8125 6.109375 
Q 31.15625 6.109375 34.5625 8.28125 
Q 37.984375 10.453125 37.984375 14.40625 
Q 37.984375 18.0625 35.515625 20.015625 
Q 33.0625 21.96875 24.703125 23.78125 
L 21.578125 24.515625 
Q 13.234375 26.265625 9.515625 29.90625 
Q 5.8125 33.546875 5.8125 39.890625 
Q 5.8125 47.609375 11.28125 51.796875 
Q 16.75 56 26.8125 56 
Q 31.78125 56 36.171875 55.265625 
Q 40.578125 54.546875 44.28125 53.078125 
z
" id="DejaVuSans-115"/>
     </defs>
     <g transform="translate(319.550312 419.11625)scale(0.12 -0.12)">
      <use xlink:href="#DejaVuSans-65"/>
      <use x="68.392578" xlink:href="#DejaVuSans-99"/>
      <use x="123.373047" xlink:href="#DejaVuSans-116"/>
      <use x="162.582031" xlink:href="#DejaVuSans-105"/>
      <use x="190.365234" xlink:href="#DejaVuSans-118"/>
      <use x="249.544922" xlink:href="#DejaVuSans-101"/>
      <use x="311.068359" xlink:href="#DejaVuSans-32"/>
      <use x="342.855469" xlink:href="#DejaVuSans-67"/>
      <use x="412.679688" xlink:href="#DejaVuSans-111"/>
      <use x="473.861328" xlink:href="#DejaVuSans-114"/>
      <use x="514.943359" xlink:href="#DejaVuSans-101"/>
      <use x="576.466797" xlink:href="#DejaVuSans-115"/>
     </g>
    </g>
   </g>
   <g id="matplotlib.axis_2">
    <g id="ytick_1">
     <g id="line2d_16">
      <defs>
       <path d="M 0 0 
L -3.5 0 
" id="m3a24eacd0e" style="stroke:#000000;stroke-width:0.8;"/>
      </defs>
      <g>
       <use style="stroke:#000000;stroke-width:0.8;" x="77.33" xlink:href="#m3a24eacd0e" y="389.32"/>
      </g>
     </g>
     <g id="text_17">
      <!-- 0 -->
      <g transform="translate(63.9675 393.119219)scale(0.1 -0.1)">
       <use xlink:href="#DejaVuSans-48"/>
      </g>
     </g>
    </g>
    <g id="ytick_2">
     <g id="line2d_17">
      <g>
       <use style="stroke:#000000;stroke-width:0.8;" x="77.33" xlink:href="#m3a24eacd0e" y="329.60917"/>
      </g>
     </g>
     <g id="text_18">
      <!-- 200000 -->
      <g transform="translate(32.155 333.408388)scale(0.1 -0.1)">
       <use xlink:href="#DejaVuSans-50"/>
       <use x="63.623047" xlink:href="#DejaVuSans-48"/>
       <use x="127.246094" xlink:href="#DejaVuSans-48"/>
       <use x="190.869141" xlink:href="#DejaVuSans-48"/>
       <use x="254.492188" xlink:href="#DejaVuSans-48"/>
       <use x="318.115234" xlink:href="#DejaVuSans-48"/>
      </g>
     </g>
    </g>
    <g id="ytick_3">
     <g id="line2d_18">
      <g>
       <use style="stroke:#000000;stroke-width:0.8;" x="77.33" xlink:href="#m3a24eacd0e" y="269.898339"/>
      </g>
     </g>
     <g id="text_19">
      <!-- 400000 -->
      <g transform="translate(32.155 273.697558)scale(0.1 -0.1)">
       <use xlink:href="#DejaVuSans-52"/>
       <use x="63.623047" xlink:href="#DejaVuSans-48"/>
       <use x="127.246094" xlink:href="#DejaVuSans-48"/>
       <use x="190.869141" xlink:href="#DejaVuSans-48"/>
       <use x="254.492188" xlink:href="#DejaVuSans-48"/>
       <use x="318.115234" xlink:href="#DejaVuSans-48"/>
      </g>
     </g>
    </g>
    <g id="ytick_4">
     <g id="line2d_19">
      <g>
       <use style="stroke:#000000;stroke-width:0.8;" x="77.33" xlink:href="#m3a24eacd0e" y="210.187509"/>
      </g>
     </g>
     <g id="text_20">
      <!-- 600000 -->
      <g transform="translate(32.155 213.986727)scale(0.1 -0.1)">
       <use xlink:href="#DejaVuSans-54"/>
       <use x="63.623047" xlink:href="#DejaVuSans-48"/>
       <use x="127.246094" xlink:href="#DejaVuSans-48"/>
       <use x="190.869141" xlink:href="#DejaVuSans-48"/>
       <use x="254.492188" xlink:href="#DejaVuSans-48"/>
       <use x="318.115234" xlink:href="#DejaVuSans-48"/>
      </g>
     </g>
    </g>
    <g id="ytick_5">
     <g id="line2d_20">
      <g>
       <use style="stroke:#000000;stroke-width:0.8;" x="77.33" xlink:href="#m3a24eacd0e" y="150.476678"/>
      </g>
     </g>
     <g id="text_21">
      <!-- 800000 -->
      <g transform="translate(32.155 154.275897)scale(0.1 -0.1)">
       <use xlink:href="#DejaVuSans-56"/>
       <use x="63.623047" xlink:href="#DejaVuSans-48"/>
       <use x="127.246094" xlink:href="#DejaVuSans-48"/>
       <use x="190.869141" xlink:href="#DejaVuSans-48"/>
       <use x="254.492188" xlink:href="#DejaVuSans-48"/>
       <use x="318.115234" xlink:href="#DejaVuSans-48"/>
      </g>
     </g>
    </g>
    <g id="ytick_6">
     <g id="line2d_21">
      <g>
       <use style="stroke:#000000;stroke-width:0.8;" x="77.33" xlink:href="#m3a24eacd0e" y="90.765848"/>
      </g>
     </g>
     <g id="text_22">
      <!-- 1000000 -->
      <g transform="translate(25.7925 94.565066)scale(0.1 -0.1)">
       <use xlink:href="#DejaVuSans-49"/>
       <use x="63.623047" xlink:href="#DejaVuSans-48"/>
       <use x="127.246094" xlink:href="#DejaVuSans-48"/>
       <use x="190.869141" xlink:href="#DejaVuSans-48"/>
       <use x="254.492188" xlink:href="#DejaVuSans-48"/>
       <use x="318.115234" xlink:href="#DejaVuSans-48"/>
       <use x="381.738281" xlink:href="#DejaVuSans-48"/>
      </g>
     </g>
    </g>
    <g id="ytick_7">
     <g id="line2d_22">
      <g>
       <use style="stroke:#000000;stroke-width:0.8;" x="77.33" xlink:href="#m3a24eacd0e" y="31.055017"/>
      </g>
     </g>
     <g id="text_23">
      <!-- 1200000 -->
      <g transform="translate(25.7925 34.854236)scale(0.1 -0.1)">
       <use xlink:href="#DejaVuSans-49"/>
       <use x="63.623047" xlink:href="#DejaVuSans-50"/>
       <use x="127.246094" xlink:href="#DejaVuSans-48"/>
       <use x="190.869141" xlink:href="#DejaVuSans-48"/>
       <use x="254.492188" xlink:href="#DejaVuSans-48"/>
       <use x="318.115234" xlink:href="#DejaVuSans-48"/>
       <use x="381.738281" xlink:href="#DejaVuSans-48"/>
      </g>
     </g>
    </g>
    <g id="text_24">
     <!-- Nanoseconds per increment -->
     <defs>
      <path d="M 9.8125 72.90625 
L 23.09375 72.90625 
L 55.421875 11.921875 
L 55.421875 72.90625 
L 64.984375 72.90625 
L 64.984375 0 
L 51.703125 0 
L 19.390625 60.984375 
L 19.390625 0 
L 9.8125 0 
z
" id="DejaVuSans-78"/>
      <path d="M 34.28125 27.484375 
Q 23.390625 27.484375 19.1875 25 
Q 14.984375 22.515625 14.984375 16.5 
Q 14.984375 11.71875 18.140625 8.90625 
Q 21.296875 6.109375 26.703125 6.109375 
Q 34.1875 6.109375 38.703125 11.40625 
Q 43.21875 16.703125 43.21875 25.484375 
L 43.21875 27.484375 
z
M 52.203125 31.203125 
L 52.203125 0 
L 43.21875 0 
L 43.21875 8.296875 
Q 40.140625 3.328125 35.546875 0.953125 
Q 30.953125 -1.421875 24.3125 -1.421875 
Q 15.921875 -1.421875 10.953125 3.296875 
Q 6 8.015625 6 15.921875 
Q 6 25.140625 12.171875 29.828125 
Q 18.359375 34.515625 30.609375 34.515625 
L 43.21875 34.515625 
L 43.21875 35.40625 
Q 43.21875 41.609375 39.140625 45 
Q 35.0625 48.390625 27.6875 48.390625 
Q 23 48.390625 18.546875 47.265625 
Q 14.109375 46.140625 10.015625 43.890625 
L 10.015625 52.203125 
Q 14.9375 54.109375 19.578125 55.046875 
Q 24.21875 56 28.609375 56 
Q 40.484375 56 46.34375 49.84375 
Q 52.203125 43.703125 52.203125 31.203125 
z
" id="DejaVuSans-97"/>
      <path d="M 54.890625 33.015625 
L 54.890625 0 
L 45.90625 0 
L 45.90625 32.71875 
Q 45.90625 40.484375 42.875 44.328125 
Q 39.84375 48.1875 33.796875 48.1875 
Q 26.515625 48.1875 22.3125 43.546875 
Q 18.109375 38.921875 18.109375 30.90625 
L 18.109375 0 
L 9.078125 0 
L 9.078125 54.6875 
L 18.109375 54.6875 
L 18.109375 46.1875 
Q 21.34375 51.125 25.703125 53.5625 
Q 30.078125 56 35.796875 56 
Q 45.21875 56 50.046875 50.171875 
Q 54.890625 44.34375 54.890625 33.015625 
z
" id="DejaVuSans-110"/>
      <path d="M 45.40625 46.390625 
L 45.40625 75.984375 
L 54.390625 75.984375 
L 54.390625 0 
L 45.40625 0 
L 45.40625 8.203125 
Q 42.578125 3.328125 38.25 0.953125 
Q 33.9375 -1.421875 27.875 -1.421875 
Q 17.96875 -1.421875 11.734375 6.484375 
Q 5.515625 14.40625 5.515625 27.296875 
Q 5.515625 40.1875 11.734375 48.09375 
Q 17.96875 56 27.875 56 
Q 33.9375 56 38.25 53.625 
Q 42.578125 51.265625 45.40625 46.390625 
z
M 14.796875 27.296875 
Q 14.796875 17.390625 18.875 11.75 
Q 22.953125 6.109375 30.078125 6.109375 
Q 37.203125 6.109375 41.296875 11.75 
Q 45.40625 17.390625 45.40625 27.296875 
Q 45.40625 37.203125 41.296875 42.84375 
Q 37.203125 48.484375 30.078125 48.484375 
Q 22.953125 48.484375 18.875 42.84375 
Q 14.796875 37.203125 14.796875 27.296875 
z
" id="DejaVuSans-100"/>
      <path d="M 18.109375 8.203125 
L 18.109375 -20.796875 
L 9.078125 -20.796875 
L 9.078125 54.6875 
L 18.109375 54.6875 
L 18.109375 46.390625 
Q 20.953125 51.265625 25.265625 53.625 
Q 29.59375 56 35.59375 56 
Q 45.5625 56 51.78125 48.09375 
Q 58.015625 40.1875 58.015625 27.296875 
Q 58.015625 14.40625 51.78125 6.484375 
Q 45.5625 -1.421875 35.59375 -1.421875 
Q 29.59375 -1.421875 25.265625 0.953125 
Q 20.953125 3.328125 18.109375 8.203125 
z
M 48.6875 27.296875 
Q 48.6875 37.203125 44.609375 42.84375 
Q 40.53125 48.484375 33.40625 48.484375 
Q 26.265625 48.484375 22.1875 42.84375 
Q 18.109375 37.203125 18.109375 27.296875 
Q 18.109375 17.390625 22.1875 11.75 
Q 26.265625 6.109375 33.40625 6.109375 
Q 40.53125 6.109375 44.609375 11.75 
Q 48.6875 17.390625 48.6875 27.296875 
z
" id="DejaVuSans-112"/>
      <path d="M 52 44.1875 
Q 55.375 50.25 60.0625 53.125 
Q 64.75 56 71.09375 56 
Q 79.640625 56 84.28125 50.015625 
Q 88.921875 44.046875 88.921875 33.015625 
L 88.921875 0 
L 79.890625 0 
L 79.890625 32.71875 
Q 79.890625 40.578125 77.09375 44.375 
Q 74.3125 48.1875 68.609375 48.1875 
Q 61.625 48.1875 57.5625 43.546875 
Q 53.515625 38.921875 53.515625 30.90625 
L 53.515625 0 
L 44.484375 0 
L 44.484375 32.71875 
Q 44.484375 40.625 41.703125 44.40625 
Q 38.921875 48.1875 33.109375 48.1875 
Q 26.21875 48.1875 22.15625 43.53125 
Q 18.109375 38.875 18.109375 30.90625 
L 18.109375 0 
L 9.078125 0 
L 9.078125 54.6875 
L 18.109375 54.6875 
L 18.109375 46.1875 
Q 21.1875 51.21875 25.484375 53.609375 
Q 29.78125 56 35.6875 56 
Q 41.65625 56 45.828125 52.96875 
Q 50 49.953125 52 44.1875 
z
" id="DejaVuSans-109"/>
     </defs>
     <g transform="translate(19.296875 291.941562)rotate(-90)scale(0.12 -0.12)">
      <use xlink:href="#DejaVuSans-78"/>
      <use x="74.804688" xlink:href="#DejaVuSans-97"/>
      <use x="136.083984" xlink:href="#DejaVuSans-110"/>
      <use x="199.462891" xlink:href="#DejaVuSans-111"/>
      <use x="260.644531" xlink:href="#DejaVuSans-115"/>
      <use x="312.744141" xlink:href="#DejaVuSans-101"/>
      <use x="374.267578" xlink:href="#DejaVuSans-99"/>
      <use x="429.248047" xlink:href="#DejaVuSans-111"/>
      <use x="490.429688" xlink:href="#DejaVuSans-110"/>
      <use x="553.808594" xlink:href="#DejaVuSans-100"/>
      <use x="617.285156" xlink:href="#DejaVuSans-115"/>
      <use x="669.384766" xlink:href="#DejaVuSans-32"/>
      <use x="701.171875" xlink:href="#DejaVuSans-112"/>
      <use x="764.648438" xlink:href="#DejaVuSans-101"/>
      <use x="826.171875" xlink:href="#DejaVuSans-114"/>
      <use x="867.285156" xlink:href="#DejaVuSans-32"/>
      <use x="899.072266" xlink:href="#DejaVuSans-105"/>
      <use x="926.855469" xlink:href="#DejaVuSans-110"/>
      <use x="990.234375" xlink:href="#DejaVuSans-99"/>
      <use x="1045.214844" xlink:href="#DejaVuSans-114"/>
      <use x="1086.296875" xlink:href="#DejaVuSans-101"/>
      <use x="1147.820312" xlink:href="#DejaVuSans-109"/>
      <use x="1245.232422" xlink:href="#DejaVuSans-101"/>
      <use x="1306.755859" xlink:href="#DejaVuSans-110"/>
      <use x="1370.134766" xlink:href="#DejaVuSans-116"/>
     </g>
    </g>
   </g>
   <g id="LineCollection_1">
    <path clip-path="url(#p2b8a11e210)" d="M 88.216361 389.264027 
L 88.216361 389.225096 
" style="fill:none;stroke:#000000;stroke-width:1.5;"/>
    <path clip-path="url(#p2b8a11e210)" d="M 125.541028 389.22011 
L 125.541028 389.217566 
" style="fill:none;stroke:#000000;stroke-width:1.5;"/>
    <path clip-path="url(#p2b8a11e210)" d="M 162.865694 389.160172 
L 162.865694 389.156834 
" style="fill:none;stroke:#000000;stroke-width:1.5;"/>
    <path clip-path="url(#p2b8a11e210)" d="M 200.190361 389.119497 
L 200.190361 389.114213 
" style="fill:none;stroke:#000000;stroke-width:1.5;"/>
    <path clip-path="url(#p2b8a11e210)" d="M 237.515028 389.008292 
L 237.515028 388.998457 
" style="fill:none;stroke:#000000;stroke-width:1.5;"/>
    <path clip-path="url(#p2b8a11e210)" d="M 274.839694 388.910085 
L 274.839694 388.89622 
" style="fill:none;stroke:#000000;stroke-width:1.5;"/>
    <path clip-path="url(#p2b8a11e210)" d="M 312.164361 388.825379 
L 312.164361 388.810189 
" style="fill:none;stroke:#000000;stroke-width:1.5;"/>
    <path clip-path="url(#p2b8a11e210)" d="M 349.489028 388.685531 
L 349.489028 388.67203 
" style="fill:none;stroke:#000000;stroke-width:1.5;"/>
    <path clip-path="url(#p2b8a11e210)" d="M 386.813694 388.590178 
L 386.813694 388.550925 
" style="fill:none;stroke:#000000;stroke-width:1.5;"/>
    <path clip-path="url(#p2b8a11e210)" d="M 424.138361 388.497089 
L 424.138361 388.476674 
" style="fill:none;stroke:#000000;stroke-width:1.5;"/>
    <path clip-path="url(#p2b8a11e210)" d="M 461.463028 388.434375 
L 461.463028 388.416074 
" style="fill:none;stroke:#000000;stroke-width:1.5;"/>
    <path clip-path="url(#p2b8a11e210)" d="M 498.787694 388.373064 
L 498.787694 388.345042 
" style="fill:none;stroke:#000000;stroke-width:1.5;"/>
    <path clip-path="url(#p2b8a11e210)" d="M 536.112361 388.276697 
L 536.112361 388.248746 
" style="fill:none;stroke:#000000;stroke-width:1.5;"/>
    <path clip-path="url(#p2b8a11e210)" d="M 573.437028 388.192182 
L 573.437028 388.160308 
" style="fill:none;stroke:#000000;stroke-width:1.5;"/>
    <path clip-path="url(#p2b8a11e210)" d="M 610.761694 388.114194 
L 610.761694 388.09056 
" style="fill:none;stroke:#000000;stroke-width:1.5;"/>
   </g>
   <g id="LineCollection_2">
    <path clip-path="url(#p2b8a11e210)" d="M 91.32675 389.310834 
L 91.32675 389.310834 
" style="fill:none;stroke:#000000;stroke-width:1.5;"/>
    <path clip-path="url(#p2b8a11e210)" d="M 128.651417 389.294718 
L 128.651417 389.294068 
" style="fill:none;stroke:#000000;stroke-width:1.5;"/>
    <path clip-path="url(#p2b8a11e210)" d="M 165.976083 389.288598 
L 165.976083 389.288473 
" style="fill:none;stroke:#000000;stroke-width:1.5;"/>
    <path clip-path="url(#p2b8a11e210)" d="M 203.30075 389.279803 
L 203.30075 389.279707 
" style="fill:none;stroke:#000000;stroke-width:1.5;"/>
    <path clip-path="url(#p2b8a11e210)" d="M 240.625417 389.243092 
L 240.625417 389.242955 
" style="fill:none;stroke:#000000;stroke-width:1.5;"/>
    <path clip-path="url(#p2b8a11e210)" d="M 277.950083 389.222868 
L 277.950083 389.222456 
" style="fill:none;stroke:#000000;stroke-width:1.5;"/>
    <path clip-path="url(#p2b8a11e210)" d="M 315.27475 389.19767 
L 315.27475 389.197169 
" style="fill:none;stroke:#000000;stroke-width:1.5;"/>
    <path clip-path="url(#p2b8a11e210)" d="M 352.599417 389.229317 
L 352.599417 389.228726 
" style="fill:none;stroke:#000000;stroke-width:1.5;"/>
    <path clip-path="url(#p2b8a11e210)" d="M 389.924083 389.156398 
L 389.924083 389.153884 
" style="fill:none;stroke:#000000;stroke-width:1.5;"/>
    <path clip-path="url(#p2b8a11e210)" d="M 427.24875 389.144456 
L 427.24875 389.141733 
" style="fill:none;stroke:#000000;stroke-width:1.5;"/>
    <path clip-path="url(#p2b8a11e210)" d="M 464.573417 389.080309 
L 464.573417 389.077419 
" style="fill:none;stroke:#000000;stroke-width:1.5;"/>
    <path clip-path="url(#p2b8a11e210)" d="M 501.898083 389.122972 
L 501.898083 389.121384 
" style="fill:none;stroke:#000000;stroke-width:1.5;"/>
    <path clip-path="url(#p2b8a11e210)" d="M 539.22275 389.015863 
L 539.22275 389.011594 
" style="fill:none;stroke:#000000;stroke-width:1.5;"/>
    <path clip-path="url(#p2b8a11e210)" d="M 576.547417 388.97176 
L 576.547417 388.967461 
" style="fill:none;stroke:#000000;stroke-width:1.5;"/>
    <path clip-path="url(#p2b8a11e210)" d="M 613.872083 388.912121 
L 613.872083 388.907392 
" style="fill:none;stroke:#000000;stroke-width:1.5;"/>
   </g>
   <g id="LineCollection_3">
    <path clip-path="url(#p2b8a11e210)" d="M 94.437139 389.303669 
L 94.437139 389.303639 
" style="fill:none;stroke:#000000;stroke-width:1.5;"/>
    <path clip-path="url(#p2b8a11e210)" d="M 131.761806 389.277611 
L 131.761806 389.277229 
" style="fill:none;stroke:#000000;stroke-width:1.5;"/>
    <path clip-path="url(#p2b8a11e210)" d="M 169.086472 389.267861 
L 169.086472 389.267598 
" style="fill:none;stroke:#000000;stroke-width:1.5;"/>
    <path clip-path="url(#p2b8a11e210)" d="M 206.411139 389.251512 
L 206.411139 389.251249 
" style="fill:none;stroke:#000000;stroke-width:1.5;"/>
    <path clip-path="url(#p2b8a11e210)" d="M 243.735806 389.203874 
L 243.735806 389.203295 
" style="fill:none;stroke:#000000;stroke-width:1.5;"/>
    <path clip-path="url(#p2b8a11e210)" d="M 281.060472 389.163767 
L 281.060472 389.162722 
" style="fill:none;stroke:#000000;stroke-width:1.5;"/>
    <path clip-path="url(#p2b8a11e210)" d="M 318.385139 389.129534 
L 318.385139 389.127236 
" style="fill:none;stroke:#000000;stroke-width:1.5;"/>
    <path clip-path="url(#p2b8a11e210)" d="M 355.709806 389.141465 
L 355.709806 389.139667 
" style="fill:none;stroke:#000000;stroke-width:1.5;"/>
    <path clip-path="url(#p2b8a11e210)" d="M 393.034472 389.063536 
L 393.034472 389.061727 
" style="fill:none;stroke:#000000;stroke-width:1.5;"/>
    <path clip-path="url(#p2b8a11e210)" d="M 430.359139 388.989721 
L 430.359139 388.984216 
" style="fill:none;stroke:#000000;stroke-width:1.5;"/>
    <path clip-path="url(#p2b8a11e210)" d="M 467.683806 388.933175 
L 467.683806 388.925491 
" style="fill:none;stroke:#000000;stroke-width:1.5;"/>
    <path clip-path="url(#p2b8a11e210)" d="M 505.008472 388.934214 
L 505.008472 388.932101 
" style="fill:none;stroke:#000000;stroke-width:1.5;"/>
    <path clip-path="url(#p2b8a11e210)" d="M 542.333139 388.841197 
L 542.333139 388.834342 
" style="fill:none;stroke:#000000;stroke-width:1.5;"/>
    <path clip-path="url(#p2b8a11e210)" d="M 579.657806 388.784173 
L 579.657806 388.777885 
" style="fill:none;stroke:#000000;stroke-width:1.5;"/>
    <path clip-path="url(#p2b8a11e210)" d="M 616.982472 388.711105 
L 616.982472 388.69727 
" style="fill:none;stroke:#000000;stroke-width:1.5;"/>
   </g>
   <g id="LineCollection_4">
    <path clip-path="url(#p2b8a11e210)" d="M 97.547528 389.105841 
L 97.547528 389.094454 
" style="fill:none;stroke:#000000;stroke-width:1.5;"/>
    <path clip-path="url(#p2b8a11e210)" d="M 134.872194 389.075323 
L 134.872194 388.99952 
" style="fill:none;stroke:#000000;stroke-width:1.5;"/>
    <path clip-path="url(#p2b8a11e210)" d="M 172.196861 388.870986 
L 172.196861 388.815873 
" style="fill:none;stroke:#000000;stroke-width:1.5;"/>
    <path clip-path="url(#p2b8a11e210)" d="M 209.521528 388.605082 
L 209.521528 388.54106 
" style="fill:none;stroke:#000000;stroke-width:1.5;"/>
    <path clip-path="url(#p2b8a11e210)" d="M 246.846194 388.44486 
L 246.846194 388.362764 
" style="fill:none;stroke:#000000;stroke-width:1.5;"/>
    <path clip-path="url(#p2b8a11e210)" d="M 284.170861 388.338515 
L 284.170861 388.083747 
" style="fill:none;stroke:#000000;stroke-width:1.5;"/>
    <path clip-path="url(#p2b8a11e210)" d="M 321.495528 388.048046 
L 321.495528 387.858267 
" style="fill:none;stroke:#000000;stroke-width:1.5;"/>
    <path clip-path="url(#p2b8a11e210)" d="M 358.820194 387.898399 
L 358.820194 387.780338 
" style="fill:none;stroke:#000000;stroke-width:1.5;"/>
    <path clip-path="url(#p2b8a11e210)" d="M 396.144861 387.785844 
L 396.144861 387.606783 
" style="fill:none;stroke:#000000;stroke-width:1.5;"/>
    <path clip-path="url(#p2b8a11e210)" d="M 433.469528 387.588708 
L 433.469528 387.420001 
" style="fill:none;stroke:#000000;stroke-width:1.5;"/>
    <path clip-path="url(#p2b8a11e210)" d="M 470.794194 387.50088 
L 470.794194 387.234587 
" style="fill:none;stroke:#000000;stroke-width:1.5;"/>
    <path clip-path="url(#p2b8a11e210)" d="M 508.118861 387.265458 
L 508.118861 387.106758 
" style="fill:none;stroke:#000000;stroke-width:1.5;"/>
    <path clip-path="url(#p2b8a11e210)" d="M 545.443528 387.107457 
L 545.443528 386.872955 
" style="fill:none;stroke:#000000;stroke-width:1.5;"/>
    <path clip-path="url(#p2b8a11e210)" d="M 582.768194 386.930725 
L 582.768194 386.762161 
" style="fill:none;stroke:#000000;stroke-width:1.5;"/>
    <path clip-path="url(#p2b8a11e210)" d="M 620.092861 386.780863 
L 620.092861 386.628755 
" style="fill:none;stroke:#000000;stroke-width:1.5;"/>
   </g>
   <g id="LineCollection_5">
    <path clip-path="url(#p2b8a11e210)" d="M 100.657917 382.282864 
L 100.657917 382.088732 
" style="fill:none;stroke:#000000;stroke-width:1.5;"/>
    <path clip-path="url(#p2b8a11e210)" d="M 137.982583 367.188008 
L 137.982583 366.718233 
" style="fill:none;stroke:#000000;stroke-width:1.5;"/>
    <path clip-path="url(#p2b8a11e210)" d="M 175.30725 358.861231 
L 175.30725 358.621946 
" style="fill:none;stroke:#000000;stroke-width:1.5;"/>
    <path clip-path="url(#p2b8a11e210)" d="M 212.631917 351.736487 
L 212.631917 349.877432 
" style="fill:none;stroke:#000000;stroke-width:1.5;"/>
    <path clip-path="url(#p2b8a11e210)" d="M 249.956583 336.024006 
L 249.956583 334.773303 
" style="fill:none;stroke:#000000;stroke-width:1.5;"/>
    <path clip-path="url(#p2b8a11e210)" d="M 287.28125 319.473256 
L 287.28125 318.3492 
" style="fill:none;stroke:#000000;stroke-width:1.5;"/>
    <path clip-path="url(#p2b8a11e210)" d="M 324.605917 297.762386 
L 324.605917 296.154845 
" style="fill:none;stroke:#000000;stroke-width:1.5;"/>
    <path clip-path="url(#p2b8a11e210)" d="M 361.930583 275.834957 
L 361.930583 274.609356 
" style="fill:none;stroke:#000000;stroke-width:1.5;"/>
    <path clip-path="url(#p2b8a11e210)" d="M 399.25525 251.878446 
L 399.25525 249.765776 
" style="fill:none;stroke:#000000;stroke-width:1.5;"/>
    <path clip-path="url(#p2b8a11e210)" d="M 436.579917 224.050369 
L 436.579917 220.329256 
" style="fill:none;stroke:#000000;stroke-width:1.5;"/>
    <path clip-path="url(#p2b8a11e210)" d="M 473.904583 193.416563 
L 473.904583 189.493717 
" style="fill:none;stroke:#000000;stroke-width:1.5;"/>
    <path clip-path="url(#p2b8a11e210)" d="M 511.22925 160.896791 
L 511.22925 157.052071 
" style="fill:none;stroke:#000000;stroke-width:1.5;"/>
    <path clip-path="url(#p2b8a11e210)" d="M 548.553917 125.949015 
L 548.553917 122.456266 
" style="fill:none;stroke:#000000;stroke-width:1.5;"/>
    <path clip-path="url(#p2b8a11e210)" d="M 585.878583 87.769546 
L 585.878583 84.672411 
" style="fill:none;stroke:#000000;stroke-width:1.5;"/>
    <path clip-path="url(#p2b8a11e210)" d="M 623.20325 48.044994 
L 623.20325 42.767619 
" style="fill:none;stroke:#000000;stroke-width:1.5;"/>
   </g>
   <g id="LineCollection_6">
    <path clip-path="url(#p2b8a11e210)" d="M 103.768306 384.48196 
L 103.768306 384.40796 
" style="fill:none;stroke:#000000;stroke-width:1.5;"/>
    <path clip-path="url(#p2b8a11e210)" d="M 141.092972 379.103793 
L 141.092972 378.40858 
" style="fill:none;stroke:#000000;stroke-width:1.5;"/>
    <path clip-path="url(#p2b8a11e210)" d="M 178.417639 374.978874 
L 178.417639 374.833024 
" style="fill:none;stroke:#000000;stroke-width:1.5;"/>
    <path clip-path="url(#p2b8a11e210)" d="M 215.742306 370.856629 
L 215.742306 370.712863 
" style="fill:none;stroke:#000000;stroke-width:1.5;"/>
    <path clip-path="url(#p2b8a11e210)" d="M 253.066972 367.315639 
L 253.066972 366.317334 
" style="fill:none;stroke:#000000;stroke-width:1.5;"/>
    <path clip-path="url(#p2b8a11e210)" d="M 290.391639 363.225698 
L 290.391639 361.899419 
" style="fill:none;stroke:#000000;stroke-width:1.5;"/>
    <path clip-path="url(#p2b8a11e210)" d="M 327.716306 359.551882 
L 327.716306 358.488587 
" style="fill:none;stroke:#000000;stroke-width:1.5;"/>
    <path clip-path="url(#p2b8a11e210)" d="M 365.040972 355.583423 
L 365.040972 354.29463 
" style="fill:none;stroke:#000000;stroke-width:1.5;"/>
    <path clip-path="url(#p2b8a11e210)" d="M 402.365639 351.716728 
L 402.365639 350.145921 
" style="fill:none;stroke:#000000;stroke-width:1.5;"/>
    <path clip-path="url(#p2b8a11e210)" d="M 439.690306 347.678395 
L 439.690306 346.062895 
" style="fill:none;stroke:#000000;stroke-width:1.5;"/>
    <path clip-path="url(#p2b8a11e210)" d="M 477.014972 343.648189 
L 477.014972 341.798126 
" style="fill:none;stroke:#000000;stroke-width:1.5;"/>
    <path clip-path="url(#p2b8a11e210)" d="M 514.339639 339.569306 
L 514.339639 337.63166 
" style="fill:none;stroke:#000000;stroke-width:1.5;"/>
    <path clip-path="url(#p2b8a11e210)" d="M 551.664306 335.411981 
L 551.664306 333.62357 
" style="fill:none;stroke:#000000;stroke-width:1.5;"/>
    <path clip-path="url(#p2b8a11e210)" d="M 588.988972 330.39454 
L 588.988972 329.04981 
" style="fill:none;stroke:#000000;stroke-width:1.5;"/>
    <path clip-path="url(#p2b8a11e210)" d="M 626.313639 327.954194 
L 626.313639 325.521874 
" style="fill:none;stroke:#000000;stroke-width:1.5;"/>
   </g>
   <g id="patch_93">
    <path d="M 77.33 389.32 
L 77.33 25.44 
" style="fill:none;stroke:#000000;stroke-linecap:square;stroke-linejoin:miter;stroke-width:0.8;"/>
   </g>
   <g id="patch_94">
    <path d="M 637.2 389.32 
L 637.2 25.44 
" style="fill:none;stroke:#000000;stroke-linecap:square;stroke-linejoin:miter;stroke-width:0.8;"/>
   </g>
   <g id="patch_95">
    <path d="M 77.33 389.32 
L 637.2 389.32 
" style="fill:none;stroke:#000000;stroke-linecap:square;stroke-linejoin:miter;stroke-width:0.8;"/>
   </g>
   <g id="patch_96">
    <path d="M 77.33 25.44 
L 637.2 25.44 
" style="fill:none;stroke:#000000;stroke-linecap:square;stroke-linejoin:miter;stroke-width:0.8;"/>
   </g>
   <g id="text_25">
    <!-- Increment Cost: More Fair Locks -->
    <defs>
     <path d="M 9.8125 72.90625 
L 19.671875 72.90625 
L 19.671875 0 
L 9.8125 0 
z
" id="DejaVuSans-73"/>
     <path d="M 11.71875 12.40625 
L 22.015625 12.40625 
L 22.015625 0 
L 11.71875 0 
z
M 11.71875 51.703125 
L 22.015625 51.703125 
L 22.015625 39.3125 
L 11.71875 39.3125 
z
" id="DejaVuSans-58"/>
     <path d="M 9.8125 72.90625 
L 24.515625 72.90625 
L 43.109375 23.296875 
L 61.8125 72.90625 
L 76.515625 72.90625 
L 76.515625 0 
L 66.890625 0 
L 66.890625 64.015625 
L 48.09375 14.015625 
L 38.1875 14.015625 
L 19.390625 64.015625 
L 19.390625 0 
L 9.8125 0 
z
" id="DejaVuSans-77"/>
     <path d="M 9.8125 72.90625 
L 51.703125 72.90625 
L 51.703125 64.59375 
L 19.671875 64.59375 
L 19.671875 43.109375 
L 48.578125 43.109375 
L 48.578125 34.8125 
L 19.671875 34.8125 
L 19.671875 0 
L 9.8125 0 
z
" id="DejaVuSans-70"/>
     <path d="M 9.8125 72.90625 
L 19.671875 72.90625 
L 19.671875 8.296875 
L 55.171875 8.296875 
L 55.171875 0 
L 9.8125 0 
z
" id="DejaVuSans-76"/>
     <path d="M 9.078125 75.984375 
L 18.109375 75.984375 
L 18.109375 31.109375 
L 44.921875 54.6875 
L 56.390625 54.6875 
L 27.390625 29.109375 
L 57.625 0 
L 45.90625 0 
L 18.109375 26.703125 
L 18.109375 0 
L 9.078125 0 
z
" id="DejaVuSans-107"/>
    </defs>
    <g transform="translate(260.388437 19.44)scale(0.12 -0.12)">
     <use xlink:href="#DejaVuSans-73"/>
     <use x="29.492188" xlink:href="#DejaVuSans-110"/>
     <use x="92.871094" xlink:href="#DejaVuSans-99"/>
     <use x="147.851562" xlink:href="#DejaVuSans-114"/>
     <use x="188.933594" xlink:href="#DejaVuSans-101"/>
     <use x="250.457031" xlink:href="#DejaVuSans-109"/>
     <use x="347.869141" xlink:href="#DejaVuSans-101"/>
     <use x="409.392578" xlink:href="#DejaVuSans-110"/>
     <use x="472.771484" xlink:href="#DejaVuSans-116"/>
     <use x="511.980469" xlink:href="#DejaVuSans-32"/>
     <use x="543.767578" xlink:href="#DejaVuSans-67"/>
     <use x="613.591797" xlink:href="#DejaVuSans-111"/>
     <use x="674.773438" xlink:href="#DejaVuSans-115"/>
     <use x="726.873047" xlink:href="#DejaVuSans-116"/>
     <use x="766.082031" xlink:href="#DejaVuSans-58"/>
     <use x="799.773438" xlink:href="#DejaVuSans-32"/>
     <use x="831.560547" xlink:href="#DejaVuSans-77"/>
     <use x="917.839844" xlink:href="#DejaVuSans-111"/>
     <use x="979.021484" xlink:href="#DejaVuSans-114"/>
     <use x="1020.103516" xlink:href="#DejaVuSans-101"/>
     <use x="1081.626953" xlink:href="#DejaVuSans-32"/>
     <use x="1113.414062" xlink:href="#DejaVuSans-70"/>
     <use x="1170.792969" xlink:href="#DejaVuSans-97"/>
     <use x="1232.072266" xlink:href="#DejaVuSans-105"/>
     <use x="1259.855469" xlink:href="#DejaVuSans-114"/>
     <use x="1300.96875" xlink:href="#DejaVuSans-32"/>
     <use x="1332.755859" xlink:href="#DejaVuSans-76"/>
     <use x="1388.453125" xlink:href="#DejaVuSans-111"/>
     <use x="1449.634766" xlink:href="#DejaVuSans-99"/>
     <use x="1504.615234" xlink:href="#DejaVuSans-107"/>
     <use x="1562.525391" xlink:href="#DejaVuSans-115"/>
    </g>
   </g>
   <g id="legend_1">
    <g id="patch_97">
     <path d="M 84.33 136.186875 
L 189.562813 136.186875 
Q 191.562813 136.186875 191.562813 134.186875 
L 191.562813 32.44 
Q 191.562813 30.44 189.562813 30.44 
L 84.33 30.44 
Q 82.33 30.44 82.33 32.44 
L 82.33 134.186875 
Q 82.33 136.186875 84.33 136.186875 
z
" style="fill:#ffffff;opacity:0.8;stroke:#cccccc;stroke-linejoin:miter;"/>
    </g>
    <g id="text_26">
     <!-- Implementation -->
     <defs>
      <path d="M 9.421875 75.984375 
L 18.40625 75.984375 
L 18.40625 0 
L 9.421875 0 
z
" id="DejaVuSans-108"/>
     </defs>
     <g transform="translate(97.244062 42.038437)scale(0.1 -0.1)">
      <use xlink:href="#DejaVuSans-73"/>
      <use x="29.492188" xlink:href="#DejaVuSans-109"/>
      <use x="126.904297" xlink:href="#DejaVuSans-112"/>
      <use x="190.380859" xlink:href="#DejaVuSans-108"/>
      <use x="218.164062" xlink:href="#DejaVuSans-101"/>
      <use x="279.6875" xlink:href="#DejaVuSans-109"/>
      <use x="377.099609" xlink:href="#DejaVuSans-101"/>
      <use x="438.623047" xlink:href="#DejaVuSans-110"/>
      <use x="502.001953" xlink:href="#DejaVuSans-116"/>
      <use x="541.210938" xlink:href="#DejaVuSans-97"/>
      <use x="602.490234" xlink:href="#DejaVuSans-116"/>
      <use x="641.699219" xlink:href="#DejaVuSans-105"/>
      <use x="669.482422" xlink:href="#DejaVuSans-111"/>
      <use x="730.664062" xlink:href="#DejaVuSans-110"/>
     </g>
    </g>
    <g id="patch_98">
     <path d="M 86.33 56.716563 
L 106.33 56.716563 
L 106.33 49.716563 
L 86.33 49.716563 
z
" style="fill:#1f77b4;"/>
    </g>
    <g id="text_27">
     <!-- mutex add -->
     <defs>
      <path d="M 8.5 21.578125 
L 8.5 54.6875 
L 17.484375 54.6875 
L 17.484375 21.921875 
Q 17.484375 14.15625 20.5 10.265625 
Q 23.53125 6.390625 29.59375 6.390625 
Q 36.859375 6.390625 41.078125 11.03125 
Q 45.3125 15.671875 45.3125 23.6875 
L 45.3125 54.6875 
L 54.296875 54.6875 
L 54.296875 0 
L 45.3125 0 
L 45.3125 8.40625 
Q 42.046875 3.421875 37.71875 1 
Q 33.40625 -1.421875 27.6875 -1.421875 
Q 18.265625 -1.421875 13.375 4.4375 
Q 8.5 10.296875 8.5 21.578125 
z
M 31.109375 56 
z
" id="DejaVuSans-117"/>
      <path d="M 54.890625 54.6875 
L 35.109375 28.078125 
L 55.90625 0 
L 45.3125 0 
L 29.390625 21.484375 
L 13.484375 0 
L 2.875 0 
L 24.125 28.609375 
L 4.6875 54.6875 
L 15.28125 54.6875 
L 29.78125 35.203125 
L 44.28125 54.6875 
z
" id="DejaVuSans-120"/>
     </defs>
     <g transform="translate(114.33 56.716563)scale(0.1 -0.1)">
      <use xlink:href="#DejaVuSans-109"/>
      <use x="97.412109" xlink:href="#DejaVuSans-117"/>
      <use x="160.791016" xlink:href="#DejaVuSans-116"/>
      <use x="200" xlink:href="#DejaVuSans-101"/>
      <use x="261.507812" xlink:href="#DejaVuSans-120"/>
      <use x="320.6875" xlink:href="#DejaVuSans-32"/>
      <use x="352.474609" xlink:href="#DejaVuSans-97"/>
      <use x="413.753906" xlink:href="#DejaVuSans-100"/>
      <use x="477.230469" xlink:href="#DejaVuSans-100"/>
     </g>
    </g>
    <g id="patch_99">
     <path d="M 86.33 71.394688 
L 106.33 71.394688 
L 106.33 64.394688 
L 86.33 64.394688 
z
" style="fill:#ff7f0e;"/>
    </g>
    <g id="text_28">
     <!-- atomic add -->
     <g transform="translate(114.33 71.394688)scale(0.1 -0.1)">
      <use xlink:href="#DejaVuSans-97"/>
      <use x="61.279297" xlink:href="#DejaVuSans-116"/>
      <use x="100.488281" xlink:href="#DejaVuSans-111"/>
      <use x="161.669922" xlink:href="#DejaVuSans-109"/>
      <use x="259.082031" xlink:href="#DejaVuSans-105"/>
      <use x="286.865234" xlink:href="#DejaVuSans-99"/>
      <use x="341.845703" xlink:href="#DejaVuSans-32"/>
      <use x="373.632812" xlink:href="#DejaVuSans-97"/>
      <use x="434.912109" xlink:href="#DejaVuSans-100"/>
      <use x="498.388672" xlink:href="#DejaVuSans-100"/>
     </g>
    </g>
    <g id="patch_100">
     <path d="M 86.33 86.072812 
L 106.33 86.072812 
L 106.33 79.072812 
L 86.33 79.072812 
z
" style="fill:#2ca02c;"/>
    </g>
    <g id="text_29">
     <!-- cas add -->
     <g transform="translate(114.33 86.072812)scale(0.1 -0.1)">
      <use xlink:href="#DejaVuSans-99"/>
      <use x="54.980469" xlink:href="#DejaVuSans-97"/>
      <use x="116.259766" xlink:href="#DejaVuSans-115"/>
      <use x="168.359375" xlink:href="#DejaVuSans-32"/>
      <use x="200.146484" xlink:href="#DejaVuSans-97"/>
      <use x="261.425781" xlink:href="#DejaVuSans-100"/>
      <use x="324.902344" xlink:href="#DejaVuSans-100"/>
     </g>
    </g>
    <g id="patch_101">
     <path d="M 86.33 100.750938 
L 106.33 100.750938 
L 106.33 93.750938 
L 86.33 93.750938 
z
" style="fill:#d62728;"/>
    </g>
    <g id="text_30">
     <!-- ticket yield -->
     <defs>
      <path d="M 32.171875 -5.078125 
Q 28.375 -14.84375 24.75 -17.8125 
Q 21.140625 -20.796875 15.09375 -20.796875 
L 7.90625 -20.796875 
L 7.90625 -13.28125 
L 13.1875 -13.28125 
Q 16.890625 -13.28125 18.9375 -11.515625 
Q 21 -9.765625 23.484375 -3.21875 
L 25.09375 0.875 
L 2.984375 54.6875 
L 12.5 54.6875 
L 29.59375 11.921875 
L 46.6875 54.6875 
L 56.203125 54.6875 
z
" id="DejaVuSans-121"/>
     </defs>
     <g transform="translate(114.33 100.750938)scale(0.1 -0.1)">
      <use xlink:href="#DejaVuSans-116"/>
      <use x="39.208984" xlink:href="#DejaVuSans-105"/>
      <use x="66.992188" xlink:href="#DejaVuSans-99"/>
      <use x="121.972656" xlink:href="#DejaVuSans-107"/>
      <use x="179.835938" xlink:href="#DejaVuSans-101"/>
      <use x="241.359375" xlink:href="#DejaVuSans-116"/>
      <use x="280.568359" xlink:href="#DejaVuSans-32"/>
      <use x="312.355469" xlink:href="#DejaVuSans-121"/>
      <use x="371.535156" xlink:href="#DejaVuSans-105"/>
      <use x="399.318359" xlink:href="#DejaVuSans-101"/>
      <use x="460.841797" xlink:href="#DejaVuSans-108"/>
      <use x="488.625" xlink:href="#DejaVuSans-100"/>
     </g>
    </g>
    <g id="patch_102">
     <path d="M 86.33 115.429062 
L 106.33 115.429062 
L 106.33 108.429062 
L 86.33 108.429062 
z
" style="fill:#9467bd;"/>
    </g>
    <g id="text_31">
     <!-- ticket blocking -->
     <defs>
      <path d="M 48.6875 27.296875 
Q 48.6875 37.203125 44.609375 42.84375 
Q 40.53125 48.484375 33.40625 48.484375 
Q 26.265625 48.484375 22.1875 42.84375 
Q 18.109375 37.203125 18.109375 27.296875 
Q 18.109375 17.390625 22.1875 11.75 
Q 26.265625 6.109375 33.40625 6.109375 
Q 40.53125 6.109375 44.609375 11.75 
Q 48.6875 17.390625 48.6875 27.296875 
z
M 18.109375 46.390625 
Q 20.953125 51.265625 25.265625 53.625 
Q 29.59375 56 35.59375 56 
Q 45.5625 56 51.78125 48.09375 
Q 58.015625 40.1875 58.015625 27.296875 
Q 58.015625 14.40625 51.78125 6.484375 
Q 45.5625 -1.421875 35.59375 -1.421875 
Q 29.59375 -1.421875 25.265625 0.953125 
Q 20.953125 3.328125 18.109375 8.203125 
L 18.109375 0 
L 9.078125 0 
L 9.078125 75.984375 
L 18.109375 75.984375 
z
" id="DejaVuSans-98"/>
      <path d="M 45.40625 27.984375 
Q 45.40625 37.75 41.375 43.109375 
Q 37.359375 48.484375 30.078125 48.484375 
Q 22.859375 48.484375 18.828125 43.109375 
Q 14.796875 37.75 14.796875 27.984375 
Q 14.796875 18.265625 18.828125 12.890625 
Q 22.859375 7.515625 30.078125 7.515625 
Q 37.359375 7.515625 41.375 12.890625 
Q 45.40625 18.265625 45.40625 27.984375 
z
M 54.390625 6.78125 
Q 54.390625 -7.171875 48.1875 -13.984375 
Q 42 -20.796875 29.203125 -20.796875 
Q 24.46875 -20.796875 20.265625 -20.09375 
Q 16.0625 -19.390625 12.109375 -17.921875 
L 12.109375 -9.1875 
Q 16.0625 -11.328125 19.921875 -12.34375 
Q 23.78125 -13.375 27.78125 -13.375 
Q 36.625 -13.375 41.015625 -8.765625 
Q 45.40625 -4.15625 45.40625 5.171875 
L 45.40625 9.625 
Q 42.625 4.78125 38.28125 2.390625 
Q 33.9375 0 27.875 0 
Q 17.828125 0 11.671875 7.65625 
Q 5.515625 15.328125 5.515625 27.984375 
Q 5.515625 40.671875 11.671875 48.328125 
Q 17.828125 56 27.875 56 
Q 33.9375 56 38.28125 53.609375 
Q 42.625 51.21875 45.40625 46.390625 
L 45.40625 54.6875 
L 54.390625 54.6875 
z
" id="DejaVuSans-103"/>
     </defs>
     <g transform="translate(114.33 115.429062)scale(0.1 -0.1)">
      <use xlink:href="#DejaVuSans-116"/>
      <use x="39.208984" xlink:href="#DejaVuSans-105"/>
      <use x="66.992188" xlink:href="#DejaVuSans-99"/>
      <use x="121.972656" xlink:href="#DejaVuSans-107"/>
      <use x="179.835938" xlink:href="#DejaVuSans-101"/>
      <use x="241.359375" xlink:href="#DejaVuSans-116"/>
      <use x="280.568359" xlink:href="#DejaVuSans-32"/>
      <use x="312.355469" xlink:href="#DejaVuSans-98"/>
      <use x="375.832031" xlink:href="#DejaVuSans-108"/>
      <use x="403.615234" xlink:href="#DejaVuSans-111"/>
      <use x="464.796875" xlink:href="#DejaVuSans-99"/>
      <use x="519.777344" xlink:href="#DejaVuSans-107"/>
      <use x="577.6875" xlink:href="#DejaVuSans-105"/>
      <use x="605.470703" xlink:href="#DejaVuSans-110"/>
      <use x="668.849609" xlink:href="#DejaVuSans-103"/>
     </g>
    </g>
    <g id="patch_103">
     <path d="M 86.33 130.107188 
L 106.33 130.107188 
L 106.33 123.107188 
L 86.33 123.107188 
z
" style="fill:#8c564b;"/>
    </g>
    <g id="text_32">
     <!-- queued fifo -->
     <defs>
      <path d="M 14.796875 27.296875 
Q 14.796875 17.390625 18.875 11.75 
Q 22.953125 6.109375 30.078125 6.109375 
Q 37.203125 6.109375 41.296875 11.75 
Q 45.40625 17.390625 45.40625 27.296875 
Q 45.40625 37.203125 41.296875 42.84375 
Q 37.203125 48.484375 30.078125 48.484375 
Q 22.953125 48.484375 18.875 42.84375 
Q 14.796875 37.203125 14.796875 27.296875 
z
M 45.40625 8.203125 
Q 42.578125 3.328125 38.25 0.953125 
Q 33.9375 -1.421875 27.875 -1.421875 
Q 17.96875 -1.421875 11.734375 6.484375 
Q 5.515625 14.40625 5.515625 27.296875 
Q 5.515625 40.1875 11.734375 48.09375 
Q 17.96875 56 27.875 56 
Q 33.9375 56 38.25 53.625 
Q 42.578125 51.265625 45.40625 46.390625 
L 45.40625 54.6875 
L 54.390625 54.6875 
L 54.390625 -20.796875 
L 45.40625 -20.796875 
z
" id="DejaVuSans-113"/>
      <path d="M 37.109375 75.984375 
L 37.109375 68.5 
L 28.515625 68.5 
Q 23.6875 68.5 21.796875 66.546875 
Q 19.921875 64.59375 19.921875 59.515625 
L 19.921875 54.6875 
L 34.71875 54.6875 
L 34.71875 47.703125 
L 19.921875 47.703125 
L 19.921875 0 
L 10.890625 0 
L 10.890625 47.703125 
L 2.296875 47.703125 
L 2.296875 54.6875 
L 10.890625 54.6875 
L 10.890625 58.5 
Q 10.890625 67.625 15.140625 71.796875 
Q 19.390625 75.984375 28.609375 75.984375 
z
" id="DejaVuSans-102"/>
     </defs>
     <g transform="translate(114.33 130.107188)scale(0.1 -0.1)">
      <use xlink:href="#DejaVuSans-113"/>
      <use x="63.476562" xlink:href="#DejaVuSans-117"/>
      <use x="126.855469" xlink:href="#DejaVuSans-101"/>
      <use x="188.378906" xlink:href="#DejaVuSans-117"/>
      <use x="251.757812" xlink:href="#DejaVuSans-101"/>
      <use x="313.28125" xlink:href="#DejaVuSans-100"/>
      <use x="376.757812" xlink:href="#DejaVuSans-32"/>
      <use x="408.544922" xlink:href="#DejaVuSans-102"/>
      <use x="443.75" xlink:href="#DejaVuSans-105"/>
      <use x="471.533203" xlink:href="#DejaVuSans-102"/>
      <use x="506.738281" xlink:href="#DejaVuSans-111"/>
     </g>
    </g>
   </g>
  </g>
 </g>
 <defs>
  <clipPath id="p2b8a11e210">
   <rect height="363.88" width="559.87" x="77.33" y="25.44"/>
  </clipPath>
 </defs>
</svg>
