<?xml version="1.0" encoding="utf-8" standalone="no"?>
<!DOCTYPE svg PUBLIC "-//W3C//DTD SVG 1.1//EN"
  "http://www.w3.org/Graphics/SVG/1.1/DTD/svg11.dtd">
<!-- Created with matplotlib (https://matplotlib.org/) -->
<svg height="432pt" version="1.1" viewBox="0 0 648 432" width="648pt" xmlns="http://www.w3.org/2000/svg" xmlns:xlink="http://www.w3.org/1999/xlink">
 <defs>
  <style type="text/css">
*{stroke-linecap:butt;stroke-linejoin:round;}
  </style>
 </defs>
 <g id="figure_1">
  <g id="patch_1">
   <path d="M 0 432 
L 648 432 
L 648 0 
L 0 0 
z
" style="fill:#ffffff;"/>
  </g>
  <g id="axes_1">
   <g id="patch_2">
    <path d="M 45.38 386.008 
L 637.2 386.008 
L 637.2 27.6 
L 45.38 27.6 
z
" style="fill:#e5e5e5;"/>
   </g>
   <g id="matplotlib.axis_1">
    <g id="xtick_1">
     <g id="line2d_1">
      <path clip-path="url(#p3427d98f2d)" d="M 86.22943 386.008 
L 86.22943 27.6 
" style="fill:none;stroke:#ffffff;stroke-linecap:square;stroke-width:0.8;"/>
     </g>
     <g id="line2d_2">
      <defs>
       <path d="M 0 0 
L 0 3.5 
" id="m6f49e2455f" style="stroke:#555555;stroke-width:0.8;"/>
      </defs>
      <g>
       <use style="fill:#555555;stroke:#555555;stroke-width:0.8;" x="86.22943" xlink:href="#m6f49e2455f" y="386.008"/>
      </g>
     </g>
     <g id="text_1">
      <!-- $\mathdefault{10^{5}}$ -->
      <defs>
       <path d="M 12.40625 8.296875 
L 28.515625 8.296875 
L 28.515625 63.921875 
L 10.984375 60.40625 
L 10.984375 69.390625 
L 28.421875 72.90625 
L 38.28125 72.90625 
L 38.28125 8.296875 
L 54.390625 8.296875 
L 54.390625 0 
L 12.40625 0 
z
" id="DejaVuSans-49"/>
       <path d="M 31.78125 66.40625 
Q 24.171875 66.40625 20.328125 58.90625 
Q 16.5 51.421875 16.5 36.375 
Q 16.5 21.390625 20.328125 13.890625 
Q 24.171875 6.390625 31.78125 6.390625 
Q 39.453125 6.390625 43.28125 13.890625 
Q 47.125 21.390625 47.125 36.375 
Q 47.125 51.421875 43.28125 58.90625 
Q 39.453125 66.40625 31.78125 66.40625 
z
M 31.78125 74.21875 
Q 44.046875 74.21875 50.515625 64.515625 
Q 56.984375 54.828125 56.984375 36.375 
Q 56.984375 17.96875 50.515625 8.265625 
Q 44.046875 -1.421875 31.78125 -1.421875 
Q 19.53125 -1.421875 13.0625 8.265625 
Q 6.59375 17.96875 6.59375 36.375 
Q 6.59375 54.828125 13.0625 64.515625 
Q 19.53125 74.21875 31.78125 74.21875 
z
" id="DejaVuSans-48"/>
       <path d="M 10.796875 72.90625 
L 49.515625 72.90625 
L 49.515625 64.59375 
L 19.828125 64.59375 
L 19.828125 46.734375 
Q 21.96875 47.46875 24.109375 47.828125 
Q 26.265625 48.1875 28.421875 48.1875 
Q 40.625 48.1875 47.75 41.5 
Q 54.890625 34.8125 54.890625 23.390625 
Q 54.890625 11.625 47.5625 5.09375 
Q 40.234375 -1.421875 26.90625 -1.421875 
Q 22.3125 -1.421875 17.546875 -0.640625 
Q 12.796875 0.140625 7.71875 1.703125 
L 7.71875 11.625 
Q 12.109375 9.234375 16.796875 8.0625 
Q 21.484375 6.890625 26.703125 6.890625 
Q 35.15625 6.890625 40.078125 11.328125 
Q 45.015625 15.765625 45.015625 23.390625 
Q 45.015625 31 40.078125 35.4375 
Q 35.15625 39.890625 26.703125 39.890625 
Q 22.75 39.890625 18.8125 39.015625 
Q 14.890625 38.140625 10.796875 36.28125 
z
" id="DejaVuSans-53"/>
      </defs>
      <g style="fill:#555555;" transform="translate(77.42943 400.606437)scale(0.1 -0.1)">
       <use transform="translate(0 0.684375)" xlink:href="#DejaVuSans-49"/>
       <use transform="translate(63.623047 0.684375)" xlink:href="#DejaVuSans-48"/>
       <use transform="translate(128.203125 38.965625)scale(0.7)" xlink:href="#DejaVuSans-53"/>
      </g>
     </g>
    </g>
    <g id="xtick_2">
     <g id="line2d_3">
      <path clip-path="url(#p3427d98f2d)" d="M 270.36132 386.008 
L 270.36132 27.6 
" style="fill:none;stroke:#ffffff;stroke-linecap:square;stroke-width:0.8;"/>
     </g>
     <g id="line2d_4">
      <g>
       <use style="fill:#555555;stroke:#555555;stroke-width:0.8;" x="270.36132" xlink:href="#m6f49e2455f" y="386.008"/>
      </g>
     </g>
     <g id="text_2">
      <!-- $\mathdefault{10^{6}}$ -->
      <defs>
       <path d="M 33.015625 40.375 
Q 26.375 40.375 22.484375 35.828125 
Q 18.609375 31.296875 18.609375 23.390625 
Q 18.609375 15.53125 22.484375 10.953125 
Q 26.375 6.390625 33.015625 6.390625 
Q 39.65625 6.390625 43.53125 10.953125 
Q 47.40625 15.53125 47.40625 23.390625 
Q 47.40625 31.296875 43.53125 35.828125 
Q 39.65625 40.375 33.015625 40.375 
z
M 52.59375 71.296875 
L 52.59375 62.3125 
Q 48.875 64.0625 45.09375 64.984375 
Q 41.3125 65.921875 37.59375 65.921875 
Q 27.828125 65.921875 22.671875 59.328125 
Q 17.53125 52.734375 16.796875 39.40625 
Q 19.671875 43.65625 24.015625 45.921875 
Q 28.375 48.1875 33.59375 48.1875 
Q 44.578125 48.1875 50.953125 41.515625 
Q 57.328125 34.859375 57.328125 23.390625 
Q 57.328125 12.15625 50.6875 5.359375 
Q 44.046875 -1.421875 33.015625 -1.421875 
Q 20.359375 -1.421875 13.671875 8.265625 
Q 6.984375 17.96875 6.984375 36.375 
Q 6.984375 53.65625 15.1875 63.9375 
Q 23.390625 74.21875 37.203125 74.21875 
Q 40.921875 74.21875 44.703125 73.484375 
Q 48.484375 72.75 52.59375 71.296875 
z
" id="DejaVuSans-54"/>
      </defs>
      <g style="fill:#555555;" transform="translate(261.56132 400.606437)scale(0.1 -0.1)">
       <use transform="translate(0 0.765625)" xlink:href="#DejaVuSans-49"/>
       <use transform="translate(63.623047 0.765625)" xlink:href="#DejaVuSans-48"/>
       <use transform="translate(128.203125 39.046875)scale(0.7)" xlink:href="#DejaVuSans-54"/>
      </g>
     </g>
    </g>
    <g id="xtick_3">
     <g id="line2d_5">
      <path clip-path="url(#p3427d98f2d)" d="M 454.493211 386.008 
L 454.493211 27.6 
" style="fill:none;stroke:#ffffff;stroke-linecap:square;stroke-width:0.8;"/>
     </g>
     <g id="line2d_6">
      <g>
       <use style="fill:#555555;stroke:#555555;stroke-width:0.8;" x="454.493211" xlink:href="#m6f49e2455f" y="386.008"/>
      </g>
     </g>
     <g id="text_3">
      <!-- $\mathdefault{10^{7}}$ -->
      <defs>
       <path d="M 8.203125 72.90625 
L 55.078125 72.90625 
L 55.078125 68.703125 
L 28.609375 0 
L 18.3125 0 
L 43.21875 64.59375 
L 8.203125 64.59375 
z
" id="DejaVuSans-55"/>
      </defs>
      <g style="fill:#555555;" transform="translate(445.693211 400.606437)scale(0.1 -0.1)">
       <use transform="translate(0 0.684375)" xlink:href="#DejaVuSans-49"/>
       <use transform="translate(63.623047 0.684375)" xlink:href="#DejaVuSans-48"/>
       <use transform="translate(128.203125 38.965625)scale(0.7)" xlink:href="#DejaVuSans-55"/>
      </g>
     </g>
    </g>
    <g id="xtick_4">
     <g id="line2d_7">
      <defs>
       <path d="M 0 0 
L 0 2 
" id="me2c5daccdd" style="stroke:#555555;stroke-width:0.6;"/>
      </defs>
      <g>
       <use style="fill:#555555;stroke:#555555;stroke-width:0.6;" x="45.38" xlink:href="#me2c5daccdd" y="386.008"/>
      </g>
     </g>
    </g>
    <g id="xtick_5">
     <g id="line2d_8">
      <g>
       <use style="fill:#555555;stroke:#555555;stroke-width:0.6;" x="57.707039" xlink:href="#me2c5daccdd" y="386.008"/>
      </g>
     </g>
    </g>
    <g id="xtick_6">
     <g id="line2d_9">
      <g>
       <use style="fill:#555555;stroke:#555555;stroke-width:0.6;" x="68.385206" xlink:href="#me2c5daccdd" y="386.008"/>
      </g>
     </g>
    </g>
    <g id="xtick_7">
     <g id="line2d_10">
      <g>
       <use style="fill:#555555;stroke:#555555;stroke-width:0.6;" x="77.804016" xlink:href="#me2c5daccdd" y="386.008"/>
      </g>
     </g>
    </g>
    <g id="xtick_8">
     <g id="line2d_11">
      <g>
       <use style="fill:#555555;stroke:#555555;stroke-width:0.6;" x="141.658652" xlink:href="#me2c5daccdd" y="386.008"/>
      </g>
     </g>
    </g>
    <g id="xtick_9">
     <g id="line2d_12">
      <g>
       <use style="fill:#555555;stroke:#555555;stroke-width:0.6;" x="174.082668" xlink:href="#me2c5daccdd" y="386.008"/>
      </g>
     </g>
    </g>
    <g id="xtick_10">
     <g id="line2d_13">
      <g>
       <use style="fill:#555555;stroke:#555555;stroke-width:0.6;" x="197.087874" xlink:href="#me2c5daccdd" y="386.008"/>
      </g>
     </g>
    </g>
    <g id="xtick_11">
     <g id="line2d_14">
      <g>
       <use style="fill:#555555;stroke:#555555;stroke-width:0.6;" x="214.932098" xlink:href="#me2c5daccdd" y="386.008"/>
      </g>
     </g>
    </g>
    <g id="xtick_12">
     <g id="line2d_15">
      <g>
       <use style="fill:#555555;stroke:#555555;stroke-width:0.6;" x="229.511891" xlink:href="#me2c5daccdd" y="386.008"/>
      </g>
     </g>
    </g>
    <g id="xtick_13">
     <g id="line2d_16">
      <g>
       <use style="fill:#555555;stroke:#555555;stroke-width:0.6;" x="241.83893" xlink:href="#me2c5daccdd" y="386.008"/>
      </g>
     </g>
    </g>
    <g id="xtick_14">
     <g id="line2d_17">
      <g>
       <use style="fill:#555555;stroke:#555555;stroke-width:0.6;" x="252.517096" xlink:href="#me2c5daccdd" y="386.008"/>
      </g>
     </g>
    </g>
    <g id="xtick_15">
     <g id="line2d_18">
      <g>
       <use style="fill:#555555;stroke:#555555;stroke-width:0.6;" x="261.935907" xlink:href="#me2c5daccdd" y="386.008"/>
      </g>
     </g>
    </g>
    <g id="xtick_16">
     <g id="line2d_19">
      <g>
       <use style="fill:#555555;stroke:#555555;stroke-width:0.6;" x="325.790542" xlink:href="#me2c5daccdd" y="386.008"/>
      </g>
     </g>
    </g>
    <g id="xtick_17">
     <g id="line2d_20">
      <g>
       <use style="fill:#555555;stroke:#555555;stroke-width:0.6;" x="358.214559" xlink:href="#me2c5daccdd" y="386.008"/>
      </g>
     </g>
    </g>
    <g id="xtick_18">
     <g id="line2d_21">
      <g>
       <use style="fill:#555555;stroke:#555555;stroke-width:0.6;" x="381.219765" xlink:href="#me2c5daccdd" y="386.008"/>
      </g>
     </g>
    </g>
    <g id="xtick_19">
     <g id="line2d_22">
      <g>
       <use style="fill:#555555;stroke:#555555;stroke-width:0.6;" x="399.063989" xlink:href="#me2c5daccdd" y="386.008"/>
      </g>
     </g>
    </g>
    <g id="xtick_20">
     <g id="line2d_23">
      <g>
       <use style="fill:#555555;stroke:#555555;stroke-width:0.6;" x="413.643781" xlink:href="#me2c5daccdd" y="386.008"/>
      </g>
     </g>
    </g>
    <g id="xtick_21">
     <g id="line2d_24">
      <g>
       <use style="fill:#555555;stroke:#555555;stroke-width:0.6;" x="425.97082" xlink:href="#me2c5daccdd" y="386.008"/>
      </g>
     </g>
    </g>
    <g id="xtick_22">
     <g id="line2d_25">
      <g>
       <use style="fill:#555555;stroke:#555555;stroke-width:0.6;" x="436.648987" xlink:href="#me2c5daccdd" y="386.008"/>
      </g>
     </g>
    </g>
    <g id="xtick_23">
     <g id="line2d_26">
      <g>
       <use style="fill:#555555;stroke:#555555;stroke-width:0.6;" x="446.067798" xlink:href="#me2c5daccdd" y="386.008"/>
      </g>
     </g>
    </g>
    <g id="xtick_24">
     <g id="line2d_27">
      <g>
       <use style="fill:#555555;stroke:#555555;stroke-width:0.6;" x="509.922433" xlink:href="#me2c5daccdd" y="386.008"/>
      </g>
     </g>
    </g>
    <g id="xtick_25">
     <g id="line2d_28">
      <g>
       <use style="fill:#555555;stroke:#555555;stroke-width:0.6;" x="542.346449" xlink:href="#me2c5daccdd" y="386.008"/>
      </g>
     </g>
    </g>
    <g id="xtick_26">
     <g id="line2d_29">
      <g>
       <use style="fill:#555555;stroke:#555555;stroke-width:0.6;" x="565.351655" xlink:href="#me2c5daccdd" y="386.008"/>
      </g>
     </g>
    </g>
    <g id="xtick_27">
     <g id="line2d_30">
      <g>
       <use style="fill:#555555;stroke:#555555;stroke-width:0.6;" x="583.195879" xlink:href="#me2c5daccdd" y="386.008"/>
      </g>
     </g>
    </g>
    <g id="xtick_28">
     <g id="line2d_31">
      <g>
       <use style="fill:#555555;stroke:#555555;stroke-width:0.6;" x="597.775672" xlink:href="#me2c5daccdd" y="386.008"/>
      </g>
     </g>
    </g>
    <g id="xtick_29">
     <g id="line2d_32">
      <g>
       <use style="fill:#555555;stroke:#555555;stroke-width:0.6;" x="610.102711" xlink:href="#me2c5daccdd" y="386.008"/>
      </g>
     </g>
    </g>
    <g id="xtick_30">
     <g id="line2d_33">
      <g>
       <use style="fill:#555555;stroke:#555555;stroke-width:0.6;" x="620.780877" xlink:href="#me2c5daccdd" y="386.008"/>
      </g>
     </g>
    </g>
    <g id="xtick_31">
     <g id="line2d_34">
      <g>
       <use style="fill:#555555;stroke:#555555;stroke-width:0.6;" x="630.199688" xlink:href="#me2c5daccdd" y="386.008"/>
      </g>
     </g>
    </g>
    <g id="text_4">
     <!-- Region Size (bytes) -->
     <defs>
      <path d="M 44.390625 34.1875 
Q 47.5625 33.109375 50.5625 29.59375 
Q 53.5625 26.078125 56.59375 19.921875 
L 66.609375 0 
L 56 0 
L 46.6875 18.703125 
Q 43.0625 26.03125 39.671875 28.421875 
Q 36.28125 30.8125 30.421875 30.8125 
L 19.671875 30.8125 
L 19.671875 0 
L 9.8125 0 
L 9.8125 72.90625 
L 32.078125 72.90625 
Q 44.578125 72.90625 50.734375 67.671875 
Q 56.890625 62.453125 56.890625 51.90625 
Q 56.890625 45.015625 53.6875 40.46875 
Q 50.484375 35.9375 44.390625 34.1875 
z
M 19.671875 64.796875 
L 19.671875 38.921875 
L 32.078125 38.921875 
Q 39.203125 38.921875 42.84375 42.21875 
Q 46.484375 45.515625 46.484375 51.90625 
Q 46.484375 58.296875 42.84375 61.546875 
Q 39.203125 64.796875 32.078125 64.796875 
z
" id="DejaVuSans-82"/>
      <path d="M 56.203125 29.59375 
L 56.203125 25.203125 
L 14.890625 25.203125 
Q 15.484375 15.921875 20.484375 11.0625 
Q 25.484375 6.203125 34.421875 6.203125 
Q 39.59375 6.203125 44.453125 7.46875 
Q 49.3125 8.734375 54.109375 11.28125 
L 54.109375 2.78125 
Q 49.265625 0.734375 44.1875 -0.34375 
Q 39.109375 -1.421875 33.890625 -1.421875 
Q 20.796875 -1.421875 13.15625 6.1875 
Q 5.515625 13.8125 5.515625 26.8125 
Q 5.515625 40.234375 12.765625 48.109375 
Q 20.015625 56 32.328125 56 
Q 43.359375 56 49.78125 48.890625 
Q 56.203125 41.796875 56.203125 29.59375 
z
M 47.21875 32.234375 
Q 47.125 39.59375 43.09375 43.984375 
Q 39.0625 48.390625 32.421875 48.390625 
Q 24.90625 48.390625 20.390625 44.140625 
Q 15.875 39.890625 15.1875 32.171875 
z
" id="DejaVuSans-101"/>
      <path d="M 45.40625 27.984375 
Q 45.40625 37.75 41.375 43.109375 
Q 37.359375 48.484375 30.078125 48.484375 
Q 22.859375 48.484375 18.828125 43.109375 
Q 14.796875 37.75 14.796875 27.984375 
Q 14.796875 18.265625 18.828125 12.890625 
Q 22.859375 7.515625 30.078125 7.515625 
Q 37.359375 7.515625 41.375 12.890625 
Q 45.40625 18.265625 45.40625 27.984375 
z
M 54.390625 6.78125 
Q 54.390625 -7.171875 48.1875 -13.984375 
Q 42 -20.796875 29.203125 -20.796875 
Q 24.46875 -20.796875 20.265625 -20.09375 
Q 16.0625 -19.390625 12.109375 -17.921875 
L 12.109375 -9.1875 
Q 16.0625 -11.328125 19.921875 -12.34375 
Q 23.78125 -13.375 27.78125 -13.375 
Q 36.625 -13.375 41.015625 -8.765625 
Q 45.40625 -4.15625 45.40625 5.171875 
L 45.40625 9.625 
Q 42.625 4.78125 38.28125 2.390625 
Q 33.9375 0 27.875 0 
Q 17.828125 0 11.671875 7.65625 
Q 5.515625 15.328125 5.515625 27.984375 
Q 5.515625 40.671875 11.671875 48.328125 
Q 17.828125 56 27.875 56 
Q 33.9375 56 38.28125 53.609375 
Q 42.625 51.21875 45.40625 46.390625 
L 45.40625 54.6875 
L 54.390625 54.6875 
z
" id="DejaVuSans-103"/>
      <path d="M 9.421875 54.6875 
L 18.40625 54.6875 
L 18.40625 0 
L 9.421875 0 
z
M 9.421875 75.984375 
L 18.40625 75.984375 
L 18.40625 64.59375 
L 9.421875 64.59375 
z
" id="DejaVuSans-105"/>
      <path d="M 30.609375 48.390625 
Q 23.390625 48.390625 19.1875 42.75 
Q 14.984375 37.109375 14.984375 27.296875 
Q 14.984375 17.484375 19.15625 11.84375 
Q 23.34375 6.203125 30.609375 6.203125 
Q 37.796875 6.203125 41.984375 11.859375 
Q 46.1875 17.53125 46.1875 27.296875 
Q 46.1875 37.015625 41.984375 42.703125 
Q 37.796875 48.390625 30.609375 48.390625 
z
M 30.609375 56 
Q 42.328125 56 49.015625 48.375 
Q 55.71875 40.765625 55.71875 27.296875 
Q 55.71875 13.875 49.015625 6.21875 
Q 42.328125 -1.421875 30.609375 -1.421875 
Q 18.84375 -1.421875 12.171875 6.21875 
Q 5.515625 13.875 5.515625 27.296875 
Q 5.515625 40.765625 12.171875 48.375 
Q 18.84375 56 30.609375 56 
z
" id="DejaVuSans-111"/>
      <path d="M 54.890625 33.015625 
L 54.890625 0 
L 45.90625 0 
L 45.90625 32.71875 
Q 45.90625 40.484375 42.875 44.328125 
Q 39.84375 48.1875 33.796875 48.1875 
Q 26.515625 48.1875 22.3125 43.546875 
Q 18.109375 38.921875 18.109375 30.90625 
L 18.109375 0 
L 9.078125 0 
L 9.078125 54.6875 
L 18.109375 54.6875 
L 18.109375 46.1875 
Q 21.34375 51.125 25.703125 53.5625 
Q 30.078125 56 35.796875 56 
Q 45.21875 56 50.046875 50.171875 
Q 54.890625 44.34375 54.890625 33.015625 
z
" id="DejaVuSans-110"/>
      <path id="DejaVuSans-32"/>
      <path d="M 53.515625 70.515625 
L 53.515625 60.890625 
Q 47.90625 63.578125 42.921875 64.890625 
Q 37.9375 66.21875 33.296875 66.21875 
Q 25.25 66.21875 20.875 63.09375 
Q 16.5 59.96875 16.5 54.203125 
Q 16.5 49.359375 19.40625 46.890625 
Q 22.3125 44.4375 30.421875 42.921875 
L 36.375 41.703125 
Q 47.40625 39.59375 52.65625 34.296875 
Q 57.90625 29 57.90625 20.125 
Q 57.90625 9.515625 50.796875 4.046875 
Q 43.703125 -1.421875 29.984375 -1.421875 
Q 24.8125 -1.421875 18.96875 -0.25 
Q 13.140625 0.921875 6.890625 3.21875 
L 6.890625 13.375 
Q 12.890625 10.015625 18.65625 8.296875 
Q 24.421875 6.59375 29.984375 6.59375 
Q 38.421875 6.59375 43.015625 9.90625 
Q 47.609375 13.234375 47.609375 19.390625 
Q 47.609375 24.75 44.3125 27.78125 
Q 41.015625 30.8125 33.5 32.328125 
L 27.484375 33.5 
Q 16.453125 35.6875 11.515625 40.375 
Q 6.59375 45.0625 6.59375 53.421875 
Q 6.59375 63.09375 13.40625 68.65625 
Q 20.21875 74.21875 32.171875 74.21875 
Q 37.3125 74.21875 42.625 73.28125 
Q 47.953125 72.359375 53.515625 70.515625 
z
" id="DejaVuSans-83"/>
      <path d="M 5.515625 54.6875 
L 48.1875 54.6875 
L 48.1875 46.484375 
L 14.40625 7.171875 
L 48.1875 7.171875 
L 48.1875 0 
L 4.296875 0 
L 4.296875 8.203125 
L 38.09375 47.515625 
L 5.515625 47.515625 
z
" id="DejaVuSans-122"/>
      <path d="M 31 75.875 
Q 24.46875 64.65625 21.28125 53.65625 
Q 18.109375 42.671875 18.109375 31.390625 
Q 18.109375 20.125 21.3125 9.0625 
Q 24.515625 -2 31 -13.1875 
L 23.1875 -13.1875 
Q 15.875 -1.703125 12.234375 9.375 
Q 8.59375 20.453125 8.59375 31.390625 
Q 8.59375 42.28125 12.203125 53.3125 
Q 15.828125 64.359375 23.1875 75.875 
z
" id="DejaVuSans-40"/>
      <path d="M 48.6875 27.296875 
Q 48.6875 37.203125 44.609375 42.84375 
Q 40.53125 48.484375 33.40625 48.484375 
Q 26.265625 48.484375 22.1875 42.84375 
Q 18.109375 37.203125 18.109375 27.296875 
Q 18.109375 17.390625 22.1875 11.75 
Q 26.265625 6.109375 33.40625 6.109375 
Q 40.53125 6.109375 44.609375 11.75 
Q 48.6875 17.390625 48.6875 27.296875 
z
M 18.109375 46.390625 
Q 20.953125 51.265625 25.265625 53.625 
Q 29.59375 56 35.59375 56 
Q 45.5625 56 51.78125 48.09375 
Q 58.015625 40.1875 58.015625 27.296875 
Q 58.015625 14.40625 51.78125 6.484375 
Q 45.5625 -1.421875 35.59375 -1.421875 
Q 29.59375 -1.421875 25.265625 0.953125 
Q 20.953125 3.328125 18.109375 8.203125 
L 18.109375 0 
L 9.078125 0 
L 9.078125 75.984375 
L 18.109375 75.984375 
z
" id="DejaVuSans-98"/>
      <path d="M 32.171875 -5.078125 
Q 28.375 -14.84375 24.75 -17.8125 
Q 21.140625 -20.796875 15.09375 -20.796875 
L 7.90625 -20.796875 
L 7.90625 -13.28125 
L 13.1875 -13.28125 
Q 16.890625 -13.28125 18.9375 -11.515625 
Q 21 -9.765625 23.484375 -3.21875 
L 25.09375 0.875 
L 2.984375 54.6875 
L 12.5 54.6875 
L 29.59375 11.921875 
L 46.6875 54.6875 
L 56.203125 54.6875 
z
" id="DejaVuSans-121"/>
      <path d="M 18.3125 70.21875 
L 18.3125 54.6875 
L 36.8125 54.6875 
L 36.8125 47.703125 
L 18.3125 47.703125 
L 18.3125 18.015625 
Q 18.3125 11.328125 20.140625 9.421875 
Q 21.96875 7.515625 27.59375 7.515625 
L 36.8125 7.515625 
L 36.8125 0 
L 27.59375 0 
Q 17.1875 0 13.234375 3.875 
Q 9.28125 7.765625 9.28125 18.015625 
L 9.28125 47.703125 
L 2.6875 47.703125 
L 2.6875 54.6875 
L 9.28125 54.6875 
L 9.28125 70.21875 
z
" id="DejaVuSans-116"/>
      <path d="M 44.28125 53.078125 
L 44.28125 44.578125 
Q 40.484375 46.53125 36.375 47.5 
Q 32.28125 48.484375 27.875 48.484375 
Q 21.1875 48.484375 17.84375 46.4375 
Q 14.5 44.390625 14.5 40.28125 
Q 14.5 37.15625 16.890625 35.375 
Q 19.28125 33.59375 26.515625 31.984375 
L 29.59375 31.296875 
Q 39.15625 29.25 43.1875 25.515625 
Q 47.21875 21.78125 47.21875 15.09375 
Q 47.21875 7.46875 41.1875 3.015625 
Q 35.15625 -1.421875 24.609375 -1.421875 
Q 20.21875 -1.421875 15.453125 -0.5625 
Q 10.6875 0.296875 5.421875 2 
L 5.421875 11.28125 
Q 10.40625 8.6875 15.234375 7.390625 
Q 20.0625 6.109375 24.8125 6.109375 
Q 31.15625 6.109375 34.5625 8.28125 
Q 37.984375 10.453125 37.984375 14.40625 
Q 37.984375 18.0625 35.515625 20.015625 
Q 33.0625 21.96875 24.703125 23.78125 
L 21.578125 24.515625 
Q 13.234375 26.265625 9.515625 29.90625 
Q 5.8125 33.546875 5.8125 39.890625 
Q 5.8125 47.609375 11.28125 51.796875 
Q 16.75 56 26.8125 56 
Q 31.78125 56 36.171875 55.265625 
Q 40.578125 54.546875 44.28125 53.078125 
z
" id="DejaVuSans-115"/>
      <path d="M 8.015625 75.875 
L 15.828125 75.875 
Q 23.140625 64.359375 26.78125 53.3125 
Q 30.421875 42.28125 30.421875 31.390625 
Q 30.421875 20.453125 26.78125 9.375 
Q 23.140625 -1.703125 15.828125 -13.1875 
L 8.015625 -13.1875 
Q 14.5 -2 17.703125 9.0625 
Q 20.90625 20.125 20.90625 31.390625 
Q 20.90625 42.671875 17.703125 53.65625 
Q 14.5 64.65625 8.015625 75.875 
z
" id="DejaVuSans-41"/>
     </defs>
     <g style="fill:#555555;" transform="translate(283.140625 415.80425)scale(0.12 -0.12)">
      <use xlink:href="#DejaVuSans-82"/>
      <use x="69.419922" xlink:href="#DejaVuSans-101"/>
      <use x="130.943359" xlink:href="#DejaVuSans-103"/>
      <use x="194.419922" xlink:href="#DejaVuSans-105"/>
      <use x="222.203125" xlink:href="#DejaVuSans-111"/>
      <use x="283.384766" xlink:href="#DejaVuSans-110"/>
      <use x="346.763672" xlink:href="#DejaVuSans-32"/>
      <use x="378.550781" xlink:href="#DejaVuSans-83"/>
      <use x="442.027344" xlink:href="#DejaVuSans-105"/>
      <use x="469.810547" xlink:href="#DejaVuSans-122"/>
      <use x="522.300781" xlink:href="#DejaVuSans-101"/>
      <use x="583.824219" xlink:href="#DejaVuSans-32"/>
      <use x="615.611328" xlink:href="#DejaVuSans-40"/>
      <use x="654.625" xlink:href="#DejaVuSans-98"/>
      <use x="718.101562" xlink:href="#DejaVuSans-121"/>
      <use x="777.28125" xlink:href="#DejaVuSans-116"/>
      <use x="816.490234" xlink:href="#DejaVuSans-101"/>
      <use x="878.013672" xlink:href="#DejaVuSans-115"/>
      <use x="930.113281" xlink:href="#DejaVuSans-41"/>
     </g>
    </g>
   </g>
   <g id="matplotlib.axis_2">
    <g id="ytick_1">
     <g id="line2d_35">
      <path clip-path="url(#p3427d98f2d)" d="M 45.38 386.008 
L 637.2 386.008 
" style="fill:none;stroke:#ffffff;stroke-linecap:square;stroke-width:0.8;"/>
     </g>
     <g id="line2d_36">
      <defs>
       <path d="M 0 0 
L -3.5 0 
" id="macbd759fce" style="stroke:#555555;stroke-width:0.8;"/>
      </defs>
      <g>
       <use style="fill:#555555;stroke:#555555;stroke-width:0.8;" x="45.38" xlink:href="#macbd759fce" y="386.008"/>
      </g>
     </g>
     <g id="text_5">
      <!-- 0 -->
      <g style="fill:#555555;" transform="translate(32.0175 389.807219)scale(0.1 -0.1)">
       <use xlink:href="#DejaVuSans-48"/>
      </g>
     </g>
    </g>
    <g id="ytick_2">
     <g id="line2d_37">
      <path clip-path="url(#p3427d98f2d)" d="M 45.38 341.207 
L 637.2 341.207 
" style="fill:none;stroke:#ffffff;stroke-linecap:square;stroke-width:0.8;"/>
     </g>
     <g id="line2d_38">
      <g>
       <use style="fill:#555555;stroke:#555555;stroke-width:0.8;" x="45.38" xlink:href="#macbd759fce" y="341.207"/>
      </g>
     </g>
     <g id="text_6">
      <!-- 10 -->
      <g style="fill:#555555;" transform="translate(25.655 345.006219)scale(0.1 -0.1)">
       <use xlink:href="#DejaVuSans-49"/>
       <use x="63.623047" xlink:href="#DejaVuSans-48"/>
      </g>
     </g>
    </g>
    <g id="ytick_3">
     <g id="line2d_39">
      <path clip-path="url(#p3427d98f2d)" d="M 45.38 296.406 
L 637.2 296.406 
" style="fill:none;stroke:#ffffff;stroke-linecap:square;stroke-width:0.8;"/>
     </g>
     <g id="line2d_40">
      <g>
       <use style="fill:#555555;stroke:#555555;stroke-width:0.8;" x="45.38" xlink:href="#macbd759fce" y="296.406"/>
      </g>
     </g>
     <g id="text_7">
      <!-- 20 -->
      <defs>
       <path d="M 19.1875 8.296875 
L 53.609375 8.296875 
L 53.609375 0 
L 7.328125 0 
L 7.328125 8.296875 
Q 12.9375 14.109375 22.625 23.890625 
Q 32.328125 33.6875 34.8125 36.53125 
Q 39.546875 41.84375 41.421875 45.53125 
Q 43.3125 49.21875 43.3125 52.78125 
Q 43.3125 58.59375 39.234375 62.25 
Q 35.15625 65.921875 28.609375 65.921875 
Q 23.96875 65.921875 18.8125 64.3125 
Q 13.671875 62.703125 7.8125 59.421875 
L 7.8125 69.390625 
Q 13.765625 71.78125 18.9375 73 
Q 24.125 74.21875 28.421875 74.21875 
Q 39.75 74.21875 46.484375 68.546875 
Q 53.21875 62.890625 53.21875 53.421875 
Q 53.21875 48.921875 51.53125 44.890625 
Q 49.859375 40.875 45.40625 35.40625 
Q 44.1875 33.984375 37.640625 27.21875 
Q 31.109375 20.453125 19.1875 8.296875 
z
" id="DejaVuSans-50"/>
      </defs>
      <g style="fill:#555555;" transform="translate(25.655 300.205219)scale(0.1 -0.1)">
       <use xlink:href="#DejaVuSans-50"/>
       <use x="63.623047" xlink:href="#DejaVuSans-48"/>
      </g>
     </g>
    </g>
    <g id="ytick_4">
     <g id="line2d_41">
      <path clip-path="url(#p3427d98f2d)" d="M 45.38 251.605 
L 637.2 251.605 
" style="fill:none;stroke:#ffffff;stroke-linecap:square;stroke-width:0.8;"/>
     </g>
     <g id="line2d_42">
      <g>
       <use style="fill:#555555;stroke:#555555;stroke-width:0.8;" x="45.38" xlink:href="#macbd759fce" y="251.605"/>
      </g>
     </g>
     <g id="text_8">
      <!-- 30 -->
      <defs>
       <path d="M 40.578125 39.3125 
Q 47.65625 37.796875 51.625 33 
Q 55.609375 28.21875 55.609375 21.1875 
Q 55.609375 10.40625 48.1875 4.484375 
Q 40.765625 -1.421875 27.09375 -1.421875 
Q 22.515625 -1.421875 17.65625 -0.515625 
Q 12.796875 0.390625 7.625 2.203125 
L 7.625 11.71875 
Q 11.71875 9.328125 16.59375 8.109375 
Q 21.484375 6.890625 26.8125 6.890625 
Q 36.078125 6.890625 40.9375 10.546875 
Q 45.796875 14.203125 45.796875 21.1875 
Q 45.796875 27.640625 41.28125 31.265625 
Q 36.765625 34.90625 28.71875 34.90625 
L 20.21875 34.90625 
L 20.21875 43.015625 
L 29.109375 43.015625 
Q 36.375 43.015625 40.234375 45.921875 
Q 44.09375 48.828125 44.09375 54.296875 
Q 44.09375 59.90625 40.109375 62.90625 
Q 36.140625 65.921875 28.71875 65.921875 
Q 24.65625 65.921875 20.015625 65.03125 
Q 15.375 64.15625 9.8125 62.3125 
L 9.8125 71.09375 
Q 15.4375 72.65625 20.34375 73.4375 
Q 25.25 74.21875 29.59375 74.21875 
Q 40.828125 74.21875 47.359375 69.109375 
Q 53.90625 64.015625 53.90625 55.328125 
Q 53.90625 49.265625 50.4375 45.09375 
Q 46.96875 40.921875 40.578125 39.3125 
z
" id="DejaVuSans-51"/>
      </defs>
      <g style="fill:#555555;" transform="translate(25.655 255.404219)scale(0.1 -0.1)">
       <use xlink:href="#DejaVuSans-51"/>
       <use x="63.623047" xlink:href="#DejaVuSans-48"/>
      </g>
     </g>
    </g>
    <g id="ytick_5">
     <g id="line2d_43">
      <path clip-path="url(#p3427d98f2d)" d="M 45.38 206.804 
L 637.2 206.804 
" style="fill:none;stroke:#ffffff;stroke-linecap:square;stroke-width:0.8;"/>
     </g>
     <g id="line2d_44">
      <g>
       <use style="fill:#555555;stroke:#555555;stroke-width:0.8;" x="45.38" xlink:href="#macbd759fce" y="206.804"/>
      </g>
     </g>
     <g id="text_9">
      <!-- 40 -->
      <defs>
       <path d="M 37.796875 64.3125 
L 12.890625 25.390625 
L 37.796875 25.390625 
z
M 35.203125 72.90625 
L 47.609375 72.90625 
L 47.609375 25.390625 
L 58.015625 25.390625 
L 58.015625 17.1875 
L 47.609375 17.1875 
L 47.609375 0 
L 37.796875 0 
L 37.796875 17.1875 
L 4.890625 17.1875 
L 4.890625 26.703125 
z
" id="DejaVuSans-52"/>
      </defs>
      <g style="fill:#555555;" transform="translate(25.655 210.603219)scale(0.1 -0.1)">
       <use xlink:href="#DejaVuSans-52"/>
       <use x="63.623047" xlink:href="#DejaVuSans-48"/>
      </g>
     </g>
    </g>
    <g id="ytick_6">
     <g id="line2d_45">
      <path clip-path="url(#p3427d98f2d)" d="M 45.38 162.003 
L 637.2 162.003 
" style="fill:none;stroke:#ffffff;stroke-linecap:square;stroke-width:0.8;"/>
     </g>
     <g id="line2d_46">
      <g>
       <use style="fill:#555555;stroke:#555555;stroke-width:0.8;" x="45.38" xlink:href="#macbd759fce" y="162.003"/>
      </g>
     </g>
     <g id="text_10">
      <!-- 50 -->
      <g style="fill:#555555;" transform="translate(25.655 165.802219)scale(0.1 -0.1)">
       <use xlink:href="#DejaVuSans-53"/>
       <use x="63.623047" xlink:href="#DejaVuSans-48"/>
      </g>
     </g>
    </g>
    <g id="ytick_7">
     <g id="line2d_47">
      <path clip-path="url(#p3427d98f2d)" d="M 45.38 117.202 
L 637.2 117.202 
" style="fill:none;stroke:#ffffff;stroke-linecap:square;stroke-width:0.8;"/>
     </g>
     <g id="line2d_48">
      <g>
       <use style="fill:#555555;stroke:#555555;stroke-width:0.8;" x="45.38" xlink:href="#macbd759fce" y="117.202"/>
      </g>
     </g>
     <g id="text_11">
      <!-- 60 -->
      <g style="fill:#555555;" transform="translate(25.655 121.001219)scale(0.1 -0.1)">
       <use xlink:href="#DejaVuSans-54"/>
       <use x="63.623047" xlink:href="#DejaVuSans-48"/>
      </g>
     </g>
    </g>
    <g id="ytick_8">
     <g id="line2d_49">
      <path clip-path="url(#p3427d98f2d)" d="M 45.38 72.401 
L 637.2 72.401 
" style="fill:none;stroke:#ffffff;stroke-linecap:square;stroke-width:0.8;"/>
     </g>
     <g id="line2d_50">
      <g>
       <use style="fill:#555555;stroke:#555555;stroke-width:0.8;" x="45.38" xlink:href="#macbd759fce" y="72.401"/>
      </g>
     </g>
     <g id="text_12">
      <!-- 70 -->
      <g style="fill:#555555;" transform="translate(25.655 76.200219)scale(0.1 -0.1)">
       <use xlink:href="#DejaVuSans-55"/>
       <use x="63.623047" xlink:href="#DejaVuSans-48"/>
      </g>
     </g>
    </g>
    <g id="ytick_9">
     <g id="line2d_51">
      <path clip-path="url(#p3427d98f2d)" d="M 45.38 27.6 
L 637.2 27.6 
" style="fill:none;stroke:#ffffff;stroke-linecap:square;stroke-width:0.8;"/>
     </g>
     <g id="line2d_52">
      <g>
       <use style="fill:#555555;stroke:#555555;stroke-width:0.8;" x="45.38" xlink:href="#macbd759fce" y="27.6"/>
      </g>
     </g>
     <g id="text_13">
      <!-- 80 -->
      <defs>
       <path d="M 31.78125 34.625 
Q 24.75 34.625 20.71875 30.859375 
Q 16.703125 27.09375 16.703125 20.515625 
Q 16.703125 13.921875 20.71875 10.15625 
Q 24.75 6.390625 31.78125 6.390625 
Q 38.8125 6.390625 42.859375 10.171875 
Q 46.921875 13.96875 46.921875 20.515625 
Q 46.921875 27.09375 42.890625 30.859375 
Q 38.875 34.625 31.78125 34.625 
z
M 21.921875 38.8125 
Q 15.578125 40.375 12.03125 44.71875 
Q 8.5 49.078125 8.5 55.328125 
Q 8.5 64.0625 14.71875 69.140625 
Q 20.953125 74.21875 31.78125 74.21875 
Q 42.671875 74.21875 48.875 69.140625 
Q 55.078125 64.0625 55.078125 55.328125 
Q 55.078125 49.078125 51.53125 44.71875 
Q 48 40.375 41.703125 38.8125 
Q 48.828125 37.15625 52.796875 32.3125 
Q 56.78125 27.484375 56.78125 20.515625 
Q 56.78125 9.90625 50.3125 4.234375 
Q 43.84375 -1.421875 31.78125 -1.421875 
Q 19.734375 -1.421875 13.25 4.234375 
Q 6.78125 9.90625 6.78125 20.515625 
Q 6.78125 27.484375 10.78125 32.3125 
Q 14.796875 37.15625 21.921875 38.8125 
z
M 18.3125 54.390625 
Q 18.3125 48.734375 21.84375 45.5625 
Q 25.390625 42.390625 31.78125 42.390625 
Q 38.140625 42.390625 41.71875 45.5625 
Q 45.3125 48.734375 45.3125 54.390625 
Q 45.3125 60.0625 41.71875 63.234375 
Q 38.140625 66.40625 31.78125 66.40625 
Q 25.390625 66.40625 21.84375 63.234375 
Q 18.3125 60.0625 18.3125 54.390625 
z
" id="DejaVuSans-56"/>
      </defs>
      <g style="fill:#555555;" transform="translate(25.655 31.399219)scale(0.1 -0.1)">
       <use xlink:href="#DejaVuSans-56"/>
       <use x="63.623047" xlink:href="#DejaVuSans-48"/>
      </g>
     </g>
    </g>
    <g id="text_14">
     <!-- Fill Speed (GB/s) -->
     <defs>
      <path d="M 9.8125 72.90625 
L 51.703125 72.90625 
L 51.703125 64.59375 
L 19.671875 64.59375 
L 19.671875 43.109375 
L 48.578125 43.109375 
L 48.578125 34.8125 
L 19.671875 34.8125 
L 19.671875 0 
L 9.8125 0 
z
" id="DejaVuSans-70"/>
      <path d="M 9.421875 75.984375 
L 18.40625 75.984375 
L 18.40625 0 
L 9.421875 0 
z
" id="DejaVuSans-108"/>
      <path d="M 18.109375 8.203125 
L 18.109375 -20.796875 
L 9.078125 -20.796875 
L 9.078125 54.6875 
L 18.109375 54.6875 
L 18.109375 46.390625 
Q 20.953125 51.265625 25.265625 53.625 
Q 29.59375 56 35.59375 56 
Q 45.5625 56 51.78125 48.09375 
Q 58.015625 40.1875 58.015625 27.296875 
Q 58.015625 14.40625 51.78125 6.484375 
Q 45.5625 -1.421875 35.59375 -1.421875 
Q 29.59375 -1.421875 25.265625 0.953125 
Q 20.953125 3.328125 18.109375 8.203125 
z
M 48.6875 27.296875 
Q 48.6875 37.203125 44.609375 42.84375 
Q 40.53125 48.484375 33.40625 48.484375 
Q 26.265625 48.484375 22.1875 42.84375 
Q 18.109375 37.203125 18.109375 27.296875 
Q 18.109375 17.390625 22.1875 11.75 
Q 26.265625 6.109375 33.40625 6.109375 
Q 40.53125 6.109375 44.609375 11.75 
Q 48.6875 17.390625 48.6875 27.296875 
z
" id="DejaVuSans-112"/>
      <path d="M 45.40625 46.390625 
L 45.40625 75.984375 
L 54.390625 75.984375 
L 54.390625 0 
L 45.40625 0 
L 45.40625 8.203125 
Q 42.578125 3.328125 38.25 0.953125 
Q 33.9375 -1.421875 27.875 -1.421875 
Q 17.96875 -1.421875 11.734375 6.484375 
Q 5.515625 14.40625 5.515625 27.296875 
Q 5.515625 40.1875 11.734375 48.09375 
Q 17.96875 56 27.875 56 
Q 33.9375 56 38.25 53.625 
Q 42.578125 51.265625 45.40625 46.390625 
z
M 14.796875 27.296875 
Q 14.796875 17.390625 18.875 11.75 
Q 22.953125 6.109375 30.078125 6.109375 
Q 37.203125 6.109375 41.296875 11.75 
Q 45.40625 17.390625 45.40625 27.296875 
Q 45.40625 37.203125 41.296875 42.84375 
Q 37.203125 48.484375 30.078125 48.484375 
Q 22.953125 48.484375 18.875 42.84375 
Q 14.796875 37.203125 14.796875 27.296875 
z
" id="DejaVuSans-100"/>
      <path d="M 59.515625 10.40625 
L 59.515625 29.984375 
L 43.40625 29.984375 
L 43.40625 38.09375 
L 69.28125 38.09375 
L 69.28125 6.78125 
Q 63.578125 2.734375 56.6875 0.65625 
Q 49.8125 -1.421875 42 -1.421875 
Q 24.90625 -1.421875 15.25 8.5625 
Q 5.609375 18.5625 5.609375 36.375 
Q 5.609375 54.25 15.25 64.234375 
Q 24.90625 74.21875 42 74.21875 
Q 49.125 74.21875 55.546875 72.453125 
Q 61.96875 70.703125 67.390625 67.28125 
L 67.390625 56.78125 
Q 61.921875 61.421875 55.765625 63.765625 
Q 49.609375 66.109375 42.828125 66.109375 
Q 29.4375 66.109375 22.71875 58.640625 
Q 16.015625 51.171875 16.015625 36.375 
Q 16.015625 21.625 22.71875 14.15625 
Q 29.4375 6.6875 42.828125 6.6875 
Q 48.046875 6.6875 52.140625 7.59375 
Q 56.25 8.5 59.515625 10.40625 
z
" id="DejaVuSans-71"/>
      <path d="M 19.671875 34.8125 
L 19.671875 8.109375 
L 35.5 8.109375 
Q 43.453125 8.109375 47.28125 11.40625 
Q 51.125 14.703125 51.125 21.484375 
Q 51.125 28.328125 47.28125 31.5625 
Q 43.453125 34.8125 35.5 34.8125 
z
M 19.671875 64.796875 
L 19.671875 42.828125 
L 34.28125 42.828125 
Q 41.5 42.828125 45.03125 45.53125 
Q 48.578125 48.25 48.578125 53.8125 
Q 48.578125 59.328125 45.03125 62.0625 
Q 41.5 64.796875 34.28125 64.796875 
z
M 9.8125 72.90625 
L 35.015625 72.90625 
Q 46.296875 72.90625 52.390625 68.21875 
Q 58.5 63.53125 58.5 54.890625 
Q 58.5 48.1875 55.375 44.234375 
Q 52.25 40.28125 46.1875 39.3125 
Q 53.46875 37.75 57.5 32.78125 
Q 61.53125 27.828125 61.53125 20.40625 
Q 61.53125 10.640625 54.890625 5.3125 
Q 48.25 0 35.984375 0 
L 9.8125 0 
z
" id="DejaVuSans-66"/>
      <path d="M 25.390625 72.90625 
L 33.6875 72.90625 
L 8.296875 -9.28125 
L 0 -9.28125 
z
" id="DejaVuSans-47"/>
     </defs>
     <g style="fill:#555555;" transform="translate(19.159375 256.468063)rotate(-90)scale(0.12 -0.12)">
      <use xlink:href="#DejaVuSans-70"/>
      <use x="57.410156" xlink:href="#DejaVuSans-105"/>
      <use x="85.193359" xlink:href="#DejaVuSans-108"/>
      <use x="112.976562" xlink:href="#DejaVuSans-108"/>
      <use x="140.759766" xlink:href="#DejaVuSans-32"/>
      <use x="172.546875" xlink:href="#DejaVuSans-83"/>
      <use x="236.023438" xlink:href="#DejaVuSans-112"/>
      <use x="299.5" xlink:href="#DejaVuSans-101"/>
      <use x="361.023438" xlink:href="#DejaVuSans-101"/>
      <use x="422.546875" xlink:href="#DejaVuSans-100"/>
      <use x="486.023438" xlink:href="#DejaVuSans-32"/>
      <use x="517.810547" xlink:href="#DejaVuSans-40"/>
      <use x="556.824219" xlink:href="#DejaVuSans-71"/>
      <use x="634.314453" xlink:href="#DejaVuSans-66"/>
      <use x="702.917969" xlink:href="#DejaVuSans-47"/>
      <use x="736.609375" xlink:href="#DejaVuSans-115"/>
      <use x="788.708984" xlink:href="#DejaVuSans-41"/>
     </g>
    </g>
   </g>
   <g id="patch_3">
    <path clip-path="url(#p3427d98f2d)" d="M 218.725199 386.008 
L 417.436882 386.008 
L 417.436882 27.6 
L 218.725199 27.6 
z
" style="fill:#ffa500;opacity:0.1;stroke:#ffa500;stroke-linejoin:miter;stroke-width:0.5;"/>
   </g>
   <g id="line2d_53">
    <defs>
     <path d="M 0 1.5 
C 0.397805 1.5 0.77937 1.341951 1.06066 1.06066 
C 1.341951 0.77937 1.5 0.397805 1.5 0 
C 1.5 -0.397805 1.341951 -0.77937 1.06066 -1.06066 
C 0.77937 -1.341951 0.397805 -1.5 0 -1.5 
C -0.397805 -1.5 -0.77937 -1.341951 -1.06066 -1.06066 
C -1.341951 -0.77937 -1.5 -0.397805 -1.5 0 
C -1.5 0.397805 -1.341951 0.77937 -1.06066 1.06066 
C -0.77937 1.341951 -0.397805 1.5 0 1.5 
z
" id="me7419dc977" style="stroke:#e24a33;"/>
    </defs>
    <g clip-path="url(#p3427d98f2d)">
     <use style="fill:#e24a33;stroke:#e24a33;" x="30.03192" xlink:href="#me7419dc977" y="-1"/>
     <use style="fill:#e24a33;stroke:#e24a33;" x="32.459001" xlink:href="#me7419dc977" y="99.72961"/>
     <use style="fill:#e24a33;stroke:#e24a33;" x="36.36003" xlink:href="#me7419dc977" y="140.05051"/>
     <use style="fill:#e24a33;stroke:#e24a33;" x="40.261656" xlink:href="#me7419dc977" y="124.37016"/>
     <use style="fill:#e24a33;stroke:#e24a33;" x="44.165988" xlink:href="#me7419dc977" y="119.44205"/>
     <use style="fill:#e24a33;stroke:#e24a33;" x="48.064005" xlink:href="#me7419dc977" y="130.6423"/>
     <use style="fill:#e24a33;stroke:#e24a33;" x="51.967595" xlink:href="#me7419dc977" y="117.65001"/>
     <use style="fill:#e24a33;stroke:#e24a33;" x="55.86735" xlink:href="#me7419dc977" y="116.75399"/>
     <use style="fill:#e24a33;stroke:#e24a33;" x="59.768531" xlink:href="#me7419dc977" y="107.34578"/>
     <use style="fill:#e24a33;stroke:#e24a33;" x="63.670792" xlink:href="#me7419dc977" y="110.03384"/>
     <use style="fill:#e24a33;stroke:#e24a33;" x="67.573428" xlink:href="#me7419dc977" y="126.1622"/>
     <use style="fill:#e24a33;stroke:#e24a33;" x="71.471591" xlink:href="#me7419dc977" y="99.2816"/>
     <use style="fill:#e24a33;stroke:#e24a33;" x="75.375599" xlink:href="#me7419dc977" y="111.37787"/>
     <use style="fill:#e24a33;stroke:#e24a33;" x="79.276003" xlink:href="#me7419dc977" y="121.6821"/>
     <use style="fill:#e24a33;stroke:#e24a33;" x="83.177961" xlink:href="#me7419dc977" y="119.44205"/>
     <use style="fill:#e24a33;stroke:#e24a33;" x="87.078954" xlink:href="#me7419dc977" y="107.34578"/>
     <use style="fill:#e24a33;stroke:#e24a33;" x="90.979525" xlink:href="#me7419dc977" y="105.55374"/>
     <use style="fill:#e24a33;stroke:#e24a33;" x="94.879715" xlink:href="#me7419dc977" y="110.48185"/>
     <use style="fill:#e24a33;stroke:#e24a33;" x="98.781887" xlink:href="#me7419dc977" y="103.31369"/>
     <use style="fill:#e24a33;stroke:#e24a33;" x="102.682341" xlink:href="#me7419dc977" y="102.86568"/>
     <use style="fill:#e24a33;stroke:#e24a33;" x="106.585083" xlink:href="#me7419dc977" y="99.72961"/>
     <use style="fill:#e24a33;stroke:#e24a33;" x="110.485882" xlink:href="#me7419dc977" y="106.89777"/>
     <use style="fill:#e24a33;stroke:#e24a33;" x="114.38762" xlink:href="#me7419dc977" y="96.59354"/>
     <use style="fill:#e24a33;stroke:#e24a33;" x="118.287961" xlink:href="#me7419dc977" y="111.37787"/>
     <use style="fill:#e24a33;stroke:#e24a33;" x="122.190708" xlink:href="#me7419dc977" y="112.27389"/>
     <use style="fill:#e24a33;stroke:#e24a33;" x="126.09078" xlink:href="#me7419dc977" y="100.17762"/>
     <use style="fill:#e24a33;stroke:#e24a33;" x="129.992868" xlink:href="#me7419dc977" y="103.31369"/>
     <use style="fill:#e24a33;stroke:#e24a33;" x="133.89511" xlink:href="#me7419dc977" y="92.56145"/>
     <use style="fill:#e24a33;stroke:#e24a33;" x="137.795561" xlink:href="#me7419dc977" y="108.2418"/>
     <use style="fill:#e24a33;stroke:#e24a33;" x="141.697027" xlink:href="#me7419dc977" y="105.55374"/>
     <use style="fill:#e24a33;stroke:#e24a33;" x="145.598348" xlink:href="#me7419dc977" y="95.69752"/>
     <use style="fill:#e24a33;stroke:#e24a33;" x="149.499611" xlink:href="#me7419dc977" y="104.20971"/>
     <use style="fill:#e24a33;stroke:#e24a33;" x="153.401859" xlink:href="#me7419dc977" y="92.11344"/>
     <use style="fill:#e24a33;stroke:#e24a33;" x="157.302892" xlink:href="#me7419dc977" y="92.56145"/>
     <use style="fill:#e24a33;stroke:#e24a33;" x="161.204268" xlink:href="#me7419dc977" y="90.76941"/>
     <use style="fill:#e24a33;stroke:#e24a33;" x="165.105655" xlink:href="#me7419dc977" y="99.2816"/>
     <use style="fill:#e24a33;stroke:#e24a33;" x="169.007508" xlink:href="#me7419dc977" y="90.76941"/>
     <use style="fill:#e24a33;stroke:#e24a33;" x="172.908701" xlink:href="#me7419dc977" y="90.76941"/>
     <use style="fill:#e24a33;stroke:#e24a33;" x="176.809966" xlink:href="#me7419dc977" y="91.21742"/>
     <use style="fill:#e24a33;stroke:#e24a33;" x="180.711493" xlink:href="#me7419dc977" y="88.52936"/>
     <use style="fill:#e24a33;stroke:#e24a33;" x="184.613025" xlink:href="#me7419dc977" y="88.08135"/>
     <use style="fill:#e24a33;stroke:#e24a33;" x="188.514829" xlink:href="#me7419dc977" y="93.45747"/>
     <use style="fill:#e24a33;stroke:#e24a33;" x="192.416709" xlink:href="#me7419dc977" y="92.11344"/>
     <use style="fill:#e24a33;stroke:#e24a33;" x="196.318093" xlink:href="#me7419dc977" y="87.63334"/>
     <use style="fill:#e24a33;stroke:#e24a33;" x="200.219641" xlink:href="#me7419dc977" y="85.39329"/>
     <use style="fill:#e24a33;stroke:#e24a33;" x="204.120755" xlink:href="#me7419dc977" y="92.11344"/>
     <use style="fill:#e24a33;stroke:#e24a33;" x="208.022624" xlink:href="#me7419dc977" y="83.60125"/>
     <use style="fill:#e24a33;stroke:#e24a33;" x="211.923818" xlink:href="#me7419dc977" y="70.16095"/>
     <use style="fill:#e24a33;stroke:#e24a33;" x="215.825918" xlink:href="#me7419dc977" y="67.9209"/>
     <use style="fill:#e24a33;stroke:#e24a33;" x="219.727393" xlink:href="#me7419dc977" y="67.9209"/>
     <use style="fill:#e24a33;stroke:#e24a33;" x="223.628876" xlink:href="#me7419dc977" y="69.26493"/>
     <use style="fill:#e24a33;stroke:#e24a33;" x="227.530474" xlink:href="#me7419dc977" y="90.76941"/>
     <use style="fill:#e24a33;stroke:#e24a33;" x="231.431866" xlink:href="#me7419dc977" y="102.86568"/>
     <use style="fill:#e24a33;stroke:#e24a33;" x="235.333863" xlink:href="#me7419dc977" y="111.37787"/>
     <use style="fill:#e24a33;stroke:#e24a33;" x="239.2353" xlink:href="#me7419dc977" y="116.30598"/>
     <use style="fill:#e24a33;stroke:#e24a33;" x="243.136611" xlink:href="#me7419dc977" y="122.57812"/>
     <use style="fill:#e24a33;stroke:#e24a33;" x="247.038172" xlink:href="#me7419dc977" y="127.50623"/>
     <use style="fill:#e24a33;stroke:#e24a33;" x="250.93988" xlink:href="#me7419dc977" y="132.43434"/>
     <use style="fill:#e24a33;stroke:#e24a33;" x="254.841622" xlink:href="#me7419dc977" y="135.1224"/>
     <use style="fill:#e24a33;stroke:#e24a33;" x="258.742896" xlink:href="#me7419dc977" y="136.46643"/>
     <use style="fill:#e24a33;stroke:#e24a33;" x="262.644645" xlink:href="#me7419dc977" y="136.01842"/>
     <use style="fill:#e24a33;stroke:#e24a33;" x="266.546221" xlink:href="#me7419dc977" y="136.46643"/>
     <use style="fill:#e24a33;stroke:#e24a33;" x="270.447639" xlink:href="#me7419dc977" y="137.36245"/>
     <use style="fill:#e24a33;stroke:#e24a33;" x="274.349416" xlink:href="#me7419dc977" y="136.91444"/>
     <use style="fill:#e24a33;stroke:#e24a33;" x="278.250984" xlink:href="#me7419dc977" y="136.91444"/>
     <use style="fill:#e24a33;stroke:#e24a33;" x="282.152568" xlink:href="#me7419dc977" y="136.46643"/>
     <use style="fill:#e24a33;stroke:#e24a33;" x="286.054207" xlink:href="#me7419dc977" y="136.91444"/>
     <use style="fill:#e24a33;stroke:#e24a33;" x="289.95577" xlink:href="#me7419dc977" y="136.91444"/>
     <use style="fill:#e24a33;stroke:#e24a33;" x="293.857456" xlink:href="#me7419dc977" y="136.46643"/>
     <use style="fill:#e24a33;stroke:#e24a33;" x="297.759013" xlink:href="#me7419dc977" y="136.91444"/>
     <use style="fill:#e24a33;stroke:#e24a33;" x="301.660693" xlink:href="#me7419dc977" y="136.91444"/>
     <use style="fill:#e24a33;stroke:#e24a33;" x="305.562288" xlink:href="#me7419dc977" y="136.46643"/>
     <use style="fill:#e24a33;stroke:#e24a33;" x="309.463806" xlink:href="#me7419dc977" y="136.91444"/>
     <use style="fill:#e24a33;stroke:#e24a33;" x="313.365403" xlink:href="#me7419dc977" y="136.91444"/>
     <use style="fill:#e24a33;stroke:#e24a33;" x="317.266976" xlink:href="#me7419dc977" y="136.01842"/>
     <use style="fill:#e24a33;stroke:#e24a33;" x="321.168703" xlink:href="#me7419dc977" y="136.01842"/>
     <use style="fill:#e24a33;stroke:#e24a33;" x="325.070321" xlink:href="#me7419dc977" y="135.57041"/>
     <use style="fill:#e24a33;stroke:#e24a33;" x="328.971816" xlink:href="#me7419dc977" y="135.57041"/>
     <use style="fill:#e24a33;stroke:#e24a33;" x="332.8735" xlink:href="#me7419dc977" y="135.57041"/>
     <use style="fill:#e24a33;stroke:#e24a33;" x="336.775077" xlink:href="#me7419dc977" y="135.57041"/>
     <use style="fill:#e24a33;stroke:#e24a33;" x="340.676689" xlink:href="#me7419dc977" y="135.57041"/>
     <use style="fill:#e24a33;stroke:#e24a33;" x="344.578296" xlink:href="#me7419dc977" y="135.57041"/>
     <use style="fill:#e24a33;stroke:#e24a33;" x="348.479934" xlink:href="#me7419dc977" y="135.57041"/>
     <use style="fill:#e24a33;stroke:#e24a33;" x="352.381565" xlink:href="#me7419dc977" y="135.57041"/>
     <use style="fill:#e24a33;stroke:#e24a33;" x="356.283185" xlink:href="#me7419dc977" y="136.01842"/>
     <use style="fill:#e24a33;stroke:#e24a33;" x="360.184795" xlink:href="#me7419dc977" y="135.57041"/>
     <use style="fill:#e24a33;stroke:#e24a33;" x="364.086382" xlink:href="#me7419dc977" y="136.01842"/>
     <use style="fill:#e24a33;stroke:#e24a33;" x="367.987993" xlink:href="#me7419dc977" y="135.57041"/>
     <use style="fill:#e24a33;stroke:#e24a33;" x="371.889619" xlink:href="#me7419dc977" y="135.57041"/>
     <use style="fill:#e24a33;stroke:#e24a33;" x="375.791266" xlink:href="#me7419dc977" y="135.57041"/>
     <use style="fill:#e24a33;stroke:#e24a33;" x="379.692855" xlink:href="#me7419dc977" y="135.57041"/>
     <use style="fill:#e24a33;stroke:#e24a33;" x="383.594453" xlink:href="#me7419dc977" y="135.57041"/>
     <use style="fill:#e24a33;stroke:#e24a33;" x="387.496075" xlink:href="#me7419dc977" y="135.57041"/>
     <use style="fill:#e24a33;stroke:#e24a33;" x="391.397673" xlink:href="#me7419dc977" y="135.57041"/>
     <use style="fill:#e24a33;stroke:#e24a33;" x="395.299332" xlink:href="#me7419dc977" y="135.57041"/>
     <use style="fill:#e24a33;stroke:#e24a33;" x="399.200967" xlink:href="#me7419dc977" y="135.57041"/>
     <use style="fill:#e24a33;stroke:#e24a33;" x="403.102584" xlink:href="#me7419dc977" y="135.57041"/>
     <use style="fill:#e24a33;stroke:#e24a33;" x="407.004181" xlink:href="#me7419dc977" y="135.57041"/>
     <use style="fill:#e24a33;stroke:#e24a33;" x="410.905787" xlink:href="#me7419dc977" y="135.57041"/>
     <use style="fill:#e24a33;stroke:#e24a33;" x="414.807436" xlink:href="#me7419dc977" y="137.36245"/>
     <use style="fill:#e24a33;stroke:#e24a33;" x="418.709045" xlink:href="#me7419dc977" y="157.5229"/>
     <use style="fill:#e24a33;stroke:#e24a33;" x="422.610656" xlink:href="#me7419dc977" y="203.66793"/>
     <use style="fill:#e24a33;stroke:#e24a33;" x="426.512304" xlink:href="#me7419dc977" y="228.75649"/>
     <use style="fill:#e24a33;stroke:#e24a33;" x="430.413909" xlink:href="#me7419dc977" y="240.40475"/>
     <use style="fill:#e24a33;stroke:#e24a33;" x="434.315526" xlink:href="#me7419dc977" y="251.605"/>
     <use style="fill:#e24a33;stroke:#e24a33;" x="438.217146" xlink:href="#me7419dc977" y="260.11719"/>
     <use style="fill:#e24a33;stroke:#e24a33;" x="442.118796" xlink:href="#me7419dc977" y="266.83734"/>
     <use style="fill:#e24a33;stroke:#e24a33;" x="446.020407" xlink:href="#me7419dc977" y="272.66147"/>
     <use style="fill:#e24a33;stroke:#e24a33;" x="449.922021" xlink:href="#me7419dc977" y="277.14157"/>
     <use style="fill:#e24a33;stroke:#e24a33;" x="453.823647" xlink:href="#me7419dc977" y="281.62167"/>
     <use style="fill:#e24a33;stroke:#e24a33;" x="457.72528" xlink:href="#me7419dc977" y="281.17366"/>
     <use style="fill:#e24a33;stroke:#e24a33;" x="461.626887" xlink:href="#me7419dc977" y="289.23784"/>
     <use style="fill:#e24a33;stroke:#e24a33;" x="465.528529" xlink:href="#me7419dc977" y="291.9259"/>
     <use style="fill:#e24a33;stroke:#e24a33;" x="469.430139" xlink:href="#me7419dc977" y="286.99779"/>
     <use style="fill:#e24a33;stroke:#e24a33;" x="473.331755" xlink:href="#me7419dc977" y="288.34182"/>
     <use style="fill:#e24a33;stroke:#e24a33;" x="477.233382" xlink:href="#me7419dc977" y="299.99008"/>
     <use style="fill:#e24a33;stroke:#e24a33;" x="481.135003" xlink:href="#me7419dc977" y="291.47789"/>
     <use style="fill:#e24a33;stroke:#e24a33;" x="485.036629" xlink:href="#me7419dc977" y="291.9259"/>
     <use style="fill:#e24a33;stroke:#e24a33;" x="488.938255" xlink:href="#me7419dc977" y="292.82192"/>
     <use style="fill:#e24a33;stroke:#e24a33;" x="492.839879" xlink:href="#me7419dc977" y="304.91819"/>
     <use style="fill:#e24a33;stroke:#e24a33;" x="496.741504" xlink:href="#me7419dc977" y="294.61396"/>
     <use style="fill:#e24a33;stroke:#e24a33;" x="500.643134" xlink:href="#me7419dc977" y="306.71023"/>
     <use style="fill:#e24a33;stroke:#e24a33;" x="504.544755" xlink:href="#me7419dc977" y="300.8861"/>
     <use style="fill:#e24a33;stroke:#e24a33;" x="508.446385" xlink:href="#me7419dc977" y="304.02217"/>
     <use style="fill:#e24a33;stroke:#e24a33;" x="512.347998" xlink:href="#me7419dc977" y="306.26222"/>
     <use style="fill:#e24a33;stroke:#e24a33;" x="516.249622" xlink:href="#me7419dc977" y="310.74232"/>
     <use style="fill:#e24a33;stroke:#e24a33;" x="520.151246" xlink:href="#me7419dc977" y="300.43809"/>
     <use style="fill:#e24a33;stroke:#e24a33;" x="524.052881" xlink:href="#me7419dc977" y="300.8861"/>
     <use style="fill:#e24a33;stroke:#e24a33;" x="527.954507" xlink:href="#me7419dc977" y="300.8861"/>
     <use style="fill:#e24a33;stroke:#e24a33;" x="531.856121" xlink:href="#me7419dc977" y="301.78212"/>
     <use style="fill:#e24a33;stroke:#e24a33;" x="535.757751" xlink:href="#me7419dc977" y="311.63834"/>
     <use style="fill:#e24a33;stroke:#e24a33;" x="539.659371" xlink:href="#me7419dc977" y="303.12615"/>
     <use style="fill:#e24a33;stroke:#e24a33;" x="543.561001" xlink:href="#me7419dc977" y="303.57416"/>
     <use style="fill:#e24a33;stroke:#e24a33;" x="547.462627" xlink:href="#me7419dc977" y="304.02217"/>
     <use style="fill:#e24a33;stroke:#e24a33;" x="551.364253" xlink:href="#me7419dc977" y="305.81421"/>
     <use style="fill:#e24a33;stroke:#e24a33;" x="555.265872" xlink:href="#me7419dc977" y="304.47018"/>
     <use style="fill:#e24a33;stroke:#e24a33;" x="559.167498" xlink:href="#me7419dc977" y="304.91819"/>
     <use style="fill:#e24a33;stroke:#e24a33;" x="563.069127" xlink:href="#me7419dc977" y="305.3662"/>
     <use style="fill:#e24a33;stroke:#e24a33;" x="566.970752" xlink:href="#me7419dc977" y="305.3662"/>
     <use style="fill:#e24a33;stroke:#e24a33;" x="570.872373" xlink:href="#me7419dc977" y="305.3662"/>
     <use style="fill:#e24a33;stroke:#e24a33;" x="574.773999" xlink:href="#me7419dc977" y="305.81421"/>
     <use style="fill:#e24a33;stroke:#e24a33;" x="578.675625" xlink:href="#me7419dc977" y="306.26222"/>
     <use style="fill:#e24a33;stroke:#e24a33;" x="582.57725" xlink:href="#me7419dc977" y="305.81421"/>
     <use style="fill:#e24a33;stroke:#e24a33;" x="586.478872" xlink:href="#me7419dc977" y="306.26222"/>
     <use style="fill:#e24a33;stroke:#e24a33;" x="590.380499" xlink:href="#me7419dc977" y="306.26222"/>
     <use style="fill:#e24a33;stroke:#e24a33;" x="594.282122" xlink:href="#me7419dc977" y="306.71023"/>
     <use style="fill:#e24a33;stroke:#e24a33;" x="598.183748" xlink:href="#me7419dc977" y="306.71023"/>
     <use style="fill:#e24a33;stroke:#e24a33;" x="602.085373" xlink:href="#me7419dc977" y="307.15824"/>
     <use style="fill:#e24a33;stroke:#e24a33;" x="605.986999" xlink:href="#me7419dc977" y="307.15824"/>
     <use style="fill:#e24a33;stroke:#e24a33;" x="609.888623" xlink:href="#me7419dc977" y="307.15824"/>
     <use style="fill:#e24a33;stroke:#e24a33;" x="613.790251" xlink:href="#me7419dc977" y="307.60625"/>
     <use style="fill:#e24a33;stroke:#e24a33;" x="617.691874" xlink:href="#me7419dc977" y="307.60625"/>
     <use style="fill:#e24a33;stroke:#e24a33;" x="621.593498" xlink:href="#me7419dc977" y="307.60625"/>
     <use style="fill:#e24a33;stroke:#e24a33;" x="625.495125" xlink:href="#me7419dc977" y="307.60625"/>
     <use style="fill:#e24a33;stroke:#e24a33;" x="629.396749" xlink:href="#me7419dc977" y="308.05426"/>
     <use style="fill:#e24a33;stroke:#e24a33;" x="633.298376" xlink:href="#me7419dc977" y="308.05426"/>
     <use style="fill:#e24a33;stroke:#e24a33;" x="637.2" xlink:href="#me7419dc977" y="308.05426"/>
    </g>
   </g>
   <g id="line2d_54">
    <defs>
     <path d="M 0 1.5 
C 0.397805 1.5 0.77937 1.341951 1.06066 1.06066 
C 1.341951 0.77937 1.5 0.397805 1.5 0 
C 1.5 -0.397805 1.341951 -0.77937 1.06066 -1.06066 
C 0.77937 -1.341951 0.397805 -1.5 0 -1.5 
C -0.397805 -1.5 -0.77937 -1.341951 -1.06066 -1.06066 
C -1.341951 -0.77937 -1.5 -0.397805 -1.5 0 
C -1.5 0.397805 -1.341951 0.77937 -1.06066 1.06066 
C -0.77937 1.341951 -0.397805 1.5 0 1.5 
z
" id="m0699aa549d" style="stroke:#348abd;"/>
    </defs>
    <g clip-path="url(#p3427d98f2d)">
     <use style="fill:#348abd;stroke:#348abd;" x="30.606773" xlink:href="#m0699aa549d" y="-1"/>
     <use style="fill:#348abd;stroke:#348abd;" x="32.459001" xlink:href="#m0699aa549d" y="95.24951"/>
     <use style="fill:#348abd;stroke:#348abd;" x="36.36003" xlink:href="#m0699aa549d" y="134.22638"/>
     <use style="fill:#348abd;stroke:#348abd;" x="40.261656" xlink:href="#m0699aa549d" y="126.1622"/>
     <use style="fill:#348abd;stroke:#348abd;" x="44.165988" xlink:href="#m0699aa549d" y="119.89006"/>
     <use style="fill:#348abd;stroke:#348abd;" x="48.064005" xlink:href="#m0699aa549d" y="129.29827"/>
     <use style="fill:#348abd;stroke:#348abd;" x="51.967595" xlink:href="#m0699aa549d" y="113.16991"/>
     <use style="fill:#348abd;stroke:#348abd;" x="55.86735" xlink:href="#m0699aa549d" y="123.92215"/>
     <use style="fill:#348abd;stroke:#348abd;" x="59.768531" xlink:href="#m0699aa549d" y="124.37016"/>
     <use style="fill:#348abd;stroke:#348abd;" x="63.670792" xlink:href="#m0699aa549d" y="107.34578"/>
     <use style="fill:#348abd;stroke:#348abd;" x="67.573428" xlink:href="#m0699aa549d" y="111.37787"/>
     <use style="fill:#348abd;stroke:#348abd;" x="71.471591" xlink:href="#m0699aa549d" y="110.92986"/>
     <use style="fill:#348abd;stroke:#348abd;" x="75.375599" xlink:href="#m0699aa549d" y="114.96195"/>
     <use style="fill:#348abd;stroke:#348abd;" x="79.276003" xlink:href="#m0699aa549d" y="121.23409"/>
     <use style="fill:#348abd;stroke:#348abd;" x="83.177961" xlink:href="#m0699aa549d" y="106.44976"/>
     <use style="fill:#348abd;stroke:#348abd;" x="87.078954" xlink:href="#m0699aa549d" y="107.34578"/>
     <use style="fill:#348abd;stroke:#348abd;" x="90.979525" xlink:href="#m0699aa549d" y="101.96966"/>
     <use style="fill:#348abd;stroke:#348abd;" x="94.879715" xlink:href="#m0699aa549d" y="107.79379"/>
     <use style="fill:#348abd;stroke:#348abd;" x="98.781887" xlink:href="#m0699aa549d" y="111.37787"/>
     <use style="fill:#348abd;stroke:#348abd;" x="102.682341" xlink:href="#m0699aa549d" y="93.90548"/>
     <use style="fill:#348abd;stroke:#348abd;" x="106.585083" xlink:href="#m0699aa549d" y="99.2816"/>
     <use style="fill:#348abd;stroke:#348abd;" x="110.485882" xlink:href="#m0699aa549d" y="101.96966"/>
     <use style="fill:#348abd;stroke:#348abd;" x="114.38762" xlink:href="#m0699aa549d" y="100.62563"/>
     <use style="fill:#348abd;stroke:#348abd;" x="118.287961" xlink:href="#m0699aa549d" y="107.34578"/>
     <use style="fill:#348abd;stroke:#348abd;" x="122.190708" xlink:href="#m0699aa549d" y="104.65772"/>
     <use style="fill:#348abd;stroke:#348abd;" x="126.09078" xlink:href="#m0699aa549d" y="105.10573"/>
     <use style="fill:#348abd;stroke:#348abd;" x="129.992868" xlink:href="#m0699aa549d" y="99.72961"/>
     <use style="fill:#348abd;stroke:#348abd;" x="133.89511" xlink:href="#m0699aa549d" y="97.93757"/>
     <use style="fill:#348abd;stroke:#348abd;" x="137.795561" xlink:href="#m0699aa549d" y="114.06593"/>
     <use style="fill:#348abd;stroke:#348abd;" x="141.697027" xlink:href="#m0699aa549d" y="100.62563"/>
     <use style="fill:#348abd;stroke:#348abd;" x="145.598348" xlink:href="#m0699aa549d" y="105.10573"/>
     <use style="fill:#348abd;stroke:#348abd;" x="149.499611" xlink:href="#m0699aa549d" y="99.2816"/>
     <use style="fill:#348abd;stroke:#348abd;" x="153.401859" xlink:href="#m0699aa549d" y="96.59354"/>
     <use style="fill:#348abd;stroke:#348abd;" x="157.302892" xlink:href="#m0699aa549d" y="90.3214"/>
     <use style="fill:#348abd;stroke:#348abd;" x="161.204268" xlink:href="#m0699aa549d" y="90.3214"/>
     <use style="fill:#348abd;stroke:#348abd;" x="165.105655" xlink:href="#m0699aa549d" y="94.8015"/>
     <use style="fill:#348abd;stroke:#348abd;" x="169.007508" xlink:href="#m0699aa549d" y="92.56145"/>
     <use style="fill:#348abd;stroke:#348abd;" x="172.908701" xlink:href="#m0699aa549d" y="88.97737"/>
     <use style="fill:#348abd;stroke:#348abd;" x="176.809966" xlink:href="#m0699aa549d" y="88.52936"/>
     <use style="fill:#348abd;stroke:#348abd;" x="180.711493" xlink:href="#m0699aa549d" y="89.42538"/>
     <use style="fill:#348abd;stroke:#348abd;" x="184.613025" xlink:href="#m0699aa549d" y="91.21742"/>
     <use style="fill:#348abd;stroke:#348abd;" x="188.514829" xlink:href="#m0699aa549d" y="93.90548"/>
     <use style="fill:#348abd;stroke:#348abd;" x="192.416709" xlink:href="#m0699aa549d" y="87.63334"/>
     <use style="fill:#348abd;stroke:#348abd;" x="196.318093" xlink:href="#m0699aa549d" y="85.8413"/>
     <use style="fill:#348abd;stroke:#348abd;" x="200.219641" xlink:href="#m0699aa549d" y="83.60125"/>
     <use style="fill:#348abd;stroke:#348abd;" x="204.120755" xlink:href="#m0699aa549d" y="87.18533"/>
     <use style="fill:#348abd;stroke:#348abd;" x="208.022624" xlink:href="#m0699aa549d" y="90.3214"/>
     <use style="fill:#348abd;stroke:#348abd;" x="211.923818" xlink:href="#m0699aa549d" y="92.11344"/>
     <use style="fill:#348abd;stroke:#348abd;" x="215.825918" xlink:href="#m0699aa549d" y="93.45747"/>
     <use style="fill:#348abd;stroke:#348abd;" x="219.727393" xlink:href="#m0699aa549d" y="106.44976"/>
     <use style="fill:#348abd;stroke:#348abd;" x="223.628876" xlink:href="#m0699aa549d" y="135.1224"/>
     <use style="fill:#348abd;stroke:#348abd;" x="227.530474" xlink:href="#m0699aa549d" y="156.17887"/>
     <use style="fill:#348abd;stroke:#348abd;" x="231.431866" xlink:href="#m0699aa549d" y="167.82713"/>
     <use style="fill:#348abd;stroke:#348abd;" x="235.333863" xlink:href="#m0699aa549d" y="178.57937"/>
     <use style="fill:#348abd;stroke:#348abd;" x="239.2353" xlink:href="#m0699aa549d" y="186.19554"/>
     <use style="fill:#348abd;stroke:#348abd;" x="243.136611" xlink:href="#m0699aa549d" y="194.25972"/>
     <use style="fill:#348abd;stroke:#348abd;" x="247.038172" xlink:href="#m0699aa549d" y="198.29181"/>
     <use style="fill:#348abd;stroke:#348abd;" x="250.93988" xlink:href="#m0699aa549d" y="204.11594"/>
     <use style="fill:#348abd;stroke:#348abd;" x="254.841622" xlink:href="#m0699aa549d" y="206.35599"/>
     <use style="fill:#348abd;stroke:#348abd;" x="258.742896" xlink:href="#m0699aa549d" y="208.14803"/>
     <use style="fill:#348abd;stroke:#348abd;" x="262.644645" xlink:href="#m0699aa549d" y="209.49206"/>
     <use style="fill:#348abd;stroke:#348abd;" x="266.546221" xlink:href="#m0699aa549d" y="209.94007"/>
     <use style="fill:#348abd;stroke:#348abd;" x="270.447639" xlink:href="#m0699aa549d" y="210.38808"/>
     <use style="fill:#348abd;stroke:#348abd;" x="274.349416" xlink:href="#m0699aa549d" y="210.38808"/>
     <use style="fill:#348abd;stroke:#348abd;" x="278.250984" xlink:href="#m0699aa549d" y="210.38808"/>
     <use style="fill:#348abd;stroke:#348abd;" x="282.152568" xlink:href="#m0699aa549d" y="210.38808"/>
     <use style="fill:#348abd;stroke:#348abd;" x="286.054207" xlink:href="#m0699aa549d" y="209.94007"/>
     <use style="fill:#348abd;stroke:#348abd;" x="289.95577" xlink:href="#m0699aa549d" y="210.38808"/>
     <use style="fill:#348abd;stroke:#348abd;" x="293.857456" xlink:href="#m0699aa549d" y="209.94007"/>
     <use style="fill:#348abd;stroke:#348abd;" x="297.759013" xlink:href="#m0699aa549d" y="209.94007"/>
     <use style="fill:#348abd;stroke:#348abd;" x="301.660693" xlink:href="#m0699aa549d" y="209.94007"/>
     <use style="fill:#348abd;stroke:#348abd;" x="305.562288" xlink:href="#m0699aa549d" y="209.94007"/>
     <use style="fill:#348abd;stroke:#348abd;" x="309.463806" xlink:href="#m0699aa549d" y="209.94007"/>
     <use style="fill:#348abd;stroke:#348abd;" x="313.365403" xlink:href="#m0699aa549d" y="209.94007"/>
     <use style="fill:#348abd;stroke:#348abd;" x="317.266976" xlink:href="#m0699aa549d" y="209.94007"/>
     <use style="fill:#348abd;stroke:#348abd;" x="321.168703" xlink:href="#m0699aa549d" y="209.94007"/>
     <use style="fill:#348abd;stroke:#348abd;" x="325.070321" xlink:href="#m0699aa549d" y="209.94007"/>
     <use style="fill:#348abd;stroke:#348abd;" x="328.971816" xlink:href="#m0699aa549d" y="209.94007"/>
     <use style="fill:#348abd;stroke:#348abd;" x="332.8735" xlink:href="#m0699aa549d" y="209.94007"/>
     <use style="fill:#348abd;stroke:#348abd;" x="336.775077" xlink:href="#m0699aa549d" y="209.94007"/>
     <use style="fill:#348abd;stroke:#348abd;" x="340.676689" xlink:href="#m0699aa549d" y="209.94007"/>
     <use style="fill:#348abd;stroke:#348abd;" x="344.578296" xlink:href="#m0699aa549d" y="209.94007"/>
     <use style="fill:#348abd;stroke:#348abd;" x="348.479934" xlink:href="#m0699aa549d" y="209.94007"/>
     <use style="fill:#348abd;stroke:#348abd;" x="352.381565" xlink:href="#m0699aa549d" y="209.94007"/>
     <use style="fill:#348abd;stroke:#348abd;" x="356.283185" xlink:href="#m0699aa549d" y="209.94007"/>
     <use style="fill:#348abd;stroke:#348abd;" x="360.184795" xlink:href="#m0699aa549d" y="209.94007"/>
     <use style="fill:#348abd;stroke:#348abd;" x="364.086382" xlink:href="#m0699aa549d" y="209.94007"/>
     <use style="fill:#348abd;stroke:#348abd;" x="367.987993" xlink:href="#m0699aa549d" y="209.94007"/>
     <use style="fill:#348abd;stroke:#348abd;" x="371.889619" xlink:href="#m0699aa549d" y="209.94007"/>
     <use style="fill:#348abd;stroke:#348abd;" x="375.791266" xlink:href="#m0699aa549d" y="209.94007"/>
     <use style="fill:#348abd;stroke:#348abd;" x="379.692855" xlink:href="#m0699aa549d" y="209.49206"/>
     <use style="fill:#348abd;stroke:#348abd;" x="383.594453" xlink:href="#m0699aa549d" y="209.94007"/>
     <use style="fill:#348abd;stroke:#348abd;" x="387.496075" xlink:href="#m0699aa549d" y="209.49206"/>
     <use style="fill:#348abd;stroke:#348abd;" x="391.397673" xlink:href="#m0699aa549d" y="209.94007"/>
     <use style="fill:#348abd;stroke:#348abd;" x="395.299332" xlink:href="#m0699aa549d" y="209.49206"/>
     <use style="fill:#348abd;stroke:#348abd;" x="399.200967" xlink:href="#m0699aa549d" y="209.49206"/>
     <use style="fill:#348abd;stroke:#348abd;" x="403.102584" xlink:href="#m0699aa549d" y="209.94007"/>
     <use style="fill:#348abd;stroke:#348abd;" x="407.004181" xlink:href="#m0699aa549d" y="209.49206"/>
     <use style="fill:#348abd;stroke:#348abd;" x="410.905787" xlink:href="#m0699aa549d" y="209.49206"/>
     <use style="fill:#348abd;stroke:#348abd;" x="414.807436" xlink:href="#m0699aa549d" y="210.38808"/>
     <use style="fill:#348abd;stroke:#348abd;" x="418.709045" xlink:href="#m0699aa549d" y="219.34828"/>
     <use style="fill:#348abd;stroke:#348abd;" x="422.610656" xlink:href="#m0699aa549d" y="244.43684"/>
     <use style="fill:#348abd;stroke:#348abd;" x="426.512304" xlink:href="#m0699aa549d" y="261.90923"/>
     <use style="fill:#348abd;stroke:#348abd;" x="430.413909" xlink:href="#m0699aa549d" y="269.07739"/>
     <use style="fill:#348abd;stroke:#348abd;" x="434.315526" xlink:href="#m0699aa549d" y="275.34953"/>
     <use style="fill:#348abd;stroke:#348abd;" x="438.217146" xlink:href="#m0699aa549d" y="281.17366"/>
     <use style="fill:#348abd;stroke:#348abd;" x="442.118796" xlink:href="#m0699aa549d" y="286.54978"/>
     <use style="fill:#348abd;stroke:#348abd;" x="446.020407" xlink:href="#m0699aa549d" y="301.33411"/>
     <use style="fill:#348abd;stroke:#348abd;" x="449.922021" xlink:href="#m0699aa549d" y="302.67814"/>
     <use style="fill:#348abd;stroke:#348abd;" x="453.823647" xlink:href="#m0699aa549d" y="303.57416"/>
     <use style="fill:#348abd;stroke:#348abd;" x="457.72528" xlink:href="#m0699aa549d" y="304.02217"/>
     <use style="fill:#348abd;stroke:#348abd;" x="461.626887" xlink:href="#m0699aa549d" y="306.26222"/>
     <use style="fill:#348abd;stroke:#348abd;" x="465.528529" xlink:href="#m0699aa549d" y="308.05426"/>
     <use style="fill:#348abd;stroke:#348abd;" x="469.430139" xlink:href="#m0699aa549d" y="308.95028"/>
     <use style="fill:#348abd;stroke:#348abd;" x="473.331755" xlink:href="#m0699aa549d" y="309.39829"/>
     <use style="fill:#348abd;stroke:#348abd;" x="477.233382" xlink:href="#m0699aa549d" y="313.43038"/>
     <use style="fill:#348abd;stroke:#348abd;" x="481.135003" xlink:href="#m0699aa549d" y="311.63834"/>
     <use style="fill:#348abd;stroke:#348abd;" x="485.036629" xlink:href="#m0699aa549d" y="312.08635"/>
     <use style="fill:#348abd;stroke:#348abd;" x="488.938255" xlink:href="#m0699aa549d" y="312.98237"/>
     <use style="fill:#348abd;stroke:#348abd;" x="492.839879" xlink:href="#m0699aa549d" y="313.87839"/>
     <use style="fill:#348abd;stroke:#348abd;" x="496.741504" xlink:href="#m0699aa549d" y="314.77441"/>
     <use style="fill:#348abd;stroke:#348abd;" x="500.643134" xlink:href="#m0699aa549d" y="315.67043"/>
     <use style="fill:#348abd;stroke:#348abd;" x="504.544755" xlink:href="#m0699aa549d" y="316.11844"/>
     <use style="fill:#348abd;stroke:#348abd;" x="508.446385" xlink:href="#m0699aa549d" y="316.56645"/>
     <use style="fill:#348abd;stroke:#348abd;" x="512.347998" xlink:href="#m0699aa549d" y="316.56645"/>
     <use style="fill:#348abd;stroke:#348abd;" x="516.249622" xlink:href="#m0699aa549d" y="321.04655"/>
     <use style="fill:#348abd;stroke:#348abd;" x="520.151246" xlink:href="#m0699aa549d" y="317.91048"/>
     <use style="fill:#348abd;stroke:#348abd;" x="524.052881" xlink:href="#m0699aa549d" y="318.35849"/>
     <use style="fill:#348abd;stroke:#348abd;" x="527.954507" xlink:href="#m0699aa549d" y="318.8065"/>
     <use style="fill:#348abd;stroke:#348abd;" x="531.856121" xlink:href="#m0699aa549d" y="319.70252"/>
     <use style="fill:#348abd;stroke:#348abd;" x="535.757751" xlink:href="#m0699aa549d" y="319.70252"/>
     <use style="fill:#348abd;stroke:#348abd;" x="539.659371" xlink:href="#m0699aa549d" y="319.70252"/>
     <use style="fill:#348abd;stroke:#348abd;" x="543.561001" xlink:href="#m0699aa549d" y="320.15053"/>
     <use style="fill:#348abd;stroke:#348abd;" x="547.462627" xlink:href="#m0699aa549d" y="320.15053"/>
     <use style="fill:#348abd;stroke:#348abd;" x="551.364253" xlink:href="#m0699aa549d" y="320.59854"/>
     <use style="fill:#348abd;stroke:#348abd;" x="555.265872" xlink:href="#m0699aa549d" y="321.04655"/>
     <use style="fill:#348abd;stroke:#348abd;" x="559.167498" xlink:href="#m0699aa549d" y="321.49456"/>
     <use style="fill:#348abd;stroke:#348abd;" x="563.069127" xlink:href="#m0699aa549d" y="321.94257"/>
     <use style="fill:#348abd;stroke:#348abd;" x="566.970752" xlink:href="#m0699aa549d" y="321.49456"/>
     <use style="fill:#348abd;stroke:#348abd;" x="570.872373" xlink:href="#m0699aa549d" y="321.49456"/>
     <use style="fill:#348abd;stroke:#348abd;" x="574.773999" xlink:href="#m0699aa549d" y="321.94257"/>
     <use style="fill:#348abd;stroke:#348abd;" x="578.675625" xlink:href="#m0699aa549d" y="322.39058"/>
     <use style="fill:#348abd;stroke:#348abd;" x="582.57725" xlink:href="#m0699aa549d" y="322.39058"/>
     <use style="fill:#348abd;stroke:#348abd;" x="586.478872" xlink:href="#m0699aa549d" y="322.83859"/>
     <use style="fill:#348abd;stroke:#348abd;" x="590.380499" xlink:href="#m0699aa549d" y="322.39058"/>
     <use style="fill:#348abd;stroke:#348abd;" x="594.282122" xlink:href="#m0699aa549d" y="322.83859"/>
     <use style="fill:#348abd;stroke:#348abd;" x="598.183748" xlink:href="#m0699aa549d" y="322.83859"/>
     <use style="fill:#348abd;stroke:#348abd;" x="602.085373" xlink:href="#m0699aa549d" y="322.83859"/>
     <use style="fill:#348abd;stroke:#348abd;" x="605.986999" xlink:href="#m0699aa549d" y="323.2866"/>
     <use style="fill:#348abd;stroke:#348abd;" x="609.888623" xlink:href="#m0699aa549d" y="323.2866"/>
     <use style="fill:#348abd;stroke:#348abd;" x="613.790251" xlink:href="#m0699aa549d" y="323.2866"/>
     <use style="fill:#348abd;stroke:#348abd;" x="617.691874" xlink:href="#m0699aa549d" y="323.2866"/>
     <use style="fill:#348abd;stroke:#348abd;" x="621.593498" xlink:href="#m0699aa549d" y="323.73461"/>
     <use style="fill:#348abd;stroke:#348abd;" x="625.495125" xlink:href="#m0699aa549d" y="323.73461"/>
     <use style="fill:#348abd;stroke:#348abd;" x="629.396749" xlink:href="#m0699aa549d" y="323.73461"/>
     <use style="fill:#348abd;stroke:#348abd;" x="633.298376" xlink:href="#m0699aa549d" y="324.18262"/>
     <use style="fill:#348abd;stroke:#348abd;" x="637.2" xlink:href="#m0699aa549d" y="323.73461"/>
    </g>
   </g>
   <g id="patch_4">
    <path d="M 45.38 386.008 
L 45.38 27.6 
" style="fill:none;stroke:#ffffff;stroke-linecap:square;stroke-linejoin:miter;"/>
   </g>
   <g id="patch_5">
    <path d="M 637.2 386.008 
L 637.2 27.6 
" style="fill:none;stroke:#ffffff;stroke-linecap:square;stroke-linejoin:miter;"/>
   </g>
   <g id="patch_6">
    <path d="M 45.38 386.008 
L 637.2 386.008 
" style="fill:none;stroke:#ffffff;stroke-linecap:square;stroke-linejoin:miter;"/>
   </g>
   <g id="patch_7">
    <path d="M 45.38 27.6 
L 637.2 27.6 
" style="fill:none;stroke:#ffffff;stroke-linecap:square;stroke-linejoin:miter;"/>
   </g>
   <g id="text_15">
    <!-- L2 -->
    <defs>
     <path d="M 9.8125 72.90625 
L 19.671875 72.90625 
L 19.671875 8.296875 
L 55.171875 8.296875 
L 55.171875 0 
L 9.8125 0 
z
" id="DejaVuSans-76"/>
    </defs>
    <g transform="translate(120.118225 374.80775)scale(0.2 -0.2)">
     <use xlink:href="#DejaVuSans-76"/>
     <use x="55.712891" xlink:href="#DejaVuSans-50"/>
    </g>
   </g>
   <g id="text_16">
    <!-- L3 -->
    <g transform="translate(306.146666 374.80775)scale(0.2 -0.2)">
     <use xlink:href="#DejaVuSans-76"/>
     <use x="55.712891" xlink:href="#DejaVuSans-51"/>
    </g>
   </g>
   <g id="text_17">
    <!-- RAM -->
    <defs>
     <path d="M 34.1875 63.1875 
L 20.796875 26.90625 
L 47.609375 26.90625 
z
M 28.609375 72.90625 
L 39.796875 72.90625 
L 67.578125 0 
L 57.328125 0 
L 50.6875 18.703125 
L 17.828125 18.703125 
L 11.1875 0 
L 0.78125 0 
z
" id="DejaVuSans-65"/>
     <path d="M 9.8125 72.90625 
L 24.515625 72.90625 
L 43.109375 23.296875 
L 61.8125 72.90625 
L 76.515625 72.90625 
L 76.515625 0 
L 66.890625 0 
L 66.890625 64.015625 
L 48.09375 14.015625 
L 38.1875 14.015625 
L 19.390625 64.015625 
L 19.390625 0 
L 9.8125 0 
z
" id="DejaVuSans-77"/>
    </defs>
    <g transform="translate(504.907504 374.80775)scale(0.2 -0.2)">
     <use xlink:href="#DejaVuSans-82"/>
     <use x="69.419922" xlink:href="#DejaVuSans-65"/>
     <use x="137.828125" xlink:href="#DejaVuSans-77"/>
    </g>
   </g>
   <g id="text_18">
    <!-- Ice Lake Zero Fill Throughput -->
    <defs>
     <path d="M 9.8125 72.90625 
L 19.671875 72.90625 
L 19.671875 0 
L 9.8125 0 
z
" id="DejaVuSans-73"/>
     <path d="M 48.78125 52.59375 
L 48.78125 44.1875 
Q 44.96875 46.296875 41.140625 47.34375 
Q 37.3125 48.390625 33.40625 48.390625 
Q 24.65625 48.390625 19.8125 42.84375 
Q 14.984375 37.3125 14.984375 27.296875 
Q 14.984375 17.28125 19.8125 11.734375 
Q 24.65625 6.203125 33.40625 6.203125 
Q 37.3125 6.203125 41.140625 7.25 
Q 44.96875 8.296875 48.78125 10.40625 
L 48.78125 2.09375 
Q 45.015625 0.34375 40.984375 -0.53125 
Q 36.96875 -1.421875 32.421875 -1.421875 
Q 20.0625 -1.421875 12.78125 6.34375 
Q 5.515625 14.109375 5.515625 27.296875 
Q 5.515625 40.671875 12.859375 48.328125 
Q 20.21875 56 33.015625 56 
Q 37.15625 56 41.109375 55.140625 
Q 45.0625 54.296875 48.78125 52.59375 
z
" id="DejaVuSans-99"/>
     <path d="M 34.28125 27.484375 
Q 23.390625 27.484375 19.1875 25 
Q 14.984375 22.515625 14.984375 16.5 
Q 14.984375 11.71875 18.140625 8.90625 
Q 21.296875 6.109375 26.703125 6.109375 
Q 34.1875 6.109375 38.703125 11.40625 
Q 43.21875 16.703125 43.21875 25.484375 
L 43.21875 27.484375 
z
M 52.203125 31.203125 
L 52.203125 0 
L 43.21875 0 
L 43.21875 8.296875 
Q 40.140625 3.328125 35.546875 0.953125 
Q 30.953125 -1.421875 24.3125 -1.421875 
Q 15.921875 -1.421875 10.953125 3.296875 
Q 6 8.015625 6 15.921875 
Q 6 25.140625 12.171875 29.828125 
Q 18.359375 34.515625 30.609375 34.515625 
L 43.21875 34.515625 
L 43.21875 35.40625 
Q 43.21875 41.609375 39.140625 45 
Q 35.0625 48.390625 27.6875 48.390625 
Q 23 48.390625 18.546875 47.265625 
Q 14.109375 46.140625 10.015625 43.890625 
L 10.015625 52.203125 
Q 14.9375 54.109375 19.578125 55.046875 
Q 24.21875 56 28.609375 56 
Q 40.484375 56 46.34375 49.84375 
Q 52.203125 43.703125 52.203125 31.203125 
z
" id="DejaVuSans-97"/>
     <path d="M 9.078125 75.984375 
L 18.109375 75.984375 
L 18.109375 31.109375 
L 44.921875 54.6875 
L 56.390625 54.6875 
L 27.390625 29.109375 
L 57.625 0 
L 45.90625 0 
L 18.109375 26.703125 
L 18.109375 0 
L 9.078125 0 
z
" id="DejaVuSans-107"/>
     <path d="M 5.609375 72.90625 
L 62.890625 72.90625 
L 62.890625 65.375 
L 16.796875 8.296875 
L 64.015625 8.296875 
L 64.015625 0 
L 4.5 0 
L 4.5 7.515625 
L 50.59375 64.59375 
L 5.609375 64.59375 
z
" id="DejaVuSans-90"/>
     <path d="M 41.109375 46.296875 
Q 39.59375 47.171875 37.8125 47.578125 
Q 36.03125 48 33.890625 48 
Q 26.265625 48 22.1875 43.046875 
Q 18.109375 38.09375 18.109375 28.8125 
L 18.109375 0 
L 9.078125 0 
L 9.078125 54.6875 
L 18.109375 54.6875 
L 18.109375 46.1875 
Q 20.953125 51.171875 25.484375 53.578125 
Q 30.03125 56 36.53125 56 
Q 37.453125 56 38.578125 55.875 
Q 39.703125 55.765625 41.0625 55.515625 
z
" id="DejaVuSans-114"/>
     <path d="M -0.296875 72.90625 
L 61.375 72.90625 
L 61.375 64.59375 
L 35.5 64.59375 
L 35.5 0 
L 25.59375 0 
L 25.59375 64.59375 
L -0.296875 64.59375 
z
" id="DejaVuSans-84"/>
     <path d="M 54.890625 33.015625 
L 54.890625 0 
L 45.90625 0 
L 45.90625 32.71875 
Q 45.90625 40.484375 42.875 44.328125 
Q 39.84375 48.1875 33.796875 48.1875 
Q 26.515625 48.1875 22.3125 43.546875 
Q 18.109375 38.921875 18.109375 30.90625 
L 18.109375 0 
L 9.078125 0 
L 9.078125 75.984375 
L 18.109375 75.984375 
L 18.109375 46.1875 
Q 21.34375 51.125 25.703125 53.5625 
Q 30.078125 56 35.796875 56 
Q 45.21875 56 50.046875 50.171875 
Q 54.890625 44.34375 54.890625 33.015625 
z
" id="DejaVuSans-104"/>
     <path d="M 8.5 21.578125 
L 8.5 54.6875 
L 17.484375 54.6875 
L 17.484375 21.921875 
Q 17.484375 14.15625 20.5 10.265625 
Q 23.53125 6.390625 29.59375 6.390625 
Q 36.859375 6.390625 41.078125 11.03125 
Q 45.3125 15.671875 45.3125 23.6875 
L 45.3125 54.6875 
L 54.296875 54.6875 
L 54.296875 0 
L 45.3125 0 
L 45.3125 8.40625 
Q 42.046875 3.421875 37.71875 1 
Q 33.40625 -1.421875 27.6875 -1.421875 
Q 18.265625 -1.421875 13.375 4.4375 
Q 8.5 10.296875 8.5 21.578125 
z
M 31.109375 56 
z
" id="DejaVuSans-117"/>
    </defs>
    <g transform="translate(235.76725 21.6)scale(0.144 -0.144)">
     <use xlink:href="#DejaVuSans-73"/>
     <use x="29.492188" xlink:href="#DejaVuSans-99"/>
     <use x="84.472656" xlink:href="#DejaVuSans-101"/>
     <use x="145.996094" xlink:href="#DejaVuSans-32"/>
     <use x="177.783203" xlink:href="#DejaVuSans-76"/>
     <use x="233.496094" xlink:href="#DejaVuSans-97"/>
     <use x="294.775391" xlink:href="#DejaVuSans-107"/>
     <use x="352.638672" xlink:href="#DejaVuSans-101"/>
     <use x="414.162109" xlink:href="#DejaVuSans-32"/>
     <use x="445.949219" xlink:href="#DejaVuSans-90"/>
     <use x="514.455078" xlink:href="#DejaVuSans-101"/>
     <use x="575.978516" xlink:href="#DejaVuSans-114"/>
     <use x="617.060547" xlink:href="#DejaVuSans-111"/>
     <use x="678.242188" xlink:href="#DejaVuSans-32"/>
     <use x="710.029297" xlink:href="#DejaVuSans-70"/>
     <use x="767.439453" xlink:href="#DejaVuSans-105"/>
     <use x="795.222656" xlink:href="#DejaVuSans-108"/>
     <use x="823.005859" xlink:href="#DejaVuSans-108"/>
     <use x="850.789062" xlink:href="#DejaVuSans-32"/>
     <use x="882.576172" xlink:href="#DejaVuSans-84"/>
     <use x="943.660156" xlink:href="#DejaVuSans-104"/>
     <use x="1007.039062" xlink:href="#DejaVuSans-114"/>
     <use x="1048.121094" xlink:href="#DejaVuSans-111"/>
     <use x="1109.302734" xlink:href="#DejaVuSans-117"/>
     <use x="1172.681641" xlink:href="#DejaVuSans-103"/>
     <use x="1236.158203" xlink:href="#DejaVuSans-104"/>
     <use x="1299.537109" xlink:href="#DejaVuSans-112"/>
     <use x="1363.013672" xlink:href="#DejaVuSans-117"/>
     <use x="1426.392578" xlink:href="#DejaVuSans-116"/>
    </g>
   </g>
   <g id="legend_1">
    <g id="patch_8">
     <path d="M 52.38 222.982125 
L 164.251875 222.982125 
Q 166.251875 222.982125 166.251875 220.982125 
L 166.251875 192.625875 
Q 166.251875 190.625875 164.251875 190.625875 
L 52.38 190.625875 
Q 50.38 190.625875 50.38 192.625875 
L 50.38 220.982125 
Q 50.38 222.982125 52.38 222.982125 
z
" style="fill:#e5e5e5;opacity:0.8;stroke:#cccccc;stroke-linejoin:miter;stroke-width:0.5;"/>
    </g>
    <g id="line2d_55"/>
    <g id="line2d_56">
     <g>
      <use style="fill:#e24a33;stroke:#e24a33;" x="64.38" xlink:href="#me7419dc977" y="198.724313"/>
     </g>
    </g>
    <g id="text_19">
     <!-- fill0 Tuesday -->
     <defs>
      <path d="M 37.109375 75.984375 
L 37.109375 68.5 
L 28.515625 68.5 
Q 23.6875 68.5 21.796875 66.546875 
Q 19.921875 64.59375 19.921875 59.515625 
L 19.921875 54.6875 
L 34.71875 54.6875 
L 34.71875 47.703125 
L 19.921875 47.703125 
L 19.921875 0 
L 10.890625 0 
L 10.890625 47.703125 
L 2.296875 47.703125 
L 2.296875 54.6875 
L 10.890625 54.6875 
L 10.890625 58.5 
Q 10.890625 67.625 15.140625 71.796875 
Q 19.390625 75.984375 28.609375 75.984375 
z
" id="DejaVuSans-102"/>
     </defs>
     <g transform="translate(82.38 202.224313)scale(0.1 -0.1)">
      <use xlink:href="#DejaVuSans-102"/>
      <use x="35.205078" xlink:href="#DejaVuSans-105"/>
      <use x="62.988281" xlink:href="#DejaVuSans-108"/>
      <use x="90.771484" xlink:href="#DejaVuSans-108"/>
      <use x="118.554688" xlink:href="#DejaVuSans-48"/>
      <use x="182.177734" xlink:href="#DejaVuSans-32"/>
      <use x="213.964844" xlink:href="#DejaVuSans-84"/>
      <use x="274.814453" xlink:href="#DejaVuSans-117"/>
      <use x="338.193359" xlink:href="#DejaVuSans-101"/>
      <use x="399.716797" xlink:href="#DejaVuSans-115"/>
      <use x="451.816406" xlink:href="#DejaVuSans-100"/>
      <use x="515.292969" xlink:href="#DejaVuSans-97"/>
      <use x="576.572266" xlink:href="#DejaVuSans-121"/>
     </g>
    </g>
    <g id="line2d_57"/>
    <g id="line2d_58">
     <g>
      <use style="fill:#348abd;stroke:#348abd;" x="64.38" xlink:href="#m0699aa549d" y="213.402438"/>
     </g>
    </g>
    <g id="text_20">
     <!-- fill0 Wednesday -->
     <defs>
      <path d="M 3.328125 72.90625 
L 13.28125 72.90625 
L 28.609375 11.28125 
L 43.890625 72.90625 
L 54.984375 72.90625 
L 70.3125 11.28125 
L 85.59375 72.90625 
L 95.609375 72.90625 
L 77.296875 0 
L 64.890625 0 
L 49.515625 63.28125 
L 33.984375 0 
L 21.578125 0 
z
" id="DejaVuSans-87"/>
     </defs>
     <g transform="translate(82.38 216.902438)scale(0.1 -0.1)">
      <use xlink:href="#DejaVuSans-102"/>
      <use x="35.205078" xlink:href="#DejaVuSans-105"/>
      <use x="62.988281" xlink:href="#DejaVuSans-108"/>
      <use x="90.771484" xlink:href="#DejaVuSans-108"/>
      <use x="118.554688" xlink:href="#DejaVuSans-48"/>
      <use x="182.177734" xlink:href="#DejaVuSans-32"/>
      <use x="213.964844" xlink:href="#DejaVuSans-87"/>
      <use x="312.763672" xlink:href="#DejaVuSans-101"/>
      <use x="374.287109" xlink:href="#DejaVuSans-100"/>
      <use x="437.763672" xlink:href="#DejaVuSans-110"/>
      <use x="501.142578" xlink:href="#DejaVuSans-101"/>
      <use x="562.666016" xlink:href="#DejaVuSans-115"/>
      <use x="614.765625" xlink:href="#DejaVuSans-100"/>
      <use x="678.242188" xlink:href="#DejaVuSans-97"/>
      <use x="739.521484" xlink:href="#DejaVuSans-121"/>
     </g>
    </g>
   </g>
  </g>
 </g>
 <defs>
  <clipPath id="p3427d98f2d">
   <rect height="358.408" width="591.82" x="45.38" y="27.6"/>
  </clipPath>
 </defs>
</svg>
