<?xml version="1.0" encoding="utf-8" standalone="no"?>
<!DOCTYPE svg PUBLIC "-//W3C//DTD SVG 1.1//EN"
  "http://www.w3.org/Graphics/SVG/1.1/DTD/svg11.dtd">
<!-- Created with matplotlib (https://matplotlib.org/) -->
<svg height="504pt" version="1.1" viewBox="0 0 720 504" width="720pt" xmlns="http://www.w3.org/2000/svg" xmlns:xlink="http://www.w3.org/1999/xlink">
 <defs>
  <style type="text/css">
*{stroke-linecap:butt;stroke-linejoin:round;}
  </style>
 </defs>
 <g id="figure_1">
  <g id="patch_1">
   <path d="M 0 504 
L 720 504 
L 720 0 
L 0 0 
z
" style="fill:#ffffff;"/>
  </g>
  <g id="axes_1">
   <g id="patch_2">
    <path d="M 47.72 462.04 
L 706.68 462.04 
L 706.68 26.88 
L 47.72 26.88 
z
" style="fill:#ffffff;"/>
   </g>
   <g id="patch_3">
    <path clip-path="url(#pb61513f813)" d="M 377.2 2420.26 
L 436.5064 2420.26 
L 436.5064 -480.806667 
L 377.2 -480.806667 
z
" style="fill:#d8bfd8;stroke:#d8bfd8;stroke-linejoin:miter;"/>
   </g>
   <g id="patch_4">
    <path clip-path="url(#pb61513f813)" d="M 436.5064 2420.26 
L 508.992 2420.26 
L 508.992 -480.806667 
L 436.5064 -480.806667 
z
" style="fill:#ffdab9;stroke:#ffdab9;stroke-linejoin:miter;"/>
   </g>
   <g id="matplotlib.axis_1">
    <g id="xtick_1">
     <g id="line2d_1">
      <path clip-path="url(#pb61513f813)" d="M 113.616 462.04 
L 113.616 26.88 
" style="fill:none;stroke:#b0b0b0;stroke-linecap:square;stroke-width:0.8;"/>
     </g>
     <g id="line2d_2">
      <defs>
       <path d="M 0 0 
L 0 3.5 
" id="mfc518bbc66" style="stroke:#000000;stroke-width:0.8;"/>
      </defs>
      <g>
       <use style="stroke:#000000;stroke-width:0.8;" x="113.616" xlink:href="#mfc518bbc66" y="462.04"/>
      </g>
     </g>
     <g id="text_1">
      <!-- 14960 -->
      <defs>
       <path d="M 12.40625 8.296875 
L 28.515625 8.296875 
L 28.515625 63.921875 
L 10.984375 60.40625 
L 10.984375 69.390625 
L 28.421875 72.90625 
L 38.28125 72.90625 
L 38.28125 8.296875 
L 54.390625 8.296875 
L 54.390625 0 
L 12.40625 0 
z
" id="DejaVuSans-49"/>
       <path d="M 37.796875 64.3125 
L 12.890625 25.390625 
L 37.796875 25.390625 
z
M 35.203125 72.90625 
L 47.609375 72.90625 
L 47.609375 25.390625 
L 58.015625 25.390625 
L 58.015625 17.1875 
L 47.609375 17.1875 
L 47.609375 0 
L 37.796875 0 
L 37.796875 17.1875 
L 4.890625 17.1875 
L 4.890625 26.703125 
z
" id="DejaVuSans-52"/>
       <path d="M 10.984375 1.515625 
L 10.984375 10.5 
Q 14.703125 8.734375 18.5 7.8125 
Q 22.3125 6.890625 25.984375 6.890625 
Q 35.75 6.890625 40.890625 13.453125 
Q 46.046875 20.015625 46.78125 33.40625 
Q 43.953125 29.203125 39.59375 26.953125 
Q 35.25 24.703125 29.984375 24.703125 
Q 19.046875 24.703125 12.671875 31.3125 
Q 6.296875 37.9375 6.296875 49.421875 
Q 6.296875 60.640625 12.9375 67.421875 
Q 19.578125 74.21875 30.609375 74.21875 
Q 43.265625 74.21875 49.921875 64.515625 
Q 56.59375 54.828125 56.59375 36.375 
Q 56.59375 19.140625 48.40625 8.859375 
Q 40.234375 -1.421875 26.421875 -1.421875 
Q 22.703125 -1.421875 18.890625 -0.6875 
Q 15.09375 0.046875 10.984375 1.515625 
z
M 30.609375 32.421875 
Q 37.25 32.421875 41.125 36.953125 
Q 45.015625 41.5 45.015625 49.421875 
Q 45.015625 57.28125 41.125 61.84375 
Q 37.25 66.40625 30.609375 66.40625 
Q 23.96875 66.40625 20.09375 61.84375 
Q 16.21875 57.28125 16.21875 49.421875 
Q 16.21875 41.5 20.09375 36.953125 
Q 23.96875 32.421875 30.609375 32.421875 
z
" id="DejaVuSans-57"/>
       <path d="M 33.015625 40.375 
Q 26.375 40.375 22.484375 35.828125 
Q 18.609375 31.296875 18.609375 23.390625 
Q 18.609375 15.53125 22.484375 10.953125 
Q 26.375 6.390625 33.015625 6.390625 
Q 39.65625 6.390625 43.53125 10.953125 
Q 47.40625 15.53125 47.40625 23.390625 
Q 47.40625 31.296875 43.53125 35.828125 
Q 39.65625 40.375 33.015625 40.375 
z
M 52.59375 71.296875 
L 52.59375 62.3125 
Q 48.875 64.0625 45.09375 64.984375 
Q 41.3125 65.921875 37.59375 65.921875 
Q 27.828125 65.921875 22.671875 59.328125 
Q 17.53125 52.734375 16.796875 39.40625 
Q 19.671875 43.65625 24.015625 45.921875 
Q 28.375 48.1875 33.59375 48.1875 
Q 44.578125 48.1875 50.953125 41.515625 
Q 57.328125 34.859375 57.328125 23.390625 
Q 57.328125 12.15625 50.6875 5.359375 
Q 44.046875 -1.421875 33.015625 -1.421875 
Q 20.359375 -1.421875 13.671875 8.265625 
Q 6.984375 17.96875 6.984375 36.375 
Q 6.984375 53.65625 15.1875 63.9375 
Q 23.390625 74.21875 37.203125 74.21875 
Q 40.921875 74.21875 44.703125 73.484375 
Q 48.484375 72.75 52.59375 71.296875 
z
" id="DejaVuSans-54"/>
       <path d="M 31.78125 66.40625 
Q 24.171875 66.40625 20.328125 58.90625 
Q 16.5 51.421875 16.5 36.375 
Q 16.5 21.390625 20.328125 13.890625 
Q 24.171875 6.390625 31.78125 6.390625 
Q 39.453125 6.390625 43.28125 13.890625 
Q 47.125 21.390625 47.125 36.375 
Q 47.125 51.421875 43.28125 58.90625 
Q 39.453125 66.40625 31.78125 66.40625 
z
M 31.78125 74.21875 
Q 44.046875 74.21875 50.515625 64.515625 
Q 56.984375 54.828125 56.984375 36.375 
Q 56.984375 17.96875 50.515625 8.265625 
Q 44.046875 -1.421875 31.78125 -1.421875 
Q 19.53125 -1.421875 13.0625 8.265625 
Q 6.59375 17.96875 6.59375 36.375 
Q 6.59375 54.828125 13.0625 64.515625 
Q 19.53125 74.21875 31.78125 74.21875 
z
" id="DejaVuSans-48"/>
      </defs>
      <g transform="translate(97.70975 476.638438)scale(0.1 -0.1)">
       <use xlink:href="#DejaVuSans-49"/>
       <use x="63.623047" xlink:href="#DejaVuSans-52"/>
       <use x="127.246094" xlink:href="#DejaVuSans-57"/>
       <use x="190.869141" xlink:href="#DejaVuSans-54"/>
       <use x="254.492188" xlink:href="#DejaVuSans-48"/>
      </g>
     </g>
    </g>
    <g id="xtick_2">
     <g id="line2d_3">
      <path clip-path="url(#pb61513f813)" d="M 245.408 462.04 
L 245.408 26.88 
" style="fill:none;stroke:#b0b0b0;stroke-linecap:square;stroke-width:0.8;"/>
     </g>
     <g id="line2d_4">
      <g>
       <use style="stroke:#000000;stroke-width:0.8;" x="245.408" xlink:href="#mfc518bbc66" y="462.04"/>
      </g>
     </g>
     <g id="text_2">
      <!-- 14980 -->
      <defs>
       <path d="M 31.78125 34.625 
Q 24.75 34.625 20.71875 30.859375 
Q 16.703125 27.09375 16.703125 20.515625 
Q 16.703125 13.921875 20.71875 10.15625 
Q 24.75 6.390625 31.78125 6.390625 
Q 38.8125 6.390625 42.859375 10.171875 
Q 46.921875 13.96875 46.921875 20.515625 
Q 46.921875 27.09375 42.890625 30.859375 
Q 38.875 34.625 31.78125 34.625 
z
M 21.921875 38.8125 
Q 15.578125 40.375 12.03125 44.71875 
Q 8.5 49.078125 8.5 55.328125 
Q 8.5 64.0625 14.71875 69.140625 
Q 20.953125 74.21875 31.78125 74.21875 
Q 42.671875 74.21875 48.875 69.140625 
Q 55.078125 64.0625 55.078125 55.328125 
Q 55.078125 49.078125 51.53125 44.71875 
Q 48 40.375 41.703125 38.8125 
Q 48.828125 37.15625 52.796875 32.3125 
Q 56.78125 27.484375 56.78125 20.515625 
Q 56.78125 9.90625 50.3125 4.234375 
Q 43.84375 -1.421875 31.78125 -1.421875 
Q 19.734375 -1.421875 13.25 4.234375 
Q 6.78125 9.90625 6.78125 20.515625 
Q 6.78125 27.484375 10.78125 32.3125 
Q 14.796875 37.15625 21.921875 38.8125 
z
M 18.3125 54.390625 
Q 18.3125 48.734375 21.84375 45.5625 
Q 25.390625 42.390625 31.78125 42.390625 
Q 38.140625 42.390625 41.71875 45.5625 
Q 45.3125 48.734375 45.3125 54.390625 
Q 45.3125 60.0625 41.71875 63.234375 
Q 38.140625 66.40625 31.78125 66.40625 
Q 25.390625 66.40625 21.84375 63.234375 
Q 18.3125 60.0625 18.3125 54.390625 
z
" id="DejaVuSans-56"/>
      </defs>
      <g transform="translate(229.50175 476.638438)scale(0.1 -0.1)">
       <use xlink:href="#DejaVuSans-49"/>
       <use x="63.623047" xlink:href="#DejaVuSans-52"/>
       <use x="127.246094" xlink:href="#DejaVuSans-57"/>
       <use x="190.869141" xlink:href="#DejaVuSans-56"/>
       <use x="254.492188" xlink:href="#DejaVuSans-48"/>
      </g>
     </g>
    </g>
    <g id="xtick_3">
     <g id="line2d_5">
      <path clip-path="url(#pb61513f813)" d="M 377.2 462.04 
L 377.2 26.88 
" style="fill:none;stroke:#b0b0b0;stroke-linecap:square;stroke-width:0.8;"/>
     </g>
     <g id="line2d_6">
      <g>
       <use style="stroke:#000000;stroke-width:0.8;" x="377.2" xlink:href="#mfc518bbc66" y="462.04"/>
      </g>
     </g>
     <g id="text_3">
      <!-- 15000 -->
      <defs>
       <path d="M 10.796875 72.90625 
L 49.515625 72.90625 
L 49.515625 64.59375 
L 19.828125 64.59375 
L 19.828125 46.734375 
Q 21.96875 47.46875 24.109375 47.828125 
Q 26.265625 48.1875 28.421875 48.1875 
Q 40.625 48.1875 47.75 41.5 
Q 54.890625 34.8125 54.890625 23.390625 
Q 54.890625 11.625 47.5625 5.09375 
Q 40.234375 -1.421875 26.90625 -1.421875 
Q 22.3125 -1.421875 17.546875 -0.640625 
Q 12.796875 0.140625 7.71875 1.703125 
L 7.71875 11.625 
Q 12.109375 9.234375 16.796875 8.0625 
Q 21.484375 6.890625 26.703125 6.890625 
Q 35.15625 6.890625 40.078125 11.328125 
Q 45.015625 15.765625 45.015625 23.390625 
Q 45.015625 31 40.078125 35.4375 
Q 35.15625 39.890625 26.703125 39.890625 
Q 22.75 39.890625 18.8125 39.015625 
Q 14.890625 38.140625 10.796875 36.28125 
z
" id="DejaVuSans-53"/>
      </defs>
      <g transform="translate(361.29375 476.638438)scale(0.1 -0.1)">
       <use xlink:href="#DejaVuSans-49"/>
       <use x="63.623047" xlink:href="#DejaVuSans-53"/>
       <use x="127.246094" xlink:href="#DejaVuSans-48"/>
       <use x="190.869141" xlink:href="#DejaVuSans-48"/>
       <use x="254.492188" xlink:href="#DejaVuSans-48"/>
      </g>
     </g>
    </g>
    <g id="xtick_4">
     <g id="line2d_7">
      <path clip-path="url(#pb61513f813)" d="M 508.992 462.04 
L 508.992 26.88 
" style="fill:none;stroke:#b0b0b0;stroke-linecap:square;stroke-width:0.8;"/>
     </g>
     <g id="line2d_8">
      <g>
       <use style="stroke:#000000;stroke-width:0.8;" x="508.992" xlink:href="#mfc518bbc66" y="462.04"/>
      </g>
     </g>
     <g id="text_4">
      <!-- 15020 -->
      <defs>
       <path d="M 19.1875 8.296875 
L 53.609375 8.296875 
L 53.609375 0 
L 7.328125 0 
L 7.328125 8.296875 
Q 12.9375 14.109375 22.625 23.890625 
Q 32.328125 33.6875 34.8125 36.53125 
Q 39.546875 41.84375 41.421875 45.53125 
Q 43.3125 49.21875 43.3125 52.78125 
Q 43.3125 58.59375 39.234375 62.25 
Q 35.15625 65.921875 28.609375 65.921875 
Q 23.96875 65.921875 18.8125 64.3125 
Q 13.671875 62.703125 7.8125 59.421875 
L 7.8125 69.390625 
Q 13.765625 71.78125 18.9375 73 
Q 24.125 74.21875 28.421875 74.21875 
Q 39.75 74.21875 46.484375 68.546875 
Q 53.21875 62.890625 53.21875 53.421875 
Q 53.21875 48.921875 51.53125 44.890625 
Q 49.859375 40.875 45.40625 35.40625 
Q 44.1875 33.984375 37.640625 27.21875 
Q 31.109375 20.453125 19.1875 8.296875 
z
" id="DejaVuSans-50"/>
      </defs>
      <g transform="translate(493.08575 476.638438)scale(0.1 -0.1)">
       <use xlink:href="#DejaVuSans-49"/>
       <use x="63.623047" xlink:href="#DejaVuSans-53"/>
       <use x="127.246094" xlink:href="#DejaVuSans-48"/>
       <use x="190.869141" xlink:href="#DejaVuSans-50"/>
       <use x="254.492188" xlink:href="#DejaVuSans-48"/>
      </g>
     </g>
    </g>
    <g id="xtick_5">
     <g id="line2d_9">
      <path clip-path="url(#pb61513f813)" d="M 640.784 462.04 
L 640.784 26.88 
" style="fill:none;stroke:#b0b0b0;stroke-linecap:square;stroke-width:0.8;"/>
     </g>
     <g id="line2d_10">
      <g>
       <use style="stroke:#000000;stroke-width:0.8;" x="640.784" xlink:href="#mfc518bbc66" y="462.04"/>
      </g>
     </g>
     <g id="text_5">
      <!-- 15040 -->
      <g transform="translate(624.87775 476.638438)scale(0.1 -0.1)">
       <use xlink:href="#DejaVuSans-49"/>
       <use x="63.623047" xlink:href="#DejaVuSans-53"/>
       <use x="127.246094" xlink:href="#DejaVuSans-48"/>
       <use x="190.869141" xlink:href="#DejaVuSans-52"/>
       <use x="254.492188" xlink:href="#DejaVuSans-48"/>
      </g>
     </g>
    </g>
    <g id="text_6">
     <!-- Time (us) -->
     <defs>
      <path d="M -0.296875 72.90625 
L 61.375 72.90625 
L 61.375 64.59375 
L 35.5 64.59375 
L 35.5 0 
L 25.59375 0 
L 25.59375 64.59375 
L -0.296875 64.59375 
z
" id="DejaVuSans-84"/>
      <path d="M 9.421875 54.6875 
L 18.40625 54.6875 
L 18.40625 0 
L 9.421875 0 
z
M 9.421875 75.984375 
L 18.40625 75.984375 
L 18.40625 64.59375 
L 9.421875 64.59375 
z
" id="DejaVuSans-105"/>
      <path d="M 52 44.1875 
Q 55.375 50.25 60.0625 53.125 
Q 64.75 56 71.09375 56 
Q 79.640625 56 84.28125 50.015625 
Q 88.921875 44.046875 88.921875 33.015625 
L 88.921875 0 
L 79.890625 0 
L 79.890625 32.71875 
Q 79.890625 40.578125 77.09375 44.375 
Q 74.3125 48.1875 68.609375 48.1875 
Q 61.625 48.1875 57.5625 43.546875 
Q 53.515625 38.921875 53.515625 30.90625 
L 53.515625 0 
L 44.484375 0 
L 44.484375 32.71875 
Q 44.484375 40.625 41.703125 44.40625 
Q 38.921875 48.1875 33.109375 48.1875 
Q 26.21875 48.1875 22.15625 43.53125 
Q 18.109375 38.875 18.109375 30.90625 
L 18.109375 0 
L 9.078125 0 
L 9.078125 54.6875 
L 18.109375 54.6875 
L 18.109375 46.1875 
Q 21.1875 51.21875 25.484375 53.609375 
Q 29.78125 56 35.6875 56 
Q 41.65625 56 45.828125 52.96875 
Q 50 49.953125 52 44.1875 
z
" id="DejaVuSans-109"/>
      <path d="M 56.203125 29.59375 
L 56.203125 25.203125 
L 14.890625 25.203125 
Q 15.484375 15.921875 20.484375 11.0625 
Q 25.484375 6.203125 34.421875 6.203125 
Q 39.59375 6.203125 44.453125 7.46875 
Q 49.3125 8.734375 54.109375 11.28125 
L 54.109375 2.78125 
Q 49.265625 0.734375 44.1875 -0.34375 
Q 39.109375 -1.421875 33.890625 -1.421875 
Q 20.796875 -1.421875 13.15625 6.1875 
Q 5.515625 13.8125 5.515625 26.8125 
Q 5.515625 40.234375 12.765625 48.109375 
Q 20.015625 56 32.328125 56 
Q 43.359375 56 49.78125 48.890625 
Q 56.203125 41.796875 56.203125 29.59375 
z
M 47.21875 32.234375 
Q 47.125 39.59375 43.09375 43.984375 
Q 39.0625 48.390625 32.421875 48.390625 
Q 24.90625 48.390625 20.390625 44.140625 
Q 15.875 39.890625 15.1875 32.171875 
z
" id="DejaVuSans-101"/>
      <path id="DejaVuSans-32"/>
      <path d="M 31 75.875 
Q 24.46875 64.65625 21.28125 53.65625 
Q 18.109375 42.671875 18.109375 31.390625 
Q 18.109375 20.125 21.3125 9.0625 
Q 24.515625 -2 31 -13.1875 
L 23.1875 -13.1875 
Q 15.875 -1.703125 12.234375 9.375 
Q 8.59375 20.453125 8.59375 31.390625 
Q 8.59375 42.28125 12.203125 53.3125 
Q 15.828125 64.359375 23.1875 75.875 
z
" id="DejaVuSans-40"/>
      <path d="M 8.5 21.578125 
L 8.5 54.6875 
L 17.484375 54.6875 
L 17.484375 21.921875 
Q 17.484375 14.15625 20.5 10.265625 
Q 23.53125 6.390625 29.59375 6.390625 
Q 36.859375 6.390625 41.078125 11.03125 
Q 45.3125 15.671875 45.3125 23.6875 
L 45.3125 54.6875 
L 54.296875 54.6875 
L 54.296875 0 
L 45.3125 0 
L 45.3125 8.40625 
Q 42.046875 3.421875 37.71875 1 
Q 33.40625 -1.421875 27.6875 -1.421875 
Q 18.265625 -1.421875 13.375 4.4375 
Q 8.5 10.296875 8.5 21.578125 
z
M 31.109375 56 
z
" id="DejaVuSans-117"/>
      <path d="M 44.28125 53.078125 
L 44.28125 44.578125 
Q 40.484375 46.53125 36.375 47.5 
Q 32.28125 48.484375 27.875 48.484375 
Q 21.1875 48.484375 17.84375 46.4375 
Q 14.5 44.390625 14.5 40.28125 
Q 14.5 37.15625 16.890625 35.375 
Q 19.28125 33.59375 26.515625 31.984375 
L 29.59375 31.296875 
Q 39.15625 29.25 43.1875 25.515625 
Q 47.21875 21.78125 47.21875 15.09375 
Q 47.21875 7.46875 41.1875 3.015625 
Q 35.15625 -1.421875 24.609375 -1.421875 
Q 20.21875 -1.421875 15.453125 -0.5625 
Q 10.6875 0.296875 5.421875 2 
L 5.421875 11.28125 
Q 10.40625 8.6875 15.234375 7.390625 
Q 20.0625 6.109375 24.8125 6.109375 
Q 31.15625 6.109375 34.5625 8.28125 
Q 37.984375 10.453125 37.984375 14.40625 
Q 37.984375 18.0625 35.515625 20.015625 
Q 33.0625 21.96875 24.703125 23.78125 
L 21.578125 24.515625 
Q 13.234375 26.265625 9.515625 29.90625 
Q 5.8125 33.546875 5.8125 39.890625 
Q 5.8125 47.609375 11.28125 51.796875 
Q 16.75 56 26.8125 56 
Q 31.78125 56 36.171875 55.265625 
Q 40.578125 54.546875 44.28125 53.078125 
z
" id="DejaVuSans-115"/>
      <path d="M 8.015625 75.875 
L 15.828125 75.875 
Q 23.140625 64.359375 26.78125 53.3125 
Q 30.421875 42.28125 30.421875 31.390625 
Q 30.421875 20.453125 26.78125 9.375 
Q 23.140625 -1.703125 15.828125 -13.1875 
L 8.015625 -13.1875 
Q 14.5 -2 17.703125 9.0625 
Q 20.90625 20.125 20.90625 31.390625 
Q 20.90625 42.671875 17.703125 53.65625 
Q 14.5 64.65625 8.015625 75.875 
z
" id="DejaVuSans-41"/>
     </defs>
     <g transform="translate(353.548438 490.316563)scale(0.1 -0.1)">
      <use xlink:href="#DejaVuSans-84"/>
      <use x="61.037109" xlink:href="#DejaVuSans-105"/>
      <use x="88.820312" xlink:href="#DejaVuSans-109"/>
      <use x="186.232422" xlink:href="#DejaVuSans-101"/>
      <use x="247.755859" xlink:href="#DejaVuSans-32"/>
      <use x="279.542969" xlink:href="#DejaVuSans-40"/>
      <use x="318.556641" xlink:href="#DejaVuSans-117"/>
      <use x="381.935547" xlink:href="#DejaVuSans-115"/>
      <use x="434.035156" xlink:href="#DejaVuSans-41"/>
     </g>
    </g>
   </g>
   <g id="matplotlib.axis_2">
    <g id="ytick_1">
     <g id="line2d_11">
      <path clip-path="url(#pb61513f813)" d="M 47.72 462.04 
L 706.68 462.04 
" style="fill:none;stroke:#b0b0b0;stroke-linecap:square;stroke-width:0.8;"/>
     </g>
     <g id="line2d_12">
      <defs>
       <path d="M 0 0 
L -3.5 0 
" id="m3a24eacd0e" style="stroke:#000000;stroke-width:0.8;"/>
      </defs>
      <g>
       <use style="stroke:#000000;stroke-width:0.8;" x="47.72" xlink:href="#m3a24eacd0e" y="462.04"/>
      </g>
     </g>
     <g id="text_7">
      <!-- 2.7 -->
      <defs>
       <path d="M 10.6875 12.40625 
L 21 12.40625 
L 21 0 
L 10.6875 0 
z
" id="DejaVuSans-46"/>
       <path d="M 8.203125 72.90625 
L 55.078125 72.90625 
L 55.078125 68.703125 
L 28.609375 0 
L 18.3125 0 
L 43.21875 64.59375 
L 8.203125 64.59375 
z
" id="DejaVuSans-55"/>
      </defs>
      <g transform="translate(24.816875 465.839219)scale(0.1 -0.1)">
       <use xlink:href="#DejaVuSans-50"/>
       <use x="63.623047" xlink:href="#DejaVuSans-46"/>
       <use x="95.410156" xlink:href="#DejaVuSans-55"/>
      </g>
     </g>
    </g>
    <g id="ytick_2">
     <g id="line2d_13">
      <path clip-path="url(#pb61513f813)" d="M 47.72 389.513333 
L 706.68 389.513333 
" style="fill:none;stroke:#b0b0b0;stroke-linecap:square;stroke-width:0.8;"/>
     </g>
     <g id="line2d_14">
      <g>
       <use style="stroke:#000000;stroke-width:0.8;" x="47.72" xlink:href="#m3a24eacd0e" y="389.513333"/>
      </g>
     </g>
     <g id="text_8">
      <!-- 2.8 -->
      <g transform="translate(24.816875 393.312552)scale(0.1 -0.1)">
       <use xlink:href="#DejaVuSans-50"/>
       <use x="63.623047" xlink:href="#DejaVuSans-46"/>
       <use x="95.410156" xlink:href="#DejaVuSans-56"/>
      </g>
     </g>
    </g>
    <g id="ytick_3">
     <g id="line2d_15">
      <path clip-path="url(#pb61513f813)" d="M 47.72 316.986667 
L 706.68 316.986667 
" style="fill:none;stroke:#b0b0b0;stroke-linecap:square;stroke-width:0.8;"/>
     </g>
     <g id="line2d_16">
      <g>
       <use style="stroke:#000000;stroke-width:0.8;" x="47.72" xlink:href="#m3a24eacd0e" y="316.986667"/>
      </g>
     </g>
     <g id="text_9">
      <!-- 2.9 -->
      <g transform="translate(24.816875 320.785885)scale(0.1 -0.1)">
       <use xlink:href="#DejaVuSans-50"/>
       <use x="63.623047" xlink:href="#DejaVuSans-46"/>
       <use x="95.410156" xlink:href="#DejaVuSans-57"/>
      </g>
     </g>
    </g>
    <g id="ytick_4">
     <g id="line2d_17">
      <path clip-path="url(#pb61513f813)" d="M 47.72 244.46 
L 706.68 244.46 
" style="fill:none;stroke:#b0b0b0;stroke-linecap:square;stroke-width:0.8;"/>
     </g>
     <g id="line2d_18">
      <g>
       <use style="stroke:#000000;stroke-width:0.8;" x="47.72" xlink:href="#m3a24eacd0e" y="244.46"/>
      </g>
     </g>
     <g id="text_10">
      <!-- 3.0 -->
      <defs>
       <path d="M 40.578125 39.3125 
Q 47.65625 37.796875 51.625 33 
Q 55.609375 28.21875 55.609375 21.1875 
Q 55.609375 10.40625 48.1875 4.484375 
Q 40.765625 -1.421875 27.09375 -1.421875 
Q 22.515625 -1.421875 17.65625 -0.515625 
Q 12.796875 0.390625 7.625 2.203125 
L 7.625 11.71875 
Q 11.71875 9.328125 16.59375 8.109375 
Q 21.484375 6.890625 26.8125 6.890625 
Q 36.078125 6.890625 40.9375 10.546875 
Q 45.796875 14.203125 45.796875 21.1875 
Q 45.796875 27.640625 41.28125 31.265625 
Q 36.765625 34.90625 28.71875 34.90625 
L 20.21875 34.90625 
L 20.21875 43.015625 
L 29.109375 43.015625 
Q 36.375 43.015625 40.234375 45.921875 
Q 44.09375 48.828125 44.09375 54.296875 
Q 44.09375 59.90625 40.109375 62.90625 
Q 36.140625 65.921875 28.71875 65.921875 
Q 24.65625 65.921875 20.015625 65.03125 
Q 15.375 64.15625 9.8125 62.3125 
L 9.8125 71.09375 
Q 15.4375 72.65625 20.34375 73.4375 
Q 25.25 74.21875 29.59375 74.21875 
Q 40.828125 74.21875 47.359375 69.109375 
Q 53.90625 64.015625 53.90625 55.328125 
Q 53.90625 49.265625 50.4375 45.09375 
Q 46.96875 40.921875 40.578125 39.3125 
z
" id="DejaVuSans-51"/>
      </defs>
      <g transform="translate(24.816875 248.259219)scale(0.1 -0.1)">
       <use xlink:href="#DejaVuSans-51"/>
       <use x="63.623047" xlink:href="#DejaVuSans-46"/>
       <use x="95.410156" xlink:href="#DejaVuSans-48"/>
      </g>
     </g>
    </g>
    <g id="ytick_5">
     <g id="line2d_19">
      <path clip-path="url(#pb61513f813)" d="M 47.72 171.933333 
L 706.68 171.933333 
" style="fill:none;stroke:#b0b0b0;stroke-linecap:square;stroke-width:0.8;"/>
     </g>
     <g id="line2d_20">
      <g>
       <use style="stroke:#000000;stroke-width:0.8;" x="47.72" xlink:href="#m3a24eacd0e" y="171.933333"/>
      </g>
     </g>
     <g id="text_11">
      <!-- 3.1 -->
      <g transform="translate(24.816875 175.732552)scale(0.1 -0.1)">
       <use xlink:href="#DejaVuSans-51"/>
       <use x="63.623047" xlink:href="#DejaVuSans-46"/>
       <use x="95.410156" xlink:href="#DejaVuSans-49"/>
      </g>
     </g>
    </g>
    <g id="ytick_6">
     <g id="line2d_21">
      <path clip-path="url(#pb61513f813)" d="M 47.72 99.406667 
L 706.68 99.406667 
" style="fill:none;stroke:#b0b0b0;stroke-linecap:square;stroke-width:0.8;"/>
     </g>
     <g id="line2d_22">
      <g>
       <use style="stroke:#000000;stroke-width:0.8;" x="47.72" xlink:href="#m3a24eacd0e" y="99.406667"/>
      </g>
     </g>
     <g id="text_12">
      <!-- 3.2 -->
      <g transform="translate(24.816875 103.205885)scale(0.1 -0.1)">
       <use xlink:href="#DejaVuSans-51"/>
       <use x="63.623047" xlink:href="#DejaVuSans-46"/>
       <use x="95.410156" xlink:href="#DejaVuSans-50"/>
      </g>
     </g>
    </g>
    <g id="ytick_7">
     <g id="line2d_23">
      <path clip-path="url(#pb61513f813)" d="M 47.72 26.88 
L 706.68 26.88 
" style="fill:none;stroke:#b0b0b0;stroke-linecap:square;stroke-width:0.8;"/>
     </g>
     <g id="line2d_24">
      <g>
       <use style="stroke:#000000;stroke-width:0.8;" x="47.72" xlink:href="#m3a24eacd0e" y="26.88"/>
      </g>
     </g>
     <g id="text_13">
      <!-- 3.3 -->
      <g transform="translate(24.816875 30.679219)scale(0.1 -0.1)">
       <use xlink:href="#DejaVuSans-51"/>
       <use x="63.623047" xlink:href="#DejaVuSans-46"/>
       <use x="95.410156" xlink:href="#DejaVuSans-51"/>
      </g>
     </g>
    </g>
    <g id="text_14">
     <!-- Frequency (GHz) -->
     <defs>
      <path d="M 9.8125 72.90625 
L 51.703125 72.90625 
L 51.703125 64.59375 
L 19.671875 64.59375 
L 19.671875 43.109375 
L 48.578125 43.109375 
L 48.578125 34.8125 
L 19.671875 34.8125 
L 19.671875 0 
L 9.8125 0 
z
" id="DejaVuSans-70"/>
      <path d="M 41.109375 46.296875 
Q 39.59375 47.171875 37.8125 47.578125 
Q 36.03125 48 33.890625 48 
Q 26.265625 48 22.1875 43.046875 
Q 18.109375 38.09375 18.109375 28.8125 
L 18.109375 0 
L 9.078125 0 
L 9.078125 54.6875 
L 18.109375 54.6875 
L 18.109375 46.1875 
Q 20.953125 51.171875 25.484375 53.578125 
Q 30.03125 56 36.53125 56 
Q 37.453125 56 38.578125 55.875 
Q 39.703125 55.765625 41.0625 55.515625 
z
" id="DejaVuSans-114"/>
      <path d="M 14.796875 27.296875 
Q 14.796875 17.390625 18.875 11.75 
Q 22.953125 6.109375 30.078125 6.109375 
Q 37.203125 6.109375 41.296875 11.75 
Q 45.40625 17.390625 45.40625 27.296875 
Q 45.40625 37.203125 41.296875 42.84375 
Q 37.203125 48.484375 30.078125 48.484375 
Q 22.953125 48.484375 18.875 42.84375 
Q 14.796875 37.203125 14.796875 27.296875 
z
M 45.40625 8.203125 
Q 42.578125 3.328125 38.25 0.953125 
Q 33.9375 -1.421875 27.875 -1.421875 
Q 17.96875 -1.421875 11.734375 6.484375 
Q 5.515625 14.40625 5.515625 27.296875 
Q 5.515625 40.1875 11.734375 48.09375 
Q 17.96875 56 27.875 56 
Q 33.9375 56 38.25 53.625 
Q 42.578125 51.265625 45.40625 46.390625 
L 45.40625 54.6875 
L 54.390625 54.6875 
L 54.390625 -20.796875 
L 45.40625 -20.796875 
z
" id="DejaVuSans-113"/>
      <path d="M 54.890625 33.015625 
L 54.890625 0 
L 45.90625 0 
L 45.90625 32.71875 
Q 45.90625 40.484375 42.875 44.328125 
Q 39.84375 48.1875 33.796875 48.1875 
Q 26.515625 48.1875 22.3125 43.546875 
Q 18.109375 38.921875 18.109375 30.90625 
L 18.109375 0 
L 9.078125 0 
L 9.078125 54.6875 
L 18.109375 54.6875 
L 18.109375 46.1875 
Q 21.34375 51.125 25.703125 53.5625 
Q 30.078125 56 35.796875 56 
Q 45.21875 56 50.046875 50.171875 
Q 54.890625 44.34375 54.890625 33.015625 
z
" id="DejaVuSans-110"/>
      <path d="M 48.78125 52.59375 
L 48.78125 44.1875 
Q 44.96875 46.296875 41.140625 47.34375 
Q 37.3125 48.390625 33.40625 48.390625 
Q 24.65625 48.390625 19.8125 42.84375 
Q 14.984375 37.3125 14.984375 27.296875 
Q 14.984375 17.28125 19.8125 11.734375 
Q 24.65625 6.203125 33.40625 6.203125 
Q 37.3125 6.203125 41.140625 7.25 
Q 44.96875 8.296875 48.78125 10.40625 
L 48.78125 2.09375 
Q 45.015625 0.34375 40.984375 -0.53125 
Q 36.96875 -1.421875 32.421875 -1.421875 
Q 20.0625 -1.421875 12.78125 6.34375 
Q 5.515625 14.109375 5.515625 27.296875 
Q 5.515625 40.671875 12.859375 48.328125 
Q 20.21875 56 33.015625 56 
Q 37.15625 56 41.109375 55.140625 
Q 45.0625 54.296875 48.78125 52.59375 
z
" id="DejaVuSans-99"/>
      <path d="M 32.171875 -5.078125 
Q 28.375 -14.84375 24.75 -17.8125 
Q 21.140625 -20.796875 15.09375 -20.796875 
L 7.90625 -20.796875 
L 7.90625 -13.28125 
L 13.1875 -13.28125 
Q 16.890625 -13.28125 18.9375 -11.515625 
Q 21 -9.765625 23.484375 -3.21875 
L 25.09375 0.875 
L 2.984375 54.6875 
L 12.5 54.6875 
L 29.59375 11.921875 
L 46.6875 54.6875 
L 56.203125 54.6875 
z
" id="DejaVuSans-121"/>
      <path d="M 59.515625 10.40625 
L 59.515625 29.984375 
L 43.40625 29.984375 
L 43.40625 38.09375 
L 69.28125 38.09375 
L 69.28125 6.78125 
Q 63.578125 2.734375 56.6875 0.65625 
Q 49.8125 -1.421875 42 -1.421875 
Q 24.90625 -1.421875 15.25 8.5625 
Q 5.609375 18.5625 5.609375 36.375 
Q 5.609375 54.25 15.25 64.234375 
Q 24.90625 74.21875 42 74.21875 
Q 49.125 74.21875 55.546875 72.453125 
Q 61.96875 70.703125 67.390625 67.28125 
L 67.390625 56.78125 
Q 61.921875 61.421875 55.765625 63.765625 
Q 49.609375 66.109375 42.828125 66.109375 
Q 29.4375 66.109375 22.71875 58.640625 
Q 16.015625 51.171875 16.015625 36.375 
Q 16.015625 21.625 22.71875 14.15625 
Q 29.4375 6.6875 42.828125 6.6875 
Q 48.046875 6.6875 52.140625 7.59375 
Q 56.25 8.5 59.515625 10.40625 
z
" id="DejaVuSans-71"/>
      <path d="M 9.8125 72.90625 
L 19.671875 72.90625 
L 19.671875 43.015625 
L 55.515625 43.015625 
L 55.515625 72.90625 
L 65.375 72.90625 
L 65.375 0 
L 55.515625 0 
L 55.515625 34.71875 
L 19.671875 34.71875 
L 19.671875 0 
L 9.8125 0 
z
" id="DejaVuSans-72"/>
      <path d="M 5.515625 54.6875 
L 48.1875 54.6875 
L 48.1875 46.484375 
L 14.40625 7.171875 
L 48.1875 7.171875 
L 48.1875 0 
L 4.296875 0 
L 4.296875 8.203125 
L 38.09375 47.515625 
L 5.515625 47.515625 
z
" id="DejaVuSans-122"/>
     </defs>
     <g transform="translate(18.737188 286.506875)rotate(-90)scale(0.1 -0.1)">
      <use xlink:href="#DejaVuSans-70"/>
      <use x="57.410156" xlink:href="#DejaVuSans-114"/>
      <use x="98.492188" xlink:href="#DejaVuSans-101"/>
      <use x="160.015625" xlink:href="#DejaVuSans-113"/>
      <use x="223.492188" xlink:href="#DejaVuSans-117"/>
      <use x="286.871094" xlink:href="#DejaVuSans-101"/>
      <use x="348.394531" xlink:href="#DejaVuSans-110"/>
      <use x="411.773438" xlink:href="#DejaVuSans-99"/>
      <use x="466.753906" xlink:href="#DejaVuSans-121"/>
      <use x="525.933594" xlink:href="#DejaVuSans-32"/>
      <use x="557.720703" xlink:href="#DejaVuSans-40"/>
      <use x="596.734375" xlink:href="#DejaVuSans-71"/>
      <use x="674.224609" xlink:href="#DejaVuSans-72"/>
      <use x="749.419922" xlink:href="#DejaVuSans-122"/>
      <use x="801.910156" xlink:href="#DejaVuSans-41"/>
     </g>
    </g>
   </g>
   <g id="line2d_25">
    <path clip-path="url(#pb61513f813)" d="M 41.156758 104.483533 
L 47.752948 108.82833 
L 54.355727 108.82833 
L 60.8992 107.398322 
L 67.508569 110.272975 
L 74.111348 109.554953 
L 80.720717 108.108053 
L 87.2576 108.858001 
L 93.85379 111.715813 
L 100.456569 104.483533 
L 107.052758 110.272975 
L 113.648948 105.93361 
L 120.245138 104.483533 
L 126.841327 104.483533 
L 133.424338 107.380517 
L 140.013938 103.031636 
L 146.603538 101.577919 
L 153.193138 101.577919 
L 159.769558 103.031636 
L 166.352569 100.122374 
L 172.92899 100.846263 
L 179.551538 100.163548 
L 186.127958 98.665002 
L 192.69779 102.302272 
L 199.326927 101.605044 
L 205.909938 99.388433 
L 212.486358 101.577919 
L 219.069369 105.93361 
L 225.658969 103.031636 
L 232.248569 103.031636 
L 238.838169 104.483533 
L 245.427769 108.82833 
L 252.023958 105.93361 
L 258.620148 107.38188 
L 265.222927 107.38188 
L 271.77299 108.855702 
L 278.375769 108.82833 
L 284.978548 110.272975 
L 291.5352 107.398322 
L 298.144569 110.272975 
L 304.740758 110.272975 
L 311.343538 105.2088 
L 317.933138 109.554953 
L 324.522738 106.659333 
L 331.118927 104.483533 
L 337.715117 104.483533 
L 344.291538 107.38188 
L 350.881138 103.031636 
L 357.470738 101.577919 
L 364.053748 101.577919 
L 370.636758 103.031636 
L 377.219769 100.122374 
L 383.809369 103.037083 
L 390.38579 97.205794 
L 397.021517 100.163548 
L 403.591348 101.577919 
L 410.167769 101.577919 
L 416.757369 98.665002 
L 423.33379 103.031636 
L 429.92339 104.483533 
L 436.5064 103.756446 
L 449.83679 505 
M 502.93887 505 
L 502.962516 415.2603 
L 503.423788 407.625396 
L 503.87847 380.055058 
L 504.333153 425.59535 
L 504.794425 383.872369 
L 505.242518 403.593174 
L 505.70379 412.516478 
L 506.165062 376.340924 
L 506.626334 394.5902 
L 509.044717 391.667158 
L 515.5816 399.878206 
L 522.17779 396.766 
L 528.76739 397.849817 
L 535.35699 396.040733 
L 541.94659 393.139667 
L 548.549369 392.774756 
L 555.138969 395.315467 
L 561.7088 394.045909 
L 568.2984 391.868746 
L 574.927538 392.971535 
L 581.517138 392.594469 
L 588.100148 392.594469 
L 594.676569 387.496628 
L 601.25299 391.322402 
L 607.888717 386.652055 
L 614.458548 392.594469 
L 621.041558 391.322402 
L 627.624569 390.048747 
L 634.207579 392.594469 
L 640.803769 391.322402 
L 647.38019 395.133809 
L 653.96979 393.864933 
L 660.572569 392.594469 
L 667.155579 396.401097 
L 673.751769 397.666803 
L 680.347958 395.133809 
L 686.944148 397.125457 
L 693.553517 397.308246 
L 700.110169 398.234803 
L 706.699769 398.930921 
" style="fill:none;stroke:#1f77b4;stroke-linecap:square;stroke-width:1.5;"/>
    <defs>
     <path d="M 0 1.5 
C 0.397805 1.5 0.77937 1.341951 1.06066 1.06066 
C 1.341951 0.77937 1.5 0.397805 1.5 0 
C 1.5 -0.397805 1.341951 -0.77937 1.06066 -1.06066 
C 0.77937 -1.341951 0.397805 -1.5 0 -1.5 
C -0.397805 -1.5 -0.77937 -1.341951 -1.06066 -1.06066 
C -1.341951 -0.77937 -1.5 -0.397805 -1.5 0 
C -1.5 0.397805 -1.341951 0.77937 -1.06066 1.06066 
C -0.77937 1.341951 -0.397805 1.5 0 1.5 
z
" id="mfd23d3c377" style="stroke:#1f77b4;"/>
    </defs>
    <g clip-path="url(#pb61513f813)">
     <use style="fill:#1f77b4;stroke:#1f77b4;" x="41.156758" xlink:href="#mfd23d3c377" y="104.483533"/>
     <use style="fill:#1f77b4;stroke:#1f77b4;" x="47.752948" xlink:href="#mfd23d3c377" y="108.82833"/>
     <use style="fill:#1f77b4;stroke:#1f77b4;" x="54.355727" xlink:href="#mfd23d3c377" y="108.82833"/>
     <use style="fill:#1f77b4;stroke:#1f77b4;" x="60.8992" xlink:href="#mfd23d3c377" y="107.398322"/>
     <use style="fill:#1f77b4;stroke:#1f77b4;" x="67.508569" xlink:href="#mfd23d3c377" y="110.272975"/>
     <use style="fill:#1f77b4;stroke:#1f77b4;" x="74.111348" xlink:href="#mfd23d3c377" y="109.554953"/>
     <use style="fill:#1f77b4;stroke:#1f77b4;" x="80.720717" xlink:href="#mfd23d3c377" y="108.108053"/>
     <use style="fill:#1f77b4;stroke:#1f77b4;" x="87.2576" xlink:href="#mfd23d3c377" y="108.858001"/>
     <use style="fill:#1f77b4;stroke:#1f77b4;" x="93.85379" xlink:href="#mfd23d3c377" y="111.715813"/>
     <use style="fill:#1f77b4;stroke:#1f77b4;" x="100.456569" xlink:href="#mfd23d3c377" y="104.483533"/>
     <use style="fill:#1f77b4;stroke:#1f77b4;" x="107.052758" xlink:href="#mfd23d3c377" y="110.272975"/>
     <use style="fill:#1f77b4;stroke:#1f77b4;" x="113.648948" xlink:href="#mfd23d3c377" y="105.93361"/>
     <use style="fill:#1f77b4;stroke:#1f77b4;" x="120.245138" xlink:href="#mfd23d3c377" y="104.483533"/>
     <use style="fill:#1f77b4;stroke:#1f77b4;" x="126.841327" xlink:href="#mfd23d3c377" y="104.483533"/>
     <use style="fill:#1f77b4;stroke:#1f77b4;" x="133.424338" xlink:href="#mfd23d3c377" y="107.380517"/>
     <use style="fill:#1f77b4;stroke:#1f77b4;" x="140.013938" xlink:href="#mfd23d3c377" y="103.031636"/>
     <use style="fill:#1f77b4;stroke:#1f77b4;" x="146.603538" xlink:href="#mfd23d3c377" y="101.577919"/>
     <use style="fill:#1f77b4;stroke:#1f77b4;" x="153.193138" xlink:href="#mfd23d3c377" y="101.577919"/>
     <use style="fill:#1f77b4;stroke:#1f77b4;" x="159.769558" xlink:href="#mfd23d3c377" y="103.031636"/>
     <use style="fill:#1f77b4;stroke:#1f77b4;" x="166.352569" xlink:href="#mfd23d3c377" y="100.122374"/>
     <use style="fill:#1f77b4;stroke:#1f77b4;" x="172.92899" xlink:href="#mfd23d3c377" y="100.846263"/>
     <use style="fill:#1f77b4;stroke:#1f77b4;" x="179.551538" xlink:href="#mfd23d3c377" y="100.163548"/>
     <use style="fill:#1f77b4;stroke:#1f77b4;" x="186.127958" xlink:href="#mfd23d3c377" y="98.665002"/>
     <use style="fill:#1f77b4;stroke:#1f77b4;" x="192.69779" xlink:href="#mfd23d3c377" y="102.302272"/>
     <use style="fill:#1f77b4;stroke:#1f77b4;" x="199.326927" xlink:href="#mfd23d3c377" y="101.605044"/>
     <use style="fill:#1f77b4;stroke:#1f77b4;" x="205.909938" xlink:href="#mfd23d3c377" y="99.388433"/>
     <use style="fill:#1f77b4;stroke:#1f77b4;" x="212.486358" xlink:href="#mfd23d3c377" y="101.577919"/>
     <use style="fill:#1f77b4;stroke:#1f77b4;" x="219.069369" xlink:href="#mfd23d3c377" y="105.93361"/>
     <use style="fill:#1f77b4;stroke:#1f77b4;" x="225.658969" xlink:href="#mfd23d3c377" y="103.031636"/>
     <use style="fill:#1f77b4;stroke:#1f77b4;" x="232.248569" xlink:href="#mfd23d3c377" y="103.031636"/>
     <use style="fill:#1f77b4;stroke:#1f77b4;" x="238.838169" xlink:href="#mfd23d3c377" y="104.483533"/>
     <use style="fill:#1f77b4;stroke:#1f77b4;" x="245.427769" xlink:href="#mfd23d3c377" y="108.82833"/>
     <use style="fill:#1f77b4;stroke:#1f77b4;" x="252.023958" xlink:href="#mfd23d3c377" y="105.93361"/>
     <use style="fill:#1f77b4;stroke:#1f77b4;" x="258.620148" xlink:href="#mfd23d3c377" y="107.38188"/>
     <use style="fill:#1f77b4;stroke:#1f77b4;" x="265.222927" xlink:href="#mfd23d3c377" y="107.38188"/>
     <use style="fill:#1f77b4;stroke:#1f77b4;" x="271.77299" xlink:href="#mfd23d3c377" y="108.855702"/>
     <use style="fill:#1f77b4;stroke:#1f77b4;" x="278.375769" xlink:href="#mfd23d3c377" y="108.82833"/>
     <use style="fill:#1f77b4;stroke:#1f77b4;" x="284.978548" xlink:href="#mfd23d3c377" y="110.272975"/>
     <use style="fill:#1f77b4;stroke:#1f77b4;" x="291.5352" xlink:href="#mfd23d3c377" y="107.398322"/>
     <use style="fill:#1f77b4;stroke:#1f77b4;" x="298.144569" xlink:href="#mfd23d3c377" y="110.272975"/>
     <use style="fill:#1f77b4;stroke:#1f77b4;" x="304.740758" xlink:href="#mfd23d3c377" y="110.272975"/>
     <use style="fill:#1f77b4;stroke:#1f77b4;" x="311.343538" xlink:href="#mfd23d3c377" y="105.2088"/>
     <use style="fill:#1f77b4;stroke:#1f77b4;" x="317.933138" xlink:href="#mfd23d3c377" y="109.554953"/>
     <use style="fill:#1f77b4;stroke:#1f77b4;" x="324.522738" xlink:href="#mfd23d3c377" y="106.659333"/>
     <use style="fill:#1f77b4;stroke:#1f77b4;" x="331.118927" xlink:href="#mfd23d3c377" y="104.483533"/>
     <use style="fill:#1f77b4;stroke:#1f77b4;" x="337.715117" xlink:href="#mfd23d3c377" y="104.483533"/>
     <use style="fill:#1f77b4;stroke:#1f77b4;" x="344.291538" xlink:href="#mfd23d3c377" y="107.38188"/>
     <use style="fill:#1f77b4;stroke:#1f77b4;" x="350.881138" xlink:href="#mfd23d3c377" y="103.031636"/>
     <use style="fill:#1f77b4;stroke:#1f77b4;" x="357.470738" xlink:href="#mfd23d3c377" y="101.577919"/>
     <use style="fill:#1f77b4;stroke:#1f77b4;" x="364.053748" xlink:href="#mfd23d3c377" y="101.577919"/>
     <use style="fill:#1f77b4;stroke:#1f77b4;" x="370.636758" xlink:href="#mfd23d3c377" y="103.031636"/>
     <use style="fill:#1f77b4;stroke:#1f77b4;" x="377.219769" xlink:href="#mfd23d3c377" y="100.122374"/>
     <use style="fill:#1f77b4;stroke:#1f77b4;" x="383.809369" xlink:href="#mfd23d3c377" y="103.037083"/>
     <use style="fill:#1f77b4;stroke:#1f77b4;" x="390.38579" xlink:href="#mfd23d3c377" y="97.205794"/>
     <use style="fill:#1f77b4;stroke:#1f77b4;" x="397.021517" xlink:href="#mfd23d3c377" y="100.163548"/>
     <use style="fill:#1f77b4;stroke:#1f77b4;" x="403.591348" xlink:href="#mfd23d3c377" y="101.577919"/>
     <use style="fill:#1f77b4;stroke:#1f77b4;" x="410.167769" xlink:href="#mfd23d3c377" y="101.577919"/>
     <use style="fill:#1f77b4;stroke:#1f77b4;" x="416.757369" xlink:href="#mfd23d3c377" y="98.665002"/>
     <use style="fill:#1f77b4;stroke:#1f77b4;" x="423.33379" xlink:href="#mfd23d3c377" y="103.031636"/>
     <use style="fill:#1f77b4;stroke:#1f77b4;" x="429.92339" xlink:href="#mfd23d3c377" y="104.483533"/>
     <use style="fill:#1f77b4;stroke:#1f77b4;" x="436.5064" xlink:href="#mfd23d3c377" y="103.756446"/>
     <use style="fill:#1f77b4;stroke:#1f77b4;" x="502.521013" xlink:href="#mfd23d3c377" y="2090.79035"/>
     <use style="fill:#1f77b4;stroke:#1f77b4;" x="502.962516" xlink:href="#mfd23d3c377" y="415.2603"/>
     <use style="fill:#1f77b4;stroke:#1f77b4;" x="503.423788" xlink:href="#mfd23d3c377" y="407.625396"/>
     <use style="fill:#1f77b4;stroke:#1f77b4;" x="503.87847" xlink:href="#mfd23d3c377" y="380.055058"/>
     <use style="fill:#1f77b4;stroke:#1f77b4;" x="504.333153" xlink:href="#mfd23d3c377" y="425.59535"/>
     <use style="fill:#1f77b4;stroke:#1f77b4;" x="504.794425" xlink:href="#mfd23d3c377" y="383.872369"/>
     <use style="fill:#1f77b4;stroke:#1f77b4;" x="505.242518" xlink:href="#mfd23d3c377" y="403.593174"/>
     <use style="fill:#1f77b4;stroke:#1f77b4;" x="505.70379" xlink:href="#mfd23d3c377" y="412.516478"/>
     <use style="fill:#1f77b4;stroke:#1f77b4;" x="506.165062" xlink:href="#mfd23d3c377" y="376.340924"/>
     <use style="fill:#1f77b4;stroke:#1f77b4;" x="506.626334" xlink:href="#mfd23d3c377" y="394.5902"/>
     <use style="fill:#1f77b4;stroke:#1f77b4;" x="509.044717" xlink:href="#mfd23d3c377" y="391.667158"/>
     <use style="fill:#1f77b4;stroke:#1f77b4;" x="515.5816" xlink:href="#mfd23d3c377" y="399.878206"/>
     <use style="fill:#1f77b4;stroke:#1f77b4;" x="522.17779" xlink:href="#mfd23d3c377" y="396.766"/>
     <use style="fill:#1f77b4;stroke:#1f77b4;" x="528.76739" xlink:href="#mfd23d3c377" y="397.849817"/>
     <use style="fill:#1f77b4;stroke:#1f77b4;" x="535.35699" xlink:href="#mfd23d3c377" y="396.040733"/>
     <use style="fill:#1f77b4;stroke:#1f77b4;" x="541.94659" xlink:href="#mfd23d3c377" y="393.139667"/>
     <use style="fill:#1f77b4;stroke:#1f77b4;" x="548.549369" xlink:href="#mfd23d3c377" y="392.774756"/>
     <use style="fill:#1f77b4;stroke:#1f77b4;" x="555.138969" xlink:href="#mfd23d3c377" y="395.315467"/>
     <use style="fill:#1f77b4;stroke:#1f77b4;" x="561.7088" xlink:href="#mfd23d3c377" y="394.045909"/>
     <use style="fill:#1f77b4;stroke:#1f77b4;" x="568.2984" xlink:href="#mfd23d3c377" y="391.868746"/>
     <use style="fill:#1f77b4;stroke:#1f77b4;" x="574.927538" xlink:href="#mfd23d3c377" y="392.971535"/>
     <use style="fill:#1f77b4;stroke:#1f77b4;" x="581.517138" xlink:href="#mfd23d3c377" y="392.594469"/>
     <use style="fill:#1f77b4;stroke:#1f77b4;" x="588.100148" xlink:href="#mfd23d3c377" y="392.594469"/>
     <use style="fill:#1f77b4;stroke:#1f77b4;" x="594.676569" xlink:href="#mfd23d3c377" y="387.496628"/>
     <use style="fill:#1f77b4;stroke:#1f77b4;" x="601.25299" xlink:href="#mfd23d3c377" y="391.322402"/>
     <use style="fill:#1f77b4;stroke:#1f77b4;" x="607.888717" xlink:href="#mfd23d3c377" y="386.652055"/>
     <use style="fill:#1f77b4;stroke:#1f77b4;" x="614.458548" xlink:href="#mfd23d3c377" y="392.594469"/>
     <use style="fill:#1f77b4;stroke:#1f77b4;" x="621.041558" xlink:href="#mfd23d3c377" y="391.322402"/>
     <use style="fill:#1f77b4;stroke:#1f77b4;" x="627.624569" xlink:href="#mfd23d3c377" y="390.048747"/>
     <use style="fill:#1f77b4;stroke:#1f77b4;" x="634.207579" xlink:href="#mfd23d3c377" y="392.594469"/>
     <use style="fill:#1f77b4;stroke:#1f77b4;" x="640.803769" xlink:href="#mfd23d3c377" y="391.322402"/>
     <use style="fill:#1f77b4;stroke:#1f77b4;" x="647.38019" xlink:href="#mfd23d3c377" y="395.133809"/>
     <use style="fill:#1f77b4;stroke:#1f77b4;" x="653.96979" xlink:href="#mfd23d3c377" y="393.864933"/>
     <use style="fill:#1f77b4;stroke:#1f77b4;" x="660.572569" xlink:href="#mfd23d3c377" y="392.594469"/>
     <use style="fill:#1f77b4;stroke:#1f77b4;" x="667.155579" xlink:href="#mfd23d3c377" y="396.401097"/>
     <use style="fill:#1f77b4;stroke:#1f77b4;" x="673.751769" xlink:href="#mfd23d3c377" y="397.666803"/>
     <use style="fill:#1f77b4;stroke:#1f77b4;" x="680.347958" xlink:href="#mfd23d3c377" y="395.133809"/>
     <use style="fill:#1f77b4;stroke:#1f77b4;" x="686.944148" xlink:href="#mfd23d3c377" y="397.125457"/>
     <use style="fill:#1f77b4;stroke:#1f77b4;" x="693.553517" xlink:href="#mfd23d3c377" y="397.308246"/>
     <use style="fill:#1f77b4;stroke:#1f77b4;" x="700.110169" xlink:href="#mfd23d3c377" y="398.234803"/>
     <use style="fill:#1f77b4;stroke:#1f77b4;" x="706.699769" xlink:href="#mfd23d3c377" y="398.930921"/>
    </g>
   </g>
   <g id="line2d_26">
    <path clip-path="url(#pb61513f813)" d="M 41.150169 111.715813 
L 47.752948 107.38188 
L 54.349138 106.65752 
L 60.945327 107.38188 
L 67.4888 103.745429 
L 74.0784 105.2088 
L 80.714127 104.488944 
L 87.297138 104.483533 
L 93.886738 104.483533 
L 100.463158 103.031636 
L 107.052758 101.577919 
L 113.629179 101.577919 
L 120.21219 97.205794 
L 126.834738 103.049239 
L 133.39139 98.644382 
L 140.027117 98.718004 
L 146.603538 100.122374 
L 153.179958 104.483533 
L 159.769558 101.577919 
L 166.352569 101.577919 
L 172.942169 103.031636 
L 179.531769 107.38188 
L 186.121369 105.2088 
L 192.717558 103.756446 
L 199.300569 108.108053 
L 205.896758 104.483533 
L 212.486358 110.272975 
L 219.095727 105.93361 
L 225.64579 111.764957 
L 232.248569 108.82833 
L 238.857938 108.82833 
L 245.408 111.764957 
L 252.010779 108.82833 
L 258.613558 107.38188 
L 265.209748 105.93361 
L 271.805938 107.38188 
L 278.395538 104.483533 
L 284.991727 104.483533 
L 291.574738 107.38188 
L 298.170927 101.577919 
L 304.753938 105.2088 
L 311.330358 102.302272 
L 317.913369 102.302272 
L 324.4832 101.577919 
L 331.112338 97.270655 
L 337.688758 103.031636 
L 344.271769 98.665002 
L 350.84819 98.665002 
L 357.477327 100.163548 
L 364.060338 104.483533 
L 370.643348 101.577919 
L 377.226358 101.577919 
L 383.809369 103.028902 
L 390.398969 107.38188 
L 396.988569 104.483533 
L 403.578169 105.93361 
L 410.174358 105.93361 
L 416.777138 105.93361 
L 423.373327 109.554953 
L 429.969517 108.108053 
L 436.51299 108.8603 
L 450.391523 505 
M 504.745024 505 
L 504.781246 386.769084 
L 505.249107 377.567763 
L 505.70379 430.128267 
L 506.165062 360.076819 
L 506.626334 411.76809 
L 507.067837 394.5902 
L 507.535698 376.340924 
L 507.990381 421.361163 
L 508.458242 376.340924 
L 509.051306 379.750127 
L 515.621138 393.67962 
L 522.204148 391.502015 
L 528.76739 392.774756 
L 535.403117 390.271077 
L 541.992717 391.868746 
L 548.569138 390.048747 
L 555.145558 388.046402 
L 561.728569 390.596229 
L 568.30499 391.322402 
L 574.888 390.048747 
L 581.4776 391.681844 
L 588.106738 393.870344 
L 594.683158 393.139667 
L 601.279348 393.139667 
L 607.875538 394.408999 
L 614.465138 395.676736 
L 621.067917 396.942893 
L 627.6048 396.051721 
L 634.20099 395.676736 
L 640.816948 397.666803 
L 647.406548 400.193465 
L 653.9632 396.782485 
L 660.55939 398.930921 
L 667.162169 397.666803 
L 673.771538 398.930921 
L 680.374317 397.666803 
L 686.9112 394.224361 
L 693.5008 396.401097 
L 700.143117 394.950578 
L 706.732717 396.401097 
" style="fill:none;stroke:#ff7f0e;stroke-linecap:square;stroke-width:1.5;"/>
    <defs>
     <path d="M 0 1.5 
C 0.397805 1.5 0.77937 1.341951 1.06066 1.06066 
C 1.341951 0.77937 1.5 0.397805 1.5 0 
C 1.5 -0.397805 1.341951 -0.77937 1.06066 -1.06066 
C 0.77937 -1.341951 0.397805 -1.5 0 -1.5 
C -0.397805 -1.5 -0.77937 -1.341951 -1.06066 -1.06066 
C -1.341951 -0.77937 -1.5 -0.397805 -1.5 0 
C -1.5 0.397805 -1.341951 0.77937 -1.06066 1.06066 
C -0.77937 1.341951 -0.397805 1.5 0 1.5 
z
" id="mf7b048cd89" style="stroke:#ff7f0e;"/>
    </defs>
    <g clip-path="url(#pb61513f813)">
     <use style="fill:#ff7f0e;stroke:#ff7f0e;" x="41.150169" xlink:href="#mf7b048cd89" y="111.715813"/>
     <use style="fill:#ff7f0e;stroke:#ff7f0e;" x="47.752948" xlink:href="#mf7b048cd89" y="107.38188"/>
     <use style="fill:#ff7f0e;stroke:#ff7f0e;" x="54.349138" xlink:href="#mf7b048cd89" y="106.65752"/>
     <use style="fill:#ff7f0e;stroke:#ff7f0e;" x="60.945327" xlink:href="#mf7b048cd89" y="107.38188"/>
     <use style="fill:#ff7f0e;stroke:#ff7f0e;" x="67.4888" xlink:href="#mf7b048cd89" y="103.745429"/>
     <use style="fill:#ff7f0e;stroke:#ff7f0e;" x="74.0784" xlink:href="#mf7b048cd89" y="105.2088"/>
     <use style="fill:#ff7f0e;stroke:#ff7f0e;" x="80.714127" xlink:href="#mf7b048cd89" y="104.488944"/>
     <use style="fill:#ff7f0e;stroke:#ff7f0e;" x="87.297138" xlink:href="#mf7b048cd89" y="104.483533"/>
     <use style="fill:#ff7f0e;stroke:#ff7f0e;" x="93.886738" xlink:href="#mf7b048cd89" y="104.483533"/>
     <use style="fill:#ff7f0e;stroke:#ff7f0e;" x="100.463158" xlink:href="#mf7b048cd89" y="103.031636"/>
     <use style="fill:#ff7f0e;stroke:#ff7f0e;" x="107.052758" xlink:href="#mf7b048cd89" y="101.577919"/>
     <use style="fill:#ff7f0e;stroke:#ff7f0e;" x="113.629179" xlink:href="#mf7b048cd89" y="101.577919"/>
     <use style="fill:#ff7f0e;stroke:#ff7f0e;" x="120.21219" xlink:href="#mf7b048cd89" y="97.205794"/>
     <use style="fill:#ff7f0e;stroke:#ff7f0e;" x="126.834738" xlink:href="#mf7b048cd89" y="103.049239"/>
     <use style="fill:#ff7f0e;stroke:#ff7f0e;" x="133.39139" xlink:href="#mf7b048cd89" y="98.644382"/>
     <use style="fill:#ff7f0e;stroke:#ff7f0e;" x="140.027117" xlink:href="#mf7b048cd89" y="98.718004"/>
     <use style="fill:#ff7f0e;stroke:#ff7f0e;" x="146.603538" xlink:href="#mf7b048cd89" y="100.122374"/>
     <use style="fill:#ff7f0e;stroke:#ff7f0e;" x="153.179958" xlink:href="#mf7b048cd89" y="104.483533"/>
     <use style="fill:#ff7f0e;stroke:#ff7f0e;" x="159.769558" xlink:href="#mf7b048cd89" y="101.577919"/>
     <use style="fill:#ff7f0e;stroke:#ff7f0e;" x="166.352569" xlink:href="#mf7b048cd89" y="101.577919"/>
     <use style="fill:#ff7f0e;stroke:#ff7f0e;" x="172.942169" xlink:href="#mf7b048cd89" y="103.031636"/>
     <use style="fill:#ff7f0e;stroke:#ff7f0e;" x="179.531769" xlink:href="#mf7b048cd89" y="107.38188"/>
     <use style="fill:#ff7f0e;stroke:#ff7f0e;" x="186.121369" xlink:href="#mf7b048cd89" y="105.2088"/>
     <use style="fill:#ff7f0e;stroke:#ff7f0e;" x="192.717558" xlink:href="#mf7b048cd89" y="103.756446"/>
     <use style="fill:#ff7f0e;stroke:#ff7f0e;" x="199.300569" xlink:href="#mf7b048cd89" y="108.108053"/>
     <use style="fill:#ff7f0e;stroke:#ff7f0e;" x="205.896758" xlink:href="#mf7b048cd89" y="104.483533"/>
     <use style="fill:#ff7f0e;stroke:#ff7f0e;" x="212.486358" xlink:href="#mf7b048cd89" y="110.272975"/>
     <use style="fill:#ff7f0e;stroke:#ff7f0e;" x="219.095727" xlink:href="#mf7b048cd89" y="105.93361"/>
     <use style="fill:#ff7f0e;stroke:#ff7f0e;" x="225.64579" xlink:href="#mf7b048cd89" y="111.764957"/>
     <use style="fill:#ff7f0e;stroke:#ff7f0e;" x="232.248569" xlink:href="#mf7b048cd89" y="108.82833"/>
     <use style="fill:#ff7f0e;stroke:#ff7f0e;" x="238.857938" xlink:href="#mf7b048cd89" y="108.82833"/>
     <use style="fill:#ff7f0e;stroke:#ff7f0e;" x="245.408" xlink:href="#mf7b048cd89" y="111.764957"/>
     <use style="fill:#ff7f0e;stroke:#ff7f0e;" x="252.010779" xlink:href="#mf7b048cd89" y="108.82833"/>
     <use style="fill:#ff7f0e;stroke:#ff7f0e;" x="258.613558" xlink:href="#mf7b048cd89" y="107.38188"/>
     <use style="fill:#ff7f0e;stroke:#ff7f0e;" x="265.209748" xlink:href="#mf7b048cd89" y="105.93361"/>
     <use style="fill:#ff7f0e;stroke:#ff7f0e;" x="271.805938" xlink:href="#mf7b048cd89" y="107.38188"/>
     <use style="fill:#ff7f0e;stroke:#ff7f0e;" x="278.395538" xlink:href="#mf7b048cd89" y="104.483533"/>
     <use style="fill:#ff7f0e;stroke:#ff7f0e;" x="284.991727" xlink:href="#mf7b048cd89" y="104.483533"/>
     <use style="fill:#ff7f0e;stroke:#ff7f0e;" x="291.574738" xlink:href="#mf7b048cd89" y="107.38188"/>
     <use style="fill:#ff7f0e;stroke:#ff7f0e;" x="298.170927" xlink:href="#mf7b048cd89" y="101.577919"/>
     <use style="fill:#ff7f0e;stroke:#ff7f0e;" x="304.753938" xlink:href="#mf7b048cd89" y="105.2088"/>
     <use style="fill:#ff7f0e;stroke:#ff7f0e;" x="311.330358" xlink:href="#mf7b048cd89" y="102.302272"/>
     <use style="fill:#ff7f0e;stroke:#ff7f0e;" x="317.913369" xlink:href="#mf7b048cd89" y="102.302272"/>
     <use style="fill:#ff7f0e;stroke:#ff7f0e;" x="324.4832" xlink:href="#mf7b048cd89" y="101.577919"/>
     <use style="fill:#ff7f0e;stroke:#ff7f0e;" x="331.112338" xlink:href="#mf7b048cd89" y="97.270655"/>
     <use style="fill:#ff7f0e;stroke:#ff7f0e;" x="337.688758" xlink:href="#mf7b048cd89" y="103.031636"/>
     <use style="fill:#ff7f0e;stroke:#ff7f0e;" x="344.271769" xlink:href="#mf7b048cd89" y="98.665002"/>
     <use style="fill:#ff7f0e;stroke:#ff7f0e;" x="350.84819" xlink:href="#mf7b048cd89" y="98.665002"/>
     <use style="fill:#ff7f0e;stroke:#ff7f0e;" x="357.477327" xlink:href="#mf7b048cd89" y="100.163548"/>
     <use style="fill:#ff7f0e;stroke:#ff7f0e;" x="364.060338" xlink:href="#mf7b048cd89" y="104.483533"/>
     <use style="fill:#ff7f0e;stroke:#ff7f0e;" x="370.643348" xlink:href="#mf7b048cd89" y="101.577919"/>
     <use style="fill:#ff7f0e;stroke:#ff7f0e;" x="377.226358" xlink:href="#mf7b048cd89" y="101.577919"/>
     <use style="fill:#ff7f0e;stroke:#ff7f0e;" x="383.809369" xlink:href="#mf7b048cd89" y="103.028902"/>
     <use style="fill:#ff7f0e;stroke:#ff7f0e;" x="390.398969" xlink:href="#mf7b048cd89" y="107.38188"/>
     <use style="fill:#ff7f0e;stroke:#ff7f0e;" x="396.988569" xlink:href="#mf7b048cd89" y="104.483533"/>
     <use style="fill:#ff7f0e;stroke:#ff7f0e;" x="403.578169" xlink:href="#mf7b048cd89" y="105.93361"/>
     <use style="fill:#ff7f0e;stroke:#ff7f0e;" x="410.174358" xlink:href="#mf7b048cd89" y="105.93361"/>
     <use style="fill:#ff7f0e;stroke:#ff7f0e;" x="416.777138" xlink:href="#mf7b048cd89" y="105.93361"/>
     <use style="fill:#ff7f0e;stroke:#ff7f0e;" x="423.373327" xlink:href="#mf7b048cd89" y="109.554953"/>
     <use style="fill:#ff7f0e;stroke:#ff7f0e;" x="429.969517" xlink:href="#mf7b048cd89" y="108.108053"/>
     <use style="fill:#ff7f0e;stroke:#ff7f0e;" x="436.51299" xlink:href="#mf7b048cd89" y="108.8603"/>
     <use style="fill:#ff7f0e;stroke:#ff7f0e;" x="504.273846" xlink:href="#mf7b048cd89" y="2042.981434"/>
     <use style="fill:#ff7f0e;stroke:#ff7f0e;" x="504.781246" xlink:href="#mf7b048cd89" y="386.769084"/>
     <use style="fill:#ff7f0e;stroke:#ff7f0e;" x="505.249107" xlink:href="#mf7b048cd89" y="377.567763"/>
     <use style="fill:#ff7f0e;stroke:#ff7f0e;" x="505.70379" xlink:href="#mf7b048cd89" y="430.128267"/>
     <use style="fill:#ff7f0e;stroke:#ff7f0e;" x="506.165062" xlink:href="#mf7b048cd89" y="360.076819"/>
     <use style="fill:#ff7f0e;stroke:#ff7f0e;" x="506.626334" xlink:href="#mf7b048cd89" y="411.76809"/>
     <use style="fill:#ff7f0e;stroke:#ff7f0e;" x="507.067837" xlink:href="#mf7b048cd89" y="394.5902"/>
     <use style="fill:#ff7f0e;stroke:#ff7f0e;" x="507.535698" xlink:href="#mf7b048cd89" y="376.340924"/>
     <use style="fill:#ff7f0e;stroke:#ff7f0e;" x="507.990381" xlink:href="#mf7b048cd89" y="421.361163"/>
     <use style="fill:#ff7f0e;stroke:#ff7f0e;" x="508.458242" xlink:href="#mf7b048cd89" y="376.340924"/>
     <use style="fill:#ff7f0e;stroke:#ff7f0e;" x="509.051306" xlink:href="#mf7b048cd89" y="379.750127"/>
     <use style="fill:#ff7f0e;stroke:#ff7f0e;" x="515.621138" xlink:href="#mf7b048cd89" y="393.67962"/>
     <use style="fill:#ff7f0e;stroke:#ff7f0e;" x="522.204148" xlink:href="#mf7b048cd89" y="391.502015"/>
     <use style="fill:#ff7f0e;stroke:#ff7f0e;" x="528.76739" xlink:href="#mf7b048cd89" y="392.774756"/>
     <use style="fill:#ff7f0e;stroke:#ff7f0e;" x="535.403117" xlink:href="#mf7b048cd89" y="390.271077"/>
     <use style="fill:#ff7f0e;stroke:#ff7f0e;" x="541.992717" xlink:href="#mf7b048cd89" y="391.868746"/>
     <use style="fill:#ff7f0e;stroke:#ff7f0e;" x="548.569138" xlink:href="#mf7b048cd89" y="390.048747"/>
     <use style="fill:#ff7f0e;stroke:#ff7f0e;" x="555.145558" xlink:href="#mf7b048cd89" y="388.046402"/>
     <use style="fill:#ff7f0e;stroke:#ff7f0e;" x="561.728569" xlink:href="#mf7b048cd89" y="390.596229"/>
     <use style="fill:#ff7f0e;stroke:#ff7f0e;" x="568.30499" xlink:href="#mf7b048cd89" y="391.322402"/>
     <use style="fill:#ff7f0e;stroke:#ff7f0e;" x="574.888" xlink:href="#mf7b048cd89" y="390.048747"/>
     <use style="fill:#ff7f0e;stroke:#ff7f0e;" x="581.4776" xlink:href="#mf7b048cd89" y="391.681844"/>
     <use style="fill:#ff7f0e;stroke:#ff7f0e;" x="588.106738" xlink:href="#mf7b048cd89" y="393.870344"/>
     <use style="fill:#ff7f0e;stroke:#ff7f0e;" x="594.683158" xlink:href="#mf7b048cd89" y="393.139667"/>
     <use style="fill:#ff7f0e;stroke:#ff7f0e;" x="601.279348" xlink:href="#mf7b048cd89" y="393.139667"/>
     <use style="fill:#ff7f0e;stroke:#ff7f0e;" x="607.875538" xlink:href="#mf7b048cd89" y="394.408999"/>
     <use style="fill:#ff7f0e;stroke:#ff7f0e;" x="614.465138" xlink:href="#mf7b048cd89" y="395.676736"/>
     <use style="fill:#ff7f0e;stroke:#ff7f0e;" x="621.067917" xlink:href="#mf7b048cd89" y="396.942893"/>
     <use style="fill:#ff7f0e;stroke:#ff7f0e;" x="627.6048" xlink:href="#mf7b048cd89" y="396.051721"/>
     <use style="fill:#ff7f0e;stroke:#ff7f0e;" x="634.20099" xlink:href="#mf7b048cd89" y="395.676736"/>
     <use style="fill:#ff7f0e;stroke:#ff7f0e;" x="640.816948" xlink:href="#mf7b048cd89" y="397.666803"/>
     <use style="fill:#ff7f0e;stroke:#ff7f0e;" x="647.406548" xlink:href="#mf7b048cd89" y="400.193465"/>
     <use style="fill:#ff7f0e;stroke:#ff7f0e;" x="653.9632" xlink:href="#mf7b048cd89" y="396.782485"/>
     <use style="fill:#ff7f0e;stroke:#ff7f0e;" x="660.55939" xlink:href="#mf7b048cd89" y="398.930921"/>
     <use style="fill:#ff7f0e;stroke:#ff7f0e;" x="667.162169" xlink:href="#mf7b048cd89" y="397.666803"/>
     <use style="fill:#ff7f0e;stroke:#ff7f0e;" x="673.771538" xlink:href="#mf7b048cd89" y="398.930921"/>
     <use style="fill:#ff7f0e;stroke:#ff7f0e;" x="680.374317" xlink:href="#mf7b048cd89" y="397.666803"/>
     <use style="fill:#ff7f0e;stroke:#ff7f0e;" x="686.9112" xlink:href="#mf7b048cd89" y="394.224361"/>
     <use style="fill:#ff7f0e;stroke:#ff7f0e;" x="693.5008" xlink:href="#mf7b048cd89" y="396.401097"/>
     <use style="fill:#ff7f0e;stroke:#ff7f0e;" x="700.143117" xlink:href="#mf7b048cd89" y="394.950578"/>
     <use style="fill:#ff7f0e;stroke:#ff7f0e;" x="706.732717" xlink:href="#mf7b048cd89" y="396.401097"/>
    </g>
   </g>
   <g id="line2d_27">
    <path clip-path="url(#pb61513f813)" d="M 41.13699 103.031636 
L 47.72659 107.38188 
L 54.322779 104.483533 
L 60.918969 108.82833 
L 67.515158 105.93361 
L 74.117938 110.272975 
L 80.67459 107.398322 
L 87.277369 108.82833 
L 93.873558 113.156852 
L 100.482927 109.552233 
L 107.03299 105.939564 
L 113.635769 108.108053 
L 120.218779 110.272975 
L 126.814969 105.93361 
L 133.404569 104.482627 
L 140.000758 104.483533 
L 146.583769 107.38188 
L 153.179958 101.577919 
L 159.756379 105.93361 
L 166.33939 101.577919 
L 172.9224 103.031636 
L 179.512 98.665002 
L 186.134548 103.049239 
L 192.717558 97.205794 
L 199.293979 100.122374 
L 205.916527 98.718004 
L 212.499538 101.577919 
L 219.089138 102.304092 
L 225.658969 103.756446 
L 232.248569 100.846263 
L 238.82499 103.031636 
L 245.408 107.38188 
L 252.00419 101.577919 
L 258.59379 108.82833 
L 265.196569 103.031636 
L 271.786169 110.272975 
L 278.388948 104.483533 
L 284.985138 111.715813 
L 291.54179 106.670321 
L 298.144569 108.82833 
L 304.740758 113.156852 
L 311.343538 108.82833 
L 317.90019 107.398322 
L 324.516148 107.376448 
L 331.112338 110.272975 
L 337.708527 106.658427 
L 344.252 103.012359 
L 350.894317 105.928656 
L 357.470738 105.93361 
L 364.060338 103.031636 
L 370.643348 104.483533 
L 377.232948 101.577919 
L 383.829138 103.761893 
L 390.418738 98.665002 
L 396.988569 103.031636 
L 403.571579 97.205794 
L 410.200717 100.163548 
L 416.770548 98.665002 
L 423.346969 101.577919 
L 429.936569 101.577919 
L 436.519579 103.031636 
L 449.967381 505 
M 503.174474 505 
L 503.212921 377.567763 
L 503.680782 422.760072 
L 504.135465 412.516478 
L 504.596737 388.043109 
L 505.064598 364.840711 
L 505.499512 412.516478 
L 505.973963 403.593174 
L 506.428646 394.5902 
L 506.896507 412.516478 
L 509.011769 391.813031 
L 515.607958 400.731874 
L 522.217327 397.849817 
L 528.813517 397.308246 
L 535.3504 397.058855 
L 541.94 398.83916 
L 548.53619 394.047273 
L 555.138969 395.676736 
L 561.741748 392.228645 
L 568.324758 396.942893 
L 574.914358 391.868746 
L 581.503958 394.408999 
L 588.086969 392.594469 
L 594.676569 390.048747 
L 601.25299 392.594469 
L 607.836 388.135261 
L 614.465138 391.079822 
L 621.041558 390.048747 
L 627.617979 388.773489 
L 634.1944 393.229897 
L 640.836717 391.079822 
L 647.419727 391.322402 
L 654.002738 392.594469 
L 660.592338 393.864933 
L 667.181938 393.864933 
L 673.771538 392.594469 
L 680.367727 395.133809 
L 686.963917 395.858619 
L 693.553517 395.315467 
L 700.0904 397.60554 
L 706.68659 397.308246 
" style="fill:none;stroke:#2ca02c;stroke-linecap:square;stroke-width:1.5;"/>
    <defs>
     <path d="M 0 1.5 
C 0.397805 1.5 0.77937 1.341951 1.06066 1.06066 
C 1.341951 0.77937 1.5 0.397805 1.5 0 
C 1.5 -0.397805 1.341951 -0.77937 1.06066 -1.06066 
C 0.77937 -1.341951 0.397805 -1.5 0 -1.5 
C -0.397805 -1.5 -0.77937 -1.341951 -1.06066 -1.06066 
C -1.341951 -0.77937 -1.5 -0.397805 -1.5 0 
C -1.5 0.397805 -1.341951 0.77937 -1.06066 1.06066 
C -0.77937 1.341951 -0.397805 1.5 0 1.5 
z
" id="mc48785f5ad" style="stroke:#2ca02c;"/>
    </defs>
    <g clip-path="url(#pb61513f813)">
     <use style="fill:#2ca02c;stroke:#2ca02c;" x="41.13699" xlink:href="#mc48785f5ad" y="103.031636"/>
     <use style="fill:#2ca02c;stroke:#2ca02c;" x="47.72659" xlink:href="#mc48785f5ad" y="107.38188"/>
     <use style="fill:#2ca02c;stroke:#2ca02c;" x="54.322779" xlink:href="#mc48785f5ad" y="104.483533"/>
     <use style="fill:#2ca02c;stroke:#2ca02c;" x="60.918969" xlink:href="#mc48785f5ad" y="108.82833"/>
     <use style="fill:#2ca02c;stroke:#2ca02c;" x="67.515158" xlink:href="#mc48785f5ad" y="105.93361"/>
     <use style="fill:#2ca02c;stroke:#2ca02c;" x="74.117938" xlink:href="#mc48785f5ad" y="110.272975"/>
     <use style="fill:#2ca02c;stroke:#2ca02c;" x="80.67459" xlink:href="#mc48785f5ad" y="107.398322"/>
     <use style="fill:#2ca02c;stroke:#2ca02c;" x="87.277369" xlink:href="#mc48785f5ad" y="108.82833"/>
     <use style="fill:#2ca02c;stroke:#2ca02c;" x="93.873558" xlink:href="#mc48785f5ad" y="113.156852"/>
     <use style="fill:#2ca02c;stroke:#2ca02c;" x="100.482927" xlink:href="#mc48785f5ad" y="109.552233"/>
     <use style="fill:#2ca02c;stroke:#2ca02c;" x="107.03299" xlink:href="#mc48785f5ad" y="105.939564"/>
     <use style="fill:#2ca02c;stroke:#2ca02c;" x="113.635769" xlink:href="#mc48785f5ad" y="108.108053"/>
     <use style="fill:#2ca02c;stroke:#2ca02c;" x="120.218779" xlink:href="#mc48785f5ad" y="110.272975"/>
     <use style="fill:#2ca02c;stroke:#2ca02c;" x="126.814969" xlink:href="#mc48785f5ad" y="105.93361"/>
     <use style="fill:#2ca02c;stroke:#2ca02c;" x="133.404569" xlink:href="#mc48785f5ad" y="104.482627"/>
     <use style="fill:#2ca02c;stroke:#2ca02c;" x="140.000758" xlink:href="#mc48785f5ad" y="104.483533"/>
     <use style="fill:#2ca02c;stroke:#2ca02c;" x="146.583769" xlink:href="#mc48785f5ad" y="107.38188"/>
     <use style="fill:#2ca02c;stroke:#2ca02c;" x="153.179958" xlink:href="#mc48785f5ad" y="101.577919"/>
     <use style="fill:#2ca02c;stroke:#2ca02c;" x="159.756379" xlink:href="#mc48785f5ad" y="105.93361"/>
     <use style="fill:#2ca02c;stroke:#2ca02c;" x="166.33939" xlink:href="#mc48785f5ad" y="101.577919"/>
     <use style="fill:#2ca02c;stroke:#2ca02c;" x="172.9224" xlink:href="#mc48785f5ad" y="103.031636"/>
     <use style="fill:#2ca02c;stroke:#2ca02c;" x="179.512" xlink:href="#mc48785f5ad" y="98.665002"/>
     <use style="fill:#2ca02c;stroke:#2ca02c;" x="186.134548" xlink:href="#mc48785f5ad" y="103.049239"/>
     <use style="fill:#2ca02c;stroke:#2ca02c;" x="192.717558" xlink:href="#mc48785f5ad" y="97.205794"/>
     <use style="fill:#2ca02c;stroke:#2ca02c;" x="199.293979" xlink:href="#mc48785f5ad" y="100.122374"/>
     <use style="fill:#2ca02c;stroke:#2ca02c;" x="205.916527" xlink:href="#mc48785f5ad" y="98.718004"/>
     <use style="fill:#2ca02c;stroke:#2ca02c;" x="212.499538" xlink:href="#mc48785f5ad" y="101.577919"/>
     <use style="fill:#2ca02c;stroke:#2ca02c;" x="219.089138" xlink:href="#mc48785f5ad" y="102.304092"/>
     <use style="fill:#2ca02c;stroke:#2ca02c;" x="225.658969" xlink:href="#mc48785f5ad" y="103.756446"/>
     <use style="fill:#2ca02c;stroke:#2ca02c;" x="232.248569" xlink:href="#mc48785f5ad" y="100.846263"/>
     <use style="fill:#2ca02c;stroke:#2ca02c;" x="238.82499" xlink:href="#mc48785f5ad" y="103.031636"/>
     <use style="fill:#2ca02c;stroke:#2ca02c;" x="245.408" xlink:href="#mc48785f5ad" y="107.38188"/>
     <use style="fill:#2ca02c;stroke:#2ca02c;" x="252.00419" xlink:href="#mc48785f5ad" y="101.577919"/>
     <use style="fill:#2ca02c;stroke:#2ca02c;" x="258.59379" xlink:href="#mc48785f5ad" y="108.82833"/>
     <use style="fill:#2ca02c;stroke:#2ca02c;" x="265.196569" xlink:href="#mc48785f5ad" y="103.031636"/>
     <use style="fill:#2ca02c;stroke:#2ca02c;" x="271.786169" xlink:href="#mc48785f5ad" y="110.272975"/>
     <use style="fill:#2ca02c;stroke:#2ca02c;" x="278.388948" xlink:href="#mc48785f5ad" y="104.483533"/>
     <use style="fill:#2ca02c;stroke:#2ca02c;" x="284.985138" xlink:href="#mc48785f5ad" y="111.715813"/>
     <use style="fill:#2ca02c;stroke:#2ca02c;" x="291.54179" xlink:href="#mc48785f5ad" y="106.670321"/>
     <use style="fill:#2ca02c;stroke:#2ca02c;" x="298.144569" xlink:href="#mc48785f5ad" y="108.82833"/>
     <use style="fill:#2ca02c;stroke:#2ca02c;" x="304.740758" xlink:href="#mc48785f5ad" y="113.156852"/>
     <use style="fill:#2ca02c;stroke:#2ca02c;" x="311.343538" xlink:href="#mc48785f5ad" y="108.82833"/>
     <use style="fill:#2ca02c;stroke:#2ca02c;" x="317.90019" xlink:href="#mc48785f5ad" y="107.398322"/>
     <use style="fill:#2ca02c;stroke:#2ca02c;" x="324.516148" xlink:href="#mc48785f5ad" y="107.376448"/>
     <use style="fill:#2ca02c;stroke:#2ca02c;" x="331.112338" xlink:href="#mc48785f5ad" y="110.272975"/>
     <use style="fill:#2ca02c;stroke:#2ca02c;" x="337.708527" xlink:href="#mc48785f5ad" y="106.658427"/>
     <use style="fill:#2ca02c;stroke:#2ca02c;" x="344.252" xlink:href="#mc48785f5ad" y="103.012359"/>
     <use style="fill:#2ca02c;stroke:#2ca02c;" x="350.894317" xlink:href="#mc48785f5ad" y="105.928656"/>
     <use style="fill:#2ca02c;stroke:#2ca02c;" x="357.470738" xlink:href="#mc48785f5ad" y="105.93361"/>
     <use style="fill:#2ca02c;stroke:#2ca02c;" x="364.060338" xlink:href="#mc48785f5ad" y="103.031636"/>
     <use style="fill:#2ca02c;stroke:#2ca02c;" x="370.643348" xlink:href="#mc48785f5ad" y="104.483533"/>
     <use style="fill:#2ca02c;stroke:#2ca02c;" x="377.232948" xlink:href="#mc48785f5ad" y="101.577919"/>
     <use style="fill:#2ca02c;stroke:#2ca02c;" x="383.829138" xlink:href="#mc48785f5ad" y="103.761893"/>
     <use style="fill:#2ca02c;stroke:#2ca02c;" x="390.418738" xlink:href="#mc48785f5ad" y="98.665002"/>
     <use style="fill:#2ca02c;stroke:#2ca02c;" x="396.988569" xlink:href="#mc48785f5ad" y="103.031636"/>
     <use style="fill:#2ca02c;stroke:#2ca02c;" x="403.571579" xlink:href="#mc48785f5ad" y="97.205794"/>
     <use style="fill:#2ca02c;stroke:#2ca02c;" x="410.200717" xlink:href="#mc48785f5ad" y="100.163548"/>
     <use style="fill:#2ca02c;stroke:#2ca02c;" x="416.770548" xlink:href="#mc48785f5ad" y="98.665002"/>
     <use style="fill:#2ca02c;stroke:#2ca02c;" x="423.346969" xlink:href="#mc48785f5ad" y="101.577919"/>
     <use style="fill:#2ca02c;stroke:#2ca02c;" x="429.936569" xlink:href="#mc48785f5ad" y="101.577919"/>
     <use style="fill:#2ca02c;stroke:#2ca02c;" x="436.519579" xlink:href="#mc48785f5ad" y="103.031636"/>
     <use style="fill:#2ca02c;stroke:#2ca02c;" x="502.698932" xlink:href="#mc48785f5ad" y="2081.199235"/>
     <use style="fill:#2ca02c;stroke:#2ca02c;" x="503.212921" xlink:href="#mc48785f5ad" y="377.567763"/>
     <use style="fill:#2ca02c;stroke:#2ca02c;" x="503.680782" xlink:href="#mc48785f5ad" y="422.760072"/>
     <use style="fill:#2ca02c;stroke:#2ca02c;" x="504.135465" xlink:href="#mc48785f5ad" y="412.516478"/>
     <use style="fill:#2ca02c;stroke:#2ca02c;" x="504.596737" xlink:href="#mc48785f5ad" y="388.043109"/>
     <use style="fill:#2ca02c;stroke:#2ca02c;" x="505.064598" xlink:href="#mc48785f5ad" y="364.840711"/>
     <use style="fill:#2ca02c;stroke:#2ca02c;" x="505.499512" xlink:href="#mc48785f5ad" y="412.516478"/>
     <use style="fill:#2ca02c;stroke:#2ca02c;" x="505.973963" xlink:href="#mc48785f5ad" y="403.593174"/>
     <use style="fill:#2ca02c;stroke:#2ca02c;" x="506.428646" xlink:href="#mc48785f5ad" y="394.5902"/>
     <use style="fill:#2ca02c;stroke:#2ca02c;" x="506.896507" xlink:href="#mc48785f5ad" y="412.516478"/>
     <use style="fill:#2ca02c;stroke:#2ca02c;" x="509.011769" xlink:href="#mc48785f5ad" y="391.813031"/>
     <use style="fill:#2ca02c;stroke:#2ca02c;" x="515.607958" xlink:href="#mc48785f5ad" y="400.731874"/>
     <use style="fill:#2ca02c;stroke:#2ca02c;" x="522.217327" xlink:href="#mc48785f5ad" y="397.849817"/>
     <use style="fill:#2ca02c;stroke:#2ca02c;" x="528.813517" xlink:href="#mc48785f5ad" y="397.308246"/>
     <use style="fill:#2ca02c;stroke:#2ca02c;" x="535.3504" xlink:href="#mc48785f5ad" y="397.058855"/>
     <use style="fill:#2ca02c;stroke:#2ca02c;" x="541.94" xlink:href="#mc48785f5ad" y="398.83916"/>
     <use style="fill:#2ca02c;stroke:#2ca02c;" x="548.53619" xlink:href="#mc48785f5ad" y="394.047273"/>
     <use style="fill:#2ca02c;stroke:#2ca02c;" x="555.138969" xlink:href="#mc48785f5ad" y="395.676736"/>
     <use style="fill:#2ca02c;stroke:#2ca02c;" x="561.741748" xlink:href="#mc48785f5ad" y="392.228645"/>
     <use style="fill:#2ca02c;stroke:#2ca02c;" x="568.324758" xlink:href="#mc48785f5ad" y="396.942893"/>
     <use style="fill:#2ca02c;stroke:#2ca02c;" x="574.914358" xlink:href="#mc48785f5ad" y="391.868746"/>
     <use style="fill:#2ca02c;stroke:#2ca02c;" x="581.503958" xlink:href="#mc48785f5ad" y="394.408999"/>
     <use style="fill:#2ca02c;stroke:#2ca02c;" x="588.086969" xlink:href="#mc48785f5ad" y="392.594469"/>
     <use style="fill:#2ca02c;stroke:#2ca02c;" x="594.676569" xlink:href="#mc48785f5ad" y="390.048747"/>
     <use style="fill:#2ca02c;stroke:#2ca02c;" x="601.25299" xlink:href="#mc48785f5ad" y="392.594469"/>
     <use style="fill:#2ca02c;stroke:#2ca02c;" x="607.836" xlink:href="#mc48785f5ad" y="388.135261"/>
     <use style="fill:#2ca02c;stroke:#2ca02c;" x="614.465138" xlink:href="#mc48785f5ad" y="391.079822"/>
     <use style="fill:#2ca02c;stroke:#2ca02c;" x="621.041558" xlink:href="#mc48785f5ad" y="390.048747"/>
     <use style="fill:#2ca02c;stroke:#2ca02c;" x="627.617979" xlink:href="#mc48785f5ad" y="388.773489"/>
     <use style="fill:#2ca02c;stroke:#2ca02c;" x="634.1944" xlink:href="#mc48785f5ad" y="393.229897"/>
     <use style="fill:#2ca02c;stroke:#2ca02c;" x="640.836717" xlink:href="#mc48785f5ad" y="391.079822"/>
     <use style="fill:#2ca02c;stroke:#2ca02c;" x="647.419727" xlink:href="#mc48785f5ad" y="391.322402"/>
     <use style="fill:#2ca02c;stroke:#2ca02c;" x="654.002738" xlink:href="#mc48785f5ad" y="392.594469"/>
     <use style="fill:#2ca02c;stroke:#2ca02c;" x="660.592338" xlink:href="#mc48785f5ad" y="393.864933"/>
     <use style="fill:#2ca02c;stroke:#2ca02c;" x="667.181938" xlink:href="#mc48785f5ad" y="393.864933"/>
     <use style="fill:#2ca02c;stroke:#2ca02c;" x="673.771538" xlink:href="#mc48785f5ad" y="392.594469"/>
     <use style="fill:#2ca02c;stroke:#2ca02c;" x="680.367727" xlink:href="#mc48785f5ad" y="395.133809"/>
     <use style="fill:#2ca02c;stroke:#2ca02c;" x="686.963917" xlink:href="#mc48785f5ad" y="395.858619"/>
     <use style="fill:#2ca02c;stroke:#2ca02c;" x="693.553517" xlink:href="#mc48785f5ad" y="395.315467"/>
     <use style="fill:#2ca02c;stroke:#2ca02c;" x="700.0904" xlink:href="#mc48785f5ad" y="397.60554"/>
     <use style="fill:#2ca02c;stroke:#2ca02c;" x="706.68659" xlink:href="#mc48785f5ad" y="397.308246"/>
    </g>
   </g>
   <g id="patch_5">
    <path d="M 47.72 462.04 
L 47.72 26.88 
" style="fill:none;stroke:#000000;stroke-linecap:square;stroke-linejoin:miter;stroke-width:0.8;"/>
   </g>
   <g id="patch_6">
    <path d="M 706.68 462.04 
L 706.68 26.88 
" style="fill:none;stroke:#000000;stroke-linecap:square;stroke-linejoin:miter;stroke-width:0.8;"/>
   </g>
   <g id="patch_7">
    <path d="M 47.72 462.04 
L 706.68 462.04 
" style="fill:none;stroke:#000000;stroke-linecap:square;stroke-linejoin:miter;stroke-width:0.8;"/>
   </g>
   <g id="patch_8">
    <path d="M 47.72 26.88 
L 706.68 26.88 
" style="fill:none;stroke:#000000;stroke-linecap:square;stroke-linejoin:miter;stroke-width:0.8;"/>
   </g>
   <g id="text_15">
    <!-- 512-bit VPOR Transition Closeup -->
    <defs>
     <path d="M 4.890625 31.390625 
L 31.203125 31.390625 
L 31.203125 23.390625 
L 4.890625 23.390625 
z
" id="DejaVuSans-45"/>
     <path d="M 48.6875 27.296875 
Q 48.6875 37.203125 44.609375 42.84375 
Q 40.53125 48.484375 33.40625 48.484375 
Q 26.265625 48.484375 22.1875 42.84375 
Q 18.109375 37.203125 18.109375 27.296875 
Q 18.109375 17.390625 22.1875 11.75 
Q 26.265625 6.109375 33.40625 6.109375 
Q 40.53125 6.109375 44.609375 11.75 
Q 48.6875 17.390625 48.6875 27.296875 
z
M 18.109375 46.390625 
Q 20.953125 51.265625 25.265625 53.625 
Q 29.59375 56 35.59375 56 
Q 45.5625 56 51.78125 48.09375 
Q 58.015625 40.1875 58.015625 27.296875 
Q 58.015625 14.40625 51.78125 6.484375 
Q 45.5625 -1.421875 35.59375 -1.421875 
Q 29.59375 -1.421875 25.265625 0.953125 
Q 20.953125 3.328125 18.109375 8.203125 
L 18.109375 0 
L 9.078125 0 
L 9.078125 75.984375 
L 18.109375 75.984375 
z
" id="DejaVuSans-98"/>
     <path d="M 18.3125 70.21875 
L 18.3125 54.6875 
L 36.8125 54.6875 
L 36.8125 47.703125 
L 18.3125 47.703125 
L 18.3125 18.015625 
Q 18.3125 11.328125 20.140625 9.421875 
Q 21.96875 7.515625 27.59375 7.515625 
L 36.8125 7.515625 
L 36.8125 0 
L 27.59375 0 
Q 17.1875 0 13.234375 3.875 
Q 9.28125 7.765625 9.28125 18.015625 
L 9.28125 47.703125 
L 2.6875 47.703125 
L 2.6875 54.6875 
L 9.28125 54.6875 
L 9.28125 70.21875 
z
" id="DejaVuSans-116"/>
     <path d="M 28.609375 0 
L 0.78125 72.90625 
L 11.078125 72.90625 
L 34.1875 11.53125 
L 57.328125 72.90625 
L 67.578125 72.90625 
L 39.796875 0 
z
" id="DejaVuSans-86"/>
     <path d="M 19.671875 64.796875 
L 19.671875 37.40625 
L 32.078125 37.40625 
Q 38.96875 37.40625 42.71875 40.96875 
Q 46.484375 44.53125 46.484375 51.125 
Q 46.484375 57.671875 42.71875 61.234375 
Q 38.96875 64.796875 32.078125 64.796875 
z
M 9.8125 72.90625 
L 32.078125 72.90625 
Q 44.34375 72.90625 50.609375 67.359375 
Q 56.890625 61.8125 56.890625 51.125 
Q 56.890625 40.328125 50.609375 34.8125 
Q 44.34375 29.296875 32.078125 29.296875 
L 19.671875 29.296875 
L 19.671875 0 
L 9.8125 0 
z
" id="DejaVuSans-80"/>
     <path d="M 39.40625 66.21875 
Q 28.65625 66.21875 22.328125 58.203125 
Q 16.015625 50.203125 16.015625 36.375 
Q 16.015625 22.609375 22.328125 14.59375 
Q 28.65625 6.59375 39.40625 6.59375 
Q 50.140625 6.59375 56.421875 14.59375 
Q 62.703125 22.609375 62.703125 36.375 
Q 62.703125 50.203125 56.421875 58.203125 
Q 50.140625 66.21875 39.40625 66.21875 
z
M 39.40625 74.21875 
Q 54.734375 74.21875 63.90625 63.9375 
Q 73.09375 53.65625 73.09375 36.375 
Q 73.09375 19.140625 63.90625 8.859375 
Q 54.734375 -1.421875 39.40625 -1.421875 
Q 24.03125 -1.421875 14.8125 8.828125 
Q 5.609375 19.09375 5.609375 36.375 
Q 5.609375 53.65625 14.8125 63.9375 
Q 24.03125 74.21875 39.40625 74.21875 
z
" id="DejaVuSans-79"/>
     <path d="M 44.390625 34.1875 
Q 47.5625 33.109375 50.5625 29.59375 
Q 53.5625 26.078125 56.59375 19.921875 
L 66.609375 0 
L 56 0 
L 46.6875 18.703125 
Q 43.0625 26.03125 39.671875 28.421875 
Q 36.28125 30.8125 30.421875 30.8125 
L 19.671875 30.8125 
L 19.671875 0 
L 9.8125 0 
L 9.8125 72.90625 
L 32.078125 72.90625 
Q 44.578125 72.90625 50.734375 67.671875 
Q 56.890625 62.453125 56.890625 51.90625 
Q 56.890625 45.015625 53.6875 40.46875 
Q 50.484375 35.9375 44.390625 34.1875 
z
M 19.671875 64.796875 
L 19.671875 38.921875 
L 32.078125 38.921875 
Q 39.203125 38.921875 42.84375 42.21875 
Q 46.484375 45.515625 46.484375 51.90625 
Q 46.484375 58.296875 42.84375 61.546875 
Q 39.203125 64.796875 32.078125 64.796875 
z
" id="DejaVuSans-82"/>
     <path d="M 34.28125 27.484375 
Q 23.390625 27.484375 19.1875 25 
Q 14.984375 22.515625 14.984375 16.5 
Q 14.984375 11.71875 18.140625 8.90625 
Q 21.296875 6.109375 26.703125 6.109375 
Q 34.1875 6.109375 38.703125 11.40625 
Q 43.21875 16.703125 43.21875 25.484375 
L 43.21875 27.484375 
z
M 52.203125 31.203125 
L 52.203125 0 
L 43.21875 0 
L 43.21875 8.296875 
Q 40.140625 3.328125 35.546875 0.953125 
Q 30.953125 -1.421875 24.3125 -1.421875 
Q 15.921875 -1.421875 10.953125 3.296875 
Q 6 8.015625 6 15.921875 
Q 6 25.140625 12.171875 29.828125 
Q 18.359375 34.515625 30.609375 34.515625 
L 43.21875 34.515625 
L 43.21875 35.40625 
Q 43.21875 41.609375 39.140625 45 
Q 35.0625 48.390625 27.6875 48.390625 
Q 23 48.390625 18.546875 47.265625 
Q 14.109375 46.140625 10.015625 43.890625 
L 10.015625 52.203125 
Q 14.9375 54.109375 19.578125 55.046875 
Q 24.21875 56 28.609375 56 
Q 40.484375 56 46.34375 49.84375 
Q 52.203125 43.703125 52.203125 31.203125 
z
" id="DejaVuSans-97"/>
     <path d="M 30.609375 48.390625 
Q 23.390625 48.390625 19.1875 42.75 
Q 14.984375 37.109375 14.984375 27.296875 
Q 14.984375 17.484375 19.15625 11.84375 
Q 23.34375 6.203125 30.609375 6.203125 
Q 37.796875 6.203125 41.984375 11.859375 
Q 46.1875 17.53125 46.1875 27.296875 
Q 46.1875 37.015625 41.984375 42.703125 
Q 37.796875 48.390625 30.609375 48.390625 
z
M 30.609375 56 
Q 42.328125 56 49.015625 48.375 
Q 55.71875 40.765625 55.71875 27.296875 
Q 55.71875 13.875 49.015625 6.21875 
Q 42.328125 -1.421875 30.609375 -1.421875 
Q 18.84375 -1.421875 12.171875 6.21875 
Q 5.515625 13.875 5.515625 27.296875 
Q 5.515625 40.765625 12.171875 48.375 
Q 18.84375 56 30.609375 56 
z
" id="DejaVuSans-111"/>
     <path d="M 64.40625 67.28125 
L 64.40625 56.890625 
Q 59.421875 61.53125 53.78125 63.8125 
Q 48.140625 66.109375 41.796875 66.109375 
Q 29.296875 66.109375 22.65625 58.46875 
Q 16.015625 50.828125 16.015625 36.375 
Q 16.015625 21.96875 22.65625 14.328125 
Q 29.296875 6.6875 41.796875 6.6875 
Q 48.140625 6.6875 53.78125 8.984375 
Q 59.421875 11.28125 64.40625 15.921875 
L 64.40625 5.609375 
Q 59.234375 2.09375 53.4375 0.328125 
Q 47.65625 -1.421875 41.21875 -1.421875 
Q 24.65625 -1.421875 15.125 8.703125 
Q 5.609375 18.84375 5.609375 36.375 
Q 5.609375 53.953125 15.125 64.078125 
Q 24.65625 74.21875 41.21875 74.21875 
Q 47.75 74.21875 53.53125 72.484375 
Q 59.328125 70.75 64.40625 67.28125 
z
" id="DejaVuSans-67"/>
     <path d="M 9.421875 75.984375 
L 18.40625 75.984375 
L 18.40625 0 
L 9.421875 0 
z
" id="DejaVuSans-108"/>
     <path d="M 18.109375 8.203125 
L 18.109375 -20.796875 
L 9.078125 -20.796875 
L 9.078125 54.6875 
L 18.109375 54.6875 
L 18.109375 46.390625 
Q 20.953125 51.265625 25.265625 53.625 
Q 29.59375 56 35.59375 56 
Q 45.5625 56 51.78125 48.09375 
Q 58.015625 40.1875 58.015625 27.296875 
Q 58.015625 14.40625 51.78125 6.484375 
Q 45.5625 -1.421875 35.59375 -1.421875 
Q 29.59375 -1.421875 25.265625 0.953125 
Q 20.953125 3.328125 18.109375 8.203125 
z
M 48.6875 27.296875 
Q 48.6875 37.203125 44.609375 42.84375 
Q 40.53125 48.484375 33.40625 48.484375 
Q 26.265625 48.484375 22.1875 42.84375 
Q 18.109375 37.203125 18.109375 27.296875 
Q 18.109375 17.390625 22.1875 11.75 
Q 26.265625 6.109375 33.40625 6.109375 
Q 40.53125 6.109375 44.609375 11.75 
Q 48.6875 17.390625 48.6875 27.296875 
z
" id="DejaVuSans-112"/>
    </defs>
    <g transform="translate(279.58 20.88)scale(0.12 -0.12)">
     <use xlink:href="#DejaVuSans-53"/>
     <use x="63.623047" xlink:href="#DejaVuSans-49"/>
     <use x="127.246094" xlink:href="#DejaVuSans-50"/>
     <use x="190.869141" xlink:href="#DejaVuSans-45"/>
     <use x="226.953125" xlink:href="#DejaVuSans-98"/>
     <use x="290.429688" xlink:href="#DejaVuSans-105"/>
     <use x="318.212891" xlink:href="#DejaVuSans-116"/>
     <use x="357.421875" xlink:href="#DejaVuSans-32"/>
     <use x="389.208984" xlink:href="#DejaVuSans-86"/>
     <use x="457.617188" xlink:href="#DejaVuSans-80"/>
     <use x="517.919922" xlink:href="#DejaVuSans-79"/>
     <use x="596.630859" xlink:href="#DejaVuSans-82"/>
     <use x="666.113281" xlink:href="#DejaVuSans-32"/>
     <use x="697.900391" xlink:href="#DejaVuSans-84"/>
     <use x="758.765625" xlink:href="#DejaVuSans-114"/>
     <use x="799.878906" xlink:href="#DejaVuSans-97"/>
     <use x="861.158203" xlink:href="#DejaVuSans-110"/>
     <use x="924.537109" xlink:href="#DejaVuSans-115"/>
     <use x="976.636719" xlink:href="#DejaVuSans-105"/>
     <use x="1004.419922" xlink:href="#DejaVuSans-116"/>
     <use x="1043.628906" xlink:href="#DejaVuSans-105"/>
     <use x="1071.412109" xlink:href="#DejaVuSans-111"/>
     <use x="1132.59375" xlink:href="#DejaVuSans-110"/>
     <use x="1195.972656" xlink:href="#DejaVuSans-32"/>
     <use x="1227.759766" xlink:href="#DejaVuSans-67"/>
     <use x="1297.583984" xlink:href="#DejaVuSans-108"/>
     <use x="1325.367188" xlink:href="#DejaVuSans-111"/>
     <use x="1386.548828" xlink:href="#DejaVuSans-115"/>
     <use x="1438.648438" xlink:href="#DejaVuSans-101"/>
     <use x="1500.171875" xlink:href="#DejaVuSans-117"/>
     <use x="1563.550781" xlink:href="#DejaVuSans-112"/>
    </g>
   </g>
  </g>
  <g id="legend_1">
   <g id="patch_9">
    <path d="M 597.98 79.74875 
L 699.68 79.74875 
Q 701.68 79.74875 701.68 77.74875 
L 701.68 33.88 
Q 701.68 31.88 699.68 31.88 
L 597.98 31.88 
Q 595.98 31.88 595.98 33.88 
L 595.98 77.74875 
Q 595.98 79.74875 597.98 79.74875 
z
" style="fill:#ffffff;opacity:0.8;stroke:#cccccc;stroke-linejoin:miter;"/>
   </g>
   <g id="line2d_28">
    <path d="M 599.98 39.978437 
L 619.98 39.978437 
" style="fill:none;stroke:#1f77b4;stroke-linecap:square;stroke-width:1.5;"/>
   </g>
   <g id="line2d_29">
    <g>
     <use style="fill:#1f77b4;stroke:#1f77b4;" x="609.98" xlink:href="#mfd23d3c377" y="39.978437"/>
    </g>
   </g>
   <g id="text_16">
    <!-- Unhalt_GHz -->
    <defs>
     <path d="M 8.6875 72.90625 
L 18.609375 72.90625 
L 18.609375 28.609375 
Q 18.609375 16.890625 22.84375 11.734375 
Q 27.09375 6.59375 36.625 6.59375 
Q 46.09375 6.59375 50.34375 11.734375 
Q 54.59375 16.890625 54.59375 28.609375 
L 54.59375 72.90625 
L 64.5 72.90625 
L 64.5 27.390625 
Q 64.5 13.140625 57.4375 5.859375 
Q 50.390625 -1.421875 36.625 -1.421875 
Q 22.796875 -1.421875 15.734375 5.859375 
Q 8.6875 13.140625 8.6875 27.390625 
z
" id="DejaVuSans-85"/>
     <path d="M 54.890625 33.015625 
L 54.890625 0 
L 45.90625 0 
L 45.90625 32.71875 
Q 45.90625 40.484375 42.875 44.328125 
Q 39.84375 48.1875 33.796875 48.1875 
Q 26.515625 48.1875 22.3125 43.546875 
Q 18.109375 38.921875 18.109375 30.90625 
L 18.109375 0 
L 9.078125 0 
L 9.078125 75.984375 
L 18.109375 75.984375 
L 18.109375 46.1875 
Q 21.34375 51.125 25.703125 53.5625 
Q 30.078125 56 35.796875 56 
Q 45.21875 56 50.046875 50.171875 
Q 54.890625 44.34375 54.890625 33.015625 
z
" id="DejaVuSans-104"/>
     <path d="M 50.984375 -16.609375 
L 50.984375 -23.578125 
L -0.984375 -23.578125 
L -0.984375 -16.609375 
z
" id="DejaVuSans-95"/>
    </defs>
    <g transform="translate(627.98 43.478437)scale(0.1 -0.1)">
     <use xlink:href="#DejaVuSans-85"/>
     <use x="73.193359" xlink:href="#DejaVuSans-110"/>
     <use x="136.572266" xlink:href="#DejaVuSans-104"/>
     <use x="199.951172" xlink:href="#DejaVuSans-97"/>
     <use x="261.230469" xlink:href="#DejaVuSans-108"/>
     <use x="289.013672" xlink:href="#DejaVuSans-116"/>
     <use x="328.222656" xlink:href="#DejaVuSans-95"/>
     <use x="378.222656" xlink:href="#DejaVuSans-71"/>
     <use x="455.712891" xlink:href="#DejaVuSans-72"/>
     <use x="530.908203" xlink:href="#DejaVuSans-122"/>
    </g>
   </g>
   <g id="line2d_30">
    <path d="M 599.98 54.934687 
L 619.98 54.934687 
" style="fill:none;stroke:#ff7f0e;stroke-linecap:square;stroke-width:1.5;"/>
   </g>
   <g id="line2d_31">
    <g>
     <use style="fill:#ff7f0e;stroke:#ff7f0e;" x="609.98" xlink:href="#mf7b048cd89" y="54.934687"/>
    </g>
   </g>
   <g id="text_17">
    <!-- Unhalt_GHz_1 -->
    <g transform="translate(627.98 58.434687)scale(0.1 -0.1)">
     <use xlink:href="#DejaVuSans-85"/>
     <use x="73.193359" xlink:href="#DejaVuSans-110"/>
     <use x="136.572266" xlink:href="#DejaVuSans-104"/>
     <use x="199.951172" xlink:href="#DejaVuSans-97"/>
     <use x="261.230469" xlink:href="#DejaVuSans-108"/>
     <use x="289.013672" xlink:href="#DejaVuSans-116"/>
     <use x="328.222656" xlink:href="#DejaVuSans-95"/>
     <use x="378.222656" xlink:href="#DejaVuSans-71"/>
     <use x="455.712891" xlink:href="#DejaVuSans-72"/>
     <use x="530.908203" xlink:href="#DejaVuSans-122"/>
     <use x="583.398438" xlink:href="#DejaVuSans-95"/>
     <use x="633.398438" xlink:href="#DejaVuSans-49"/>
    </g>
   </g>
   <g id="line2d_32">
    <path d="M 599.98 69.890937 
L 619.98 69.890937 
" style="fill:none;stroke:#2ca02c;stroke-linecap:square;stroke-width:1.5;"/>
   </g>
   <g id="line2d_33">
    <g>
     <use style="fill:#2ca02c;stroke:#2ca02c;" x="609.98" xlink:href="#mc48785f5ad" y="69.890937"/>
    </g>
   </g>
   <g id="text_18">
    <!-- Unhalt_GHz_2 -->
    <g transform="translate(627.98 73.390937)scale(0.1 -0.1)">
     <use xlink:href="#DejaVuSans-85"/>
     <use x="73.193359" xlink:href="#DejaVuSans-110"/>
     <use x="136.572266" xlink:href="#DejaVuSans-104"/>
     <use x="199.951172" xlink:href="#DejaVuSans-97"/>
     <use x="261.230469" xlink:href="#DejaVuSans-108"/>
     <use x="289.013672" xlink:href="#DejaVuSans-116"/>
     <use x="328.222656" xlink:href="#DejaVuSans-95"/>
     <use x="378.222656" xlink:href="#DejaVuSans-71"/>
     <use x="455.712891" xlink:href="#DejaVuSans-72"/>
     <use x="530.908203" xlink:href="#DejaVuSans-122"/>
     <use x="583.398438" xlink:href="#DejaVuSans-95"/>
     <use x="633.398438" xlink:href="#DejaVuSans-50"/>
    </g>
   </g>
  </g>
 </g>
 <defs>
  <clipPath id="pb61513f813">
   <rect height="435.16" width="658.96" x="47.72" y="26.88"/>
  </clipPath>
 </defs>
</svg>
