<?xml version="1.0" encoding="iso-8859-1"?>
<!-- Generator: Adobe Illustrator 18.1.1, SVG Export Plug-In . SVG Version: 6.00 Build 0)  -->
<svg version="1.1" id="Capa_1" xmlns="http://www.w3.org/2000/svg" xmlns:xlink="http://www.w3.org/1999/xlink" x="0px" y="0px"
	 viewBox="0 0 612.024 612.024" style="enable-background:new 0 0 612.024 612.024;" xml:space="preserve">
<g>
	<path d="M608.721,51.908C607.882,23.92,593.087,5.77,567.539,3.33c-0.839,0-0.839,0-1.678,0L399.459,0.05h-1.678
		c-28.827,0-48.579,10.677-60.094,20.591l-0.839,0.839L12.354,346.812c-16.473,16.473-16.473,44.461,0,60.933L204.229,599.62
		c8.236,8.236,18.913,12.354,30.505,12.354l0,0c11.515,0,22.268-4.118,30.505-12.354L425.006,440.69
		c1.678-1.678,3.279-3.279,4.957-5.796l155.65-155.65c9.914-11.516,27.149-36.224,26.387-70.008L608.721,51.908z M563.421,257.815
		L406.932,414.304c-0.839,0.839-1.678,1.678-1.678,2.44c-0.839,0.839-0.839,1.678-1.678,2.44L243.809,578.266
		c-4.957,4.957-13.193,4.957-18.15,0L33.784,386.316c-4.957-4.957-4.957-13.193,0-18.15L358.277,43.672
		c7.397-5.796,20.591-13.193,39.504-13.193l167.166,3.279c6.559,0.839,12.354,4.118,13.193,18.913l3.279,157.328
		C581.495,233.106,569.98,250.417,563.421,257.815z M471.145,82.413c-32.106,0-57.654,25.548-57.654,57.654
		s25.548,57.654,57.654,57.654s57.654-25.548,57.654-57.654S503.251,82.413,471.145,82.413z M471.145,167.216
		c-14.795,0-27.149-12.354-27.149-27.149s12.354-27.149,27.149-27.149c14.795,0,27.149,12.354,27.149,27.149
		S485.939,167.216,471.145,167.216z M362.396,317.146c5.796,5.796,5.796,15.634,0,21.43L234.733,466.238
		c-3.279,3.279-6.558,4.118-10.677,4.118s-7.397-1.678-10.677-4.118c-5.796-5.796-5.796-15.634,0-21.43l127.662-127.662
		C346.762,311.35,356.676,311.35,362.396,317.146z M345.923,228.225L171.284,402.865c-3.279,3.279-6.558,4.118-10.677,4.118
		s-7.397-1.678-10.677-4.118c-5.796-5.796-5.796-15.634,0-21.43L324.57,206.796c5.796-5.796,15.634-5.796,21.43,0
		C351.719,212.515,351.719,221.59,345.923,228.225z"/>
</g>
<g>
</g>
<g>
</g>
<g>
</g>
<g>
</g>
<g>
</g>
<g>
</g>
<g>
</g>
<g>
</g>
<g>
</g>
<g>
</g>
<g>
</g>
<g>
</g>
<g>
</g>
<g>
</g>
<g>
</g>
</svg>
